<?xml version="1.0" encoding="utf-8"?>
<!-- Generator: Adobe Illustrator 25.1.0, SVG Export Plug-In . SVG Version: 6.00 Build 0)  -->
<svg version="1.1" id="Andaman_and_Nicobar_Islands"
	 xmlns="http://www.w3.org/2000/svg" xmlns:xlink="http://www.w3.org/1999/xlink" x="0px" y="0px" viewBox="0 0 800 533"
	 style="enable-background:new 0 0 800 533;" xml:space="preserve">
<style type="text/css">
	.st0{stroke:#000000;stroke-width:0.4;}
	.st1{fill:none;}
</style>
<path id="Nicobars" class="st0" d="M423,493.8l0.1,0l0-0.1l-0.1-0.1l0.1-0.2l0-0.2l-0.1,0l-0.1-0.1l-0.1,0l0-0.2l-0.1,0.1l-0.1-0.2
	l0.1-0.1l-0.1-0.2l-0.1-0.2l0.1-0.1l0-0.3l-0.1-0.1h-0.1l-0.2,0.3l0,0.2l-0.1,0.1l-0.1-0.1l-0.1-0.3l0-0.3l-0.1-0.1l-0.1-0.3l0-0.2
	l0.1,0l0.1,0l0.1-0.1l0-0.2l0.1-0.3l-0.1-0.2l0.1-0.2l0-0.2l-0.1-0.1v-0.1l0.1-0.1l-0.1-0.4l-0.1-0.1l-0.2,0.2l-0.1-0.1l0-0.3
	l-0.1-0.1l-0.1-0.2l0.1-0.4l0-0.2l-0.1-0.2l-0.1-0.1l-0.2-0.3l-0.2-0.1l-0.2,0.1l-0.1,0l-0.2,0.2l-0.1-0.1l0-0.2l0.1-0.1l0-0.3
	l-0.2-0.4l-0.1-0.1l-0.2-0.2l-0.3-0.2l-0.3,0.1l-0.1,0.1l0,0.2l-0.1,0.2v0.1l-0.1,0.1l-0.2,0l-0.1-0.1l-0.1-0.2l0.1-0.2l0.1,0
	l0.1-0.1l0-0.4l0.1,0l0-0.2l-0.1-0.1l-0.1-0.2l0-0.1l0.1-0.2l0-0.2l-0.1-0.1l-0.2-0.1l-0.1-0.1l0-0.4l0.1-0.1l0.1-0.2v-0.3l0-0.4
	l0-0.1h-0.2l-0.1-0.2l0-0.2l0.1-0.2l0.1-0.1l0-0.1l0-0.2l-0.2-0.2l-0.1,0.1L418,482l0-0.2l-0.1-0.3l0-0.4l0.1-0.1l0.2,0l0.1,0
	l0.1-0.2l0.2-0.1l0.1-0.2l-0.1-0.1l-0.2-0.1l-0.2,0.3l-0.2,0l-0.1-0.2l0-0.6l0.1-0.2l0.3,0l0.1-0.2l0-0.3l0.1-0.1l0.1,0.1l0.1-0.1
	l0.1-0.3l0-0.4l0-0.2l-0.1-0.2l0-0.2l0.1-0.5l0-0.3l0.1-0.2l0.2-0.2l0.1-0.1l0-0.2l0.1-0.1l0.2-0.1l0.4,0.1l0.1,0l0.2-0.2l0.2,0
	l0.1,0l0.2,0.1l0,0.1l0.1,0l0.2,0.1l0.2-0.1l0.2,0l0.3-0.3l0-0.1l0.2-0.4l0.2-0.1l0.1,0l-0.1-0.2l0.1-0.2l0.1,0l0.2-0.2l0.1,0.1
	l0.1,0.2l0.2,0.1l0.2,0l0.1-0.1l0-0.2l0.2,0l0.1,0l0.1,0.1l0.3-0.1l0,0.1l0.1,0l0.1,0.2l0.1,0l0,0.2h0.1l0.1-0.3l-0.1-0.2l0.1-0.1
	l0.2,0l0-0.1l-0.1,0l0-0.3l0.1,0.1l0-0.1l-0.1-0.2l0-0.3l-0.1,0l0-0.2l0.1,0l0.1,0.1l0.2-0.1l0-0.2l0.2-0.1l0.1,0l0.1-0.1l0.1,0.1
	h0.1l0.1-0.1l0.1-0.1l0-0.2l0.2,0.1l0.1,0.1l0.2-0.1l0,0.3l0,0.1l-0.1,0.1l-0.1,0.2l0.1,0.4l0.1,0.2l0.2,0.2h0.2l0.1-0.2l0.2,0
	l0.1-0.1l0.1,0.1l0.1,0.2l0.1,0.1l0.1,0.4l0.2,0l0,0.2l-0.1,0.3l0.1,0.3v0.3l-0.1,0.3l-0.1,0.1l0,0.2l0.1,0.4l0.1,0l0.1,0.2
	l-0.1,0.1l0.1,0.5l0,0.2l0,0.3l0,0.3l-0.1,0.3l0,0.3l0.1,0.2l0.2,0.1l0.1,0.2l0,0.2l-0.1,0.1l0,0.3l-0.1,0.3v0.2l0.1,0.2l0,0.2
	l0,0.4l0.1,0.3l0.1,0.1l0.2,0l0.2,0.1l0.2,0.4l0,0.1l0,0.3l0.1,0.2l0.1,0.2l0,0.2l0.1,0.2l0.1,0.1v0.2l-0.2,0.2l0,0.1l0.1,0.1l0,0.1
	l0.1,0.1l0,0.2l0,0.2l0.1,0.1h0.1l0.3-0.2l0.1,0.1l0.2,0.3l0,0.2l0.1,0.2l0.2,0.2l0.2,0.1l0.1,0.4l0,0.2l-0.1,0.2l-0.1,0.2l-0.1-0.1
	l-0.1-0.2l-0.2-0.1l-0.1-0.2l-0.1-0.3l-0.1-0.2l-0.1-0.1l-0.2,0.1l-0.2,0.3l-0.1,0.3l0,0.3l0.1,0.1l0.1,0l0.2,0.3l0.1,0l0.1,0.2
	l-0.1,0.2l0,0.4l0.2,0.2l0.1,0.2v0.2l0.1,0.1l0.3,0.1l0.1,0.2l-0.1,0.3l-0.2,0.1l-0.2-0.1l-0.2-0.2l-0.1,0l-0.1,0.2l-0.1,0.1
	L429,490l0,0.1l0,0.3l0,0.4l-0.2,0l-0.1,0.1l0,0.2l0,0.2l0.1,0.1l0.2,0.2l0,0.2l-0.2,0.2l0,0.1l-0.2,0.1l-0.2-0.1l-0.1,0l-0.1,0.1
	l-0.1,0.2l0,0.2l0.1,0.1l-0.1,0.2l-0.1,0.1l0,0.3l0.1,0.1l0,0.2l0.1,0.1l0,0.4l0,0.2l-0.3,0.3l0,0.2l0.1,0.4l-0.1,0.3l0,0.2l0.1,0.3
	l0.2,0l0.1,0l0.2,0.1l0.1,0.2l0,0.2l-0.4,0.6l0.1,0.2l0,0.2l-0.1,0.1l-0.2,0.4l-0.1,0.1l-0.2,0l0,0.3l-0.1,0.2l-0.2,0.1l-0.1-0.2
	l0-0.2l-0.4-0.6l-0.1-0.2l-0.3-0.1l-0.4,0l-0.1,0.1l-0.1,0.3l0,0.3l0,0.1l0.1,0.1v0.2l0.1,0.2l-0.1,0.2l0,0.4l-0.1,0.2l-0.2,0.3
	l-0.1,0.1l-0.1,0.7l-0.1,0.1l-0.1,0l-0.1,0.1l-0.5-0.1l-0.3-0.2l0-0.1l-0.1,0l-0.1-0.1l0-0.2l0.1-0.2l0.1-0.1l0.2-0.2l0-0.1
	l-0.1-0.1l-0.1-0.1v-0.2l0-0.1l0.1-0.1l0-0.2l-0.1-0.1l0-0.1l0.1-0.3l0-0.2l0.2,0l0.1-0.2l0-0.3l-0.1-0.1l-0.1,0l-0.2,0.3l-0.1,0
	l-0.2-0.1l-0.2-0.3l0-0.1l-0.1-0.1l-0.1-0.1l-0.1-0.2l-0.1,0l-0.1-0.2l0-0.2l0.1-0.2l0-0.2l0.1,0l0.2-0.3l0-0.1l-0.1-0.1l0-0.2
	l-0.1-0.1l-0.1,0.1l-0.2,0l-0.1-0.2l-0.1-0.2l-0.2-0.2l0-0.1l0.1-0.1l0-0.2l-0.2-0.3L423,493.8z M426.1,470.3l-0.1,0.2l-0.1-0.1
	l0.1-0.1L426.1,470.3z M420.5,475l-0.3,0l-0.1-0.1v-0.3l-0.1-0.3l0-0.2L420,474l0.1-0.3l0.2,0.4v0.2l0.1,0.1l0.1,0.1l0.2,0.2
	l-0.1,0.2V475z M422.6,463.9l0.2,0.2l0,0.2l-0.1,0.1l-0.2,0l-0.2-0.2v-0.1l0.2-0.3L422.6,463.9z M420.2,461.5l0,0.2l0.1,0.4l0.1,0.1
	l0,0.1l0,0.4l0.1,0.1l-0.1,0.2l0,0.1l0,0.7l0.1,0.3l0.1,0.1h0.1l0.2,0.2l0.2,0.1l0.2,0.2l0.2,0.1h0.1l0.1,0.1l0.1,0.2l0.1,0l0.1,0.2
	l0,0.4l-0.1,0.3l0,0.2l-0.2,0.1l0,0.1l0,0.2l-0.3,0.3l-0.2,0.5l0,0.2l-0.1,0.4l-0.1,0.3l-0.2,0.1l-0.1,0.2l-0.1,0.4l-0.1,0.1
	l-0.2,0.2l-0.1-0.1l-0.1,0.1l-0.3,0.1l-0.1,0.3l-0.1,0.1l-0.2,0.2l-0.1,0.1l-0.4,0.1l-0.1,0.2l-0.2,0.1l-0.1,0.2l0,0.2l-0.1,0.1
	l-0.1,0.3l-0.1,0.2l-0.1,0.5l-0.1,0.2l-0.2,0.1l-0.1,0.2l-0.1,0.2l-0.1,0.2h-0.1l-0.1,0.1l-0.2-0.2l-0.2-0.4l0-0.2L417,472l-0.1-0.1
	l0-0.1l-0.1,0l0-0.1l0-0.2l0.1-0.2l0.1-0.1l0-0.1l-0.1-0.1v-0.1l0.1-0.2l0-0.4l-0.1-0.2l-0.1-0.3l0-0.2l-0.1-0.2h-0.1l-0.1-0.1
	l0-0.1l0.1,0l0.2-0.2l0-0.1l0.1-0.1l0.1-0.2l0-0.3l0-0.4l-0.1-0.1v-0.5l0-0.2l-0.1-0.2l0-0.6l0.1-0.5l0.2-0.2l0.2,0l0.4,0.3l0.1-0.1
	l0.2-0.2l0-0.1l0.2-0.3h0.2l0.1,0.2l0.2,0.2l0.1,0l0.2-0.1l0.1-0.1l0-0.3l0.1-0.2l0.1,0l0.2-0.2l0.1,0l0.1-0.1l0.1-0.1l0.1,0.1
	l0.2,0l0.1-0.1l0.1,0.1h0.2l0-0.2l-0.2,0l-0.1-0.1V464l-0.2-0.1l0-0.1l0.1-0.1l0-0.2v-0.3l0.1-0.3l0-0.2l0-0.2l-0.1-0.1l0-0.3l0-0.1
	l0-0.2l-0.1-0.2l0-0.2l0.1,0.1L420.2,461.5L420.2,461.5z M423.5,495.4l0.1,0.1l-0.1,0.2l-0.1-0.1L423.5,495.4z M419.2,463.4l0.1,0.1
	l0,0.1l0,0.1l0.1,0.2l0,0.1l-0.1,0.1l-0.1,0L419,464l-0.1-0.3L419.2,463.4L419.2,463.4z M417.4,459.6L417.4,459.6l0.2,0.2l0,0.1
	l-0.1,0.1l-0.2-0.1l0-0.2L417.4,459.6z M416.9,459.5l-0.1,0.1l-0.1-0.2l0.1-0.1L416.9,459.5z M413,456.8l0.3,0.4l0,0.1l-0.1,0.2
	l-0.1,0.1h-0.1l-0.1-0.2l0.1-0.2l-0.1-0.1l0-0.3L413,456.8z M414.5,422.4L414.5,422.4l0.1,0.2l0.2,0.4l0,0l0.1,0.2l0,0.2l0,0.2
	l0,0.3l-0.1,0.1l0.1,0.1v0.5l0.1,0.4l-0.1,0.3l0,0.3l0.2,0.2l0.1,0.2l0,0.2l0.1,0.4l0,0.2l0,0.2l-0.1,0.2l-0.1,0.1l-0.1,0l-0.2-0.5
	l-0.1-0.2h-0.1l-0.1-0.1l-0.1-0.3l-0.1-0.1l-0.1,0l-0.1-0.1l-0.1-0.4l0.1-0.3l0.1-0.1l0.2,0l0-0.2l0-0.2l-0.3-0.4l-0.1-0.1l-0.1-0.1
	l0-0.2l0.1-0.3l0.1-0.4l-0.1,0.1l-0.3-0.5l-0.1,0l-0.1-0.2l0.1-0.1l0.2-0.1l0.2-0.1h0.1L414.5,422.4z M397.7,418.6l-0.1-0.1
	l-0.1-0.1h-0.1l0-0.1l-0.1-0.1l-0.2,0l-0.1,0.1l-0.2-0.1l-0.1-0.2l-0.1-0.1h-0.1l0-0.1l-0.2-0.1l-0.4-0.3l-0.1,0l0-0.1l-0.1-0.2
	l-0.2,0l-0.1-0.1l-0.1,0l-0.2-0.2l-0.1-0.1l-0.1-0.1l0-0.2l-0.1-0.1l-0.1,0l-0.2-0.3l-0.2-0.5l-0.1-0.3l-0.2-0.5l-0.2-0.3l-0.1-0.2
	l-0.1-0.4l-0.1-0.5l0-0.2l-0.1-0.5l0-0.5l0-0.2l0.1-0.3l0.2-0.4l0.1-0.4l0-0.4v-0.2l0.1-0.3l0.2-0.1l0.1-0.2l0.1-0.1l0.1-0.2
	l0.3,0.2l0.2-0.1l0.1,0l0.1-0.1l0.1-0.1l0.1-0.1l0.1,0.1l0,0.2l0.1,0.2l0.1,0l0.2,0.1h0.1l0,0.1l0,0.3l-0.1,0.2l0,0.4l-0.1,0.3
	l-0.1,0.1l-0.2,0.4l-0.1,0.4l0.1,0.2l0,0.2l0,0.1l-0.1,0.1l-0.1,0.4l-0.1,0.2l-0.1,0.4l0,0.4l0.1,0.2l0.1,0.4l0.2,0.4l0.3,0.3
	l0.1,0.1l0.1,0.1l0.3,0.4l0.1,0.1l0.2,0.1l0.2,0.2l0.2,0.1l0.2,0.1l0.2,0.2l0.2,0.1l0.2,0.1l0.2,0.1l0.1,0.2l0.1,0.1l0.1,0l0.1,0.1
	l0,0.2l-0.1,0.2l0,0.2l-0.1,0.5l-0.1,0.2l-0.2,0l-0.2,0L397.7,418.6z M417.6,407l0,0.1l0.2,0.1l-0.2,0.2l-0.1-0.1l-0.1,0l-0.1-0.2
	l0.1-0.1L417.6,407z M391.5,402.5l0.2,0.3l0.1,0.1l0.2,0.3l0.1,0.2l0,0.2l0,0.1v0.3l0.1,0.1l0.1,0.2l-0.1,0.2l-0.2,0l-0.1,0.1
	l-0.1-0.1l-0.3-0.1l-0.2-0.2l-0.1-0.2l0-0.1l0-0.3l0-0.2l0.2-0.5L391.5,402.5z M416.1,396.7l0.1,0.1l0,0.2l0.1,0.2l0,0.3l0,0.2
	l-0.1,0.2l0.1,0.2l0,0.3l0.1,0.1l0,0.3l0.1,0.1l-0.1,0.1l0,0.1l0.1,0.1l0.2,0.1l0.1,0.1l0.1,0l0.1,0.1l-0.1,0.1v0.1l0.2,0.3l0,0.1
	l-0.2,0.1l-0.1,0.2l0.1,0.2l0.1,0.3l0,0.4v0.2l0.1,0.2l0,0.2l0.1,0.1l0.1,0.6l-0.1,0.2l-0.1,0l-0.1-0.2l-0.2-0.1l-0.2,0.1l-0.1,0.1
	l0,0.3v0.4l-0.1,0.3l0,0.2l0.1,0.2l0.1,0.1l0,0.2l0,0.4l-0.1,0.2l0,0.2l-0.1,0.2l-0.1-0.1l0-0.1l-0.1-0.4l-0.1-0.1l0.2-0.1l0-0.1
	l-0.1-0.3l0.1-0.2l0-0.2l0-0.1l-0.1-0.1l0-0.3l0.1-0.1V403l-0.1-0.2l0.1-0.3l-0.2-0.1l0.1-0.1l-0.1-0.3l0.1-0.1l0.2,0l0.1-0.2l0-0.2
	l-0.1-0.2l-0.1-0.3l0-0.1l0-0.2l0-0.4l0-0.2l0-0.1l-0.1-0.3l-0.1-0.1l0.1-0.2l0-0.2h-0.1l0-0.2l-0.1-0.1l0-0.2l-0.1-0.1l-0.1-0.2
	l-0.1-0.1l0.1-0.1l0-0.2l-0.1-0.2l0.1-0.4l0-0.1l0.1-0.1l0-0.2l0-0.2l-0.1-0.1l0.1-0.2L416.1,396.7z M415.8,396.2l0,0.2l-0.1-0.1
	l0-0.1H415.8z M383.5,382.6L383.5,382.6l-0.2,0l-0.1-0.2l0-0.1V382l0-0.1l0.2-0.3l0.1,0l0.1,0.1l0,0.3l0,0.4L383.5,382.6z
	 M380.5,358.3l0.1,0.1l0.4,0.6l0.3,0.3l0.3,0.3l0.2,0.4l0.2,0.8l0,0.2l1.3-0.8l0.1,0.4l-1.4,0.6l0,0.3l0,0.4l0,0.1l0.1,0.2l0.1,0.3
	l0,0.4l0,0.3l-0.1,0.4l0,0.3l0.1,0.5H382l-0.2,0.2l-0.1,0l-0.1,0.2l-0.1,0l0,0.2l0,0.2l-0.2,0l-0.1,0.2l-0.4,0.1l-0.2,0l-0.5-0.1
	l-0.2-0.2l-0.2-0.2l-0.1,0.1l-0.2,0.1l-0.2-0.1l-0.2-0.1l-0.1,0.1l-0.2,0l-0.2,0l-0.2,0.1l-0.2,0l-0.1,0l-0.1-0.2l-0.1-0.2l0-0.2
	l0-0.2l-0.1-0.1l0-0.1l-0.1-0.2l0-0.2l-0.1-0.1l0-0.3l0.1-0.5l0-0.3l0-0.6l0-0.3l0-0.4l0.1-0.2l0-0.1l0-0.3l0-0.1l0.1-0.3l0.2-0.3
	l0.2-0.1l0.2,0.1l0.1,0.1l0.2-0.1l0.1,0l0.1,0.2l0.1,0l0.2-0.2l0.2,0l0.1,0.1h0.3l0.1-0.1l0.1-0.3l0-0.1l0-0.2l0.2-0.2l0.1-0.2
	l-0.1-0.1l-0.1-0.1l0-0.1l0.1,0.1l0.1-0.3l-0.1-0.3l-0.1-0.2l0-0.1l0.1,0l0.1,0.2l0,0.1L380.5,358.3z M399.7,414.4l0.2,0.2l0.1,0.4
	l0.1,0.3l0.1,0.1l0,0.2l0.1,0.2l0,0.2l0.1,0.1l0,0.2l0.1,0.1l-0.1,0.2l-0.3,0.1l-0.1-0.1l-0.1,0.2l-0.2-0.2l0-0.3l-0.1-0.1l-0.1-0.1
	l-0.2-0.2l-0.2-0.5l0-0.2l0.1-0.5l0.1-0.1l0.3-0.2L399.7,414.4L399.7,414.4z M407,435.1h-0.2l-0.2,0.1l-0.1,0.1l-0.1,0.5l-0.2,0.2
	l-0.1,0.1l-0.1,0l-0.1,0.2l-0.1,0.1l-0.2-0.1l-0.1-0.2l-0.1,0.1l-0.5-0.2l-0.2-0.1l-0.1-0.1l-0.1-0.3l-0.2-0.2l0-0.2l0.1-0.2l0-0.2
	l-0.1-0.3l-0.1-0.1l0-0.2l0.2-0.3l0-0.1l-0.1,0l0-0.1l0.1-0.1l0.2-0.1l0.2-0.4l-0.2-0.1l-0.1-0.1l-0.2,0.2h0.1l0,0.2l-0.2,0.3
	l-0.1-0.2l-0.1-0.1l-0.2,0.1l0,0.1l-0.1,0.3l0.1,0.1l-0.1,0.1l-0.2-0.2h-0.1l-0.1-0.1l-0.2-0.3l0.1-0.2V433l0-0.2l-0.3-0.4l-0.1-0.6
	l0.2-0.2l0.1-0.3l0.2-0.1l0.1-0.2v-0.2l0-0.3l0-0.4l0.1-0.1v-0.2l0.1-0.3l0.4-0.6l0.3,0.1l0.2-0.3l0.1,0.2v0.2l0.1,0.1l0.1,0
	l0.3-0.1l0.2-0.2l0.2-0.4l0.2,0l0.2-0.1l0.1,0.1l0.3,0.2h0.1l0.3,0.1l0.2,0.3l0.2,0.1l0.1,0.2l0,0.1l-0.2,0.1l-0.1,0.3l0,0.5
	l0.1,0.3v0.2l-0.1,0.2l0,0.2l0.2,0.2l0.1,0.1l0.1,0.3l0.2,0.2h0.2l0.1,0l0.1-0.2l0.2-0.3l0.1,0.2l0.1,0.3l0.1,0.2l0.1,0.1l0.2,0.2
	l0.2,0.2l0.2,0.2l0.2,0.2l0.1,0.2l0.2,0.5l0,0.5l0,0.2l0.1,0.4l0.1,0.1l0,0.3l0.1,0.4l0,0.2l-0.1,0.1l-0.1,0.4l-0.2,0.3l-0.1,0.2
	l-0.1,0.1l-0.2-0.1l-0.2-0.1l-0.1-0.3l0-0.1l-0.1-0.2l-0.1-0.3l-0.2-0.4L408,435l-0.3-0.1l-0.3,0l-0.2,0.1l-0.2,0.2L407,435.1z
	 M413.1,428l0.3,0.1l0.1,0.1h0.3l0.1,0.1l0.1,0.3l0,0.1l0.1,0.2l0.1,0.1v0.1l0.1,0.2l0.1,0.3l0.1,0.2l0,0.2l0.1,0.1l0,0.2v0.2
	l0.1,0.1l-0.1,0.1l0,0.2l0.1,0.1l0,0.3l-0.1,0.2l0,0.1l0.1,0.1l0,0.3l-0.1,0.1l0,0.2l0.1,0.1l0,0.1l-0.1,0.1l0,0.3l0,0.2l-0.1,0.1
	v0.2l-0.1,0.1l0,0.1l-0.1,0.1l-0.3-0.4l-0.2-0.1l0-0.1l-0.2-0.3l-0.1,0l-0.1-0.2l-0.2-0.1l-0.3-0.3l-0.2-0.2v-0.1l-0.1-0.2l-0.1,0
	l-0.2-0.2l-0.1,0l-0.2-0.2l-0.1-0.2l-0.1-0.3l-0.2-0.2l-0.1-0.2l0-0.2l-0.1-0.3l0.1-0.1l0.2-0.1l0.1,0.2l0.2,0.1l0.2-0.3l0.1-0.1
	l0.1-0.3l0.1-0.1l0-0.1l0-0.4l-0.1-0.2l0.1-0.3l0.1,0l0.1,0.2l0,0.2l0.2,0.1l0.1,0.1l0,0.2l0.1,0.4l0.2,0.2l0,0.2l0.1,0l0-0.2
	l-0.1-0.3v-0.2l-0.1-0.5l0-0.2l-0.2-0.2l0-0.2L413.1,428z M412.5,426.9l-0.1,0l-0.1,0.2l0,0.4l-0.1,0.2l0,0.1l-0.1,0.1l-0.1-0.1
	l0-0.2l-0.2,0.2l-0.2,0l-0.1,0l0,0.2l-0.1,0.1l0,0.3l0.1,0.1l0.1,0.1l0.1,0.2l-0.1,0.1l-0.1,0l-0.1,0.2l0.1,0.1l-0.1,0.1l0,0.2
	l0,0.2l-0.1,0.2l-0.1-0.1l-0.1,0.2l-0.3-0.2l-0.1,0l-0.1-0.3l-0.2-0.4l-0.1-0.3l0-0.4v-0.5l0-0.1l0-0.1l0-0.3l0-0.1l0.1-0.1l0.1,0
	l0.1,0.2l0.1,0l0.1,0.2l0.1-0.1v-0.1l0.2,0l0.1-0.4l-0.1-0.1l-0.1,0l0-0.1l0.1-0.1l0.1,0l0-0.3l0,0l0.1-0.3l0.1,0l0.1,0.3l0,0.2
	l0.1,0.2l-0.1,0.4l0.2,0.2l0.1-0.2l0.2-0.1l0.1-0.2l-0.1-0.1l0-0.4l0.1,0l0.1-0.1l0-0.2l-0.1,0l-0.1,0.1l-0.1-0.1l0-0.3l0.1-0.2
	l0-0.1l-0.1-0.1l0-0.2l-0.1,0l-0.1,0.1l-0.2-0.1l-0.1,0l0,0.1l0,0.2l-0.1,0.1v0.2l-0.3,0.1l-0.1,0.2l-0.1,0l-0.1,0.2l-0.1,0.1
	l-0.1-0.1l-0.2,0.3l0.1,0.2l0,0.2l-0.2,0.3l-0.2-0.1l-0.1,0l0-0.2l0-0.2l0-0.2l-0.1-0.2l0.1-0.1l-0.1-0.3v-0.2l-0.1-0.5l0.1,0
	l0.1-0.1h0.1l0.1-0.2l-0.2-0.2l-0.1-0.1l-0.1,0.4l-0.1-0.2l-0.2-0.3l-0.2-0.4l-0.1-0.2l0-0.2l-0.1-0.1l0.1-0.2l-0.1-0.1h-0.2
	l-0.1-0.3l0-0.1l0-0.1l-0.1-0.1l0-0.2l0.1-0.2l0.2-0.1l0-0.2l-0.1-0.1l-0.1,0.1l-0.1-0.3l0-0.2l0.1-0.6l-0.1-0.4l0.1-0.1l0-0.3
	l0-0.1l0.1-0.1l0.1-0.1l0.2-0.1l0.4-0.2l0.2-0.1l0.2-0.4l0.1-0.1l0.2-0.1l0.1-0.1l0-0.3l0.1-0.2l0-0.3l0-0.3l0.1-0.3l0.2-0.1
	l0.2-0.1l0.2-0.2l0.1,0l0.2-0.1h0.1l0.1-0.1l0.1,0l0.2,0.1l0.1,0l0.2,0.1l0.1,0l0.3,0.3l0.1,0.2v0.4l0.1,0.2l0,0.2l0,0.3l-0.1,0.4
	l-0.1,0.2l-0.2,0.1v0.3l-0.1,0.3l-0.4,0.5l-0.1-0.1l0.1-0.2l0.1,0l0.2-0.2l0-0.2l-0.2,0.1l-0.1,0.2l-0.2,0.3l-0.2,0l-0.1,0.1l-0.1,0
	l-0.1,0.2l0,0.2l0.1,0l0,0.2l-0.2,0.1v0.2l-0.1,0.2l-0.1,0l0.1,0.2l0.2,0.1l0.3,0.4l0.1,0.2l0.1,0.1l0.1,0.2l0.2,0.4v0.1l0.1,0.3
	v0.1l0.2,0.4l0,0.3l0.4,0.5l0.2,0l0.1,0.1l0,0.2l0.1,0.2l0,0.2l0.1,0.1v0.3l0,0.2l-0.1,0.1l0,0.4l-0.1,0.1l0,0.3l-0.1,0.1l-0.1,0
	l0.1,0.2l0,0.2v0.4l-0.2-0.1l-0.1,0l-0.1-0.1l0-0.2l-0.1-0.1v-0.1L412.5,426.9z"/>
<path id="North_and_Middle_Andaman" class="st0" d="M387,187.4l0.1,0.3L387,188l-0.2,0.2l0.1,0.4l-0.1,0.3l-0.1-0.4l-0.3-0.2
	l-0.1-0.1l0-0.2l0.1-0.4v-0.2l0.2-0.1l0.1-0.1l0.1,0.1L387,187.4z M377.7,189.4l-0.1-0.4l0.1-0.4l-0.1-0.1l0.1-0.2l-0.1-0.3l0-0.3
	l0.1-0.2l-0.1-0.4l0-0.3l0.1-0.1l0-0.2l0.1,0l0-0.1h0.1l0.1,0.1l0,0.2l-0.1,0.1l-0.1,0.4v0.4l0,0v0.5l0.1,0l0.1-0.2l0-0.3l0.1,0
	l0-0.1l0.1,0l0.1,0.1l0-0.1l-0.2-0.1l-0.1-0.2l0-0.3l0.1,0l0.2,0.3l0.1-0.1l0.1,0.1l0.1-0.1l0.1,0.1l0.1,0l0.2,0v0.4l0,0l0,0.8
	l0.1,0.2l0.1,0.2l0,0.2l-0.1,0.2l0.1,0.2l0,0.3l-0.1,0.2l-0.2-0.1l-0.3,0l-0.1,0l-0.1,0.2l-0.1-0.2l-0.3-0.1h-0.1l-0.1-0.1l0-0.2
	l-0.1-0.1L377.7,189.4L377.7,189.4z M376.6,186.2l-0.1-0.1l0-0.1l0-0.2l0.1,0.2L376.6,186.2z M378,189.5l0,0.1l0.1,0.2l-0.2,0v-0.2
	l-0.1,0l0.1-0.2L378,189.5z M385.4,185.6l0.2,0.3l0,0.2l0.1,0.1l0.1,0.3l0,0.1l0.2,0.5l0,0.2l-0.1-0.2l-0.1,0l-0.1,0.1l-0.2,0.1
	l-0.1-0.1l0-0.1l-0.1-0.1l-0.1-0.1l-0.1,0l-0.1,0.2l-0.1,0.1l0,0.2l-0.1,0.1l0.1,0.1l-0.1,0.2l0,0.2l-0.1,0.3l-0.1,0l-0.1-0.2
	l-0.1-0.4l0-0.5l-0.2-0.3l0-0.2l0-0.4l0.1-0.3l0.1,0l0.1,0.1v0.2l0.1,0.1l0.2,0l0-0.2l0-0.2l0.1-0.2l0.2-0.1l0.1-0.1L385.4,185.6z
	 M380,182.5l0.1,0l0.2,0l0.2,0.2l0.1,0.2l0.2,0l0.1-0.1l0.1-0.3l0.3-0.1l0.3,0.1l0.2,0.2l0.2,0.3l0.2,0.1l0.2,0l0.2-0.2l0.4-0.1
	l0.1,0.1l0.1,0l0.2-0.1l0.1,0.1l0.2,0l0.1,0l0,0.1l0.2,0l0.1,0l-0.1,0.2l0.1,0.2l0,0.2l0.1,0.3l0.2-0.1l0.1-0.1l0.2,0.2l-0.1,0.3
	l-0.1,0l-0.1,0.2l0.1,0.3l0,0.5l0.1,0.1l0.1-0.2l0.1,0.1l-0.1,0.2l0,0.2l-0.2,0.1l-0.1,0.1l-0.2,0.2l-0.1,0.1l-0.3,0l-0.1,0l-0.1,0
	l-0.2,0.2l0,0.2l0.1,0.1l0.1,0.4l0.1,0.1l0.1,0.2l0.1,0.2l0.1,0.1l0.1,0.3l0,0.3l0,0.4l0,0.1l0.2,0.2l0.1,0l0,0.2l-0.1,0.2l-0.2,0.1
	L384,189l-0.3,0l0-0.2l-0.1-0.1l-0.2,0l-0.2-0.1l-0.1,0.1l-0.2,0.3l0,0.3l0,0.1l0.1,0.1l0.2-0.1l0.1,0.1l0,0.2l-0.1,0.1l0,0.1
	l-0.1,0.3l0.2,0.3l-0.2,0.2l-0.1,0.3l0.1,0.2l-0.1,0.1l-0.1-0.2h-0.2l-0.2-0.4l-0.2,0l-0.1,0.1l-0.1-0.1l-0.1,0.1l0,0.2l-0.1,0.1
	l0,0.2l0.1,0.1l0.1,0.1l0.1,0.1l-0.1,0.1l-0.1,0.2l-0.1,0.3l0,0.1l-0.1,0.2v0.2l-0.1,0.2l-0.2-0.2l-0.1,0l0,0.1l0,0.3l0.2,0.1
	l0.2,0.4l0,0.2l0.1,0.2l0,0.2l-0.1,0.1l-0.2-0.1L381,194l-0.1,0l-0.2,0.2l-0.2,0.1l0,0.1l0.1,0.2l0.1,0.1l0,0.3l-0.1,0.2l0.1,0.2
	l0,0.1l-0.1-0.1l-0.1,0.1l-0.1,0l-0.1,0.3l-0.2,0.1l-0.1,0.2l-0.2,0l-0.1,0.3l-0.1-0.1l0-0.2l-0.2-0.4l-0.2,0l-0.2,0l-0.1-0.1
	l-0.1-0.2l-0.1-0.4v-0.6l0-0.2l0.1-0.4l0.1-0.3l0.1-0.4l0-0.3l0.1-0.3l0-0.3l0.1-0.3l0-0.3l0.1-0.2l0.1-0.8l0.1-0.4l0.1-0.4l0-0.3
	l0.1-0.1l0-0.3l-0.1-0.2l0.1-0.3l0-0.2l-0.2-0.4l0-0.1l0.1-0.6l0.1-0.2l0-0.2l0.1-0.2l0-0.1l0-0.2l-0.1-0.1l-0.2,0.1l-0.1,0.2
	l-0.1,0.1l-0.1-0.1l-0.3,0.1l-0.1-0.1l0-0.3l-0.1-0.3l-0.2,0l0.1-0.3l0.1-0.2l0.1-0.5l0-0.1l0.1-0.2l0-0.1l0.1-0.2l0.1,0l0.2,0.2
	l0.1,0.2h0.1l0.2,0.2l0.1-0.1l0-0.2l0.2-0.2l0.1-0.4l0.2,0l0.1-0.3l-0.1-0.4l-0.1,0l0-0.1l0.1-0.2l-0.1-0.2h-0.1l-0.1,0.2l-0.1-0.1
	l0-0.3l0.1-0.1v-0.2l0.1-0.2L380,182.5z M378.8,183.8l0,0.1l0,0.2l0,0l0,0.5l0,0.1l0,0.2l-0.1,0.2l-0.1,0.5l-0.1,0.1l-0.2,0.1
	l-0.1-0.2l0-0.2l0.1-0.1l0-0.2l0.1-0.1l0.1-0.6l0-0.1l0.1,0l0-0.2l0.1,0l0.1-0.2L378.8,183.8z M378.3,183.9l-0.1-0.2l0.1-0.1
	L378.3,183.9z M379.5,184.8l-0.1,0.2l-0.1,0l-0.1-0.2h-0.1l-0.2-0.3l0-0.1l0.1-0.3l0.1-0.2l0.1-0.4l0.1,0l0.1,0.1l0,0.1l0,0.1
	l0.1,0.2l0,0.3l0,0.1L379.5,184.8z M379.7,183.3l0,0.1l-0.1,0.2l-0.1-0.2L379.7,183.3z M375.8,169.2h0.1l0.1,0.1l-0.1,0.3l-0.1,0.4
	v0.2l-0.1,0.1l-0.2-0.2l-0.2-0.3l0-0.3l0.1-0.4l0.2-0.1L375.8,169.2z M380.1,164.2l0.2,0.3l-0.1,0.2l0.1,0v-0.3L380.1,164.2l0-0.1
	l0.1-0.3l0-0.5l-0.1-0.2v-0.3l0.1-0.1l0-0.2l0-0.2l0.2-0.6l-0.1-0.3l0-0.4l0-0.4l0-0.7l-0.1,0.3l0,0.4L380,161l-0.1,0.3l-0.1,0.2
	l-0.1,0.2l-0.2,0.1l-0.2,0l-0.2-0.1l-0.1-0.1l-0.4,0.2l-0.1-0.1l-0.2,0l-0.1-0.1l0.1-0.4l0-0.2l-0.1-0.2l-0.1-0.2l-0.1,0l0.1-0.3
	l0.1-0.1l0.2,0l0.1-0.1l0-0.3l-0.1-0.3l0.1-0.4l0-0.2h0.1l0-0.2l-0.1,0l-0.1-0.4l-0.1-0.3l0-0.1l-0.2-0.1l-0.2-0.2l-0.1-0.2l0.1-0.4
	l-0.1-0.3l-0.1-0.4l0-0.2l-0.1-0.5l0-0.2l-0.1-0.3l0-0.2l0.1-0.2l-0.1-0.1l0-0.3l0-0.1l0.1-0.3l0-0.3l0.1-0.3v-0.1l0-0.3l0.1-0.1
	l0.2-0.4l0.1,0.1l0,0.2l0.1,0.4l0.1,0.2l0,0.1l0,0.2l0.1,0l0-0.3l-0.1-0.3l0-0.3l0.1-0.2l0.1-0.1l0,0.6l0.1-0.2l0-0.2l0-0.3l0.1-0.2
	l0.1,0l0.2-0.2l0.1-0.2l0.2,0l0-0.5l0.1-0.1l0,0.2l0,0.2l0.5,0.6l0,0.1l-0.1,0.4l0.1,0.2l0.2,0.2l0.1,0.1l0.1,0.6l0-0.1l-0.1-0.3
	l0-0.2l-0.3-0.2l0-0.3l0.1-0.4l-0.1-0.1l-0.1-0.1l-0.1-0.2l0.1-0.4l0-0.2l0.1-0.1l0.2,0.1l0.1-0.1l0.1,0.2l0.1,0l0.1-0.1l0.2,0
	l0.2-0.1l0-0.3l0.1-0.2l0-0.4l0-0.2l-0.1-0.2l0-0.3l0.2-0.1l0.1-0.2l0.1-0.1l0.3,0l0.2,0.1l0.4,0.1l0.1,0.1l0,0.2l0.1,0.2l0.1,0.1
	l0.1-0.1l0.1-0.2l0.1-0.2l0.1,0.1l0,0.2l-0.1,0.4l0.1,0.2l0.1,0l0.4-0.1l0.2,0l0.3-0.2l0.2,0l0.2-0.1l0-0.1l-0.2-0.2l0-0.2l0.1-0.2
	l0.2-0.1l0.2,0.1l0.2-0.1h0.1l0.2-0.2l0.1-0.3v-0.3l-0.1-0.4l0.1-0.2l0-0.1l-0.1-0.2l0-0.1l0.1,0.1l0,0.3l-0.1,0.3l0.2,0l0.2,0.1
	l0,0.2l0.1,0.1l0.3-0.1l0.2-0.1l0,0.1l-0.2,0.2l-0.1,0.1l-0.2,0.1l0,0.1l0,0.1l0,0.2l-0.1,0.2l-0.1,0.3l0.1,0.2l0.1,0l0.2-0.1l0.2,0
	l0.1-0.1l0.1,0.1l0.2,0l0.1,0.1v0.4l0,0.1l0.1,0.6l0,0.2l0.1,0.2l0.2,0.2l0.1-0.1l0.1,0.1l-0.1,0.3l0,0.4l0.1,0.3l0.1-0.1l0.2,0.1
	l-0.1,0.2l-0.1,0.3l0.1,0.2l0,0.1l0.1,0.2l0.2,0.2l0.1,0.3l0,0.2l-0.2,0.2l0,0.2l-0.1,0.2l-0.2,0.1l-0.1,0.2l-0.1,0.2l-0.1,0.1
	l0,0.3l0,0.2l0.2,0.3l0.3-0.1l0.2,0l-0.1,0.4l0.2,0.3l0.3,0.1l0.1,0.2l0,0.2l0.2,0.3l0,0.1l-0.1,0.4l-0.1,0.2l0,0.2l0.1,0.3l0.1,0.1
	l0.2,0l0.1,0.1l0.2,0.5l-0.1,0.1l-0.2-0.2l-0.1,0l-0.2,0.2l-0.1,0.5v0.2l0.1,0.1l0,0.3l0,0.2l0.1,0.2l0,0.3l-0.1,0.4l0,0.3v0.3
	l-0.1,0.3l-0.1,0.6l0,0.6l0,0.4l0,0.1l0.1,0.2l-0.1,0.3l0,0.3v0.4l0.1,0.2l0,0.2l0.1,0.4l0.1,0.2l0,0.3l0,0.2l0.1,0.1l0,0.1l0.1,0.3
	l0.2,0.4l0.1,0.3l0.1,0.1l0.1,0.5l0,0.3l0,0.3l-0.1,0.5l-0.1,0.4l-0.1,0.1l0,0.5l0.1,0.5L388,172l0,0.2l-0.1,0.1h-0.1l-0.1-0.1
	l0-0.2l-0.1-0.1l-0.1-0.1l-0.1-0.2l-0.1,0.1l0,0.1l-0.1,0.1l-0.1,0.4l-0.1,0.2l-0.2,0l-0.1,0.4l0.1,0.1l0,0.2l-0.1,0.2l0.2-0.1
	l0.1,0l0.1-0.1l0.1-0.2l0.2-0.1l0.1,0l0.2,0.1l0.1,0.1l-0.1,0.4l-0.2,0.1l-0.1,0l-0.2,0.3l0,0.1l-0.2,0.4l-0.2,0.2h-0.1l-0.1-0.1
	l-0.2,0.2l-0.2,0.1l-0.1-0.1l-0.1,0.1l-0.1-0.1l0,0.2l0.1,0l0,0.2l0.2,0.1l-0.2,0.4l0,0.1l0,0.2l-0.1,0.2v0.1l-0.1,0.3l0,0.3l0,0.1
	l-0.2,0l-0.2-0.1l0.1-0.3l0.1-0.4l0-0.1l-0.1-0.1l0-0.1l-0.4-0.3l-0.2-0.4l-0.3-0.3l-0.1-0.1l-0.3-0.2l0.2-0.1l0-0.1l-0.2,0.2
	l-0.2,0l-0.1,0l-0.3-0.4l-0.4-0.3l-0.2-0.4l-0.1-0.3l0-0.3l0-0.3l-0.2-0.2l0,0.1l0.2,0.2l-0.1,0.4v0.1l0.1,0.1l0.2,0.6l0.2,0.3
	l0.3,0.2l0.2,0.2l0.1,0.2l0.2,0.1l0.1-0.1l0.5,0.5l0.2,0.2l0.2,0.3l0.1,0.4l-0.1,0.1l-0.1-0.2l-0.2-0.2l-0.1-0.1l-0.2,0.2l-0.2,0.1
	l-0.1,0.2l-0.2-0.4l-0.1-0.1l-0.2-0.2l-0.2,0l-0.2,0.2l-0.2-0.1l-0.3,0l-0.1-0.2l-0.2-0.1l-0.1-0.2l-0.1,0.1l-0.5-0.2l-0.1-0.2
	l-0.1,0.1l-0.2,0l-0.2-0.1l-0.1-0.2l-0.1-0.1l-0.1,0.1l-0.2,0l0-0.3l0-0.3l0.1-0.4l-0.1-0.4l0.1-0.1l0-0.2l-0.1,0.3l0.1,0.4
	l-0.2,0.4l0,0.4l0,0.1l0.1,0.1l0.3-0.1l0.2,0.3l0.1,0.1l0.4,0.1l0.3,0.2l0,0.3l0,0.2l0.2,0.2l0.1,0.4l0,0.1l0.2,0.1l0,0.2l-0.2,0.4
	l0,0.2l0.1,0.1l0.1,0.1l0.2,0.4l0,0.1l0.1,0.2l0.2,0.3l0.1,0.1v0.2l-0.1,0.1l0.1,0.3l0.1,0l0.2,0l0.1,0.1l0,0.2l0.1,0.2l0.1,0.1
	l0.1-0.1l0.1-0.2l0.1,0.1l0.1,0l0.1,0.1l0,0.2l0.1,0l0,0.2l0.1,0.1l0.1,0.4l-0.2-0.1l-0.1-0.1l-0.1,0l-0.1,0l0,0.2l0,0.2l0,0.2
	l0.4,0.1l0,0.2l0,0.1l0.1,0.1l0.3,0l-0.1,0.3l-0.2,0l-0.1-0.1l-0.1,0l-0.1,0.2l-0.2,0.4l-0.1-0.1l-0.1-0.1l-0.1,0l-0.1,0.2l-0.1-0.1
	l-0.1,0.1l-0.3-0.1l-0.2,0.1l-0.2,0.3l-0.3,0l-0.1,0.1l-0.3,0.2l-0.3-0.2l-0.5-0.3l-0.1-0.1l-0.2-0.1l-0.2,0.1l-0.1,0.2l-0.1,0.1
	l-0.1,0.1l-0.1-0.2l-0.1-0.1l-0.3-0.1l-0.1,0l-0.3-0.2l-0.1-0.1l-0.1,0.2l-0.1,0.3l0,0.3l-0.1,0.1l0-0.2l0-0.2l-0.3,0.4l0,0.2l0,0.1
	l-0.1,0.1l-0.1-0.2l-0.1-0.1l-0.1,0l-0.1-0.1l-0.3,0l-0.1-0.1l-0.1,0.1l-0.1-0.1l-0.3,0.1l-0.1,0.1l-0.1,0l0-0.2l-0.2-0.5l-0.2,0.1
	l-0.1-0.2l-0.1-0.1l0-0.4l0.1-0.2l0-0.1l-0.1-0.1l-0.1,0.2l-0.1,0l0-0.2l0.1-0.4l0-0.4l0-0.1l0-0.4l0-0.2v-0.2l-0.1-0.2l0-0.3l0.1,0
	l0.1-0.1l-0.1-0.2l0-0.2l-0.2-0.1l0-0.2l-0.1-0.3l0-0.1v-0.6l0.1-0.4l-0.1-0.2l-0.1-0.5l0-0.3l0.2-0.6l0-0.2l0-0.2l0-0.2l0.1,0
	l0.1-0.2l-0.1-0.2l0-0.1l-0.1-0.2l0-0.3l-0.1-0.2l0.1-0.2l0.1-0.6l0-0.2l0.2-0.4l0-0.1l-0.1-0.2l-0.1-0.1l-0.1-0.1l0-0.2l0-0.2
	l0-0.1l-0.2-0.1l-0.1-0.1l0-0.2l0-0.1l0.1-0.1l0-0.3l0.1-0.1l0-0.3l0-0.1v-0.3l0.1-0.3l0.1-0.1l0.2-0.6l0-0.3l-0.1-0.1l0-0.2l0-0.2
	l0.1-0.1l0-0.3l-0.1-0.1l0.1-0.3l-0.1-0.2v-0.1l0.1-0.2l0-0.2h-0.1l-0.2-0.2l-0.2,0l-0.3-0.1l-0.1,0.1l-0.1-0.1l0-0.3l0-0.1l0.1-0.1
	l0.2,0.2l0.1,0l0.2-0.3l0.1,0.1l0.1,0.2l0.1-0.3l0.1-0.1l0-0.2l0.1-0.2l0-0.2l0.1-0.6l0-0.4l0.2-0.1l0,0.1l0,0.3l0.1,0.6l0.1,0
	l0.1-0.4l0.3-0.2l0.1-0.1l0-0.2l0-0.1l0-0.4l0-0.2l0.2-0.1l0.1-0.3l0.1-0.2h0.1l0.1,0.1l0.1,0l0-0.2l0.1-0.1l0.1,0.1l0.2,0.1h0.3
	l0.2-0.1l0.1,0l0.1,0.1l0.1,0.3l0,0.5l0,0.2v0.3l0,0.2l0,0.2l0.1,0.1V164.2L380.1,164.2z M374.8,156.2l-0.1-0.1l0.1-0.1l0.1,0
	L374.8,156.2z M376.6,154.9l-0.1-0.2l0-0.2l0.1-0.2l0.1-0.1l0-0.2l0.1-0.1l0.1-0.4l0.1-0.1l0.1-0.2V153l0-0.3l0.3,0.1v0.1l-0.1,0.5
	v1.3l0,0.3v0.2l-0.1,0.5l0,0.3l0.2,0.4l0.1,0.3l0.1,0.4l0,0.2l0,0.2l-0.1,0.2l-0.2-0.4v0.2l0,0.7l0.1,0.3v0.4l-0.1,0.2l-0.1-0.1
	l-0.1,0.1l-0.2-0.1l0.1-0.2l-0.1-0.2v-0.2l0.1-0.3l0-0.2l-0.1-0.4l0-0.3l0-0.4l-0.1-0.4l0-0.3l0-0.2l-0.1-0.2l-0.3-0.4L376.6,154.9z
	 M379.5,151.2L379.5,151.2l-0.1-0.3l0-0.2l-0.1-0.3l0-0.1l0.2-0.2l0.1,0l-0.1,0.2v0.2l0.1,0.2L379.5,151.2L379.5,151.2z
	 M377.8,156.6l-0.2-0.2l-0.1-0.2l0-0.2l0.1-0.3l-0.2,0l0-0.2l0.1-0.1l0-0.3l0.1,0.1l0.1,0.4l0,0.3l0.1,0.4L377.8,156.6z
	 M377.9,150.7l0.1,0.2l-0.1,0.3l-0.1,0.2l0,0.1l-0.1,0.4l-0.1,0.4l-0.1,0.3l-0.1,0l-0.1-0.1l-0.2,0l0-0.2l0.1-0.3l0.1,0l0-0.2
	l0.1-0.2l0.1-0.1l0.1-0.3l0.1-0.1v-0.2l0.2,0l0.1-0.1L377.9,150.7z M377.2,183.3l0.2,0l0.1-0.1l0.1,0.1l0.1,0l0,0.2l-0.1,0.1l0,0.2
	l-0.1,0.2l0,0.2l-0.2,0.8l0.1,0.1l-0.1,0.1l0,0.1l0.1,0.1l-0.1,0.1l-0.1,0.1l-0.1,0.3l0,0.3l0,0.3l-0.1,0.2l-0.1-0.5l-0.1-0.2l0-0.2
	l0-0.2l0-0.5l-0.1-0.2l0-0.2l0.1-0.3l-0.1-0.2l0.1-0.2l0-0.3l-0.1-0.4l0.1-0.1l0-0.4l0.1,0l0,0.1L377.2,183.3z M385.8,180.9
	L385.8,180.9l-0.1-0.2l0.1-0.2l0-0.1l0-0.2l0.2-0.3l0.1,0.1l0,0.2l-0.2,0.4l-0.1,0.2L385.8,180.9z M383.8,176.1l0.1,0.1l0,0.3
	l-0.1,0.1h-0.2l-0.1-0.2l0-0.1L383.8,176.1z M382.3,175.8l0.3,0.1l0.3,0.4l0,0.1l-0.3,0.1l-0.2-0.2l-0.2-0.3v-0.1L382.3,175.8z
	 M385.4,176.2l-0.1,0l0-0.3l0.1,0l0.1,0.1L385.4,176.2z M383.2,176.8l0.2,0.1l0.3,0.2l0.2,0l0.1-0.1l0.1,0.2l0.2,0.2l0.2-0.1l0-0.1
	l0.1-0.3l0.1,0.1l0,0.2l0.1,0.1h0.1l0,0.2l-0.2,0.3l-0.2,0.1l-0.1,0.1l0,0.2l0.1,0.3l-0.1,0.3l-0.1-0.1l0-0.3l-0.1-0.1l-0.2,0
	l-0.1-0.1l-0.2,0.3l-0.1,0.1l-0.2-0.1l-0.1-0.2l0.1-0.2l-0.1-0.1l-0.2,0l-0.3-0.3l-0.2,0l0-0.3l0-0.2l0.1-0.1L383.2,176.8z
	 M387.6,176.5l-0.1,0.1l0,0.2l-0.1,0.1l-0.2,0l-0.1,0.1l-0.1,0.2l0,0.3l0,0.2l0,0.4l-0.1,0.2l-0.1,0.1l-0.1,0.3l-0.1,0.5l-0.1,0.3
	l-0.1-0.1l-0.5-0.2l0-0.2l0-0.3l0.1-0.2l0.3-0.6l-0.1-0.3l0.1-0.5l0-0.2l0.1-0.5l0.2-0.4l0.2-0.1l0.2,0l0.3,0.3V176l0.1-0.2v-0.2
	l0.1-0.1l0-0.1l0.1-0.1l0,0.2l0,0.2l0.1,0.3l0.1,0.1l0,0.2l-0.1,0.2L387.6,176.5z M383.8,186.7l-0.1-0.2l-0.1-0.2l0-0.3l0.2-0.2
	l0.1,0.1l0,0.1l-0.1,0.3L383.8,186.7L383.8,186.7z M387,184.1l0.1,0.1l0,0.2l-0.1,0.3l-0.1,0.1l-0.2,0.4l-0.1,0.1l-0.1,0.4l0.1,0.2
	l0,0.3l0,0.2l-0.1,0.3l-0.1,0l0-0.1l-0.1-0.3v-0.3l0.1-0.3l0-0.2l0.1-0.1l0-0.3l-0.1-0.3l-0.1,0l0,0.1l-0.1-0.2l-0.1-0.2l0-0.2
	l-0.3-0.1l-0.1,0.2l-0.1-0.1l0-0.2l0.1-0.1l-0.1-0.2l0-0.2l0-0.2l0.1-0.1l0.1-0.1l0.2-0.1l0.1,0l0.2,0.2v0.3l0,0.1l0.1-0.1l0.1,0.2
	l0.1,0l0.1-0.1l0.1-0.2l0-0.1l-0.1-0.2l0.1-0.4l0-0.3l0-0.1l0.1-0.2l0,0.3l0.1,0.2v0.2l-0.1,0.3l0,0.2l0,0.2L387,184.1L387,184.1z
	 M384.3,183.4L384.3,183.4l0.1-0.2l0,0.1L384.3,183.4z M377.5,137.2l0.1,0.2l-0.1,0.1l-0.1,0l-0.2,0.2L377,138l-0.1,0.4v0.2l0.1,0.2
	l0,0.1l-0.1,0.1l-0.2-0.1l-0.1-0.3l0-0.2l-0.1-0.3l-0.1-0.3v-0.3l0.2-0.2h0.1l0.2,0.2l0.3-0.1l0.1-0.1L377.5,137.2z M378,137.4
	L378,137.4l-0.1,0.3l0-0.1L378,137.4z M382.3,133.1l0.2,0.1l0.1-0.2l-0.2-0.2l-0.1-0.1l-0.1,0.1l-0.1-0.2l-0.1-0.1l0.1-0.1l0.1-0.4
	l-0.1-0.1l-0.2-0.3l0-0.1l0.1,0l0.2-0.3l0.1,0l0.1-0.3l-0.3-0.2l0.2-0.3l-0.1-0.1l0-0.1l0.1-0.1v-0.5l0.1-0.1l0-0.2l0.2,0l0.1-0.1
	l0.1,0.1l0.1,0.2l0.1,0.1l0.2-0.1V129l0.1-0.4l0.1-0.5l-0.3-0.3l-0.3,0.1l-0.1,0.1l-0.1-0.5l-0.1-0.1h-0.1l-0.1,0.1l-0.1-0.3l0-0.2
	l-0.1-0.1l0.1-0.2l0-0.2l-0.1-0.3l0.2,0l0.2,0.2l0.2,0l0.1-0.1l-0.1-0.3l0-0.1l0.2-0.3v-0.1l-0.1-0.2l-0.1,0l-0.1,0.1l-0.1-0.1
	l-0.2,0l-0.2-0.2l0.1-0.1l0.2,0l0.1-0.2l-0.1-0.1l-0.1-0.1l0-0.2l-0.1-0.2l0-0.1l0.1-0.3l0.1-0.1l0.1-0.2l0-0.2l0.1-0.2l0-0.2
	l-0.1-0.1l0-0.2l0.1-0.3l0-0.5l0.1-0.1l0.1-0.3l0.1-0.2l0.1,0l0.1,0.3l0.1,0.1l0.1-0.3l0.1-0.2l0.4-0.2l0.1-0.3l-0.1-0.2l-0.1,0.1
	l-0.2,0.2l-0.1-0.1l-0.2,0l-0.1-0.1l-0.2-0.1l-0.2-0.2l0-0.2l0.1-0.6l0.2-0.2l0.1,0l0.1,0.2l0.2,0l0.1,0.3l0.2,0.2l0.1,0l0.1-0.2
	l0-0.2l0.1-0.1l0-0.2l-0.1,0l0-0.1l0.1-0.1l0-0.2l0.1-0.1l0.1,0.1l0.1-0.2l0.3-0.1l0-0.3l-0.1-0.2l0-0.1l-0.1-0.2l-0.1-0.1l-0.1,0.1
	l-0.1-0.2l0-0.4l0-0.2l0-0.3l-0.1-0.1l-0.1-0.2l0.1-0.1l0-0.2l0-0.1l0.1,0.1l0.1-0.2l0-0.1l0.1-0.1l0.2,0l0.1-0.1l0.2,0l0.1,0.1
	l0.2-0.1l0.1-0.1l0-0.2l0.1-0.2l0.1-0.3l-0.1-0.2v-0.2l0.1-0.1l0.3,0.1l0.1-0.2l0.2,0l0.1,0.3l0.1,0l0.2-0.3v-0.1l-0.1-0.1l-0.1-0.2
	l0-0.1l-0.1-0.1l0-0.1l0.1-0.1l0.1-0.2l0-0.2l-0.2,0.1L386,113l-0.2-0.2l0-0.3l0-0.1l0.2-0.2l0.2,0l0.1-0.1l0.5-0.1l0.1,0.1l0.2,0
	l0.1,0l0.1-0.2l0-0.2l0.2-0.1l0.1,0.1l0.2-0.2l0.2,0.1l0,0.1l0.1,0l0.1,0.2l0.1,0.5h0.1l0.2,0.1l0.2-0.1l0-0.2l0.1-0.3l-0.1-0.1
	l-0.1-0.2l0-0.2l-0.2-0.2l0-0.3l0.2-0.2l0-0.3l0.1-0.1l0-0.3l-0.1-0.1l0.1-0.2l0.2,0.2l0,0.1l0,0.1l0.2,0.1l0.1,0.1l0.1,0.1l0.1,0.4
	l0,0.2l0.1,0.1l0,0.2l0,0l0.2,0l0-0.2l0.1-0.2l0-0.2V111l0.1-0.2l-0.1-0.1l0.1-0.3l0-0.2l0.1-0.2l0.2,0.1l0.2-0.4l0.1,0.2v0.2
	l0.2,0.4l0.1,0.5l0.1,0.3l0.1,0.2l0,0.2l0.1,0.2l0,0.4l0.1,0.3l0,0.2l-0.1,0.2l0,0.2l0.1,0.2l0,0.2l0,0.3l-0.1,0.3l0,0.3l0.1,0.1
	l-0.1,0.3l-0.2,0.1v0.2l0.1,0.1l-0.1,0.1l0,0.2l0,0.2l-0.1,0.2l-0.1,0.1l-0.1,0l-0.2-0.2l-0.2,0.1l0,0.1l0.3,0.1l0.1,0l0.2,0.2
	l0,0.2l0,0.2l0.1,0.1l0,0.4l-0.1,0.2l0,0.2l-0.1,0.2l-0.2-0.1l-0.3,0.1l0,0.1l0.2,0.1l0.1,0l0.1,0.2l0.2-0.1l0.1,0l0,0.2l-0.1,0.2
	l0,0.2l0.1,0.1l0.2,0.3l0,0.3l0.1,0.1l0.2-0.1l0.1-0.3l0.1,0l0.1-0.2l0.1-0.3l0.1,0l-0.1,0.3l0,0.2l-0.1,0.2l0,0.2l-0.1,0.2l0.1,0.1
	l0.1-0.1l0.1-0.2l0.1-0.1l0.2-0.1l-0.1,0.3l0,0.3l-0.2,0.2l-0.1,0.2l-0.2,0l-0.1-0.1l-0.1,0.2l-0.1-0.1l0,0.3l0,0.3l-0.1,0.2
	l-0.3,0.1l0.3,0.1l0.1-0.2l0.2-0.3l0.1,0l0.2,0.5l0,0.2l0.1,0.2l0,0.4l0.1,0.1l0.2,0.4l0.1,0.3l0.1,0l0.1,0.1v0.1l0.1,0.1h0.2
	l0.1-0.1l0.1,0.1l0.1,0.4l-0.1,0.2l-0.1,0.1H393l-0.2,0.1l-0.2,0.4l0,0.3l-0.1,0.2l0,0.4l-0.3,0.1l-0.1-0.1l0-0.1l-0.1-0.2l0-0.4
	l0-0.2l0-0.2l-0.1-0.1l-0.2,0l-0.1,0.1l-0.1,0.2l-0.2,0.2l-0.1,0l-0.1-0.1l0-0.2l0.1-0.4v-0.3l0.1-0.2l0.1-0.2l0-0.2l-0.1-0.3
	l-0.2-0.3l0.1-0.3l-0.2,0.1l0,0.1l0.1,0.2l0.1,0.2l0,0.2l-0.1,0.2l-0.3,0.1l0,0.1l-0.1,0l-0.1,0.1l-0.1-0.1l-0.3-0.2l-0.1,0.1
	l-0.1-0.1l-0.1-0.1l-0.3,0l-0.2,0.2l-0.1,0.2l-0.2,0.2l-0.1,0.2l0,0.5l-0.1,0.1l-0.1,0l-0.2-0.3l0-0.2l-0.1-0.3l0-0.2l0-0.1
	l-0.1-0.1l-0.1,0.1l0-0.1l0.1-0.1l-0.1-0.2l0-0.2l-0.1,0l-0.2,0.1l-0.1,0.2l-0.1,0.1l0,0.1l-0.2,0.4l-0.2,0l0,0.2l0.1,0.2l0,0.3
	l0.3,0.3l0.1,0l0,0.1l0.3,0.1l0.3,0l0.2,0.2l0.1,0l0.1,0.2h0.1l0.2,0.1h0.1l0.1,0.1l0,0.2l0.2-0.4l0.1-0.2l0.2,0l0,0.3l-0.1,0.2
	l0.1,0.1l0.1,0.2l0,0.2l0,0.2l0,0.1l0.2,0.1l0.2,0l0,0.2l-0.1,0l-0.2-0.1l0,0.1l0.1,0.2l-0.1,0.3l-0.1,0.1l0,0.3l0.1,0.1l0.1-0.1
	l0.1,0.1l0.3-0.3l0.1,0l0.1,0.1l0,0.1l0.1,0.1l0.2-0.2l0.1,0l0.1,0.1l0.1-0.2l0,0.2l0,0.1l-0.2,0.3l0,0.1l0.1,0.2l0,0.2l0.1,0.1
	l0.1-0.1l0.2-0.1l0.2-0.3l0.3-0.3l0,0.3l-0.1,0.2l-0.1,0l-0.1,0.1l-0.1,0.3l0,0.2l0,0.4l-0.1,0.1v0.1l0.1,0.2l0,0.3l-0.1,0.2l0,0.1
	l-0.1,0.1l-0.3,0.2l0,0.2l0.1,0.5l-0.2,0.3l0,0.3l-0.2,0.3l-0.1,0.4l-0.1,0.2l-0.1,0.3l0.2,0.3l0,0.2l-0.1,0.2l0,0.5l0.1,0.2l0,0.3
	l0,0.3l0,0.2l-0.3,0.5l0,0.2l0.1,0.2l0,0.4l0,0.2v0.2l0,0.1v0.3l0.1,0.1l0,0.1l-0.1,0.2l0.1,0.2l0,0.3l0,0.3l-0.2,0.1l-0.1,0.2
	l0,0.3l0.2,0.2l-0.2,0.4l-0.1,0.1l-0.1,0.3l-0.1,0.2l0,0.1l-0.2,0l-0.1,0.1l0,0.1l-0.1,0.2l0.1,0.2l-0.1,0.2l-0.1,0.3l-0.1,0.2
	l-0.1-0.2l-0.1,0l-0.2-0.2l-0.1,0.1l-0.1,0.2l0,0.2l-0.1,0.1l-0.1,0l-0.1,0.1l-0.1-0.2l-0.2-0.1l-0.2,0l0-0.1l-0.1-0.2l0,0.1l0,0.3
	l0,0.1l0.1,0.1l0,0.3l0.1,0.1l0.1,0.1l0.1-0.1l0.1,0.1l-0.1,0.1l-0.2,0l-0.2-0.1L388,142l-0.1,0l-0.1,0.1l-0.1-0.2l-0.1-0.1l0-0.3
	l-0.1-0.3l-0.4-0.2l-0.3-0.3l-0.1-0.2l0-0.3l0.1-0.2l0.2-0.1l0.1-0.2l-0.1-0.2l0.1-0.3L387,139l0-0.2l0-0.4l-0.1-0.4l0,0.1l0,0.2
	l0,0.8l-0.1,0.3l-0.2-0.1l-0.1,0.1l0,0.2l-0.1,0.1l-0.1-0.1l-0.1-0.3l0-0.2l-0.1-0.3l-0.1,0l0,0.1l-0.1,0.3l-0.3,0.1l-0.2,0
	l-0.1,0.1l-0.3,0.4l-0.1,0.3l0.1,0l0-0.2l0.2-0.2l0.1-0.2l0.2,0l0.3,0.1l0.3,0.1l0,0.4l-0.1,0.4v0.1l-0.1,0.2l-0.1,0.3l-0.1,0.2
	l-0.1,0.4l0.1,0.2v0.2l0.1,0.2l0,0.1l0.1,0.2l0,0.2l0,0.2l0.1,0.1l0.2-0.1v0.4l0.1,0.2l-0.1,0.1l0.1,0.1l0.1,0l0.2-0.2l0.2,0
	l0.1,0.2l-0.1,0.2l0,0.2l0.2-0.1l0.1,0.1l0,0.3l0,0.1l0,0.2l-0.1,0.2l-0.1,0.1l-0.1,0.1v0.2l-0.1,0.2l-0.1,0l-0.2-0.2l-0.1,0
	l-0.1,0.2l0,0.2l-0.1,0.3h-0.1l-0.1-0.2l0-0.2v-0.3l0-0.1l-0.1-0.2l0-0.2l0-0.1l-0.1-0.2l0.1-0.1l0-0.2l0.1-0.2l-0.1-0.1l-0.2,0
	l-0.1-0.1l0-0.3l-0.1-0.1l-0.1,0.1l-0.1,0.2l-0.1,0.4l-0.1,0l-0.1,0l0,0.2l0,0.2l-0.1,0.2l0.1,0.2l-0.3,0.3l0.1,0.2v0.1l-0.1,0.3
	l0,0.2l0,0.1l0.1,0.1l0.1,0.1l-0.2,0.3l-0.1,0.2l-0.1,0.1l-0.1,0.1l-0.2,0h-0.3l0,0.2l-0.1,0.1l0,0.2l0,0.4l0,0.1l0.1,0.2l0.1,0
	l0,0.1l-0.1,0.2l0.1,0.2l0.2,0.1l0.1-0.2l0.1-0.2l0.2-0.1l0.1,0.1l0,0.1l-0.1,0.2l-0.1,0.2l-0.1,0.5l0,0.2l0.1,0.1l0,0.1l-0.2,0.1
	l-0.2,0l-0.2,0.1l-0.3,0l-0.4,0.1l-0.1,0l0-0.2l0.1-0.2l0-0.3l-0.1-0.1l-0.2,0.1l-0.2,0.3l-0.2-0.1l-0.1-0.4l-0.1-0.1l-0.3-0.1
	l-0.2-0.1l-0.3,0l-0.1,0.1l-0.1-0.1l-0.1-0.3l-0.1-0.3l-0.1-0.2l0-0.2v-0.5l-0.1-0.2l0-0.1l0.2,0l0.1-0.3l0-0.2l-0.1-0.1l0-0.3
	l-0.1-0.1l-0.1,0l-0.1-0.2l0-0.2l0-0.4l0-0.3l0.1,0.1l0.1-0.3l-0.1-0.3l0-0.3l0.1-0.4l0.2-0.3l0.1,0.1l0.1,0.3l0.1,0.1l0.2-0.1
	l0.1,0l0.1-0.2l0.1-0.1l-0.1-0.1l-0.2,0l-0.1-0.1l-0.1-0.1l0-0.2h0.2l0.1-0.1l0.1-0.1l0-0.2l0.2-0.1l0-0.1l0.1-0.2l-0.1-0.1
	l-0.1,0.1h-0.1l-0.1,0.1l-0.1,0.2l-0.2-0.1l-0.2,0.1l-0.1-0.1l0-0.2l-0.1-0.1l-0.1,0.1l-0.1,0l-0.1-0.1l-0.1,0l-0.1-0.1l-0.1-0.3
	l0.1-0.4l0.1-0.2l0.1-0.2l-0.1-0.1l0-0.2l0.1-0.1l0-0.2v-0.2l0.1-0.1l-0.1-0.2l-0.1-0.1l0.1-0.2v-0.2l0.1-0.1l0.1-0.2l0-0.4l0.1-0.2
	v-0.2l-0.1-0.2l0-0.1l0-0.2l0.1-0.1l0.1,0.2l-0.1,0.3l0.1,0.1l0,0.2l0.1,0.1l0.2,0l0-0.2l-0.1,0l0.1-0.2l-0.1-0.1l0-0.2l0.1-0.3
	v-0.3l0.2-0.2l0.1,0l0.1,0.1l0.1,0.1l0.1,0.2l0-0.1l-0.1-0.3l0.1-0.2l0-0.2l0.1-0.2l0.1-0.1v-0.2l-0.1,0.1l-0.2,0l-0.1-0.3l-0.1-0.1
	l0-0.3l0.3,0l0.1-0.3l0.2,0l0.1,0.2l0.1-0.1l0.1,0.4l0.1-0.1l0-0.2l0.1,0l0.1,0.2l0.1,0l0-0.2l-0.2-0.3l0.1-0.2l0.2,0.1l-0.1-0.2
	l-0.1-0.3l-0.1,0.1l-0.2,0l-0.1,0l0-0.2l-0.2-0.1l-0.3,0.2l0-0.2l-0.2-0.1l-0.1-0.1l-0.1,0l-0.1-0.1l0.1-0.3l0-0.2l0.1-0.3l0.1-0.1
	l-0.1-0.2l0.1-0.1l0.1,0.1l0.3,0l0.1-0.1L382.3,133.1z M390.4,124l0.3,0.1l0,0.1h-0.1l0,0.3l0,0.1l-0.1,0.1l0.1,0.4l0,0.2l-0.1,0.1
	l-0.1-0.3l-0.1-0.1l-0.2,0l-0.1-0.1l0-0.3l0.2,0.1l0-0.3l0-0.3l-0.1-0.2l0.1-0.1L390.4,124z M381.5,118.8l0.3,0.2l-0.1,0.1l0,0.2
	l-0.1,0.3l0,0.1l-0.1,0.1l-0.1-0.2l0.1-0.3L381.5,118.8z M393.6,119l-0.1,0.4l-0.1,0l-0.1-0.1l0-0.2l0.2-0.2h0.1L393.6,119z
	 M382.8,117.6l0.1,0.3l0.1,0.2l-0.2,0.3l-0.1,0.1l-0.2,0.3l-0.1,0.1l-0.2-0.2l-0.2,0.1l-0.1-0.4v-0.1l0.1-0.2l0.1-0.2l0.1-0.2
	l0.1,0.1l0.3,0L382.8,117.6L382.8,117.6z M386.1,140.6L386.1,140.6l-0.2-0.1v-0.2l0.1-0.1l0.1,0.1L386.1,140.6L386.1,140.6z
	 M386,139.6l-0.2-0.2v-0.2l0.2,0.2V139.6z M380.8,133.1l0.1,0.1l-0.1,0.1V133.1L380.8,133.1z M392.2,130.2L392.2,130.2l-0.2-0.3
	l0.1,0L392.2,130.2z M444.3,116.3l0.1,0.1l0.1,0.1l-0.1,0.2l0,0.2l0.1,0.1l0,0.2l-0.1,0.1v0.3l-0.1,0.3l-0.1,0.1l-0.1,0l-0.1,0.2
	l0,0.1l-0.2-0.1l-0.1,0l0-0.1l-0.1-0.1l0-0.1l-0.1-0.2l0-0.3l0.1-0.1l0-0.1l0.2-0.5h0.1l0.2-0.3l0.2,0.1L444.3,116.3L444.3,116.3z
	 M392.3,105.4l0.2,0.2l-0.1,0.2l-0.1,0l-0.2,0.1l-0.1,0.2l0,0.4l-0.1,0.2l-0.2,0.5l-0.1-0.1l0-0.3l-0.1-0.2l0-0.2l0.1-0.2l0.2-0.2
	l0.1-0.1l0-0.2l0.1-0.2H392.3z M399.2,84.7l0.1,0.2l0,0.4l0,0.2l0.1,0.3l0.1,0.4l0.1,0.2l0,0.2l-0.1,0.2l0,0.2l-0.2,0.1l-0.2,0
	l-0.2-0.1l0-0.1l0.1-0.3l0.1-0.5l0-0.6l0-0.2l0-0.2l-0.1-0.2l0-0.2L399.2,84.7L399.2,84.7z M390.2,104.2l0.1,0.1l0.1,0.1l0.1,0.1
	l0,0.2l0.1,0.2l0.1,0.2l-0.1,0.2l0.1,0.2l0,0.3l0.2,0.5l0,0.2l0.1,0.1l0,0.3l-0.2,0.1l-0.2,0l-0.2-0.2l-0.1-0.1l0-0.2l-0.1-0.1
	l0-0.4h-0.1l-0.1-0.1l-0.2-0.1l-0.1-0.1l-0.3,0.3l0,0l-0.2,0l-0.1,0.1l-0.1-0.1l0-0.1l-0.1-0.1l-0.1-0.2l-0.2-0.1l0-0.2l0.2-0.2
	l0-0.4l0.1-0.1l0.1,0l0.3-0.1h0.2l0.2-0.1l0.1,0.2l0.1-0.1v-0.2l0.2-0.2l0.1,0L390.2,104.2z M405.3,82.9l-0.1,0v-0.1l0.1-0.3l0,0.2
	l0,0.1L405.3,82.9z M405.3,76.6l0.1,0.4l0.1,0.1l0.3-0.1l0,0.2l-0.2,0l-0.1,0.3l0.1,0.5l0.1,0.3l0.2,0.4l0,0.2l-0.1,0.4l0.1,0.2
	l-0.1,0.3l0,0.3l0,0.2l-0.2,0.4l0,0.1l0,0.3l0,0.2l0,0.2l-0.1,0.1l0.1,0.3l-0.1,0.2l-0.1-0.3l-0.1-0.1v-0.1l-0.1-0.2l-0.2,0
	l-0.1-0.2l0-0.1l0.1-0.1l0-0.2l0.1,0l0.1-0.1l0-0.2l0.1-0.1l0.1-0.4l0-0.2l0-0.2l-0.1-0.1l0-0.5l-0.1-0.3l0-0.1l-0.1-0.2l0-0.2
	l-0.1-0.2l-0.1-0.5l-0.1-0.2l0-0.3l0.2,0l0.2-0.3L405.3,76.6z M414.2,35.7H414l0-0.1L414.2,35.7z M417.5,32l0.1,0.1l-0.1,0.2
	l-0.1-0.2L417.5,32z M417.1,33.8l0.1,0.1l0,0.1l-0.2,0.3l-0.1,0.2l0,0.1l-0.1,0.3l0,0.1l0,0.2l-0.1,0.1l-0.2,0.2l-0.2,0.3l-0.1,0.2
	l-0.1,0.1l-0.1,0.2l-0.1,0.3l-0.1,0.2l-0.1,0.2l0.1,0.1l-0.1,0.3l-0.1-0.4l0-0.2l0.1-0.5l0-0.3l0-0.5l0-0.3l0.1-0.2l0.1-0.3l0.1-0.4
	l0.1-0.5l0.1-0.2l0.2,0l0.2,0L417.1,33.8L417.1,33.8z M405.5,74.5l0.1,0.2l-0.1,0.5l-0.1,0.1l-0.1-0.2l-0.2,0l0-0.2l0-0.2l0.1,0
	l0-0.1h0.2L405.5,74.5z M404.9,74.5l0.1,0l0,0.1l-0.1,0.1L404.9,74.5z M393.8,117.9l0.2,0.1l0,0.3l-0.2,0l-0.1-0.2L393.8,117.9z
	 M392.7,118.5l-0.1,0.2l0,0.5l-0.1,0.1l0-0.2l-0.1-0.3l0.2-0.5l0.1,0L392.7,118.5z M384.2,113.6l-0.1,0.1l0.1,0.2v0.1l-0.1,0.1
	l-0.1,0l-0.1-0.2v-0.2l0.1-0.2L384.2,113.6z M386.1,113.4l0.1,0.1l-0.1,0.3l-0.1,0.1l-0.1-0.1l0.1-0.1l0-0.2L386.1,113.4z
	 M392,110.4v0.2l-0.1,0.2l-0.1-0.2l0.1-0.2L392,110.4z M385.1,108.4l0.2,0l0.1,0.1v0.2l-0.2,0.3l-0.2,0.2l-0.1,0.3l0,0.3l-0.2,0.2
	l-0.1-0.1l-0.1-0.2l0-0.1l0.2-0.4v-0.2l0.1-0.2l0.2-0.2L385.1,108.4z M385.7,112.1l0.1,0.2l-0.2,0.2h-0.1l-0.1-0.2l0.1-0.2
	L385.7,112.1z M384.2,111.9l0.1,0.2l-0.1,0.2l-0.1-0.1L384.2,111.9z M386.4,141.5l0.1,0.1l0.2-0.1l0.1-0.1l0.1,0.1l-0.1,0.1v0.1
	l0.2,0.1l0,0.3l-0.1,0.2l0.1,0.5l0.1,0.1l0.1,0.3l-0.2,0.1h-0.1l0-0.1l-0.1-0.1l-0.3,0l0-0.1l-0.2,0l0-0.2l-0.1-0.1l-0.1-0.3l0-0.3
	l0.2-0.1l0.1-0.1l-0.1-0.1l0-0.2l0.1,0L386.4,141.5z M380.4,149l0.2,0l0.1,0.1l-0.1,0.5l-0.2,0.1l-0.1-0.2l0-0.1l0-0.3L380.4,149z
	 M379,147.9l0.1,0.2l0,0.1l0,0.8l0,0.2l-0.1,0.1l-0.2-0.1v-0.3h0.1l0.1,0.1l0.1-0.2l-0.1-0.1L379,147.9L379,147.9z M380.8,148
	l0.1,0.2l0.1,0.4l0.1,0.2l-0.1,0.2l-0.2,0.1l-0.2-0.1l-0.2,0l0-0.2l0.2-0.1l0.1-0.2l-0.1-0.1l-0.2,0.2h-0.1l-0.2-0.1l0-0.1v-0.2
	l0.1-0.1l0.2,0.1l0.3-0.1l0.1-0.2l0.1,0L380.8,148z M376.5,143.4l0.1,0.2l0.3,0.1l0.3-0.1l0,0.2l0.1,0v0.1l0.2,0.2l0,0.2l0,0.3
	l0,0.1l-0.1,0.3l-0.1,0.8l-0.1,0.2l0.1,0.2l0.1-0.1l0.1,0v0.7l0,0.4l-0.1,0l0.1,0.2v0.5l0,0.3l0.1,0.1v0.2l0,0.1l0,0.6l-0.1,0.1v0.2
	l-0.1,0.1h-0.1l-0.1-0.1l0,0.1l0,0.3l0.2,0l0,0.3l-0.1,0.1l-0.1,0.3v0.1l-0.1,0.2l-0.1,0.1l-0.3,0.4l0,0.4l-0.1,0.2l-0.2,0.1
	l-0.1,0.1l-0.1,0.1l-0.3-0.1l0-0.1l-0.1-0.1l-0.2,0.2l0.1,0.1l0,0.2v0.3l0.3-0.3h0.1l0.1,0.2l0,0.1l0.1,0.4l0,0.2l-0.1,0.1H376
	l0,0.2l-0.2,0l-0.1,0.1l0,0.2l-0.2,0.6l0,0.2l-0.1,0.2l0,0.2l-0.1,0l0-0.3l-0.1-0.2l-0.1-0.2l0.1-0.1l0.1-0.4l0-0.5l-0.2-0.2
	l-0.1-0.2l0-0.4l-0.1-0.2l-0.1-0.1l0-0.1l-0.1-0.2l0-0.2l-0.1-0.3l0-0.3l-0.1-0.2l0-0.2l0.1-0.1l0-0.3l0.1,0l0.2-0.2l0.1-0.2
	l0.1-0.2l-0.2,0l-1.2-0.1v-0.1l1.2,0.1l0,0l0.2,0v-0.1l0.1-0.2l0-0.4l0.1-0.2l-0.1-0.1l0-0.2l0.2-0.2l0-0.3l-0.1,0l-1.4-0.1l0-0.4
	l1.3,0.1l0.1,0l0-0.2l0.1-0.1l0-0.2l0.1-0.1l0-0.3l0.2-0.3l0-0.1l0.1-0.1l0-0.2l0-0.2h-0.1l0-0.1l-0.3-0.1l0-0.6l0-0.1l0.1,0
	l0.1-0.1l0-0.1l0.1-0.1l0.3-0.6l0-0.2l0.1-0.1h0.1l0-0.2l0.1-0.1H376.5z M377.7,158l0.1,0.1l0.1,0.2l-0.1,0.2l-0.1-0.1l0-0.3
	L377.7,158z M386.8,147.6l0.1,0.2l-0.2-0.1l0-0.1L386.8,147.6z M379.6,147.2l0,0.2l-0.1,0.2l-0.1-0.2l0.1-0.2L379.6,147.2z
	 M379.9,146.9L379.9,146.9l0.1,0.3l-0.1,0.4l-0.1,0.1l0-0.2l-0.1-0.1l0.1-0.2l0-0.2L379.9,146.9z M389.9,143.1l0,0.1l-0.2,0.3
	l-0.2,0.2l-0.2,0l-0.1,0.3l-0.1,0.3l-0.1,0.2l-0.1,0.1l0,0.1l-0.1,0.1l0,0.4l0.1,0.2l0.2,0l0,0.2l-0.2,0.1l-0.1,0.1l0,0.1v0.3
	l0.1,0.2l0,0.2l-0.1,0.1l-0.3-0.1l-0.1-0.5l-0.1-0.1l-0.3,0.1h-0.2l-0.1,0.1l0-0.1l0.1-0.3l0.1-0.2l0.1,0l0.1,0.1l0.1,0l0.1,0.1h0.1
	l-0.1-0.4l0-0.2l-0.3,0l-0.2-0.1l-0.1-0.1l-0.1-0.2l0-0.3l0.3,0l0.1-0.3l-0.1,0l0-0.2l-0.2-0.1l-0.2-0.2l0.1-0.2l0.1,0l0.1-0.3
	l0.1-0.1l0.1,0.1l0.3,0.4l-0.2,0.1v0.1l0.2,0.2l0,0.2l0.1,0.1l0.2-0.3h0.1l0-0.2l0-0.1l0.1-0.1l0.1,0l0.1-0.2l0.1-0.1l0-0.1
	l-0.1-0.2l0-0.1l0.2,0.1l0.1,0.1l0.2-0.2h0.1l0.1-0.2H389.9z M379.5,146.8l0,0.2l-0.1,0.2l-0.1,0l-0.1-0.2l0-0.3l0.1-0.1
	L379.5,146.8z M384.3,146.8L384.3,146.8l0.3,0.2l0.1,0.4l-0.2,0.1l0-0.2l-0.1-0.2l-0.1,0.1l0,0.1l0,0.3l0,0.1l-0.3-0.1l-0.1-0.3
	l-0.2-0.2l0-0.2l0-0.2l0.1-0.1l0.2,0l0.1,0.1l0.2-0.1L384.3,146.8z M392.8,125.5l0.2,0.1l0,0.2l-0.2,0.1l-0.1-0.2L392.8,125.5z"/>
<path id="South_Andaman" class="st0" d="M367.2,285.1l-0.2-0.1l-0.2-0.2l-0.2-0.3l-0.1-0.3l-0.2-0.2l-0.2-0.1l0-0.2l-0.1,0l-0.4-0.1
	l-0.3-0.2l-0.3,0l-0.2,0l-0.2,0.1l-0.2,0.4l0,0.1l-0.2,0.2l-0.3,0.2l-0.4,0l-0.2-0.1l-0.2-0.3l0-0.2l0.1-0.2l0.2-0.3l0.1-0.1
	l0.1-0.2l-0.1-0.2l0.2-0.4l0.1-0.2l0.1-0.3l0.2-0.2l0.1-0.2l0.1-0.3V281l0-0.2l0.1-0.1l0-0.2l0-0.2l0.1-0.2l0.2-0.1l0-0.2l-0.1-0.4
	l-0.1-0.4l-0.2-0.5l-0.2-0.6l-0.2-0.4l-0.4-0.6l-0.2,0l-0.3-0.1l-0.1,0l0.1-0.3v-0.2L363,276l0.1-0.2l-0.1-0.1v-0.4l-0.1-0.2
	l0.1-0.2l0-0.5l0-0.5l0.1-0.3l0-0.4l-0.1-0.2l0-0.3l-0.1-0.3l0-0.1l0-0.7l0-0.2l0.1-0.3l0-0.1l-0.2-0.3l-0.1-0.3l0-0.4l0.1-0.1
	l0.2-0.4l0.1,0l0.1,0.2l0,0.3l0.2,0.1l0.1,0.1v0.1l-0.1,0.1l0,0.4l0.1,0.4l0,0l-0.1-0.5l0-0.1l0-0.2l0.1-0.2l0.1-0.1l0.3-0.1
	l0.3-0.3l0.2-0.4l0.2-0.4v-0.3l0.1-0.2l0.1-0.4l0-0.4l0.2,0.1l0.1,0l0.1-0.1l0.2-0.3l0-0.1l0.2-0.4l0.1,0l0.2,0l0.1-0.1l0.1-0.4
	v-0.3l0-0.2l-0.1-0.2l0-0.1l0.1-0.1l0.1,0l0.3-0.2l0.1-0.2l0.1-0.1l0.2,0l0.1,0l0.1-0.2l0-0.1l0.2-0.3l0-0.2l0.1-0.2l0.4-0.1h0.1
	l0.1,0.1l0,0.3l0,0.1h0.1l-0.1-0.4l0.1-0.3l0.1-0.1l0.1,0l0.2,0l0.3,0.4l0.1,0.2l-0.1,0.3l0.1,0.2l0.1-0.1v-0.2l0.2,0.1l0.5,0.6
	l0.1,0l0.3,0.4l0.1,0.2v0.2l-0.1,0.2v0.2l0,0.1l0,0.3l0.2,0.5l0,0.2l0.1,0.2l-0.1,0.2l0,0.3l0,0.1l0,0.3l0.1,0.2l0,0.2l0.1,0.1h0.2
	l0.1,0.1l0.1,0.3l0.2,0.2l0.3,0.2l0.1,0.2l0,0.5l-0.1,0.3l0,0.2l-0.1,0.1l-0.1,0.3l0,0.8l0,0.3l0.2,0.5l0,0.2l0,0.3l0.1,0.5l0.1,0.1
	l0,0.2l0.2,0.3l0,0.4l-0.1,0.4l0,0.1l0,0.5l0,0.3l-0.1,0.1l-0.3-0.1l-0.1,0.1l-0.3,0.3l-0.1,0.2l0,0.3l0,0.1l0,0.3l0.1,0.1l-0.1,0.2
	l-0.1,0.1l-0.2,0l-0.3,0.2l-0.5,0.6l-0.1,0.2L370,279l-0.2,0.5l-0.1,0.2l0,0.5l0,0.2l0.2,0.4l0,0.1l0.2,0l0.3,0.2l0.2,0l0.1,0.1
	l0.2,0.3l0,0.3l-0.1,0.1l-0.1,0.2l-0.1,0.1l-0.1,0.3l-0.2,0.2l0,0.1l-0.3,0.3l-0.1,0.2l-0.1,0.4l-0.1,0.3l-0.1,0.1l-0.2,0.4l0,0.2
	l0,0.1l-0.1,0.2l-0.1,0.1l-0.1,0l-0.3,0.2l-0.3,0.1l-0.2,0l-0.1,0.1l-0.3,0l-0.2-0.1l-0.1-0.1l-0.2,0l-0.3-0.1L367.2,285.1z
	 M372.8,261.1l0.2,0.2l0.2,0.1l0.1,0.2l-0.1,0.1l-0.2,0l-0.1-0.1l-0.1-0.1l-0.1-0.2l0-0.2L372.8,261.1z M356.3,258.6l0.1,0.1
	l-0.1,0.3l-0.2,0.2l-0.2,0l-0.1-0.2v-0.1l0.3-0.2L356.3,258.6z M375.1,258.6l-0.2-0.1l0-0.2l0-0.3l0.1-0.1l0.2,0l0.1,0.1l0,0.2
	l0,0.1l-0.1,0.1L375.1,258.6z M377.8,249.3l-0.1,0.2l-0.1-0.1L377.8,249.3z M378,249l0.1,0.1l0,0.1l-0.2,0.2l-0.2-0.2l0.1-0.1
	L378,249z M375.7,247.1l0.2,0.1l-0.2,0.2l-0.2-0.6l0.1-0.1l0.1,0.1L375.7,247.1z M376.9,241l0.1,0.1l0,0.2l0,0.3l0,0.1l0,0.2
	l-0.1,0.1l0.1,0.2l0,0.2l-0.2,0.2l-0.3,0.4l0,0.2l-0.1,0.3l-0.3,0.1l0-0.2l0.1-0.1l0.1-0.2l0-0.2l0.1-0.1l0.1-0.2l0-0.2l-0.1-0.4
	l0-0.2l-0.1-0.4l0.1-0.2l0.3-0.2l0.1-0.1L376.9,241z M376.7,239.7l0.1,0.2l0.2,0l0.2,0l0.1,0.3l-0.1,0.1l-0.2-0.3l-0.1-0.1l-0.1,0
	v-0.1L376.7,239.7z M377.7,239.4l-0.1,0.1l-0.1-0.1l0,0.1l0,0.2l-0.1,0.1l-0.1-0.1l0.1-0.3l0-0.3l0.1-0.2l0-0.1l0-0.2l0-0.1l0.1-0.2
	l0.1,0l0,0.2l-0.1,0.3l0,0.2l0.1,0.1L377.7,239.4z M370.5,235.2L370.5,235.2l0-0.2l0.2-0.1l0.1,0l0,0.1l-0.1,0.1L370.5,235.2z
	 M370.1,235.1l-0.1-0.1l0.1-0.1l0.1,0.1l0,0.1L370.1,235.1z M355.8,224.6l-0.1-0.3l-0.2-0.2l0-0.1l0.2,0l0.1-0.1l0.1-0.2l0.2,0
	l0.1,0.1l0.2,0.1l0.1,0l0.2-0.2l0.3,0l0.3,0.1l0.3,0l0.2,0l0.3,0.3l0.1,0.1l0,0.4l-0.1,0.4l0.1,0.2l0,0.2v0.3l0.1,0.4l0.1,0.1
	l0.1,0.4l0,0.3l-0.1,0.3l-0.1,0.4l-0.1,0l0,0.1l-0.3,0.2l-0.3-0.4l-0.2-0.1l-0.2,0l-0.1,0.1l-0.3,0l-0.1,0l-0.1-0.1l-0.3-0.2l-0.2,0
	l-0.2,0.1l-0.2-0.3l-0.1-0.5l-0.1-0.3l0-0.5l0-0.2l0.1-0.2l0.2-0.5L355.8,224.6z M393.1,212.9l-0.2,0l-0.1-0.1l0-0.2l0.1-0.2
	l0.1-0.1l0.2,0.1v0.1L393.1,212.9z M390.5,209.2l0.1,0.1l0.2,0.1l0.2,0.2l0.2,0l0.2-0.2l0.1-0.1l0.4-0.1l0.2,0l0.1-0.1l0.1,0
	l0.1,0.1l0.2,0l0.1,0.2v0.2l-0.2,0.4l-0.3,0.4l0,0.2l-0.1,0.2l-0.3,0.2l-0.2,0l-0.3-0.2l-0.2-0.2l-0.1,0l-0.2-0.3l0-0.1h-0.1
	l-0.2-0.1l-0.2-0.1l-0.1,0.1l-0.1-0.2l0-0.2l-0.1-0.1l0-0.5l0-0.2l0.2,0.3L390.5,209.2z M379.7,212.4l0,0.2l-0.1,0.4l0.1,0.2l0,0.2
	l-0.1,0.2l0,0.2l-0.1,0.2l0.1,0.1l0,0.4l-0.1,0.3l-0.1,0.1l0,0.2l0,0.2l-0.1,0.1l0,0.5l-0.1,0.1v0.4l-0.1,0.1l0.1,0.3l0,0.2
	l-0.1,0.4l-0.1-0.2l0-0.1l-0.1-0.2l-0.1-0.2l-0.1,0.1l0,0.2l0.1,0.4l0,0.3l0.1,0.3l-0.2,0.1l-0.1-0.1l-0.1-0.1l-0.2-0.3l-0.1,0.2
	l-0.1-0.1h-0.2l0-0.1l-0.1-0.3l-0.1-0.1l-0.2,0.1v0.3l-0.1,0.2l-0.1,0l-0.1-0.3l0-0.1l-0.2-0.2l-0.1,0.2l0.1,0.2l-0.2,0.2l0,0.2
	l0,0.2l0,0.3l-0.1,0.4l0,0.2l0.1,0.1h0.1l0,0.1l-0.2,0.2l-0.2,0.1l-0.2-0.1l-0.1,0.1l0,0.2l-0.2,0.1l-0.1,0l-0.1,0.2l0.1,0.2
	l-0.1,0.3l-0.3-0.1l-0.4-0.1l0,0.1l-0.1,0.4l0.1,0.3l0,0.2l0,0.2l0.2,0.2l0,0.2l0.1,0.1l0.1-0.1v-0.1l0.1,0l0.1-0.2l0-0.2l0.1-0.1
	l0.1,0.1l0.1,0v-0.3l0.1,0.1l0,0.4l0,0.1l0.2,0.3v-0.2l-0.1-0.4l0.1-0.2l0.1,0l0.1-0.1l0-0.2l0-0.1l0-0.1l-0.1-0.1v-0.2l0.2-0.1
	l0.1,0.2l0.1,0.2l0.1,0.3l0.2,0l0-0.1l-0.1-0.3l0-0.1l0.2-0.1l0.2,0l0.1-0.1l0.3-0.1l0-0.2l-0.3-0.1l-0.2-0.1l0-0.1l0.1-0.3
	l-0.1-0.3l0.1-0.3l0.2-0.2l0.2,0.3l0.2,0l0.1,0.1l0,0.3l0.1,0l0.1-0.2l0.1,0l0.3,0.1l0.2-0.1l0,0.1l-0.1,0.2l0,0.2l0.1,0.1l0.2,0
	l0.1,0.1v0.2l-0.1,0.2l0.2,0.1l-0.1,0.2l0,0.1l-0.1,0.2l-0.1,0.1l-0.2,0l0,0.2l0.1,0.2l0.1,0l0.1,0.2l-0.1,0.2l0.1,0.1l0,0.5l0,0.2
	l0,0.4l-0.2,0.2l0,0.3l-0.2,0.1l-0.2,0.4l0,0.2l0.1,0l0,0.3l-0.1,0.4l-0.1-0.1l0,0.2l0.1,0.1l0,0.2l-0.1,0.2l-0.1,0.1l0,0.2
	l-0.1,0.1l0,0.1l0.1,0.1l0.1,0.1l-0.1,0.3l-0.1,0l0,0.2l-0.1,0.1l-0.1,0l-0.1,0.3l-0.1,0.1l0,0.3l0.2,0.6v0.1l-0.2,0.2l0,0.2
	l-0.2,0.3l-0.1,0.2l0,0.2l-0.1,0.1l0,0.3l-0.1,0.1l0,0.1l-0.1,0.1l0,0.2l0,0.3L377,230l-0.1-0.2l0.1-0.2l0-0.2l-0.1-0.1l-0.1-0.3
	l-0.1-0.3l0-0.1l-0.1-0.1l-0.2,0.1l-0.1-0.1l-0.1,0l-0.1-0.2l-0.2,0l-0.2,0l-0.1,0.1l0,0.2l-0.1,0.1l-0.2,0l-0.1-0.2l-0.2-0.4
	l-0.2-0.1l-0.1-0.1l-0.2-0.2l-0.1-0.1l0-0.3l-0.1-0.3l0-0.1l-0.1-0.3l0.2-0.3l0.1-0.2l0-0.1l-0.3-0.3l0-0.2l0-0.2l0.1-0.1l0.1-0.3
	l0.1-0.1l-0.3-0.1l-0.1-0.2l-0.1-0.1l-0.1,0.1l0,0.3l-0.2,0.1l-0.3,0.5l-0.1,0l0-0.3l0.1-0.2l0-0.3l-0.1-0.5l-0.1-0.1l-0.2-0.3
	l-0.2-0.1l0.1-0.3l-0.1-0.1l-0.1-0.4l0.1-0.4l0-0.2l0.1-0.1l0.2,0l0.2,0.1l0.2,0.2l0.2-0.5l0.1,0.1l0,0.3l0,0.1l0.3,0l0.2-0.2
	l0.1-0.3l0-0.4l-0.1-0.3l-0.1,0l-0.1,0.2l-0.2,0l-0.1-0.1l0-0.3l0.1-0.3l-0.1-0.3l-0.2-0.1l0,0.2l0.1,0.5l-0.1,0.7l-0.2,0l-0.2-0.2
	h-0.1l-0.1-0.1l-0.1,0l-0.1,0l0-0.4l-0.2-0.5l-0.1-0.1l0-0.2l-0.2-0.5l-0.2-0.2l0-0.1l0.1-0.1l0.1-0.4l0-0.6l0-0.2l-0.1-0.1l0-0.2
	l-0.1-0.3l0.1-0.4l-0.1-0.2l-0.2-0.3l-0.1,0.2l-0.1-0.1l-0.1,0l-0.2,0.1l0,0.1l0,0.3l0,0.1l0,0.4l-0.3,0.3l0,0.1l-0.1-0.1l-0.1-0.1
	l-0.1-0.3l-0.3-1.1l0-0.2l0-0.6l0.1-0.2l0-0.3l0-0.5l0-0.1l0-0.3l0-0.1l0.1-0.2l0.1-0.1l0.1-0.2l0-0.1l-0.1,0l0-0.3l-0.1-0.3
	l-0.1-0.1l0-0.2l0-0.1l0.1-0.2l-0.1-0.4l0-0.2l0-0.1l-0.1-0.1V211l-0.1-0.2l-0.1-0.1l-0.1,0l-0.1-0.2l0.1-0.2l0.1-0.2l-0.1-0.2
	l0-0.2l-0.2-0.1l-0.2,0.3l-0.1,0.1l-0.2,0.3l-0.1,0l-0.2-0.3l-0.1-0.3l0.1-0.1l0-0.3l-0.1-0.1l-0.1-0.2l0.3-0.9l0-0.2l0.1-0.2
	l0.1-0.1l0-0.4l0.1-0.2l-0.1-0.2l0-0.5l0.1-0.1l0.2-0.2l0.1-0.2l0-0.2l-0.1-0.1l0-0.2l0.2-0.2l0.1-0.2l0-0.3l0.1-0.1l0.2-0.1l0.2,0
	l0-0.2l0.2-0.4l0-0.2l-0.1-0.1l0.1-0.2l0-0.2l0.1,0.2l0.2,0.7l0.1,0.3h0.2l0.1,0.2l0,0.2l0,0.2l0,0.1l0.1,0.4l0,0.2l0.1,0.2l0.1,0.4
	l0,0.2l0.1,0.2l0.1,0.1l0.1,0l0.1-0.1l0-0.3l0.1-0.3l0.2,0.2l0.1-0.1l0,0.2l0,0.1l0,0.2l0,0.5l0,0.3l-0.1,0.3l0,0.3l0.1,0.3l0.1,0
	l-0.1-0.3l0.1-0.2l0.2-0.1l0-0.3l0-0.1l-0.1-0.5l0-0.8l0-0.2l0-0.2l0-0.4l-0.1-0.3l-0.1,0l0-0.3l0.1-0.3l0.1-0.7l0-0.2l-0.1-0.1
	l0-0.2l0-0.2l0-0.3l0.1-0.1l0.1-0.2v-0.4l0-0.4l0-0.2l0-0.4l0.1-0.4l0.1,0l0-0.1l-0.1-0.2l-0.1-0.6l0.1-0.3l0.1-0.5l0-0.1l0-0.2h0.2
	l0.1-0.1l0-0.2l-0.1-0.2l0.1-0.1l-0.1-0.3l0.1,0l0.2-0.2l0-0.2l-0.1-0.1l-0.2,0l0-0.1v-0.2l0.1,0l0.1-0.2l0-0.2l-0.1-0.1l-0.1-0.1
	l0-0.3l0.1-0.3l0.1-0.4v-0.4l0-0.1v-0.3l0-0.2l0-0.2l0-0.1l0.2-0.4l0.2-0.1l0.1-0.3l0.1-0.1l0-0.2l-0.2,0l0.1-0.5l0.1-0.6l0.1-0.2
	l0-0.1l0.1-0.4l0.1-0.4l0-0.4l0.1-0.2l0.1-0.6l0.2-0.3l0.1-0.4l0.1-0.2l0.1-0.6l0.1-0.3l0.1-0.3l0.1-0.1l0.1,0l-0.1,0.5l-0.1,0.4
	l-0.1,0.1l-0.2,0.5l-0.1,0.3l0.1,0.1l0.1-0.1l0-0.1l-0.1-0.1l0.2-0.3l0.1-0.4l0.1-0.2l0.2-0.2l0-0.2l0.1-0.2l0.1-0.3l0.1,0.1l0,0.5
	l0.1,0l0.1-0.3l0.1,0l0.1,0.2l0.1-0.3l-0.1-0.4l0.1-0.4l0.1-0.1v-0.2l0-0.2l0.1,0l0.1-0.2l0.1,0l0.1,0.1l0.1,0.3l0.1,0.1l0.1,0.2
	v0.3l0,0.1v0.2l0.1,0.1l0,0.5l-0.1,0.5l-0.1,0.2l0.2,0.3l0,0.1l-0.1,0.1l-0.2,0.4l0,0.2v0.4l-0.1,0.1v0.2l0.1-0.2v-0.1l0.3-0.3
	l0,0.4l0.1,0.2l0.1-0.2l0.1-0.3v-0.1l0.1-0.2l0.2,0.1l0.2-0.2l0.3-0.1l0.1,0.1h0.1l0.1,0.1l0.1,0.1l0.1-0.2l0.2,0.1l0,0.1l0,0.4
	l0,0.2l-0.1,0.2l0,0.3l0,0.2l-0.1,0.2l-0.1,0.3l0,0.1l-0.2,0.5l-0.1,0.3l0,0.3l-0.1,0.3l-0.1,0.2l-0.1,0.5l0,0.1l0,0.4v0.3l0,0.3
	l0,0.2l0.2,0.3l0.3,0.2l0.1,0l0.2,0.2l0.1,0.2l0,0.1l-0.1,0.2l-0.1,0.1l0,0.1l0.2,0l0.1-0.1l0.1,0.3l0.1,0v0.2l0.1,0.1l0.1-0.1
	l0.1,0l0.2-0.2l0.1,0l0.1,0.1l-0.1,0.3l-0.1,0.1l-0.1,0l0,0.5l0.1,0.1l0.1,0.2l-0.1,0.1l-0.2-0.1l-0.1,0l-0.2,0l0,0.1l-0.1,0.1
	l-0.2-0.1l0-0.2l-0.1-0.1l-0.1-0.3l-0.1,0l0-0.2l-0.1,0.1l-0.1,0l-0.1-0.2l0,0.2l-0.1-0.1l-0.1,0.2l0,0.1l0.2,0v0.2l-0.1,0.1l-0.1,0
	l0,0.2l0.2,0l0.1,0.1v0.1l-0.1,0.1l0.1,0.1l0.1-0.3l0.1,0l0,0.1l0.1,0.1l0,0.1l-0.1,0.1l0.1,0.1l0,0.1l0.1,0.1l0.1,0l0.1,0l0.1-0.2
	l0.1-0.2l0.1-0.1l0.1,0.1l0,0.1l0,0.3l0.1,0.2l-0.1,0.1l-0.2-0.1l-0.1,0.1l-0.5,0.1l-0.2,0.1v0.3l0.1,0l0.2-0.2h0.1l0.2,0.2
	l-0.1,0.2l0,0.1l-0.1,0.2l-0.1,0.1h-0.1l0-0.2l-0.1,0l-0.1,0.1l-0.2,0.2l-0.1-0.1v-0.3l0.1-0.1l0.1-0.2l0-0.1l0.1-0.3l-0.2-0.1
	l-0.2,0.2l0.1,0.1l-0.1,0.4l-0.1,0.1l0,0.1l-0.1,0.1l0.1,0.4l0.1-0.1l0.1,0l0.1,0.2l0,0.2l-0.1-0.1l-0.2,0.1l0,0.1l-0.1,0.2l-0.1,0
	l-0.1,0.1l0,0.2l-0.1,0.4l0.1,0.1l-0.1,0.1l0.1,0.4l-0.1,0.2l-0.1,0l0,0.2l0.1-0.1l0.2,0.1l0.1,0.1l0,0.2v0.2l-0.1,0.3l0.1,0.4
	l-0.1,0.5l0.1,0.1l0.1,0.2l-0.1,0.3l-0.1,0.1l0.1,0.1l0,0.4l-0.1,0.3l0.1,0.1l0,0.1l0.1,0.6l-0.1,0.7l-0.1,0.4l0,0.3l-0.2,0.5l0,0.1
	l-0.2,0.4l-0.2,0.3l-0.2,0.1l-0.1,0l-0.1,0.1l-0.3-0.2l-0.1,0l-0.1-0.1l-0.2,0l0.4,0.2l0.1,0l0,0.2h0.1l0.2-0.1l0.1,0l0.4-0.1
	l0.1-0.3l0.2-0.3l0.1-0.4l0.2-0.4l0.1-0.2l0.1-0.5l0.1-0.1l0.1-0.2l-0.1-0.2l0-0.3l0-0.2l0.1-0.3l-0.1-0.6l0.1-0.4l0-0.3V206
	l0.1-0.3l0.2-0.6l0.2-0.4l0-0.2l0.2-0.4l0.1,0l0.2,0.1l0.1-0.2l0.3-0.3l0.1,0.1l0.1-0.1l0.3,0.1l0.1,0.1l0.2,0l0.1,0.1l-0.1,0.1
	l0,0.1l0.1,0.2l0.1,0.1l0,0.3l-0.1,0.4l0,0.2l-0.1,0.1l0.1,0.2v0.1l-0.2,0.2l-0.1,0.3l0.2,0.3l0.2,0.2l-0.1,0.2l0,0.2l0,0.2l0.1,0.2
	l-0.1,0.2l0,0.1l-0.1,0.4l0,0.2l0.1,0.1l0,0.2l-0.2,0.1l0,0.3l0,0.1l-0.1,0.2l0,0.1l-0.1,0.2l0.1,0.2l0,0.2l-0.1,0.1l0,0.2l-0.1,0.3
	l0,0.2l-0.1,0.2l0,0.1l-0.1,0.2l0,0.2l0,0.1l0,0.2l0,0.1L379.7,212.4z M372.2,205.7l-0.1-0.3v-0.3l0.1-0.2l0.2,0l0,0.2l-0.1,0.2l0,0
	L372.2,205.7L372.2,205.7z M378.8,202.1l0.3,0.1h0.2l0.1,0.1l0,0.2l0.1,0.2l-0.1,0.2l-0.1,0.2l-0.1,0.1l-0.1,0l-0.2,0.1l-0.3,0.1
	l-0.1-0.1l0-0.1l-0.1-0.1l-0.1,0l-0.1-0.1l0.1-0.3l0.1-0.2l0.2-0.1l0.1,0.1l0.2-0.1L378.8,202.1L378.8,202.1z M378.1,202.9L378,203
	l0,0.1l0.1,0.4l-0.2,0.1l-0.1-0.2l0-0.3l-0.1-0.1l0-0.2l0.1-0.2l0.2-0.1l0,0.1L378.1,202.9z M372.2,201.6l0.1,0.2l0.1,0v0.2l0.1,0.2
	l0,0.1l0.1,0.3l0,0.2l0.1,0.2v0.4l0.1,0.1v0.1l-0.1,0.2l-0.1,0l-0.1,0.1v0.2l-0.1,0.2l-0.1-0.1l0-0.2l0-0.3l0-0.4l0-0.1l0-0.8l0-0.3
	l-0.1-0.1l-0.1,0l0-0.1l-0.1-0.1v-0.2H372.2L372.2,201.6z M371.6,201.6L371.6,201.6l0-0.3l0.1-0.1l0.1,0.3L371.6,201.6z
	 M379.9,199.2L379.9,199.2l0,0.3l-0.1-0.1l0-0.2L379.9,199.2z M388.1,202.2L388,202l-0.1-0.6l-0.1-0.2l-0.4-0.2l-0.2,0l-0.1,0
	l-0.1,0.1h-0.2l-0.1-0.2l-0.1-0.3l-0.2-0.2l0-0.1l0.1-0.1l0.1-0.4l0.1,0l0.3,0l0.3-0.2l0.2-0.2l0.1-0.4l0.2-0.2l0.2-0.3l0.1-0.4
	l0-0.4l0.1-0.3l0.1,0l0,0.2l0,0.2l0.1,0.2l0.1,0.2l0.1-0.2l0.1-0.1l0-0.2l0.2,0l0.2-0.1l0.1,0.2l0.2,0.2l0.1,0l0.2,0.2l0,0.1
	l0.2,0.2l0.1,0.2l0,0.2l0.1,0.3l0,0.2l-0.1,0.2l-0.1,0.3v0.2l0.1,0.2l0.2,0.7l0.1,0.3l0.1,0.1l0.3,0.8l0,0.2l0.1,0.4v0.1l0.1,0.2
	l0.1,0l0.2,0.1v0.2l0.1,0.1l0.1,0.4l0,0.1l0.1,0.2l0,0.2l0.1,0.1l0.1,0.3l0,0.2l0,0.2l0.1,0.1l0,0.2l0.2,0.3l0,0.4l-0.1,0.3
	l-0.2,0.4l-0.1,0.1l-0.3,0l-0.2-0.1l-0.3-0.3l-0.1-0.5v-0.2l-0.1-0.1l-0.1-0.2l-0.2-0.4l-0.1-0.1l-0.1-0.2l-0.2-0.5l-0.2-0.2
	l-0.1-0.2l-0.1,0l0-0.2l-0.2-0.2l0.2-0.2l0-0.1l-0.1,0l-0.1-0.1l-0.1-0.1l-0.1,0.1l-0.2,0.3l-0.2-0.1l-0.1-0.1l-0.2-0.1l-0.2-0.4
	l-0.1-0.3L388.1,202.2z M394.8,191.8v0.2l0.1,0.3l-0.2,0.3l-0.1,0.1l-0.1-0.3l0-0.2l-0.1-0.1V192l0.2-0.1l0.1-0.2L394.8,191.8z
	 M390.9,184.2l0,0.1l-0.1,0.2l-0.1,0.1l-0.2-0.1l0.1-0.2L390.9,184.2z M425.7,181.9l0.8,1.6l0.2-0.2l0.2,0l0.3,0.4v0.2l0.1,0.1
	l0,0.3l0,0.3l-0.2,0.2l0.1,0.7l0.2,1.1l-0.5,0.2l-0.1,0l-0.2-1.8l-0.1,0.1l0.1,1.8l-0.5,0l-0.5-0.2l-0.4-0.2l0.1-0.1l0.8-1.4
	l-0.1-0.1l-1,1.4l-0.5-1.5l0-0.8l0.2-0.9l0.1-0.2l0.1-0.2l1,1.3l0.1-0.1l-0.9-1.4l0.1-0.1L425.7,181.9z M392.7,182L392.7,182l0,0.2
	l-0.2-0.1l0-0.1L392.7,182z M387.4,193.6l0.2,0.2l0.1,0.2l0.1,0.1l0.1,0.4l-0.1,0.2l-0.2,0.2l-0.1,0l0-0.3l0-0.4l0-0.4l-0.1-0.2
	L387.4,193.6z M389.2,194l0.1,0.1l0.1,0l0.2,0.1l0.2,0l0.1,0.1v0.2l-0.1,0.1v0.2l-0.1,0.1v0.2l-0.1,0.2l0,0.3l0,0.1l0.1,0.1
	l-0.1,0.2l0.1,0.1v0.2l-0.1,0.2l0.1,0.1l-0.1,0.4l0.1,0.3l-0.1,0.2l-0.1,0.1l-0.1,0.1l-0.1,0l-0.3-0.3l-0.1,0l-0.1-0.1v-0.2
	l-0.2-0.3l-0.1,0l0.1-0.2l-0.1-0.1l-0.1-0.2l-0.2,0l-0.1-0.2l-0.1-0.4l0-0.2l0.2-0.1l0.2,0l0-0.1l-0.1-0.1l-0.1,0.1l-0.1-0.1l0-0.1
	l-0.2-0.1l0-0.3l0-0.1l0-0.3l0.2,0l0.1-0.1l0.2,0.3l0.1,0.1v-0.2l0.2-0.1h0.1l0.1-0.1L389.2,194z M388,193.2l-0.1-0.4l-0.1-0.2
	l-0.1-0.5l0-0.2l0.1-0.2l0.2-0.1l0.2,0.1l0.3,0.1l0.4,0l0.2,0.3l0.1,0.1l0.1,0.1l0,0.3l0.1,0.2l0,0.1l0.1,0.3l0.2,0.3l0,0.2l0.1,0.1
	l0.1-0.1l-0.1-0.4v-0.3l0-0.3l0-0.2l0.1-0.2l0-0.3l0.2-0.3l0.2-0.2l0.2-0.2l0-0.3l0.1-0.1l0.1-0.1l0.1,0.2l-0.1,0.2l0,0.3l0,0.3
	l0,0.2l0.1,0.3l-0.1,0.1v0.1l0.2,0.2l0.1,0.4l0.1,0.1l-0.1,0.3l0,0.1l0,0.4l0.1,0.4l0,0.2l0.1,0.2l0.1,0.2l0.2,0.4l0.2,0.2l0.1,0
	l0.1,0.3l0.1,0.2l-0.1,0.2l0.1,0.1l0,0.3l0,0.1l0,0.1l-0.1,0.1l0,0.1l-0.2,0.5l-0.1,0.2l-0.2,0l-0.3-0.6l-0.1-0.3l-0.4-0.5l-0.2-0.1
	l-0.3,0l-0.1,0.1l-0.2-0.2l0-0.2v-0.2l0-0.2l0-0.4l0.1-0.4l0-0.3l-0.1-0.2l-0.2,0.1v-0.2l-0.2-0.2l-0.3,0l-0.2,0l-0.2,0.1l0-0.1
	l-0.1,0l-0.1-0.2l-0.2,0l-0.2-0.1L388,193.2z M375.9,187.9L375.9,187.9l-0.1-0.2l0.1-0.3l0.1,0L375.9,187.9z M393.1,189l0.1,0l0,0.4
	l0.2,0.4v0.5l-0.1,0.5l-0.1,0l-0.1,0.4v0.1l0.1,0.1l0.1,0l0.2,0.2l0,0.3l-0.1,0.3l-0.1,0.1l0,0.2l0,0.1l0,0.3l0.1,0l0,0.2l0,0.2
	l-0.1,0.1l0.1,0.2v0.3l-0.1,0.5l-0.2,0.2l0,0.3l-0.1,0.1l-0.2,0.1l0,0.2l-0.2,0l-0.1-0.1l-0.1,0l0-0.2l-0.2-0.5l-0.1,0l0-0.3l-0.1,0
	l-0.3-0.4l-0.1-0.3l0-0.1l0.1-0.1l0-0.2l-0.1,0.2l0,0l-0.1-0.2l0-0.2l-0.2,0l-0.1,0.1l0-0.2l-0.1-0.1v-0.1l0.1-0.4l0-0.3l0.1-0.6
	l-0.3-0.1l0-0.2l0.2,0.1l0.1-0.1l0.1-0.4l0.1-0.1l0.1-0.4l0.1-0.1l0.1-0.4l0.1-0.3l0.3-0.6l0.2-0.5l0.4,0.1l0.1,0.2v0.2l0.2,0.2
	L393.1,189z M379.2,189.9l0.1,0.1l0.1,0.1l-0.1,0.4l0-0.4L379.2,189.9L379.2,189.9z M392.9,185.2l0.1,0.2l0.1,0l0.1,0.4l0,0.2v0.4
	l0,0.2l0.1,0.1l0.2,0l0.1-0.2l0.1-0.1l0-0.2l0.1-0.2l0-0.2l0-0.3l0.1-0.1h0.2l0,0.2l0,0.2l0,0.1l0,0.1v0.3l0,0.3l0,0.2l-0.1,0.2
	l0,0.1l0.1,0.6l0,0.5l0,0.2l-0.1,0.2l-0.1,0l-0.1-0.3l-0.1-0.1l-0.1-0.3l0.1-0.2v-0.2l-0.1,0l-0.2,0l-0.1,0.1l-0.1,0l-0.1-0.1
	l-0.2-0.1h-0.1l-0.2-0.1h-0.1l-0.1-0.1l0-0.3l0.1-0.1l0.1-0.4l0-0.4l0.2-0.2l0-0.3l0.1-0.1L392.9,185.2z M373.5,233.4l-0.1-0.5
	l-0.2-0.2l0-0.2l0.1-0.1l0.1-0.2l-0.1-0.1l0-0.2l-0.2-0.3l-0.2-0.5l0.1-0.5l0-0.3l0.1-0.6l0.1-0.1l0-0.3l0.1-0.2v-0.1l0.1-0.2
	l0.2-0.2l0.1-0.4l0.1-0.2l0-0.1l0.2-0.2l0.1,0.3l0.1,0.1l0.2-0.1l0,0.5l0,0.1l0.4,0.4l0.2,0.2l0.1,0.1l0.1-0.1l0.1,0.1l0.1,0.3
	l0,0.3l0.2,0.3l0.1,0.1l-0.1,0.5l0.1,0.2l0.1,0.2l0,0.2l0.2,0.6l0,0l0.1,0.3l0,0.2l-0.2,0.1l0,0.1l0.1,0.1l-0.1,0.1l-0.1-0.2
	l-0.2,0.1l-0.1,0l0,0.2l0.1,0.2l0,0.2l-0.1,0.1l-0.4,0.2l-0.2,0.1l-0.1,0.1l-0.1,0l-0.1,0.1l0.5,0.1l0,0.2l0.1,0.1l-0.1,0.2l0.1,0.2
	h0.1l0.2-0.1l0-0.1l0.1,0l0.2,0.4l0.2,0.1l0.2-0.1l0,0.2l0.1,0l-0.1,0.4l0.1,0.2l-0.1,0.2v0.2l-0.2,0.2l-0.2,0l0,0.1l-0.1,0.1
	l-0.2,0l-0.2,0.1l-0.1,0.1l-0.1,0.2v0.2l-0.1-0.1l-0.3-0.1l-0.2,0.1l-0.4,0.4l-0.1,0.2l-0.3-0.1l-0.2,0l-0.2,0.1l-0.1-0.1l-0.3,0
	l0,0.1l-0.1,0.1l-0.3,0l-0.1,0l-0.3-0.2l-0.2-0.2l-0.1-0.2l0-0.1l-0.2-0.4v-0.2l0.2-0.2l0.2-0.1l0.1-0.3l-0.1-0.7l-0.1-0.5l0.2,0
	l0.1,0.1l0.2-0.1l0.2,0l0.2-0.1l0.2,0.1l0.2-0.1l0.2-0.1l0.1-0.3l0-0.3L373.5,233.4z M373.6,226.5L373.6,226.5l0-0.4l0.1,0
	L373.6,226.5L373.6,226.5z M372.6,226.9L372.6,226.9l0.1,0.4l0,0.3l-0.2-0.1v-0.3l0-0.3l0.1-0.2L372.6,226.9z M376.6,219.5
	L376.6,219.5l0.1,0.3l-0.3,0l-0.1,0l0.1-0.1L376.6,219.5z M379.4,219.2L379.4,219.2l-0.1-0.5l0.1,0l0.1-0.1l0.1,0.1L379.4,219.2z
	 M377.8,218.1l0,0.1l-0.1,0l0-0.1L377.8,218.1z M371.3,225.3l-0.1-0.2l0.1-0.2l0,0.3L371.3,225.3z M372.8,225.5l0.1-0.1l0.1,0.1
	l0.2,0l0.1,0.1v0.3l0,0.2l0,0.3l-0.1,0.4l-0.2,0.2l-0.1-0.2l-0.1-0.5l0-0.2l0-0.1l-0.1-0.1l0-0.2l0.1,0.1l0.2,0l-0.2-0.4l0.1-0.1
	L372.8,225.5z M372.2,226.5l-0.1,0.4l-0.1-0.1l-0.2,0.2l0-0.3l-0.1,0l-0.1,0.2v-0.2l0.1-0.1l0-0.3l-0.1-0.1l0-0.2l0.1-0.1l0.1-0.2
	l0.1-0.2l-0.1-0.2v-0.3l0.1-0.2l0.1-0.2l0.1,0.4l0,0.2l0.1,0.1l0,0.1l0,0.3l0,0.2L372.2,226.5L372.2,226.5z M372.9,223.9l0.3,0.4
	l0.1,0.2l0,0.2l-0.1,0.4l-0.1,0.2l-0.1,0l-0.1-0.2l-0.2-0.1l-0.1,0.1l-0.1,0l0-0.4l0.1-0.6l0.2-0.1L372.9,223.9z M369.8,223l0.1,0.1
	l0.1,0l0,0.2l-0.1,0.2l0.1,0.2l0.2-0.1l0.1,0.1h0.1l0.2-0.1l0.2,0l0.1,0.2l-0.2,0.1l0,0.1l0,0.2l0,0.2l0.1,0.2l-0.1,0.1l-0.2,0.1
	l-0.1,0.2l0,0.1l-0.1,0.3l-0.2,0.1l-0.2-0.1l-0.2,0.1l-0.1,0.1l-0.1,0.1l-0.1,0l0.1-0.3l0.1-0.1l0-0.1l-0.1-0.3l0.1-0.2l0-0.3l0-0.2
	l-0.1-0.2l0-0.3l0.1-0.2v-0.1l0.1-0.3L369.8,223z M372.8,228.7L372.8,228.7v-0.2l0.1-0.2h0.1L372.8,228.7z M370.7,226.7v0.2l0.1,0.1
	l0.1,0.1l0.2,0.2l-0.1,0.6l-0.2,0l-0.1-0.2l-0.1-0.1l-0.3-0.5l0-0.3l0-0.1l0.1,0l0.1-0.2l0.1,0L370.7,226.7z M370.9,203.1
	L370.9,203.1l0.2,0.2l-0.1,0.1l-0.2-0.2L370.9,203.1z"/>
<path id="Layer_1_" class="st1" d="M0,0"/>
<path id="Nicobar_Islands" d="M439.1,431v-9.5h1.7l4.2,7.9v-7.9h1.2v9.5h-1.7l-4.2-7.9v7.9H439.1z M448.8,431v-7.1h1.2v7.1H448.8z
	 M448.8,422.6v-1.5h1.2v1.5H448.8z M457.5,424.2v1.1c-0.3-0.2-0.7-0.3-1-0.4c-0.3-0.1-0.7-0.1-1-0.1c-0.8,0-1.4,0.2-1.8,0.7
	s-0.6,1.2-0.6,2c0,0.9,0.2,1.5,0.6,2c0.4,0.5,1,0.7,1.8,0.7c0.3,0,0.7,0,1-0.1c0.3-0.1,0.7-0.2,1-0.4v1.1c-0.3,0.2-0.7,0.3-1,0.3
	c-0.3,0.1-0.7,0.1-1.1,0.1c-1.1,0-1.9-0.3-2.5-1c-0.6-0.7-1-1.6-1-2.7c0-1.2,0.3-2.1,1-2.7c0.6-0.7,1.5-1,2.6-1c0.4,0,0.7,0,1,0.1
	C456.8,423.9,457.2,424,457.5,424.2z M462.3,424.7c-0.6,0-1.1,0.2-1.5,0.7c-0.4,0.5-0.5,1.2-0.5,2c0,0.9,0.2,1.5,0.5,2
	c0.4,0.5,0.9,0.7,1.5,0.7c0.6,0,1.1-0.2,1.5-0.7c0.4-0.5,0.5-1.2,0.5-2c0-0.8-0.2-1.5-0.5-2C463.4,425,462.9,424.7,462.3,424.7z
	 M462.3,423.7c1,0,1.8,0.3,2.4,1c0.6,0.7,0.9,1.6,0.9,2.7c0,1.2-0.3,2.1-0.9,2.7c-0.6,0.7-1.4,1-2.4,1c-1,0-1.8-0.3-2.4-1
	c-0.6-0.7-0.9-1.6-0.9-2.7c0-1.2,0.3-2.1,0.9-2.7C460.5,424.1,461.3,423.7,462.3,423.7z M472.6,427.5c0-0.9-0.2-1.5-0.5-2
	c-0.4-0.5-0.8-0.7-1.4-0.7c-0.6,0-1.1,0.2-1.5,0.7c-0.4,0.5-0.5,1.2-0.5,2c0,0.9,0.2,1.5,0.5,2c0.4,0.5,0.8,0.7,1.5,0.7
	c0.6,0,1.1-0.2,1.4-0.7C472.4,429,472.6,428.3,472.6,427.5z M468.6,421.1v3.9c0.2-0.4,0.6-0.7,0.9-0.9c0.4-0.2,0.8-0.3,1.3-0.3
	c0.9,0,1.6,0.3,2.1,1c0.5,0.7,0.8,1.6,0.8,2.7c0,1.1-0.3,2-0.8,2.7c-0.5,0.7-1.2,1-2.1,1c-0.5,0-1-0.1-1.3-0.3
	c-0.4-0.2-0.7-0.5-0.9-1v1.1h-1.2v-9.9H468.6z M480.1,427.4H479c-0.9,0-1.6,0.1-2,0.3c-0.4,0.2-0.5,0.6-0.5,1.1c0,0.4,0.1,0.8,0.4,1
	c0.3,0.2,0.7,0.4,1.1,0.4c0.6,0,1.2-0.2,1.6-0.7c0.4-0.5,0.6-1.1,0.6-1.8V427.4z M481.3,426.9v4.1h-1.2v-1.1c-0.3,0.4-0.6,0.8-1,1
	c-0.4,0.2-0.9,0.3-1.5,0.3c-0.7,0-1.3-0.2-1.7-0.6c-0.4-0.4-0.6-1-0.6-1.6c0-0.8,0.3-1.4,0.8-1.8c0.5-0.4,1.3-0.6,2.4-0.6h1.6v-0.1
	c0-0.5-0.2-1-0.5-1.2c-0.3-0.3-0.8-0.4-1.5-0.4c-0.4,0-0.8,0.1-1.2,0.1c-0.4,0.1-0.8,0.2-1.1,0.4v-1.1c0.4-0.2,0.8-0.3,1.2-0.4
	c0.4-0.1,0.8-0.1,1.2-0.1c1,0,1.8,0.3,2.3,0.8C481,425.1,481.3,425.9,481.3,426.9z M487.8,423.8l0,1.2c-0.1-0.1-0.3-0.1-0.4-0.2
	c-0.2,0-0.3-0.1-0.5-0.1c-0.7,0-1.2,0.2-1.5,0.6c-0.4,0.4-0.5,1-0.5,1.8v3.8h-1.2v-7.1h1.2v1.1c0.2-0.4,0.6-0.8,1-1
	c0.4-0.2,0.9-0.3,1.4-0.3c0.1,0,0.2,0,0.3,0C487.6,423.7,487.7,423.8,487.8,423.8z M493.2,431v-9.5h1.3v9.5H493.2z M501.5,424.1v1.1
	c-0.3-0.2-0.7-0.3-1-0.4c-0.4-0.1-0.7-0.1-1.1-0.1c-0.6,0-1,0.1-1.3,0.3c-0.3,0.2-0.4,0.4-0.4,0.8c0,0.3,0.1,0.5,0.3,0.6
	c0.2,0.2,0.6,0.3,1.2,0.4l0.4,0.1c0.8,0.2,1.4,0.4,1.8,0.8c0.3,0.3,0.5,0.8,0.5,1.4c0,0.7-0.3,1.2-0.8,1.6c-0.5,0.4-1.2,0.6-2.2,0.6
	c-0.4,0-0.8,0-1.2-0.1c-0.4-0.1-0.8-0.2-1.3-0.3v-1.2c0.4,0.2,0.9,0.4,1.3,0.5c0.4,0.1,0.8,0.2,1.2,0.2c0.6,0,1-0.1,1.3-0.3
	c0.3-0.2,0.4-0.5,0.4-0.8c0-0.3-0.1-0.6-0.3-0.7c-0.2-0.2-0.7-0.3-1.4-0.5l-0.4-0.1c-0.7-0.2-1.2-0.4-1.6-0.7
	c-0.3-0.3-0.5-0.8-0.5-1.3c0-0.7,0.2-1.2,0.7-1.5c0.5-0.4,1.1-0.5,2-0.5c0.4,0,0.8,0,1.2,0.1C500.9,423.9,501.2,424,501.5,424.1z
	 M503.8,431v-9.9h1.2v9.9H503.8z M511.8,427.4h-1.2c-0.9,0-1.6,0.1-2,0.3c-0.4,0.2-0.5,0.6-0.5,1.1c0,0.4,0.1,0.8,0.4,1
	c0.3,0.2,0.6,0.4,1.1,0.4c0.6,0,1.2-0.2,1.6-0.7c0.4-0.5,0.6-1.1,0.6-1.8V427.4z M513,426.9v4.1h-1.2v-1.1c-0.3,0.4-0.6,0.8-1,1
	c-0.4,0.2-0.9,0.3-1.5,0.3c-0.7,0-1.3-0.2-1.7-0.6c-0.4-0.4-0.6-1-0.6-1.6c0-0.8,0.3-1.4,0.8-1.8c0.5-0.4,1.3-0.6,2.4-0.6h1.6v-0.1
	c0-0.5-0.2-1-0.5-1.2c-0.3-0.3-0.8-0.4-1.5-0.4c-0.4,0-0.8,0.1-1.2,0.1c-0.4,0.1-0.8,0.2-1.1,0.4v-1.1c0.4-0.2,0.8-0.3,1.2-0.4
	c0.4-0.1,0.8-0.1,1.2-0.1c1,0,1.8,0.3,2.3,0.8C512.7,425.1,513,425.9,513,426.9z M521.3,426.7v4.3h-1.2v-4.2c0-0.7-0.1-1.2-0.4-1.5
	c-0.3-0.3-0.7-0.5-1.2-0.5c-0.6,0-1.1,0.2-1.5,0.6c-0.4,0.4-0.5,0.9-0.5,1.6v4h-1.2v-7.1h1.2v1.1c0.3-0.4,0.6-0.8,1-1
	c0.4-0.2,0.8-0.3,1.3-0.3c0.8,0,1.4,0.3,1.9,0.8S521.3,425.7,521.3,426.7z M528.3,425v-3.9h1.2v9.9h-1.2v-1.1
	c-0.2,0.4-0.6,0.7-0.9,1c-0.4,0.2-0.8,0.3-1.3,0.3c-0.9,0-1.6-0.3-2.1-1c-0.5-0.7-0.8-1.6-0.8-2.7c0-1.1,0.3-2,0.8-2.7s1.2-1,2.1-1
	c0.5,0,1,0.1,1.3,0.3C527.7,424.2,528,424.5,528.3,425z M524.3,427.5c0,0.9,0.2,1.5,0.5,2c0.4,0.5,0.8,0.7,1.5,0.7
	c0.6,0,1.1-0.2,1.5-0.7c0.4-0.5,0.5-1.2,0.5-2c0-0.9-0.2-1.5-0.5-2c-0.4-0.5-0.8-0.7-1.5-0.7c-0.6,0-1.1,0.2-1.5,0.7
	C524.5,425.9,524.3,426.6,524.3,427.5z M536.4,424.1v1.1c-0.3-0.2-0.7-0.3-1-0.4c-0.4-0.1-0.7-0.1-1.1-0.1c-0.6,0-1,0.1-1.3,0.3
	c-0.3,0.2-0.4,0.4-0.4,0.8c0,0.3,0.1,0.5,0.3,0.6c0.2,0.2,0.6,0.3,1.2,0.4l0.4,0.1c0.8,0.2,1.4,0.4,1.8,0.8c0.4,0.3,0.5,0.8,0.5,1.4
	c0,0.7-0.3,1.2-0.8,1.6c-0.5,0.4-1.2,0.6-2.1,0.6c-0.4,0-0.8,0-1.2-0.1c-0.4-0.1-0.8-0.2-1.3-0.3v-1.2c0.4,0.2,0.9,0.4,1.3,0.5
	c0.4,0.1,0.8,0.2,1.2,0.2c0.6,0,1-0.1,1.3-0.3c0.3-0.2,0.5-0.5,0.5-0.8c0-0.3-0.1-0.6-0.3-0.7c-0.2-0.2-0.7-0.3-1.4-0.5l-0.4-0.1
	c-0.7-0.2-1.2-0.4-1.6-0.7c-0.3-0.3-0.5-0.8-0.5-1.3c0-0.7,0.2-1.2,0.7-1.5c0.5-0.4,1.2-0.5,2-0.5c0.4,0,0.8,0,1.2,0.1
	C535.7,423.9,536.1,424,536.4,424.1z"/>
<path id="North_and_Middle_Andaman_1_" d="M415,137v-9.5h1.7l4.2,7.9v-7.9h1.2v9.5h-1.7l-4.2-7.9v7.9H415z M427.4,130.7
	c-0.6,0-1.1,0.2-1.5,0.7c-0.4,0.5-0.5,1.2-0.5,2c0,0.9,0.2,1.5,0.5,2c0.4,0.5,0.9,0.7,1.5,0.7c0.6,0,1.1-0.2,1.5-0.7
	c0.4-0.5,0.5-1.2,0.5-2c0-0.8-0.2-1.5-0.5-2C428.5,131,428,130.7,427.4,130.7z M427.4,129.7c1,0,1.8,0.3,2.4,1
	c0.6,0.7,0.9,1.6,0.9,2.7c0,1.2-0.3,2.1-0.9,2.7c-0.6,0.7-1.4,1-2.4,1c-1,0-1.8-0.3-2.4-1c-0.6-0.7-0.9-1.6-0.9-2.7
	c0-1.2,0.3-2.1,0.9-2.7C425.6,130.1,426.4,129.7,427.4,129.7z M436.7,129.8l0,1.2c-0.1-0.1-0.3-0.1-0.4-0.2c-0.2,0-0.3-0.1-0.5-0.1
	c-0.7,0-1.2,0.2-1.5,0.7c-0.3,0.4-0.5,1-0.5,1.8v3.8h-1.2v-7.1h1.2v1.1c0.2-0.4,0.6-0.8,1-1c0.4-0.2,0.9-0.3,1.4-0.3
	c0.1,0,0.2,0,0.3,0C436.5,129.7,436.6,129.8,436.7,129.8z M437.9,127.9h1.2v2h2.4v0.9h-2.4v3.9c0,0.6,0.1,0.9,0.2,1.1
	c0.2,0.2,0.5,0.2,1,0.2h1.2v1h-1.2c-0.9,0-1.5-0.2-1.9-0.5c-0.3-0.3-0.5-1-0.5-1.8v-3.9h-0.9v-0.9h0.9V127.9z M449,132.7v4.3h-1.2
	v-4.2c0-0.7-0.1-1.2-0.4-1.5c-0.3-0.3-0.7-0.5-1.2-0.5c-0.6,0-1.1,0.2-1.5,0.6c-0.4,0.4-0.5,0.9-0.5,1.6v4H443v-9.9h1.2v3.9
	c0.3-0.4,0.6-0.8,1-1c0.4-0.2,0.8-0.3,1.3-0.3c0.8,0,1.4,0.3,1.9,0.8C448.8,131,449,131.7,449,132.7z M459.8,133.4h-1.2
	c-0.9,0-1.6,0.1-2,0.3c-0.4,0.2-0.6,0.6-0.6,1.1c0,0.4,0.1,0.7,0.4,1c0.3,0.2,0.6,0.4,1.1,0.4c0.6,0,1.2-0.2,1.6-0.7
	c0.4-0.5,0.6-1.1,0.6-1.8V133.4z M461,132.9v4.1h-1.2v-1.1c-0.3,0.4-0.6,0.8-1,1c-0.4,0.2-0.9,0.3-1.5,0.3c-0.7,0-1.3-0.2-1.7-0.6
	c-0.4-0.4-0.6-1-0.6-1.6c0-0.8,0.3-1.4,0.8-1.8s1.3-0.6,2.4-0.6h1.6v-0.1c0-0.5-0.2-1-0.5-1.2c-0.4-0.3-0.8-0.4-1.5-0.4
	c-0.4,0-0.8,0.1-1.2,0.1c-0.4,0.1-0.8,0.2-1.1,0.4v-1.1c0.4-0.2,0.8-0.3,1.2-0.4c0.4-0.1,0.8-0.1,1.2-0.1c1,0,1.8,0.3,2.3,0.8
	C460.7,131.1,461,131.9,461,132.9z M469.3,132.7v4.3h-1.2v-4.2c0-0.7-0.1-1.2-0.4-1.5c-0.3-0.3-0.7-0.5-1.2-0.5
	c-0.6,0-1.1,0.2-1.5,0.6c-0.4,0.4-0.5,0.9-0.5,1.6v4h-1.2v-7.1h1.2v1.1c0.3-0.4,0.6-0.8,1-1c0.4-0.2,0.8-0.3,1.3-0.3
	c0.8,0,1.4,0.3,1.9,0.8C469.1,131,469.3,131.7,469.3,132.7z M476.3,131v-3.8h1.2v9.9h-1.2v-1.1c-0.2,0.4-0.5,0.7-0.9,1
	c-0.4,0.2-0.8,0.3-1.3,0.3c-0.9,0-1.6-0.3-2.1-1c-0.5-0.7-0.8-1.6-0.8-2.7c0-1.1,0.3-2,0.8-2.7c0.5-0.7,1.3-1,2.1-1
	c0.5,0,1,0.1,1.3,0.3C475.8,130.2,476.1,130.5,476.3,131z M472.3,133.4c0,0.9,0.2,1.5,0.5,2c0.4,0.5,0.8,0.7,1.5,0.7
	c0.6,0,1.1-0.2,1.5-0.7c0.4-0.5,0.5-1.2,0.5-2c0-0.9-0.2-1.5-0.5-2c-0.4-0.5-0.8-0.7-1.5-0.7c-0.6,0-1.1,0.2-1.5,0.7
	C472.5,131.9,472.3,132.6,472.3,133.4z M484.1,137v-9.5h1.9l2.4,6.5l2.4-6.5h1.9v9.5h-1.2v-8.3l-2.4,6.5h-1.3l-2.4-6.5v8.3H484.1z
	 M495.2,137v-7.1h1.2v7.1H495.2z M495.2,128.6v-1.5h1.2v1.5H495.2z M503.5,131v-3.8h1.2v9.9h-1.2v-1.1c-0.2,0.4-0.6,0.7-0.9,1
	c-0.4,0.2-0.8,0.3-1.3,0.3c-0.9,0-1.6-0.3-2.1-1c-0.5-0.7-0.8-1.6-0.8-2.7c0-1.1,0.3-2,0.8-2.7c0.5-0.7,1.2-1,2.1-1
	c0.5,0,1,0.1,1.3,0.3C503,130.2,503.3,130.5,503.5,131z M499.5,133.4c0,0.9,0.2,1.5,0.5,2c0.4,0.5,0.8,0.7,1.5,0.7
	c0.6,0,1.1-0.2,1.5-0.7c0.4-0.5,0.5-1.2,0.5-2c0-0.9-0.2-1.5-0.5-2c-0.4-0.5-0.8-0.7-1.5-0.7c-0.6,0-1.1,0.2-1.5,0.7
	C499.7,131.9,499.5,132.6,499.5,133.4z M511.8,131v-3.8h1.2v9.9h-1.2v-1.1c-0.2,0.4-0.6,0.7-0.9,1c-0.4,0.2-0.8,0.3-1.4,0.3
	c-0.9,0-1.6-0.3-2.1-1c-0.5-0.7-0.8-1.6-0.8-2.7c0-1.1,0.3-2,0.8-2.7c0.5-0.7,1.2-1,2.1-1c0.5,0,1,0.1,1.4,0.3
	C511.2,130.2,511.5,130.5,511.8,131z M507.8,133.4c0,0.9,0.2,1.5,0.5,2c0.4,0.5,0.8,0.7,1.5,0.7c0.6,0,1.1-0.2,1.5-0.7
	c0.4-0.5,0.5-1.2,0.5-2c0-0.9-0.2-1.5-0.5-2c-0.4-0.5-0.8-0.7-1.5-0.7c-0.6,0-1.1,0.2-1.5,0.7C508,131.9,507.8,132.6,507.8,133.4z
	 M515.3,137v-9.9h1.2v9.9H515.3z M525,133.1v0.6h-5.4c0,0.8,0.3,1.4,0.7,1.9c0.4,0.4,1,0.6,1.8,0.6c0.5,0,0.9-0.1,1.3-0.2
	c0.4-0.1,0.8-0.3,1.2-0.5v1.1c-0.4,0.2-0.9,0.3-1.3,0.4c-0.4,0.1-0.9,0.1-1.3,0.1c-1.1,0-2-0.3-2.7-1c-0.7-0.7-1-1.6-1-2.7
	c0-1.2,0.3-2.1,0.9-2.8c0.6-0.7,1.5-1,2.5-1c1,0,1.7,0.3,2.3,0.9C524.8,131.3,525,132.1,525,133.1z M519.7,132.8l4.2,0
	c0-0.6-0.2-1.1-0.5-1.5c-0.3-0.4-0.8-0.6-1.4-0.6c-0.6,0-1.2,0.2-1.6,0.5C520,131.6,519.8,132.1,519.7,132.8z M536.1,133.5l-1.8-4.7
	l-1.7,4.7H536.1z M530,137l3.6-9.5h1.4l3.6,9.5h-1.3l-0.9-2.4h-4.3l-0.9,2.4H530z M545.9,132.7v4.3h-1.2v-4.2c0-0.7-0.1-1.2-0.4-1.5
	c-0.3-0.3-0.7-0.5-1.2-0.5c-0.6,0-1.1,0.2-1.5,0.6c-0.4,0.4-0.5,0.9-0.5,1.6v4h-1.2v-7.1h1.2v1.1c0.3-0.4,0.6-0.8,1-1
	c0.4-0.2,0.8-0.3,1.3-0.3c0.8,0,1.4,0.3,1.9,0.8C545.7,131,545.9,131.7,545.9,132.7z M552.9,131v-3.8h1.2v9.9h-1.2v-1.1
	c-0.2,0.4-0.6,0.7-0.9,1c-0.4,0.2-0.8,0.3-1.3,0.3c-0.9,0-1.6-0.3-2.1-1c-0.5-0.7-0.8-1.6-0.8-2.7c0-1.1,0.3-2,0.8-2.7
	c0.5-0.7,1.2-1,2.1-1c0.5,0,1,0.1,1.3,0.3C552.3,130.2,552.7,130.5,552.9,131z M548.9,133.4c0,0.9,0.2,1.5,0.5,2
	c0.4,0.5,0.8,0.7,1.5,0.7c0.6,0,1.1-0.2,1.5-0.7c0.4-0.5,0.5-1.2,0.5-2c0-0.9-0.2-1.5-0.5-2c-0.4-0.5-0.8-0.7-1.5-0.7
	c-0.6,0-1.1,0.2-1.5,0.7C549.1,131.9,548.9,132.6,548.9,133.4z M560.9,133.4h-1.2c-0.9,0-1.6,0.1-2,0.3c-0.4,0.2-0.5,0.6-0.5,1.1
	c0,0.4,0.1,0.7,0.4,1c0.3,0.2,0.6,0.4,1.1,0.4c0.6,0,1.2-0.2,1.6-0.7c0.4-0.5,0.6-1.1,0.6-1.8V133.4z M562,132.9v4.1h-1.2v-1.1
	c-0.3,0.4-0.6,0.8-1,1c-0.4,0.2-0.9,0.3-1.5,0.3c-0.7,0-1.3-0.2-1.7-0.6c-0.4-0.4-0.6-1-0.6-1.6c0-0.8,0.3-1.4,0.8-1.8
	c0.5-0.4,1.3-0.6,2.4-0.6h1.6v-0.1c0-0.5-0.2-1-0.5-1.2c-0.4-0.3-0.9-0.4-1.5-0.4c-0.4,0-0.8,0.1-1.2,0.1c-0.4,0.1-0.8,0.2-1.1,0.4
	v-1.1c0.4-0.2,0.8-0.3,1.2-0.4c0.4-0.1,0.8-0.1,1.2-0.1c1,0,1.8,0.3,2.3,0.8C561.8,131.1,562,131.9,562,132.9z M570,131.3
	c0.3-0.5,0.6-0.9,1.1-1.2c0.4-0.2,0.9-0.4,1.4-0.4c0.7,0,1.3,0.3,1.7,0.8c0.4,0.5,0.6,1.2,0.6,2.2v4.3h-1.2v-4.2
	c0-0.7-0.1-1.2-0.4-1.5c-0.2-0.3-0.6-0.5-1.1-0.5c-0.6,0-1.1,0.2-1.4,0.6c-0.3,0.4-0.5,0.9-0.5,1.6v4H569v-4.2
	c0-0.7-0.1-1.2-0.4-1.5c-0.2-0.3-0.6-0.5-1.1-0.5c-0.6,0-1.1,0.2-1.4,0.6c-0.3,0.4-0.5,1-0.5,1.6v4h-1.2v-7.1h1.2v1.1
	c0.3-0.4,0.6-0.8,1-1c0.4-0.2,0.8-0.3,1.3-0.3c0.5,0,1,0.1,1.3,0.4C569.5,130.4,569.8,130.8,570,131.3z M581.5,133.4h-1.2
	c-0.9,0-1.6,0.1-2,0.3c-0.4,0.2-0.5,0.6-0.5,1.1c0,0.4,0.1,0.7,0.4,1c0.3,0.2,0.6,0.4,1.1,0.4c0.6,0,1.2-0.2,1.5-0.7
	c0.4-0.5,0.6-1.1,0.6-1.8V133.4z M582.7,132.9v4.1h-1.2v-1.1c-0.3,0.4-0.6,0.8-1,1c-0.4,0.2-0.9,0.3-1.5,0.3c-0.7,0-1.3-0.2-1.7-0.6
	c-0.4-0.4-0.7-1-0.7-1.6c0-0.8,0.3-1.4,0.8-1.8c0.5-0.4,1.3-0.6,2.4-0.6h1.6v-0.1c0-0.5-0.2-1-0.5-1.2c-0.4-0.3-0.8-0.4-1.5-0.4
	c-0.4,0-0.8,0.1-1.2,0.1c-0.4,0.1-0.8,0.2-1.1,0.4v-1.1c0.4-0.2,0.8-0.3,1.2-0.4c0.4-0.1,0.8-0.1,1.2-0.1c1,0,1.8,0.3,2.3,0.8
	C582.4,131.1,582.7,131.9,582.7,132.9z M591,132.7v4.3h-1.2v-4.2c0-0.7-0.1-1.2-0.4-1.5c-0.3-0.3-0.7-0.5-1.2-0.5
	c-0.6,0-1.1,0.2-1.5,0.6c-0.4,0.4-0.5,0.9-0.5,1.6v4H585v-7.1h1.2v1.1c0.3-0.4,0.6-0.8,1-1c0.4-0.2,0.8-0.3,1.3-0.3
	c0.8,0,1.4,0.3,1.9,0.8C590.8,131,591,131.7,591,132.7z"/>
<path id="South_Andaman_1_" d="M418.2,237.8v1.2c-0.5-0.2-0.9-0.4-1.4-0.5c-0.4-0.1-0.9-0.2-1.2-0.2c-0.7,0-1.2,0.1-1.6,0.4
	c-0.4,0.3-0.6,0.7-0.6,1.1c0,0.4,0.1,0.7,0.4,1c0.3,0.2,0.7,0.4,1.4,0.5l0.8,0.2c1,0.2,1.7,0.5,2.1,1c0.5,0.5,0.7,1.1,0.7,1.8
	c0,0.9-0.3,1.6-0.9,2.1c-0.6,0.5-1.5,0.7-2.7,0.7c-0.5,0-0.9,0-1.4-0.1c-0.5-0.1-1-0.2-1.6-0.4v-1.3c0.5,0.3,1,0.5,1.5,0.7
	s1,0.2,1.5,0.2c0.7,0,1.3-0.1,1.7-0.4c0.4-0.3,0.6-0.7,0.6-1.2c0-0.5-0.1-0.8-0.4-1.1c-0.3-0.3-0.8-0.5-1.4-0.6l-0.8-0.2
	c-1-0.2-1.6-0.5-2.1-0.9c-0.4-0.4-0.7-1-0.6-1.7c0-0.8,0.3-1.5,0.9-2c0.6-0.5,1.4-0.7,2.4-0.7c0.4,0,0.9,0,1.4,0.1
	C417.2,237.6,417.7,237.7,418.2,237.8z M423.5,240.7c-0.6,0-1.1,0.2-1.5,0.7c-0.4,0.5-0.5,1.2-0.5,2c0,0.9,0.2,1.5,0.5,2
	c0.4,0.5,0.9,0.7,1.5,0.7c0.6,0,1.1-0.2,1.5-0.7c0.4-0.5,0.5-1.2,0.5-2c0-0.8-0.2-1.5-0.5-2C424.6,241,424.1,240.7,423.5,240.7z
	 M423.5,239.7c1,0,1.8,0.3,2.4,1c0.6,0.7,0.9,1.6,0.9,2.7c0,1.2-0.3,2.1-0.9,2.7c-0.6,0.7-1.4,1-2.4,1c-1,0-1.8-0.3-2.4-1
	c-0.6-0.7-0.9-1.6-0.9-2.7c0-1.2,0.3-2.1,0.9-2.7C421.6,240.1,422.4,239.7,423.5,239.7z M428.5,244.2v-4.3h1.2v4.3
	c0,0.7,0.1,1.2,0.4,1.5c0.3,0.3,0.7,0.5,1.2,0.5c0.6,0,1.1-0.2,1.5-0.6c0.4-0.4,0.5-1,0.5-1.7v-4h1.2v7.1h-1.2v-1.1
	c-0.3,0.4-0.6,0.8-1,1c-0.4,0.2-0.8,0.3-1.3,0.3c-0.8,0-1.4-0.3-1.9-0.8C428.7,245.9,428.5,245.2,428.5,244.2z M431.5,239.7
	L431.5,239.7z M436.9,237.9h1.2v2h2.4v0.9H438v3.9c0,0.6,0.1,0.9,0.2,1.1c0.2,0.2,0.5,0.2,1,0.2h1.2v1h-1.2c-0.9,0-1.5-0.2-1.9-0.5
	c-0.3-0.3-0.5-1-0.5-1.8v-3.9H436v-0.9h0.9V237.9z M447.9,242.7v4.3h-1.2v-4.2c0-0.7-0.1-1.2-0.4-1.5c-0.3-0.3-0.7-0.5-1.2-0.5
	c-0.6,0-1.1,0.2-1.5,0.6c-0.4,0.4-0.6,0.9-0.6,1.6v4h-1.2v-9.9h1.2v3.9c0.3-0.4,0.6-0.8,1-1c0.4-0.2,0.8-0.3,1.3-0.3
	c0.8,0,1.4,0.3,1.9,0.8C447.7,241,447.9,241.7,447.9,242.7z M459.3,243.5l-1.8-4.7l-1.7,4.7H459.3z M453.2,247l3.6-9.5h1.4l3.6,9.5
	h-1.3l-0.9-2.4h-4.3l-0.9,2.4H453.2z M469.2,242.7v4.3H468v-4.2c0-0.7-0.1-1.2-0.4-1.5c-0.3-0.3-0.7-0.5-1.2-0.5
	c-0.6,0-1.1,0.2-1.5,0.6c-0.4,0.4-0.5,0.9-0.5,1.6v4h-1.2v-7.1h1.2v1.1c0.3-0.4,0.6-0.8,1-1c0.4-0.2,0.8-0.3,1.3-0.3
	c0.8,0,1.4,0.3,1.9,0.8C468.9,241,469.2,241.7,469.2,242.7z M476.2,241v-3.9h1.2v9.9h-1.2v-1.1c-0.2,0.4-0.6,0.7-0.9,1
	c-0.4,0.2-0.8,0.3-1.3,0.3c-0.9,0-1.6-0.3-2.1-1c-0.5-0.7-0.8-1.6-0.8-2.7c0-1.1,0.3-2,0.8-2.7c0.5-0.7,1.2-1,2.1-1
	c0.5,0,1,0.1,1.3,0.3C475.6,240.2,475.9,240.5,476.2,241z M472.2,243.4c0,0.9,0.2,1.5,0.5,2c0.4,0.5,0.8,0.7,1.5,0.7
	c0.6,0,1.1-0.2,1.5-0.7c0.4-0.5,0.5-1.2,0.5-2c0-0.9-0.2-1.5-0.5-2c-0.4-0.5-0.8-0.7-1.5-0.7c-0.6,0-1.1,0.2-1.5,0.7
	C472.4,241.9,472.2,242.6,472.2,243.4z M484.1,243.4H483c-0.9,0-1.6,0.1-2,0.3c-0.4,0.2-0.6,0.6-0.6,1.1c0,0.4,0.1,0.7,0.4,1
	c0.3,0.2,0.6,0.4,1.1,0.4c0.6,0,1.2-0.2,1.6-0.7c0.4-0.5,0.6-1.1,0.6-1.8V243.4z M485.3,242.9v4.1h-1.2v-1.1c-0.3,0.4-0.6,0.8-1,1
	c-0.4,0.2-0.9,0.3-1.5,0.3c-0.7,0-1.3-0.2-1.7-0.6c-0.4-0.4-0.6-1-0.6-1.6c0-0.8,0.3-1.4,0.8-1.8c0.5-0.4,1.3-0.6,2.4-0.6h1.6v-0.1
	c0-0.5-0.2-1-0.5-1.2s-0.9-0.4-1.5-0.4c-0.4,0-0.8,0.1-1.2,0.1c-0.4,0.1-0.8,0.2-1.1,0.4v-1.1c0.4-0.2,0.8-0.3,1.2-0.4
	c0.4-0.1,0.8-0.1,1.2-0.1c1,0,1.8,0.3,2.3,0.8C485,241.1,485.3,241.9,485.3,242.9z M493.2,241.3c0.3-0.5,0.6-0.9,1.1-1.2
	c0.4-0.2,0.9-0.4,1.4-0.4c0.7,0,1.3,0.3,1.7,0.8c0.4,0.5,0.6,1.2,0.6,2.2v4.3h-1.2v-4.2c0-0.7-0.1-1.2-0.4-1.5
	c-0.2-0.3-0.6-0.5-1.1-0.5c-0.6,0-1.1,0.2-1.4,0.6c-0.4,0.4-0.5,0.9-0.5,1.6v4h-1.2v-4.2c0-0.7-0.1-1.2-0.4-1.5
	c-0.2-0.3-0.6-0.5-1.1-0.5c-0.6,0-1.1,0.2-1.4,0.6c-0.3,0.4-0.5,1-0.5,1.6v4h-1.2v-7.1h1.2v1.1c0.3-0.4,0.6-0.8,1-1
	c0.4-0.2,0.8-0.3,1.3-0.3c0.5,0,1,0.1,1.3,0.4C492.8,240.4,493.1,240.8,493.2,241.3z M504.8,243.4h-1.2c-0.9,0-1.6,0.1-2,0.3
	s-0.6,0.6-0.6,1.1c0,0.4,0.1,0.7,0.4,1c0.3,0.2,0.6,0.4,1.1,0.4c0.6,0,1.2-0.2,1.6-0.7c0.4-0.5,0.6-1.1,0.6-1.8V243.4z M505.9,242.9
	v4.1h-1.2v-1.1c-0.3,0.4-0.6,0.8-1,1c-0.4,0.2-0.9,0.3-1.5,0.3c-0.7,0-1.3-0.2-1.7-0.6c-0.4-0.4-0.6-1-0.6-1.6
	c0-0.8,0.3-1.4,0.8-1.8c0.5-0.4,1.3-0.6,2.4-0.6h1.6v-0.1c0-0.5-0.2-1-0.5-1.2s-0.9-0.4-1.5-0.4c-0.4,0-0.8,0.1-1.2,0.1
	c-0.4,0.1-0.8,0.2-1.1,0.4v-1.1c0.4-0.2,0.8-0.3,1.2-0.4c0.4-0.1,0.8-0.1,1.2-0.1c1,0,1.8,0.3,2.3,0.8
	C505.7,241.1,505.9,241.9,505.9,242.9z M514.2,242.7v4.3h-1.2v-4.2c0-0.7-0.1-1.2-0.4-1.5c-0.3-0.3-0.7-0.5-1.2-0.5
	c-0.6,0-1.1,0.2-1.5,0.6c-0.4,0.4-0.5,0.9-0.5,1.6v4h-1.2v-7.1h1.2v1.1c0.3-0.4,0.6-0.8,1-1c0.4-0.2,0.8-0.3,1.3-0.3
	c0.8,0,1.4,0.3,1.9,0.8C514,241,514.2,241.7,514.2,242.7z"/>
<path id="Created_with_paintmaps.com" d="M647.2,512.2c-0.8,0-1.5,0.3-2,0.8c-0.5,0.5-0.7,1.3-0.7,2.2c0,0.9,0.2,1.7,0.7,2.2
	c0.5,0.6,1.1,0.8,2,0.8c1.1,0,1.9-0.5,2.4-1.6l0.8,0.4c-0.3,0.7-0.7,1.2-1.3,1.5c-0.6,0.3-1.2,0.5-2,0.5c-0.8,0-1.4-0.2-2-0.5
	c-0.6-0.3-1-0.8-1.3-1.3c-0.3-0.6-0.4-1.3-0.4-2.1c0-1.2,0.3-2.2,1-2.8c0.6-0.7,1.5-1,2.7-1c0.8,0,1.5,0.2,2,0.5s0.9,0.8,1.2,1.4
	l-1,0.3c-0.2-0.4-0.5-0.8-0.8-1C648.2,512.3,647.8,512.2,647.2,512.2z M652.7,519h-1v-4.5c0-0.4,0-0.9,0-1.3h0.9c0,0.7,0,1.1,0,1.2
	h0c0.2-0.5,0.3-0.8,0.5-1c0.2-0.2,0.5-0.3,0.9-0.3c0.1,0,0.3,0,0.4,0v0.9c-0.1,0-0.3-0.1-0.5-0.1c-0.4,0-0.7,0.2-0.9,0.5
	c-0.2,0.3-0.3,0.8-0.3,1.5V519z M660.2,516.3h-4.1c0,0.7,0.1,1.2,0.4,1.5c0.3,0.4,0.7,0.5,1.2,0.5c0.4,0,0.8-0.1,1-0.2
	c0.3-0.2,0.4-0.4,0.5-0.6l0.9,0.2c-0.3,0.9-1.1,1.4-2.4,1.4c-0.9,0-1.5-0.3-2-0.8c-0.5-0.5-0.7-1.3-0.7-2.3c0-1,0.2-1.7,0.7-2.2
	c0.4-0.5,1.1-0.8,1.9-0.8c1.7,0,2.6,1,2.6,3.1V516.3z M656.1,515.6h3.1c-0.1-0.6-0.2-1.1-0.5-1.3c-0.3-0.3-0.6-0.4-1.1-0.4
	c-0.5,0-0.8,0.2-1.1,0.5C656.3,514.6,656.1,515,656.1,515.6z M663,519.1c-0.6,0-1-0.2-1.3-0.5c-0.3-0.3-0.4-0.7-0.4-1.3
	c0-0.6,0.2-1.1,0.6-1.4c0.4-0.3,1-0.5,1.9-0.5l1.3,0v-0.3c0-0.5-0.1-0.8-0.3-1c-0.2-0.2-0.5-0.3-0.9-0.3c-0.4,0-0.8,0.1-1,0.2
	c-0.2,0.1-0.3,0.4-0.3,0.7l-1-0.1c0.2-1,0.9-1.6,2.3-1.6c0.7,0,1.3,0.2,1.6,0.5c0.4,0.3,0.5,0.8,0.5,1.4v2.5c0,0.3,0,0.5,0.1,0.7
	c0.1,0.1,0.2,0.2,0.4,0.2c0.1,0,0.2,0,0.3,0v0.6c-0.2,0.1-0.5,0.1-0.7,0.1c-0.4,0-0.6-0.1-0.8-0.3c-0.2-0.2-0.2-0.5-0.3-0.9h0
	c-0.3,0.4-0.5,0.8-0.9,0.9C663.8,519,663.4,519.1,663,519.1z M663.2,518.4c0.4,0,0.7-0.1,0.9-0.2c0.3-0.2,0.5-0.4,0.7-0.7
	c0.2-0.3,0.2-0.6,0.2-0.9v-0.5l-1.1,0c-0.5,0-0.8,0.1-1,0.1c-0.2,0.1-0.4,0.2-0.5,0.4c-0.1,0.2-0.2,0.4-0.2,0.7
	c0,0.3,0.1,0.6,0.2,0.7C662.6,518.3,662.9,518.4,663.2,518.4z M669.8,518.2v0.7c-0.3,0.1-0.6,0.1-1,0.1c-0.8,0-1.2-0.4-1.2-1.3v-3.9
	H667v-0.7h0.7l0.3-1.3h0.7v1.3h1.1v0.7h-1.1v3.7c0,0.3,0,0.5,0.1,0.6c0.1,0.1,0.3,0.2,0.5,0.2C669.4,518.3,669.6,518.3,669.8,518.2z
	 M675.5,516.3h-4.2c0,0.7,0.1,1.2,0.4,1.5c0.3,0.4,0.7,0.5,1.2,0.5c0.4,0,0.8-0.1,1-0.2s0.4-0.4,0.5-0.6l0.8,0.2
	c-0.3,0.9-1.1,1.4-2.4,1.4c-0.9,0-1.5-0.3-2-0.8c-0.4-0.5-0.7-1.3-0.7-2.3c0-1,0.2-1.7,0.7-2.2c0.4-0.5,1.1-0.8,1.9-0.8
	c1.7,0,2.6,1,2.6,3.1V516.3z M671.4,515.6h3.1c-0.1-0.6-0.2-1.1-0.5-1.3c-0.3-0.3-0.6-0.4-1.1-0.4c-0.5,0-0.8,0.2-1.1,0.5
	C671.6,514.6,671.4,515,671.4,515.6z M680.5,518.1L680.5,518.1c-0.2,0.4-0.4,0.6-0.7,0.8c-0.3,0.2-0.7,0.2-1.1,0.2
	c-0.7,0-1.3-0.2-1.6-0.7c-0.3-0.5-0.5-1.2-0.5-2.2c0-2,0.7-3,2.1-3c0.4,0,0.8,0.1,1.1,0.2c0.3,0.2,0.5,0.4,0.7,0.8h0l0-0.7V511h1
	v6.8c0,0.6,0,1,0,1.2h-0.9c0-0.1,0-0.2,0-0.4C680.5,518.4,680.5,518.2,680.5,518.1z M677.5,516.1c0,0.8,0.1,1.4,0.3,1.7
	c0.2,0.4,0.6,0.5,1,0.5c0.5,0,0.9-0.2,1.2-0.6c0.2-0.4,0.4-1,0.4-1.8c0-0.8-0.1-1.3-0.4-1.7c-0.3-0.4-0.7-0.5-1.2-0.5
	c-0.5,0-0.8,0.2-1,0.5C677.6,514.7,677.5,515.3,677.5,516.1z M693.2,513.2l-1.7,5.8h-1.1l-1-4.1l-0.2-0.9c0,0.2-0.1,0.4-0.1,0.7
	c-0.1,0.3-0.4,1.7-1.1,4.3h-1.1l-1.6-5.8h1l1,4c0,0.1,0.1,0.4,0.2,1.1l0.1-0.4l1.2-4.6h1l1,4l0.2,1l0.2-0.8l1.1-4.3H693.2z
	 M694.8,512h-1V511h1V512z M694.8,519h-1v-5.8h1V519z M698.5,518.2v0.7c-0.3,0.1-0.6,0.1-1,0.1c-0.8,0-1.2-0.4-1.2-1.3v-3.9h-0.7
	v-0.7h0.7l0.3-1.3h0.6v1.3h1.1v0.7h-1.1v3.7c0,0.3,0,0.5,0.1,0.6c0.1,0.1,0.2,0.2,0.5,0.2C698.1,518.3,698.3,518.3,698.5,518.2z
	 M700.3,514.2L700.3,514.2c0.2-0.4,0.5-0.7,0.8-0.8c0.3-0.2,0.7-0.3,1.1-0.3c0.6,0,1.1,0.2,1.4,0.5c0.3,0.3,0.4,0.8,0.4,1.6v3.9h-1
	v-3.7c0-0.4,0-0.7-0.1-0.9c-0.1-0.2-0.2-0.3-0.4-0.4s-0.4-0.1-0.7-0.1c-0.5,0-0.8,0.2-1.1,0.5c-0.3,0.3-0.4,0.7-0.4,1.3v3.4h-1v-8h1
	v2.1c0,0.2,0,0.4,0,0.7C700.3,514,700.3,514.1,700.3,514.2z M713.5,516.1c0,2-0.7,3-2.1,3c-0.9,0-1.5-0.3-1.8-1h0c0,0,0,0.3,0,0.9
	v2.3h-1v-6.9c0-0.6,0-1,0-1.2h0.9c0,0,0,0.1,0,0.2c0,0.1,0,0.2,0,0.4c0,0.2,0,0.3,0,0.4h0c0.2-0.4,0.4-0.6,0.7-0.8
	c0.3-0.2,0.7-0.2,1.1-0.2c0.7,0,1.2,0.2,1.6,0.7C713.3,514.3,713.5,515,713.5,516.1z M712.5,516.1c0-0.8-0.1-1.4-0.3-1.7
	c-0.2-0.3-0.6-0.5-1-0.5c-0.4,0-0.7,0.1-0.9,0.2c-0.2,0.2-0.4,0.4-0.5,0.8c-0.1,0.3-0.2,0.8-0.2,1.3c0,0.8,0.1,1.3,0.4,1.7
	c0.2,0.4,0.6,0.5,1.2,0.5c0.5,0,0.8-0.2,1-0.5C712.3,517.5,712.5,516.9,712.5,516.1z M716.2,519.1c-0.6,0-1-0.2-1.3-0.5
	c-0.3-0.3-0.4-0.7-0.4-1.3c0-0.6,0.2-1.1,0.6-1.4c0.4-0.3,1-0.5,1.9-0.5l1.3,0v-0.3c0-0.5-0.1-0.8-0.3-1c-0.2-0.2-0.5-0.3-0.9-0.3
	c-0.4,0-0.8,0.1-1,0.2c-0.2,0.1-0.3,0.4-0.4,0.7l-1-0.1c0.2-1,0.9-1.6,2.3-1.6c0.7,0,1.3,0.2,1.7,0.5c0.4,0.3,0.5,0.8,0.5,1.4v2.5
	c0,0.3,0,0.5,0.1,0.7c0.1,0.1,0.2,0.2,0.4,0.2c0.1,0,0.2,0,0.3,0v0.6c-0.2,0.1-0.5,0.1-0.7,0.1c-0.4,0-0.6-0.1-0.8-0.3
	c-0.2-0.2-0.2-0.5-0.3-0.9h0c-0.2,0.4-0.5,0.8-0.9,0.9C717,519,716.6,519.1,716.2,519.1z M716.4,518.4c0.4,0,0.7-0.1,0.9-0.2
	c0.3-0.2,0.5-0.4,0.7-0.7c0.2-0.3,0.2-0.6,0.2-0.9v-0.5l-1.1,0c-0.5,0-0.8,0.1-1,0.1c-0.2,0.1-0.4,0.2-0.5,0.4
	c-0.1,0.2-0.2,0.4-0.2,0.7c0,0.3,0.1,0.6,0.2,0.7C715.8,518.3,716.1,518.4,716.4,518.4z M721.8,512h-1V511h1V512z M721.8,519h-1
	v-5.8h1V519z M727.9,519h-1v-3.7c0-0.4,0-0.7-0.1-0.9c-0.1-0.2-0.2-0.4-0.4-0.5c-0.2-0.1-0.4-0.1-0.7-0.1c-0.5,0-0.8,0.2-1.1,0.5
	c-0.3,0.3-0.4,0.8-0.4,1.3v3.4h-1v-4.6c0-0.7,0-1.1,0-1.2h0.9c0,0,0,0.1,0,0.1c0,0.1,0,0.2,0,0.3c0,0.1,0,0.3,0,0.6h0
	c0.2-0.4,0.5-0.7,0.8-0.8c0.3-0.2,0.7-0.2,1.1-0.2c0.6,0,1.1,0.2,1.4,0.5c0.3,0.3,0.4,0.8,0.5,1.6V519z M731.6,518.2v0.7
	c-0.3,0.1-0.6,0.1-1,0.1c-0.8,0-1.2-0.4-1.2-1.3v-3.9h-0.7v-0.7h0.7l0.3-1.3h0.6v1.3h1.1v0.7h-1.1v3.7c0,0.3,0,0.5,0.1,0.6
	c0.1,0.1,0.3,0.2,0.5,0.2C731.1,518.3,731.3,518.3,731.6,518.2z M736.7,519h-1v-3.7c0-0.6-0.1-1-0.2-1.2c-0.2-0.2-0.4-0.3-0.8-0.3
	c-0.4,0-0.7,0.2-1,0.5s-0.4,0.8-0.4,1.3v3.4h-1v-4.6c0-0.7,0-1.1,0-1.2h0.9c0,0,0,0.1,0,0.1c0,0.1,0,0.2,0,0.3c0,0.1,0,0.3,0,0.6h0
	c0.2-0.4,0.4-0.7,0.7-0.9c0.3-0.2,0.6-0.2,1-0.2c0.4,0,0.8,0.1,1,0.3c0.3,0.2,0.4,0.5,0.5,0.8h0c0.2-0.4,0.4-0.7,0.7-0.8
	c0.3-0.2,0.6-0.3,1-0.3c0.6,0,1,0.2,1.3,0.5c0.3,0.3,0.4,0.8,0.4,1.6v3.9h-1v-3.7c0-0.6-0.1-1-0.2-1.2s-0.4-0.3-0.8-0.3
	c-0.4,0-0.8,0.2-1,0.5c-0.2,0.3-0.4,0.8-0.4,1.3V519z M743,519.1c-0.6,0-1-0.2-1.3-0.5c-0.3-0.3-0.4-0.7-0.4-1.3
	c0-0.6,0.2-1.1,0.6-1.4c0.4-0.3,1-0.5,1.9-0.5l1.3,0v-0.3c0-0.5-0.1-0.8-0.3-1c-0.2-0.2-0.5-0.3-0.9-0.3c-0.4,0-0.7,0.1-1,0.2
	c-0.2,0.1-0.3,0.4-0.3,0.7l-1-0.1c0.2-1,0.9-1.6,2.3-1.6c0.7,0,1.3,0.2,1.7,0.5c0.4,0.3,0.5,0.8,0.5,1.4v2.5c0,0.3,0,0.5,0.1,0.7
	c0.1,0.1,0.2,0.2,0.4,0.2c0.1,0,0.2,0,0.3,0v0.6c-0.2,0.1-0.5,0.1-0.8,0.1c-0.4,0-0.6-0.1-0.8-0.3c-0.2-0.2-0.2-0.5-0.3-0.9h0
	c-0.2,0.4-0.5,0.8-0.9,0.9C743.9,519,743.5,519.1,743,519.1z M743.3,518.4c0.4,0,0.7-0.1,0.9-0.2c0.3-0.2,0.5-0.4,0.6-0.7
	c0.2-0.3,0.2-0.6,0.2-0.9v-0.5l-1,0c-0.5,0-0.8,0.1-1,0.1s-0.4,0.2-0.5,0.4c-0.1,0.2-0.2,0.4-0.2,0.7c0,0.3,0.1,0.6,0.3,0.7
	C742.7,518.3,743,518.4,743.3,518.4z M752.6,516.1c0,2-0.7,3-2.1,3c-0.9,0-1.5-0.3-1.8-1h0c0,0,0,0.3,0,0.9v2.3h-1v-6.9
	c0-0.6,0-1,0-1.2h0.9c0,0,0,0.1,0,0.2s0,0.2,0,0.4c0,0.2,0,0.3,0,0.4h0c0.2-0.4,0.4-0.6,0.7-0.8c0.3-0.2,0.7-0.2,1.1-0.2
	c0.7,0,1.2,0.2,1.6,0.7C752.4,514.3,752.6,515,752.6,516.1z M751.6,516.1c0-0.8-0.1-1.4-0.3-1.7c-0.2-0.3-0.6-0.5-1-0.5
	c-0.4,0-0.7,0.1-0.9,0.2c-0.2,0.2-0.4,0.4-0.5,0.8c-0.1,0.3-0.2,0.8-0.2,1.3c0,0.8,0.1,1.3,0.4,1.7c0.2,0.4,0.6,0.5,1.2,0.5
	c0.5,0,0.8-0.2,1-0.5C751.5,517.5,751.6,516.9,751.6,516.1z M758.2,517.4c0,0.6-0.2,1-0.6,1.3c-0.4,0.3-1,0.5-1.7,0.5
	c-0.7,0-1.3-0.1-1.7-0.4c-0.4-0.2-0.6-0.6-0.8-1.1l0.8-0.2c0.1,0.3,0.3,0.5,0.5,0.7c0.3,0.1,0.6,0.2,1.1,0.2c0.5,0,0.9-0.1,1.1-0.2
	c0.2-0.2,0.3-0.4,0.3-0.7c0-0.2-0.1-0.4-0.2-0.6c-0.2-0.1-0.4-0.3-0.8-0.3l-0.7-0.2c-0.6-0.1-1-0.3-1.2-0.4
	c-0.2-0.1-0.4-0.3-0.6-0.5c-0.1-0.2-0.2-0.4-0.2-0.7c0-0.5,0.2-0.9,0.6-1.2c0.4-0.3,0.9-0.4,1.7-0.4c0.6,0,1.2,0.1,1.5,0.3
	c0.4,0.2,0.6,0.6,0.7,1.1l-0.9,0.1c-0.1-0.3-0.2-0.5-0.4-0.6c-0.2-0.1-0.5-0.2-0.9-0.2c-0.4,0-0.8,0.1-1,0.2
	c-0.2,0.1-0.3,0.3-0.3,0.6c0,0.2,0,0.3,0.1,0.4c0.1,0.1,0.2,0.2,0.4,0.3c0.2,0.1,0.5,0.2,1.1,0.3c0.5,0.1,0.9,0.2,1.1,0.4
	c0.2,0.1,0.4,0.2,0.5,0.4s0.2,0.3,0.3,0.5C758.1,517,758.2,517.2,758.2,517.4z M760.6,519h-1v-1.2h1V519z M763.1,516.1
	c0,0.8,0.1,1.3,0.4,1.7c0.2,0.4,0.6,0.6,1.1,0.6c0.3,0,0.6-0.1,0.9-0.3c0.2-0.2,0.4-0.5,0.4-0.9l1,0.1c-0.1,0.6-0.3,1-0.7,1.3
	s-0.9,0.5-1.5,0.5c-0.8,0-1.4-0.3-1.9-0.8c-0.4-0.5-0.6-1.3-0.6-2.2c0-1,0.2-1.7,0.6-2.2c0.4-0.5,1-0.8,1.8-0.8
	c0.6,0,1.1,0.2,1.5,0.5c0.4,0.3,0.6,0.7,0.7,1.3l-1,0.1c-0.1-0.3-0.2-0.6-0.4-0.8c-0.2-0.2-0.5-0.3-0.9-0.3c-0.5,0-0.9,0.2-1.1,0.5
	C763.2,514.7,763.1,515.3,763.1,516.1z M772.8,516.1c0,1-0.2,1.8-0.7,2.3c-0.4,0.5-1.1,0.8-1.9,0.8c-0.8,0-1.5-0.3-1.9-0.8
	c-0.4-0.5-0.6-1.3-0.6-2.2c0-2,0.9-3,2.6-3c0.9,0,1.5,0.2,2,0.7C772.6,514.3,772.8,515.1,772.8,516.1z M771.8,516.1
	c0-0.8-0.1-1.4-0.4-1.8c-0.2-0.4-0.6-0.5-1.2-0.5c-0.6,0-1,0.2-1.2,0.5c-0.3,0.4-0.4,1-0.4,1.7c0,0.8,0.1,1.3,0.4,1.7
	c0.3,0.4,0.6,0.6,1.2,0.6c0.6,0,1-0.2,1.2-0.6C771.6,517.5,771.8,516.9,771.8,516.1z M778.3,519h-1v-3.7c0-0.6-0.1-1-0.2-1.2
	c-0.2-0.2-0.4-0.3-0.8-0.3c-0.4,0-0.7,0.2-1,0.5s-0.4,0.8-0.4,1.3v3.4h-1v-4.6c0-0.7,0-1.1,0-1.2h0.9c0,0,0,0.1,0,0.1
	c0,0.1,0,0.2,0,0.3c0,0.1,0,0.3,0,0.6h0c0.2-0.4,0.4-0.7,0.7-0.9c0.3-0.2,0.6-0.2,1-0.2c0.4,0,0.8,0.1,1,0.3
	c0.3,0.2,0.4,0.5,0.5,0.8h0c0.2-0.4,0.4-0.7,0.7-0.8c0.3-0.2,0.6-0.3,1-0.3c0.6,0,1,0.2,1.3,0.5c0.3,0.3,0.4,0.8,0.4,1.6v3.9h-1
	v-3.7c0-0.6-0.1-1-0.2-1.2s-0.4-0.3-0.8-0.3c-0.4,0-0.8,0.2-1,0.5c-0.2,0.3-0.3,0.8-0.3,1.3V519z"/>
</svg>
