<?xml version="1.0" encoding="utf-8"?>
<!-- Generator: Adobe Illustrator 25.1.0, SVG Export Plug-In . SVG Version: 6.00 Build 0)  -->
<svg version="1.1" id="Layer_1" xmlns="http://www.w3.org/2000/svg" xmlns:xlink="http://www.w3.org/1999/xlink" x="0px"
	y="0px" viewBox="0 0 800 534" style="enable-background:new 0 0 800 534;" xml:space="preserve">
	<style type="text/css">
		.st0 {
			stroke: #000000;
			stroke-width: 0.4;
		}

		.st1 {
			fill: none;
		}

		.st2 {
			fill-rule: evenodd;
			clip-rule: evenodd;
		}
	</style>
	<path id="Anantapur" class="st0" d="M223.5,316.1l0.2-0.5l1,0.2l0.3-0.8l0.5-0.2l0.8,0.3l0.4,0.4l0.8,0.3l1.3,0.1l0.3,0.8l1.1,0
	l0.4-1.4l0.4,0l0.5-1.4l1.5,0l0.1-1.1l0.6-1.8l1,0.3l0.9-0.1l0.2-0.3l1.1,0.2l0.2,0.7l0.8,0.2l0-1l1.5,0.8l1-0.8l1.1-0.2l0.8,0.9
	l1.4,0.7l0.5,0.7l0.7,0.4l0.8,0l0.2-1.5l0.9-0.1l0.2-1l1.1-0.7l0.7,0.2l0.1,0.7l1,1.3l-0.2,1.1l0.8-0.1l0.4,0.9l0.5,0.1l0.1,1.3
	l0.7,0.4l0.2,1l1.1,0.4l-0.1,0.7l1,0.5l0.3-0.7l0.7-0.7l0.2-1l1.1-0.1l0.1,0.8l1.6-0.2l0.2-0.6l0.4-2.1l0.8-0.1l0.9,0.4l0.2,1.3
	l1.1-0.3l1,0l0,1.1l1.4,0.2l1.3,1.4l0,1.3l-0.5,1.2l-1,0.5l0,1.2l0.3,0.4l0.7-0.9l0.2,0.5l0.1,1.6l1.3,1.7l0.8,0.3l1.4,0.9l0.6,0.8
	l1.1,0.2l0.8,0.6l0.1,0.7l-0.4,0.6l-0.9,0.6l-0.9,3.6l0,0.8l0.9,0.3l-0.3,2l-0.3,0.4l-0.9-0.4l-0.4,1l-1.1,2.2l1,1.2l0.4,0.2
	l-0.1,0.9l-0.5,1.3l0.8,0l0.6,0.3l0.2,0.9l0.5,0.6l0.7-0.2l0.5,0.2l0.2,0.6l-0.3,1.4l0,1.1l-0.5,1.4l-0.8-0.3l-0.7,0.3l-0.9,3
	l-1.1,1l-0.1,1l-0.3,0.6l-1.2-0.2l-1.7,0l-0.1-1.3l-1-1.2l-0.8,0.8l0.7,0.7l0.8,1.3l-0.1,0.7l1,1.5l1.3,1.4l0.7,1.1l0.7,0.5l2.9,3.1
	l2,2.3l2,1.2l1.2,0.9l0.9,1.3l0.5,0.5l2,0.7l0.5,0.4l1.7,0.6l1.6,0.1l3,0.5l-0.6,2.8l-0.2,1.9l0.2,0.3l0.9,0.3l-0.4,2.1l0.4,1.2
	l1,0.8l0.6,1.5l-0.1,1.1l-0.7,1l0.3,0.9l-0.3,1.2l-0.1,1.7l0.4,0.4l1,0.4l-0.3,1.1l-0.4,0.5l-1.4,0.6l-0.5,1l-0.9,0.7l-0.6,0.8
	l-0.6-0.1l-0.2-0.8l-1.1,1.2l-0.5,0l-0.3,1.1l-0.9,0.3l-0.7,0.8l-0.3,0.8l-0.8,0l-0.6,2.1l-1,0.5l0.4,1.2l0.1,1.7l0.3,0.6l-1,0.9
	l-0.6,0.2l-1.1-0.1l-0.9-0.3l-2.2,0.4l-0.9-0.2l-0.5-1.7l0.5-1.2l-0.2-1.2l-0.4-0.8l-1.5-0.1l-0.2-1.1l-1.5-1l0.1,1.5l-0.2,0.7
	l-1.1-0.1l-0.5-0.5h-1l-0.2,0.8l-0.8,1.9l-0.9-0.3l-0.3-3l0.4-0.9l1.1-0.3l0.3-0.3l-0.2-2l0.2-1.5l-0.9-0.1l-0.5,1.4l-0.6,0.2
	l-0.4,1l-0.9,0.8l-1.1-0.9l-0.1-1.3l-1.2,0.3l-1.6,0l-0.8-0.2l-0.4,0.9l0.2,1.5l0.5,0.4l0.3,1.9l-0.8,0.6l-0.4,0.8l-0.8,0l-0.6,0.5
	l0.3,0.8l-0.5,0.8l-2,0.4l-0.8,0.7l0.1,1.9l-0.2,1.5l-0.4,0.4l-0.3-2l-1.3,0.6l0.1-1.6l-1,0.1l-1.7,1l-0.1,0.9l1,0.4l0.1,0.4l-1,0.5
	l-0.6-0.9l-0.4-0.1l-0.7,0.8l-0.7,0.1l-0.5,0.9l-0.4-0.3l-0.4-1.5l-1,0l-0.2,0.5l0.6,0.8l0.1,1.2l-0.3,1.3l-0.7-0.1l-0.3-1l-0.8-0.2
	l-0.4,0.2l0.3,1.1l-0.4,0.6l-1.3,0.1l-0.2-1.3l0.6-1.1l0.3-2l-0.2-0.4l-0.4-2.3l0.2-0.9l-0.7-0.2l-0.6,0.9l-0.6-0.2l-0.4-0.6
	l0.2-0.8l0.6-1l0-0.5l-1,0.2h-1.5l0-0.5l-0.7-0.5l-0.4,0.1l-1.2,1.3l-0.4-0.1l-0.6-2.1l-1,0.7l-1.7,0.4l0.1-1.1l-0.5-0.3l-0.2-1.4
	l0.1-0.8l-0.7-0.1l-0.4,1.7l-0.4-0.6l-0.8,1.5l-0.9-0.3l0.3-2.6l-0.2-1l-0.9,0.6l-0.2,0.6l0.4,2.2l-0.1,0.6l-1.1-0.1l-0.7,1l1,0.5
	l0.6,0.6l0.2,0.7l-0.4,1l0.2,0.9l0.6,1l-0.2,1.1l-1.4-0.1l-0.7,0.3l-1.4-0.6l-0.7,0.5l0,1l-1-0.1l-1.2-2l-0.8,0l-0.4,2.4l-0.9-0.6
	l-0.6-2.8l0.1-1.2l-0.7-0.4l0.1-0.6l0.6-0.6l1.1-1.5l0.6-2.8l1.2-0.3l-0.3-1.8l-0.9-0.6l-0.5-0.8l-0.9-0.6l0.3-1.6l-0.9-1l-1.3-0.7
	l-0.4-0.9l-0.5-0.1l0.3-1.6l1.6-0.3l0.2-0.8l-0.3-0.9l-0.8-0.4l-0.4-1.7l-1-1.1l-0.5,0.4l-1.4-0.6l0.4-1.8l0.3-0.2l1,0.3l1-0.5
	l0.2-1.5l0.8,0.9l1.4,0.2l1-0.2l0.7,0.1l-0.3,3l0.1,1.4l-0.3,0.9l0.7,0.6L217,386l0.2,0.5l2.2,0.4l0,0.5l1,0.1l1.5-0.2l0.3,1.5
	l0.3,0.6l0,0.8l1,0.5l0.8-1.2l1.1,0.4l1.2-0.3l1.2,0.1l0.6-1l0.8-0.5l0.3,1.4l0.7-0.5l0.6-0.8l0.5,0.1l1,2.4l1,0.4l-0.5,2.1l0.9,0.6
	l-1,2l0.3,1l2.1-0.1l0.3,1.1l1.1-0.9l0.4-0.9l-0.8-0.4l-0.1-1.4l1-0.5l0.1-1.7l-0.5-0.5l-1.7,0.2l-0.5,0.3l-0.1-0.8l0.5-1.7l-1-0.6
	l-0.6,0l-1.2-0.4l0.6-2l0.6,0l0.6-0.8l0.5-0.4l0.4-1.2l0.8-0.9l-0.3-1l-1.8,0.9l-0.2-1.2l1.4-0.4l0.3-1.2l0.3-0.4l0-0.8l1-0.3
	l0.7,0.3l1.9,0l1.2,0.7l0.6,0.1l0.5-1.4l-0.3-0.6l-0.2-1.6l-0.5-1.5l0.3-0.8l0.1-1.3l-0.1-0.7l-0.6-0.2l-0.2-0.5l-1.2,0.8l-0.5-0.4
	l-0.1-2.1l-0.7,0.3l-0.1-1l-1.5-0.5l-0.8,0.8l-0.2,1.4l0.7,2.2l0.5,0.1l0.4,2.4l0.3,0.4l0,0.9l-1.2,0.8l-0.4-0.1l-0.4-1.6l-1-0.9
	l0.2-0.9v-1.7l-3.1-0.5l-0.8,0l0.2-1.7l-0.1-1.9l-1.1,0.4l-0.6,0.7l-0.6,0.2l-0.4-0.3l-1.3,0.1l-0.8-0.8l-1.3-0.7l-1,0.5l-0.1,1.1
	l-0.2,0.8l-0.7,0.9l-0.2,1.7l0.4,0.3l-0.3,2.3l-0.7,0.8l-1,0l-0.7-1l-0.5-1l-0.8-0.1l-1.4,0.6l-1.1-0.4l-1.5,0.3l-0.7-0.4l-0.6-1.6
	l-0.1-0.5l0.9-0.6l0.3-0.8l-0.3-0.7l-1-0.3l-1.2-0.6l-1-2.1l0.2-2.5l0.7-0.3l0.8-1.2l1.4,0.9l0.2-0.6l0-2.4l0.7,0l0.8-1.6l0-0.5
	l-1.4-0.2l-1.9-0.1l-0.6,0.2l-0.7,0.7l-0.8-0.3l-0.5-1.6l-0.5-0.7l-2.2-1.2l-0.7-1.7l-0.4-1.7l-0.8-1.1l0.5-5.1l0.5-1.1l0.2-1.1
	l0.6-1.8l-0.5-1.1l-0.4-1.8l1.5-0.1l0.8-0.4l0.4,0.1l0.2-1.3l0.5,0.1l-0.3-1.8l0.5-0.6l0.1-1.6l-0.3-1.8l0.7-0.1l0.3-3l0-1.7
	l-1.2,0.2l-0.6,0.7l-0.6-0.8l-0.9,0.1l-1.6-0.5l-0.3-0.9l0.6-1.1l0.5-0.4l0.2-0.7l-0.2-1.1l-0.5-1.3l0.1-0.7l1.2-1.7l1.2,1l0.8,0.2
	l1.1,1l0.8,1.8l0.6-0.2l1.2,0.1l1.8,0.4l0.8,0.7l0.7,0.2l0.1-0.6l0.8-0.6l1.1,0.1l1.2-0.1l0.1,0.4l-0.4,1.2l1.8,0.4l0.2-1.5l0.4-0.4
	l0.9-0.1l0.3-0.8l0.5-1.8l0.1-1.7l1-0.9l0.3-0.9L223.5,316.1z" />
	<path id="Chittoor" class="st0" d="M270.7,404.5l0.9,0.2l2.2-0.4l0.9,0.3l1.1,0.1l0.6-0.2l1-0.9l-0.3-0.6l-0.1-1.7l-0.4-1.2l1-0.5
	l0.6-2.1l0.8,0l0.3-0.8l0.7-0.8l0.9-0.3l0.3-1.1l0.5,0l1.1-1.2l0.2,0.8l0.6,0.1l0.6-0.8l0.9-0.7l0.5-1l1.4-0.6l0.4-0.5l0.4,0.8
	l-0.2,0.9l0.2,1l0.9,0.9l0.4-0.4l0.4-1l0.7-0.8l0.9-0.8l0.2-0.4l1,0.1l0.9,0.4l-0.6,1.3l0.9,0.4l0.4-0.1l-0.4,2l-0.1,1.1l1,0
	l1.4,0.5l0.8-0.3l0.1,0.6l-0.6,0.7l0,1.3l2.1-0.1l0.9-0.4l0.1-0.5l0.8-0.1l1,1.2l0.4,1.4l0.7,1.1l0.8-0.1l0.2-1.3l-0.2-1.1l0.8-0.8
	l2.9-0.5l1.1-0.7l0.9,0.1l1.8,0l0.2,0.6l0.5,0.2l1.6-0.3l0.3-1.3l0.7,0.1l1,0.7l0.1,0.5l1.5,0.6l1.3,0.3l0.7,1.7l1,0l1.4-0.8
	l1.7,1.8l1.4,1.2l-1,1.4l1.2,1.4l0.5,1l0.5,0.3l0.4-0.4l2.1,0l0.3,0.1l0.5,1.8l0.3,0.4l2-1.2l1.4-1l1.8-0.3l0.2-1.2l0.2-0.2l1.1,0.3
	l0.9-0.9l-0.4-0.6l-0.5-2.5l-0.6-1.4l-0.1-1.2l0.4-0.8l1.4-0.5l0.4-0.9l1.1,0l1.3-0.3l1.2,0.1l1.7-0.4l0.4,0.3l-0.1,1.6l1.3,0.3
	l0.1,1.4l-0.7,0.6l0.8,0.8l0.4-0.1l1.7,0.6l0.3-2.8l-0.2-0.8l0.5-2.2l0.5,0.5l1.9,0.9l0.1,0.8l-0.2,1.5l0.1,0.5l1.9,0.6l0.3-0.9h0.3
	l0.3-3.1l1-0.9l0.1,1l0.5,0.6l0.2,1l0.4,0.7l0,0.9l0.4,0.5l0.8-1l0.8,0.3l0.4,1.2l-0.2,1.1l-0.2,3.1l-0.2,0.5l-1,0.6l0.4,1.7
	l0.3,0.7l0,0.7l0.2,0.8l0.7,0.4l3.1-0.4l1.2,1.3l-0.6,1.4l0.6,1.3l0.9-0.1l0.5,0.3l0.1,1.2l0.7,1l0.3,0.8l0,1.2l1.1,0.1l0.3,1.1
	l-0.6,0.3l0.1,1.1l-0.6-0.1l-0.5-0.5l-0.9,0.4l0,1.1l0.8-0.3l0.6,0.9l0.9,0.2l0,1l-1.5-0.2l-0.5,1.8l-0.4-0.2l-1.2,0.7l0.1,2.2
	l-0.6,0.6l-0.7-0.1l-0.2,0.3l0.1,1.3l0.7,0.2l0.2,0.5l-0.7,1.1l-0.7,1.4l-0.7-0.5l-0.3,0.7l-1.6,1.4l-0.6-0.1l-0.4,0.7l-1.3,0.1
	l-1.2-0.1l-0.6,1.3l-0.4,0.2l-1.3-1.4l-0.4,1.5l-1.2,0.5l0,0.4l1.5,1.4l1.5,1l-0.5,0.7l-1.4,1.5l-0.3-0.2l-0.3-1.1l-0.7-0.5
	l-0.1,0.5l-0.8,0.8l-0.5-0.5l0.3-0.8l-0.2-1l-0.6,0.7l-0.5-0.5l0.1-0.7l0.5-0.6l-0.2-0.8l-0.5-0.8l-0.3,0.9l-0.4-0.4l-1,0.1
	l-0.1,0.8l-0.4,0.1l-1-0.6l-0.6,0.5l-0.2,0.9l-1-0.2l-0.5-0.6l-0.6-1.3l-0.3-2.1l-0.6-0.3l-1.2,0.1l-0.9-0.4l-1.2-0.2l-1.8,0.2
	l-2.1,1.2l1.5,1.1l0.8-0.1l-0.1,1.3l-0.3,0.6l-0.2,1.3l0.2,1.7l1.2-1.2l0.5,0.8l-1.2,0.5l0,1.6l-1.1-0.1l-0.7,0.1l-0.8,0.6l0.1,0.5
	l-0.5,0.8l-0.7-0.5l-0.1,1.8l0.2,0.6l-1.6,0.4l-0.4,1.5l-0.5,0l0.1-1.1l-0.7-0.5l-0.5,0.1l-0.1-1.1l-1.4,0.3l-0.3,0.4l-0.5-0.5
	l-0.6,0.4l0.4,0.8l-0.4,1.2l-1,0.5l-0.6,1.5l-0.6,0.9l0.4,1l-0.3,1.5l-0.9,0.6l-0.5-0.2l-1.1-0.8l-0.7-0.1l-1.1,0.8l-0.7-0.1
	l-0.7-0.9l0-0.6l-1.3-0.8l-0.1-0.5l-1.1-0.1l-0.9-1.2l-0.9,0.3l-0.8,0.5l-1.5-0.3l-0.3,1.1l-0.4-0.1l-0.4,1.1l0.5,0.3l0.6-0.1
	l0.5,0.6l-2.2,0.2l-0.1-0.4l0.1-2.9l0.1-0.8l-0.9-0.2l-0.3,0.9l-1.3,0.1l-1.5-0.4l-1.1,1.5l-1.9,0.5l-0.7-0.5l-1.1-0.2l-0.4,3.4
	l-2.1-0.9l-0.5,1.1l-1,1.2l0,0.6l0.9,1.3l-0.4,0.1l0.9,2.2l-1.1,0.3l-0.9,2.6l-0.1,1.1l-0.6,1.2l0.3,1.8l-0.5,0.4l0.1,0.8l-0.4,0.5
	l-0.1,1.2l-1.1,1l-0.6,1.5l0.4,0.2l-0.4,1.2l0.3,0.7l-0.5,0.8l-0.8,0.4l-0.4-1.6l-1.1-1.8l-0.7,0l0.7,1.2l0.8,0.4l-0.8,0.7l0,1.6
	l-0.2,0.4l-0.7,0.3l-0.8-0.2l0.1,2.9l-1.7,0.2l-0.3-0.4l-0.9,0.5l-1.5,0.1l-0.4-0.2l-1.5-1.5l-0.3,0.1l-0.7-0.8l-0.9-0.2l-0.3-1
	l-1-1.6l-1.2,0l-0.6,0.2l0,1l-1.4-0.1l-0.5-0.5l0.3-0.8l1.2-0.5l0.4-1.1l-0.5-1.8l0.5-1l0.6-3.3l0-2.3l0.6-0.1l0.4-0.5l0.6,0.5
	l1.3,0.1l0.1-1.2l0.3-0.5l0.3-1.2l0.5,0.2l0.5-1.1l0.1-1.2l0.2-0.2l1.1,1.7l0.5,0.4l0.5-0.7l0.7,0.9l0.7,0.2l0.4-0.9l0.5,0.1
	l0.1,1.4l0.9,0.9l0-1.8l-1.1-1l-0.6-1l0.2-1l-0.1-2l0.5,0l1.2,0.4l0.2-1l-0.3-0.7l-0.2-1.6l0.1-1.1l0.5,0l0.3-0.6l1-0.5l0.8-0.2
	l-0.3-1.1l0.2-0.8l0.6-0.2l0.1-1.1l-0.4-1.2l0.6-0.6l0.7-0.1L291,446l0.3-0.6l0.9,0l0.5-0.3l-0.2-1l-0.6-1.1l0.8-1l-0.6-0.5l0.1-1.4
	l0.6-1l0.3-0.9l-0.5-0.6l-0.4-1.4l-0.6,1.4l-0.9-0.2l-0.4,1.3l-0.4-0.3l-0.5-1.1l-1.5-1.1l-0.2-1.1l-1.5,0.8l-0.3-1.2l-0.7,0
	l-1.2,0.9l-0.4-0.7l-0.8-0.4l0.1-0.5l1.3,0.4l0.1-0.6l-0.7-0.6l-1.4-0.8l0.7-1.6l0.1-0.7l-0.3-2.2l-0.1-1.8l0.2-1v-1.9l0.3-1.1
	l0.6-1.3l0-0.8l0.6-1.5l-0.4-0.8l-0.5-0.2l-1.8,0.2l-1.5-0.4l-1,0.3l-1.3,0l-0.8,0.3l-1.1-0.9l-0.2,0.7l-0.7-0.3l-0.3,0.9l-0.6,0.8
	l-0.4-0.5l0-1l0.7-1.1l0-1.4l-0.4-0.3l-1.2-0.1l-0.1-1.4l-0.6-0.3l-1.9,0.2l-1.3,0.8l0-1l-0.7-0.9l-0.1-1.6l1,0.5l1-0.2l0.2-1.7
	l-1.2-1.5l0.5-1.1l0.8-0.8L270.7,404.5z" />
	<path id="East_Godavari" class="st0" d="M446.6,238.6l0.1-2.4l-0.2-1.8l-0.5-1.7l-0.1-1.2l0.3-1.3l0.9,0l0.6,1.2l0.4,0.3l0.6-0.3
	l0.4-0.6l1-2l1.3-1.6l1.7-1.4l0.3-0.6l0.2-1l0.2-3v-1.5l-0.3-1.2l-0.8-1.5l-0.8-1l-1.4-2.2l-0.5-1.7l0.1-1.3l-0.3-0.8l-0.6-0.4
	l-0.6-0.7l-0.6-2v-1.1l0.3-2.4l-0.8-2l-0.3-1.3l-0.1-1.3l0.2-2.2l0.4-1.9l-0.3-2.9l-0.5-1.6l-1.7-2.8l-0.9-2.1l-0.4-2.8l-0.7-1.8
	l-0.2-2.4l0.3-1l0.1-2.2l0.2-1.3l-0.4-0.8l-1.2-1l-0.4-0.6l-0.4-1.9l-0.1-1l0.3-1.6l-0.3-0.3l-1,0l-1-1.5l-1.6-0.7l-0.9-1.2
	l-0.4-1.2l0-1.3l0.2-1.9l1.1-2.2l-1-1.1l0.4-1.3l1.1-1.3l0.5-1l0.5-1.4l0.9-1.4l0.1-2l0.4-0.8l1.3-0.8l0.7-1.2l0.9-0.2l1.6-0.1
	l0.5-0.2l0.7-0.9l0.3-1l1.2-1.3l1.1,0.1l0.5-0.8l0.9-0.1l0.6-0.8l-0.6-1.7l-0.6-0.5l-0.5-1l1.4-1.3l0.7-1.5l1.6-1l0.7,0l2.6-1.1
	l0.7-0.7l1.1-0.3l1.8-1.4l1,1.8l0.6,2l0.9,1.3l-0.2,0.9l-0.9,1.4l-0.3,1.1l0.9,2l-0.1,0.9l-1.3-0.6l-0.7,0.6l-0.5,1.4l-0.5,0.4
	l-1.2,0.3l-0.4,0.6l-1.9,1.7l-0.9,1.3l0.2,0.6l0.6,0.3l0.8-0.2l0.6,0.3l0.8-0.2l0.4,0.2l1.6-0.3l-0.1-1.1l0.9-0.4l1.6,0.5l-0.1,0.6
	l0.8,1.4l0.2,1.1l-0.3,0.8l0.1,0.8l-0.4,0.6l-0.2,0.9l-0.5,0.7l-0.3,1.1l0.8,1.3l0.5-1l0.8-0.4l0.9,0.1l1.2-0.9l1.8-0.1l0.4,0.3
	l0.2,0.9l1.1,1.4l0.8,0.3l0.4-0.2l0.6-1l0.9-0.6l0.6,0.1l0.8,0.8l1.2,0.2l1.4,1.2l0.4,0.6l0.8,0.5l0.8-0.2l0.5,0.7l-0.5,0.6
	l-0.2,1.4l0.3,1.1l-0.2,1.4l0.8,0.9l0.6-1.3l0.3,0.2l0,1.7l1.2,0.4l0.7,0.7l1.4-0.3l0.8-0.7l0-1.6l0.6-0.5l-0.1-0.8l0.5-0.2l0.3,1.7
	l0.8-0.4l0.7,0.4l1.4-0.5l0.4-0.6l0.4,0.4l0,0.8l0.7,1.1l1.2,1.1l0.3,0.8l-0.7,1.6l-1.1,1.1l-0.7,2l0.5,1.5l-0.2,1.6l-0.9,0.6
	l-0.3,1l-0.5,0.6l-0.2,1.1l0.2,0.7l0.6,0.4l0.4,1.2l-2.3,2.1l-2.5,2.7l-5.4,6.8l-1.3,1.9l-0.4,0.9l-0.8,2.3l0.3,1l-0.4,0.4l-0.3,1
	l0.1,1l-1,0.4v1.9l0.4,1.1l0.5,0.8l0.6-0.1l1.8,1.7l0.9-0.3l0.8,0.3l0.1-1.1l0.3-1.2l0.1-1.5l-0.3-2.7l-0.8-0.9l-0.4-1l0.8,0.2
	l0.4,0.9l0.4,3.2l-0.1,2l-0.3,1.2l0.1,1.1l-0.4,1.8l0.2,0.6l-0.3,1.8l-0.2,0.5l-0.2,1.6l0,1.1l-1.1,0.2l-0.9,1.2l0.2-0.6l-0.2-1.2
	l-0.4,0l-0.4,1.2l-0.8,0.2l-2.1,0.1l-0.5-0.8l0.5-0.9l-0.1-0.4l-1,1l-0.9,1.3l0.7,0.5l1.1-0.1l1.5,1.2l0.6,0.1l0.2,1.5l-0.3,0.4
	l-0.1,0.5l0.4,0.7l0.8,0.3l1.1,2.9l-0.5,1.3l-0.5,0l-0.3,0.8l-0.6,0.6l-1.9,0.9l-7.2,4.8l-3,2.3l-3.3,2.2l-1,0.1l-1.6,0.5l-2.4,1.1
	l-3.4,2.3l-2.7,1.5L446.6,238.6z M477,212.1l0.4,1.3l0.8-0.1l-1.2,1.7l-0.7,1.8v2.3l-0.3,0.9l-0.7-0.7l-0.7-1.9l-1.1-0.3l-0.2-0.7
	l0.5-0.9l-0.3-1.2l1.3-0.5l0.9-0.1l0.6-0.4L477,212.1z" />
	<path id="Guntur" class="st0"
		d="M402.5,277l0.3-0.7l-0.2-1.2l-0.9-3.1l0.1-0.6l0.7,0.1l0.1-1l-0.3-0.6l-1-1.2l-1.9-0.8l-1.7-0.5
	l-1.3-0.1l-2,0.2l-1.7,0.4l-2.1,0.7l-2.8,1.3l-2.9,1.6l-1.1,0.8l-0.3-2.3l0.1-0.4l0.6-0.6l0.2-0.9l1.2-0.7l0.3-0.6l-0.9-0.8
	l-0.6,0.5l-0.3-0.7l-1,0.8l-0.9,0.5l-0.7-1.8l-0.3-1.3l-0.1-2l-0.2-1l0.8-0.7l0.7,0l0.6-0.3l-1-0.7l-2.5-1.1l-0.5,0.8l-0.9-1
	l0.1-0.9l-0.8-0.6l-1.2,0.4l-0.5-0.3l-0.4,0.3l-1-0.3l-0.1,0.9l-0.4,0.4l-1.7-0.4l-0.2,0.2l-2.1-0.7l-0.6,0.3l0,1.1l-1.2,0.4
	l-0.6,0.4l-0.6-0.8l0-1.4l-0.8-1.7l0.1-1.2l-0.9,0.2l-0.6-0.4l0.5-1.7l-0.4-0.6l-1,0.8l-0.6-0.2l-0.7-1.6l-0.7,0.1l-0.8-0.4l-1.2-1
	l-0.8,0.3l-1.5-0.8l-1.1,0.2l-0.4,0.6l-0.1,0.9l0.2,1l0.7,0.6l1.7,2.4l-0.4,1l-1.1,0.4l-1,2.1l0.5,0.7l1.1,0.5l-0.1,0.9l0.5,0.8
	l-0.2,0.6l0.7,0.5l-0.4,1.2l-0.9,0.3l-0.5,1.4l-1.2-0.3l-0.1-0.5L354,264l-1.3,0l-0.5,1.7l-0.9,0.6l-0.3,0.5L351,268l-0.3,0.9
	l0.4,0.9l0.8,0.4l-0.2,1l-1,0.2l-1.8-1.1l0.3-1.2l-0.5-0.7l-0.9-0.6l0.2-1.2l-0.8-0.4l-1.2-1l-1.1,0.6l-1.1-0.8l0-1l-1.1-0.3
	l-0.8,0.2l-0.5-0.5l-0.4-3.9l0.3-0.6l0.8-0.4l0-0.9l-0.6-1.9l-0.3-2.9l0.1-1l-0.4-1.3l0.1-1.3l0.8-2.3l-0.6-3.6l-0.1-2.4l-0.1-1
	l-1.1-0.9l-1,0.9l-0.7,0.2l-1.7-0.6l-0.9,0.6l-1,1.2l-0.8,0.6l-1.1,1.4l-0.8,0.7l-1.3-0.2l-0.7,0.3l-1.2,0.8l-2.3,1.8l-1.5,1.3
	l-0.2-2.7L324,245l-0.7-0.1l1.3-1.1l0.3-0.7l0.2-3.3l-0.1-2.4l-0.2-0.9l-0.6-0.8l0.1-2l0.3-2.9l0.4-0.9l0.5-0.4l-0.1-0.8l-0.5-1.4
	l0.1-1.1l0.2-0.7l1.5-1.8l0.3-1l1.4-0.4l1.2-0.6l1.3-0.2l2.8-0.1l1.2-0.1l0.8-0.7l0.4-1l2.3-1.4l0.7-0.2l1.2,0.1l0.9-0.2l1-0.6
	l1.3-1.3l0.8-0.1l0.8,0.2l0.7-0.1l0.4-0.8l1.3-1.1l1.9-0.1l0.5-0.4l0.8-1.4l1.2-0.6l0.4,0.3l1.3,2.2l0.8-0.1l1.8-0.4l0.6,0.6
	l0.4,0.8l0.5,1.7l0.5,0.8l1.1,0.5l0.9-0.1l0.8-0.6l0.7-1.1l0.9-2.2l1.2-1.3l0.8-1.3l0.7-0.9l0.2-1.7l0.3-0.7l0.6-2.1l0.4-0.7
	l1.2-0.2l0.5,0.3l0.4,1.1l0.4,2l0.5,1.7l0.1,3.3l-0.6,1.7l0.4,1l2.2,1.6l1.7,1l0.7,0.1l2.7-0.1l1-0.2l1.4,0.3l1.3,0.2l0.7,1l1.3-0.2
	l1.6,0.2l1.8,0.4l1.2,0.8l1.4,1.2l1.5,1.4l2.6,1.9l1.3,1.1l1.3,1.9l0.8,1.8l2.4,4l1.9,3.6l0.9,1.4l0.7,1.4l0.6,1.7l0.7,2.7l0.8,2.8
	l0.9,2.1l0,1.4l0.3,0.7l0.1,1.4l0.6,0.8l0.1,1.8l0.5,1.5l0.2,1.6l-0.1,2.6l0.1,2.5l-1,2.4l-0.8,2.6L404,272l-0.6,3.3L402.5,277z" />
	<path id="Krishna" class="st0" d="M402.5,277l0.9-1.7l0.6-3.3l0.9-1.9l0.8-2.6l1-2.4l-0.1-2.5l0.1-2.6l-0.2-1.6l-0.5-1.5l-0.1-1.8
	l-0.6-0.8l-0.1-1.4l-0.3-0.7l0-1.4l-0.9-2.1l-0.8-2.8l-0.7-2.7l-0.6-1.7l-0.7-1.4l-0.9-1.4l-1.9-3.6l-2.4-4l-0.8-1.8l-1.3-1.9
	l-1.3-1.1l-2.6-1.9l-1.5-1.4l-1.4-1.2l-1.2-0.8l-1.8-0.4l-1.6-0.2l-1.3,0.2l-0.7-1l-1.3-0.2l-1.4-0.3l-1,0.2l-2.7,0.1l-0.7-0.1
	l-1.7-1l-2.2-1.6l-0.4-1l0.6-1.7l-0.1-3.3l-0.5-1.7l-0.4-2l-0.4-1.1l-0.5-0.3l-1.2,0.2l-0.4,0.7l-1.4-0.8l-0.4-0.9l-0.1-0.9l-0.9,0
	l-1.1-0.7l0.2-0.9l0.7-1.9l1.4-1.9l0.4-1.9l1.9,0.1l0.2-1.6l0.9,0.4l0.7-0.4l0.7,0.1l0.4-1.1l1.2-1.4l0.7-1.4l0.6,0.2l0.1,1.6
	l0.3,0.3l0.8-0.4l0.7,1l0.4,0.1l1-0.5l1.3,2.2l0.6,1.4l0.3,2.1l0.3,0.8l0.3,2.7l0.9,0.2l-0.1,0.7l1.2,0.1l0.7,2.9l0.3-0.6l1-0.8
	l0-1.2l0.9,0.5l0.2,0.9l1.5,0.9l0.2,1.7l0.7,0.1l0.9,0.8l1.4,0.5l0.6-0.1l1.6,0.5l0.3-0.5l1.4-0.9l0-0.4l-0.6-1l-1.5-1.2l0.4-0.8
	l0.1-2.1l1.1-0.3l-0.2-1.9l0.4-0.3l-0.3-1.3l-0.7,0l-1.9-1.5l-0.5,0.9l-1.4-0.8l-0.3,1.4l-0.4,0.4l-1.7-1.6l-2.2-0.8l-1.8-0.9
	l0.5-0.8l0.1-0.8l0.7-0.5l0.1-0.7l-0.5-0.6l0-0.7l-0.6-1.5l1.4-1.4l0.3,1.5l0.7,0.8l0.3,1.1l1.3,0.5l0.3-1.3l0.9-0.1l0.6-1.2
	l0.1-1.7l0.5-1.2l1.6-0.8l1-0.6l0.5-0.9l0.7,0.2l1.1,1l0.9,0.2l0.8,0.4l-0.2,0.5l1,0.5l0.4,0.7l-0.9,0.8l-0.2,0.9l0.7,0.3l1.3-0.4
	l0.4-0.5l2,0.3l1,0.6l1.9,0.5l0.4,0.3l1.5,0.3l0.5,0.8l0.6-0.5l0.7-1.2l0.6-0.5l0.9,0.3l2.1-0.1l1,1.5l-0.1,1.5l-1,1.8l-0.3,1.8
	l0.2,1.1l0.9,1.5l0.2,1.1l1.2,2.1l0.5,0.3l0.4,1.9l1.3,1.6l0.1,1.2l-1.2,2.2l-0.1,1.4l-0.6,1.4l-0.8,0.3l0.4,2.3l0.9,0.4l0.5,0.7
	l-0.1,0.9l-0.8,0.7l-0.3-0.1l-1.1-1.7l-0.7-0.1l-0.1,0.7l0.5,0.5l0.4,1.3l1.4,1.9l0.2,0.4l0.3,2.4l0.5,0.1l1.2-0.9l0.8-0.2l1-0.5
	l0.5-0.5l-0.4-0.5l0.5-0.8l0.9,0.9l1.1-0.5l0.8,0.6l0.6-1.5l1.1-0.2l1.7,3l0.7,0l0.1-0.9l1.3-0.9l0.5-1.7l0.2-1.4l0.3-1l1.1-1.6
	l0.4,0l0.9,0.9l-0.1,1.3l-0.4,2.2l0.4,0.7l0.9,0.5l-0.2,0.8l-0.1,1.5l0.5,0.3l-0.5,1.7l-0.7,1.1l0.4,0.6l1-0.3l0.5,0.6l-0.1,1.4
	l0.2,0.9l0.7,1.3l0.5,0.2l0.5,1.2l0.6,0.1l0.8,1.2l0.8-0.3l1.1,0.7l0.3,1l0.8,0.5l1.4-0.6l1.4,0.6l0.7,1.9l-0.9-0.8l-0.8,0.3
	l-0.4-0.3l-0.4,0.4l-1.9-0.1l-1.5,0.2l-2.2,0.5l-2.6,1.3l-1,0.6l-1.7,1.4l-0.7,0.8l-1.3,1.9l-1.2,2.6l-0.6,2.2l-0.1,1.9l-0.2,1.3
	l-0.4,1.5l-1.8,4.5l-0.5,1.1l-0.1,1.3l0.3,1.6h-0.6l-0.2,0.7l-2,2.2l-1.5,2.2l-0.4,0.8l-1.4,1.8l-0.5,1.1l-0.6,0.7l-0.2,1.7l0.5,1.5
	l0,1.5l-0.4,0.5l-1.6,1.2l-1.4,0.9l-0.4-0.4l-0.7,0.2l-3,0.6l-0.9,0.1l-0.8-0.2L402.5,277z" />
	<path id="Kurnool" class="st0" d="M223.5,316.1l-0.9-0.3l0.1-0.9l1,0l0.3-1.3l-0.3-1.6l-0.8-1.6l-1-0.2l0.1-0.8l0.5-0.1l0.4-1.1
	l1.2,0l-0.8-1.3l0-1l-1.6-0.3l-0.1-1.9l-0.2-0.5l-2,0.5l-0.4-0.2l0.1-1l-1-0.9l-0.2-0.4l0.3-1.6l-0.1-0.5l-0.6-0.6l0.1-1.1l-0.2-1.1
	l-1-0.9l-0.5-1.2l-1-0.9l-0.3-0.6l0.1-1l1.2,0.4l0.5-0.2l1,0.2l0.1-1.6l-0.2-3.3l0.3-1.4l-0.1-2l2-0.8l0.6-0.8l0.7,0.6l1,1.2
	l0.4-2.2l-1.2-1.3l-1.2-0.8l0.4-1.2l-0.4-0.8l-1.4-0.2l-0.2-0.6l0.2-1.1l0.8-1.8l0.2-1.1l-0.3-0.1l0.1-1.7l-1.8-0.2l-0.3-0.4
	l0.5-1.4l0.9-1.5l0.7-1.5l0.5-0.7l1.4-1l1.2-0.4l0.7-0.7l1.3-0.3l0.5-0.3l1.1,0l1.6-0.2l0.6-0.3l0.7,0.4l0.9,0.3l0.9-0.2l0.7,0.3
	l1.9,0.1l1.1,0.7l0.8-0.2l0.7,0.1l0.9-0.4l2,1l1.5,0.1l0.6,0.3l1.9,0.5l1.1,0.1l0.8,0.3l0.9-0.3l0.9,0.8l0.7,1l1,0.4l1.2,0.2
	l1.6-0.8l1.6,0.7l0.5-0.1l0.9,0.5l1,0.3l1.7-0.7l1.1,0l0.6-1.1l1-0.2l2,1.3l2.2,0.1l1,0.9l0.4,0.1l0.7-2.4l0.6-0.5l0.5,0.3l0,1.7
	l0.4,0.1l0.7,1.7l1.8,1.1l0.4,0.1l0.9-0.5l0-0.9l1.9,0l0.8-2.5l-0.1-0.8l1.2-1.1l1.1-0.4l0.7-0.9l0.3-2l0.6-1.7l-0.4-2l0.8-0.6
	l1.2,0.4l1.2,0l0.7-1.2l0.5-0.4l1.4-0.5l0.7-0.8l1-0.6l0.8-0.1l1.5,0.1l2.2,0.5l1.8,0.7l0.7,0.4l0.6,0l0.8-0.9l1.3-1.7l0.7-0.2
	l0.9,0.5l1.1,1.3l0.5,1l0.9,1l1.3,0.9l1.2,0.4l1.8-0.2l1.6-1.5l0.7-1l0.7-1.6l0.2-1l-0.3-1.1l-0.2-1.4l0.1-0.6l0.7-0.5l0.5,0.1
	l0.5,1l0.3,2.2l0.8,0.8l0.6,0.1l0.6-0.7l0.6,3l-0.3,2.9l-0.3,1.7l-0.5,1.5l-0.4,0.8l-2,2.2l-1.3,1.5l-1,2.1L304,270l-0.4,3.4
	l-0.2,2.4l-0.2,1.2l-0.6,2.4l-0.3,2.5l0,4.1l0.2,1.5l0.1,2.9l-0.4,5.2l0.1,3.1l-1,2.9l-0.3,1.4l-0.2,2.4l0,4.2l0.3,3.9l1-0.2l0,1.1
	l-0.5,4.2l0,1.2l0.4,1.5l-0.5,0.9l0.1,0.9l-0.8,0.6l-1.3,0.5l-0.1,1.8l0.1,1.8l-0.6,0.2l-0.8-0.1l-0.3,1.7l-2.4,0.9l-0.3-1.2
	l-1.3-0.4l-0.3,0.5l-1.3,0.8l-0.8,0.2l-0.2-0.5l0.1-1.5l-0.9,0l-0.8,1.4l-0.8,1l-0.5,1.1l-0.5,0l0.6-2.5l1-2l0.3-1.5l0.3-0.5
	l0.1-2.1l-0.1-1.7l-0.2-0.5l-1.1-0.1l-0.5,0.6l0.3,1.4l-1.1-0.1l-0.8,0.4l-0.3-0.2l-0.9,0.1l-0.2,0.5l-0.4,2.1l-0.2,2l-1-0.2l-1-0.9
	l-0.9-0.5l-0.3-0.7l0.5-1.8l0.9,0l0.8-0.9l0.1-0.8l-1-0.2l-0.2-0.3l-1.6-0.4l-2-0.3l-0.6,0.7l0.2,0.9l-0.1,1l-1,0.6l-0.9,1.5
	l-0.4,2.6l-0.7,0.8l-0.6-0.4l-1.3-0.3l-1.1,0.1l-1,0.8l-0.1-0.7l-0.8-0.6l-1.1-0.2l-0.6-0.8l-1.4-0.9l-0.8-0.3l-1.3-1.7l-0.1-1.6
	l-0.2-0.5l-0.7,0.9l-0.3-0.4l0-1.2l1-0.5l0.5-1.2l0-1.3l-1.3-1.4l-1.4-0.2l0-1.1l-1,0l-1.1,0.3l-0.2-1.3l-0.9-0.4l-0.8,0.1l-0.4,2.1
	l-0.2,0.6l-1.6,0.2l-0.1-0.8l-1.1,0.1l-0.2,1l-0.7,0.7l-0.3,0.7l-1-0.5l0.1-0.7l-1.1-0.4l-0.2-1l-0.7-0.4l-0.1-1.3L251,314l-0.4-0.9
	l-0.8,0.1l0.2-1.1l-1-1.3l-0.1-0.7l-0.7-0.2l-1.1,0.7l-0.2,1l-0.9,0.1l-0.2,1.5l-0.8,0l-0.7-0.4l-0.5-0.7l-1.4-0.7l-0.8-0.9
	l-1.1,0.2l-1,0.8l-1.5-0.8l0,1l-0.8-0.2l-0.2-0.7l-1.1-0.2l-0.2,0.3l-0.9,0.1l-1-0.3l-0.6,1.8l-0.1,1.1l-1.5,0l-0.5,1.4l-0.4,0
	l-0.4,1.4l-1.1,0l-0.3-0.8l-1.3-0.1l-0.8-0.3l-0.4-0.4l-0.8-0.3l-0.5,0.2l-0.3,0.8l-1-0.2L223.5,316.1z" />
	<path id="Nellore" class="st0" d="M364.3,421.1l-0.1-1.1l0.6-0.3l-0.3-1.1l-1.1-0.1l0-1.2l-0.3-0.8l-0.7-1l-0.1-1.2l-0.5-0.3
	l-0.9,0.1l-0.6-1.3l0.6-1.4l-1.2-1.3l-3.1,0.4l-0.7-0.4l-0.2-0.8l0-0.7l-0.3-0.7l-0.4-1.7l1-0.6l0.2-0.5l0.2-3.1l0.2-1.1l-0.4-1.2
	l-0.8-0.3l-0.8,1l-0.4-0.5l0-0.9l-0.4-0.7l-0.2-1l-0.5-0.6l-0.1-1l-1,0.9l-0.3,3.1h-0.3l-0.3,0.9l-1.9-0.6l-0.1-0.5l0.2-1.5
	l-0.1-0.8l-1.9-0.9l-0.5-0.5l-0.5,2.2l0.2,0.8l-0.3,2.8l-1.7-0.6l-0.4,0.1l-0.8-0.8l0.7-0.6l-0.1-1.4l-1.3-0.3l0.1-1.6l-0.4-0.3
	l-1.7,0.4l-1.2-0.1l-1.3,0.3l-1.1,0l-0.4,0.9l-1.4,0.5l-0.2-0.5l0.8-1.5l0.1-1.6l-0.4-1.4l0.2-1.2l-1-2.3l0.4-2.3l0-0.6l0.4-1
	l0.1-1.9l-0.5-0.9l-0.5-3.8l0-1l-0.4-1.5l0.2-2.1l-0.5-1.1l0-1.3l-0.2-0.7l-0.9-1.8l-0.4-1.2l-1.1-0.9L331,366l-1.5-3.4l-0.2-1.9
	l-0.2-0.6l-1.3-1l-0.8-2.8l-0.5-1.1l-0.8-1l-0.6-1.9l-0.6-0.6l-0.4,0.6l-1.6-1.7l-0.4-1.8l0-1.5l-0.3-0.8l0.5-0.6l-0.1-1.8l-0.5-1
	l-0.2-1.5l-1-2.3l-0.1-2.1l-0.4-1.7l-0.5-1.3l-0.7-0.8l-0.2-0.7l-0.5-0.2l-0.8-4l-0.3-1.1l0.1-1.2l-0.1-2.8l0.1-1.5l0.6-2l1-0.3
	l0.4-0.6l0.7-0.1l1.2,0.7l1,0.2h1.1l0.8-0.4l1-0.8l1-0.2l0.1,0.5l0.8,0l1.6,0.5l0.7-1.5l0.7,0.2l-0.2,1l0.5,0.5l0.2-1l0.8,1.2
	l0.5,0.1l0.7-0.3l0.3,0.8l1.2,0.1l-0.1,0.8l0.4,0.4l0.8,0.1l1.4-0.5l0.3,0.3l1.3,0.3l0.2,0.6l0.6,0.5l1.8,1l0.5-0.7l0-0.6l1.6,0.3
	l1.5,0.1l3.2,0.1l1.2-0.8l0.3,0.5l1,0.5l0.4-0.3l0.3-1h0.5l0.7-0.6l1.2,0.4l-0.2,1.3l-0.6,0.6l0.6,0.7l-0.2,0.9l-0.7,1.6l1.1,0.7
	l0.9,0.2l1.7,0.6l0.5-0.1l0.5-1.1l0.9-0.8l0.4-1l0.4-0.4l1.8-0.9l1.6,0.3l0.5,0.7l0.5,1.2l1.6-0.6v-0.8l0.4-0.5l1.1-0.3l0.8,5.4
	l0.2,0.4l0.5,2.2l0.1,1l0,3.2l0.3,1.1l0.4,2.5l0.5,1.5l0.9,1.3l0.4,1.2l0.3,0.3l1.1,5.1l0.3,0.8l1.2,1l0,0.9l-0.4,1.6l-0.4,2.8
	l-0.3,5.7l-0.1,2.8l-0.1,1.4l-0.4,1.7l-0.7,2.3l-0.4,2l-0.5,3.7l-0.1,3.1l0.1,2.8l0.1,1.5l0.7,4.7l0.3,0.6l0.1,1.2l0.7,1l0.7,2.2
	l0.4,1.7l1.2,3.1l0.3,1.3l0.5,1.6l0.5,0.8l0.4,2.4l-0.2,1.3l-0.3,1.3l-0.3,2l-0.2,2.9l0.1,1.3l0.4,2.4l1.2,3.3l-0.7-0.5l-0.7-1.8
	l-0.7-0.7l-0.6-1.2l-1-0.7L372,413l0-1.4l-1-1.1l-0.6-1.1l-0.6,0.6l0.1,1.5l0.2,0.6l-0.4,3.1l-0.6,0.1l-0.8-2l0-0.7l0.8-1.1
	l-0.9-0.3l-0.2,1.3l-0.7,0l-0.9,1.2l0,1.8l-0.9,1.6l0.6,0.7l0.3,0.9l0.7,0.4l0.5,0.7l0.1,0.6l0.5,0.8l0.5,0.4l-0.1,0.7l-0.8-0.1
	l-0.6-1.3l-0.9-0.8l-0.9,0.5l-0.3,0.5L364.3,421.1z M370.1,414.9l0.7,0.9l0.2,1l-0.4,0.6l0,0.7l-0.4,1.3l-0.7-0.1l0.1-0.8l-0.6-0.8
	l0-0.6l0.9-0.3l-0.7-0.6L370.1,414.9z" />
	<path id="Prakasam" class="st0" d="M365.5,324.1l-1.1,0.3l-0.4,0.5v0.8l-1.6,0.6l-0.5-1.2l-0.5-0.7l-1.6-0.3L358,325l-0.4,0.4
	l-0.4,1l-0.9,0.8l-0.5,1.1l-0.5,0.1l-1.7-0.6l-0.9-0.2l-1.1-0.7l0.7-1.6l0.2-0.9l-0.6-0.7l0.6-0.6l0.2-1.3l-1.2-0.4L351,322h-0.5
	l-0.3,1l-0.4,0.3l-1-0.5l-0.3-0.5l-1.2,0.8l-3.2-0.1l-1.5-0.1l-1.6-0.3l0,0.6l-0.5,0.7l-1.8-1l-0.6-0.5l-0.2-0.6l-1.3-0.3l-0.3-0.3
	l-1.4,0.5l-0.8-0.1l-0.4-0.4l0.1-0.8l-1.2-0.1l-0.3-0.8l-0.7,0.3l-0.5-0.1l-0.8-1.2l-0.2,1l-0.5-0.5l0.2-1l-0.7-0.2l-0.7,1.5
	l-1.6-0.5l-0.8,0l-0.1-0.5l-1,0.2l-1,0.8l-0.8,0.4h-1.1l-1-0.2l-1.2-0.7l-0.7,0.1l-0.4,0.6l-1,0.3l-0.6,2l-0.5-2.6l-0.4-3.1l0.5-2.2
	l-3-0.4l-0.7,0.9l-0.7-0.1l-0.8-0.7l-0.4-1.5l-0.1-1.4l-0.4-0.6l-0.5,1.1l-0.3,1.1l-0.3,0.4l-0.9-0.1l-4-0.7l-1.3,0.2l-0.7,0.5
	l-0.6,0.8l-1,0.2l-0.3-3.9l0-4.2l0.2-2.4l0.3-1.4l1-2.9l-0.1-3.1l0.4-5.2l-0.1-2.9l-0.2-1.5l0-4.1l0.3-2.5l0.6-2.4l0.2-1.2l0.2-2.4
	l0.4-3.4l0.3-1.9l1-2.1l1.3-1.5l2-2.2l0.4-0.8l0.5-1.5l0.3-1.7l0.3-2.9l-0.6-3l0.4-0.8l0-0.8l-0.8-2l0.1-1.7l0.8-0.7l1.6-1l1.6-0.7
	l1.4-1.1l1.1,0l1.3,0.4l2.7,0l1.9,1.2l0.7,0.2l0.8-0.4l0.7,0.1l0.4,0.4l0.2,2.7l1.5-1.3l2.3-1.8l1.2-0.8l0.7-0.3l1.3,0.2l0.8-0.7
	l1.1-1.4l0.8-0.6l1-1.2l0.9-0.6l1.7,0.6l0.7-0.2l1-0.9l1.1,0.9l0.1,1l0.1,2.4l0.6,3.6l-0.8,2.3l-0.1,1.3l0.4,1.3l-0.1,1l0.3,2.9
	l0.6,1.9l0,0.9l-0.8,0.4l-0.3,0.6l0.4,3.9l0.5,0.5l0.8-0.2l1.1,0.3l0,1l1.1,0.8l1.1-0.6l1.2,1l0.8,0.4l-0.2,1.2l0.9,0.6l0.5,0.7
	l-0.3,1.2l1.8,1.1l1-0.2l0.2-1l-0.8-0.4l-0.4-0.9l0.3-0.9l0.1-1.3l0.3-0.5l0.9-0.6l0.5-1.7l1.3,0l1.5,0.5l0.1,0.5l1.2,0.3l0.5-1.4
	l0.9-0.3l0.4-1.2l-0.7-0.5l0.2-0.6l-0.5-0.8l0.1-0.9l-1.1-0.5l-0.5-0.7l1-2.1l1.1-0.4l0.4-1l-1.7-2.4l-0.7-0.6l-0.2-1l0.1-0.9
	l0.4-0.6l1.1-0.2l1.5,0.8l0.8-0.3l1.2,1l0.8,0.4l0.7-0.1l0.7,1.6l0.6,0.2l1-0.8l0.4,0.6l-0.5,1.7l0.6,0.4l0.9-0.2l-0.1,1.2l0.8,1.7
	l0,1.4l0.6,0.8l0.6-0.4l1.2-0.4l0-1.1l0.6-0.3l2.1,0.7l0.2-0.2l1.7,0.4l0.4-0.4l0.1-0.9l1,0.3l0.4-0.3l0.5,0.3l1.2-0.4l0.8,0.6
	l-0.1,0.9l0.9,1l0.5-0.8l2.5,1.1l1,0.7l-0.6,0.3l-0.7,0l-0.8,0.7l0.2,1l0.1,2l0.3,1.3l0.7,1.8l0.9-0.5l1-0.8l0.3,0.7l0.6-0.5
	l0.9,0.8l-0.3,0.6l-1.2,0.7l-0.2,0.9l-0.6,0.6l-0.1,0.4l0.3,2.3l-2.3,1.8l-2,1.8l-1.4,1.7l-2,3.1l-0.4,1.3l-0.8,2.1l-0.4,1.3
	l-0.5,3.1l0.1,0.7l-0.6,1.7l-0.7,1.4l0.5,0.1l-0.5,1.9l-1.3,2.2l-1.2,1.8l-0.8,1.4l-1.1,2.4l-0.2,1.2l-0.4,0.9l-0.7,3.3l0.3,2.8
	l-0.2,1.6l-0.8,2.5l-0.7,3l-0.2,2.1l0.1,3.2L365.5,324.1z" />
	<path id="Srikakulam" class="st0" d="M542,124l-1.1-1.6l-0.5,0l-0.7-1l0.3-0.4l-0.8-1l-0.3-1.2l0.4-0.4l0-1.1l-1.8-0.8l0.1-1.7
	l-0.9,0.1l-0.5-0.6l0.5-0.8l-0.5-0.8l-0.3,1.2l-0.6,0.2l-0.5-0.3l-0.1-1.3l0.6-0.2l0.3-0.7l-0.6-0.3l-1.2-1.2l-0.6,0.6l-1.1-0.7
	l-0.5-1.1l-0.8,0.2l-0.4-0.7l0.3-0.5l0-0.8l-0.4-0.1l0.1-1.3l-0.2-0.9l0.8-0.4l-0.2-1.1l-0.5,0.2l-0.8-1.1l1-1.5l0.9-0.3l0.7,0.4
	l0.6-0.3l0.6,0.4l1.8,0.2l0.3-0.6l1.2,0.7l0.6,0l-0.3-1l0.2-0.4l1.1-0.6l-0.1-0.6l-1.4-1.4l0-0.8l1-0.2l1.2-0.7l0-2l-0.2-0.8l-1.1,0
	l-1.1-0.4l-0.4,0.2l-0.6,1l-0.7,0l-0.4-0.7l0.2-1.3l-0.1-1l0.6-0.8l0.4-0.9l0.2-3.3l-1-1.9l0.2-0.8l0.6-0.9l1.4-1l0.6-1l2.7-1.4
	l0.6-0.5l1-1.3l0.6,0l1.2,0.9l1.9,1.1l0.4-1l0.3-1.6l0.4-0.6l1.4-0.1l1.2-0.5l-0.2-1.9l-1.1-1.2l-1-1.9l0.5-0.4l-0.1-0.7l-0.8-1.7
	l-0.5,0l-0.1-0.9l-0.3-0.6l0-1.1l0.5-0.6l0.8-0.3l0.4-0.7l0.6,0.1l0.1,1l0.5,0.7l0.7,2.2l-0.1,1l0.4,0.8l-0.2,0.8l0.9,0l0.3,0.3
	l0.1,1l-0.3,1l0.3,1.4l1,0.8l0.3,1.3l0.6-0.1l0.6,0.3l0.6-0.1l1.3,0.6l0.3,0.7l0.8-0.4l1.3,0.2l0.5-0.3l0.8,0l0.6,0.4l0.4-0.3
	l0.4,0.8l0.7,0.4l0.1,0.8l0.5,0.2l0.3,1.1l1.3,0.4l0.4-0.5l0.6-0.2l0.4,0.4l0.6-1.2l1.2-0.5l1,0.4l0.5-0.5l1.3-0.7l1.4,0.9l0.6-0.1
	l1.2-1.1l0.8,0.6l1.6-0.7l-0.1-1.1l0.7-0.2l0-1.4l-0.3-0.2l-0.2-1.8l0.6,0.2l0.2,0.6l0.5,0l0.4-1l-1-0.7l0.2-0.3l1.4,0.9l0.1-0.9
	l1.2-0.5l1-1.5l-0.7-1.6l0.2-0.7l1-1.2l-0.7-1.1l0.2-1.1l1.1,0.8l1,0.5l0.3-1.7l0.6-0.9l1-1.1l0.8-0.1l0.4-0.4l0.9-0.1l0.3-0.8
	l0.9-0.2l-0.2,1.8l0.2,1.1l0.5,0.4l0.5-0.4l0.2-0.9l0.6-1.4l1.2-0.1l0.9,0.3L591,59l-0.3-0.7l-0.5-0.2l-0.6,0.8l-0.6-0.2l-0.3-1
	l-0.6-0.3l-0.4-1.8l0.7,0.4l1.5-0.3l1,0l0.2-0.9l0-1.4l0.8,0.5l1-0.1l0.2,0.5l-0.6,1.6l0.2,0.7l3.1,2.5l-2.2,3.9l-0.7,1.3l-0.9,1.4
	l-0.9,0.2l0.2,0.9l-2.7,3.2l-1.2,1.9l-0.7,1.6l0,0.7l-1,1.3l-0.1,1.4l-1.1,1.6l-1,0.9l-1,1.2l-0.9,1.4l-1.4,2.4l-0.1,1.2l-3.1,3.9
	l-1,1.9l-0.1,1.3l-3.4,3.6l-4,4.8l-2.4,3.2l-0.9,1.9l-0.4,1.2l0.2,0.9l-2.9,2.5l-2.6,1.6l-0.3,0.1l-3,2.2l-0.8,0.2l-0.1,0.4
	l-1.5,0.5l-0.7,0.4l-1.2,1.3l-3.8,1.8l-3.5,2.4l-2.1,1.7L542,124z" />
	<path id="Visakhapatnam" class="st0" d="M487.1,178.1l-0.4-1.2l-0.6-0.4l-0.2-0.7l0.2-1.1l0.5-0.6l0.3-1l0.9-0.6l0.2-1.6l-0.5-1.5
	l0.7-2l1.1-1.1l0.7-1.6l-0.3-0.8l-1.2-1.1l-0.7-1.1l0-0.8l-0.4-0.4l-0.4,0.6l-1.4,0.5l-0.7-0.4l-0.8,0.4l-0.3-1.7l-0.5,0.2l0.1,0.8
	l-0.6,0.5l0,1.6l-0.8,0.7l-1.4,0.3l-0.7-0.7l-1.2-0.4l0-1.7l-0.3-0.2l-0.6,1.3l-0.8-0.9l0.2-1.4l-0.3-1.1l0.2-1.4l0.5-0.6l-0.5-0.7
	l-0.8,0.2l-0.8-0.5l-0.4-0.6l-1.4-1.2l-1.2-0.2l-0.8-0.8l-0.6-0.1l-0.9,0.6l-0.6,1l-0.4,0.2l-0.8-0.3l-1.1-1.4l-0.2-0.9l-0.4-0.3
	l-1.8,0.1l-1.2,0.9l-0.9-0.1l-0.8,0.4l-0.5,1l-0.8-1.3l0.3-1.1l0.5-0.7l0.2-0.9l0.4-0.6l-0.1-0.8l0.3-0.8l-0.2-1.1l-0.8-1.4l0.1-0.6
	l-1.6-0.5l-0.9,0.4l0.1,1.1l-1.6,0.3l-0.4-0.2l-0.8,0.2l-0.6-0.3l-0.8,0.2l-0.6-0.3l-0.2-0.6l0.9-1.3l1.9-1.7l0.4-0.6l1.2-0.3
	l0.5-0.4l0.5-1.4l0.7-0.6l1.3,0.6l0.1-0.9l-0.9-2l0.3-1.1l0.9-1.4l0.2-0.9l-0.9-1.3l-0.6-2l-1-1.8l0.8-1l0.6-0.2V126l1.1-0.9l1,0.8
	l0.7,0l0.1-0.6l0.6-0.8l1,0.8l0.8-0.1l1,0.4l0.2,0.8l1.5-0.4l0.6,1.3l0,0.7l1,0.1l1,0.9l0.9,0.1l0.2,0.8l1.3-0.4l0.2-1.6l-0.2-1
	l-0.4-0.6l0.4-0.9l1-0.8l0.8,1.4l0.9-0.7l0.7,0.2l0.3-1.3v-1l-0.5-0.8l-0.1-1.6l0.2-0.5l-0.1-1l1.2,1.1l0.4-0.9l-0.8-1.5l-0.8-0.1
	l-1.1-0.7l-0.2-1.4l0.7-0.3l0.6-1l-0.6-0.4l0.4-0.6l0.3-2.3l0.3-0.3l1.1,0.1l0.7-0.9l0.5-1.4l-0.4-0.8l-0.9,0.2l-0.4,0.5l-0.7,0.1
	l-0.4-0.6l0.5-0.3l0.5-0.8l0.2-0.7l0.8-0.6l0.4-1.2l-0.5-0.7l-0.1-1l-0.5-0.8l0.8-0.8l1-1.9l1.4-1.7l0.5-1.3l0.8-1.3l1-1.3l0.4,1.4
	l0.8,0.6l0.4-0.1l0.8,0.3l0.2,2.3l-0.6,0.8l0.7,0.8l0,0.6l0.9-0.5l0.3,0.3l-0.4,1.3l-0.5,0.6l0,1.2l0.7,0.4l0.3-0.3l0.7,0.3l0.3,0.4
	l0.6,0l0.6,0.7l-0.1,0.8l0.5,0.2l0,0.6l-0.6,0.1l0.4,1.3l-0.7,0.1l-0.6,0.8l0.6,0.3l0.1,0.7l-0.3,0.7l0.2,1.6l1,0.5l0.2,0.6l0.9,0.7
	l0.8-1.1l-0.1-0.8l1-2.2l1.6-0.4l0.2-0.8l0.7-0.4l0.8,0.1l0.6-0.4l0.2-0.6l0.8-0.2l0.8-1.5l-0.3-1.1l0.5-0.5l0-0.8l-0.5-1.9l1.1-1.3
	l1,0.4l0.8,0.6l0.1,0.7l0.6-0.1l1,0.6l0.7-0.4l0.3,1.3l-0.3,0.9l0.9,1.5l1.2-0.3l0.2,0.6l0.6,0.1l0.7-0.4l0.8,0.2l0.2-0.7l0.5-0.6
	l1-0.2l1.4,0.5l0.8-0.5l0.5-1l0.8-0.8l0.4,0.6l-1.1,1.5l-0.1,0.8l0.3,1.2l-0.2,1l0.2,0.8l0.5,0.2l0.8-2.5l1.4,0.4l1.2,0.8l0.3,0.6
	l0.3,1.4l0.3,0.1l2-1.6l0.8,0.2l-0.4,1.2l0.2,1l0.6,0.6l1.6,0.9l0.2,1l-0.1,1.4l0.2,0.9l-1.2,0l-0.1,1.5l-0.7-0.6l-0.5,0l-0.2,1.3
	l-0.9-0.3l-0.5-0.8l-0.4-1.4l-1.2-1.5l-1-0.5v0.8l0.9,1.5l-0.2,1.3l0.6,1.5l-0.5,0.4l-1.1-0.1l-0.2-0.6l0.1-1.1l-0.2-0.7l-0.9-0.6
	l-0.3,0.4l0.1,0.7l0.5,1.2l0.1,0.9l-0.3,0.9l0.5,0.2l1.1-0.7l0.7,0.2l-0.1,0.6l-0.6,0.5l-0.6,0.1l-0.6,0.6l-0.6,0.2l-0.2,0.8
	l0.2,1.2l-1,0.8l-1.1,0.1l-0.8,1.2l-0.4,1.1l-1,1.3l-0.7,2.1l0.1,1.2l0.4,0.8l1,0.2l1.2,0.7l0.9,0.9l1.6,0.6l0.3,1.1l0.6,0.9
	l0.1,1.7l0.6,0.4l0.3,1.7l0.6,0.8l0.2-0.6l0.6-0.3l1.4,0.1l0.2-1.4l0.3-0.4l0.9,0.2l0-1l0.5-1.2l0.7-0.6l-0.4-0.6l-0.7-0.4l0-1.2
	l0.9-0.5l1.5-1.1l1.4-0.8l0.6-1.2l-0.4-1.3l1.1-1.5l0.7-0.2l0.4-0.6l1,0.3l0.9,0l0.6,0.9l-0.1,1.3l0.5,0.8l0,1.3l-0.9,1.2l0,0.9
	l-0.6,0.7l-0.4,1.4l0.3,0.6l1,0.6l0-1.2l0.6-0.4l0.5-0.8l0.5,0.1l0.7,0.5l0.7-0.3l0.9,0.5l-1.3,1.2l0.2,0.8l-0.5,1l-1.2,1l-0.4,0.9
	l0.3,0.6l-0.3,1.5l-0.9,1.1l-0.3,1l-1.5,1.4l-0.6,1.3l0,0.9l-1.3,0.9l-0.8,1l-0.2,1.2l-0.9,1.1l-0.8,0.6l0,0.4l-1,0.7l-0.4,0.7
	l0.1,0.8l-0.8,0.6l-0.2,0.4l-2.1,1.3l-0.5,0.8l-2.8,1.1l-0.8,0.7l-2.7,1.3l-1.3,1l-0.2,0.7l-0.6,1l-1.8,0.8l-1.4,1.1l-2,1.1
	l-0.8,0.8l-1.5,0.6l-4,2.3l-2.7,1.7L492,174l-4.2,3.4L487.1,178.1z" />
	<path id="Vizinagaram" class="st0"
		d="M542,124l-1.5,1.5l-0.9,0.6l-1.3,1.4l-0.7,0.5l-0.5,1l0,1l-0.7,1.3l-0.7,0.9l-2.5,2l-0.9-0.5
	l-0.7,0.3l-0.7-0.5l-0.5-0.1l-0.5,0.8l-0.6,0.4l0,1.2l-1-0.6l-0.3-0.6l0.4-1.4l0.6-0.7l0-0.9l0.9-1.2l0-1.3l-0.5-0.8l0.1-1.3
	l-0.6-0.9l-0.9,0l-1-0.3l-0.4,0.6l-0.7,0.2l-1.1,1.5l0.4,1.3l-0.6,1.2l-1.4,0.8l-1.5,1.1l-0.9,0.5l0,1.2l0.7,0.4l0.4,0.6l-0.7,0.6
	l-0.5,1.2l0,1l-0.9-0.2l-0.3,0.4l-0.2,1.4l-1.4-0.1l-0.6,0.3l-0.2,0.6l-0.6-0.8l-0.3-1.7l-0.6-0.4l-0.1-1.7l-0.6-0.9l-0.3-1.1
	l-1.6-0.6l-0.9-0.9l-1.2-0.7l-1-0.2l-0.4-0.8l-0.1-1.2l0.7-2.1l1-1.3l0.4-1.1l0.8-1.2l1.1-0.1l1-0.8l-0.2-1.2l0.2-0.8l0.6-0.2
	l0.6-0.6l0.6-0.1l0.6-0.5l0.1-0.6l-0.7-0.2l-1.1,0.7l-0.5-0.2l0.3-0.9l-0.1-0.9l-0.5-1.2l-0.1-0.7l0.3-0.4l0.9,0.6l0.2,0.7l-0.1,1.1
	l0.2,0.6l1.1,0.1l0.5-0.4l-0.6-1.5l0.2-1.3l-0.9-1.5v-0.8l1,0.5l1.2,1.5l0.4,1.4l0.5,0.8l0.9,0.3l0.2-1.3l0.5,0l0.7,0.6l0.1-1.5
	l1.2,0l-0.2-0.9l0.1-1.4l-0.2-1l-1.6-0.9l-0.6-0.6l-0.2-1l0.4-1.2l-0.8-0.2l-2,1.6l-0.3-0.1l-0.3-1.4l-0.3-0.6l-1.2-0.8l-1.4-0.4
	l-0.8,2.5l-0.5-0.2l-0.2-0.8l0.2-1l-0.3-1.2l0.1-0.8l1.1-1.5l-0.4-0.6l-0.8,0.8l-0.5-1l0.3-0.8l-0.2-0.5l-0.8,0.7l-0.3-1.1l-0.9-0.4
	l-0.1-0.5l1-1l0.7-0.9l0.2-0.7l0.7-0.9l0.2-0.8l0.8-1.2l-0.1-0.5l-0.8-0.1l-1,0.5l-0.9-0.8l0.1-0.7l-0.4-0.4l0.5-0.9l0.9-0.6
	l-0.6-0.7l-0.7,1l-1-0.4l0.6-1.1l-0.4-2.2l1.9-1l0.2-0.8l0.7-1.4l0.4-1.1l0.5-0.5l0.9-1.7l0.6-0.8l-0.3-0.5l1-0.9l0.9,0.9l0.9,0
	l0.8,1l0.8,0.1l0.2,0.9l0.8-1.3l-0.3-0.7l0.3-0.4l0.8,0.5l1.3,0.1l0.2-0.9l0.5-1.2l1.2-0.6l0.9,0l0.5,0.4l0.3-0.7l0.8,0.2l0.2-0.5
	l-0.5-0.9l0.6-0.7l0.5,0.7l1.3-0.8l-0.1-1l0.7-0.7l-0.3-0.4l-0.9-0.4l-1-1.9l-0.5-0.3l-0.4-1l0.1-0.8l0.7,0.2l0.4,0.8l0.5-0.4
	l-0.8-1l-0.1-1l-0.8-0.2l-0.2,2.5l-0.6,0.1l-0.5-0.8l0.6-0.6l-0.2-1.3l-0.7-0.6l-0.3-1.6l1,0.2l0.3-1.2l1-0.2l0.4,1h0.7l0.6-0.3
	l1,0.2l0.3,1.2l1.1,1.3l0.3,0.7l0.6,0.1l0.3-0.9l-0.2-0.9l-0.4-0.7l-0.1-1.1l1.3,0l0.1-1.7l-0.6-0.7l-0.1-1.1l-0.3-0.2l0.1-0.9
	l0.9-0.4l0.8,1.3l0.6-0.6l0.3,1.1l0.1,1.5l-1-0.1l0.1,1l1,0.4l0.8,0l0.2-1.5l0.8-1.4l-0.3-0.8l0.1-0.8l0.4-0.3l0.3,0.8l-0.1,1l1,0.1
	l0.2-1.7l0.3-0.5l0.6-0.1l0.2-0.5l-0.5-1.2v-0.6l1.2-1.4l0.7,1.1l0.8,0.2l-0.2,0.6l0.6,1.7l0,0.8l1.4,2l0.5,1.5l0.3,0.4l0.8,0
	l0.2,0.7l-0.7,0.3l0,0.9l1,0.6l0.5,2.4l0.5,1.4l0.5,0.1l0.7,1l1,1.9l1.1,1.2l0.2,1.9l-1.2,0.5l-1.4,0.1l-0.4,0.6l-0.3,1.6l-0.4,1
	l-1.9-1.1l-1.2-0.9l-0.6,0l-1,1.3l-0.6,0.5l-2.7,1.4l-0.6,1l-1.4,1l-0.6,0.9l-0.2,0.8l1,1.9l-0.2,3.3l-0.4,0.9l-0.6,0.8l0.1,1
	l-0.2,1.3l0.4,0.7l0.7,0l0.6-1l0.4-0.2l1.1,0.4l1.1,0l0.2,0.8l0,2l-1.2,0.7l-1,0.2l0,0.8l1.4,1.4l0.1,0.6l-1.1,0.6l-0.2,0.4l0.3,1
	l-0.6,0l-1.2-0.7l-0.3,0.6l-1.8-0.2l-0.6-0.4l-0.6,0.3l-0.7-0.4l-0.9,0.3l-1,1.5l0.8,1.1l0.5-0.2l0.2,1.1l-0.8,0.4l0.2,0.9l-0.1,1.3
	l0.4,0.1l0,0.8l-0.3,0.5l0.4,0.7l0.8-0.2l0.5,1.1l1.1,0.7l0.6-0.6l1.2,1.2l0.6,0.3l-0.3,0.7l-0.6,0.2l0.1,1.3l0.5,0.3l0.6-0.2
	l0.3-1.2l0.5,0.8l-0.5,0.8l0.5,0.6l0.9-0.1l-0.1,1.7l1.8,0.8l0,1.1l-0.4,0.4l0.3,1.2l0.8,1l-0.3,0.4l0.7,1l0.5,0L542,124z" />
	<path id="West_Godavari" class="st0" d="M446.6,238.6l-1.3-0.8l-1.8-0.1l-3.3-0.6l-0.9-0.1l-0.7-1.9l-1.4-0.6l-1.4,0.6l-0.8-0.5
	l-0.3-1l-1.1-0.7l-0.8,0.3l-0.8-1.2l-0.6-0.1l-0.5-1.2l-0.5-0.2l-0.7-1.3l-0.2-0.9l0.1-1.4l-0.5-0.6l-1,0.3l-0.4-0.6l0.7-1.1
	l0.5-1.7l-0.5-0.3l0.1-1.5l0.2-0.8l-0.9-0.5l-0.4-0.7l0.4-2.2l0.1-1.3l-0.9-0.9l-0.4,0l-1.1,1.6l-0.3,1l-0.2,1.4l-0.5,1.7l-1.3,0.9
	l-0.1,0.9l-0.7,0l-1.7-3l-1.1,0.2l-0.6,1.5l-0.8-0.6l-1.1,0.5l-0.9-0.9l-0.5,0.8l0.4,0.5l-0.5,0.5l-1,0.5l-0.8,0.2l-1.2,0.9
	l-0.5-0.1l-0.3-2.4l-0.2-0.4l-1.4-1.9l-0.4-1.3l-0.5-0.5l0.1-0.7l0.7,0.1l1.1,1.7l0.3,0.1l0.8-0.7l0.1-0.9l-0.5-0.7l-0.9-0.4
	l-0.4-2.3l0.8-0.3l0.6-1.4l0.1-1.4l1.2-2.2l-0.1-1.2l-1.3-1.6l-0.4-1.9l-0.5-0.3l-1.2-2.1l-0.2-1.1l-0.9-1.5l-0.2-1.1l0.3-1.8l1-1.8
	l0.1-1.5l-1-1.5l-2.1,0.1l-0.9-0.3l-0.6,0.5l-0.1-1.2l0.4-1.8l-0.4-1l0.6-0.9l0.2-1.4l0.9,0.3l0.7,0l0.4-0.3l0.1-1.6l-0.3-0.5
	l-0.2-1.5l0.4-0.3l0.8,0l1.2,1.1l1.4,0.6l2-0.5l0.9-1.2l0.1-0.6l0.8,0.6l1.1-0.6l3-1.2l0.8-0.1l0.9-1.4l-0.5-0.8l0-2.5l0.5-1.1
	l0.4-0.3l1.4,0.4l1.9-0.1l0.5,0.2l1.1-1.1l0.6-1.4l1-1.9l0.4-0.2l0.6,0.4l0.3,1.1l1.1,0.7l0.7,0.1l1.5-0.4l0.2-0.7l0.7-0.2l0.4-0.4
	l0.8-1.5l0.7-0.9l1-1.9l0.1-0.8L436,163l0.2-0.8l0.4,1.2l0.9,1.2l1.6,0.7l1,1.5l1,0l0.3,0.3l-0.3,1.6l0.1,1l0.4,1.9l0.4,0.6l1.2,1
	l0.4,0.8l-0.2,1.3l-0.1,2.2l-0.3,1l0.2,2.4l0.7,1.8l0.4,2.8l0.9,2.1l1.7,2.8l0.5,1.6l0.3,2.9l-0.4,1.9l-0.2,2.2l0.1,1.3l0.3,1.3
	l0.8,2l-0.3,2.4v1.1l0.6,2l0.6,0.7l0.6,0.4l0.3,0.8l-0.1,1.3l0.5,1.7l1.4,2.2l0.8,1l0.8,1.5l0.3,1.2v1.5l-0.2,3l-0.2,1l-0.3,0.6
	l-1.7,1.4l-1.3,1.6l-1,2l-0.4,0.6l-0.6,0.3l-0.4-0.3l-0.6-1.2l-0.9,0l-0.3,1.3l0.1,1.2l0.5,1.7l0.2,1.8L446.6,238.6z" />
	<path id="Y.S.R" class="st0" d="M287.3,391l0.3-1.1l-1-0.4l-0.4-0.4l0.1-1.7l0.3-1.2l-0.3-0.9l0.7-1l0.1-1.1l-0.6-1.5l-1-0.8
	l-0.4-1.2l0.4-2.1l-0.9-0.3l-0.2-0.3l0.2-1.9l0.6-2.8l-3-0.5l-1.6-0.1l-1.7-0.6l-0.5-0.4l-2-0.7l-0.5-0.5l-0.9-1.3l-1.2-0.9l-2-1.2
	l-2-2.3l-2.9-3.1l-0.7-0.5l-0.7-1.1l-1.3-1.4l-1-1.5l0.1-0.7l-0.8-1.3l-0.7-0.7l0.8-0.8l1,1.2l0.1,1.3l1.7,0l1.2,0.2l0.3-0.6l0.1-1
	l1.1-1l0.9-3l0.7-0.3l0.8,0.3l0.5-1.4l0-1.1l0.3-1.4l-0.2-0.6l-0.5-0.2l-0.7,0.2l-0.5-0.6l-0.2-0.9l-0.6-0.3l-0.8,0l0.5-1.3l0.1-0.9
	l-0.4-0.2l-1-1.2l1.1-2.2l0.4-1l0.9,0.4l0.3-0.4l0.3-2l-0.9-0.3l0-0.8l0.9-3.6l0.9-0.6l0.4-0.6l1-0.8l1.1-0.1l1.3,0.3l0.6,0.4
	l0.7-0.8l0.4-2.6l0.9-1.5l1-0.6l0.1-1l-0.2-0.9l0.6-0.7l2,0.3l1.6,0.4l0.2,0.3l1,0.2l-0.1,0.8l-0.8,0.9l-0.9,0l-0.5,1.8l0.3,0.7
	l0.9,0.5l1,0.9l1,0.2l0.2-2l0.4-2.1l0.2-0.5l0.9-0.1l0.3,0.2l0.8-0.4l1.1,0.1l-0.3-1.4l0.5-0.6l1.1,0.1l0.2,0.5l0.1,1.7l-0.1,2.1
	l-0.3,0.5l-0.3,1.5l-1,2l-0.6,2.5l0.5,0l0.5-1.1l0.8-1l0.8-1.4l0.9,0l-0.1,1.5l0.2,0.5l0.8-0.2l1.3-0.8l0.3-0.5l1.3,0.4l0.3,1.2
	l2.4-0.9l0.3-1.7l0.8,0.1l0.6-0.2l-0.1-1.8l0.1-1.8l1.3-0.5l0.8-0.6l-0.1-0.9l0.5-0.9l-0.4-1.5l0-1.2l0.5-4.2l0-1.1l0.6-0.8l0.7-0.5
	l1.3-0.2l4,0.7l0.9,0.1l0.3-0.4l0.3-1.1l0.5-1.1l0.4,0.6l0.1,1.4l0.4,1.5l0.8,0.7l0.7,0.1l0.7-0.9l3,0.4l-0.5,2.2l0.4,3.1l0.5,2.6
	l-0.1,1.5l0.1,2.8l-0.1,1.2l0.3,1.1l0.8,4l0.5,0.2l0.2,0.7l0.7,0.8l0.5,1.3l0.4,1.7l0.1,2.1l1,2.3l0.2,1.5l0.5,1l0.1,1.8l-0.5,0.6
	l0.3,0.8l0,1.5l0.4,1.8l1.6,1.7l0.4-0.6l0.6,0.6l0.6,1.9l0.8,1l0.5,1.1l0.8,2.8l1.3,1l0.2,0.6l0.2,1.9l1.5,3.4l0.3,1.5l1.1,0.9
	l0.4,1.2l0.9,1.8l0.2,0.7l0,1.3l0.5,1.1l-0.2,2.1l0.4,1.5l0,1l0.5,3.8l0.5,0.9l-0.1,1.9l-0.4,1l0,0.6l-0.4,2.3l1,2.3l-0.2,1.2
	l0.4,1.4l-0.1,1.6l-0.8,1.5l0.2,0.5l-0.4,0.8l0.1,1.2l0.6,1.4l0.5,2.5l0.4,0.6l-0.9,0.9l-1.1-0.3l-0.2,0.2l-0.2,1.2l-1.8,0.3l-1.4,1
	l-2,1.2l-0.3-0.4l-0.5-1.8l-0.3-0.1l-2.1,0l-0.4,0.4l-0.5-0.3l-0.5-1l-1.2-1.4l1-1.4l-1.4-1.2l-1.7-1.8l-1.4,0.8l-1,0l-0.7-1.7
	l-1.3-0.3l-1.5-0.6l-0.1-0.5l-1-0.7l-0.7-0.1l-0.3,1.3l-1.6,0.3l-0.5-0.2l-0.2-0.6l-1.8,0l-0.9-0.1l-1.1,0.7l-2.9,0.5l-0.8,0.8
	l0.2,1.1l-0.2,1.3l-0.8,0.1l-0.7-1.1l-0.4-1.4l-1-1.2l-0.8,0.1l-0.1,0.5l-0.9,0.4l-2.1,0.1l0-1.3l0.6-0.7l-0.1-0.6l-0.8,0.3
	l-1.4-0.5l-1,0l0.1-1.1l0.4-2l-0.4,0.1l-0.9-0.4l0.6-1.3l-0.9-0.4l-1-0.1l-0.2,0.4l-0.9,0.8l-0.7,0.8l-0.4,1l-0.4,0.4l-0.9-0.9
	l-0.2-1l0.2-0.9L287.3,391z" />
	<path id="Layer" class="st1" d="M790,262h10v10h-10V262z" />
	<path id="Layer_1_" class="st1" d="M0,0" />
	<path id="Anantapur_1_" class="st2" d="M223.9,340.2l9.4-3.8l1,1.1l-4.5,9.1l-0.9-1l1.2-2.3l-2.9-3.1l-2.4,1L223.9,340.2z
	 M230.5,342.3l2.3-4.5l-4.6,1.9L230.5,342.3z M237.8,349l-3.2,2.9l-0.8-0.9l3.1-2.9c0.5-0.5,0.8-0.9,0.8-1.3
	c0.1-0.4-0.1-0.8-0.4-1.2c-0.4-0.5-0.9-0.7-1.5-0.7c-0.5,0-1.1,0.2-1.6,0.7l-3,2.7l-0.8-0.9l5.2-4.8l0.8,0.9l-0.8,0.8
	c0.5-0.1,1-0.1,1.4,0.1c0.4,0.1,0.8,0.4,1.1,0.8c0.6,0.6,0.8,1.2,0.7,1.9S238.5,348.3,237.8,349z M242.9,355l-3,2.8l-0.8-0.9
	l0.8-0.7c-0.5,0.1-1,0.1-1.4-0.1c-0.4-0.1-0.8-0.4-1.2-0.9c-0.5-0.5-0.7-1.1-0.7-1.7s0.3-1.1,0.8-1.6c0.6-0.5,1.2-0.8,1.9-0.6
	c0.7,0.1,1.4,0.6,2.1,1.4l1.1,1.2l0.1-0.1c0.4-0.4,0.6-0.8,0.6-1.2c0-0.5-0.2-0.9-0.7-1.4c-0.3-0.3-0.6-0.5-0.9-0.8
	s-0.7-0.4-1.1-0.5l0.8-0.7c0.4,0.2,0.8,0.4,1.1,0.7c0.3,0.2,0.6,0.5,0.9,0.8c0.7,0.8,1,1.5,1,2.2C244.2,353.5,243.7,354.2,242.9,355
	z M241.8,354.5l-0.8-0.9c-0.6-0.7-1.2-1.1-1.6-1.2c-0.4-0.1-0.8,0-1.2,0.3c-0.3,0.3-0.5,0.6-0.4,1c0,0.4,0.2,0.7,0.5,1.1
	c0.4,0.5,0.9,0.7,1.6,0.7c0.6,0,1.2-0.3,1.8-0.8L241.8,354.5z M248.7,361l-3.2,2.9l-0.8-0.9l3.1-2.9c0.5-0.4,0.8-0.9,0.9-1.3
	c0.1-0.4-0.1-0.8-0.4-1.2c-0.4-0.5-0.9-0.7-1.5-0.7c-0.5,0-1.1,0.2-1.6,0.7l-3,2.7l-0.8-0.9l5.2-4.8l0.8,0.9l-0.8,0.8
	c0.5-0.1,1,0,1.4,0.1s0.8,0.4,1.1,0.8c0.6,0.6,0.8,1.2,0.7,1.9C249.9,359.6,249.5,360.3,248.7,361z M253.9,359.4l0.8,0.9l-1.5,1.4
	l1.6,1.8l-0.7,0.6l-1.6-1.8l-2.8,2.6c-0.4,0.4-0.7,0.7-0.7,0.9c0,0.2,0.1,0.5,0.5,0.9l0.8,0.9l-0.7,0.7l-0.8-0.9
	c-0.6-0.7-0.9-1.2-0.9-1.7c0-0.5,0.4-1,1-1.6l2.9-2.6l-0.6-0.6l0.7-0.6l0.6,0.6L253.9,359.4z M257.3,370.7l-3,2.7l-0.8-0.9l0.8-0.7
	c-0.5,0.1-1,0.1-1.4-0.1c-0.4-0.2-0.8-0.5-1.2-0.9c-0.5-0.5-0.7-1.1-0.7-1.7c0-0.6,0.3-1.1,0.8-1.6c0.6-0.5,1.2-0.8,1.9-0.6
	c0.7,0.1,1.4,0.6,2.1,1.4l1.1,1.2l0.1-0.1c0.4-0.4,0.6-0.8,0.6-1.2c0-0.5-0.2-0.9-0.7-1.4c-0.3-0.3-0.6-0.6-0.9-0.8
	c-0.3-0.2-0.7-0.4-1.1-0.5l0.8-0.7c0.4,0.2,0.8,0.4,1.1,0.7c0.3,0.2,0.6,0.5,0.9,0.8c0.7,0.8,1,1.5,1,2.2
	C258.6,369.2,258.1,370,257.3,370.7z M256.2,370.1l-0.8-0.9c-0.6-0.7-1.2-1.1-1.6-1.2c-0.4-0.1-0.8,0-1.2,0.4
	c-0.3,0.3-0.5,0.6-0.5,1c0,0.4,0.2,0.7,0.5,1.1c0.4,0.5,1,0.7,1.6,0.7c0.6,0,1.2-0.3,1.8-0.8L256.2,370.1z M257.5,375.3l-2.8,2.5
	L254,377l7.2-6.6l0.8,0.9l-0.8,0.7c0.5-0.1,0.9-0.1,1.3,0c0.4,0.1,0.8,0.4,1.1,0.8c0.6,0.6,0.8,1.4,0.7,2.2
	c-0.1,0.9-0.6,1.7-1.4,2.4c-0.8,0.8-1.7,1.2-2.5,1.2s-1.6-0.2-2.2-0.9c-0.4-0.4-0.6-0.8-0.7-1.2
	C257.4,376.2,257.4,375.8,257.5,375.3z M262,376.6c0.6-0.6,1-1.2,1.1-1.8c0.1-0.6,0-1.1-0.4-1.6c-0.4-0.5-0.9-0.7-1.5-0.6
	c-0.6,0.1-1.2,0.4-1.8,1c-0.6,0.6-1,1.2-1.1,1.8c-0.1,0.6,0,1.1,0.5,1.6c0.4,0.5,0.9,0.6,1.5,0.6C260.8,377.5,261.4,377.1,262,376.6
	z M263.5,379.3l3.2-2.9l0.8,0.9l-3.1,2.9c-0.5,0.5-0.8,0.9-0.9,1.3c-0.1,0.4,0.1,0.8,0.4,1.2c0.4,0.5,0.9,0.7,1.4,0.7
	c0.6,0,1.1-0.2,1.6-0.7l3-2.7l0.8,0.9l-5.2,4.8l-0.8-0.9l0.8-0.7c-0.5,0.1-1,0-1.4-0.1c-0.4-0.1-0.8-0.4-1.1-0.8
	c-0.5-0.6-0.8-1.2-0.7-1.9C262.4,380.6,262.8,380,263.5,379.3z M275.2,385.5l-0.9,0.8c0-0.1-0.1-0.3-0.2-0.4
	c-0.1-0.1-0.2-0.3-0.3-0.4c-0.5-0.5-1-0.7-1.5-0.7c-0.5,0-1.1,0.3-1.7,0.9l-2.8,2.5l-0.8-0.9l5.2-4.8l0.8,0.9l-0.8,0.7
	c0.5-0.1,0.9-0.1,1.4,0.1c0.4,0.1,0.8,0.4,1.2,0.8c0,0.1,0.1,0.1,0.2,0.2C275.1,385.3,275.2,385.4,275.2,385.5z" />
	<path id="Chittoor_1_" class="st2" d="M307.8,413.2v1.4c-0.4-0.4-0.9-0.7-1.4-0.9c-0.5-0.2-1-0.3-1.6-0.3c-1.1,0-1.9,0.3-2.5,1
	c-0.6,0.7-0.9,1.6-0.9,2.9s0.3,2.2,0.9,2.9c0.6,0.7,1.4,1,2.5,1c0.6,0,1.1-0.1,1.6-0.3c0.5-0.2,1-0.5,1.4-0.9v1.3
	c-0.5,0.3-0.9,0.5-1.4,0.7s-1,0.2-1.6,0.2c-1.4,0-2.6-0.4-3.4-1.3c-0.8-0.9-1.2-2.1-1.2-3.6c0-1.5,0.4-2.7,1.2-3.6
	c0.8-0.9,2-1.3,3.4-1.3c0.6,0,1.1,0.1,1.6,0.2C306.9,412.7,307.3,413,307.8,413.2z M315.6,417.7v4.3h-1.2v-4.2
	c0-0.7-0.1-1.2-0.4-1.5c-0.3-0.3-0.6-0.5-1.2-0.5c-0.6,0-1.1,0.2-1.5,0.6c-0.4,0.4-0.6,1-0.6,1.6v4h-1.2v-9.9h1.2v3.9
	c0.3-0.4,0.6-0.8,1-1c0.4-0.2,0.8-0.3,1.3-0.3c0.8,0,1.4,0.2,1.8,0.8C315.4,416,315.6,416.7,315.6,417.7z M318,422v-7.1h1.2v7.1H318
	z M318,413.6v-1.5h1.2v1.5H318z M321.5,412.9h1.2v2h2.4v0.9h-2.4v3.9c0,0.6,0.1,0.9,0.2,1.1c0.2,0.2,0.5,0.2,1,0.2h1.2v1h-1.2
	c-0.9,0-1.5-0.2-1.9-0.5c-0.3-0.3-0.5-1-0.5-1.8v-3.9h-0.9v-0.9h0.9V412.9z M326.6,412.9h1.2v2h2.4v0.9h-2.4v3.9
	c0,0.6,0.1,0.9,0.2,1.1c0.2,0.2,0.5,0.2,1,0.2h1.2v1H329c-0.9,0-1.5-0.2-1.9-0.5c-0.4-0.3-0.5-1-0.5-1.8v-3.9h-0.9v-0.9h0.9V412.9z
	 M334.5,414.7c1,0,1.8,0.3,2.4,1c0.6,0.7,0.9,1.6,0.9,2.7c0,1.2-0.3,2.1-0.9,2.7c-0.6,0.7-1.4,1-2.4,1c-1,0-1.8-0.3-2.4-1
	c-0.6-0.7-0.9-1.6-0.9-2.7c0-1.2,0.3-2.1,0.9-2.7C332.7,415,333.5,414.7,334.5,414.7z M334.5,415.7c-0.6,0-1.1,0.2-1.5,0.7
	c-0.4,0.5-0.5,1.1-0.5,2c0,0.8,0.2,1.5,0.5,2c0.4,0.5,0.9,0.7,1.5,0.7s1.1-0.2,1.5-0.7c0.4-0.5,0.6-1.2,0.6-2c0-0.8-0.2-1.5-0.6-2
	C335.6,416,335.1,415.7,334.5,415.7z M342.5,414.7c1,0,1.8,0.3,2.4,1c0.6,0.7,0.9,1.6,0.9,2.7c0,1.2-0.3,2.1-0.9,2.7
	c-0.6,0.7-1.4,1-2.4,1c-1,0-1.8-0.3-2.4-1c-0.6-0.7-0.9-1.6-0.9-2.7c0-1.2,0.3-2.1,0.9-2.7C340.6,415,341.5,414.7,342.5,414.7z
	 M342.5,415.7c-0.6,0-1.1,0.2-1.5,0.7c-0.4,0.5-0.5,1.1-0.5,2c0,0.8,0.2,1.5,0.5,2c0.4,0.5,0.9,0.7,1.5,0.7c0.6,0,1.1-0.2,1.5-0.7
	c0.4-0.5,0.5-1.2,0.5-2c0-0.8-0.2-1.5-0.5-2C343.6,416,343.1,415.7,342.5,415.7z M351.8,414.8l0,1.2c-0.1-0.1-0.3-0.1-0.4-0.2
	c-0.1,0-0.3-0.1-0.5-0.1c-0.7,0-1.2,0.2-1.5,0.6c-0.4,0.4-0.5,1-0.5,1.8v3.8h-1.2v-7.1h1.2v1.1c0.2-0.4,0.6-0.8,1-1
	c0.4-0.2,0.9-0.3,1.4-0.3c0.1,0,0.2,0,0.3,0C351.5,414.8,351.7,414.8,351.8,414.8z" />
	<path id="East_Godavari_1_" class="st2" d="M480.9,197v-9.5h6v1.1h-4.7v2.8h4.5v1.1h-4.5v3.4h4.8v1.1H480.9z M494.6,192.9v4.1h-1.2
	v-1.1c-0.3,0.4-0.6,0.8-1,1c-0.4,0.2-0.9,0.3-1.5,0.3c-0.7,0-1.3-0.2-1.7-0.6c-0.4-0.4-0.6-1-0.6-1.6c0-0.8,0.3-1.4,0.8-1.8
	c0.5-0.4,1.3-0.6,2.4-0.6h1.6v-0.1c0-0.5-0.2-1-0.5-1.2c-0.4-0.3-0.8-0.4-1.5-0.4c-0.4,0-0.8,0-1.2,0.1c-0.4,0.1-0.8,0.2-1.1,0.4
	v-1.1c0.4-0.2,0.8-0.3,1.2-0.4c0.4-0.1,0.8-0.1,1.2-0.1c1,0,1.8,0.3,2.3,0.8C494.4,191.1,494.6,191.9,494.6,192.9z M493.5,193.4
	h-1.2c-0.9,0-1.6,0.1-2,0.3c-0.4,0.2-0.5,0.6-0.5,1.1c0,0.4,0.1,0.8,0.4,1c0.3,0.2,0.6,0.4,1.1,0.4c0.6,0,1.2-0.2,1.6-0.7
	c0.4-0.5,0.6-1.1,0.6-1.8V193.4z M501.6,190.1v1.1c-0.3-0.2-0.7-0.3-1-0.4c-0.4-0.1-0.7-0.1-1.1-0.1c-0.6,0-1,0.1-1.3,0.3
	c-0.3,0.2-0.4,0.4-0.4,0.8c0,0.3,0.1,0.5,0.3,0.6c0.2,0.2,0.6,0.3,1.2,0.4l0.4,0.1c0.8,0.2,1.4,0.4,1.8,0.8c0.3,0.3,0.5,0.8,0.5,1.3
	c0,0.7-0.3,1.2-0.8,1.6c-0.5,0.4-1.2,0.6-2.1,0.6c-0.4,0-0.8,0-1.2-0.1c-0.4-0.1-0.8-0.2-1.3-0.3v-1.2c0.4,0.2,0.9,0.4,1.3,0.5
	c0.4,0.1,0.8,0.2,1.2,0.2c0.5,0,1-0.1,1.3-0.3c0.3-0.2,0.5-0.5,0.5-0.8c0-0.3-0.1-0.6-0.3-0.7c-0.2-0.2-0.7-0.3-1.4-0.5l-0.4-0.1
	c-0.7-0.1-1.2-0.4-1.6-0.7c-0.3-0.3-0.5-0.8-0.5-1.3c0-0.7,0.2-1.2,0.7-1.5c0.5-0.4,1.2-0.6,2-0.6c0.4,0,0.8,0,1.2,0.1
	C500.9,189.9,501.2,190,501.6,190.1z M503.8,187.9h1.2v2h2.4v0.9H505v3.9c0,0.6,0.1,0.9,0.2,1.1c0.2,0.2,0.5,0.2,1,0.2h1.2v1h-1.2
	c-0.9,0-1.5-0.2-1.9-0.5c-0.3-0.3-0.5-0.9-0.5-1.8v-3.9h-0.9v-0.9h0.9V187.9z M519.5,195.6v-2.5h-2.1v-1.1h3.4v4.1
	c-0.5,0.4-1,0.6-1.6,0.8c-0.6,0.2-1.2,0.3-1.9,0.3c-1.5,0-2.6-0.4-3.5-1.3c-0.8-0.9-1.2-2.1-1.2-3.6s0.4-2.8,1.2-3.6
	c0.8-0.9,2-1.3,3.5-1.3c0.6,0,1.2,0.1,1.8,0.2c0.5,0.1,1.1,0.4,1.5,0.7v1.4c-0.5-0.4-1-0.7-1.5-0.9c-0.5-0.2-1.1-0.3-1.7-0.3
	c-1.2,0-2,0.3-2.6,1c-0.6,0.6-0.9,1.6-0.9,2.9s0.3,2.2,0.9,2.9c0.6,0.6,1.5,1,2.6,1c0.5,0,0.9,0,1.2-0.1
	C518.9,195.9,519.3,195.8,519.5,195.6z M525.9,189.7c1,0,1.8,0.3,2.4,1c0.6,0.7,0.9,1.6,0.9,2.7s-0.3,2.1-0.9,2.7s-1.4,1-2.4,1
	c-1,0-1.8-0.3-2.4-1c-0.6-0.7-0.9-1.6-0.9-2.7s0.3-2.1,0.9-2.7C524,190.1,524.8,189.7,525.9,189.7z M525.9,190.7
	c-0.6,0-1.1,0.2-1.5,0.7c-0.4,0.5-0.5,1.2-0.5,2c0,0.9,0.2,1.5,0.5,2c0.4,0.5,0.9,0.7,1.5,0.7s1.1-0.2,1.5-0.7
	c0.4-0.5,0.5-1.2,0.5-2c0-0.8-0.2-1.5-0.5-2C527,191,526.5,190.7,525.9,190.7z M535.7,191v-3.9h1.2v9.9h-1.2v-1.1
	c-0.2,0.4-0.6,0.7-0.9,1c-0.4,0.2-0.8,0.3-1.3,0.3c-0.9,0-1.6-0.3-2.1-1c-0.5-0.7-0.8-1.6-0.8-2.7c0-1.1,0.3-2,0.8-2.7
	c0.5-0.7,1.2-1,2.1-1c0.5,0,1,0.1,1.3,0.3C535.2,190.2,535.5,190.5,535.7,191z M531.8,193.4c0,0.9,0.2,1.5,0.5,2
	c0.4,0.5,0.8,0.7,1.5,0.7c0.6,0,1.1-0.2,1.5-0.7c0.3-0.5,0.5-1.2,0.5-2s-0.2-1.5-0.5-2c-0.4-0.5-0.9-0.7-1.5-0.7
	c-0.6,0-1.1,0.2-1.5,0.7C531.9,191.9,531.8,192.6,531.8,193.4z M544.9,192.9v4.1h-1.2v-1.1c-0.3,0.4-0.6,0.8-1,1
	c-0.4,0.2-0.9,0.3-1.5,0.3c-0.7,0-1.3-0.2-1.7-0.6c-0.4-0.4-0.6-1-0.6-1.6c0-0.8,0.3-1.4,0.8-1.8c0.5-0.4,1.3-0.6,2.4-0.6h1.6v-0.1
	c0-0.5-0.2-1-0.5-1.2c-0.3-0.3-0.8-0.4-1.5-0.4c-0.4,0-0.8,0-1.2,0.1c-0.4,0.1-0.8,0.2-1.1,0.4v-1.1c0.4-0.2,0.8-0.3,1.2-0.4
	c0.4-0.1,0.8-0.1,1.2-0.1c1,0,1.8,0.3,2.3,0.8S544.9,191.9,544.9,192.9z M543.7,193.4h-1.2c-0.9,0-1.6,0.1-2,0.3
	c-0.4,0.2-0.5,0.6-0.5,1.1c0,0.4,0.1,0.8,0.4,1c0.3,0.2,0.7,0.4,1.1,0.4c0.7,0,1.2-0.2,1.6-0.7c0.4-0.5,0.6-1.1,0.6-1.8V193.4z
	 M549.1,197l-2.7-7.1h1.2l2.2,6l2.2-6h1.2l-2.7,7.1H549.1z M560.5,192.9v4.1h-1.2v-1.1c-0.3,0.4-0.6,0.8-1,1
	c-0.4,0.2-0.9,0.3-1.5,0.3c-0.7,0-1.3-0.2-1.7-0.6c-0.4-0.4-0.6-1-0.6-1.6c0-0.8,0.3-1.4,0.8-1.8c0.5-0.4,1.3-0.6,2.4-0.6h1.6v-0.1
	c0-0.5-0.2-1-0.5-1.2c-0.4-0.3-0.8-0.4-1.5-0.4c-0.4,0-0.8,0-1.2,0.1c-0.4,0.1-0.8,0.2-1.1,0.4v-1.1c0.4-0.2,0.8-0.3,1.2-0.4
	c0.4-0.1,0.8-0.1,1.2-0.1c1,0,1.8,0.3,2.3,0.8S560.5,191.9,560.5,192.9z M559.4,193.4h-1.2c-0.9,0-1.6,0.1-2,0.3
	c-0.4,0.2-0.5,0.6-0.5,1.1c0,0.4,0.1,0.8,0.4,1c0.3,0.2,0.7,0.4,1.1,0.4c0.7,0,1.2-0.2,1.6-0.7c0.4-0.5,0.6-1.1,0.6-1.8V193.4z
	 M567,189.8l0,1.2c-0.1-0.1-0.3-0.1-0.4-0.2c-0.2,0-0.3-0.1-0.5-0.1c-0.7,0-1.2,0.2-1.5,0.7c-0.3,0.4-0.5,1-0.5,1.8v3.8h-1.2v-7.1
	h1.2v1.1c0.2-0.4,0.6-0.8,1-1c0.4-0.2,0.9-0.3,1.4-0.3c0.1,0,0.2,0,0.3,0C566.8,189.8,566.9,189.8,567,189.8z M568.3,197v-7.1h1.2
	v7.1H568.3z M568.3,188.6v-1.5h1.2v1.5H568.3z" />
	<path id="Guntur_1_" d="M357.1,238.6v-2.5H355v-1.1h3.4v4.1c-0.5,0.4-1,0.6-1.6,0.8c-0.6,0.2-1.2,0.3-1.9,0.3
	c-1.5,0-2.6-0.4-3.5-1.3c-0.8-0.9-1.2-2.1-1.2-3.6s0.4-2.8,1.2-3.6c0.8-0.9,2-1.3,3.5-1.3c0.6,0,1.2,0.1,1.8,0.2
	c0.6,0.1,1.1,0.4,1.5,0.7v1.4c-0.5-0.4-1-0.7-1.5-0.9c-0.5-0.2-1.1-0.3-1.7-0.3c-1.2,0-2,0.3-2.6,1c-0.6,0.6-0.9,1.6-0.9,2.9
	s0.3,2.2,0.9,2.9c0.6,0.6,1.5,1,2.6,1c0.4,0,0.9,0,1.2-0.1C356.5,238.9,356.8,238.8,357.1,238.6z M360.5,237.2v-4.3h1.2v4.3
	c0,0.7,0.1,1.2,0.4,1.5c0.3,0.3,0.7,0.5,1.2,0.5c0.6,0,1.1-0.2,1.5-0.6c0.4-0.4,0.6-1,0.6-1.7v-4h1.2v7.1h-1.2v-1.1
	c-0.3,0.4-0.6,0.8-1,1c-0.4,0.2-0.8,0.3-1.3,0.3c-0.8,0-1.4-0.2-1.9-0.8C360.7,238.9,360.5,238.2,360.5,237.2z M363.5,232.7
	L363.5,232.7z M374.8,235.7v4.3h-1.2v-4.2c0-0.7-0.1-1.2-0.4-1.5c-0.3-0.3-0.7-0.5-1.2-0.5c-0.6,0-1.1,0.2-1.5,0.6
	c-0.4,0.4-0.5,0.9-0.5,1.6v4h-1.2v-7.1h1.2v1.1c0.3-0.4,0.6-0.8,1-1c0.4-0.2,0.8-0.3,1.3-0.3c0.8,0,1.4,0.2,1.9,0.8
	C374.6,234,374.8,234.7,374.8,235.7z M377.1,230.9h1.2v2h2.4v0.9h-2.4v3.9c0,0.6,0.1,0.9,0.2,1.1c0.2,0.2,0.5,0.2,1,0.2h1.2v1h-1.2
	c-0.9,0-1.5-0.2-1.9-0.5c-0.3-0.3-0.5-0.9-0.5-1.8v-3.9h-0.9v-0.9h0.9V230.9z M382.1,237.2v-4.3h1.2v4.3c0,0.7,0.1,1.2,0.4,1.5
	c0.3,0.3,0.6,0.5,1.2,0.5c0.6,0,1.1-0.2,1.5-0.6c0.4-0.4,0.6-1,0.6-1.7v-4h1.2v7.1h-1.2v-1.1c-0.3,0.4-0.6,0.8-1,1
	c-0.4,0.2-0.8,0.3-1.3,0.3c-0.8,0-1.4-0.2-1.9-0.8C382.3,238.9,382.1,238.2,382.1,237.2z M385,232.7L385,232.7z M394.6,232.8l0,1.2
	c-0.1-0.1-0.3-0.1-0.4-0.2c-0.2,0-0.3-0.1-0.5-0.1c-0.7,0-1.2,0.2-1.5,0.7c-0.3,0.4-0.5,1-0.5,1.8v3.8h-1.2v-7.1h1.2v1.1
	c0.2-0.4,0.6-0.8,1-1c0.4-0.2,0.9-0.3,1.4-0.3c0.1,0,0.2,0,0.3,0C394.3,232.8,394.5,232.8,394.6,232.8z" />
	<path id="Krishna_1_" class="st2"
		d="M424.7,262v-9.5h1.3v4l4.2-4h1.6l-4.7,4.4l5,5.1h-1.7l-4.6-4.6v4.6H424.7z M437.3,254.8l0,1.2
	c-0.1-0.1-0.3-0.1-0.4-0.2c-0.1,0-0.3-0.1-0.5-0.1c-0.7,0-1.2,0.2-1.5,0.7c-0.4,0.4-0.5,1-0.5,1.8v3.8h-1.2v-7.1h1.2v1.1
	c0.2-0.4,0.6-0.8,1-1c0.4-0.2,0.9-0.3,1.4-0.3c0.1,0,0.2,0,0.3,0C437,254.8,437.1,254.8,437.3,254.8z M438.5,262v-7.1h1.2v7.1H438.5
	z M438.5,253.6v-1.5h1.2v1.5H438.5z M446.6,255.1v1.1c-0.3-0.2-0.7-0.3-1-0.4c-0.3-0.1-0.7-0.1-1.1-0.1c-0.6,0-1,0.1-1.3,0.3
	c-0.3,0.2-0.4,0.4-0.4,0.8c0,0.3,0.1,0.5,0.3,0.6c0.2,0.1,0.6,0.3,1.2,0.4l0.4,0.1c0.8,0.2,1.4,0.4,1.8,0.8c0.4,0.3,0.5,0.8,0.5,1.4
	c0,0.7-0.3,1.2-0.8,1.6c-0.5,0.4-1.2,0.6-2.2,0.6c-0.4,0-0.8,0-1.2-0.1c-0.4-0.1-0.9-0.2-1.3-0.3v-1.2c0.4,0.2,0.9,0.4,1.3,0.5
	c0.4,0.1,0.8,0.2,1.2,0.2c0.6,0,1-0.1,1.3-0.3c0.3-0.2,0.4-0.5,0.4-0.8c0-0.3-0.1-0.6-0.3-0.7c-0.2-0.2-0.7-0.3-1.4-0.5l-0.4-0.1
	c-0.7-0.1-1.2-0.4-1.6-0.7c-0.3-0.3-0.5-0.8-0.5-1.3c0-0.7,0.2-1.2,0.7-1.5c0.5-0.4,1.1-0.6,2-0.6c0.4,0,0.8,0,1.2,0.1
	C446,254.9,446.3,255,446.6,255.1z M454.8,257.7v4.3h-1.2v-4.2c0-0.7-0.1-1.2-0.4-1.5c-0.3-0.3-0.7-0.5-1.2-0.5
	c-0.6,0-1.1,0.2-1.5,0.6c-0.4,0.4-0.5,1-0.5,1.6v4h-1.2v-9.9h1.2v3.9c0.3-0.4,0.6-0.8,1-1c0.4-0.2,0.8-0.3,1.3-0.3
	c0.8,0,1.4,0.2,1.9,0.8C454.6,256,454.8,256.7,454.8,257.7z M463,257.7v4.3h-1.2v-4.2c0-0.7-0.1-1.2-0.4-1.5
	c-0.3-0.3-0.7-0.5-1.2-0.5c-0.6,0-1.1,0.2-1.5,0.6c-0.4,0.4-0.5,1-0.5,1.6v4h-1.2v-7.1h1.2v1.1c0.3-0.4,0.6-0.8,1-1
	c0.4-0.2,0.8-0.3,1.3-0.3c0.8,0,1.4,0.2,1.9,0.8C462.8,256,463,256.7,463,257.7z M470.9,257.9v4.1h-1.2v-1.1c-0.3,0.4-0.6,0.8-1,1
	c-0.4,0.2-0.9,0.3-1.5,0.3c-0.7,0-1.3-0.2-1.7-0.6s-0.6-1-0.6-1.6c0-0.8,0.3-1.4,0.8-1.8c0.5-0.4,1.3-0.6,2.4-0.6h1.6v-0.1
	c0-0.5-0.2-1-0.5-1.2c-0.4-0.3-0.9-0.4-1.5-0.4c-0.4,0-0.8,0-1.2,0.1c-0.4,0.1-0.8,0.2-1.1,0.4v-1.1c0.4-0.2,0.8-0.3,1.2-0.4
	c0.4-0.1,0.8-0.1,1.2-0.1c1,0,1.8,0.3,2.3,0.8C470.7,256,470.9,256.9,470.9,257.9z M469.8,258.4h-1.2c-0.9,0-1.6,0.1-2,0.3
	c-0.4,0.2-0.6,0.6-0.6,1.1c0,0.4,0.1,0.8,0.4,1c0.3,0.2,0.7,0.4,1.1,0.4c0.7,0,1.2-0.2,1.6-0.7c0.4-0.5,0.6-1.1,0.6-1.8V258.4z" />
	<path id="Kurnool_1_" class="st2" d="M242,290v-9.5h1.3v4l4.3-4h1.6l-4.7,4.4l5,5.1h-1.7l-4.6-4.6v4.6H242z M249.7,287.2v-4.3h1.2
	v4.3c0,0.7,0.1,1.2,0.4,1.5c0.3,0.3,0.7,0.5,1.2,0.5c0.6,0,1.1-0.2,1.5-0.6c0.4-0.4,0.6-1,0.6-1.6v-4h1.2v7.1h-1.2v-1.1
	c-0.3,0.4-0.6,0.8-1,1c-0.4,0.2-0.8,0.3-1.3,0.3c-0.8,0-1.4-0.2-1.9-0.8C249.9,288.9,249.7,288.2,249.7,287.2z M262.1,282.8l0,1.2
	c-0.1-0.1-0.3-0.1-0.4-0.2c-0.1,0-0.3-0.1-0.5-0.1c-0.7,0-1.2,0.2-1.5,0.6c-0.4,0.4-0.5,1-0.5,1.8v3.8H258v-7.1h1.2v1.1
	c0.2-0.4,0.6-0.8,1-1c0.4-0.2,0.9-0.3,1.4-0.3c0.1,0,0.2,0,0.3,0C261.9,282.8,262,282.8,262.1,282.8z M269,285.7v4.3h-1.2v-4.2
	c0-0.7-0.1-1.2-0.4-1.5c-0.3-0.3-0.6-0.5-1.2-0.5c-0.6,0-1.1,0.2-1.5,0.6c-0.4,0.4-0.6,1-0.6,1.6v4h-1.2v-7.1h1.2v1.1
	c0.3-0.4,0.6-0.8,1-1c0.4-0.2,0.8-0.3,1.3-0.3c0.8,0,1.4,0.2,1.9,0.8C268.8,284,269,284.7,269,285.7z M274.1,282.7
	c1,0,1.8,0.3,2.4,1s0.9,1.6,0.9,2.7c0,1.2-0.3,2.1-0.9,2.7s-1.4,1-2.4,1c-1,0-1.8-0.3-2.4-1c-0.6-0.7-0.9-1.6-0.9-2.7
	c0-1.2,0.3-2.1,0.9-2.7C272.3,283,273.1,282.7,274.1,282.7z M274.1,283.7c-0.6,0-1.1,0.2-1.5,0.7c-0.4,0.5-0.5,1.1-0.5,2
	c0,0.8,0.2,1.5,0.5,2c0.4,0.5,0.9,0.7,1.5,0.7c0.6,0,1.1-0.2,1.5-0.7c0.4-0.5,0.5-1.2,0.5-2c0-0.8-0.2-1.5-0.5-2
	C275.2,284,274.8,283.7,274.1,283.7z M282.1,282.7c1,0,1.8,0.3,2.4,1c0.6,0.7,0.9,1.6,0.9,2.7c0,1.2-0.3,2.1-0.9,2.7
	c-0.6,0.7-1.4,1-2.4,1s-1.8-0.3-2.4-1c-0.6-0.7-0.9-1.6-0.9-2.7c0-1.2,0.3-2.1,0.9-2.7C280.3,283,281.1,282.7,282.1,282.7z
	 M282.1,283.7c-0.6,0-1.1,0.2-1.5,0.7c-0.4,0.5-0.5,1.1-0.5,2c0,0.8,0.2,1.5,0.5,2c0.4,0.5,0.9,0.7,1.5,0.7s1.1-0.2,1.5-0.7
	c0.4-0.5,0.5-1.2,0.5-2c0-0.8-0.2-1.5-0.5-2C283.2,284,282.7,283.7,282.1,283.7z M287.3,290v-9.9h1.2v9.9H287.3z" />
	<path id="Nellore_1_" class="st2" d="M377.3,375v-9.5h1.7l4.2,7.9v-7.9h1.2v9.5h-1.7l-4.2-7.9v7.9H377.3z M393.1,371.1v0.6h-5.4
	c0.1,0.8,0.3,1.4,0.7,1.9c0.4,0.4,1,0.6,1.8,0.6c0.5,0,0.9,0,1.3-0.2c0.4-0.1,0.8-0.3,1.2-0.5v1.1c-0.4,0.2-0.8,0.3-1.3,0.4
	c-0.4,0.1-0.9,0.1-1.3,0.1c-1.1,0-2-0.3-2.7-1s-1-1.5-1-2.7c0-1.2,0.3-2.1,0.9-2.8c0.6-0.7,1.5-1,2.5-1c1,0,1.7,0.3,2.3,0.9
	C392.8,369.3,393.1,370.1,393.1,371.1z M387.7,370.8l4.2,0c0-0.6-0.2-1.1-0.5-1.5s-0.8-0.6-1.4-0.6c-0.6,0-1.2,0.2-1.6,0.6
	C388,369.6,387.8,370.1,387.7,370.8z M395,375v-9.9h1.2v9.9H395z M398.6,375v-9.9h1.2v9.9H398.6z M405,367.7c1,0,1.8,0.3,2.4,1
	c0.6,0.7,0.9,1.6,0.9,2.7c0,1.2-0.3,2.1-0.9,2.7c-0.6,0.7-1.4,1-2.4,1s-1.8-0.3-2.4-1c-0.6-0.7-0.9-1.6-0.9-2.7
	c0-1.2,0.3-2.1,0.9-2.7C403.1,368,404,367.7,405,367.7z M405,368.7c-0.6,0-1.1,0.2-1.5,0.7c-0.4,0.5-0.5,1.1-0.5,2
	c0,0.8,0.2,1.5,0.5,2c0.4,0.5,0.9,0.7,1.5,0.7s1.1-0.2,1.5-0.7c0.4-0.5,0.5-1.2,0.5-2c0-0.8-0.2-1.5-0.5-2
	C406.1,369,405.6,368.7,405,368.7z M414.3,367.8l0,1.2c-0.1-0.1-0.3-0.1-0.4-0.2c-0.1,0-0.3-0.1-0.5-0.1c-0.7,0-1.2,0.2-1.5,0.6
	c-0.3,0.4-0.5,1-0.5,1.8v3.8h-1.2v-7.1h1.2v1.1c0.2-0.4,0.6-0.8,1-1c0.4-0.2,0.9-0.3,1.4-0.3c0.1,0,0.2,0,0.3,0
	C414.1,367.8,414.2,367.8,414.3,367.8z M421.3,371.1v0.6h-5.4c0,0.8,0.3,1.4,0.7,1.9c0.4,0.4,1,0.6,1.8,0.6c0.4,0,0.9,0,1.3-0.2
	c0.4-0.1,0.9-0.3,1.3-0.5v1.1c-0.4,0.2-0.9,0.3-1.3,0.4s-0.9,0.1-1.3,0.1c-1.1,0-2-0.3-2.7-1c-0.7-0.7-1-1.5-1-2.7
	c0-1.2,0.3-2.1,0.9-2.8c0.6-0.7,1.5-1,2.5-1c1,0,1.7,0.3,2.3,0.9C421,369.3,421.3,370.1,421.3,371.1z M416,370.8l4.2,0
	c0-0.6-0.2-1.1-0.5-1.5s-0.8-0.6-1.4-0.6c-0.6,0-1.2,0.2-1.6,0.6C416.3,369.6,416,370.1,416,370.8z" />
	<path id="Prakasam_1_" class="st2" d="M317,283v-9.5h2.9c1.1,0,1.9,0.2,2.4,0.7c0.5,0.5,0.8,1.2,0.8,2.1c0,0.9-0.3,1.6-0.8,2.1
	c-0.5,0.5-1.3,0.7-2.4,0.7h-1.6v3.8H317z M319.9,274.6h-1.6v3.6h1.6c0.6,0,1.1-0.2,1.4-0.5c0.3-0.3,0.5-0.8,0.5-1.3s-0.2-1-0.5-1.3
	C321,274.7,320.5,274.6,319.9,274.6z M328.7,275.8l0,1.2c-0.1-0.1-0.3-0.1-0.4-0.2c-0.1,0-0.3-0.1-0.5-0.1c-0.7,0-1.2,0.2-1.5,0.6
	c-0.4,0.4-0.5,1-0.5,1.8v3.8h-1.2v-7.1h1.2v1.1c0.2-0.4,0.6-0.8,1-1c0.4-0.2,0.9-0.3,1.4-0.3c0.1,0,0.2,0,0.3,0
	C328.5,275.8,328.6,275.8,328.7,275.8z M335.5,278.9v4.1h-1.2v-1.1c-0.3,0.4-0.6,0.8-1,1c-0.4,0.2-0.9,0.3-1.5,0.3
	c-0.7,0-1.3-0.2-1.7-0.6s-0.6-1-0.6-1.6c0-0.8,0.3-1.4,0.8-1.8s1.3-0.6,2.4-0.6h1.6v-0.1c0-0.5-0.2-1-0.5-1.2s-0.9-0.4-1.5-0.4
	c-0.4,0-0.8,0.1-1.2,0.1c-0.4,0.1-0.8,0.2-1.1,0.4v-1.1c0.4-0.2,0.8-0.3,1.2-0.4c0.4-0.1,0.8-0.1,1.2-0.1c1,0,1.8,0.3,2.3,0.8
	S335.5,277.9,335.5,278.9z M334.3,279.4h-1.2c-0.9,0-1.6,0.1-2,0.3c-0.4,0.2-0.5,0.6-0.5,1.1c0,0.4,0.1,0.8,0.4,1
	c0.3,0.2,0.7,0.4,1.1,0.4c0.6,0,1.2-0.2,1.5-0.7c0.4-0.5,0.6-1.1,0.6-1.8V279.4z M337.9,283v-9.9h1.2v5.8l3.5-3.1h1.5l-3.8,3.3
	l3.9,3.8h-1.5l-3.6-3.5v3.5H337.9z M350.8,278.9v4.1h-1.2v-1.1c-0.3,0.4-0.6,0.8-1,1c-0.4,0.2-0.9,0.3-1.5,0.3
	c-0.7,0-1.3-0.2-1.7-0.6s-0.6-1-0.6-1.6c0-0.8,0.3-1.4,0.8-1.8c0.5-0.4,1.3-0.6,2.4-0.6h1.6v-0.1c0-0.5-0.2-1-0.5-1.2
	c-0.3-0.3-0.8-0.4-1.5-0.4c-0.4,0-0.8,0.1-1.2,0.1c-0.4,0.1-0.8,0.2-1.1,0.4v-1.1c0.4-0.2,0.9-0.3,1.2-0.4c0.4-0.1,0.8-0.1,1.2-0.1
	c1,0,1.8,0.3,2.3,0.8C350.5,277,350.8,277.9,350.8,278.9z M349.6,279.4h-1.2c-1,0-1.6,0.1-2,0.3c-0.4,0.2-0.5,0.6-0.5,1.1
	c0,0.4,0.1,0.8,0.4,1c0.3,0.2,0.6,0.4,1.1,0.4c0.6,0,1.2-0.2,1.5-0.7c0.4-0.5,0.6-1.1,0.6-1.8V279.4z M357.7,276.1v1.1
	c-0.3-0.2-0.7-0.3-1-0.4c-0.4-0.1-0.7-0.1-1.1-0.1c-0.6,0-1,0.1-1.3,0.3c-0.3,0.2-0.4,0.5-0.4,0.8c0,0.3,0.1,0.5,0.3,0.6
	s0.6,0.3,1.2,0.4l0.4,0.1c0.8,0.2,1.4,0.4,1.8,0.8c0.4,0.3,0.5,0.8,0.5,1.4c0,0.7-0.3,1.2-0.8,1.6c-0.5,0.4-1.2,0.6-2.1,0.6
	c-0.4,0-0.8,0-1.2-0.1c-0.4-0.1-0.9-0.2-1.3-0.3v-1.2c0.4,0.2,0.9,0.4,1.3,0.5c0.4,0.1,0.8,0.2,1.2,0.2c0.6,0,1-0.1,1.3-0.3
	c0.3-0.2,0.4-0.5,0.4-0.8c0-0.3-0.1-0.6-0.3-0.7c-0.2-0.2-0.7-0.3-1.4-0.5l-0.4-0.1c-0.7-0.1-1.2-0.4-1.6-0.7
	c-0.3-0.3-0.5-0.8-0.5-1.3c0-0.7,0.2-1.2,0.7-1.5c0.5-0.4,1.1-0.5,2-0.5c0.4,0,0.8,0,1.2,0.1C357,275.9,357.4,276,357.7,276.1z
	 M365.5,278.9v4.1h-1.2v-1.1c-0.3,0.4-0.6,0.8-1,1c-0.4,0.2-0.9,0.3-1.5,0.3c-0.7,0-1.3-0.2-1.7-0.6s-0.6-1-0.6-1.6
	c0-0.8,0.3-1.4,0.8-1.8c0.5-0.4,1.3-0.6,2.4-0.6h1.6v-0.1c0-0.5-0.2-1-0.5-1.2s-0.9-0.4-1.5-0.4c-0.4,0-0.8,0.1-1.2,0.1
	c-0.4,0.1-0.8,0.2-1.1,0.4v-1.1c0.4-0.2,0.8-0.3,1.2-0.4c0.4-0.1,0.8-0.1,1.2-0.1c1,0,1.8,0.3,2.3,0.8
	C365.3,277,365.5,277.9,365.5,278.9z M364.4,279.4h-1.2c-1,0-1.6,0.1-2,0.3c-0.4,0.2-0.6,0.6-0.6,1.1c0,0.4,0.1,0.8,0.4,1
	c0.3,0.2,0.6,0.4,1.1,0.4c0.6,0,1.2-0.2,1.6-0.7c0.4-0.5,0.6-1.1,0.6-1.8V279.4z M373.5,277.3c0.3-0.5,0.6-0.9,1.1-1.2
	s0.9-0.4,1.4-0.4c0.7,0,1.3,0.3,1.7,0.8c0.4,0.5,0.6,1.2,0.6,2.2v4.3h-1.2v-4.2c0-0.7-0.1-1.2-0.4-1.5c-0.2-0.3-0.6-0.5-1.1-0.5
	c-0.6,0-1.1,0.2-1.4,0.6c-0.4,0.4-0.5,1-0.5,1.6v4h-1.2v-4.2c0-0.7-0.1-1.2-0.4-1.5c-0.2-0.3-0.6-0.5-1.1-0.5
	c-0.6,0-1.1,0.2-1.4,0.6c-0.3,0.4-0.5,1-0.5,1.6v4h-1.2v-7.1h1.2v1.1c0.3-0.4,0.6-0.8,1-1s0.8-0.3,1.3-0.3s1,0.1,1.3,0.4
	C373,276.4,373.3,276.8,373.5,277.3z" />
	<path id="Srikakulam_1_" class="st2" d="M586.2,93.8v1.2c-0.5-0.2-1-0.4-1.4-0.5c-0.4-0.1-0.8-0.2-1.2-0.2c-0.7,0-1.2,0.1-1.6,0.4
	c-0.4,0.3-0.6,0.7-0.6,1.1c0,0.4,0.1,0.7,0.4,1c0.2,0.2,0.7,0.4,1.4,0.5l0.8,0.2c1,0.2,1.7,0.5,2.1,1c0.5,0.5,0.7,1.1,0.7,1.8
	c0,0.9-0.3,1.6-0.9,2.1c-0.6,0.5-1.5,0.7-2.7,0.7c-0.5,0-0.9-0.1-1.4-0.2c-0.5-0.1-1-0.2-1.6-0.4v-1.3c0.5,0.3,1,0.5,1.5,0.7
	s1,0.2,1.5,0.2c0.7,0,1.3-0.1,1.7-0.4c0.4-0.3,0.6-0.7,0.6-1.2c0-0.5-0.1-0.8-0.4-1.1c-0.3-0.3-0.8-0.5-1.4-0.6l-0.8-0.2
	c-1-0.2-1.7-0.5-2.1-0.9s-0.6-1-0.6-1.7c0-0.8,0.3-1.5,0.9-2c0.6-0.5,1.4-0.7,2.4-0.7c0.4,0,0.9,0,1.4,0.1
	C585.3,93.6,585.8,93.7,586.2,93.8z M592.9,95.8l0,1.2c-0.1-0.1-0.3-0.1-0.4-0.2c-0.2,0-0.3-0.1-0.5-0.1c-0.7,0-1.2,0.2-1.5,0.7
	c-0.3,0.4-0.5,1-0.5,1.8v3.8h-1.2v-7.1h1.2V97c0.2-0.4,0.6-0.8,1-1s0.9-0.3,1.4-0.3c0.1,0,0.2,0,0.3,0
	C592.7,95.8,592.8,95.8,592.9,95.8z M594.1,103v-7.1h1.2v7.1H594.1z M594.1,94.6v-1.5h1.2v1.5H594.1z M597.7,103v-9.9h1.2V99
	l3.5-3.1h1.5l-3.8,3.3l3.9,3.8h-1.5l-3.6-3.5v3.5H597.7z M610.6,98.9v4.1h-1.2v-1.1c-0.3,0.4-0.6,0.8-1,1c-0.4,0.2-0.9,0.3-1.5,0.3
	c-0.7,0-1.3-0.2-1.7-0.6c-0.4-0.4-0.6-0.9-0.6-1.6c0-0.8,0.3-1.4,0.8-1.8c0.5-0.4,1.3-0.6,2.4-0.6h1.6v-0.1c0-0.5-0.2-1-0.5-1.2
	c-0.3-0.3-0.8-0.4-1.5-0.4c-0.4,0-0.8,0.1-1.2,0.2c-0.4,0.1-0.8,0.2-1.1,0.4v-1.1c0.4-0.2,0.8-0.3,1.2-0.4c0.4-0.1,0.8-0.1,1.2-0.1
	c1,0,1.8,0.3,2.3,0.8C610.3,97.1,610.6,97.9,610.6,98.9z M609.4,99.4h-1.2c-1,0-1.6,0.1-2,0.3c-0.4,0.2-0.5,0.6-0.5,1.1
	c0,0.4,0.1,0.8,0.4,1c0.3,0.2,0.6,0.4,1.1,0.4c0.6,0,1.2-0.2,1.6-0.7c0.4-0.5,0.6-1.1,0.6-1.8V99.4z M613,103v-9.9h1.2V99l3.5-3.1
	h1.5l-3.8,3.3l3.9,3.8h-1.5l-3.6-3.5v3.5H613z M620,100.2v-4.3h1.2v4.3c0,0.7,0.1,1.2,0.4,1.5c0.3,0.3,0.7,0.5,1.2,0.5
	c0.6,0,1.1-0.2,1.5-0.6c0.4-0.4,0.6-1,0.6-1.7v-4h1.2v7.1h-1.2v-1.1c-0.3,0.4-0.6,0.8-1,1s-0.8,0.3-1.3,0.3c-0.8,0-1.4-0.2-1.9-0.8
	C620.2,101.9,620,101.2,620,100.2z M628.4,103v-9.9h1.2v9.9H628.4z M637.5,98.9v4.1h-1.2v-1.1c-0.3,0.4-0.6,0.8-1,1
	c-0.4,0.2-0.9,0.3-1.5,0.3c-0.7,0-1.3-0.2-1.7-0.6c-0.4-0.4-0.6-0.9-0.6-1.6c0-0.8,0.3-1.4,0.8-1.8c0.5-0.4,1.3-0.6,2.4-0.6h1.6
	v-0.1c0-0.5-0.2-1-0.5-1.2c-0.4-0.3-0.9-0.4-1.5-0.4c-0.4,0-0.8,0.1-1.2,0.2c-0.4,0.1-0.8,0.2-1.1,0.4v-1.1c0.4-0.2,0.8-0.3,1.2-0.4
	c0.4-0.1,0.8-0.1,1.2-0.1c1,0,1.8,0.3,2.3,0.8C637.3,97.1,637.5,97.9,637.5,98.9z M636.4,99.4h-1.2c-0.9,0-1.6,0.1-2,0.3
	s-0.5,0.6-0.5,1.1c0,0.4,0.1,0.8,0.4,1c0.3,0.2,0.7,0.4,1.1,0.4c0.7,0,1.2-0.2,1.6-0.7c0.4-0.5,0.6-1.1,0.6-1.8V99.4z M645.5,97.3
	c0.3-0.5,0.6-0.9,1.1-1.2c0.4-0.2,0.9-0.4,1.4-0.4c0.8,0,1.3,0.3,1.7,0.8c0.4,0.5,0.6,1.2,0.6,2.2v4.3h-1.2v-4.2
	c0-0.7-0.1-1.2-0.4-1.5c-0.2-0.3-0.6-0.5-1.1-0.5c-0.6,0-1.1,0.2-1.4,0.6c-0.4,0.4-0.5,1-0.5,1.6v4h-1.2v-4.2c0-0.7-0.1-1.2-0.4-1.5
	c-0.2-0.3-0.6-0.5-1.1-0.5c-0.6,0-1.1,0.2-1.4,0.6c-0.4,0.4-0.5,1-0.5,1.6v4h-1.2v-7.1h1.2V97c0.3-0.4,0.6-0.8,1-1
	c0.4-0.2,0.8-0.3,1.3-0.3c0.5,0,1,0.1,1.3,0.4C645,96.4,645.3,96.8,645.5,97.3z" />
	<path id="Visakhapatnam_1_" class="st2" d="M523.1,167h-1.5l-3.6-9.5h1.3l3,8l3-8h1.3L523.1,167z M527.8,167v-7.1h1.2v7.1H527.8z
	 M527.8,158.6v-1.5h1.2v1.5H527.8z M535.9,160.1v1.1c-0.3-0.2-0.7-0.3-1-0.4c-0.3-0.1-0.7-0.1-1.1-0.1c-0.6,0-1,0.1-1.3,0.3
	c-0.3,0.2-0.4,0.4-0.4,0.8c0,0.3,0.1,0.5,0.3,0.6c0.2,0.2,0.6,0.3,1.2,0.4l0.4,0.1c0.8,0.2,1.4,0.4,1.8,0.8c0.3,0.3,0.5,0.8,0.5,1.3
	c0,0.7-0.3,1.2-0.8,1.6c-0.5,0.4-1.2,0.6-2.1,0.6c-0.4,0-0.8,0-1.2-0.1c-0.4-0.1-0.9-0.2-1.3-0.3v-1.2c0.4,0.2,0.9,0.4,1.3,0.5
	s0.8,0.2,1.2,0.2c0.5,0,1-0.1,1.3-0.3c0.3-0.2,0.5-0.5,0.5-0.8c0-0.3-0.1-0.6-0.3-0.7c-0.2-0.2-0.7-0.3-1.4-0.5l-0.4-0.1
	c-0.7-0.1-1.2-0.4-1.6-0.7c-0.3-0.3-0.5-0.8-0.5-1.3c0-0.7,0.2-1.2,0.7-1.5c0.5-0.4,1.1-0.6,2-0.6c0.4,0,0.8,0,1.2,0.1
	C535.2,159.9,535.6,160,535.9,160.1z M543.7,162.9v4.1h-1.2v-1.1c-0.3,0.4-0.6,0.8-1,1c-0.4,0.2-0.9,0.3-1.5,0.3
	c-0.7,0-1.3-0.2-1.7-0.6c-0.4-0.4-0.6-1-0.6-1.6c0-0.8,0.3-1.4,0.8-1.8c0.5-0.4,1.3-0.6,2.4-0.6h1.6v-0.1c0-0.5-0.2-1-0.5-1.2
	c-0.3-0.3-0.8-0.4-1.5-0.4c-0.4,0-0.8,0-1.2,0.1c-0.4,0.1-0.8,0.2-1.1,0.4v-1.1c0.4-0.2,0.8-0.3,1.2-0.4c0.4-0.1,0.8-0.1,1.2-0.1
	c1,0,1.8,0.3,2.3,0.8S543.7,161.9,543.7,162.9z M542.5,163.4h-1.2c-1,0-1.6,0.1-2,0.3c-0.4,0.2-0.5,0.6-0.5,1.1c0,0.4,0.1,0.8,0.4,1
	c0.3,0.2,0.6,0.4,1.1,0.4c0.7,0,1.2-0.2,1.6-0.7c0.4-0.5,0.6-1.1,0.6-1.8V163.4z M546.1,167v-9.9h1.2v5.8l3.5-3.1h1.5l-3.8,3.3
	l3.9,3.8h-1.5l-3.6-3.5v3.5H546.1z M559.5,162.7v4.3h-1.2v-4.2c0-0.7-0.1-1.2-0.4-1.5c-0.3-0.3-0.6-0.5-1.2-0.5
	c-0.6,0-1.1,0.2-1.5,0.6c-0.4,0.4-0.5,0.9-0.5,1.6v4h-1.2v-9.9h1.2v3.9c0.3-0.4,0.6-0.8,1-1c0.4-0.2,0.8-0.3,1.3-0.3
	c0.8,0,1.4,0.2,1.8,0.8C559.3,161,559.5,161.7,559.5,162.7z M567.4,162.9v4.1h-1.2v-1.1c-0.3,0.4-0.6,0.8-1,1
	c-0.4,0.2-0.9,0.3-1.5,0.3c-0.7,0-1.3-0.2-1.7-0.6c-0.4-0.4-0.6-1-0.6-1.6c0-0.8,0.3-1.4,0.8-1.8c0.5-0.4,1.3-0.6,2.4-0.6h1.6v-0.1
	c0-0.5-0.2-1-0.5-1.2c-0.3-0.3-0.8-0.4-1.5-0.4c-0.4,0-0.8,0-1.2,0.1c-0.4,0.1-0.8,0.2-1.1,0.4v-1.1c0.4-0.2,0.8-0.3,1.2-0.4
	c0.4-0.1,0.8-0.1,1.2-0.1c1,0,1.8,0.3,2.3,0.8S567.4,161.9,567.4,162.9z M566.3,163.4h-1.2c-0.9,0-1.6,0.1-2,0.3
	c-0.4,0.2-0.5,0.6-0.5,1.1c0,0.4,0.1,0.8,0.4,1c0.3,0.2,0.7,0.4,1.1,0.4c0.7,0,1.2-0.2,1.5-0.7c0.4-0.5,0.6-1.1,0.6-1.8V163.4z
	 M571,165.9v3.8h-1.2v-9.8h1.2v1.1c0.2-0.4,0.6-0.7,0.9-0.9c0.4-0.2,0.8-0.3,1.3-0.3c0.9,0,1.6,0.3,2.1,1c0.5,0.7,0.8,1.6,0.8,2.7
	c0,1.1-0.3,2-0.8,2.7c-0.5,0.7-1.2,1-2.1,1c-0.5,0-1-0.1-1.3-0.3C571.5,166.7,571.2,166.4,571,165.9z M574.9,163.4
	c0-0.9-0.2-1.5-0.5-2c-0.3-0.5-0.8-0.7-1.5-0.7c-0.6,0-1.1,0.2-1.5,0.7c-0.3,0.5-0.5,1.2-0.5,2s0.2,1.5,0.5,2
	c0.4,0.5,0.9,0.7,1.5,0.7c0.6,0,1.1-0.2,1.5-0.7C574.8,165,574.9,164.3,574.9,163.4z M583.7,162.9v4.1h-1.2v-1.1
	c-0.3,0.4-0.6,0.8-1,1c-0.4,0.2-0.9,0.3-1.5,0.3c-0.7,0-1.3-0.2-1.7-0.6c-0.4-0.4-0.6-1-0.6-1.6c0-0.8,0.3-1.4,0.8-1.8
	c0.5-0.4,1.3-0.6,2.4-0.6h1.6v-0.1c0-0.5-0.2-1-0.5-1.2c-0.4-0.3-0.9-0.4-1.5-0.4c-0.4,0-0.8,0-1.2,0.1c-0.4,0.1-0.8,0.2-1.1,0.4
	v-1.1c0.4-0.2,0.8-0.3,1.2-0.4c0.4-0.1,0.8-0.1,1.2-0.1c1,0,1.8,0.3,2.3,0.8S583.7,161.9,583.7,162.9z M582.5,163.4h-1.2
	c-0.9,0-1.6,0.1-2,0.3s-0.5,0.6-0.5,1.1c0,0.4,0.1,0.8,0.4,1c0.3,0.2,0.7,0.4,1.1,0.4c0.6,0,1.2-0.2,1.5-0.7
	c0.4-0.5,0.6-1.1,0.6-1.8V163.4z M586,157.9h1.2v2h2.4v0.9h-2.4v3.9c0,0.6,0.1,0.9,0.2,1.1c0.2,0.2,0.5,0.2,1,0.2h1.2v1h-1.2
	c-0.9,0-1.5-0.2-1.9-0.5c-0.3-0.3-0.5-0.9-0.5-1.8v-3.9h-0.9v-0.9h0.9V157.9z M597.1,162.7v4.3h-1.2v-4.2c0-0.7-0.1-1.2-0.4-1.5
	c-0.3-0.3-0.7-0.5-1.2-0.5c-0.6,0-1.1,0.2-1.5,0.6c-0.4,0.4-0.5,0.9-0.5,1.6v4h-1.2v-7.1h1.2v1.1c0.3-0.4,0.6-0.8,1-1
	c0.4-0.2,0.8-0.3,1.3-0.3c0.8,0,1.4,0.2,1.8,0.8C596.8,161,597.1,161.7,597.1,162.7z M605,162.9v4.1h-1.2v-1.1c-0.3,0.4-0.6,0.8-1,1
	c-0.4,0.2-0.9,0.3-1.5,0.3c-0.7,0-1.3-0.2-1.7-0.6c-0.4-0.4-0.6-1-0.6-1.6c0-0.8,0.3-1.4,0.8-1.8c0.5-0.4,1.3-0.6,2.4-0.6h1.6v-0.1
	c0-0.5-0.2-1-0.5-1.2c-0.3-0.3-0.8-0.4-1.5-0.4c-0.4,0-0.8,0-1.2,0.1c-0.4,0.1-0.8,0.2-1.1,0.4v-1.1c0.4-0.2,0.8-0.3,1.2-0.4
	c0.4-0.1,0.8-0.1,1.2-0.1c1,0,1.8,0.3,2.3,0.8S605,161.9,605,162.9z M603.8,163.4h-1.2c-0.9,0-1.6,0.1-2,0.3
	c-0.4,0.2-0.5,0.6-0.5,1.1c0,0.4,0.1,0.8,0.4,1c0.3,0.2,0.6,0.4,1.1,0.4c0.6,0,1.2-0.2,1.5-0.7c0.4-0.5,0.6-1.1,0.6-1.8V163.4z
	 M612.9,161.3c0.3-0.5,0.6-0.9,1-1.2s0.9-0.4,1.4-0.4c0.7,0,1.3,0.3,1.7,0.8c0.4,0.5,0.6,1.2,0.6,2.2v4.3h-1.2v-4.2
	c0-0.7-0.1-1.2-0.4-1.5c-0.2-0.3-0.6-0.5-1.1-0.5c-0.6,0-1.1,0.2-1.4,0.6c-0.3,0.4-0.5,0.9-0.5,1.6v4h-1.2v-4.2
	c0-0.7-0.1-1.2-0.4-1.5c-0.2-0.3-0.6-0.5-1.1-0.5c-0.6,0-1.1,0.2-1.4,0.6c-0.4,0.4-0.5,0.9-0.5,1.6v4h-1.2v-7.1h1.2v1.1
	c0.3-0.4,0.6-0.8,1-1c0.4-0.2,0.8-0.3,1.3-0.3c0.5,0,1,0.1,1.3,0.4C612.5,160.4,612.7,160.8,612.9,161.3z" />
	<path id="Vizianagaram" class="st2" d="M443,79h-1.5l-3.6-9.5h1.3l3,8l3-8h1.3L443,79z M447.7,79v-7.1h1.2V79H447.7z M447.7,70.6
	v-1.5h1.2v1.5H447.7z M450.8,72.8v-0.9h5.5V73l-4.4,5.1h4.4V79h-5.7v-1.1l4.4-5.1H450.8z M458.1,79v-7.1h1.2V79H458.1z M458.1,70.6
	v-1.5h1.2v1.5H458.1z M467.3,74.9V79h-1.2v-1.1c-0.3,0.4-0.6,0.8-1,1c-0.4,0.2-0.9,0.3-1.5,0.3c-0.7,0-1.3-0.2-1.7-0.6
	c-0.4-0.4-0.6-0.9-0.6-1.6c0-0.8,0.3-1.4,0.8-1.8c0.5-0.4,1.3-0.6,2.4-0.6h1.6v-0.1c0-0.5-0.2-1-0.5-1.2c-0.3-0.3-0.8-0.4-1.5-0.4
	c-0.4,0-0.8,0.1-1.2,0.2c-0.4,0.1-0.8,0.2-1.1,0.4v-1.1c0.4-0.2,0.8-0.3,1.2-0.4c0.4-0.1,0.8-0.1,1.2-0.1c1,0,1.8,0.3,2.3,0.8
	C467,73.1,467.3,73.9,467.3,74.9z M466.1,75.4H465c-0.9,0-1.6,0.1-2,0.3c-0.4,0.2-0.5,0.6-0.5,1.1c0,0.4,0.1,0.8,0.4,1
	c0.3,0.2,0.6,0.4,1.1,0.4c0.6,0,1.2-0.2,1.5-0.7c0.4-0.5,0.6-1.1,0.6-1.8V75.4z M475.6,74.7V79h-1.2v-4.2c0-0.7-0.1-1.2-0.4-1.5
	c-0.3-0.3-0.7-0.5-1.2-0.5c-0.6,0-1.1,0.2-1.5,0.6c-0.4,0.4-0.5,1-0.5,1.6v4h-1.2v-7.1h1.2V73c0.3-0.4,0.6-0.8,1-1
	c0.4-0.2,0.8-0.3,1.3-0.3c0.8,0,1.4,0.2,1.9,0.8C475.4,73,475.6,73.7,475.6,74.7z M483.5,74.9V79h-1.2v-1.1c-0.3,0.4-0.6,0.8-1,1
	c-0.4,0.2-0.9,0.3-1.5,0.3c-0.7,0-1.3-0.2-1.7-0.6c-0.4-0.4-0.6-0.9-0.6-1.6c0-0.8,0.3-1.4,0.8-1.8c0.5-0.4,1.3-0.6,2.4-0.6h1.6
	v-0.1c0-0.5-0.2-1-0.5-1.2s-0.9-0.4-1.5-0.4c-0.4,0-0.8,0.1-1.2,0.2c-0.4,0.1-0.8,0.2-1.1,0.4v-1.1c0.4-0.2,0.8-0.3,1.2-0.4
	c0.4-0.1,0.8-0.1,1.2-0.1c1,0,1.8,0.3,2.3,0.8C483.2,73.1,483.5,73.9,483.5,74.9z M482.3,75.4h-1.2c-1,0-1.6,0.1-2,0.3
	c-0.4,0.2-0.6,0.6-0.6,1.1c0,0.4,0.1,0.8,0.4,1c0.3,0.2,0.6,0.4,1.1,0.4c0.6,0,1.2-0.2,1.6-0.7c0.4-0.5,0.6-1.1,0.6-1.8V75.4z
	 M491.7,71.9v6.2c0,1.2-0.3,2.1-0.8,2.7c-0.5,0.6-1.4,0.9-2.5,0.9c-0.4,0-0.8,0-1.2-0.1c-0.4-0.1-0.7-0.2-1.1-0.3v-1.1
	c0.4,0.2,0.7,0.3,1,0.4c0.3,0.1,0.7,0.1,1,0.1c0.8,0,1.3-0.2,1.7-0.6s0.6-1,0.6-1.8v-0.6c-0.2,0.4-0.6,0.7-0.9,0.9
	c-0.4,0.2-0.8,0.3-1.4,0.3c-0.9,0-1.6-0.3-2.1-1c-0.5-0.7-0.8-1.5-0.8-2.6s0.3-2,0.8-2.6c0.5-0.7,1.2-1,2.1-1c0.5,0,1,0.1,1.4,0.3
	c0.4,0.2,0.7,0.5,0.9,0.9v-1.1H491.7z M490.6,75.4c0-0.8-0.2-1.5-0.5-2c-0.4-0.5-0.8-0.7-1.5-0.7c-0.6,0-1.1,0.2-1.5,0.7
	c-0.3,0.5-0.5,1.1-0.5,2s0.2,1.5,0.5,2c0.4,0.5,0.8,0.7,1.5,0.7c0.6,0,1.1-0.2,1.5-0.7C490.4,76.9,490.6,76.2,490.6,75.4z
	 M499.7,74.9V79h-1.2v-1.1c-0.3,0.4-0.6,0.8-1,1c-0.4,0.2-0.9,0.3-1.5,0.3c-0.7,0-1.3-0.2-1.7-0.6c-0.4-0.4-0.6-0.9-0.6-1.6
	c0-0.8,0.3-1.4,0.8-1.8c0.5-0.4,1.3-0.6,2.4-0.6h1.6v-0.1c0-0.5-0.2-1-0.5-1.2c-0.4-0.3-0.8-0.4-1.5-0.4c-0.4,0-0.8,0.1-1.2,0.2
	c-0.4,0.1-0.8,0.2-1.1,0.4v-1.1c0.4-0.2,0.8-0.3,1.2-0.4c0.4-0.1,0.8-0.1,1.2-0.1c1,0,1.8,0.3,2.3,0.8
	C499.5,73.1,499.7,73.9,499.7,74.9z M498.5,75.4h-1.2c-1,0-1.6,0.1-2,0.3c-0.4,0.2-0.5,0.6-0.5,1.1c0,0.4,0.1,0.8,0.4,1
	c0.3,0.2,0.6,0.4,1.1,0.4c0.6,0,1.2-0.2,1.6-0.7c0.4-0.5,0.6-1.1,0.6-1.8V75.4z M506.2,71.8l0,1.2c-0.1-0.1-0.3-0.1-0.4-0.2
	c-0.1,0-0.3-0.1-0.5-0.1c-0.7,0-1.2,0.2-1.5,0.7c-0.3,0.4-0.5,1-0.5,1.8V79h-1.2v-7.1h1.2V73c0.2-0.4,0.6-0.8,1-1
	c0.4-0.2,0.9-0.3,1.4-0.3c0.1,0,0.2,0,0.3,0C506,71.8,506.1,71.8,506.2,71.8z M513,74.9V79h-1.2v-1.1c-0.3,0.4-0.6,0.8-1,1
	c-0.4,0.2-0.9,0.3-1.5,0.3c-0.7,0-1.3-0.2-1.7-0.6c-0.4-0.4-0.6-0.9-0.6-1.6c0-0.8,0.3-1.4,0.8-1.8c0.5-0.4,1.3-0.6,2.4-0.6h1.6
	v-0.1c0-0.5-0.2-1-0.5-1.2s-0.9-0.4-1.5-0.4c-0.4,0-0.8,0.1-1.2,0.2c-0.4,0.1-0.8,0.2-1.1,0.4v-1.1c0.4-0.2,0.8-0.3,1.2-0.4
	c0.4-0.1,0.8-0.1,1.2-0.1c1,0,1.8,0.3,2.3,0.8C512.8,73.1,513,73.9,513,74.9z M511.9,75.4h-1.2c-1,0-1.6,0.1-2,0.3
	c-0.4,0.2-0.6,0.6-0.6,1.1c0,0.4,0.1,0.8,0.4,1c0.3,0.2,0.6,0.4,1.1,0.4c0.6,0,1.2-0.2,1.6-0.7c0.4-0.5,0.6-1.1,0.6-1.8V75.4z
	 M521,73.3c0.3-0.5,0.6-0.9,1-1.2c0.4-0.2,0.9-0.4,1.4-0.4c0.7,0,1.3,0.3,1.7,0.8c0.4,0.5,0.6,1.2,0.6,2.2V79h-1.2v-4.2
	c0-0.7-0.1-1.2-0.4-1.5c-0.2-0.3-0.6-0.5-1.1-0.5c-0.6,0-1.1,0.2-1.4,0.6c-0.3,0.4-0.5,1-0.5,1.6v4H520v-4.2c0-0.7-0.1-1.2-0.4-1.5
	c-0.2-0.3-0.6-0.5-1.1-0.5c-0.6,0-1.1,0.2-1.4,0.6c-0.4,0.4-0.5,1-0.5,1.6v4h-1.2v-7.1h1.2V73c0.3-0.4,0.6-0.8,1-1s0.8-0.3,1.3-0.3
	c0.5,0,0.9,0.1,1.3,0.4C520.5,72.4,520.8,72.8,521,73.3z" />
	<path id="West_Godavari_1_" class="st2" d="M339.4,171l-2.4-9.5h1.3l2,8l2-8h1.4l2,8l2-8h1.3l-2.4,9.5H345l-2-8.2l-2,8.2H339.4z
	 M356,167.1v0.6h-5.4c0,0.8,0.3,1.4,0.7,1.9c0.4,0.4,1,0.6,1.8,0.6c0.4,0,0.9-0.1,1.3-0.2c0.4-0.1,0.9-0.3,1.3-0.5v1.1
	c-0.4,0.2-0.9,0.3-1.3,0.4c-0.4,0.1-0.9,0.1-1.3,0.1c-1.1,0-2-0.3-2.7-1c-0.7-0.7-1-1.6-1-2.7c0-1.2,0.3-2.1,0.9-2.8
	c0.6-0.7,1.5-1,2.5-1c1,0,1.7,0.3,2.3,0.9C355.7,165.3,356,166.1,356,167.1z M350.6,166.8l4.2,0c0-0.6-0.2-1.1-0.5-1.5
	c-0.3-0.4-0.8-0.6-1.4-0.6c-0.6,0-1.2,0.2-1.6,0.5C350.9,165.6,350.7,166.1,350.6,166.8z M362.4,164.1v1.1c-0.3-0.2-0.7-0.3-1-0.4
	c-0.4-0.1-0.7-0.1-1.1-0.1c-0.6,0-1,0.1-1.3,0.3c-0.3,0.2-0.4,0.4-0.4,0.8c0,0.3,0.1,0.5,0.3,0.6c0.2,0.2,0.6,0.3,1.2,0.4l0.4,0.1
	c0.8,0.2,1.4,0.4,1.8,0.8c0.4,0.3,0.5,0.8,0.5,1.3c0,0.7-0.3,1.2-0.8,1.6c-0.5,0.4-1.2,0.6-2.2,0.6c-0.4,0-0.8,0-1.2-0.1
	c-0.4-0.1-0.9-0.2-1.3-0.3v-1.2c0.4,0.2,0.9,0.4,1.3,0.5c0.4,0.1,0.8,0.2,1.2,0.2c0.5,0,1-0.1,1.3-0.3c0.3-0.2,0.4-0.5,0.4-0.8
	c0-0.3-0.1-0.6-0.3-0.7c-0.2-0.2-0.7-0.3-1.4-0.5l-0.4-0.1c-0.7-0.1-1.2-0.4-1.6-0.7c-0.3-0.3-0.5-0.8-0.5-1.3
	c0-0.7,0.2-1.2,0.7-1.5c0.5-0.4,1.1-0.6,2-0.6c0.4,0,0.8,0,1.2,0.1C361.8,163.9,362.1,164,362.4,164.1z M364.6,161.9h1.2v2h2.4v0.9
	h-2.4v3.9c0,0.6,0.1,0.9,0.2,1.1c0.2,0.2,0.5,0.2,1,0.2h1.2v1H367c-0.9,0-1.5-0.2-1.9-0.5c-0.4-0.3-0.5-0.9-0.5-1.8v-3.9h-0.9v-0.9
	h0.9V161.9z M380.4,169.6v-2.5h-2.1v-1.1h3.4v4.1c-0.5,0.4-1,0.6-1.6,0.8c-0.6,0.2-1.2,0.3-1.9,0.3c-1.5,0-2.6-0.4-3.5-1.3
	c-0.8-0.9-1.2-2.1-1.2-3.6s0.4-2.8,1.2-3.6c0.8-0.9,2-1.3,3.5-1.3c0.6,0,1.2,0.1,1.8,0.2c0.6,0.1,1.1,0.4,1.5,0.7v1.4
	c-0.5-0.4-1-0.7-1.5-0.9c-0.5-0.2-1.1-0.3-1.7-0.3c-1.2,0-2,0.3-2.6,1c-0.6,0.6-0.9,1.6-0.9,2.9s0.3,2.2,0.9,2.9
	c0.6,0.6,1.5,1,2.6,1c0.4,0,0.9,0,1.2-0.1C379.8,169.9,380.1,169.8,380.4,169.6z M386.7,163.7c1,0,1.8,0.3,2.4,1
	c0.6,0.7,0.9,1.6,0.9,2.7s-0.3,2.1-0.9,2.7c-0.6,0.7-1.4,1-2.4,1c-1,0-1.8-0.3-2.4-1c-0.6-0.7-0.9-1.6-0.9-2.7s0.3-2.1,0.9-2.7
	C384.9,164.1,385.7,163.7,386.7,163.7z M386.7,164.7c-0.6,0-1.1,0.2-1.5,0.7c-0.4,0.5-0.5,1.2-0.5,2c0,0.9,0.2,1.5,0.5,2
	c0.4,0.5,0.9,0.7,1.5,0.7c0.6,0,1.1-0.2,1.5-0.7c0.4-0.5,0.5-1.2,0.5-2c0-0.8-0.2-1.5-0.5-2C387.8,165,387.3,164.7,386.7,164.7z
	 M396.6,165v-3.9h1.2v9.9h-1.2v-1.1c-0.2,0.4-0.6,0.7-0.9,1c-0.4,0.2-0.8,0.3-1.3,0.3c-0.9,0-1.6-0.3-2.1-1
	c-0.5-0.7-0.8-1.6-0.8-2.7c0-1.1,0.3-2,0.8-2.7s1.2-1,2.1-1c0.5,0,1,0.1,1.3,0.3C396,164.2,396.4,164.5,396.6,165z M392.6,167.4
	c0,0.9,0.2,1.5,0.5,2c0.4,0.5,0.8,0.7,1.5,0.7c0.6,0,1.1-0.2,1.5-0.7c0.4-0.5,0.5-1.2,0.5-2s-0.2-1.5-0.5-2
	c-0.4-0.5-0.8-0.7-1.5-0.7c-0.6,0-1.1,0.2-1.5,0.7C392.8,165.9,392.6,166.6,392.6,167.4z M405.7,166.9v4.1h-1.2v-1.1
	c-0.3,0.4-0.6,0.8-1,1c-0.4,0.2-0.9,0.3-1.5,0.3c-0.7,0-1.3-0.2-1.7-0.6c-0.4-0.4-0.6-1-0.6-1.6c0-0.8,0.3-1.4,0.8-1.8
	c0.5-0.4,1.3-0.6,2.4-0.6h1.6v-0.1c0-0.5-0.2-1-0.5-1.2c-0.4-0.3-0.9-0.4-1.5-0.4c-0.4,0-0.8,0-1.2,0.1c-0.4,0.1-0.8,0.2-1.1,0.4
	v-1.1c0.4-0.2,0.8-0.3,1.2-0.4c0.4-0.1,0.8-0.1,1.2-0.1c1,0,1.8,0.3,2.3,0.8S405.7,165.9,405.7,166.9z M404.6,167.4h-1.2
	c-0.9,0-1.6,0.1-2,0.3c-0.4,0.2-0.5,0.6-0.5,1.1c0,0.4,0.1,0.8,0.4,1c0.3,0.2,0.7,0.4,1.1,0.4c0.6,0,1.2-0.2,1.5-0.7
	c0.4-0.5,0.6-1.1,0.6-1.8V167.4z M410,171l-2.7-7.1h1.2l2.2,6l2.2-6h1.2l-2.7,7.1H410z M421.4,166.9v4.1h-1.2v-1.1
	c-0.3,0.4-0.6,0.8-1,1c-0.4,0.2-0.9,0.3-1.5,0.3c-0.7,0-1.3-0.2-1.7-0.6c-0.4-0.4-0.6-1-0.6-1.6c0-0.8,0.3-1.4,0.8-1.8
	c0.5-0.4,1.3-0.6,2.4-0.6h1.6v-0.1c0-0.5-0.2-1-0.5-1.2c-0.4-0.3-0.9-0.4-1.5-0.4c-0.4,0-0.8,0-1.2,0.1c-0.4,0.1-0.8,0.2-1.1,0.4
	v-1.1c0.4-0.2,0.8-0.3,1.2-0.4c0.4-0.1,0.8-0.1,1.2-0.1c1,0,1.8,0.3,2.3,0.8S421.4,165.9,421.4,166.9z M420.2,167.4h-1.2
	c-0.9,0-1.6,0.1-2,0.3s-0.6,0.6-0.6,1.1c0,0.4,0.1,0.8,0.4,1c0.3,0.2,0.6,0.4,1.1,0.4c0.7,0,1.2-0.2,1.6-0.7
	c0.4-0.5,0.6-1.1,0.6-1.8V167.4z M427.9,163.8l0,1.2c-0.1-0.1-0.3-0.1-0.4-0.2c-0.1,0-0.3-0.1-0.5-0.1c-0.7,0-1.2,0.2-1.5,0.7
	c-0.4,0.4-0.5,1-0.5,1.8v3.8h-1.2v-7.1h1.2v1.1c0.2-0.4,0.6-0.8,1-1c0.4-0.2,0.9-0.3,1.4-0.3c0.1,0,0.2,0,0.3,0
	C427.7,163.8,427.8,163.8,427.9,163.8z M429.1,171v-7.1h1.2v7.1H429.1z M429.1,162.6v-1.5h1.2v1.5H429.1z" />
	<path id="Y.S.R." class="st2" d="M285.4,354.5l-3.4-5h1.4l2.6,3.9l2.6-3.9h1.4l-3.4,5v4.5h-1.3V354.5z M288.8,359v-1.6h1.3v1.6
	H288.8z M298.5,349.8v1.2c-0.5-0.2-0.9-0.4-1.4-0.5c-0.4-0.1-0.9-0.2-1.2-0.2c-0.7,0-1.2,0.1-1.6,0.4c-0.4,0.3-0.6,0.7-0.6,1.2
	c0,0.4,0.1,0.7,0.4,1c0.2,0.2,0.7,0.4,1.4,0.5l0.8,0.2c1,0.2,1.7,0.5,2.1,1c0.4,0.5,0.7,1.1,0.7,1.8c0,0.9-0.3,1.6-0.9,2.1
	c-0.6,0.5-1.5,0.7-2.7,0.7c-0.5,0-0.9,0-1.4-0.1c-0.5-0.1-1-0.2-1.6-0.5v-1.3c0.5,0.3,1,0.5,1.5,0.7c0.5,0.1,1,0.2,1.5,0.2
	c0.7,0,1.3-0.1,1.7-0.4c0.4-0.3,0.6-0.7,0.6-1.2c0-0.5-0.1-0.8-0.4-1.1c-0.3-0.3-0.8-0.5-1.4-0.6l-0.8-0.1c-0.9-0.2-1.6-0.5-2.1-0.9
	c-0.4-0.4-0.6-1-0.6-1.7c0-0.8,0.3-1.5,0.9-2c0.6-0.5,1.4-0.7,2.4-0.7c0.4,0,0.9,0,1.4,0.1S298,349.7,298.5,349.8z M301.2,359v-1.6
	h1.3v1.6H301.2z M309.7,354.6c0.3,0.1,0.5,0.3,0.8,0.6c0.3,0.3,0.5,0.7,0.8,1.3l1.3,2.6h-1.4l-1.2-2.4c-0.3-0.6-0.6-1.1-0.9-1.3
	s-0.7-0.3-1.2-0.3h-1.4v4h-1.3v-9.5h2.9c1.1,0,1.9,0.2,2.4,0.7c0.5,0.4,0.8,1.1,0.8,2c0,0.6-0.1,1.1-0.4,1.5
	C310.6,354.1,310.2,354.4,309.7,354.6z M308.1,350.6h-1.6v3.4h1.6c0.6,0,1.1-0.1,1.4-0.4c0.3-0.3,0.5-0.7,0.5-1.3s-0.2-1-0.5-1.2
	S308.7,350.6,308.1,350.6z M313.9,359v-1.6h1.3v1.6H313.9z" />
	<path id="Created_with_paintmaps.com" class="st2" d="M647.2,512.2c-0.8,0-1.5,0.3-2,0.8c-0.5,0.5-0.7,1.3-0.7,2.2
	c0,0.9,0.2,1.7,0.7,2.2c0.5,0.6,1.1,0.8,2,0.8c1.1,0,1.9-0.5,2.4-1.6l0.8,0.4c-0.3,0.7-0.7,1.2-1.3,1.5c-0.6,0.3-1.2,0.5-2,0.5
	c-0.8,0-1.4-0.2-2-0.5c-0.6-0.3-1-0.8-1.3-1.3c-0.3-0.6-0.4-1.3-0.4-2.1c0-1.2,0.3-2.1,1-2.8c0.7-0.7,1.6-1,2.7-1
	c0.8,0,1.5,0.2,2,0.5c0.5,0.3,0.9,0.8,1.2,1.4l-1,0.3c-0.2-0.4-0.5-0.8-0.8-1S647.8,512.2,647.2,512.2z M652.7,519h-1v-4.5
	c0-0.4,0-0.9,0-1.3h0.9c0,0.7,0,1.1,0,1.2h0c0.1-0.5,0.3-0.8,0.5-1c0.2-0.2,0.5-0.3,0.9-0.3c0.1,0,0.3,0,0.4,0v0.9
	c-0.1,0-0.3-0.1-0.5-0.1c-0.4,0-0.7,0.2-0.9,0.5c-0.2,0.3-0.3,0.8-0.3,1.5V519z M660.2,516.3h-4.1c0,0.7,0.1,1.2,0.4,1.5
	c0.3,0.4,0.7,0.5,1.2,0.5c0.4,0,0.8-0.1,1-0.2s0.4-0.4,0.5-0.6l0.9,0.2c-0.4,0.9-1.1,1.4-2.4,1.4c-0.9,0-1.5-0.3-2-0.8
	c-0.5-0.5-0.7-1.3-0.7-2.3c0-1,0.2-1.7,0.7-2.2c0.5-0.5,1.1-0.8,1.9-0.8c1.7,0,2.6,1,2.6,3.1V516.3z M656.1,515.6h3.1
	c0-0.6-0.2-1.1-0.5-1.3c-0.3-0.3-0.6-0.4-1.1-0.4c-0.5,0-0.8,0.2-1.1,0.5C656.3,514.6,656.1,515,656.1,515.6z M663,519.1
	c-0.6,0-1-0.1-1.3-0.5s-0.4-0.7-0.4-1.3c0-0.6,0.2-1.1,0.6-1.4c0.4-0.3,1-0.5,1.9-0.5l1.3,0v-0.3c0-0.5-0.1-0.8-0.3-1
	c-0.2-0.2-0.5-0.3-0.9-0.3s-0.8,0.1-1,0.2c-0.2,0.2-0.3,0.4-0.3,0.7l-1-0.1c0.2-1.1,0.9-1.6,2.3-1.6c0.7,0,1.3,0.2,1.6,0.5
	c0.4,0.3,0.5,0.8,0.5,1.4v2.5c0,0.3,0,0.5,0.1,0.7c0.1,0.1,0.2,0.2,0.4,0.2c0.1,0,0.2,0,0.3,0v0.6c-0.2,0.1-0.5,0.1-0.7,0.1
	c-0.4,0-0.6-0.1-0.8-0.3c-0.2-0.2-0.2-0.5-0.3-0.9h0c-0.2,0.4-0.5,0.8-0.9,0.9C663.8,519,663.4,519.1,663,519.1z M663.2,518.4
	c0.4,0,0.7-0.1,0.9-0.2c0.3-0.2,0.5-0.4,0.7-0.7c0.2-0.3,0.2-0.6,0.2-0.9v-0.5l-1.1,0c-0.5,0-0.8,0-1,0.1c-0.2,0.1-0.4,0.2-0.5,0.4
	c-0.1,0.2-0.2,0.4-0.2,0.7c0,0.3,0.1,0.6,0.2,0.7S662.9,518.4,663.2,518.4z M669.8,518.2v0.7c-0.3,0.1-0.7,0.1-1,0.1
	c-0.8,0-1.2-0.4-1.2-1.3v-3.9H667v-0.7h0.7l0.3-1.3h0.7v1.3h1.1v0.7h-1.1v3.7c0,0.3,0,0.5,0.1,0.6c0.1,0.1,0.2,0.2,0.5,0.2
	C669.4,518.3,669.6,518.3,669.8,518.2z M675.5,516.3h-4.2c0,0.7,0.1,1.2,0.4,1.5c0.3,0.4,0.7,0.5,1.2,0.5c0.4,0,0.8-0.1,1-0.2
	s0.4-0.4,0.5-0.6l0.8,0.2c-0.3,0.9-1.1,1.4-2.4,1.4c-0.9,0-1.5-0.3-2-0.8c-0.4-0.5-0.7-1.3-0.7-2.3c0-1,0.2-1.7,0.7-2.2
	c0.5-0.5,1.1-0.8,1.9-0.8c1.7,0,2.6,1,2.6,3.1V516.3z M671.4,515.6h3.1c-0.1-0.6-0.2-1.1-0.5-1.3c-0.3-0.3-0.6-0.4-1.1-0.4
	c-0.5,0-0.8,0.2-1.1,0.5C671.6,514.6,671.4,515,671.4,515.6z M680.5,518.1L680.5,518.1c-0.2,0.4-0.4,0.6-0.7,0.8
	c-0.3,0.2-0.7,0.2-1.1,0.2c-0.7,0-1.3-0.2-1.6-0.7c-0.3-0.5-0.5-1.2-0.5-2.2c0-2,0.7-3,2.1-3c0.4,0,0.8,0.1,1.1,0.2
	c0.3,0.2,0.5,0.4,0.7,0.8h0l0-0.7V511h1v6.8c0,0.6,0,1,0,1.2h-0.9c0-0.1,0-0.2,0-0.4C680.5,518.4,680.5,518.2,680.5,518.1z
	 M677.5,516.1c0,0.8,0.1,1.4,0.3,1.7c0.2,0.3,0.6,0.5,1,0.5c0.5,0,1-0.2,1.2-0.6s0.4-1,0.4-1.8c0-0.8-0.1-1.3-0.4-1.7
	c-0.2-0.4-0.7-0.5-1.2-0.5c-0.5,0-0.8,0.2-1,0.5C677.6,514.7,677.5,515.3,677.5,516.1z M693.2,513.2l-1.7,5.8h-1.1l-1-4.1l-0.2-0.9
	c0,0.2-0.1,0.4-0.1,0.7s-0.4,1.7-1.1,4.3h-1.1l-1.6-5.8h1l1,4c0,0.1,0.1,0.4,0.2,1.1l0.1-0.4l1.2-4.6h1l1,4l0.2,1l0.2-0.8l1.1-4.3
	H693.2z M694.8,512h-1V511h1V512z M694.8,519h-1v-5.8h1V519z M698.5,518.2v0.7c-0.3,0.1-0.6,0.1-1,0.1c-0.8,0-1.2-0.4-1.2-1.3v-3.9
	h-0.7v-0.7h0.7l0.3-1.3h0.6v1.3h1.1v0.7h-1.1v3.7c0,0.3,0,0.5,0.1,0.6c0.1,0.1,0.2,0.2,0.5,0.2C698.1,518.3,698.3,518.3,698.5,518.2
	z M700.3,514.2L700.3,514.2c0.2-0.4,0.5-0.7,0.8-0.8c0.3-0.2,0.7-0.3,1.1-0.3c0.6,0,1.1,0.2,1.4,0.5c0.3,0.3,0.4,0.8,0.4,1.6v3.9h-1
	v-3.7c0-0.4,0-0.7-0.1-0.9c-0.1-0.2-0.2-0.3-0.4-0.4c-0.2-0.1-0.4-0.1-0.7-0.1c-0.5,0-0.8,0.2-1.1,0.5c-0.3,0.3-0.4,0.7-0.4,1.3v3.4
	h-1v-8h1v2.1c0,0.2,0,0.5,0,0.7C700.3,514,700.3,514.2,700.3,514.2z M713.5,516.1c0,2-0.7,3-2.1,3c-0.9,0-1.5-0.3-1.8-1h0
	c0,0,0,0.3,0,0.9v2.3h-1v-6.9c0-0.6,0-1,0-1.2h0.9c0,0,0,0.1,0,0.2c0,0.1,0,0.2,0,0.4c0,0.2,0,0.3,0,0.4h0c0.2-0.3,0.4-0.6,0.7-0.8
	c0.3-0.2,0.6-0.2,1.1-0.2c0.7,0,1.2,0.2,1.6,0.7C713.3,514.3,713.5,515,713.5,516.1z M712.5,516.1c0-0.8-0.1-1.4-0.3-1.7
	c-0.2-0.3-0.6-0.5-1-0.5c-0.4,0-0.7,0.1-0.9,0.2c-0.2,0.2-0.4,0.4-0.5,0.8c-0.1,0.3-0.2,0.8-0.2,1.3c0,0.8,0.1,1.3,0.4,1.7
	c0.2,0.4,0.6,0.5,1.2,0.5c0.5,0,0.8-0.2,1-0.5C712.3,517.5,712.5,516.9,712.5,516.1z M716.2,519.1c-0.6,0-1-0.1-1.3-0.5
	c-0.3-0.3-0.4-0.7-0.4-1.3c0-0.6,0.2-1.1,0.6-1.4c0.4-0.3,1-0.5,1.9-0.5l1.3,0v-0.3c0-0.5-0.1-0.8-0.3-1c-0.2-0.2-0.5-0.3-0.9-0.3
	s-0.8,0.1-1,0.2c-0.2,0.2-0.3,0.4-0.4,0.7l-1-0.1c0.2-1.1,0.9-1.6,2.3-1.6c0.7,0,1.3,0.2,1.7,0.5c0.4,0.3,0.5,0.8,0.5,1.4v2.5
	c0,0.3,0,0.5,0.1,0.7c0.1,0.1,0.2,0.2,0.4,0.2c0.1,0,0.2,0,0.3,0v0.6c-0.2,0.1-0.5,0.1-0.7,0.1c-0.4,0-0.6-0.1-0.8-0.3
	c-0.2-0.2-0.2-0.5-0.3-0.9h0c-0.2,0.4-0.5,0.8-0.9,0.9C717,519,716.6,519.1,716.2,519.1z M716.4,518.4c0.3,0,0.7-0.1,0.9-0.2
	c0.3-0.2,0.5-0.4,0.7-0.7c0.2-0.3,0.2-0.6,0.2-0.9v-0.5l-1.1,0c-0.5,0-0.8,0-1,0.1c-0.2,0.1-0.4,0.2-0.5,0.4
	c-0.1,0.2-0.2,0.4-0.2,0.7c0,0.3,0.1,0.6,0.2,0.7C715.8,518.3,716.1,518.4,716.4,518.4z M721.8,512h-1V511h1V512z M721.8,519h-1
	v-5.8h1V519z M727.9,519h-1v-3.7c0-0.4,0-0.7-0.1-0.9c-0.1-0.2-0.2-0.4-0.4-0.5c-0.2-0.1-0.4-0.1-0.7-0.1c-0.5,0-0.8,0.2-1.1,0.5
	c-0.3,0.3-0.4,0.8-0.4,1.3v3.4h-1v-4.6c0-0.7,0-1.1,0-1.2h0.9c0,0,0,0.1,0,0.1c0,0.1,0,0.2,0,0.3c0,0.1,0,0.3,0,0.6h0
	c0.2-0.4,0.5-0.7,0.8-0.8c0.3-0.2,0.7-0.2,1.1-0.2c0.6,0,1.1,0.2,1.4,0.5c0.3,0.3,0.5,0.8,0.5,1.6V519z M731.6,518.2v0.7
	c-0.3,0.1-0.7,0.1-1,0.1c-0.8,0-1.2-0.4-1.2-1.3v-3.9h-0.7v-0.7h0.7l0.3-1.3h0.6v1.3h1.1v0.7h-1.1v3.7c0,0.3,0,0.5,0.1,0.6
	c0.1,0.1,0.2,0.2,0.5,0.2C731.2,518.3,731.3,518.3,731.6,518.2z M736.7,519h-1v-3.7c0-0.6-0.1-1-0.2-1.2c-0.1-0.2-0.4-0.3-0.8-0.3
	c-0.4,0-0.7,0.2-1,0.5s-0.4,0.8-0.4,1.3v3.4h-1v-4.6c0-0.7,0-1.1,0-1.2h0.9c0,0,0,0.1,0,0.1c0,0.1,0,0.2,0,0.3c0,0.1,0,0.3,0,0.6h0
	c0.2-0.4,0.5-0.7,0.7-0.9c0.3-0.2,0.6-0.2,1-0.2c0.4,0,0.8,0.1,1,0.3c0.3,0.2,0.4,0.5,0.5,0.8h0c0.2-0.4,0.4-0.7,0.7-0.8
	c0.3-0.2,0.6-0.3,1-0.3c0.6,0,1,0.2,1.3,0.5c0.3,0.3,0.4,0.8,0.4,1.6v3.9h-1v-3.7c0-0.6-0.1-1-0.2-1.2c-0.1-0.2-0.4-0.3-0.8-0.3
	c-0.4,0-0.8,0.2-1,0.5c-0.2,0.3-0.4,0.8-0.4,1.3V519z M743,519.1c-0.6,0-1-0.1-1.3-0.5c-0.3-0.3-0.4-0.7-0.4-1.3
	c0-0.6,0.2-1.1,0.6-1.4c0.4-0.3,1-0.5,1.9-0.5l1.3,0v-0.3c0-0.5-0.1-0.8-0.3-1c-0.2-0.2-0.5-0.3-0.9-0.3s-0.8,0.1-1,0.2
	c-0.2,0.2-0.3,0.4-0.3,0.7l-1-0.1c0.2-1.1,0.9-1.6,2.3-1.6c0.7,0,1.3,0.2,1.7,0.5c0.4,0.3,0.5,0.8,0.5,1.4v2.5c0,0.3,0,0.5,0.1,0.7
	c0.1,0.1,0.2,0.2,0.4,0.2c0.1,0,0.2,0,0.3,0v0.6c-0.2,0.1-0.5,0.1-0.8,0.1c-0.3,0-0.6-0.1-0.8-0.3c-0.2-0.2-0.2-0.5-0.3-0.9h0
	c-0.2,0.4-0.5,0.8-0.9,0.9S743.5,519.1,743,519.1z M743.3,518.4c0.3,0,0.7-0.1,0.9-0.2c0.3-0.2,0.5-0.4,0.6-0.7
	c0.2-0.3,0.2-0.6,0.2-0.9v-0.5l-1,0c-0.5,0-0.8,0-1,0.1c-0.2,0.1-0.4,0.2-0.5,0.4c-0.1,0.2-0.2,0.4-0.2,0.7c0,0.3,0.1,0.6,0.3,0.7
	C742.7,518.3,743,518.4,743.3,518.4z M752.6,516.1c0,2-0.7,3-2.1,3c-0.9,0-1.5-0.3-1.8-1h0c0,0,0,0.3,0,0.9v2.3h-1v-6.9
	c0-0.6,0-1,0-1.2h0.9c0,0,0,0.1,0,0.2c0,0.1,0,0.2,0,0.4c0,0.2,0,0.3,0,0.4h0c0.2-0.3,0.4-0.6,0.7-0.8c0.3-0.2,0.7-0.2,1.1-0.2
	c0.7,0,1.2,0.2,1.6,0.7C752.4,514.3,752.6,515,752.6,516.1z M751.6,516.1c0-0.8-0.1-1.4-0.3-1.7c-0.2-0.3-0.6-0.5-1-0.5
	c-0.4,0-0.7,0.1-0.9,0.2c-0.2,0.2-0.4,0.4-0.5,0.8c-0.1,0.3-0.2,0.8-0.2,1.3c0,0.8,0.1,1.3,0.4,1.7c0.2,0.4,0.6,0.5,1.2,0.5
	c0.5,0,0.8-0.2,1-0.5C751.5,517.5,751.6,516.9,751.6,516.1z M758.2,517.4c0,0.5-0.2,1-0.6,1.3c-0.4,0.3-1,0.5-1.7,0.5
	c-0.7,0-1.3-0.1-1.7-0.4s-0.7-0.6-0.8-1.1l0.8-0.2c0.1,0.3,0.2,0.5,0.5,0.7c0.3,0.1,0.6,0.2,1.1,0.2c0.5,0,0.9-0.1,1.1-0.2
	c0.2-0.2,0.3-0.4,0.3-0.7c0-0.2-0.1-0.4-0.2-0.6c-0.2-0.1-0.4-0.3-0.8-0.3l-0.7-0.2c-0.6-0.1-1-0.3-1.2-0.4
	c-0.2-0.1-0.4-0.3-0.6-0.5s-0.2-0.4-0.2-0.7c0-0.5,0.2-0.9,0.6-1.2c0.4-0.3,0.9-0.4,1.7-0.4c0.7,0,1.2,0.1,1.5,0.3
	c0.4,0.2,0.6,0.6,0.7,1.1l-0.9,0.1c0-0.3-0.2-0.5-0.4-0.6c-0.2-0.1-0.5-0.2-0.9-0.2c-0.4,0-0.8,0.1-1,0.2c-0.2,0.1-0.3,0.3-0.3,0.6
	c0,0.2,0,0.3,0.1,0.4c0.1,0.1,0.2,0.2,0.4,0.3s0.5,0.2,1.1,0.3c0.5,0.1,0.9,0.2,1.1,0.4c0.2,0.1,0.4,0.2,0.5,0.4
	c0.1,0.1,0.2,0.3,0.3,0.5S758.2,517.2,758.2,517.4z M760.6,519h-1v-1.2h1V519z M763.1,516.1c0,0.8,0.1,1.3,0.4,1.7
	c0.2,0.4,0.6,0.6,1.1,0.6c0.3,0,0.6-0.1,0.9-0.3c0.2-0.2,0.4-0.5,0.4-0.9l1,0.1c-0.1,0.6-0.3,1-0.7,1.3c-0.4,0.3-0.9,0.5-1.5,0.5
	c-0.8,0-1.4-0.3-1.9-0.8c-0.4-0.5-0.6-1.3-0.6-2.2c0-1,0.2-1.7,0.6-2.2c0.4-0.5,1-0.8,1.8-0.8c0.6,0,1.1,0.1,1.5,0.5
	s0.6,0.7,0.7,1.3l-1,0.1c0-0.3-0.2-0.6-0.4-0.8c-0.2-0.2-0.5-0.3-0.9-0.3c-0.5,0-0.9,0.2-1.1,0.5
	C763.2,514.7,763.1,515.3,763.1,516.1z M772.8,516.1c0,1-0.2,1.8-0.7,2.3c-0.4,0.5-1.1,0.8-1.9,0.8c-0.9,0-1.5-0.3-1.9-0.8
	c-0.4-0.5-0.6-1.3-0.6-2.2c0-2,0.9-3,2.6-3c0.9,0,1.5,0.2,2,0.7C772.6,514.3,772.8,515.1,772.8,516.1z M771.8,516.1
	c0-0.8-0.1-1.4-0.4-1.8c-0.2-0.4-0.6-0.5-1.2-0.5c-0.6,0-1,0.2-1.2,0.5s-0.4,1-0.4,1.7c0,0.8,0.1,1.3,0.4,1.7
	c0.2,0.4,0.6,0.6,1.2,0.6c0.6,0,1-0.2,1.2-0.6S771.8,516.9,771.8,516.1z M778.3,519h-1v-3.7c0-0.6-0.1-1-0.2-1.2
	c-0.2-0.2-0.4-0.3-0.8-0.3c-0.4,0-0.7,0.2-1,0.5s-0.4,0.8-0.4,1.3v3.4h-1v-4.6c0-0.7,0-1.1,0-1.2h0.9c0,0,0,0.1,0,0.1
	c0,0.1,0,0.2,0,0.3c0,0.1,0,0.3,0,0.6h0c0.2-0.4,0.4-0.7,0.7-0.9c0.3-0.2,0.6-0.2,1-0.2c0.4,0,0.8,0.1,1,0.3
	c0.3,0.2,0.4,0.5,0.5,0.8h0c0.2-0.4,0.4-0.7,0.7-0.8c0.3-0.2,0.6-0.3,1-0.3c0.6,0,1,0.2,1.3,0.5c0.3,0.3,0.4,0.8,0.4,1.6v3.9h-1
	v-3.7c0-0.6-0.1-1-0.2-1.2c-0.1-0.2-0.4-0.3-0.8-0.3c-0.4,0-0.8,0.2-1,0.5c-0.2,0.3-0.3,0.8-0.3,1.3V519z" />
</svg>