<svg version="1.2" baseProfile="tiny-ps" xmlns="http://www.w3.org/2000/svg" viewBox="0 0 800 533" width="800" height="533">
	<title>Chandigarh Map Chart-svg</title>
	<style>
		tspan { white-space:pre }
		.shp0 { fill: none;stroke: #000000;stroke-width: 0.4;stroke-dasharray: NaN } 
		.shp1 { fill: none;stroke: #cccccc;stroke-width: 0;stroke-dasharray: NaN } 
	</style>
	<path id="Chandigarh" class="shp0" d="M497.31 459.44L476.21 479.7L463.72 475.54L417.83 451.36L354.57 410.21L338.42 414.5L324.63 388.18L318.61 387.07L311.33 393.11L308.4 392.29L304.16 366.39L307.89 362.67L309.88 354.03L306.31 346.01L296.68 339.11L281.03 335.13L281.37 329.61L286.94 321.43L287.82 311.03L283.34 284.74L271.06 272.71L268.01 262.22L246.69 229.97L232.35 233.91L225.49 231.87L220.58 225.47L227.09 205.75L226.13 190.2L220.45 181.36L262.94 148.39L288.72 151.73L299.63 146.39L315.64 128.2L320.55 125.68L318.76 112.56L330.21 106.02L340.26 95.9L337.78 83.5L342.14 79.46L349.53 78.14L356.34 67.77L369.09 60.5L389.84 53.3L410.21 66.19L424.37 89.91L434.19 97.93L431.63 102.6L422.7 105.75L414.4 125.81L429.84 128.86L443.09 136.03L462.29 112.69L480.53 96.91L484.58 98.56L495.43 109.87L499.64 119.1L498.59 123.77L468.8 150.39L473.16 160.19L493.66 172.52L519.64 159.8L559.57 169.16L546.16 247.09L551.24 277.54L574.84 298.64L579.56 331.94L559.83 359.29L542.11 389.43L533.73 409.65L538.92 425.43L515.99 428.31L504.67 443.73L497.31 459.44Z" />
	<path id="Layer" class="shp1" d="M790 261.5L800 261.5L800 271.5L790 271.5L790 261.5Z" />
	<path id="Layer" class="shp1" d="" />
	<path id="Chandigarh" fill="#000000" aria-label="Chandigarh"  d="M388.69 272.23L388.69 273.9Q387.9 273.16 386.99 272.79Q386.09 272.42 385.08 272.42Q383.08 272.42 382.02 273.65Q380.95 274.87 380.95 277.18Q380.95 279.48 382.02 280.71Q383.08 281.93 385.08 281.93Q386.09 281.93 386.99 281.56Q387.9 281.2 388.69 280.45L388.69 282.1Q387.87 282.66 386.94 282.95Q386.02 283.23 384.98 283.23Q382.34 283.23 380.81 281.61Q379.29 279.98 379.29 277.18Q379.29 274.37 380.81 272.75Q382.34 271.13 384.98 271.13Q386.03 271.13 386.95 271.41Q387.88 271.68 388.69 272.23ZM398.34 277.72L398.34 283L396.91 283L396.91 277.77Q396.91 276.52 396.42 275.91Q395.94 275.29 394.97 275.29Q393.8 275.29 393.13 276.03Q392.46 276.77 392.46 278.05L392.46 283L391.02 283L391.02 270.84L392.46 270.84L392.46 275.61Q392.98 274.82 393.67 274.43Q394.37 274.04 395.29 274.04Q396.8 274.04 397.57 274.98Q398.34 275.91 398.34 277.72ZM406.62 278.6L405.19 278.6Q403.44 278.6 402.77 279Q402.1 279.4 402.1 280.36Q402.1 281.13 402.6 281.58Q403.11 282.02 403.98 282.02Q405.17 282.02 405.89 281.18Q406.62 280.33 406.62 278.92L406.62 278.6ZM408.05 278.01L408.05 283L406.62 283L406.62 281.67Q406.12 282.47 405.39 282.85Q404.66 283.23 403.59 283.23Q402.25 283.23 401.45 282.48Q400.66 281.72 400.66 280.45Q400.66 278.98 401.65 278.23Q402.64 277.48 404.6 277.48L406.62 277.48L406.62 277.34Q406.62 276.34 405.96 275.8Q405.31 275.26 404.13 275.26Q403.38 275.26 402.67 275.44Q401.96 275.62 401.3 275.98L401.3 274.65Q402.09 274.34 402.84 274.2Q403.58 274.04 404.28 274.04Q406.18 274.04 407.12 275.02Q408.05 276.01 408.05 278.01ZM418.29 277.72L418.29 283L416.85 283L416.85 277.77Q416.85 276.52 416.37 275.91Q415.88 275.29 414.91 275.29Q413.75 275.29 413.08 276.03Q412.41 276.77 412.41 278.05L412.41 283L410.96 283L410.96 274.25L412.41 274.25L412.41 275.61Q412.92 274.82 413.62 274.43Q414.32 274.04 415.23 274.04Q416.74 274.04 417.52 274.98Q418.29 275.91 418.29 277.72ZM426.91 275.58L426.91 270.84L428.35 270.84L428.35 283L426.91 283L426.91 281.69Q426.46 282.47 425.77 282.85Q425.08 283.23 424.11 283.23Q422.52 283.23 421.52 281.96Q420.53 280.7 420.53 278.63Q420.53 276.57 421.52 275.3Q422.52 274.04 424.11 274.04Q425.08 274.04 425.77 274.42Q426.46 274.8 426.91 275.58ZM422.02 278.63Q422.02 280.22 422.66 281.13Q423.32 282.02 424.46 282.02Q425.6 282.02 426.26 281.13Q426.91 280.22 426.91 278.63Q426.91 277.05 426.26 276.15Q425.6 275.24 424.46 275.24Q423.32 275.24 422.66 276.15Q422.02 277.05 422.02 278.63ZM431.31 283L431.31 274.25L432.75 274.25L432.75 283L431.31 283ZM431.31 272.66L431.31 270.84L432.75 270.84L432.75 272.66L431.31 272.66ZM441.52 278.52Q441.52 276.96 440.87 276.1Q440.23 275.24 439.06 275.24Q437.91 275.24 437.26 276.1Q436.62 276.96 436.62 278.52Q436.62 280.08 437.26 280.94Q437.91 281.8 439.06 281.8Q440.23 281.8 440.87 280.94Q441.52 280.08 441.52 278.52ZM442.95 274.25L442.95 281.91Q442.95 284.15 441.96 285.24Q440.97 286.33 438.92 286.33Q438.16 286.33 437.49 286.22Q436.82 286.1 436.19 285.87L436.19 284.47Q436.82 284.81 437.44 284.98Q438.05 285.14 438.69 285.14Q440.11 285.14 440.81 284.41Q441.52 283.66 441.52 282.17L441.52 281.46Q441.07 282.23 440.37 282.62Q439.68 283 438.71 283Q437.1 283 436.12 281.77Q435.13 280.55 435.13 278.52Q435.13 276.49 436.12 275.27Q437.1 274.04 438.71 274.04Q439.68 274.04 440.37 274.42Q441.07 274.8 441.52 275.58L441.52 274.25L442.95 274.25ZM451.32 278.6L449.89 278.6Q448.15 278.6 447.48 279Q446.8 279.4 446.8 280.36Q446.8 281.13 447.3 281.58Q447.81 282.02 448.68 282.02Q449.87 282.02 450.59 281.18Q451.32 280.33 451.32 278.92L451.32 278.6ZM452.76 278.01L452.76 283L451.32 283L451.32 281.67Q450.83 282.47 450.09 282.85Q449.36 283.23 448.3 283.23Q446.95 283.23 446.16 282.48Q445.37 281.72 445.37 280.45Q445.37 278.98 446.35 278.23Q447.34 277.48 449.3 277.48L451.32 277.48L451.32 277.34Q451.32 276.34 450.66 275.8Q450.02 275.26 448.84 275.26Q448.09 275.26 447.37 275.44Q446.66 275.62 446.01 275.98L446.01 274.65Q446.8 274.34 447.54 274.2Q448.28 274.04 448.98 274.04Q450.88 274.04 451.82 275.02Q452.76 276.01 452.76 278.01ZM460.78 274.12L460.79 275.59Q460.55 275.45 460.26 275.39Q459.98 275.32 459.63 275.32Q458.41 275.32 457.76 276.12Q457.11 276.91 457.11 278.39L457.11 283L455.66 283L455.66 274.25L457.11 274.25L457.11 275.61Q457.56 274.81 458.29 274.43Q459.02 274.04 460.05 274.04Q460.2 274.04 460.38 274.06Q460.56 274.08 460.78 274.12ZM469.29 277.72L469.29 283L467.85 283L467.85 277.77Q467.85 276.52 467.37 275.91Q466.88 275.29 465.91 275.29Q464.75 275.29 464.08 276.03Q463.41 276.77 463.41 278.05L463.41 283L461.96 283L461.96 270.84L463.41 270.84L463.41 275.61Q463.92 274.82 464.62 274.43Q465.32 274.04 466.23 274.04Q467.74 274.04 468.52 274.98Q469.29 275.91 469.29 277.72Z" />
</svg>