<svg version="1.2" baseProfile="tiny-ps" xmlns="http://www.w3.org/2000/svg" viewBox="0 0 800 533" width="800" height="533">
	<title>Dadra and Nagar Haveli Map Chart-svg</title>
	<style>
		tspan { white-space:pre }
		.shp0 { fill: none;stroke: #000000;stroke-width: 0.4;stroke-dasharray: NaN } 
		.shp1 { fill: none;stroke: #cccccc;stroke-width: 0;stroke-dasharray: NaN } 
	</style>
	<path id="Dadra and Nagar Haveli and Daman and Diu" class="shp0" d="M347.18 418.06L341.87 406.03L332.2 398.61L337.15 378.66L338.89 370.9L339.25 368.19L339.73 364.73L332.52 357.47L330.7 361.9L329.54 368.17L329.62 372.4L329.69 376.55L329.17 379.68L328.53 383.64L326.1 388.24L315.63 393.78L310.51 394.73L306.45 394.4L300.57 378.06L293.94 370.47L307.12 333.59L307.4 326.44L307.87 314.58L307.2 307.36L297.01 302.57L296.73 289.36L291.05 258L295.13 254.35L296.22 248.52L295.25 239.36L290.22 228.18L285.79 223.71L277.97 218.24L271.43 214.9L263.36 213.09L260.44 210.42L242.75 180.92L241.26 172.37L243.62 166.49L249.56 159.15L257.61 153.59L261.03 147.91L265.75 146.12L270.72 148.06L277.67 154.02L290.38 171.9L295.25 175.98L301.01 177.4L305.18 176.12L309.01 172L310.75 168.05L311.78 147.97L325.34 146.52L332.49 147.58L339.53 150.11L342.85 149.6L344.19 147.06L344.58 141.09L342.92 134.19L342.89 126.68L339.85 115.68L342.17 113.05L344.68 115.18L347.19 119.39L349.54 131.81L349.08 145.16L352.47 147.73L360.2 150.02L365.07 150.53L367.34 149.31L369.09 147.49L370.87 130.91L370.97 114.14L373.87 105.33L378.67 102.23L385.83 101.54L390.63 101.07L395.63 99.57L399.51 96.18L407.24 96.88L410.92 101.03L413.34 100.52L415.69 100.03L422.43 88.63L424.25 81.95L426.48 59.74L427.31 56.41L427.73 54.73L428.61 53.78L430.72 53.53L432.74 53.3L436.88 59.66L439.85 64.23L442.06 71.99L443.74 77.91L447.31 86.8L447.82 91.7L444.64 100.91L442.19 119.52L440.01 122.39L438.42 130.24L441.31 131.48L455.24 129.08L460.59 129.7L465.78 123.84L466.65 116.79L468.35 112.96L474.06 113.83L479.34 112.95L488.63 113.34L492.9 115.08L495.86 118.01L498.3 122.53L504.88 120.05L505.83 122.28L505.33 124.54L504.89 126.57L504.76 135.84L507.41 151.04L506.72 155.73L503.52 158.89L499.55 161.19L496.6 161.44L494.22 159.94L492.79 154.94L488.52 148.38L485.33 150.18L483.31 154.39L482.22 157.17L482.15 161.39L481.24 165.54L480.52 168.75L479.47 169.22L476.71 164.47L473.69 163.19L473 163.91L469.3 171.14L469.18 180.33L467.48 185.02L463.23 191.59L454.12 194.3L450.54 196.76L438.88 214.06L433.92 221.82L435.94 230.68L427.1 235.08L412.22 228.14L406.36 229.74L401.16 233.89L394.45 245.41L388.11 270.64L390.58 277.93L394.39 278.52L394.56 278.63L397.21 280.34L398.58 285.32L398.44 306.35L396.6 325.43L399.79 330.08L406.94 334.89L411.13 334.32L412.59 322.24L414.67 315.8L418.36 311.02L421.14 310.54L422.94 311.77L424.58 312.84L427 324.52L428.56 328.33L430.43 330.23L434.52 331.29L438.59 332.35L442.49 331.86L445.54 331.47L448.49 333.29L450.92 334.79L454.11 334.16L451.55 328.68L452.07 325.18L458.84 319.47L462.18 313.19L465.95 312.09L473.76 314.94L476.91 312.47L479.3 308.03L479.04 302.95L475.18 295.04L472.73 292.4L468.12 272.43L468.75 268.95L472.44 265.38L476.65 267.28L479.15 270.61L479.79 271.2L480.61 271.94L490.82 272.98L496.45 275.43L500.62 273.18L508.06 263.13L509.06 271.69L516.71 274.15L519.6 276.93L524.3 278.43L533.13 277.32L538.85 278.66L545.29 284.95L548.61 288.19L557.32 292.87L558.74 296.67L557.89 302.46L556.23 307.62L551.44 314.43L546.94 318.97L527.79 327.92L524.54 335.55L523.74 342.69L524.41 357.86L529.29 371.99L539.9 380.4L545.45 382.61L546.93 404.21L548.35 416.41L542.99 425.87L535.73 435.43L531.57 439.1L526.54 443.57L527.44 465.01L513.95 477.93L511.81 478.76L509.37 479.7L503.11 470.83L497.77 460.41L490.6 450.05L483.82 448.88L471.14 443.5L466.02 434.66L463.07 433.31L457.6 441.34L455.81 442.15L453.81 443.09L452.13 443.18L449.04 443.39L443.26 442.19L437.35 436.4L435.85 434.19L433.32 430.45L430.46 430.59L423.5 421.69L413.02 420.59L402.59 419.48L384.38 414.26L381.64 417.47L382.91 457.2L376.28 457.56L368.48 451.89L361.51 443.17L354.52 434.45L347.18 418.06Z" />
	<path id="Layer" class="shp1" d="M790 261.5L800 261.5L800 271.5L790 271.5L790 261.5Z" />
	<path id="Layer" class="shp1" d="" />
	<path id="Dadra and Nagar Haveli" fill="#000000" aria-label="Dadra and Nagar Haveli"  d="M357.32 363.28L355.53 363.28L355.53 371.78L357.32 371.78Q359.58 371.78 360.63 370.76Q361.69 369.73 361.69 367.52Q361.69 365.32 360.63 364.31Q359.58 363.28 357.32 363.28ZM354.05 373L354.05 362.06L357.09 362.06Q360.27 362.06 361.76 363.39Q363.25 364.71 363.25 367.52Q363.25 370.35 361.75 371.67Q360.26 373 357.09 373L354.05 373ZM370.61 368.88L369.27 368.88Q367.64 368.88 367.01 369.25Q366.38 369.62 366.38 370.52Q366.38 371.24 366.85 371.67Q367.33 372.08 368.14 372.08Q369.26 372.08 369.93 371.29Q370.61 370.5 370.61 369.18L370.61 368.88ZM371.96 368.32L371.96 373L370.61 373L370.61 371.75Q370.15 372.5 369.46 372.86Q368.78 373.21 367.78 373.21Q366.52 373.21 365.77 372.51Q365.03 371.8 365.03 370.61Q365.03 369.23 365.96 368.52Q366.89 367.82 368.72 367.82L370.61 367.82L370.61 367.69Q370.61 366.76 370 366.25Q369.39 365.74 368.28 365.74Q367.58 365.74 366.92 365.91Q366.25 366.08 365.63 366.42L365.63 365.17Q366.37 364.88 367.07 364.75Q367.76 364.6 368.42 364.6Q370.2 364.6 371.08 365.52Q371.96 366.44 371.96 368.32ZM380.14 366.04L380.14 361.6L381.48 361.6L381.48 373L380.14 373L380.14 371.77Q379.71 372.5 379.06 372.86Q378.41 373.21 377.51 373.21Q376.02 373.21 375.08 372.03Q374.15 370.84 374.15 368.91Q374.15 366.97 375.08 365.79Q376.02 364.6 377.51 364.6Q378.41 364.6 379.06 364.96Q379.71 365.31 380.14 366.04ZM375.54 368.91Q375.54 370.39 376.15 371.24Q376.77 372.08 377.84 372.08Q378.9 372.08 379.52 371.24Q380.14 370.39 380.14 368.91Q380.14 367.42 379.52 366.58Q378.9 365.73 377.84 365.73Q376.77 365.73 376.15 366.58Q375.54 367.42 375.54 368.91ZM389.01 364.67L389.01 366.06Q388.79 365.92 388.51 365.87Q388.25 365.8 387.93 365.8Q386.79 365.8 386.17 366.55Q385.56 367.29 385.56 368.68L385.56 373L384.21 373L384.21 364.8L385.56 364.8L385.56 366.07Q385.99 365.32 386.67 364.97Q387.35 364.6 388.32 364.6Q388.46 364.6 388.63 364.62Q388.8 364.64 389.01 364.67ZM395.49 368.88L394.15 368.88Q392.52 368.88 391.89 369.25Q391.26 369.62 391.26 370.52Q391.26 371.24 391.73 371.67Q392.21 372.08 393.02 372.08Q394.14 372.08 394.81 371.29Q395.49 370.5 395.49 369.18L395.49 368.88ZM396.84 368.32L396.84 373L395.49 373L395.49 371.75Q395.03 372.5 394.34 372.86Q393.66 373.21 392.66 373.21Q391.4 373.21 390.65 372.51Q389.91 371.8 389.91 370.61Q389.91 369.23 390.84 368.52Q391.77 367.82 393.6 367.82L395.49 367.82L395.49 367.69Q395.49 366.76 394.88 366.25Q394.27 365.74 393.17 365.74Q392.46 365.74 391.8 365.91Q391.13 366.08 390.51 366.42L390.51 365.17Q391.25 364.88 391.95 364.75Q392.65 364.6 393.3 364.6Q395.08 364.6 395.96 365.52Q396.84 366.44 396.84 368.32ZM409.45 368.88L408.11 368.88Q406.48 368.88 405.85 369.25Q405.22 369.62 405.22 370.52Q405.22 371.24 405.69 371.67Q406.17 372.08 406.98 372.08Q408.1 372.08 408.77 371.29Q409.45 370.5 409.45 369.18L409.45 368.88ZM410.8 368.32L410.8 373L409.45 373L409.45 371.75Q408.99 372.5 408.3 372.86Q407.62 373.21 406.62 373.21Q405.36 373.21 404.61 372.51Q403.87 371.8 403.87 370.61Q403.87 369.23 404.8 368.52Q405.73 367.82 407.56 367.82L409.45 367.82L409.45 367.69Q409.45 366.76 408.84 366.25Q408.23 365.74 407.13 365.74Q406.42 365.74 405.76 365.91Q405.09 366.08 404.47 366.42L404.47 365.17Q405.21 364.88 405.91 364.75Q406.61 364.6 407.26 364.6Q409.04 364.6 409.92 365.52Q410.8 366.44 410.8 368.32ZM420.4 368.05L420.4 373L419.05 373L419.05 368.09Q419.05 366.93 418.59 366.35Q418.14 365.77 417.23 365.77Q416.14 365.77 415.51 366.47Q414.88 367.16 414.88 368.36L414.88 373L413.53 373L413.53 364.8L414.88 364.8L414.88 366.07Q415.36 365.33 416.02 364.97Q416.68 364.6 417.53 364.6Q418.95 364.6 419.67 365.48Q420.4 366.35 420.4 368.05ZM428.48 366.04L428.48 361.6L429.83 361.6L429.83 373L428.48 373L428.48 371.77Q428.06 372.5 427.41 372.86Q426.76 373.21 425.85 373.21Q424.37 373.21 423.43 372.03Q422.5 370.84 422.5 368.91Q422.5 366.97 423.43 365.79Q424.37 364.6 425.85 364.6Q426.76 364.6 427.41 364.96Q428.06 365.31 428.48 366.04ZM423.89 368.91Q423.89 370.39 424.5 371.24Q425.11 372.08 426.18 372.08Q427.25 372.08 427.87 371.24Q428.48 370.39 428.48 368.91Q428.48 367.42 427.87 366.58Q427.25 365.73 426.18 365.73Q425.11 365.73 424.5 366.58Q423.89 367.42 423.89 368.91ZM437.43 373L437.43 362.06L439.42 362.06L444.27 371.21L444.27 362.06L445.71 362.06L445.71 373L443.72 373L438.87 363.85L438.87 373L437.43 373ZM453.66 368.88L452.32 368.88Q450.69 368.88 450.06 369.25Q449.43 369.62 449.43 370.52Q449.43 371.24 449.9 371.67Q450.37 372.08 451.19 372.08Q452.31 372.08 452.98 371.29Q453.66 370.5 453.66 369.18L453.66 368.88ZM455.01 368.32L455.01 373L453.66 373L453.66 371.75Q453.2 372.5 452.51 372.86Q451.82 373.21 450.83 373.21Q449.57 373.21 448.82 372.51Q448.08 371.8 448.08 370.61Q448.08 369.23 449.01 368.52Q449.94 367.82 451.77 367.82L453.66 367.82L453.66 367.69Q453.66 366.76 453.05 366.25Q452.44 365.74 451.33 365.74Q450.63 365.74 449.96 365.91Q449.3 366.08 448.68 366.42L448.68 365.17Q449.42 364.88 450.12 364.75Q450.81 364.6 451.47 364.6Q453.25 364.6 454.13 365.52Q455.01 366.44 455.01 368.32ZM463.18 368.8Q463.18 367.34 462.58 366.53Q461.98 365.73 460.88 365.73Q459.8 365.73 459.19 366.53Q458.59 367.34 458.59 368.8Q458.59 370.26 459.19 371.07Q459.8 371.87 460.88 371.87Q461.98 371.87 462.58 371.07Q463.18 370.26 463.18 368.8ZM464.53 364.8L464.53 371.98Q464.53 374.08 463.6 375.1Q462.67 376.12 460.75 376.12Q460.04 376.12 459.41 376.02Q458.78 375.91 458.19 375.69L458.19 374.38Q458.78 374.7 459.36 374.85Q459.94 375.01 460.54 375.01Q461.87 375.01 462.53 374.32Q463.18 373.62 463.18 372.22L463.18 371.56Q462.77 372.28 462.12 372.64Q461.46 373 460.56 373Q459.05 373 458.12 371.85Q457.2 370.7 457.2 368.8Q457.2 366.9 458.12 365.75Q459.05 364.6 460.56 364.6Q461.46 364.6 462.12 364.96Q462.77 365.32 463.18 366.04L463.18 364.8L464.53 364.8ZM472.38 368.88L471.04 368.88Q469.4 368.88 468.77 369.25Q468.14 369.62 468.14 370.52Q468.14 371.24 468.61 371.67Q469.09 372.08 469.9 372.08Q471.02 372.08 471.7 371.29Q472.38 370.5 472.38 369.18L472.38 368.88ZM473.72 368.32L473.72 373L472.38 373L472.38 371.75Q471.92 372.5 471.23 372.86Q470.54 373.21 469.54 373.21Q468.28 373.21 467.54 372.51Q466.8 371.8 466.8 370.61Q466.8 369.23 467.72 368.52Q468.65 367.82 470.49 367.82L472.38 367.82L472.38 367.69Q472.38 366.76 471.76 366.25Q471.15 365.74 470.05 365.74Q469.34 365.74 468.68 365.91Q468.01 366.08 467.4 366.42L467.4 365.17Q468.14 364.88 468.83 364.75Q469.53 364.6 470.19 364.6Q471.97 364.6 472.85 365.52Q473.72 366.44 473.72 368.32ZM481.25 364.67L481.25 366.06Q481.03 365.92 480.76 365.87Q480.49 365.8 480.17 365.8Q479.03 365.8 478.41 366.55Q477.8 367.29 477.8 368.68L477.8 373L476.45 373L476.45 364.8L477.8 364.8L477.8 366.07Q478.23 365.32 478.91 364.97Q479.59 364.6 480.57 364.6Q480.7 364.6 480.87 364.62Q481.04 364.64 481.25 364.67ZM487.49 373L487.49 362.06L488.97 362.06L488.97 366.55L494.35 366.55L494.35 362.06L495.83 362.06L495.83 373L494.35 373L494.35 367.79L488.97 367.79L488.97 373L487.49 373ZM503.78 368.88L502.44 368.88Q500.81 368.88 500.18 369.25Q499.55 369.62 499.55 370.52Q499.55 371.24 500.02 371.67Q500.49 372.08 501.31 372.08Q502.43 372.08 503.1 371.29Q503.78 370.5 503.78 369.18L503.78 368.88ZM505.13 368.32L505.13 373L503.78 373L503.78 371.75Q503.32 372.5 502.63 372.86Q501.94 373.21 500.95 373.21Q499.69 373.21 498.94 372.51Q498.2 371.8 498.2 370.61Q498.2 369.23 499.12 368.52Q500.05 367.82 501.89 367.82L503.78 367.82L503.78 367.69Q503.78 366.76 503.17 366.25Q502.56 365.74 501.45 365.74Q500.75 365.74 500.08 365.91Q499.42 366.08 498.8 366.42L498.8 365.17Q499.54 364.88 500.24 364.75Q500.93 364.6 501.59 364.6Q503.37 364.6 504.25 365.52Q505.13 366.44 505.13 368.32ZM510.02 373L506.94 364.8L508.37 364.8L510.93 371.68L513.49 364.8L514.92 364.8L511.85 373L510.02 373ZM523.8 368.56L523.8 369.22L517.6 369.22Q517.69 370.61 518.44 371.34Q519.19 372.07 520.53 372.07Q521.31 372.07 522.03 371.88Q522.77 371.69 523.49 371.31L523.49 372.58Q522.76 372.89 522 373.05Q521.24 373.21 520.45 373.21Q518.49 373.21 517.34 372.07Q516.2 370.93 516.2 368.98Q516.2 366.96 517.28 365.79Q518.37 364.6 520.22 364.6Q521.87 364.6 522.83 365.67Q523.8 366.73 523.8 368.56ZM517.65 368.17L522.45 368.17Q522.44 367.06 521.83 366.4Q521.23 365.74 520.23 365.74Q519.11 365.74 518.42 366.38Q517.75 367.02 517.65 368.17ZM526.01 373L526.01 361.6L527.36 361.6L527.36 373L526.01 373ZM530.18 373L530.18 364.8L531.53 364.8L531.53 373L530.18 373ZM530.18 363.31L530.18 361.6L531.53 361.6L531.53 363.31L530.18 363.31Z" />
	<path id="Created with paintmaps.com" fill="#000000" aria-label="Created with paintmaps.com"  d="M647.25 512.16Q646 512.16 645.3 512.97Q644.6 513.77 644.6 515.18Q644.6 516.57 645.33 517.42Q646.06 518.26 647.3 518.26Q648.89 518.26 649.69 516.69L650.52 517.11Q650.06 518.09 649.21 518.6Q648.37 519.11 647.25 519.11Q646.1 519.11 645.27 518.63Q644.43 518.16 643.99 517.28Q643.56 516.39 643.56 515.18Q643.56 513.37 644.54 512.35Q645.51 511.32 647.24 511.32Q648.45 511.32 649.26 511.79Q650.07 512.26 650.46 513.19L649.48 513.52Q649.22 512.86 648.63 512.51Q648.05 512.16 647.25 512.16ZM652.67 519L651.71 519L651.71 514.54Q651.71 513.93 651.67 513.19L652.59 513.19Q652.63 514.18 652.63 514.38L652.65 514.38Q652.88 513.63 653.18 513.35Q653.48 513.08 654.03 513.08Q654.23 513.08 654.42 513.13L654.42 514.02Q654.23 513.97 653.91 513.97Q653.31 513.97 652.99 514.49Q652.67 515 652.67 515.97L652.67 519ZM660.24 516.3L656.09 516.3Q656.09 517.3 656.5 517.84Q656.92 518.38 657.71 518.38Q658.34 518.38 658.72 518.13Q659.1 517.88 659.23 517.49L660.08 517.73Q659.56 519.11 657.71 519.11Q656.42 519.11 655.75 518.34Q655.07 517.57 655.07 516.06Q655.07 514.62 655.75 513.85Q656.42 513.08 657.67 513.08Q660.24 513.08 660.24 516.17L660.24 516.3ZM656.1 515.56L659.24 515.56Q659.16 514.64 658.77 514.22Q658.38 513.8 657.66 513.8Q656.95 513.8 656.54 514.27Q656.13 514.74 656.1 515.56ZM662.95 519.11Q662.07 519.11 661.63 518.65Q661.19 518.18 661.19 517.38Q661.19 516.48 661.78 515.99Q662.38 515.51 663.7 515.48L665.01 515.46L665.01 515.14Q665.01 514.43 664.7 514.12Q664.4 513.82 663.76 513.82Q663.11 513.82 662.81 514.04Q662.52 514.26 662.46 514.74L661.45 514.65Q661.7 513.08 663.78 513.08Q664.88 513.08 665.43 513.59Q665.98 514.09 665.98 515.04L665.98 517.54Q665.98 517.97 666.1 518.19Q666.21 518.4 666.53 518.4Q666.67 518.4 666.84 518.37L666.84 518.97Q666.48 519.05 666.1 519.05Q665.56 519.05 665.31 518.77Q665.07 518.49 665.04 517.89L665.01 517.89Q664.63 518.55 664.14 518.83Q663.65 519.11 662.95 519.11ZM663.17 518.38Q663.7 518.38 664.11 518.14Q664.53 517.9 664.76 517.48Q665.01 517.06 665.01 516.61L665.01 516.13L663.95 516.15Q663.27 516.16 662.91 516.29Q662.56 516.42 662.37 516.69Q662.19 516.96 662.19 517.39Q662.19 517.87 662.44 518.12Q662.7 518.38 663.17 518.38ZM669.82 518.24L669.82 518.96Q669.34 519.09 668.84 519.09Q667.68 519.09 667.68 517.77L667.68 513.89L667.01 513.89L667.01 513.19L667.72 513.19L668 511.89L668.65 511.89L668.65 513.19L669.72 513.19L669.72 513.89L668.65 513.89L668.65 517.56Q668.65 517.98 668.78 518.15Q668.92 518.32 669.26 518.32Q669.45 518.32 669.82 518.24ZM675.53 516.3L671.38 516.3Q671.38 517.3 671.79 517.84Q672.21 518.38 673 518.38Q673.63 518.38 674.01 518.13Q674.39 517.88 674.52 517.49L675.37 517.73Q674.85 519.11 673 519.11Q671.71 519.11 671.04 518.34Q670.37 517.57 670.37 516.06Q670.37 514.62 671.04 513.85Q671.71 513.08 672.97 513.08Q675.53 513.08 675.53 516.17L675.53 516.3ZM671.39 515.56L674.53 515.56Q674.45 514.64 674.06 514.22Q673.67 513.8 672.95 513.8Q672.25 513.8 671.83 514.27Q671.42 514.74 671.39 515.56ZM680.45 518.07L680.43 518.07Q680.16 518.62 679.71 518.87Q679.27 519.11 678.62 519.11Q677.51 519.11 676.99 518.37Q676.48 517.63 676.48 516.12Q676.48 513.08 678.62 513.08Q679.28 513.08 679.72 513.32Q680.16 513.56 680.43 514.09L680.44 514.09L680.43 513.44L680.43 511.03L681.39 511.03L681.39 517.8Q681.39 518.71 681.42 519L680.5 519Q680.48 518.91 680.46 518.6Q680.45 518.29 680.45 518.07ZM677.49 516.09Q677.49 517.31 677.82 517.83Q678.14 518.36 678.86 518.36Q679.68 518.36 680.06 517.79Q680.43 517.22 680.43 516.02Q680.43 514.87 680.06 514.33Q679.68 513.8 678.87 513.8Q678.14 513.8 677.82 514.34Q677.49 514.88 677.49 516.09ZM693.16 513.19L691.5 519L690.37 519L689.36 514.89L689.16 513.98Q689.12 514.23 689.01 514.68Q688.91 515.13 687.92 519L686.8 519L685.17 513.19L686.13 513.19L687.11 517.14Q687.15 517.27 687.34 518.2L687.44 517.8L688.65 513.19L689.69 513.19L690.7 517.18L690.95 518.2L691.11 517.45L692.22 513.19L693.16 513.19ZM694.84 511.95L693.87 511.95L693.87 511.03L694.84 511.03L694.84 511.95ZM694.84 519L693.87 519L693.87 513.19L694.84 513.19L694.84 519ZM698.55 518.24L698.55 518.96Q698.08 519.09 697.58 519.09Q696.42 519.09 696.42 517.77L696.42 513.89L695.74 513.89L695.74 513.19L696.45 513.19L696.74 511.89L697.38 511.89L697.38 513.19L698.46 513.19L698.46 513.89L697.38 513.89L697.38 517.56Q697.38 517.98 697.52 518.15Q697.66 518.32 697.99 518.32Q698.19 518.32 698.55 518.24ZM700.32 514.18L700.34 514.18Q700.65 513.61 701.08 513.35Q701.52 513.08 702.19 513.08Q703.14 513.08 703.59 513.55Q704.04 514.02 704.04 515.13L704.04 519L703.06 519L703.06 515.32Q703.06 514.7 702.95 514.41Q702.84 514.11 702.58 513.97Q702.32 513.83 701.87 513.83Q701.19 513.83 700.77 514.3Q700.36 514.77 700.36 515.57L700.36 519L699.4 519L699.4 511.03L700.36 511.03L700.36 513.1Q700.36 513.43 700.34 513.78Q700.33 514.13 700.32 514.18ZM713.46 516.07Q713.46 519.11 711.33 519.11Q709.98 519.11 709.52 518.1L709.49 518.1Q709.52 518.14 709.52 519.01L709.52 521.28L708.55 521.28L708.55 514.38Q708.55 513.48 708.52 513.19L709.45 513.19Q709.46 513.21 709.47 513.34Q709.48 513.47 709.49 513.75Q709.5 514.02 709.5 514.12L709.53 514.12Q709.78 513.59 710.21 513.34Q710.63 513.09 711.33 513.09Q712.4 513.09 712.93 513.81Q713.46 514.53 713.46 516.07ZM712.45 516.09Q712.45 514.88 712.12 514.35Q711.79 513.83 711.08 513.83Q710.5 513.83 710.18 514.07Q709.85 514.32 709.68 514.83Q709.52 515.34 709.52 516.16Q709.52 517.31 709.88 517.85Q710.25 518.39 711.07 518.39Q711.79 518.39 712.12 517.87Q712.45 517.33 712.45 516.09ZM716.15 519.11Q715.27 519.11 714.83 518.65Q714.39 518.18 714.39 517.38Q714.39 516.48 714.98 515.99Q715.58 515.51 716.9 515.48L718.21 515.46L718.21 515.14Q718.21 514.43 717.91 514.12Q717.6 513.82 716.96 513.82Q716.31 513.82 716.01 514.04Q715.72 514.26 715.66 514.74L714.65 514.65Q714.9 513.08 716.98 513.08Q718.08 513.08 718.63 513.59Q719.18 514.09 719.18 515.04L719.18 517.54Q719.18 517.97 719.3 518.19Q719.41 518.4 719.73 518.4Q719.87 518.4 720.04 518.37L720.04 518.97Q719.68 519.05 719.3 519.05Q718.76 519.05 718.51 518.77Q718.27 518.49 718.24 517.89L718.21 517.89Q717.84 518.55 717.34 518.83Q716.85 519.11 716.15 519.11ZM716.37 518.38Q716.9 518.38 717.31 518.14Q717.73 517.9 717.96 517.48Q718.21 517.06 718.21 516.61L718.21 516.13L717.15 516.15Q716.47 516.16 716.11 516.29Q715.76 516.42 715.57 516.69Q715.39 516.96 715.39 517.39Q715.39 517.87 715.64 518.12Q715.9 518.38 716.37 518.38ZM721.75 511.95L720.78 511.95L720.78 511.03L721.75 511.03L721.75 511.95ZM721.75 519L720.78 519L720.78 513.19L721.75 513.19L721.75 519ZM727.89 519L726.92 519L726.92 515.32Q726.92 514.74 726.81 514.42Q726.69 514.11 726.45 513.97Q726.2 513.83 725.72 513.83Q725.02 513.83 724.62 514.31Q724.22 514.78 724.22 515.63L724.22 519L723.25 519L723.25 514.43Q723.25 513.41 723.22 513.19L724.13 513.19Q724.14 513.22 724.14 513.33Q724.15 513.45 724.15 513.61Q724.16 513.76 724.17 514.18L724.19 514.18Q724.52 513.58 724.96 513.33Q725.4 513.08 726.05 513.08Q727 513.08 727.44 513.56Q727.89 514.03 727.89 515.13L727.89 519ZM731.58 518.24L731.58 518.96Q731.1 519.09 730.6 519.09Q729.44 519.09 729.44 517.77L729.44 513.89L728.77 513.89L728.77 513.19L729.48 513.19L729.76 511.89L730.41 511.89L730.41 513.19L731.48 513.19L731.48 513.89L730.41 513.89L730.41 517.56Q730.41 517.98 730.54 518.15Q730.68 518.32 731.02 518.32Q731.21 518.32 731.58 518.24ZM736.74 519L735.79 519L735.79 515.32Q735.79 514.47 735.55 514.15Q735.32 513.83 734.72 513.83Q734.1 513.83 733.74 514.3Q733.38 514.77 733.38 515.63L733.38 519L732.42 519L732.42 514.43Q732.42 513.41 732.39 513.19L733.3 513.19Q733.31 513.22 733.31 513.33Q733.32 513.45 733.33 513.61Q733.34 513.76 733.35 514.18L733.36 514.18Q733.67 513.56 734.08 513.32Q734.48 513.08 735.06 513.08Q735.72 513.08 736.1 513.34Q736.49 513.61 736.64 514.18L736.66 514.18Q736.96 513.6 737.38 513.34Q737.81 513.08 738.42 513.08Q739.3 513.08 739.7 513.56Q740.1 514.04 740.1 515.13L740.1 519L739.14 519L739.14 515.32Q739.14 514.47 738.91 514.15Q738.68 513.83 738.08 513.83Q737.45 513.83 737.09 514.3Q736.74 514.77 736.74 515.63L736.74 519ZM743.05 519.11Q742.17 519.11 741.73 518.65Q741.29 518.18 741.29 517.38Q741.29 516.48 741.88 515.99Q742.48 515.51 743.8 515.48L745.1 515.46L745.1 515.14Q745.1 514.43 744.8 514.12Q744.5 513.82 743.86 513.82Q743.21 513.82 742.91 514.04Q742.62 514.26 742.56 514.74L741.55 514.65Q741.8 513.08 743.88 513.08Q744.98 513.08 745.53 513.59Q746.08 514.09 746.08 515.04L746.08 517.54Q746.08 517.97 746.19 518.19Q746.31 518.4 746.62 518.4Q746.76 518.4 746.94 518.37L746.94 518.97Q746.58 519.05 746.19 519.05Q745.66 519.05 745.41 518.77Q745.17 518.49 745.14 517.89L745.1 517.89Q744.73 518.55 744.24 518.83Q743.75 519.11 743.05 519.11ZM743.27 518.38Q743.8 518.38 744.21 518.14Q744.63 517.9 744.86 517.48Q745.1 517.06 745.1 516.61L745.1 516.13L744.05 516.15Q743.36 516.16 743.01 516.29Q742.66 516.42 742.47 516.69Q742.28 516.96 742.28 517.39Q742.28 517.87 742.54 518.12Q742.79 518.38 743.27 518.38ZM752.6 516.07Q752.6 519.11 750.46 519.11Q749.12 519.11 748.65 518.1L748.63 518.1Q748.65 518.14 748.65 519.01L748.65 521.28L747.68 521.28L747.68 514.38Q747.68 513.48 747.65 513.19L748.58 513.19Q748.59 513.21 748.6 513.34Q748.61 513.47 748.62 513.75Q748.64 514.02 748.64 514.12L748.66 514.12Q748.92 513.59 749.34 513.34Q749.77 513.09 750.46 513.09Q751.53 513.09 752.07 513.81Q752.6 514.53 752.6 516.07ZM751.58 516.09Q751.58 514.88 751.25 514.35Q750.93 513.83 750.21 513.83Q749.64 513.83 749.31 514.07Q748.99 514.32 748.82 514.83Q748.65 515.34 748.65 516.16Q748.65 517.31 749.01 517.85Q749.38 518.39 750.2 518.39Q750.92 518.39 751.25 517.87Q751.58 517.33 751.58 516.09ZM758.16 517.39Q758.16 518.22 757.54 518.66Q756.92 519.11 755.8 519.11Q754.72 519.11 754.13 518.75Q753.54 518.39 753.37 517.64L754.22 517.47Q754.34 517.94 754.73 518.16Q755.12 518.37 755.8 518.37Q756.54 518.37 756.88 518.15Q757.22 517.92 757.22 517.47Q757.22 517.13 756.99 516.91Q756.75 516.7 756.22 516.56L755.53 516.37Q754.7 516.16 754.34 515.95Q753.99 515.75 753.79 515.45Q753.6 515.15 753.6 514.72Q753.6 513.93 754.16 513.52Q754.73 513.1 755.81 513.1Q756.78 513.1 757.34 513.44Q757.91 513.77 758.06 514.52L757.19 514.63Q757.11 514.24 756.75 514.04Q756.41 513.83 755.81 513.83Q755.16 513.83 754.85 514.03Q754.54 514.23 754.54 514.63Q754.54 514.88 754.67 515.04Q754.79 515.2 755.05 515.31Q755.3 515.42 756.11 515.62Q756.88 515.81 757.22 515.98Q757.55 516.14 757.75 516.34Q757.95 516.54 758.05 516.8Q758.16 517.06 758.16 517.39ZM760.61 519L759.56 519L759.56 517.82L760.61 517.82L760.61 519ZM763.09 516.07Q763.09 517.23 763.46 517.79Q763.82 518.34 764.56 518.34Q765.07 518.34 765.42 518.07Q765.77 517.79 765.85 517.21L766.83 517.27Q766.71 518.11 766.11 518.61Q765.51 519.11 764.59 519.11Q763.37 519.11 762.72 518.34Q762.08 517.57 762.08 516.09Q762.08 514.62 762.73 513.85Q763.37 513.08 764.57 513.08Q765.47 513.08 766.05 513.54Q766.64 514 766.79 514.82L765.8 514.89Q765.72 514.41 765.42 514.12Q765.11 513.84 764.55 513.84Q763.78 513.84 763.44 514.35Q763.09 514.86 763.09 516.07ZM772.77 516.09Q772.77 517.61 772.1 518.36Q771.43 519.11 770.15 519.11Q768.88 519.11 768.23 518.33Q767.58 517.56 767.58 516.09Q767.58 513.08 770.18 513.08Q771.51 513.08 772.14 513.82Q772.77 514.55 772.77 516.09ZM771.76 516.09Q771.76 514.89 771.4 514.34Q771.04 513.8 770.2 513.8Q769.35 513.8 768.97 514.35Q768.59 514.91 768.59 516.09Q768.59 517.24 768.96 517.82Q769.34 518.39 770.14 518.39Q771.01 518.39 771.38 517.83Q771.76 517.28 771.76 516.09ZM778.31 519L777.36 519L777.36 515.32Q777.36 514.47 777.13 514.15Q776.9 513.83 776.29 513.83Q775.68 513.83 775.32 514.3Q774.96 514.77 774.96 515.63L774.96 519L774 519L774 514.43Q774 513.41 773.96 513.19L774.88 513.19Q774.88 513.22 774.89 513.33Q774.89 513.45 774.9 513.61Q774.91 513.76 774.92 514.18L774.94 514.18Q775.25 513.56 775.65 513.32Q776.05 513.08 776.63 513.08Q777.29 513.08 777.67 513.34Q778.06 513.61 778.21 514.18L778.23 514.18Q778.53 513.6 778.95 513.34Q779.38 513.08 779.99 513.08Q780.87 513.08 781.27 513.56Q781.67 514.04 781.67 515.13L781.67 519L780.71 519L780.71 515.32Q780.71 514.47 780.48 514.15Q780.25 513.83 779.65 513.83Q779.02 513.83 778.66 514.3Q778.31 514.77 778.31 515.63L778.31 519Z" />
</svg>