<svg version="1.2" baseProfile="tiny-ps" xmlns="http://www.w3.org/2000/svg" viewBox="0 0 800 533" width="800" height="533">
	<title>Daman and Diu Map Chart-svg</title>
	<style>
		tspan { white-space:pre }
		.shp0 { fill: none;stroke: #000000;stroke-width: 0.4;stroke-dasharray: NaN } 
		.shp1 { fill: none;stroke: #cccccc;stroke-width: 0;stroke-dasharray: NaN } 
	</style>
	<path id="Daman" class="shp0" d="M682.41 335.77L681.29 335.56L679.95 334.78L677.03 334.93L675.3 334.2L668.54 334.44L667.39 336.34L666 337.09L664.58 335.44L664.65 335.47L664.58 335.38L664.5 335.38L664.5 335.27L664.58 335.27L664.58 334.74L664.66 334.74L664.66 334.42L664.74 334.42L664.74 334.21L664.82 334.21L664.82 334L664.9 334L664.9 333.78L664.97 333.78L664.97 333.47L665.06 333.47L665.06 333.15L665.14 333.15L665.14 332.73L665.22 332.73L665.22 332.41L665.29 332.41L665.29 332.09L665.37 332.09L665.37 331.88L665.45 331.88L665.45 331.56L665.53 331.56L665.53 331.24L665.61 331.24L665.61 331.03L665.69 331.03L665.69 330.71L665.77 330.71L665.77 330.5L665.85 330.5L665.85 330.29L665.93 330.29L665.93 330.07L666.01 330.07L666.01 329.86L666.09 329.86L666.09 329.44L666.17 329.44L666.17 329.22L666.33 329.23L666.33 329.12L666.41 329.12L666.41 328.8L666.33 328.8L666.33 328.59L666.25 328.59L666.25 328.16L666.33 328.16L666.33 327.95L666.41 327.95L666.41 327.42L666.49 327.42L666.49 326.47L666.57 326.47L666.57 324.24L666.65 324.24L666.65 323.07L666.57 323.07L666.57 322.44L666.65 322.44L666.65 322.01L666.73 322.01L666.73 321.69L666.81 321.69L666.81 321.27L666.89 321.27L666.89 321.16L666.96 321.16L666.96 320.95L667.05 320.95L667.05 320.74L667.12 320.74L667.12 320.63L667.2 320.63L667.2 320.53L667.28 320.53L667.28 320.42L667.36 320.42L667.36 320.11L667.36 319.57L667.2 319.57L667.2 319.36L667.12 319.36L667.12 319.25L667.05 319.25L667.05 319.15L666.97 319.15L666.97 318.94L666.89 318.94L666.89 318.51L666.81 318.51L666.81 316.29L666.73 316.29L666.73 314.59L666.65 314.59L666.65 313.1L666.57 313.1L666.57 313L666.49 313L666.49 312.15L666.57 312.15L666.57 311.51L666.65 311.51L666.65 311.3L666.73 311.3L666.73 310.98L666.81 310.98L666.81 310.56L666.89 310.56L666.89 310.24L666.96 310.24L666.96 309.6L667.05 309.6L667.05 309.28L667.12 309.28L667.12 308.96L667.2 308.97L667.2 308.75L667.28 308.75L667.28 308.54L667.36 308.54L667.36 308.33L667.44 308.33L667.44 308.12L667.52 308.12L667.52 307.8L667.6 307.8L667.6 307.59L667.68 307.59L667.68 307.27L667.76 307.27L667.76 306.84L667.84 306.84L667.84 306.74L668 306.74L668 306.63L668.08 306.63L668.08 306.53L668.16 306.53L668.16 306.31L668.32 306.31L668.32 306.1L668.4 306.1L668.4 306L668.48 306L668.48 305.78L668.56 305.78L668.56 305.68L668.64 305.68L668.64 305.36L668.72 305.36L668.72 305.25L668.8 305.25L668.8 305.15L668.87 305.15L668.87 304.83L668.95 304.83L668.95 304.72L669.03 304.72L669.03 304.61L669.11 304.61L669.11 304.4L669.19 304.4L669.19 304.3L669.27 304.3L669.27 304.09L669.35 304.09L669.35 303.98L669.43 303.98L669.43 303.87L669.59 303.87L669.59 303.77L669.67 303.77L669.67 303.66L669.75 303.66L669.75 303.45L669.91 303.45L669.91 303.34L669.99 303.34L669.99 303.24L670.07 303.24L670.07 303.13L670.15 303.13L670.15 303.03L670.22 303.03L670.23 302.92L670.31 302.92L670.31 302.88L670.31 302.81L670.35 302.81L670.39 302.81L670.39 302.75L670.38 302.71L670.42 302.71L670.47 302.71L670.47 302.6L670.55 302.6L670.55 302.49L670.62 302.49L670.62 302.35L670.62 302.28L670.66 302.28L670.7 302.28L670.7 302.18L670.86 302.18L670.86 302.07L671.02 302.07L671.02 301.86L671.1 301.86L671.1 301.75L671.18 301.75L671.18 301.65L671.42 301.65L671.42 301.54L671.58 301.54L671.58 301.65L671.66 301.65L671.66 301.43L671.82 301.43L671.82 301.33L672.06 301.33L672.06 301.22L672.14 301.22L672.14 301.12L672.3 301.12L672.3 301.01L672.46 301.01L672.46 300.9L672.53 300.9L672.53 300.8L672.69 300.8L672.69 300.69L672.77 300.69L672.77 300.48L672.85 300.48L672.85 300.37L673.09 300.37L673.09 300.27L673.17 300.27L673.17 300.16L673.33 300.16L673.33 300.27L673.41 300.27L673.41 300.16L673.57 300.16L673.57 300.05L673.65 300.05L673.65 299.95L673.73 299.95L673.73 299.74L673.81 299.74L673.81 299.63L673.89 299.63L673.89 299.52L673.97 299.52L673.97 299.31L674.21 299.31L674.21 299.21L674.44 299.21L674.44 299.31L674.52 299.31L674.52 299.42L674.68 299.42L674.68 299.52L674.76 299.52L674.76 299.63L675.24 299.63L675.24 299.74L675.32 299.74L675.32 299.63L675.4 299.63L675.4 299.42L675.32 299.42L675.32 299.31L675.24 299.31L675.24 299.21L675.16 299.21L675.16 298.89L675.24 298.89L675.24 298.78L675.32 298.78L675.32 298.57L675.4 298.57L675.4 298.36L675.48 298.36L675.48 298.15L675.56 298.15L675.56 297.51L675.64 297.51L675.64 297.3L676.57 298.11L677.29 298.62L677.43 299.69L679.69 300.35L682.04 300.43L682.94 301.84L683.46 304.03L684.19 305.74L685.15 307.07L684.99 308.49L683.84 309.45L682.72 309.1L680.48 307.36L679.44 307.52L677.92 311.26L676.04 313.57L675.4 315.09L675.69 316.91L677.06 318.22L678.14 318.36L681.2 317.35L683.87 317.1L685.86 316.24L686.95 317.06L687.8 318.58L688 320.45L687.17 322.39L684.05 325.05L683.14 326.93L683.29 329.29L683.83 330.43L685.81 331.9L686.02 333.3L685.2 335.03L682.41 335.77Z" />
	<path id="Diu" class="shp0" d="M132.21 198.62L132.21 198.76L132.13 198.76L132.13 198.97L132.05 198.97L132.05 199.18L131.97 199.18L131.97 199.5L131.89 199.5L131.89 199.92L131.81 199.92L131.81 200.98L131.89 200.98L131.89 201.2L131.97 201.2L131.97 201.3L132.05 201.3L132.05 201.41L132.13 201.41L132.13 201.51L132.28 201.51L132.28 201.62L132.44 201.62L132.44 201.51L132.53 201.51L132.53 201.62L132.6 201.62L132.6 201.51L132.92 201.51L132.92 201.41L133 201.41L133 201.09L132.44 201.09L132.44 200.98L132.28 200.98L132.28 200.88L132.21 200.88L132.21 200.24L132.28 200.24L132.28 200.03L132.37 200.03L132.37 199.92L132.44 199.92L132.44 199.71L132.53 199.71L132.53 199.61L132.6 199.61L132.6 199.5L132.68 199.5L132.68 199.39L132.76 199.39L132.76 199.29L132.84 199.29L132.84 199.18L132.92 199.18L132.92 199.07L133 199.07L133 198.97L133.64 198.97L133.64 199.07L133.8 199.07L133.8 199.18L134.03 199.18L134.03 199.29L134.52 199.29L134.52 199.5L134.83 199.5L134.83 199.61L134.99 199.61L134.99 199.71L135.15 199.71L135.15 199.82L135.39 199.82L135.39 199.92L135.63 199.92L135.63 200.03L135.87 200.03L135.87 200.14L135.94 200.14L135.94 200.24L136.03 200.24L136.03 200.35L136.1 200.35L136.1 200.56L136.18 200.56L136.18 200.67L136.26 200.67L136.26 200.77L136.34 200.77L136.34 200.99L136.42 200.98L136.42 201.09L136.5 201.09L136.5 201.2L136.58 201.2L136.58 201.3L136.66 201.3L136.66 201.41L136.82 201.41L136.82 201.51L136.9 201.51L136.9 201.62L136.98 201.62L136.98 201.73L137.06 201.73L137.06 201.94L137.14 201.94L137.14 202.05L137.62 202.04L137.62 202.15L137.85 202.15L137.85 202.26L138.17 202.26L138.17 202.15L138.89 202.15L138.89 202.26L138.97 202.26L138.97 202.36L139.05 202.36L139.05 202.47L139.37 202.47L139.37 202.57L139.92 202.57L139.92 202.68L140.08 202.68L140.08 202.79L140.24 202.79L140.24 202.89L140.32 202.89L140.32 203L140.4 203L140.4 203.21L140.48 203.21L140.48 203.32L140.64 203.32L140.64 203.42L140.96 203.42L140.96 203.53L141.2 203.53L141.2 203.64L142.07 203.64L142.07 203.74L142.15 203.74L142.15 203.85L142.23 203.85L142.23 204.33L142.23 204.48L142.15 204.48L142.15 204.7L142.07 204.7L142.07 204.8L141.99 204.8L141.99 204.91L141.83 204.91L141.83 205.12L141.75 205.12L141.75 205.23L141.51 205.23L141.51 205.33L141.44 205.33L141.44 205.55L141.35 205.55L141.35 205.65L141.28 205.65L141.28 205.76L141.04 205.76L141.04 205.86L140.88 205.86L140.88 205.97L140.48 205.97L140.48 206.08L140.16 206.08L140.16 206.29L140.08 206.29L140.08 206.39L140 206.39L140 206.5L139.92 206.5L139.92 206.61L139.76 206.61L139.76 206.5L139.68 206.5L139.68 206.39L139.6 206.39L139.6 206.29L139.45 206.29L139.45 206.18L139.13 206.18L139.13 206.29L138.81 206.29L138.81 206.39L138.65 206.39L138.65 206.61L138.57 206.61L138.57 206.82L138.49 206.82L138.49 206.92L138.17 206.92L138.17 207.03L137.78 207.03L137.78 207.14L137.62 207.14L137.62 207.24L137.46 207.24L137.46 207.35L137.3 207.35L137.3 207.45L137.22 207.45L137.22 207.56L136.98 207.56L136.98 207.67L136.9 207.67L136.9 207.77L136.82 207.77L136.82 208.09L136.74 208.09L136.74 208.2L136.66 208.2L136.66 208.3L136.58 208.3L136.58 208.41L136.5 208.41L136.5 208.52L136.42 208.52L136.42 209.06L136.42 209.15L136.34 209.15L136.34 209.26L136.1 209.26L136.1 209.15L136.03 209.15L136.03 209.09L136.03 209.05L135.94 209.05L135.94 208.73L136.03 208.73L136.03 208.62L136.1 208.62L136.1 208.3L135.54 208.3L135.54 208.41L135.15 208.41L135.15 208.3L135.07 208.3L135.07 208.09L134.99 208.09L134.99 208.2L134.91 208.2L134.91 208.3L134.75 208.3L134.75 208.2L134.51 208.2L134.51 208.09L134.43 208.09L134.43 207.98L134.27 207.98L134.27 207.77L134.35 207.77L134.35 207.67L134.43 207.67L134.43 207.24L134.35 207.24L134.35 207.14L133.56 207.14L133.56 207.24L133.4 207.24L133.4 207.35L133.24 207.35L133.24 207.45L133.16 207.45L133.16 207.56L133.08 207.56L133.08 207.67L133 207.67L133 207.77L132.6 207.77L132.6 207.67L132.13 207.67L132.13 207.45L131.88 207.45L131.88 207.35L131.57 207.35L131.57 207.24L131.49 207.24L131.49 207.45L131.41 207.45L131.41 207.56L131.17 207.56L131.17 207.67L130.85 207.67L130.85 207.77L130.81 207.77L130.78 207.77L130.78 207.88L130.69 207.88L130.69 207.98L130.53 207.98L130.53 208.09L130.38 208.09L130.38 208.2L130.3 208.2L130.3 208.3L130.13 208.3L130.13 208.41L129.11 208.41L129.11 208.3L128.86 208.3L128.86 208.2L128.71 208.2L128.71 208.09L128.55 208.09L128.55 207.98L128.23 207.98L128.23 207.88L127.91 207.88L127.91 207.77L127.43 207.77L127.43 207.67L126.8 207.67L126.8 207.56L126.64 207.56L126.64 207.45L126.4 207.45L126.4 207.35L126.16 207.35L126.16 207.24L126 207.24L126 207.14L125.52 207.14L125.52 207.03L125.44 207.03L125.44 206.92L125.37 206.92L125.37 206.82L125.28 206.82L125.28 206.71L125.13 206.71L125.13 206.39L125.05 206.39L125.05 206.29L124.97 206.29L124.97 206.18L124.89 206.18L124.89 206.08L124.73 206.08L124.73 205.97L124.57 205.97L124.57 205.86L124.41 205.86L124.41 205.76L124.17 205.76L124.17 205.65L123.69 205.65L123.69 205.55L123.38 205.55L123.38 205.44L122.66 205.44L122.66 205.33L121.47 205.33L121.47 205.44L120.99 205.44L120.99 205.55L120.75 205.55L120.75 205.65L120.51 205.65L120.51 205.76L120.11 205.76L120.11 205.86L119.79 205.86L119.79 205.97L119.64 205.97L119.64 206.08L119.56 206.08L119.56 206.18L119.32 206.18L119.32 206.29L119.24 206.29L119.24 206.5L119.16 206.5L119.16 206.61L119 206.61L119 206.71L118.92 206.71L118.92 206.92L118.84 206.92L118.84 207.35L118.76 207.35L118.76 207.67L118.68 207.67L118.68 207.98L118.76 207.98L118.76 208.52L118.84 208.52L118.84 208.83L118.92 208.83L118.92 208.94L119.48 208.94L119.48 209.05L119.4 209.05L119.4 209.26L119.16 209.26L119.16 209.36L119 209.36L119 209.47L118.76 209.47L118.76 209.58L118.68 209.57L118.68 209.68L118.6 209.68L118.6 209.79L118.52 209.79L118.52 209.89L118.36 209.89L118.36 210L118.28 210L118.28 210.21L117.89 210.21L117.89 210.1L117.65 210.1L117.65 209.68L117.57 209.68L117.57 209.26L117.57 209.15L117.31 209.15L117.17 209.15L117.17 209.26L117.09 209.26L117.09 209.47L116.93 209.47L116.93 209.58L116.46 209.57L116.46 209.68L116.37 209.68L116.37 209.57L116.06 209.57L116.06 209.68L115.74 209.68L115.74 209.79L115.26 209.79L115.26 209.89L115.02 209.89L115.02 210L114.7 210L114.7 210.1L114.63 210.1L114.63 210.21L114.31 210.21L114.31 210.32L114.07 210.32L114.07 210.21L113.99 210.21L113.99 210.1L113.91 210.1L113.91 210L113.83 210L113.83 209.89L113.67 209.89L113.67 209.79L113.51 209.79L113.51 209.68L113.43 209.68L113.43 209.47L113.51 209.47L113.51 209.36L113.59 209.36L113.59 209.05L113.67 209.05L113.67 208.41L113.59 208.41L113.59 208.2L113.51 208.2L113.51 207.98L113.27 207.98L113.27 207.88L113.19 207.88L113.19 207.67L113.11 207.67L113.11 207.56L113.05 207.56L112.95 207.56L112.95 207.45L112.88 207.45L112.88 207.35L112.79 207.35L112.79 207.24L112.72 207.24L112.72 207.14L112.64 207.14L112.64 207.03L112.48 207.03L112.48 206.92L112.24 206.92L112.24 206.82L112 206.82L112 206.71L112.25 204.87L113.38 202.2L114.17 200.72L115.66 199.71L120.26 198.8L122.76 197.65L124.01 196.11L125.41 195.91L128.17 196.96L132.03 198.69L132.21 198.62Z" />
	<path id="Layer" class="shp1" d="M790 261.5L800 261.5L800 271.5L790 271.5L790 261.5Z" />
	<path id="Layer" class="shp1" d="" />
	<path id="Daman" fill="#000000" aria-label="Daman"  d="M605.52 300.93L603.85 300.93L603.85 308.87L605.52 308.87Q607.63 308.87 608.61 307.91Q609.59 306.95 609.59 304.89Q609.59 302.84 608.61 301.89Q607.63 300.93 605.52 300.93ZM602.47 310L602.47 299.79L605.31 299.79Q608.27 299.79 609.66 301.03Q611.05 302.26 611.05 304.89Q611.05 307.53 609.65 308.76Q608.26 310 605.31 310L602.47 310ZM617.92 306.15L616.67 306.15Q615.15 306.15 614.56 306.5Q613.97 306.85 613.97 307.69Q613.97 308.36 614.41 308.76Q614.86 309.15 615.61 309.15Q616.66 309.15 617.29 308.41Q617.92 307.66 617.92 306.43L617.92 306.15ZM619.18 305.63L619.18 310L617.92 310L617.92 308.84Q617.49 309.54 616.85 309.87Q616.21 310.2 615.28 310.2Q614.1 310.2 613.41 309.54Q612.72 308.88 612.72 307.77Q612.72 306.48 613.58 305.82Q614.45 305.17 616.16 305.17L617.92 305.17L617.92 305.04Q617.92 304.18 617.35 303.7Q616.78 303.23 615.75 303.23Q615.09 303.23 614.47 303.38Q613.85 303.54 613.28 303.85L613.28 302.69Q613.97 302.43 614.62 302.3Q615.27 302.16 615.88 302.16Q617.54 302.16 618.36 303.02Q619.18 303.88 619.18 305.63ZM627.73 303.81Q628.21 302.97 628.86 302.56Q629.52 302.16 630.41 302.16Q631.6 302.16 632.25 303Q632.9 303.83 632.9 305.38L632.9 310L631.64 310L631.64 305.42Q631.64 304.32 631.25 303.79Q630.86 303.25 630.06 303.25Q629.08 303.25 628.51 303.9Q627.95 304.55 627.95 305.67L627.95 310L626.68 310L626.68 305.42Q626.68 304.31 626.29 303.79Q625.9 303.25 625.09 303.25Q624.13 303.25 623.56 303.91Q622.99 304.56 622.99 305.67L622.99 310L621.73 310L621.73 302.34L622.99 302.34L622.99 303.53Q623.42 302.83 624.02 302.49Q624.62 302.16 625.45 302.16Q626.29 302.16 626.87 302.58Q627.45 303.01 627.73 303.81ZM640.14 306.15L638.89 306.15Q637.37 306.15 636.78 306.5Q636.19 306.85 636.19 307.69Q636.19 308.36 636.63 308.76Q637.07 309.15 637.83 309.15Q638.88 309.15 639.51 308.41Q640.14 307.66 640.14 306.43L640.14 306.15ZM641.4 305.63L641.4 310L640.14 310L640.14 308.84Q639.71 309.54 639.07 309.87Q638.43 310.2 637.5 310.2Q636.32 310.2 635.62 309.54Q634.93 308.88 634.93 307.77Q634.93 306.48 635.79 305.82Q636.66 305.17 638.38 305.17L640.14 305.17L640.14 305.04Q640.14 304.18 639.57 303.7Q639 303.23 637.97 303.23Q637.31 303.23 636.69 303.38Q636.07 303.54 635.49 303.85L635.49 302.69Q636.18 302.43 636.83 302.3Q637.48 302.16 638.1 302.16Q639.76 302.16 640.58 303.02Q641.4 303.88 641.4 305.63ZM650.35 305.38L650.35 310L649.1 310L649.1 305.42Q649.1 304.33 648.67 303.79Q648.25 303.25 647.4 303.25Q646.38 303.25 645.79 303.9Q645.21 304.55 645.21 305.67L645.21 310L643.94 310L643.94 302.34L645.21 302.34L645.21 303.53Q645.66 302.84 646.27 302.5Q646.88 302.16 647.68 302.16Q649 302.16 649.68 302.98Q650.35 303.79 650.35 305.38Z" />
	<path id="Diu" fill="#000000" aria-label="Diu"  d="M169.21 200.93L167.54 200.93L167.54 208.87L169.21 208.87Q171.32 208.87 172.3 207.91Q173.29 206.95 173.29 204.89Q173.29 202.84 172.3 201.89Q171.32 200.93 169.21 200.93ZM166.16 210L166.16 199.79L169 199.79Q171.97 199.79 173.35 201.03Q174.74 202.26 174.74 204.89Q174.74 207.53 173.35 208.76Q171.95 210 169 210L166.16 210ZM176.89 210L176.89 202.34L178.15 202.34L178.15 210L176.89 210ZM176.89 200.96L176.89 199.36L178.15 199.36L178.15 200.96L176.89 200.96ZM180.65 206.98L180.65 202.34L181.91 202.34L181.91 206.93Q181.91 208.02 182.33 208.56Q182.75 209.1 183.6 209.1Q184.62 209.1 185.21 208.46Q185.8 207.81 185.8 206.68L185.8 202.34L187.06 202.34L187.06 210L185.8 210L185.8 208.82Q185.34 209.52 184.74 209.86Q184.13 210.2 183.33 210.2Q182.01 210.2 181.33 209.38Q180.65 208.56 180.65 206.98ZM183.81 202.16L183.81 202.16Z" />
	<path id="Created with paintmaps.com" fill="#000000" aria-label="Created with paintmaps.com"  d="M647.25 512.16Q646 512.16 645.3 512.97Q644.6 513.77 644.6 515.18Q644.6 516.57 645.33 517.42Q646.06 518.26 647.3 518.26Q648.89 518.26 649.69 516.69L650.52 517.11Q650.06 518.09 649.21 518.6Q648.37 519.11 647.25 519.11Q646.1 519.11 645.27 518.63Q644.43 518.16 643.99 517.28Q643.56 516.39 643.56 515.18Q643.56 513.37 644.54 512.35Q645.51 511.32 647.24 511.32Q648.45 511.32 649.26 511.79Q650.07 512.26 650.46 513.19L649.48 513.52Q649.22 512.86 648.63 512.51Q648.05 512.16 647.25 512.16ZM652.67 519L651.71 519L651.71 514.54Q651.71 513.93 651.67 513.19L652.59 513.19Q652.63 514.18 652.63 514.38L652.65 514.38Q652.88 513.63 653.18 513.35Q653.48 513.08 654.03 513.08Q654.23 513.08 654.42 513.13L654.42 514.02Q654.23 513.97 653.91 513.97Q653.31 513.97 652.99 514.49Q652.67 515 652.67 515.97L652.67 519ZM660.24 516.3L656.09 516.3Q656.09 517.3 656.5 517.84Q656.92 518.38 657.71 518.38Q658.34 518.38 658.72 518.13Q659.1 517.88 659.23 517.49L660.08 517.73Q659.56 519.11 657.71 519.11Q656.42 519.11 655.75 518.34Q655.07 517.57 655.07 516.06Q655.07 514.62 655.75 513.85Q656.42 513.08 657.67 513.08Q660.24 513.08 660.24 516.17L660.24 516.3ZM656.1 515.56L659.24 515.56Q659.16 514.64 658.77 514.22Q658.38 513.8 657.66 513.8Q656.95 513.8 656.54 514.27Q656.13 514.74 656.1 515.56ZM662.95 519.11Q662.07 519.11 661.63 518.65Q661.19 518.18 661.19 517.38Q661.19 516.48 661.78 515.99Q662.38 515.51 663.7 515.48L665.01 515.46L665.01 515.14Q665.01 514.43 664.7 514.12Q664.4 513.82 663.76 513.82Q663.11 513.82 662.81 514.04Q662.52 514.26 662.46 514.74L661.45 514.65Q661.7 513.08 663.78 513.08Q664.88 513.08 665.43 513.59Q665.98 514.09 665.98 515.04L665.98 517.54Q665.98 517.97 666.1 518.19Q666.21 518.4 666.53 518.4Q666.67 518.4 666.84 518.37L666.84 518.97Q666.48 519.05 666.1 519.05Q665.56 519.05 665.31 518.77Q665.07 518.49 665.04 517.89L665.01 517.89Q664.63 518.55 664.14 518.83Q663.65 519.11 662.95 519.11ZM663.17 518.38Q663.7 518.38 664.11 518.14Q664.53 517.9 664.76 517.48Q665.01 517.06 665.01 516.61L665.01 516.13L663.95 516.15Q663.27 516.16 662.91 516.29Q662.56 516.42 662.37 516.69Q662.19 516.96 662.19 517.39Q662.19 517.87 662.44 518.12Q662.7 518.38 663.17 518.38ZM669.82 518.24L669.82 518.96Q669.34 519.09 668.84 519.09Q667.68 519.09 667.68 517.77L667.68 513.89L667.01 513.89L667.01 513.19L667.72 513.19L668 511.89L668.65 511.89L668.65 513.19L669.72 513.19L669.72 513.89L668.65 513.89L668.65 517.56Q668.65 517.98 668.78 518.15Q668.92 518.32 669.26 518.32Q669.45 518.32 669.82 518.24ZM675.53 516.3L671.38 516.3Q671.38 517.3 671.79 517.84Q672.21 518.38 673 518.38Q673.63 518.38 674.01 518.13Q674.39 517.88 674.52 517.49L675.37 517.73Q674.85 519.11 673 519.11Q671.71 519.11 671.04 518.34Q670.37 517.57 670.37 516.06Q670.37 514.62 671.04 513.85Q671.71 513.08 672.97 513.08Q675.53 513.08 675.53 516.17L675.53 516.3ZM671.39 515.56L674.53 515.56Q674.45 514.64 674.06 514.22Q673.67 513.8 672.95 513.8Q672.25 513.8 671.83 514.27Q671.42 514.74 671.39 515.56ZM680.45 518.07L680.43 518.07Q680.16 518.62 679.71 518.87Q679.27 519.11 678.62 519.11Q677.51 519.11 676.99 518.37Q676.48 517.63 676.48 516.12Q676.48 513.08 678.62 513.08Q679.28 513.08 679.72 513.32Q680.16 513.56 680.43 514.09L680.44 514.09L680.43 513.44L680.43 511.03L681.39 511.03L681.39 517.8Q681.39 518.71 681.42 519L680.5 519Q680.48 518.91 680.46 518.6Q680.45 518.29 680.45 518.07ZM677.49 516.09Q677.49 517.31 677.82 517.83Q678.14 518.36 678.86 518.36Q679.68 518.36 680.06 517.79Q680.43 517.22 680.43 516.02Q680.43 514.87 680.06 514.33Q679.68 513.8 678.87 513.8Q678.14 513.8 677.82 514.34Q677.49 514.88 677.49 516.09ZM693.16 513.19L691.5 519L690.37 519L689.36 514.89L689.16 513.98Q689.12 514.23 689.01 514.68Q688.91 515.13 687.92 519L686.8 519L685.17 513.19L686.13 513.19L687.11 517.14Q687.15 517.27 687.34 518.2L687.44 517.8L688.65 513.19L689.69 513.19L690.7 517.18L690.95 518.2L691.11 517.45L692.22 513.19L693.16 513.19ZM694.84 511.95L693.87 511.95L693.87 511.03L694.84 511.03L694.84 511.95ZM694.84 519L693.87 519L693.87 513.19L694.84 513.19L694.84 519ZM698.55 518.24L698.55 518.96Q698.08 519.09 697.58 519.09Q696.42 519.09 696.42 517.77L696.42 513.89L695.74 513.89L695.74 513.19L696.45 513.19L696.74 511.89L697.38 511.89L697.38 513.19L698.46 513.19L698.46 513.89L697.38 513.89L697.38 517.56Q697.38 517.98 697.52 518.15Q697.66 518.32 697.99 518.32Q698.19 518.32 698.55 518.24ZM700.32 514.18L700.34 514.18Q700.65 513.61 701.08 513.35Q701.52 513.08 702.19 513.08Q703.14 513.08 703.59 513.55Q704.04 514.02 704.04 515.13L704.04 519L703.06 519L703.06 515.32Q703.06 514.7 702.95 514.41Q702.84 514.11 702.58 513.97Q702.32 513.83 701.87 513.83Q701.19 513.83 700.77 514.3Q700.36 514.77 700.36 515.57L700.36 519L699.4 519L699.4 511.03L700.36 511.03L700.36 513.1Q700.36 513.43 700.34 513.78Q700.33 514.13 700.32 514.18ZM713.46 516.07Q713.46 519.11 711.33 519.11Q709.98 519.11 709.52 518.1L709.49 518.1Q709.52 518.14 709.52 519.01L709.52 521.28L708.55 521.28L708.55 514.38Q708.55 513.48 708.52 513.19L709.45 513.19Q709.46 513.21 709.47 513.34Q709.48 513.47 709.49 513.75Q709.5 514.02 709.5 514.12L709.53 514.12Q709.78 513.59 710.21 513.34Q710.63 513.09 711.33 513.09Q712.4 513.09 712.93 513.81Q713.46 514.53 713.46 516.07ZM712.45 516.09Q712.45 514.88 712.12 514.35Q711.79 513.83 711.08 513.83Q710.5 513.83 710.18 514.07Q709.85 514.32 709.68 514.83Q709.52 515.34 709.52 516.16Q709.52 517.31 709.88 517.85Q710.25 518.39 711.07 518.39Q711.79 518.39 712.12 517.87Q712.45 517.33 712.45 516.09ZM716.15 519.11Q715.27 519.11 714.83 518.65Q714.39 518.18 714.39 517.38Q714.39 516.48 714.98 515.99Q715.58 515.51 716.9 515.48L718.21 515.46L718.21 515.14Q718.21 514.43 717.91 514.12Q717.6 513.82 716.96 513.82Q716.31 513.82 716.01 514.04Q715.72 514.26 715.66 514.74L714.65 514.65Q714.9 513.08 716.98 513.08Q718.08 513.08 718.63 513.59Q719.18 514.09 719.18 515.04L719.18 517.54Q719.18 517.97 719.3 518.19Q719.41 518.4 719.73 518.4Q719.87 518.4 720.04 518.37L720.04 518.97Q719.68 519.05 719.3 519.05Q718.76 519.05 718.51 518.77Q718.27 518.49 718.24 517.89L718.21 517.89Q717.84 518.55 717.34 518.83Q716.85 519.11 716.15 519.11ZM716.37 518.38Q716.9 518.38 717.31 518.14Q717.73 517.9 717.96 517.48Q718.21 517.06 718.21 516.61L718.21 516.13L717.15 516.15Q716.47 516.16 716.11 516.29Q715.76 516.42 715.57 516.69Q715.39 516.96 715.39 517.39Q715.39 517.87 715.64 518.12Q715.9 518.38 716.37 518.38ZM721.75 511.95L720.78 511.95L720.78 511.03L721.75 511.03L721.75 511.95ZM721.75 519L720.78 519L720.78 513.19L721.75 513.19L721.75 519ZM727.89 519L726.92 519L726.92 515.32Q726.92 514.74 726.81 514.42Q726.69 514.11 726.45 513.97Q726.2 513.83 725.72 513.83Q725.02 513.83 724.62 514.31Q724.22 514.78 724.22 515.63L724.22 519L723.25 519L723.25 514.43Q723.25 513.41 723.22 513.19L724.13 513.19Q724.14 513.22 724.14 513.33Q724.15 513.45 724.15 513.61Q724.16 513.76 724.17 514.18L724.19 514.18Q724.52 513.58 724.96 513.33Q725.4 513.08 726.05 513.08Q727 513.08 727.44 513.56Q727.89 514.03 727.89 515.13L727.89 519ZM731.58 518.24L731.58 518.96Q731.1 519.09 730.6 519.09Q729.44 519.09 729.44 517.77L729.44 513.89L728.77 513.89L728.77 513.19L729.48 513.19L729.76 511.89L730.41 511.89L730.41 513.19L731.48 513.19L731.48 513.89L730.41 513.89L730.41 517.56Q730.41 517.98 730.54 518.15Q730.68 518.32 731.02 518.32Q731.21 518.32 731.58 518.24ZM736.74 519L735.79 519L735.79 515.32Q735.79 514.47 735.55 514.15Q735.32 513.83 734.72 513.83Q734.1 513.83 733.74 514.3Q733.38 514.77 733.38 515.63L733.38 519L732.42 519L732.42 514.43Q732.42 513.41 732.39 513.19L733.3 513.19Q733.31 513.22 733.31 513.33Q733.32 513.45 733.33 513.61Q733.34 513.76 733.35 514.18L733.36 514.18Q733.67 513.56 734.08 513.32Q734.48 513.08 735.06 513.08Q735.72 513.08 736.1 513.34Q736.49 513.61 736.64 514.18L736.66 514.18Q736.96 513.6 737.38 513.34Q737.81 513.08 738.42 513.08Q739.3 513.08 739.7 513.56Q740.1 514.04 740.1 515.13L740.1 519L739.14 519L739.14 515.32Q739.14 514.47 738.91 514.15Q738.68 513.83 738.08 513.83Q737.45 513.83 737.09 514.3Q736.74 514.77 736.74 515.63L736.74 519ZM743.05 519.11Q742.17 519.11 741.73 518.65Q741.29 518.18 741.29 517.38Q741.29 516.48 741.88 515.99Q742.48 515.51 743.8 515.48L745.1 515.46L745.1 515.14Q745.1 514.43 744.8 514.12Q744.5 513.82 743.86 513.82Q743.21 513.82 742.91 514.04Q742.62 514.26 742.56 514.74L741.55 514.65Q741.8 513.08 743.88 513.08Q744.98 513.08 745.53 513.59Q746.08 514.09 746.08 515.04L746.08 517.54Q746.08 517.97 746.19 518.19Q746.31 518.4 746.62 518.4Q746.76 518.4 746.94 518.37L746.94 518.97Q746.58 519.05 746.19 519.05Q745.66 519.05 745.41 518.77Q745.17 518.49 745.14 517.89L745.1 517.89Q744.73 518.55 744.24 518.83Q743.75 519.11 743.05 519.11ZM743.27 518.38Q743.8 518.38 744.21 518.14Q744.63 517.9 744.86 517.48Q745.1 517.06 745.1 516.61L745.1 516.13L744.05 516.15Q743.36 516.16 743.01 516.29Q742.66 516.42 742.47 516.69Q742.28 516.96 742.28 517.39Q742.28 517.87 742.54 518.12Q742.79 518.38 743.27 518.38ZM752.6 516.07Q752.6 519.11 750.46 519.11Q749.12 519.11 748.65 518.1L748.63 518.1Q748.65 518.14 748.65 519.01L748.65 521.28L747.68 521.28L747.68 514.38Q747.68 513.48 747.65 513.19L748.58 513.19Q748.59 513.21 748.6 513.34Q748.61 513.47 748.62 513.75Q748.64 514.02 748.64 514.12L748.66 514.12Q748.92 513.59 749.34 513.34Q749.77 513.09 750.46 513.09Q751.53 513.09 752.07 513.81Q752.6 514.53 752.6 516.07ZM751.58 516.09Q751.58 514.88 751.25 514.35Q750.93 513.83 750.21 513.83Q749.64 513.83 749.31 514.07Q748.99 514.32 748.82 514.83Q748.65 515.34 748.65 516.16Q748.65 517.31 749.01 517.85Q749.38 518.39 750.2 518.39Q750.92 518.39 751.25 517.87Q751.58 517.33 751.58 516.09ZM758.16 517.39Q758.16 518.22 757.54 518.66Q756.92 519.11 755.8 519.11Q754.72 519.11 754.13 518.75Q753.54 518.39 753.37 517.64L754.22 517.47Q754.34 517.94 754.73 518.16Q755.12 518.37 755.8 518.37Q756.54 518.37 756.88 518.15Q757.22 517.92 757.22 517.47Q757.22 517.13 756.99 516.91Q756.75 516.7 756.22 516.56L755.53 516.37Q754.7 516.16 754.34 515.95Q753.99 515.75 753.79 515.45Q753.6 515.15 753.6 514.72Q753.6 513.93 754.16 513.52Q754.73 513.1 755.81 513.1Q756.78 513.1 757.34 513.44Q757.91 513.77 758.06 514.52L757.19 514.63Q757.11 514.24 756.75 514.04Q756.41 513.83 755.81 513.83Q755.16 513.83 754.85 514.03Q754.54 514.23 754.54 514.63Q754.54 514.88 754.67 515.04Q754.79 515.2 755.05 515.31Q755.3 515.42 756.11 515.62Q756.88 515.81 757.22 515.98Q757.55 516.14 757.75 516.34Q757.95 516.54 758.05 516.8Q758.16 517.06 758.16 517.39ZM760.61 519L759.56 519L759.56 517.82L760.61 517.82L760.61 519ZM763.09 516.07Q763.09 517.23 763.46 517.79Q763.82 518.34 764.56 518.34Q765.07 518.34 765.42 518.07Q765.77 517.79 765.85 517.21L766.83 517.27Q766.71 518.11 766.11 518.61Q765.51 519.11 764.59 519.11Q763.37 519.11 762.72 518.34Q762.08 517.57 762.08 516.09Q762.08 514.62 762.73 513.85Q763.37 513.08 764.57 513.08Q765.47 513.08 766.05 513.54Q766.64 514 766.79 514.82L765.8 514.89Q765.72 514.41 765.42 514.12Q765.11 513.84 764.55 513.84Q763.78 513.84 763.44 514.35Q763.09 514.86 763.09 516.07ZM772.77 516.09Q772.77 517.61 772.1 518.36Q771.43 519.11 770.15 519.11Q768.88 519.11 768.23 518.33Q767.58 517.56 767.58 516.09Q767.58 513.08 770.18 513.08Q771.51 513.08 772.14 513.82Q772.77 514.55 772.77 516.09ZM771.76 516.09Q771.76 514.89 771.4 514.34Q771.04 513.8 770.2 513.8Q769.35 513.8 768.97 514.35Q768.59 514.91 768.59 516.09Q768.59 517.24 768.96 517.82Q769.34 518.39 770.14 518.39Q771.01 518.39 771.38 517.83Q771.76 517.28 771.76 516.09ZM778.31 519L777.36 519L777.36 515.32Q777.36 514.47 777.13 514.15Q776.9 513.83 776.29 513.83Q775.68 513.83 775.32 514.3Q774.96 514.77 774.96 515.63L774.96 519L774 519L774 514.43Q774 513.41 773.96 513.19L774.88 513.19Q774.88 513.22 774.89 513.33Q774.89 513.45 774.9 513.61Q774.91 513.76 774.92 514.18L774.94 514.18Q775.25 513.56 775.65 513.32Q776.05 513.08 776.63 513.08Q777.29 513.08 777.67 513.34Q778.06 513.61 778.21 514.18L778.23 514.18Q778.53 513.6 778.95 513.34Q779.38 513.08 779.99 513.08Q780.87 513.08 781.27 513.56Q781.67 514.04 781.67 515.13L781.67 519L780.71 519L780.71 515.32Q780.71 514.47 780.48 514.15Q780.25 513.83 779.65 513.83Q779.02 513.83 778.66 514.3Q778.31 514.77 778.31 515.63L778.31 519Z" />
</svg>