<svg version="1.2" baseProfile="tiny-ps" xmlns="http://www.w3.org/2000/svg" viewBox="0 0 800 533" width="800" height="533">
	<title>NCT of Delhi Map Chart-svg</title>
	<style>
		tspan { white-space:pre }
		.shp0 { fill: none;stroke: #000000;stroke-width: 0.4;stroke-dasharray: NaN } 
		.shp1 { fill: none;stroke: #cccccc;stroke-width: 0;stroke-dasharray: NaN } 
	</style>
	<path id="New Delhi" class="shp0" d="M562.44 231.86L561.27 234.24L556.25 237.07L556.02 243.99L554.58 251.47L554.51 262.13L553 266.34L551.75 268.15L553.34 269.44L558.29 275.88L564.68 280.01L567.2 283.96L569.13 288.52L569.43 292.47L568.52 300.2L566.49 302.13L562.92 303.77L555.59 308.18L550.88 309.07L549.01 310.91L540.79 323.88L539.95 326.31L540.05 337.94L540.98 342.89L546.27 352.52L551.4 358.58L554.22 360.55L558.66 365.6L564.71 376.12L567.03 379.17L568.95 383.67L569.57 389.68L567.37 387.78L563.69 390.26L562.14 394.62L558.79 398.26L554.21 402.57L548.83 406.06L544.85 406.56L541.71 405.64L534.67 401.05L529.47 399.37L524.81 400.37L517.41 408.07L513.29 410.66L505.69 411.5L501.71 415.9L498.8 419.39L495.6 424.81L494.33 429.95L494.79 433.3L499.28 434.03L503.82 439.26L506.11 444.74L506.8 449.96L506.05 457.11L504.32 461.43L492.32 470.29L487.32 473.18L481.01 475.28L473.83 476.06L463.26 476.2L454.04 479.7L446.37 468.2L444.7 461.91L438.37 455.29L430.94 452.62L426.03 452.13L422.15 449.27L418.26 442.29L415.74 435.91L413.92 428.25L411.7 424.18L410.9 418.78L412.1 412.84L415.01 403.2L412.23 399.99L403.35 392.83L400.44 387.98L391.37 379.54L388 379.21L380.95 385.29L375.44 384.06L370.67 380.73L364.95 372.33L355.87 367.91L353.2 367.87L346.78 359.39L342.82 360.09L339.96 364.66L341.48 368.91L346.04 371.97L350.34 376.11L350.03 381.56L346.41 384.78L336.15 379.99L326.92 376.38L321.5 373.01L305.48 385.5L297.82 383.34L290.72 380.45L281.2 384.36L273.79 381.79L271.29 383.25L266.64 387.65L261.65 389.6L257.91 384.82L261.71 376.21L259.59 372.27L248.1 360.16L246.45 354.88L233.6 346.66L230.44 323.81L231.86 315.84L242.07 316.99L245.15 314.99L249.24 305.89L260.68 274.43L271.26 278.8L273.67 278.76L278.2 274.16L282.45 274.25L291.4 282.48L292.96 281.94L298.28 274.42L287.74 260.43L287.25 256.84L291.02 246.15L295.48 241.48L304.09 240.86L307.25 239.03L306.37 233.37L308.01 229.33L309.09 223.83L311.93 218.1L312.18 213.76L309.74 209.83L303.22 203.32L309.54 185.91L308.55 181.4L309.31 176.78L307.37 172.77L301.17 165.17L306.79 152.26L305.04 148.23L303.95 139.96L304.45 133.37L300.68 125.86L300.6 120.8L303.92 110.48L307.9 113.18L312.98 111.07L314.47 101.83L316.37 100.63L322.91 106.52L325 105.86L328.95 96.13L331.6 93.99L335.78 93.92L347.14 97.42L355.32 95.8L359.25 96.5L363.87 96.05L367.99 81.73L376.11 63.44L386.79 63.61L389.8 57.33L393.64 53.3L398.68 62.16L409.49 64.11L414.65 67.69L416.38 69.76L429.03 70.43L433.43 76.61L433.77 81.81L432.57 88.94L436.19 91.68L438.33 90.96L443.88 85.6L449.9 77.55L453.25 74.69L466.05 73.2L468.21 69.15L472.66 70.46L476.8 70.83L480.26 72.65L482.3 75.06L484.74 79.8L484.17 88.43L488.67 97.4L486.2 116.91L473.42 115.24L473.3 126.95L474.97 133.23L478.84 138.49L482.71 140.47L485.8 141.15L489.31 140.08L493.62 140.08L491.86 143.56L488.53 145.41L491.08 148.79L496.55 153.69L502.56 165.53L507.84 167.2L509.6 167.04L512.77 171.29L511.89 177.81L514.77 182.81L517.29 184.42L521.62 183.39L524.81 184.36L528.67 187.76L531.24 191.68L533.75 197.14L533.23 201.57L534.07 207.41L539.48 209.82L541.28 206.89L545.2 203.58L548.39 202.74L555.74 203.15L559.99 204.35L558.78 207.97L557.54 215.31L558.27 218.86L562.74 225.88L562.44 231.86Z" />
	<path id="Layer" class="shp1" d="M790 261.5L800 261.5L800 271.5L790 271.5L790 261.5Z" />
	<path id="Layer" class="shp1" d="" />
	<path id="West" fill="#000000" aria-label="West"  d="M402.81 267L400.43 257.52L401.73 257.52L403.72 265.53L405.71 257.52L407.15 257.52L409.14 265.53L411.13 257.52L412.43 257.52L410.05 267L408.44 267L406.44 258.77L404.42 267L402.81 267ZM419.4 263.15L419.4 263.72L414.03 263.72Q414.11 264.93 414.75 265.57Q415.41 266.19 416.57 266.19Q417.24 266.19 417.87 266.03Q418.51 265.86 419.13 265.53L419.13 266.64Q418.5 266.9 417.84 267.04Q417.18 267.18 416.5 267.18Q414.8 267.18 413.8 266.19Q412.81 265.2 412.81 263.52Q412.81 261.77 413.75 260.75Q414.7 259.72 416.3 259.72Q417.73 259.72 418.56 260.65Q419.4 261.57 419.4 263.15ZM414.07 262.82L418.23 262.81Q418.22 261.85 417.69 261.28Q417.17 260.71 416.31 260.71Q415.33 260.71 414.74 261.26Q414.16 261.81 414.07 262.82ZM425.85 260.1L425.85 261.2Q425.36 260.95 424.82 260.82Q424.29 260.7 423.72 260.7Q422.85 260.7 422.41 260.96Q421.98 261.23 421.98 261.76Q421.98 262.17 422.29 262.4Q422.6 262.63 423.54 262.84L423.94 262.93Q425.18 263.2 425.7 263.69Q426.23 264.17 426.23 265.04Q426.23 266.03 425.44 266.61Q424.66 267.18 423.29 267.18Q422.72 267.18 422.1 267.08Q421.48 266.96 420.8 266.74L420.8 265.53Q421.45 265.87 422.07 266.04Q422.7 266.21 423.32 266.21Q424.14 266.21 424.59 265.93Q425.03 265.64 425.03 265.13Q425.03 264.65 424.71 264.4Q424.39 264.14 423.3 263.91L422.9 263.81Q421.81 263.58 421.33 263.12Q420.85 262.64 420.85 261.81Q420.85 260.81 421.56 260.27Q422.27 259.72 423.58 259.72Q424.23 259.72 424.8 259.81Q425.37 259.91 425.85 260.1ZM428.07 257.87L429.25 257.87L429.25 259.89L431.65 259.89L431.65 260.8L429.25 260.8L429.25 264.66Q429.25 265.53 429.48 265.77Q429.72 266.02 430.45 266.02L431.65 266.02L431.65 267L430.45 267Q429.1 267 428.59 266.5Q428.07 265.99 428.07 264.66L428.07 260.8L427.22 260.8L427.22 259.89L428.07 259.89L428.07 257.87Z" />
</svg>