<svg version="1.2" baseProfile="tiny-ps" xmlns="http://www.w3.org/2000/svg" viewBox="0 0 800 533" width="800" height="533">
	<title>Goa Map Chart-svg</title>
	<style>
		tspan { white-space:pre }
		.shp0 { fill: none;stroke: #000000;stroke-width: 0.4;stroke-dasharray: NaN } 
		.shp1 { fill: none;stroke: #cccccc;stroke-width: 0;stroke-dasharray: NaN } 
	</style>
	<path id="North Goa" class="shp0" d="M425.86 301.17L424.71 299.97L424.12 297.47L423.96 293.15L420.66 290.91L414.46 289.24L413.5 286.9L411.93 286.47L408.74 288.58L405.55 288.4L404.09 287.75L402.95 285.66L401.16 273.98L400.89 267.27L399.05 264.66L397.13 263.71L395.28 262.16L390.73 257.88L387.25 257.82L385.81 257.22L384.77 255.99L384.2 254.16L384.01 251.28L383.25 247.5L382.34 243.94L381.3 242.46L379.43 241.47L372.05 240.26L372.63 239.76L373.21 239.66L374.72 239.73L378.05 238.73L378.14 237.99L377.48 237.72L377.3 237.57L374.37 236.46L373.63 235.92L373.63 235.7L373.06 235.16L373.02 234.95L373.2 232.17L373.2 232.12L373.54 231.74L373.57 231.69L373.57 231.48L375.06 230.36L376.71 227.8L376.92 226.52L376.86 226.36L376.48 225.23L375.75 225.12L375.59 225.16L373.7 225.95L371.75 227.97L371.54 229.69L371.28 230L370.47 230.54L367.72 230.95L367.48 231.49L367.34 233.51L366.68 234.36L366.52 234.47L365.47 234.49L362.99 234.01L362.41 233.78L362.29 233.67L362.22 233.61L357.32 229.1L357.13 228.92L357.13 228.84L357.04 228.84L357.03 228.57L356.93 228.58L356.93 228.45L356.83 228.45L356.83 228.31L356.74 228.31L356.74 227.92L356.64 227.92L356.64 227.79L356.54 227.79L356.54 227.52L356.44 227.52L356.44 227.13L356.34 227.13L356.34 227L356.14 227L356.14 226.87L356.34 226.87L356.34 226.74L356.24 226.74L356.24 226.61L356.05 226.61L356.05 226.47L355.95 226.47L355.95 226.34L355.75 226.34L355.75 226.21L355.65 226.21L355.65 226.08L355.45 226.08L355.46 225.95L355.26 225.95L355.26 225.81L354.57 225.81L354.57 225.69L354.37 225.69L354.37 225.81L353.88 225.81L353.88 225.69L353.78 225.69L353.78 225.81L353.59 225.81L353.59 225.69L353.48 225.69L353.48 225.81L353.39 225.81L353.39 225.95L353.19 225.95L353.19 226.08L352.99 226.08L352.99 226.34L352.79 226.34L352.79 226.47L352.7 226.47L352.7 226.61L352.5 226.61L352.5 226.74L352.2 226.74L352.2 226.87L352.11 226.87L352.11 226.74L351.91 226.74L351.91 226.61L351.71 226.61L351.71 226.74L351.51 226.74L351.51 226.61L351.32 226.61L351.32 226.47L351.12 226.47L351.12 226.34L351.02 226.34L351.02 226.47L350.93 226.47L350.93 226.34L350.52 226.34L350.43 226.34L350.43 226.47L349.74 226.47L349.74 226.61L349.45 226.61L349.45 226.74L349.35 226.74L349.35 226.87L349.25 226.87L349.25 227L349.15 227L349.15 227.26L348.86 227.26L348.86 227.39L348.56 227.39L348.56 227.52L348.46 227.52L348.46 227.66L348.27 227.66L348.27 227.79L347.18 227.79L347.18 227.26L347.28 227.26L347.28 226.87L347.38 226.87L347.38 226.47L347.28 226.47L347.28 225.81L347.18 225.82L347.18 225.56L347.08 225.56L347.08 225.29L346.98 225.29L346.98 225.16L346.88 225.16L346.88 225.03L346.79 225.03L346.79 224.77L346.69 224.77L346.69 223.45L346.79 223.45L346.79 223.32L346.69 223.32L346.69 222.27L346.59 222.27L346.59 221.88L346.49 221.88L346.49 221.62L346.39 221.62L346.39 221.35L346.1 221.36L346.1 221.22L346 221.22L346 221.09L345.8 221.09L345.8 220.96L345.41 220.96L345.41 220.7L345.11 220.7L345.11 220.57L345.02 220.57L345.02 220.17L344.92 220.17L344.92 219.91L344.82 219.91L344.82 219.65L344.42 219.64L344.42 219.38L344.32 219.38L344.32 219.25L344.23 219.25L344.23 219.12L344.13 219.12L344.13 218.86L344.03 218.86L344.03 218.33L343.83 218.33L343.83 218.07L343.73 218.07L343.73 217.81L343.63 217.81L343.63 217.76L343.63 217.68L343.54 217.68L343.54 217.54L343.44 217.54L343.44 217.41L343.34 217.41L343.34 217.28L343.14 217.28L343.14 217.02L343.04 217.02L343.04 216.89L342.84 216.89L342.84 216.75L342.75 216.76L342.75 216.63L342.26 216.63L342.26 216.49L341.86 216.49L341.86 216.63L341.66 216.63L341.66 216.89L341.57 216.89L341.57 216.75L341.47 216.75L341.47 216.89L341.17 216.89L341.17 217.02L340.97 217.02L340.97 217.15L340.68 217.15L340.68 217.28L340.58 217.28L340.58 217.41L340.48 217.41L340.48 218.2L340.38 218.2L340.38 218.47L340.29 218.46L340.29 218.73L339.8 218.72L339.8 218.59L339.69 218.6L339.69 218.46L339.6 218.46L339.6 218.33L339.4 218.33L339.4 218.2L339.3 218.2L339.3 218.07L339.11 218.07L339.11 217.81L339.01 217.81L339.01 217.68L339.11 217.68L339.11 217.58L339.11 217.54L339.03 217.54L338.91 217.54L338.91 217.48L338.91 217.41L338.81 217.41L338.81 217.28L338.61 217.28L338.61 217.15L338.51 217.15L338.51 217.02L338.42 217.02L338.42 217.15L338.16 217.15L338.12 217.15L338.12 217.28L338.02 217.28L338.02 217.15L337.92 217.15L337.92 217.28L337.82 217.28L337.82 217.15L337.73 217.15L337.73 217.28L337.43 217.28L337.43 217.02L337.04 217.02L337.04 216.89L336.84 216.89L336.83 216.75L336.74 216.76L336.74 216.63L336.54 216.63L336.54 216.49L336.35 216.49L336.35 216.36L336.25 216.36L336.25 216.23L336.05 216.23L336.05 216.1L335.85 216.1L335.85 215.97L335.76 215.97L335.76 216.1L335.56 216.1L335.56 216.23L335.07 216.23L335.07 216.1L334.87 216.1L334.87 215.97L334.67 215.97L334.67 215.84L334.47 215.84L334.47 215.7L334.18 215.7L334.18 215.57L334.08 215.57L334.08 215.7L333.98 215.7L333.98 215.57L333.49 215.57L333.49 215.7L332.01 215.7L332.01 215.84L331.81 215.84L331.81 215.97L331.72 215.97L331.72 216.1L331.62 216.1L331.62 216.21L331.62 216.36L331.22 216.36L331.22 216.49L331.03 216.49L331.03 216.16L331.03 216.1L330.93 216.1L330.93 215.84L330.83 215.84L330.83 215.7L330.73 215.7L330.73 215.57L330.63 215.58L330.63 215.44L330.44 215.44L330.44 215.31L330.34 215.31L330.34 215.18L330.14 215.18L330.14 215.05L329.75 215.05L329.75 214.92L329.65 214.92L329.65 215.05L329.35 215.05L329.35 215.18L329.15 215.18L329.15 215.31L329.06 215.31L329.06 215.44L328.86 215.44L328.86 215.31L328.76 215.31L328.76 215.44L328.66 215.44L328.66 215.58L328.57 215.57L328.57 215.7L328.27 215.7L328.27 215.84L327.88 215.84L327.88 215.7L327.68 215.7L327.68 215.57L327.19 215.57L327.19 215.7L326.69 215.7L326.69 216.1L326.6 216.1L326.6 216.76L326.69 216.75L326.69 217.28L326.79 217.28L326.79 217.68L326.5 217.68L326.5 217.54L326.4 217.54L326.4 217.41L326.2 217.41L326.2 217.15L326.1 217.15L326.1 216.89L325.91 216.89L325.91 216.75L325.81 216.76L325.81 216.63L325.61 216.63L325.61 216.49L325.71 216.49L325.71 216.23L325.61 216.23L325.61 216.1L325.51 216.1L325.51 215.97L325.41 215.97L325.41 215.84L324.92 215.84L324.92 215.57L324.63 215.57L324.63 215.31L324.43 215.31L324.43 215.05L324.33 215.05L324.33 214.92L324.03 214.92L324.03 214.79L323.84 214.79L323.84 214.52L323.74 214.52L323.74 214.39L323.64 214.39L323.64 214.13L323.44 214.13L323.44 213.86L323.25 213.87L323.25 213.74L323.15 213.74L323.15 213.61L322.95 213.61L322.95 213.47L322.85 213.47L322.85 213.34L322.55 213.34L322.55 213.21L322.36 213.21L322.36 213.08L322.26 213.08L322.26 212.82L322.16 212.82L322.16 212.55L322.06 212.55L322.06 212.42L321.87 212.42L321.87 212.29L321.67 212.29L321.67 212.42L321.47 212.42L321.47 212.29L321.08 212.29L321.08 212.16L320.98 212.16L320.98 211.9L320.88 211.9L320.88 211.5L320.78 211.5L320.78 210.84L320.88 210.85L320.88 210.71L320.98 210.72L320.98 210.58L321.18 210.58L321.18 210.45L321.87 210.45L321.87 210.58L322.07 210.58L322.06 210.71L322.26 210.71L322.26 210.85L322.36 210.84L322.36 210.98L322.55 210.98L322.55 211.11L322.75 211.11L322.75 211.24L322.85 211.24L322.85 211.37L322.95 211.37L322.95 211.5L323.05 211.5L323.05 211.64L323.34 211.63L323.34 211.77L323.44 211.77L323.44 211.9L323.54 211.9L323.54 212.03L323.64 212.03L323.64 212.16L323.84 212.16L323.84 212.29L324.03 212.29L324.03 212.42L324.23 212.42L324.23 212.55L324.33 212.55L324.33 212.68L324.63 212.68L324.63 212.82L324.92 212.82L324.92 212.68L325.41 212.68L325.41 212.55L325.71 212.55L325.71 212.42L325.81 212.42L325.81 212.29L325.91 212.29L325.91 212.16L326 212.16L326 212.03L326.1 212.03L326.1 211.77L326.2 211.77L326.2 211.63L326.3 211.64L326.3 211.5L326.4 211.5L326.4 211.37L326.5 211.37L326.5 211.11L326.6 211.11L326.59 211.03L326.59 210.98L326.69 210.98L326.69 210.71L326.79 210.72L326.79 210.58L326.89 210.58L326.89 210.45L326.99 210.45L326.99 210.19L327.09 210.19L327.09 209.8L327.19 209.8L327.19 209.4L327.29 209.4L327.29 209.14L327.38 209.14L327.38 208.74L327.48 208.75L327.48 208.35L327.58 208.35L327.58 206.77L327.68 206.78L327.68 206.64L327.78 206.64L327.78 205.99L327.88 205.99L327.88 205.33L327.78 205.33L327.78 205.07L327.68 205.07L327.68 204.93L327.78 204.93L327.78 204.41L327.88 204.41L327.88 203.88L327.97 203.88L327.97 203.75L327.88 203.75L327.88 202.97L327.78 202.97L327.78 202.84L327.58 202.84L327.58 202.44L327.48 202.44L327.48 201.92L327.58 201.92L327.58 201.52L327.68 201.52L327.68 201.13L327.88 201.13L327.88 201L327.97 201L327.97 200.6L327.88 200.6L327.88 200.08L327.78 200.08L327.78 199.42L327.68 199.42L327.68 198.76L327.58 198.76L327.58 198.24L327.48 198.24L327.48 197.58L327.38 197.58L327.38 197.1L327.38 196.93L327.29 196.93L327.29 196.4L326.99 196.4L326.99 196.27L326.59 196.27L326.59 196.14L325.81 196.14L325.81 196L325.71 196.01L325.71 195.88L325.41 195.88L325.41 195.74L324.92 195.74L324.92 195.48L324.72 195.48L324.72 195.35L324.63 195.35L324.63 195.22L324.43 195.22L324.43 195.09L324.33 195.09L324.33 194.95L324.23 194.96L324.23 194.82L324.03 194.82L324.03 194.69L323.54 194.69L323.54 194.82L323.44 194.82L323.44 194.69L323.25 194.69L323.25 194.56L323.05 194.57L323.05 194.43L322.95 194.43L322.95 194.3L322.56 194.3L322.56 194.17L321.96 194.17L321.96 194.04L321.87 194.04L321.87 194.17L321.77 194.17L321.77 194.04L321.57 194.04L321.57 194.17L321.47 194.17L321.47 194.04L321.37 194.04L321.37 194.17L321.28 194.17L321.28 194.3L321.08 194.3L321.08 194.43L320.78 194.43L320.78 194.57L320.68 194.56L320.68 194.69L320.59 194.69L320.59 194.82L320.49 194.82L320.49 195.09L320.29 195.09L320.29 195.35L320.39 195.35L320.39 195.61L320.49 195.61L320.49 195.74L320.68 195.74L320.68 195.88L320.88 195.88L320.88 196.01L321.08 196L321.08 196.14L321.18 196.14L321.18 196.27L321.08 196.27L321.08 196.66L320.98 196.66L320.98 196.79L320.88 196.79L320.88 196.93L320.78 196.93L320.78 197.19L320.59 197.19L320.59 197.32L320.49 197.31L320.49 197.45L320.29 197.45L320.29 197.58L320.19 197.58L320.19 197.45L319.5 197.45L319.5 197.58L319.11 197.58L319.11 197.71L318.71 197.71L318.71 197.84L318.62 197.84L318.62 197.71L318.22 197.71L318.22 197.45L318.13 197.45L318.13 197.58L318.02 197.58L318.02 197.45L317.82 197.45L317.82 197.58L317.53 197.58L317.53 197.71L317.34 197.71L317.34 197.84L317.17 197.84L317.14 197.84L317.14 198.11L317.04 198.11L317.04 198.24L316.84 198.24L316.84 198.5L316.75 198.5L316.75 198.63L316.55 198.63L316.55 198.76L315.36 198.76L315.36 198.63L314.97 198.63L314.97 198.5L314.18 198.5L314.18 198.37L313.99 198.37L313.99 198.24L313.89 198.24L313.89 197.97L313.79 197.97L313.79 197.58L313.69 197.58L313.69 197.06L313.59 197.06L313.59 196.93L313.4 196.93L313.4 196.79L313 196.79L313 196.66L312.9 196.66L312.9 196.53L312.8 196.53L312.8 196.27L312.71 196.27L312.71 195.61L312.61 195.61L312.61 195.48L312.71 195.48L312.71 194.95L312.8 194.96L312.8 194.82L313.1 194.82L313.1 194.69L313.3 194.69L313.3 194.43L313.5 194.43L313.5 194.3L313.59 194.3L313.59 194.04L313.69 194.04L313.69 193.77L313.59 193.77L313.59 193.25L313.49 193.25L313.5 192.2L313.4 192.2L313.4 191.93L313.3 191.93L313.3 191.54L313.4 191.54L313.4 191.28L313.3 191.28L313.3 191.15L313.4 191.15L313.4 190.88L313.3 190.88L313.3 190.75L313.1 190.75L313.1 190.62L313 190.62L313 190.49L312.9 190.49L312.9 189.44L312.8 189.44L312.8 189.18L312.71 189.18L312.71 188.65L312.61 188.65L312.61 188.39L312.51 188.39L312.51 188.13L312.61 188.13L312.61 187.99L312.51 187.99L312.51 187.34L312.41 187.34L312.41 186.81L312.31 186.81L312.31 186.16L312.21 186.16L312.21 185.76L312.12 185.76L312.12 185.63L312.02 185.63L312.02 185.5L311.92 185.5L311.92 185.24L311.82 185.24L311.82 185.11L311.92 185.11L311.92 184.58L311.82 184.58L311.82 184.32L311.72 184.32L311.72 183.79L311.62 183.79L311.62 183.53L311.52 183.53L311.52 183L311.43 183L311.43 182.35L311.33 182.35L311.33 182.22L311.23 182.22L311.23 181.82L311.32 181.83L311.32 181.56L311.23 181.56L311.23 181.43L311.13 181.43L311.13 181.29L311.03 181.29L311.03 180.38L310.93 180.38L310.93 179.98L310.83 179.98L310.83 179.85L310.74 179.85L310.74 179.46L310.64 179.46L310.64 179.2L310.54 179.2L310.54 178.41L310.44 178.41L310.44 178.01L310.34 178.01L310.34 177.22L310.24 177.22L310.24 176.83L310.14 176.83L310.14 176.7L310.05 176.7L310.05 176.44L309.95 176.44L309.95 175.78L310.05 175.78L310.05 175.38L309.85 175.39L309.85 175.26L309.75 175.26L309.75 174.86L309.65 174.86L309.65 174.2L309.55 174.2L309.55 173.68L309.46 173.68L309.46 173.29L309.36 173.29L309.36 172.37L309.26 172.37L309.26 172.1L309.06 172.1L309.06 171.45L308.96 171.45L308.96 170.92L308.86 170.92L308.86 170.79L308.77 170.79L308.77 170.26L308.66 170.26L308.66 169.74L308.57 169.74L308.57 169.35L308.47 169.35L308.47 169.08L308.37 169.08L308.37 168.56L308.27 168.56L308.27 168.29L308.17 168.29L308.17 168.03L308.08 168.03L308.08 166.98L307.98 166.98L307.98 166.72L307.88 166.72L307.88 166.32L307.78 166.33L307.78 166.06L307.68 166.06L307.68 165.93L307.58 165.93L307.58 165.67L307.48 165.67L307.48 165.4L307.39 165.41L307.39 165.27L307.19 165.28L307.19 165.01L307.09 165.01L307.09 164.88L306.9 164.88L306.9 164.75L306.7 164.75L306.7 164.88L306.4 164.88L306.4 165.01L306.3 165.01L306.3 165.14L305.91 165.14L305.91 165.27L305.81 165.27L305.81 165.14L305.71 165.14L305.71 165.01L305.62 165.01L305.62 164.88L305.52 164.88L305.52 164.75L305.42 164.75L305.42 164.62L305.32 164.62L305.32 164.49L305.22 164.49L305.22 164.35L305.12 164.35L305.12 164.22L305.02 164.22L305.02 164.09L304.53 164.09L304.53 163.96L304.43 163.96L304.43 163.56L304.33 163.56L304.33 163.17L304.24 163.17L304.24 163.04L304.33 163.04L304.33 162.91L304.43 162.91L304.43 162.78L304.53 162.78L304.53 162.65L304.63 162.65L304.63 162.52L304.53 162.52L304.53 162.25L304.43 162.25L304.43 161.99L304.33 161.99L304.33 161.73L304.43 161.73L304.43 161.2L304.53 161.2L304.53 160.94L304.63 160.94L304.63 160.81L304.73 160.81L304.73 160.55L304.63 160.54L304.63 160.28L304.53 160.28L304.53 160.15L304.43 160.15L304.43 159.89L304.33 159.89L304.33 159.49L304.24 159.5L304.24 159.36L304.14 159.37L304.14 159.1L304.24 159.1L304.24 158.97L304.14 158.97L304.14 158.44L304.04 158.45L304.04 158.18L303.94 158.18L303.94 157.65L303.84 157.66L303.84 157.4L303.74 157.4L303.74 157.13L303.64 157.13L303.64 157L303.55 157L303.55 156.87L303.45 156.87L303.45 156.6L303.35 156.6L303.35 156.47L303.25 156.47L303.25 156.34L303.35 156.35L303.35 156.08L303.25 156.08L303.25 155.82L303.05 155.82L303.05 155.69L302.96 155.69L302.96 154.5L302.86 154.51L302.86 154.11L302.76 154.11L302.76 153.85L302.86 153.85L302.86 153.58L302.76 153.59L302.76 153.32L302.66 153.33L302.66 153.19L302.56 153.19L302.56 153.06L302.46 153.06L302.46 152.8L302.36 152.8L302.36 152.67L302.17 152.67L302.17 152.53L302.07 152.53L302.07 152.4L301.87 152.4L301.87 152.27L301.77 152.27L301.77 152.14L301.58 152.14L301.58 152.01L301.38 152.01L301.38 151.88L301.28 151.88L301.28 151.75L301.18 151.75L301.18 151.48L301.08 151.48L301.08 151.22L300.98 151.22L300.98 150.96L301.08 150.96L301.08 150.83L301.28 150.83L301.28 150.43L301.48 150.43L301.48 150.3L301.58 150.3L301.58 150.17L301.67 150.17L301.67 150.04L301.97 150.04L301.97 149.91L302.07 149.91L302.07 149.78L301.97 149.78L301.97 149.38L301.87 149.38L301.87 148.98L301.77 148.98L301.77 148.46L301.67 148.46L301.67 148.07L301.58 148.07L301.58 147.54L301.48 147.55L301.48 147.28L301.38 147.28L301.38 147.15L301.28 147.15L301.28 146.49L301.48 146.49L301.48 146.36L301.58 146.36L301.58 146.23L301.67 146.24L301.67 146.1L301.77 146.1L301.77 145.05L301.67 145.05L301.67 144.79L301.58 144.79L301.58 144.52L301.48 144.53L301.48 144.26L301.38 144.26L301.38 144.13L301.28 144.13L301.28 144L301.38 144L301.38 143.74L301.28 143.74L301.28 143.6L301.18 143.6L301.18 143.47L301.08 143.47L301.08 143.34L300.98 143.34L300.98 143.08L300.89 143.08L300.89 142.82L300.98 142.82L300.98 142.69L301.67 142.69L301.67 142.82L301.97 142.82L301.97 142.69L302.17 142.69L302.17 142.55L302.36 142.55L302.36 142.69L302.46 142.69L302.46 142.55L303.25 142.55L303.25 142.42L303.74 142.42L303.74 142.69L303.84 142.69L303.84 142.82L303.74 142.82L303.74 143.21L303.84 143.21L303.84 143.34L304.14 143.34L304.14 143.47L304.24 143.47L304.24 143.6L304.43 143.6L304.43 143.74L304.53 143.74L304.53 144.39L304.63 144.39L304.63 144.52L305.02 144.52L305.02 144.39L305.32 144.39L305.32 144.26L305.62 144.26L305.62 144.13L305.91 144.13L305.91 144L306.01 144L306.01 143.87L306.21 143.87L306.21 143.74L306.3 143.74L306.3 143.6L306.4 143.6L306.4 143.47L306.5 143.47L306.5 143.34L306.6 143.34L306.6 143.08L306.7 143.08L306.7 142.95L306.8 142.95L306.8 142.82L307.09 142.82L307.09 142.69L307.48 142.69L307.48 142.55L307.78 142.55L307.78 142.42L307.98 142.42L307.98 142.29L308.08 142.29L308.08 142.16L308.27 142.16L308.27 142.03L308.37 142.03L308.37 141.76L308.47 141.76L308.47 141.24L308.57 141.24L308.57 140.85L308.67 140.85L308.67 140.32L308.77 140.32L308.77 140.06L308.96 140.06L308.96 139.93L309.06 139.93L309.06 139.66L309.16 139.66L309.16 139.4L309.26 139.4L309.26 139.27L309.36 139.27L309.36 138.48L309.16 138.48L309.16 138.35L308.96 138.35L308.96 138.22L308.77 138.22L308.77 138.09L308.57 138.09L308.57 137.96L308.37 137.96L308.37 137.83L308.17 137.83L308.17 137.69L307.98 137.69L307.98 137.56L307.88 137.56L307.88 137.3L307.78 137.3L307.78 137.17L307.58 137.17L307.58 137.04L307.39 137.04L307.39 136.92L307.29 136.91L307.29 136.77L307.09 136.78L307.09 136.64L306.99 136.64L306.99 136.38L306.9 136.38L306.9 135.99L306.99 135.99L306.99 135.2L307.09 135.2L307.09 135.07L306.99 135.07L306.99 134.94L306.9 134.94L306.9 134.8L306.8 134.81L306.8 134.67L306.7 134.67L306.7 134.54L306.6 134.54L306.6 134.41L306.5 134.41L306.5 134.28L306.4 134.28L306.4 134.15L306.3 134.15L306.3 134.01L306.21 134.01L306.21 134.15L306.01 134.15L306.01 134.28L305.81 134.28L305.81 134.41L305.52 134.41L305.52 134.54L305.42 134.54L305.42 134.67L305.22 134.67L305.22 134.81L305.02 134.8L305.02 134.94L304.93 134.94L304.93 135.07L304.73 135.07L304.73 135.2L304.53 135.2L304.53 135.33L304.33 135.33L304.33 135.46L304.24 135.46L304.24 135.59L304.14 135.59L304.14 135.73L304.04 135.73L304.04 135.86L303.94 135.85L303.94 135.99L303.84 135.99L303.84 136.26L303.74 136.25L303.74 136.64L303.64 136.64L303.64 137.3L303.55 137.3L303.55 137.43L303.64 137.43L303.64 137.56L303.55 137.56L303.55 138.61L303.35 138.61L303.35 139.01L303.15 139L303.15 139.4L303.05 139.4L303.05 139.53L302.95 139.53L302.95 139.66L302.86 139.66L302.86 139.8L302.76 139.8L302.76 139.93L302.66 139.93L302.66 139.8L302.56 139.8L302.56 139.66L302.46 139.66L302.46 139.14L302.27 139.14L302.27 139L302.07 139L302.07 138.88L301.87 138.88L301.87 138.74L301.77 138.75L301.77 138.61L301.67 138.61L301.67 138.75L301.58 138.74L301.58 138.35L301.48 138.35L301.48 137.69L301.38 137.69L301.38 137.43L301.28 137.43L301.28 137.17L300.98 137.17L300.98 136.91L300.89 136.91L300.89 136.77L300.79 136.78L300.79 136.64L300.69 136.64L300.69 135.99L300.59 135.99L300.59 135.85L300.49 135.86L300.49 135.73L300.39 135.73L300.39 135.46L300.3 135.46L300.3 135.33L300.39 135.33L300.39 135.07L300.3 135.07L300.3 134.67L300.2 134.67L300.2 134.54L300.1 134.54L300.1 134.41L300 134.41L300 134.28L299.9 134.28L299.9 133.89L299.8 133.89L299.8 133.62L299.7 133.62L299.7 133.49L299.6 133.49L299.6 133.36L299.41 133.36L299.41 133.23L299.21 133.23L299.21 133.1L299.01 133.1L299.01 132.97L298.82 132.97L298.82 132.83L298.72 132.84L298.72 132.7L298.13 132.71L298.13 132.57L298.03 132.57L298.03 132.44L297.93 132.44L297.93 131.91L298.03 131.91L298.03 131.78L297.93 131.78L297.93 131.39L297.83 131.39L297.83 131.13L297.73 131.13L297.73 130.86L297.64 130.87L297.63 130.46L297.54 130.46L297.54 130.08L297.44 130.08L297.44 129.81L297.34 129.82L297.34 129.42L297.24 129.42L297.24 129.16L297.14 129.16L297.14 129.03L297.05 129.03L297.05 128.63L296.94 128.63L296.94 128.37L296.85 128.37L296.85 128.24L296.75 128.24L296.75 128.1L296.65 128.11L296.65 127.98L296.56 127.98L296.56 127.71L296.46 127.71L296.46 127.58L296.36 127.58L296.36 127.45L296.26 127.45L296.26 126.92L296.16 126.92L296.16 126.53L296.06 126.53L296.06 125.87L295.96 125.87L295.96 125.35L295.86 125.35L295.86 125.22L295.77 125.22L295.77 124.82L295.67 124.82L295.67 124.56L295.77 124.56L295.77 124.43L295.67 124.43L295.67 124.17L295.57 124.17L295.57 123.91L295.47 123.91L295.47 123.77L295.37 123.77L295.37 123.38L295.27 123.38L295.27 123.25L295.17 123.25L295.17 122.99L295.27 122.99L295.27 122.72L295.37 122.72L295.37 121.8L295.47 121.8L295.47 121.28L295.37 121.28L295.37 121.01L295.27 121.02L295.27 120.75L294.98 120.75L294.98 120.48L294.78 120.49L294.78 120.23L294.68 120.23L294.68 120.1L294.58 120.1L294.58 119.83L294.48 119.83L294.48 119.05L294.39 119.05L294.39 117.73L294.29 117.74L294.29 117.47L294.19 117.47L294.19 117.07L294.09 117.07L294.09 116.55L293.99 116.55L293.99 116.42L294.09 116.42L294.09 116.16L293.99 116.16L293.99 115.89L293.89 115.89L293.89 115.63L293.8 115.63L293.8 114.97L293.89 114.97L293.89 114.32L293.8 114.32L293.8 114.19L293.7 114.19L293.7 114.05L293.6 114.05L293.6 113.92L293.5 113.92L293.5 113.66L293.4 113.66L293.4 113.39L293.3 113.4L293.3 113.27L293.2 113.27L293.2 113.14L293.11 113.14L293.11 113L292.91 113L292.91 112.87L292.71 112.87L292.71 112.74L292.61 112.74L292.61 112.61L292.51 112.61L292.51 112.48L292.41 112.48L292.41 112.21L292.32 112.22L292.32 111.95L292.22 111.95L292.22 111.56L292.12 111.56L292.12 111.3L292.02 111.3L292.02 111.16L291.92 111.17L291.92 110.9L291.82 110.9L291.82 110.64L291.73 110.64L291.73 110.51L291.82 110.51L291.82 110.38L291.73 110.38L291.73 109.46L291.63 109.46L291.63 109.33L291.53 109.33L291.53 109.06L291.43 109.06L291.43 108.41L291.33 108.41L291.33 108.01L291.23 108.01L291.23 107.75L291.33 107.75L291.33 107.62L291.23 107.62L291.23 106.83L291.14 106.83L291.14 106.44L291.04 106.44L291.04 106.18L290.84 106.18L290.84 106.04L290.94 106.04L290.94 105.78L291.03 105.78L291.03 105.65L290.94 105.65L290.94 105.25L290.84 105.25L290.84 105.12L290.74 105.12L290.74 104.73L290.64 104.73L290.64 104.47L290.54 104.47L290.54 104.2L290.45 104.2L290.45 103.81L290.35 103.81L290.35 103.55L290.25 103.55L290.25 103.41L290.15 103.41L290.15 103.28L290.05 103.29L290.05 103.15L289.75 103.16L289.75 103.02L289.66 103.02L289.66 103.16L289.16 103.16L289.16 102.1L289.07 102.1L289.07 101.84L288.97 101.84L288.97 101.58L288.87 101.58L288.87 100.92L288.97 100.92L288.97 100.26L288.87 100.26L288.87 100.13L288.77 100.13L288.77 100L288.87 100L288.87 99.74L288.67 99.74L288.67 99.61L288.38 99.61L288.38 99.74L288.28 99.74L288.28 99.61L288.18 99.61L288.18 99.48L288.08 99.48L288.08 99.34L287.88 99.35L287.88 99.21L287.79 99.21L287.79 98.43L287.69 98.43L287.69 98.16L287.49 98.16L287.49 96.98L287.59 96.98L287.59 96.06L287.39 96.06L287.39 95.67L287.29 95.67L287.29 95.14L287.19 95.14L287.19 95.01L287.29 95.01L287.29 94.62L287.1 94.62L287.1 94.48L287 94.49L287 94.36L286.9 94.36L286.9 93.96L286.8 93.96L286.8 93.83L286.7 93.83L286.7 93.7L286.8 93.7L286.8 93.57L286.7 93.57L286.7 93.43L286.8 93.43L286.8 92.91L286.7 92.91L286.7 92.78L286.61 92.78L286.61 92.25L286.5 92.25L286.5 91.99L286.41 91.99L286.41 91.73L286.31 91.73L286.31 91.6L286.21 91.6L286.21 91.33L286.31 91.34L286.31 90.94L286.41 90.94L286.41 90.67L286.31 90.67L286.31 90.55L286.11 90.55L286.11 90.41L286.01 90.41L286.01 90.28L285.81 90.28L285.81 90.15L285.62 90.15L285.62 90.02L285.52 90.02L285.52 89.89L285.32 89.89L285.32 89.76L285.23 89.76L285.23 89.63L285.13 89.63L285.13 89.76L285.03 89.76L285.03 89.89L283.95 89.89L283.95 89.76L283.84 89.76L283.84 89.1L283.26 89.1L283.26 89.24L283.16 89.23L283.16 89.5L283.06 89.5L283.06 89.63L282.76 89.63L282.76 89.5L282.66 89.5L282.66 89.23L282.57 89.24L282.57 88.84L282.66 88.84L282.66 88.58L282.76 88.58L282.76 88.31L282.86 88.31L282.86 87.89L283.68 87.47L284.69 87.18L287.02 86.69L288.96 87.01L290.85 87.63L292.24 89.14L293.8 89.85L296.49 89.19L297.9 88.59L299.71 88.78L301.34 89.68L303.04 91.26L304.45 90.56L305.53 87.29L307.18 84.96L310.56 83.93L316.78 84.98L320.57 88.42L322.96 88.22L324.5 87.55L326.37 84.19L329.84 83.56L331.05 82.74L332.6 80.54L337.08 81.56L339 76.32L339.65 72.84L339.12 70.62L341.36 69.46L342.09 68.15L342.96 63.47L343.77 62.34L345.57 62.42L345.15 60.05L346.67 57.9L347.2 55.03L348.58 53.3L351.43 54.34L352.29 55.33L351.9 58.59L351.99 60.22L353.68 61.96L353.82 62.82L356.16 66.18L356.16 67.67L355.26 68.86L354.66 72.61L353.82 74.57L354.6 76.08L355.82 77.07L363.88 79.4L366.08 77.9L367.18 77.95L369.39 79.17L376.91 79.78L378.47 83.98L378.84 88.43L380.66 91.41L381.7 94.07L381.31 95.94L380.69 97.15L381.63 98.82L381.12 100.95L384.13 101.77L386.11 105.44L386.42 110.43L386.21 114.36L387.67 118.43L387.14 120.84L385.9 123.21L385.38 125.74L387.77 133.01L389.7 134.86L391.34 135.64L392.81 136.94L393.78 138.98L395.82 141.43L397.13 142.41L399.06 142.77L400.95 142.27L406.19 144.52L408.9 142.3L410.22 136.83L416.42 135.95L420.29 135.01L422.36 134.08L424.85 134.32L432.61 128.27L434.6 128.31L436.22 126.32L439.81 125.31L440.97 122.91L442.01 122.94L446.91 124.42L448.36 123.68L451.24 123.16L454.16 123.72L455.12 121.93L457.78 122.08L458.49 113.52L459.64 112.92L461.18 110.12L463.7 108.4L466.38 109.37L466.53 111.87L465.24 112.58L465.9 116L471.29 117.86L471.45 119.03L470.7 121.1L471.9 123.51L475.74 122.9L477.41 121.65L477.28 120.95L475.73 118.86L478.4 115.24L480.27 117.43L482.06 115.55L483.17 115.66L486.8 121.06L487.23 124.56L487.5 130.64L486.53 132.69L485.83 135.43L486.48 135.75L488.28 135.13L489.36 135.86L491.13 138.63L491.51 142.16L490.41 145.93L490.31 151.34L487.19 154.94L487.56 158.27L486.5 159.69L486.46 162.85L490.1 165.23L491.19 163.98L491.98 165.06L492.94 168.32L495.2 170.95L496.61 174.32L497.56 177.81L498.15 181.68L496.56 184.26L496.9 184.77L496.24 187.85L491.37 191.17L488.77 193.57L487.5 195.5L487.18 198.93L480.43 201.93L477.24 206.04L471.13 209.04L469.09 210.51L467.54 212.56L465.66 217.08L464.71 221.07L461.39 224.13L458.08 221.96L450.04 223.5L448.73 223.21L447.54 223.97L446.53 225.93L443.72 224.55L440.65 226.62L438.9 229.34L438.65 231.06L437.74 233.29L436.65 229.71L433.6 230.42L430.3 231.68L428.82 233.26L427.23 234.38L425.97 234.85L424.66 236.97L425.07 240.8L426.3 243.25L426.23 246.23L427.71 246.77L429.49 246.72L430.6 247.68L431.15 249.78L433.67 251.86L432.68 252.33L432.77 253.58L434.53 255.37L435.55 257.43L435.44 260.94L435.69 262.64L434.61 263.39L434.85 265.39L435.89 267.13L433.99 267L432.7 270.62L431.6 272.74L429.52 275.47L428.9 277.34L430.15 281.77L432.05 290.52L434.84 292.95L436.93 296.37L435.3 303.31L433.88 303.31L432.72 303.73L431.69 303.21L430.58 301.2L429.23 299.58L428.25 299.34L427.13 300.48L425.86 301.17Z" />
	<path id="South Goa" fill-rule="evenodd" class="shp0" d="M412.77 446.19L412.68 446.19L412.68 445.93L412.58 445.93L412.58 445.54L412.49 445.54L412.49 445.14L412.39 445.14L412.39 444.75L412.29 444.75L412.29 444.35L412.19 444.35L412.19 443.96L412.09 443.96L412.09 443.7L411.99 443.7L411.99 443.44L411.5 443.44L411.5 442.51L411.6 442.51L411.6 441.46L411.5 441.46L411.5 441.33L411.4 441.33L411.4 441.2L411.3 441.2L411.3 440.94L411.2 440.94L411.2 440.42L411.11 440.42L411.11 440.28L411.01 440.28L411.01 440.02L410.91 440.02L410.91 439.89L410.81 439.89L410.81 439.76L410.71 439.76L410.71 439.5L410.61 439.5L410.61 439.36L410.52 439.37L410.52 439.23L410.42 439.23L410.42 439.1L410.32 439.1L410.32 438.97L410.02 438.97L410.02 438.84L409.43 438.84L409.43 438.71L409.04 438.71L409.04 438.58L408.84 438.58L408.84 438.71L408.64 438.71L408.64 438.58L408.45 438.58L408.45 438.05L408.54 438.05L408.54 437.79L408.74 437.79L408.74 437.66L409.53 437.66L409.53 437.53L409.73 437.53L409.73 437.39L409.83 437.39L409.83 437.26L410.12 437.26L410.12 437.53L410.22 437.53L410.22 437.79L410.42 437.79L410.42 437.92L410.91 437.92L410.91 437.79L411.11 437.79L411.11 437.66L411.2 437.66L411.2 437.39L411.4 437.39L411.4 437.26L411.5 437.26L411.5 437.13L411.7 437.13L411.7 437L411.8 437L411.8 436.47L411.9 436.48L411.9 435.82L412.29 435.82L412.29 435.95L412.49 435.95L412.49 436.08L412.7 436.08L412.77 436.08L412.78 436.14L412.78 436.21L412.9 436.21L412.98 436.21L412.98 436.34L413.28 436.34L413.28 436.47L413.47 436.47L413.48 436.6L413.77 436.6L413.77 436.74L413.96 436.74L413.96 436.08L414.06 436.08L414.06 435.95L413.96 435.95L413.96 435.82L413.77 435.82L413.77 435.95L413.47 435.95L413.47 435.82L413.28 435.82L413.28 435.69L412.98 435.69L412.98 435.55L412.77 435.55L412.77 435.42L411.94 435.43L411.9 435.42L411.9 435.55L411.5 435.55L411.5 435.69L410.71 435.69L410.71 435.95L410.61 435.95L410.61 436.08L410.42 436.08L410.42 436.34L410.32 436.34L410.32 436.6L410.22 436.6L410.22 436.74L410.12 436.74L410.12 437L409.93 437L409.93 436.87L409.83 436.87L409.83 436.74L409.73 436.74L409.73 435.69L409.63 435.69L409.63 435.42L409.53 435.43L409.53 435.16L409.43 435.16L409.43 434.77L409.33 434.77L409.33 434.5L409.24 434.5L409.24 434.24L409.14 434.24L409.14 433.98L409.04 433.98L409.04 433.72L408.94 433.72L408.94 433.59L408.84 433.59L408.84 433.32L408.74 433.32L408.74 433.19L408.64 433.19L408.64 432.93L408.55 432.93L408.55 432.4L408.45 432.41L408.45 432.14L408.35 432.14L408.35 431.88L408.25 431.88L408.25 431.62L408.15 431.62L408.15 431.35L408.05 431.35L408.05 431.09L407.95 431.09L407.95 430.83L407.9 430.83L407.76 430.83L407.76 430.69L407.46 430.7L407.46 430.57L406.97 430.57L406.97 430.7L406.67 430.69L406.67 430.83L406.48 430.83L406.48 430.96L406.38 430.96L406.38 431.09L406.28 431.09L406.28 431.22L406.18 431.22L406.18 431.35L405.79 431.35L405.79 431.09L405.69 431.09L405.69 430.96L405.79 430.96L405.79 430.83L405.88 430.83L405.88 430.69L406.08 430.7L406.08 430.57L406.28 430.57L406.28 430.43L406.48 430.43L406.48 430.3L406.58 430.3L406.58 430.17L406.67 430.17L406.67 429.91L406.87 429.91L406.87 429.78L406.77 429.78L406.77 429.38L406.48 429.38L406.48 429.51L406.38 429.51L406.38 429.65L406.28 429.65L406.28 429.25L406.08 429.25L406.08 429.12L405.88 429.12L405.88 429.25L405.79 429.25L405.79 429.38L405.69 429.38L405.69 429.51L405.49 429.51L405.49 429.91L405.39 429.91L405.39 430.04L405.29 430.04L405.29 429.25L405.2 429.25L405.2 429.12L405 429.12L405 428.99L404.9 428.99L404.9 428.73L405.1 428.73L405.1 428.59L405.29 428.59L405.29 428.73L405.49 428.73L405.49 428.59L405.59 428.59L405.59 428.46L405.69 428.46L405.69 427.94L405.79 427.94L405.79 427.68L405.88 427.68L405.88 427.28L405.79 427.28L405.79 427.15L405.69 427.15L405.69 426.89L405.49 426.89L405.49 426.62L405.39 426.63L405.39 426.36L405.29 426.36L405.29 426.23L405.2 426.23L405.2 426.1L405.1 426.1L405.1 425.97L404.9 425.97L404.9 425.84L404.8 425.84L404.8 425.71L404.61 425.71L404.61 425.57L404.51 425.57L404.51 425.44L404.41 425.44L404.41 425.31L404.31 425.31L404.31 425.18L404.11 425.18L404.11 425.04L404.01 425.04L404.01 424.92L403.82 424.92L403.82 424.78L403.72 424.79L403.72 424.66L402.93 424.66L402.93 424.52L402.44 424.52L402.44 424.39L402.24 424.39L402.24 424.13L402.34 424.13L402.34 424L402.44 424L402.44 423.87L402.54 423.87L402.54 423.73L402.05 423.73L402.05 423.87L401.95 423.87L401.95 424L401.85 424L401.85 424.26L401.75 424.26L401.75 424.39L401.55 424.39L401.55 424.66L401.45 424.66L401.45 424.92L401.36 424.92L401.36 425.31L401.16 425.31L401.16 425.58L401.06 425.57L401.06 425.71L401.16 425.71L401.16 425.84L401.26 425.84L401.26 425.97L401.36 425.97L401.36 427.28L401.16 427.28L401.16 427.15L401.06 427.15L401.06 427.02L400.67 427.02L400.67 426.76L400.57 426.76L400.57 426.62L400.47 426.63L400.47 426.36L400.37 426.36L400.37 425.97L400.47 425.97L400.47 425.84L400.67 425.84L400.67 425.71L400.86 425.71L400.86 425.44L400.67 425.44L400.67 424.92L400.57 424.92L400.57 424.52L400.47 424.52L400.47 424.39L400.27 424.39L400.27 424.26L400.08 424.26L400.08 424.13L399.98 424.13L399.98 424L399.78 424L399.78 423.87L399.58 423.87L399.58 423.73L399.49 423.73L399.49 423.6L399.29 423.61L399.29 423.47L399.19 423.47L399.19 422.95L399.09 422.95L399.09 422.69L399 422.69L399 422.42L398.89 422.42L398.89 421.9L398.5 421.9L398.5 422.03L398.4 422.03L398.4 422.16L398.3 422.16L398.3 422.3L398.2 422.29L398.2 422.55L398.11 422.55L398.11 422.82L398.01 422.82L398.01 422.69L397.42 422.69L397.42 422.55L397.22 422.55L397.22 421.9L397.12 421.9L397.12 421.77L396.92 421.77L396.92 421.63L396.82 421.64L396.82 421.5L396.53 421.5L396.53 421.64L396.53 421.77L395.94 421.77L395.94 421.63L395.84 421.63L395.84 421.24L395.64 421.24L395.64 420.71L395.54 420.72L395.54 420.58L395.45 420.59L395.45 420.32L395.15 420.32L395.15 420.71L395.05 420.71L395.05 421.11L394.85 421.11L394.85 421.24L394.76 421.24L394.76 421.37L394.46 421.37L394.46 421.5L394.36 421.5L394.36 421.37L394.26 421.37L394.26 421.5L393.97 421.5L393.97 421.64L393.77 421.63L393.77 421.77L393.57 421.77L393.57 421.9L393.47 421.9L393.47 421.77L393.38 421.77L393.38 421.63L393.18 421.64L393.18 421.5L393.08 421.5L393.08 421.37L392.98 421.37L392.98 421.11L392.78 421.11L392.78 420.98L392.59 420.98L392.59 420.85L392.39 420.85L392.39 420.71L392.29 420.71L392.29 420.19L392.2 420.19L392.2 419.4L392.1 419.4L392.1 419.14L391.9 419.14L391.9 419.01L391.8 419.01L391.8 418.87L391.61 418.88L391.61 418.75L391.41 418.75L391.41 418.61L391.31 418.61L391.31 418.48L391.11 418.48L391.11 417.69L391.21 417.69L391.21 417.04L391.11 417.04L391.11 416.64L391.31 416.64L391.31 416.38L391.51 416.38L391.51 416.25L391.61 416.25L391.61 416.12L391.8 416.12L391.8 415.99L391.9 415.99L391.9 416.12L392.2 416.12L392.2 415.99L392.39 415.99L392.39 415.86L392.49 415.86L392.49 415.33L392.59 415.33L392.59 414.94L392.69 414.94L392.69 414.54L392.79 414.54L392.79 414.15L392.69 414.15L392.69 413.89L392.59 413.89L392.59 413.23L392.49 413.23L392.49 413.1L392.39 413.1L392.39 412.96L392.29 412.97L392.29 412.7L392.2 412.7L392.2 412.31L392.1 412.31L392.1 411.91L392 411.91L392 411.78L391.9 411.78L391.9 411.65L392 411.65L392 411.39L391.9 411.39L391.9 411.13L391.8 411.13L391.8 410.86L391.7 410.87L391.7 410.6L391.61 410.6L391.61 410.21L391.51 410.21L391.51 409.95L391.41 409.95L391.41 409.68L391.31 409.68L391.31 409.42L391.21 409.42L391.21 409.29L391.11 409.29L391.11 408.89L391.01 408.89L391.01 408.5L390.92 408.5L390.92 408.37L390.82 408.37L390.82 408.11L390.72 408.11L390.72 407.84L390.62 407.84L390.62 407.58L390.52 407.58L390.52 407.32L390.43 407.32L390.43 407.05L390.32 407.05L390.32 406.79L390.23 406.79L390.23 406.66L390.03 406.66L390.03 406.4L389.93 406.4L389.93 406.27L389.83 406.27L389.83 406.14L389.73 406.14L389.73 406L389.54 406L389.54 405.87L389.34 405.88L389.34 405.61L388.55 405.61L388.55 405.74L388.35 405.74L388.35 405.88L388.25 405.87L388.25 406L388.16 406L388.16 406.14L387.96 406.14L387.96 406.27L387.86 406.27L387.86 406.4L387.66 406.4L387.66 406.53L387.27 406.53L387.27 406.4L387.07 406.4L387.07 406.27L386.58 406.27L386.58 406.14L386.38 406.14L386.38 406L386.29 406L386.28 405.87L386.19 405.88L386.19 405.74L386.09 405.74L386.09 405.61L385.99 405.61L385.99 405.35L385.89 405.35L385.89 404.69L385.99 404.69L385.99 404.56L386.09 404.56L386.09 403.51L385.99 403.51L385.99 403.38L385.89 403.38L385.89 403.25L385.79 403.25L385.79 402.72L385.69 402.72L385.69 402.07L385.59 402.07L385.59 401.93L385.5 401.93L385.5 401.8L385.3 401.8L385.3 401.54L385.2 401.54L385.2 401.41L385.11 401.41L385.11 401.28L384.81 401.28L384.81 401.14L384.71 401.15L384.71 401.02L384.51 401.02L384.51 400.88L384.31 400.88L384.31 400.62L384.41 400.62L384.41 400.49L384.51 400.49L384.51 400.36L384.61 400.36L384.61 399.96L384.71 399.96L384.71 399.57L384.61 399.57L384.61 399.31L384.51 399.31L384.51 399.18L383.72 399.18L383.72 399.31L383.62 399.31L383.62 399.18L383.43 399.18L383.43 399.04L383.33 399.04L383.33 398.91L383.13 398.91L383.13 398.78L382.93 398.78L382.93 398.52L382.84 398.52L382.84 398.39L382.64 398.39L382.64 398.26L382.54 398.26L382.54 398.13L382.25 398.13L382.25 397.99L382.15 398L382.15 397.86L381.96 397.86L381.96 397.73L381.76 397.73L381.76 397.47L381.65 397.47L381.65 397.21L381.26 397.21L381.26 397.34L380.57 397.34L380.57 397.21L380.08 397.21L380.08 397.07L379.88 397.08L379.88 396.95L379.78 396.94L379.78 396.54L379.88 396.54L379.88 396.42L379.98 396.42L379.98 396.02L379.88 396.02L379.88 395.89L379.79 395.89L379.79 395.76L379.59 395.76L379.59 395.63L379.2 395.62L379.2 395.5L379 395.5L379 395.37L378.9 395.37L378.9 395.24L378.7 395.24L378.7 395.11L378.6 395.11L378.6 394.97L378.41 394.97L378.41 394.84L378.01 394.84L378.01 394.71L376.34 394.71L376.34 394.84L376.04 394.84L376.04 394.97L375.94 394.97L375.94 394.84L375.75 394.84L375.75 394.97L375.65 394.97L375.65 394.84L375.45 394.84L375.45 394.71L375.25 394.71L375.25 394.58L375.06 394.58L375.06 394.71L374.86 394.71L374.86 394.58L374.66 394.58L374.66 394.45L374.56 394.45L374.56 394.32L374.46 394.32L374.46 394.18L374.36 394.18L374.36 394.05L373.58 394.06L373.58 393.92L373.48 393.92L373.48 393.66L373.38 393.66L373.38 393.53L373.28 393.53L373.28 393.4L372.3 393.4L372.3 393.53L372.1 393.53L372.1 393.4L372 393.4L372 393.27L371.8 393.27L371.8 393L371.71 393L371.71 392.74L371.51 392.74L371.51 392.48L371.41 392.48L371.41 392.35L371.31 392.35L371.31 392.22L371.22 392.22L371.22 392.08L371.12 392.08L371.12 391.82L371.22 391.82L371.22 391.56L371.31 391.56L371.31 391.3L371.22 391.3L371.22 390.9L370.82 390.9L370.82 390.77L370.72 390.77L370.72 390.9L370.63 390.9L370.63 390.77L370.43 390.77L370.43 390.51L370.32 390.51L370.32 390.25L370.13 390.25L370.13 389.98L370.03 389.98L370.03 389.85L369.64 389.85L369.64 389.72L369.44 389.72L369.44 389.85L369.15 389.85L369.15 389.98L369.05 389.98L369.05 389.85L368.85 389.85L368.85 389.72L368.65 389.72L368.65 389.85L368.56 389.85L368.56 390.11L368.36 390.11L368.36 390.38L367.96 390.38L367.96 390.51L367.87 390.51L367.87 390.38L367.77 390.38L367.77 390.51L367.57 390.51L367.57 390.64L367.47 390.64L367.47 390.77L367.28 390.77L367.28 390.9L367.08 390.9L367.08 391.04L366.98 391.03L366.98 391.17L366.88 391.17L366.88 391.03L366.68 391.04L366.68 390.64L366.59 390.64L366.59 390.51L365.89 390.51L365.89 390.64L365.01 390.64L365.01 390.38L365.11 390.38L365.11 389.98L365.21 389.98L365.21 389.85L365.3 389.85L365.3 389.72L365.5 389.72L365.5 389.59L365.7 389.59L365.7 389.45L365.89 389.45L365.89 389.32L366.09 389.33L366.09 389.2L366.19 389.2L366.19 389.06L366.29 389.06L366.29 388.93L366.39 388.93L366.39 388.8L366.49 388.8L366.49 388.67L366.59 388.67L366.59 388.54L366.68 388.54L366.68 388.41L366.78 388.41L366.78 388.28L366.98 388.28L366.98 388.14L367.28 388.14L367.28 388.01L367.47 388.02L367.47 387.88L367.67 387.88L367.67 387.75L367.87 387.75L367.87 387.62L367.96 387.62L367.96 387.49L368.16 387.49L368.16 387.36L368.26 387.36L368.26 387.23L368.45 387.23L368.45 387.09L368.56 387.09L368.56 386.96L368.75 386.96L368.75 386.83L368.85 386.83L368.85 386.7L368.95 386.71L368.95 386.57L369.15 386.57L369.15 386.44L369.25 386.44L369.25 386.04L369.34 386.04L369.34 385.65L369.25 385.65L369.25 385.52L369.34 385.52L369.34 385.39L369.44 385.39L369.44 385.25L369.54 385.26L369.54 385.12L369.74 385.12L369.74 384.99L369.94 384.99L369.94 384.86L370.03 384.86L370.03 384.6L370.13 384.6L370.13 383.5L370.13 383.02L370.03 383.02L370.03 382.63L369.94 382.63L369.94 382.23L369.84 382.24L369.84 381.97L369.74 381.97L369.74 381.58L369.84 381.58L369.84 381.32L369.74 381.32L369.74 381.05L369.64 381.05L369.64 380.92L369.34 380.92L369.34 380.79L369.25 380.79L369.25 380.66L369.04 380.66L369.04 380.53L368.95 380.53L368.95 380.4L368.75 380.4L368.75 380.27L368.65 380.27L368.65 380.13L368.45 380.13L368.45 379.61L368.16 379.61L368.16 379.74L368.07 379.74L368.07 379.61L367.67 379.61L367.67 379.74L367.37 379.74L367.37 379.61L367.18 379.61L367.18 379.48L367.08 379.48L367.08 379.34L366.98 379.35L366.98 379.21L367.18 379.21L367.18 379.08L367.37 379.08L367.37 378.95L368.26 378.95L368.26 378.82L368.56 378.82L368.56 378.69L368.65 378.69L368.65 378.56L368.75 378.56L368.75 378.43L368.95 378.43L368.95 378.29L369.74 378.29L369.74 378.16L370.23 378.16L370.23 378.03L370.33 378.03L370.33 377.9L370.53 377.9L370.53 377.77L370.72 377.77L370.72 377.64L371.02 377.64L371.02 377.51L371.41 377.51L371.41 377.38L371.61 377.38L371.61 377.24L371.8 377.24L371.8 377.11L372 377.11L372 376.98L372.1 376.98L372.1 376.85L372.2 376.85L372.2 376.72L372.3 376.73L372.3 376.59L372.59 376.59L372.59 376.73L372.79 376.72L372.79 376.85L372.89 376.85L372.89 376.98L372.99 376.98L372.99 377.11L373.09 377.11L373.09 377.24L373.28 377.24L373.28 377.11L373.48 377.11L373.48 376.85L373.58 376.85L373.58 376.32L373.68 376.32L373.68 375.41L373.78 375.41L373.78 375.27L373.88 375.28L373.88 374.75L374.07 374.75L374.07 374.49L374.17 374.49L374.17 374.22L374.56 374.22L374.56 374.09L374.66 374.09L374.66 373.96L374.96 373.96L374.96 373.83L375.24 373.83L375.25 372.91L375.15 372.91L375.15 372.65L374.96 372.65L374.96 371.47L374.86 371.47L374.86 370.81L374.96 370.81L374.96 370.55L375.06 370.55L375.06 370.28L375.15 370.29L375.15 370.02L375.06 370.02L375.06 369.89L374.86 369.89L374.86 369.76L374.76 369.76L374.76 369.5L374.66 369.5L374.66 369.23L374.46 369.23L374.46 369.1L374.36 369.1L374.36 368.97L374.17 368.97L374.17 368.84L373.97 368.84L373.97 368.18L373.88 368.19L373.88 368.05L373.68 368.05L373.68 368.19L373.48 368.19L373.48 368.05L373.28 368.05L373.28 367.79L373.38 367.79L373.38 367.52L373.48 367.53L373.48 367.4L373.58 367.4L373.58 367.13L373.68 367.13L373.68 367L373.78 367L373.78 366.87L374.36 366.87L374.36 366.73L374.56 366.73L374.56 366.61L374.86 366.61L374.86 366.47L375.06 366.47L375.06 366.34L375.45 366.34L375.45 366.21L375.55 366.21L375.55 365.95L375.65 365.95L375.65 365.82L375.75 365.82L375.75 365.69L375.84 365.69L375.84 365.42L375.94 365.42L375.94 365.16L376.04 365.16L376.04 364.64L376.14 364.64L376.14 364.5L376.34 364.5L376.34 364.37L376.44 364.37L376.44 364.11L376.34 364.11L376.34 363.98L376.44 363.98L376.44 363.72L376.54 363.72L376.54 363.59L376.73 363.59L376.73 363.45L376.83 363.45L376.83 363.32L377.02 363.32L377.02 363.06L377.22 363.06L377.22 362.93L377.52 362.93L377.52 362.67L377.62 362.67L377.62 362.4L377.72 362.4L377.72 362.14L377.81 362.14L377.81 361.88L377.91 361.88L377.91 361.61L378.01 361.62L378.01 361.35L377.91 361.35L377.91 360.7L377.81 360.7L377.81 360.43L377.72 360.43L377.72 359.91L377.61 359.91L377.61 359.77L377.52 359.78L377.52 359.51L377.61 359.51L377.61 359.38L377.52 359.38L377.52 358.99L377.42 358.99L377.42 358.59L377.32 358.59L377.32 358.07L377.22 358.07L377.22 357.68L377.12 357.68L377.12 357.02L377.03 357.02L377.03 356.76L376.93 356.76L376.93 356.49L376.83 356.49L376.83 356.23L376.73 356.23L376.73 356.1L376.63 356.1L376.63 355.57L376.53 355.57L376.53 355.44L376.44 355.44L376.44 353.86L376.34 353.87L376.34 353.74L376.44 353.74L376.44 353.47L376.34 353.47L376.34 352.95L376.24 352.95L376.24 352.55L376.14 352.55L376.14 352.03L376.04 352.03L376.04 351.5L375.94 351.5L375.94 350.45L375.84 350.45L375.84 349.53L375.75 349.53L375.75 349.14L375.65 349.14L375.65 348.88L375.55 348.88L375.55 348.48L375.45 348.48L375.45 348.09L375.35 348.09L375.35 347.56L375.25 347.56L375.25 347.04L375.15 347.04L375.15 346.51L375.06 346.51L375.06 345.86L374.96 345.86L374.96 345.46L374.86 345.46L374.86 344.81L374.76 344.81L374.76 344.28L374.66 344.28L374.66 343.75L374.56 343.76L374.56 343.36L374.46 343.36L374.46 343.1L374.36 343.1L374.36 342.83L374.27 342.83L374.27 342.31L374.17 342.31L374.17 341.79L374.07 341.79L374.07 341L373.97 341L373.97 340.73L373.87 340.73L373.87 340.08L373.78 340.08L373.78 339.68L373.68 339.69L373.68 339.16L373.58 339.16L373.58 338.37L373.48 338.37L373.48 337.85L373.38 337.84L373.38 337.32L373.28 337.32L373.28 336.53L373.18 336.53L373.18 335.48L373.09 335.48L373.09 334.69L372.99 334.69L372.99 334.43L372.89 334.43L372.89 334.17L372.79 334.17L372.79 333.77L372.69 333.77L372.69 333.51L372.59 333.51L372.59 333.12L372.49 333.12L372.49 332.85L372.4 332.85L372.4 332.72L372.49 332.72L372.49 332.06L372.4 332.07L372.4 331.8L372.3 331.8L372.3 331.41L372.2 331.41L372.2 331.14L372.1 331.14L372.1 330.88L372 330.88L372 330.62L371.9 330.62L371.9 330.36L371.8 330.36L371.8 329.57L371.7 329.57L371.7 328.52L371.61 328.52L371.61 327.99L371.51 327.99L371.51 327.47L371.41 327.47L371.41 326.94L371.31 326.94L371.31 326.42L371.22 326.42L371.22 326.15L371.12 326.16L371.12 325.89L371.22 325.89L371.22 325.24L371.02 325.24L371.02 324.97L371.12 324.97L371.12 324.45L371.02 324.45L371.02 324.19L370.92 324.19L370.92 323.4L370.82 323.4L370.82 323.13L370.72 323.14L370.72 323L370.62 323L370.62 322.87L370.72 322.87L370.72 322.61L370.62 322.61L370.62 322.35L370.53 322.35L370.53 322.08L370.43 322.08L370.43 321.82L370.33 321.82L370.33 321.69L370.23 321.69L370.23 321.43L370.13 321.43L370.13 321.17L370.03 321.17L370.03 320.64L369.94 320.64L369.94 320.11L369.84 320.12L369.84 319.59L369.74 319.59L369.74 319.06L369.64 319.06L369.64 318.67L369.54 318.67L369.54 318.15L369.44 318.15L369.44 317.75L369.34 317.75L369.34 317.22L369.25 317.22L369.25 316.7L369.15 316.7L369.15 316.17L369.04 316.17L369.04 315.65L368.95 315.65L368.95 315.26L368.85 315.26L368.85 314.99L368.75 314.99L368.75 314.33L368.65 314.34L368.65 313.42L368.56 313.42L368.56 313.02L368.45 313.02L368.45 312.49L368.36 312.49L368.36 312.1L368.26 312.1L368.26 311.71L368.16 311.71L368.16 311.18L368.07 311.19L368.07 310.79L367.96 310.79L367.96 310.66L367.87 310.66L367.87 310.4L367.77 310.4L367.77 309.74L367.67 309.74L367.67 309.21L367.57 309.21L367.57 308.3L367.47 308.29L367.47 307.9L367.37 307.9L367.37 307.51L367.28 307.51L367.28 307.11L367.18 307.12L367.18 306.59L367.08 306.59L367.08 306.19L366.88 306.19L366.88 305.93L366.98 305.93L366.98 305.8L366.78 305.8L366.78 305.4L366.68 305.4L366.68 304.88L366.78 304.88L366.78 304.62L366.68 304.62L366.68 304.35L366.59 304.35L366.59 303.96L366.49 303.96L366.49 303.7L366.39 303.7L366.39 303.44L366.29 303.44L366.29 303.04L366.19 303.04L366.19 302.78L366.09 302.78L366.09 301.99L365.99 301.99L365.99 301.2L365.89 301.2L365.89 300.94L365.79 300.94L365.79 300.68L365.7 300.68L365.7 300.41L365.6 300.42L365.6 300.15L365.5 300.15L365.5 299.89L365.4 299.9L365.4 299.63L365.3 299.63L365.3 299.36L365.21 299.36L365.21 298.05L365.11 298.05L365.11 297.66L365.01 297.66L365.01 297.26L364.91 297.26L364.91 296.87L364.81 296.87L364.81 296.48L364.71 296.48L364.71 295.95L364.62 295.95L364.62 295.42L364.52 295.42L364.52 295.16L364.32 295.16L364.32 294.11L364.22 294.11L364.22 293.72L364.12 293.72L364.12 293.19L364.02 293.19L364.02 292.93L363.93 292.93L363.93 292.8L363.73 292.8L363.73 292.53L363.63 292.53L363.63 292.01L363.53 292.01L363.53 291.62L363.43 291.62L363.43 291.22L363.33 291.22L363.33 290.83L363.24 290.83L363.24 290.43L363.13 290.43L363.13 290.04L363.04 290.04L363.04 289.64L362.94 289.64L362.94 289.12L362.84 289.12L362.84 288.73L362.75 288.73L362.75 288.33L362.64 288.33L362.64 287.94L362.55 287.94L362.55 287.54L362.45 287.55L362.45 287.15L362.35 287.15L362.35 286.76L362.25 286.76L362.25 286.23L362.15 286.23L362.15 285.84L362.05 285.84L362.05 285.57L361.96 285.57L361.96 285.18L361.86 285.18L361.86 284.78L361.76 284.79L361.76 284.52L361.66 284.53L361.66 284.12L361.56 284.12L361.56 283.74L361.46 283.74L361.46 283.34L361.36 283.34L361.36 282.95L361.27 282.95L361.27 282.55L361.17 282.55L361.17 282.29L361.07 282.29L361.07 281.9L360.97 281.9L360.97 281.5L360.87 281.5L360.87 281.24L360.77 281.24L360.77 280.85L360.68 280.85L360.68 280.71L360.58 280.72L360.58 280.45L360.68 280.45L360.68 280.19L360.78 280.19L360.77 280.02L360.77 279.92L360.68 279.92L360.68 279.66L360.57 279.66L360.57 279.53L360.48 279.53L360.48 279.27L360.38 279.27L360.38 279.14L360.29 279.14L360.29 279.01L360.18 279.01L360.18 278.35L360.09 278.35L360.09 278.22L359.99 278.22L359.99 277.96L359.89 277.96L359.89 277.56L359.79 277.56L359.79 276.91L359.69 276.91L359.69 276.78L359.79 276.78L359.79 276.64L359.69 276.64L359.69 276.38L359.59 276.38L359.59 275.85L359.49 275.86L359.49 275.59L359.4 275.59L359.4 275.46L359.3 275.46L359.3 275.2L359.4 275.2L359.4 274.94L359.3 274.94L359.3 274.54L359.2 274.54L359.2 274.28L359.1 274.28L359.1 273.89L359 273.89L359 273.49L358.9 273.49L358.9 273.23L358.8 273.23L358.8 272.96L358.71 272.97L358.71 272.7L358.61 272.7L358.61 272.44L358.51 272.44L358.51 272.18L358.41 272.18L358.41 271.92L358.31 271.92L358.31 271.65L358.21 271.66L358.21 271.26L358.12 271.26L358.12 270.87L358.02 270.87L358.02 270.47L357.92 270.47L357.92 270.21L357.82 270.21L357.82 269.81L357.72 269.82L357.72 269.42L357.62 269.42L357.62 269.16L357.52 269.16L357.52 268.89L357.43 268.89L357.43 268.63L357.32 268.63L357.32 268.37L357.23 268.37L357.23 268.11L357.13 268.11L357.13 267.71L357.03 267.71L357.03 267.45L356.93 267.45L356.93 267.19L356.83 267.19L356.83 266.93L356.73 266.93L356.73 266.66L356.64 266.66L356.64 266.27L356.54 266.27L356.54 266L356.44 266L356.44 265.74L356.34 265.74L356.34 265.48L356.24 265.48L356.24 265.22L356.14 265.22L356.14 264.96L356.05 264.96L356.05 264.69L355.95 264.69L355.95 264.56L355.85 264.56L355.85 264.3L355.75 264.3L355.75 264.17L355.65 264.17L355.65 263.9L355.55 263.91L355.55 263.64L355.46 263.64L355.46 263.38L355.36 263.38L355.36 263.12L355.26 263.12L355.26 262.85L355.16 262.85L355.16 262.59L355.06 262.59L355.06 262.33L354.96 262.33L354.96 262.07L354.86 262.07L354.86 261.8L354.77 261.8L354.77 261.54L354.67 261.54L354.67 261.4L354.57 261.4L354.57 261.15L354.47 261.15L354.47 261.02L354.37 261.02L354.37 260.75L354.27 260.75L354.27 260.62L354.17 260.62L354.17 260.36L354.08 260.36L354.08 260.23L353.98 260.23L353.98 259.96L353.88 259.96L353.88 259.83L353.78 259.83L353.78 259.57L353.68 259.57L353.68 259.44L353.58 259.44L353.58 259.18L353.48 259.18L353.48 259.05L353.39 259.05L353.39 258.78L353.29 258.78L353.29 258.65L353.19 258.66L353.19 258.39L353.09 258.39L353.09 258.26L352.99 258.26L352.99 258L352.89 258L352.89 257.86L352.79 257.86L352.79 257.6L352.7 257.6L352.7 257.47L352.6 257.47L352.6 257.21L352.5 257.21L352.5 257.07L352.4 257.08L352.4 256.81L352.3 256.81L352.3 256.68L352.2 256.68L352.2 256.55L352.11 256.55L352.11 256.29L352.01 256.29L352.01 256.16L351.91 256.16L351.91 256.02L351.81 256.02L351.81 255.89L351.71 255.89L351.71 255.76L351.61 255.76L351.61 255.63L351.51 255.63L351.51 255.5L351.41 255.5L351.41 255.37L351.12 255.37L351.12 255.23L350.92 255.24L350.92 255.11L350.13 255.11L350.13 255.24L349.74 255.23L349.74 255.37L349.54 255.37L349.54 255.5L348.27 255.5L348.27 255.63L347.77 255.63L347.77 255.76L347.68 255.76L347.68 255.89L347.58 255.89L347.58 256.16L347.67 256.16L347.67 256.42L347.77 256.42L347.77 256.55L347.58 256.55L347.58 256.81L347.48 256.81L347.48 257.08L347.38 257.07L347.38 257.21L347.28 257.21L347.28 257.34L346.98 257.34L346.98 257.47L346.89 257.47L346.89 257.34L346.79 257.34L346.79 257.47L346.49 257.47L346.49 257.34L346.29 257.34L346.29 257.21L344.52 257.21L344.52 257.34L344.42 257.34L344.42 257.47L344.23 257.47L344.23 257.6L344.13 257.6L344.13 257.86L344.03 257.86L344.03 258.26L343.93 258.26L343.93 259.44L343.83 259.44L343.83 259.57L343.63 259.57L343.63 259.7L343.14 259.7L343.14 259.83L342.95 259.83L342.95 259.7L342.26 259.7L342.26 259.83L341.86 259.83L341.86 259.96L340.68 259.96L340.68 260.09L340.18 260.09L340.18 259.96L339.89 259.96L339.89 259.83L339.8 259.83L339.8 259.7L339.6 259.7L339.6 259.57L339.5 259.57L339.5 259.44L339.4 259.44L339.4 259.31L339.11 259.31L339.11 259.18L338.91 259.18L338.91 259.05L338.71 259.05L338.71 258.78L338.51 258.78L338.51 258.65L338.42 258.65L338.42 258.52L338.32 258.52L338.32 257.86L338.22 257.86L338.22 257.6L338.12 257.6L338.12 257.47L338.02 257.47L338.02 256.94L337.92 256.94L337.92 256.81L337.82 256.81L337.82 256.42L337.73 256.42L337.73 256.29L337.63 256.29L337.63 256.16L337.53 256.16L337.53 255.89L337.43 255.89L337.43 255.63L337.23 255.63L337.23 255.5L337.04 255.5L337.04 255.37L336.84 255.37L336.84 255.23L336.64 255.24L336.64 255.11L336.54 255.11L336.54 254.97L336.45 254.97L336.45 255.11L336.15 255.11L336.15 255.37L336.05 255.37L336.05 255.5L335.85 255.5L335.85 255.63L335.56 255.63L335.56 255.76L335.07 255.76L335.07 255.63L334.67 255.63L334.67 255.5L334.28 255.5L334.28 255.37L334.18 255.37L334.18 255.23L333.98 255.24L333.98 255.11L333.88 255.11L333.88 255.24L333.79 255.24L333.79 255.11L333.59 255.11L333.59 255.24L333.49 255.24L333.49 255.11L333.19 255.11L333.19 254.84L333.29 254.84L333.29 254.58L333.19 254.58L333.19 254.45L333.1 254.45L333.1 254.31L333 254.31L333 254.19L332.9 254.19L332.9 254.05L332.8 254.05L332.8 253.92L332.21 253.92L332.21 254.05L332.11 254.05L332.11 253.92L331.81 253.92L331.81 253.79L331.32 253.79L331.32 253.66L330.93 253.66L330.93 253.53L330.73 253.53L330.73 253.4L330.63 253.4L330.63 253L330.53 253L330.53 252.74L330.34 252.74L330.34 252.61L329.94 252.61L329.94 252.48L329.84 252.48L329.84 252.35L329.65 252.35L329.65 252.48L329.55 252.48L329.55 252.35L329.25 252.35L329.25 252.48L329.15 252.48L329.15 252.35L328.46 252.35L328.46 252.21L328.27 252.22L328.27 251.95L328.17 251.95L328.17 251.82L328.07 251.82L328.07 251.69L327.88 251.69L327.88 251.43L327.78 251.43L327.78 251.16L327.88 251.16L327.88 250.77L327.97 250.77L327.97 250.51L328.07 250.51L328.07 249.85L327.97 249.85L327.97 249.2L328.07 249.2L328.07 247.88L327.97 247.88L327.97 245.91L327.88 245.91L327.88 245.65L327.78 245.65L327.78 245.25L327.68 245.26L327.68 244.99L327.58 244.99L327.58 244.73L327.48 244.73L327.48 244.6L327.38 244.6L327.38 244.47L327.29 244.47L327.29 244.33L327.19 244.33L327.19 244.2L327.09 244.2L327.09 244.07L326.89 244.07L326.89 243.81L326.69 243.81L326.69 243.68L326.1 243.68L326.1 243.81L325.71 243.81L325.71 243.94L324.03 243.94L324.03 243.81L323.74 243.81L323.74 243.94L323.54 243.94L323.54 244.07L323.34 244.07L323.34 244.2L322.95 244.2L322.95 244.07L322.46 244.07L322.46 243.94L322.36 243.94L322.36 244.07L322.16 244.07L322.16 243.94L322.06 243.94L322.06 243.68L321.87 243.68L321.87 243.55L321.77 243.55L321.77 243.29L321.67 243.29L321.67 243.15L321.57 243.15L321.57 242.89L321.47 242.89L321.47 242.5L321.57 242.5L321.57 242.1L321.67 242.11L321.67 241.84L321.77 241.84L321.77 241.71L321.87 241.71L321.87 241.45L321.96 241.45L321.96 241.32L321.87 241.32L321.87 241.18L321.77 241.18L321.77 241.05L321.57 241.05L321.57 240.92L321.47 240.92L321.47 240.79L321.37 240.79L321.37 240.66L321.08 240.66L321.08 240.39L320.98 240.4L320.98 240.27L320.88 240.27L320.88 240.13L320.78 240.14L320.78 239.87L320.68 239.87L320.68 239.48L320.59 239.48L320.59 238.95L320.49 238.95L320.49 238.56L320.39 238.56L320.39 238.29L320.29 238.29L320.29 238.03L320.19 238.03L320.19 237.9L319.89 237.9L319.89 237.77L319.7 237.77L319.7 237.64L319.6 237.64L319.6 237.5L319.5 237.5L319.5 237.24L319.41 237.24L319.41 237.11L319.3 237.11L319.3 236.32L319.21 236.33L319.21 235.41L319.3 235.41L319.3 235.14L319.4 235.14L319.4 235.01L319.5 235.01L319.5 234.88L319.6 234.88L319.6 234.75L319.7 234.75L319.7 234.62L319.8 234.62L319.8 234.48L320.09 234.49L320.09 234.36L320.88 234.36L320.88 234.49L321.08 234.48L321.08 234.62L321.28 234.62L321.28 234.75L321.37 234.75L321.37 234.62L321.57 234.62L321.57 234.48L321.77 234.49L321.77 234.36L321.87 234.36L321.87 233.96L321.96 233.96L321.96 233.3L322.07 233.3L322.07 232.91L322.16 232.91L322.16 232.78L322.26 232.78L322.26 232.52L322.36 232.52L322.36 232.38L322.55 232.38L322.55 232.52L322.65 232.52L322.65 232.91L322.75 232.91L322.75 233.3L323.25 233.3L323.25 233.43L323.54 233.43L323.54 233.57L323.64 233.57L323.64 234.09L323.74 234.09L323.74 234.22L323.84 234.22L323.84 234.48L323.93 234.48L323.93 234.75L324.03 234.75L324.03 234.88L324.13 234.88L324.13 235.01L324.23 235.01L324.23 235.14L324.43 235.14L324.43 235.27L324.63 235.27L324.63 235.41L325.51 235.41L325.51 235.54L325.71 235.54L325.71 235.67L325.81 235.67L325.81 235.8L326 235.8L326 235.93L326.1 235.93L326.1 236.32L326.2 236.32L326.2 236.59L326.69 236.59L326.69 236.72L326.79 236.72L326.79 236.85L326.89 236.85L326.89 236.98L327.09 236.98L327.09 237.38L327.19 237.38L327.19 237.51L327.58 237.5L327.58 237.64L327.68 237.64L327.68 237.77L327.78 237.77L327.78 237.9L327.97 237.9L327.97 238.03L328.07 238.03L328.07 238.16L328.17 238.16L328.17 238.29L328.27 238.29L328.27 238.56L328.37 238.56L328.37 238.82L328.46 238.82L328.46 239.08L328.57 239.08L328.57 240L328.66 240L328.66 240.79L329.25 240.79L329.25 240.66L329.55 240.66L329.55 240.53L329.74 240.53L329.75 240.39L330.04 240.4L330.04 240.27L330.14 240.27L330.14 240.13L330.24 240.14L330.24 240L330.44 240L330.44 239.87L330.63 239.87L330.63 239.74L330.83 239.74L330.83 239.61L330.93 239.61L330.93 239.48L331.03 239.48L331.03 239.34L331.12 239.34L331.12 239.21L331.22 239.21L331.22 238.82L331.13 238.82L331.13 237.9L331.22 237.9L331.22 237.64L331.12 237.64L331.12 237.24L331.03 237.24L331.03 236.32L331.22 236.33L331.22 236.19L331.32 236.19L331.32 236.06L332.01 236.06L332.01 236.19L332.31 236.19L332.31 236.33L332.9 236.32L332.9 236.46L333.19 236.46L333.19 236.72L333.39 236.72L333.39 236.85L333.59 236.85L333.59 237.38L333.69 237.38L333.69 237.51L333.59 237.5L333.59 237.64L333.69 237.64L333.69 238.56L333.79 238.56L333.79 238.69L334.09 238.69L334.18 238.69L334.18 238.82L334.67 238.82L334.67 238.95L334.77 238.95L334.77 239.08L334.87 239.08L334.87 239.21L334.97 239.21L334.97 239.48L335.07 239.48L335.07 239.61L335.36 239.61L335.36 239.21L335.26 239.21L335.26 238.95L335.16 238.95L335.16 238.16L335.26 238.16L335.26 238.03L335.36 238.03L335.36 237.9L335.76 237.9L335.76 237.77L335.85 237.77L335.85 237.9L336.05 237.9L336.05 238.03L336.35 238.03L336.35 238.16L336.84 238.16L336.84 238.03L337.04 238.03L337.04 237.77L337.13 237.77L337.13 237.5L337.23 237.51L337.23 237.38L337.33 237.38L337.33 236.72L337.43 236.72L337.43 236.59L337.63 236.59L337.63 236.46L338.02 236.46L338.02 236.59L338.22 236.59L338.22 236.46L338.61 236.46L338.61 236.32L338.91 236.33L338.91 236.19L339.3 236.19L339.3 236.06L339.4 236.06L339.4 236.19L339.79 236.19L339.8 236.33L339.99 236.32L339.99 236.46L340.09 236.46L340.09 236.72L340.19 236.72L340.19 236.85L340.48 236.85L340.48 236.98L340.68 236.98L340.68 237.11L340.97 237.11L340.97 237.24L341.07 237.24L341.08 237.64L341.17 237.64L341.17 238.29L341.27 238.29L341.27 238.69L341.37 238.69L341.37 238.95L341.27 238.95L341.27 239.48L341.37 239.48L341.37 239.61L341.17 239.61L341.17 239.74L341.27 239.74L341.27 240L341.17 240L341.17 240.14L340.97 240.13L340.97 240.4L341.07 240.39L341.07 240.53L341.17 240.53L341.17 240.79L341.27 240.79L341.27 241.05L341.37 241.05L341.37 241.18L341.47 241.18L341.47 241.32L341.76 241.32L341.76 241.45L342.26 241.45L342.26 241.32L342.75 241.32L342.75 241.18L342.95 241.18L342.95 240.92L343.04 240.92L343.04 240.79L343.14 240.79L343.14 240.53L343.24 240.53L343.24 240.39L343.73 240.4L343.73 240.27L344.03 240.27L344.03 240.4L344.32 240.39L344.32 240.53L344.52 240.53L344.52 240.66L344.82 240.66L344.82 240.79L345.11 240.79L345.11 240.92L345.31 240.92L345.31 241.05L345.41 241.05L345.41 241.18L345.61 241.18L345.61 241.32L345.8 241.32L345.8 241.45L345.9 241.45L345.9 241.71L345.99 241.71L346 241.84L346.1 241.84L346.1 241.71L346.2 241.71L346.2 241.97L346.29 241.97L346.29 241.84L346.39 241.84L346.39 241.71L346.49 241.71L346.49 241.58L346.59 241.58L346.59 241.45L346.69 241.45L346.69 241.32L346.79 241.32L346.79 241.18L346.89 241.18L346.89 241.05L346.98 241.05L346.98 240.92L347.08 240.92L347.08 240.66L347.28 240.66L347.28 240.53L347.58 240.53L347.58 240.27L347.87 240.27L347.87 240.13L348.36 240.13L348.36 239.87L348.46 239.87L348.46 240L348.56 240L348.56 240.14L349.25 240.13L349.25 240.27L349.45 240.27L349.45 240.4L349.74 240.39L349.74 240.53L349.94 240.53L349.94 240.66L350.24 240.66L350.24 240.92L350.53 240.92L350.53 241.05L350.73 241.05L350.73 241.32L350.82 241.32L350.82 241.84L350.63 241.84L350.63 241.97L350.53 241.97L350.53 242.24L350.63 242.23L350.63 242.5L350.73 242.5L350.73 242.63L350.92 242.63L350.92 242.76L351.61 242.76L351.61 242.63L352.01 242.63L352.01 242.5L352.11 242.5L352.11 242.63L352.2 242.63L352.2 242.76L352.6 242.76L352.6 242.63L352.7 242.63L352.7 242.5L352.79 242.5L352.79 242.23L352.89 242.24L352.89 242.1L353.19 242.1L353.19 241.97L353.29 241.97L353.29 241.84L353.39 241.84L353.39 241.71L353.88 241.71L353.88 241.84L353.98 241.84L353.98 241.97L354.67 241.97L354.67 241.84L354.77 241.84L354.77 241.71L354.86 241.71L354.86 241.58L354.96 241.58L354.96 241.45L355.06 241.45L355.06 241.32L355.16 241.32L355.16 241.18L355.26 241.18L355.26 240.92L355.36 240.92L355.36 240.79L355.45 240.79L355.45 240.66L355.55 240.66L355.55 240.53L355.65 240.53L355.65 240.39L355.75 240.4L355.75 240.13L356.05 240.14L356.05 240L356.14 240L356.14 238.95L356.05 238.95L356.05 238.43L355.95 238.43L355.95 238.29L356.24 238.29L356.24 238.16L356.54 238.16L356.54 237.64L356.73 237.64L356.73 237.5L357.13 237.5L357.13 237.64L357.43 237.64L357.43 237.5L357.52 237.51L357.52 237.38L357.62 237.38L357.62 237.24L357.82 237.24L357.82 237.11L358.02 237.11L358.02 237.24L358.11 237.24L358.11 237.11L358.21 237.11L358.21 237.24L358.41 237.24L358.41 237.38L358.61 237.38L358.61 237.51L358.71 237.5L358.71 237.64L358.9 237.64L358.9 237.77L359 237.77L359 237.38L359.1 237.38L359.1 236.85L359.2 236.85L359.2 236.32L359.3 236.32L359.3 235.93L359.4 235.93L359.4 235.41L359.49 235.41L359.49 234.88L359.59 234.88L359.59 234.36L359.69 234.36L359.69 234.22L359.59 234.22L359.59 234.09L359.5 234.09L359.5 233.96L359.4 233.96L359.4 233.7L359.3 233.7L359.3 233.43L359.2 233.43L359.2 233.3L359 233.3L359 232.91L358.9 232.91L358.9 232.78L358.8 232.78L358.8 232.52L358.61 232.52L358.61 232.38L358.51 232.38L358.51 232.25L358.41 232.25L358.41 231.99L358.31 231.99L358.31 231.6L358.21 231.6L358.21 231.2L358.02 231.2L358.02 230.68L357.92 230.68L357.92 230.41L357.82 230.41L357.82 230.15L357.72 230.16L357.72 229.89L357.62 229.89L357.62 229.63L357.52 229.63L357.52 229.5L357.43 229.5L357.43 229.36L357.32 229.36L357.32 229.1L362.22 233.61L362.29 233.67L362.41 233.78L362.99 234.01L365.47 234.49L366.52 234.47L366.68 234.36L367.34 233.51L367.48 231.49L367.72 230.95L370.47 230.54L371.28 230L371.54 229.69L371.75 227.97L373.7 225.95L375.59 225.16L375.75 225.12L376.48 225.23L376.86 226.36L376.92 226.52L376.71 227.8L375.06 230.36L373.57 231.48L373.57 231.69L373.54 231.74L373.2 232.12L373.2 232.17L373.02 234.95L373.06 235.16L373.63 235.7L373.63 235.92L374.37 236.46L377.3 237.57L377.48 237.72L378.14 237.99L378.05 238.73L374.72 239.73L373.21 239.66L372.63 239.76L372.05 240.26L379.43 241.47L381.3 242.46L382.34 243.94L383.25 247.5L384.01 251.28L384.2 254.16L384.77 255.99L385.81 257.22L387.25 257.82L390.73 257.88L395.28 262.16L397.13 263.71L399.05 264.66L400.89 267.27L401.16 273.98L402.95 285.66L404.09 287.75L405.55 288.4L408.74 288.58L411.93 286.47L413.5 286.9L414.46 289.24L420.66 290.91L423.96 293.15L424.12 297.47L424.71 299.97L425.86 301.17L427.13 300.48L428.25 299.34L429.23 299.58L430.58 301.2L431.69 303.21L432.72 303.73L433.88 303.31L435.3 303.31L436.93 296.37L434.84 292.95L432.05 290.52L430.15 281.77L428.9 277.34L429.52 275.47L431.6 272.74L432.7 270.62L433.99 267L435.89 267.13L434.85 265.39L434.61 263.39L435.69 262.64L435.44 260.94L435.55 257.43L434.53 255.37L432.77 253.58L432.68 252.33L433.67 251.86L431.15 249.78L430.6 247.68L429.49 246.72L427.71 246.77L426.23 246.23L426.3 243.25L425.07 240.8L424.66 236.97L425.97 234.85L427.23 234.38L428.82 233.26L430.3 231.68L433.6 230.42L436.65 229.71L437.74 233.29L438.65 231.06L438.9 229.34L440.65 226.62L443.72 224.55L446.53 225.93L447.54 223.97L448.73 223.21L450.04 223.5L458.08 221.96L461.39 224.13L464.71 221.07L465.66 217.08L467.54 212.56L469.09 210.51L471.13 209.04L477.24 206.04L480.43 201.93L487.18 198.93L492.93 210.41L495.53 217.25L496.46 220.86L496.62 223.53L495.57 224.26L496.52 225.51L494.02 229.95L494.63 234.22L496.08 236.98L497.18 240.54L496.51 246.63L497.79 249.48L499.1 250.13L504.68 250.47L507.21 253.13L512.72 256.73L512.8 257.58L511.05 259.2L510.68 261.46L511.86 266.19L512.74 268.01L510.94 274.54L512.58 282.26L517 290.04L517.43 291.87L514.76 296.63L509.19 297.08L506.14 296.46L503.48 295.21L502.67 296.9L501.08 296.52L498.81 298.42L496.62 297.37L494.37 300.61L493 303.77L492.11 307L491.29 308.2L487.6 308.56L488.22 312.17L489.1 315.14L489.73 316.01L492.29 317.61L495.1 318.23L500.63 320.69L503.42 322.5L505.03 324.84L505.04 326.83L506.23 329.46L506.44 331.58L506.79 332.48L507.79 333.16L508.18 334.29L508.25 337.55L508.68 340.03L510.43 343.34L509.09 347.47L506.52 353.76L503.17 359.5L501.89 361.19L500.03 360.55L498.96 362.7L499.55 366.36L499.01 368.92L499.63 372.07L500.21 373.65L499.34 375.23L498.49 380.45L497.6 381.32L495.95 382.22L494.98 385.03L496.91 385.92L498.13 397.57L498.76 399.24L500.98 400.73L500.89 404.7L503.09 409.53L503.49 411.52L500.22 414.41L498.78 416.13L498.89 417.81L499.04 420.15L496.23 423.01L494.3 425.81L492.68 429.19L493.06 429.68L492.39 430.93L492.47 431.44L492.59 431.44L492.26 432.78L490.76 433.7L489.08 434.74L492.36 439.62L493.41 442.08L492.36 443.83L492.07 446.14L490.81 446.06L490.02 447.74L489.21 450.44L487.27 450.03L485.29 448.89L483.66 449.91L482.76 450.47L481.98 455.69L475.97 458.1L474.03 462.81L471.4 467.52L468.3 464.68L468.64 462.47L468.68 459.75L466.29 457.19L464.54 456.37L463.75 453.2L462.44 452.41L460.24 452.57L457.33 453.53L456.53 455.28L456.44 457.7L455.18 459L455.13 460.27L457.92 469.17L458.4 470.01L459.17 471.41L458.48 473.43L456.5 473.26L454.22 471.38L450.85 469.48L449.2 468.89L447.95 469.41L445.71 467.97L444.59 468.35L443.59 470.11L443.1 471.67L441.15 471.4L439.81 471.67L437.89 473.1L436.38 472.37L433.22 475.87L432.92 476.95L430.81 479.7L430.71 479.68L430.71 479.55L430.61 479.55L430.61 479.42L430.51 479.42L430.51 479.29L430.41 479.29L430.41 479.03L430.31 479.03L430.31 478.76L430.12 478.76L430.12 478.63L429.82 478.63L429.82 478.5L429.62 478.5L429.62 478.37L429.53 478.37L429.53 478.24L429.13 478.24L429.13 478.11L428.84 478.11L428.84 477.97L428.34 477.97L428.34 478.11L428.13 478.11L428.05 478.11L428.05 478.24L427.85 478.24L427.85 478.37L427.75 478.37L427.75 478.5L427.56 478.5L427.56 478.37L427.36 478.37L427.36 478.24L427.06 478.24L427.06 478.11L426.87 478.11L426.87 477.97L426.67 477.98L426.67 477.85L426.47 477.85L426.47 477.71L426.37 477.71L426.37 477.45L426.28 477.45L426.28 477.32L426.18 477.32L426.18 477.19L426.08 477.19L426.08 477.06L425.88 477.06L425.88 476.92L425.78 476.92L425.78 476.26L425.68 476.27L425.68 476.01L425.59 476.01L425.59 475.48L425.68 475.48L425.68 474.96L425.78 474.96L425.78 474.56L425.68 474.56L425.68 474.3L425.59 474.3L425.59 474.04L425.49 474.04L425.49 473.77L425.39 473.78L425.39 473.51L425.19 473.51L425.19 473.38L425.1 473.38L425.1 473.25L424.9 473.25L424.9 473.12L424.8 473.12L424.8 472.99L424.21 472.99L424.21 472.85L423.62 472.85L423.62 472.99L423.32 472.99L423.32 473.12L423.03 473.12L423.03 473.25L422.73 473.25L422.73 473.38L422.63 473.38L422.63 473.25L422.53 473.25L422.53 473.38L422.43 473.38L422.43 473.51L422.14 473.51L422.14 473.64L421.94 473.64L421.94 473.77L421.65 473.77L421.65 473.9L421.55 473.9L421.55 474.04L421.45 474.04L421.45 474.17L421.06 474.17L421.06 473.9L420.96 473.9L420.96 473.64L420.76 473.64L420.76 473.51L420.37 473.51L420.37 473.78L420.17 473.77L420.17 473.9L420.07 473.9L420.07 474.17L419.97 474.17L419.97 474.3L419.87 474.3L419.87 474.17L419.68 474.17L419.68 474.04L419.38 474.04L419.38 473.77L419.28 473.77L419.28 473.64L419.18 473.64L419.18 473.38L419.09 473.38L419.09 473.12L418.89 473.12L418.89 472.99L418.79 472.99L418.79 472.72L418.59 472.72L418.59 472.59L418.4 472.59L418.4 472.72L418.1 472.72L418.1 472.99L418 472.99L418 473.12L417.8 473.12L417.8 472.99L417.61 472.99L417.61 472.85L417.41 472.85L417.41 472.59L417.51 472.59L417.51 472.46L417.41 472.46L417.41 471.67L417.31 471.67L417.31 471.54L417.21 471.54L417.21 471.28L416.92 471.28L416.92 471.15L416.62 471.15L416.62 471.01L416.52 471.01L416.52 470.88L416.43 470.88L416.43 470.75L416.33 470.75L416.33 470.88L416.23 470.88L416.23 470.75L415.74 470.75L415.74 470.88L414.95 470.88L414.95 471.01L414.85 471.01L414.85 470.88L414.65 470.88L414.65 470.75L414.16 470.75L414.16 470.62L413.86 470.63L413.86 470.49L413.57 470.49L413.57 470.36L412.98 470.36L412.98 470.23L412.88 470.23L412.88 470.1L412.77 470.1L412.77 469.96L412.68 469.96L412.68 469.83L412.58 469.83L412.58 469.7L412.39 469.7L412.39 469.57L412.29 469.57L412.29 469.44L412.09 469.44L412.09 469.31L411.9 469.31L411.9 469.18L411.8 469.18L411.8 469.05L411.6 469.05L411.6 468.91L411.5 468.91L411.5 468.65L411.6 468.65L411.6 468.52L411.5 468.52L411.5 468.39L411.4 468.39L411.4 468.13L411.3 468.13L411.3 467.99L411.2 467.99L411.2 467.47L411.3 467.47L411.3 466.81L411.4 466.81L411.4 466.55L411.5 466.55L411.5 466.42L411.6 466.42L411.6 466.28L411.7 466.28L411.7 466.15L411.9 466.16L411.9 466.02L411.99 466.03L411.99 465.89L412.09 465.89L412.09 465.63L412.19 465.63L412.19 464.84L412.09 464.84L412.09 464.19L411.99 464.19L411.99 464.05L411.9 464.05L411.9 463.79L411.8 463.79L411.8 463.53L411.7 463.53L411.7 463.14L412.29 463.14L412.29 462.87L412.39 462.87L412.39 462.09L412.49 462.09L412.49 461.82L412.58 461.82L412.58 461.69L412.68 461.69L412.68 461.43L412.77 461.43L412.77 461.03L412.68 461.03L412.68 460.24L412.59 460.25L412.59 459.59L412.49 459.59L412.49 459.19L412.39 459.2L412.39 458.93L412.29 458.93L412.29 458.8L412.19 458.8L412.19 458.67L412.09 458.67L412.09 458.54L411.99 458.54L411.99 458.41L411.9 458.41L411.9 458.28L411.8 458.28L411.8 458.15L411.7 458.15L411.7 458.01L411.6 458.01L411.6 457.88L411.5 457.88L411.5 457.35L411.6 457.36L411.6 457.1L411.7 457.1L411.7 456.83L411.8 456.83L411.8 456.7L411.99 456.7L411.99 456.44L412.09 456.44L412.09 456.31L412.19 456.31L412.19 456.17L412.29 456.17L412.29 455.91L412.19 455.91L412.19 455.65L412.09 455.65L412.09 455.52L411.99 455.52L411.99 455.39L411.6 455.39L411.6 455.26L411.5 455.26L411.5 454.86L411.6 454.86L411.6 454.99L411.8 454.99L411.8 454.73L411.7 454.73L411.7 454.6L411.6 454.6L411.6 454.33L411.7 454.34L411.7 454.2L411.9 454.2L411.9 454.07L412.68 454.07L412.68 453.94L412.98 453.94L412.98 453.81L413.18 453.81L413.18 453.68L413.08 453.68L413.08 453.54L412.88 453.54L412.88 453.42L412.77 453.42L412.77 453.28L412.68 453.28L412.68 453.15L412.78 453.15L412.78 452.89L412.88 452.89L412.88 452.63L412.98 452.63L412.98 452.1L413.08 452.1L413.08 451.84L413.18 451.84L413.18 451.58L413.28 451.58L413.28 451.32L413.37 451.32L413.37 451.05L413.47 451.05L413.47 450.66L413.77 450.66L413.77 450.53L414.45 450.53L414.45 450.66L414.65 450.66L414.65 450.53L415.24 450.53L415.24 450.13L415.14 450.13L415.14 450L415.05 450L415.05 449.87L414.85 449.87L414.85 449.74L414.65 449.74L414.65 449.61L414.26 449.61L414.26 449.74L414.16 449.74L414.16 449.87L413.96 449.87L413.96 450L413.87 450L413.87 450.13L413.57 450.13L413.57 449.74L413.67 449.74L413.67 449.21L413.57 449.21L413.57 448.95L413.47 448.95L413.47 448.56L413.37 448.56L413.37 448.3L413.28 448.3L413.28 447.9L413.18 447.9L413.18 447.64L413.08 447.64L413.08 447.24L412.98 447.24L412.98 446.85L412.88 446.85L412.88 446.59L412.77 446.59L412.77 446.19ZM347.48 237.5L347.48 237.24L348.16 237.24L348.16 237.38L348.56 237.38L348.56 237.77L348.66 237.77L348.66 238.16L348.56 238.16L348.56 239.21L348.46 239.21L348.46 239.34L348.56 239.34L348.56 239.48L348.46 239.48L348.46 239.61L347.77 239.61L347.77 239.74L347.58 239.74L347.58 239.61L347.48 239.61L347.48 239.48L347.38 239.48L347.38 239.21L347.28 239.21L347.28 239.08L347.18 239.08L347.18 238.82L347.08 238.82L347.08 238.43L347.18 238.43L347.18 237.9L347.28 237.9L347.28 237.5L347.48 237.5ZM357.32 229.1L357.13 229.1L357.13 228.92L357.32 229.1ZM318.22 262.33L318.22 262.2L318.91 262.2L318.91 262.33L319.11 262.33L319.11 262.46L319.3 262.46L319.3 262.59L319.4 262.59L319.4 262.72L319.5 262.72L319.5 262.85L319.6 262.85L319.6 262.99L319.7 262.98L319.7 263.12L319.8 263.12L319.8 263.25L319.9 263.25L319.9 263.77L320 263.77L319.99 264.17L319.89 264.17L319.89 264.3L319.8 264.3L319.8 264.43L319.6 264.43L319.6 264.56L319.5 264.56L319.5 264.69L319.41 264.69L319.41 265.09L319.3 265.09L319.3 265.22L319.41 265.22L319.41 265.35L319.3 265.35L319.3 265.48L319.01 265.48L319.01 265.61L318.71 265.61L318.71 265.48L318.32 265.48L318.32 265.35L318.22 265.35L318.22 264.96L318.32 264.96L318.32 264.69L318.22 264.69L318.22 264.56L318.13 264.56L318.13 264.43L317.73 264.43L317.73 264.56L317.44 264.56L317.44 264.69L317.24 264.69L317.24 264.82L316.94 264.82L316.94 264.96L316.84 264.96L316.84 264.82L316.06 264.82L316.06 264.69L315.86 264.69L315.86 264.82L315.56 264.82L315.56 264.96L315.27 264.96L315.27 264.82L315.07 264.82L315.07 264.69L314.78 264.69L314.78 264.56L314.58 264.56L314.58 264.43L314.28 264.43L314.28 264.3L313.89 264.3L313.89 264.43L313.79 264.43L313.79 264.56L313.69 264.56L313.69 264.69L313.5 264.69L313.5 264.82L313.3 264.82L313.3 264.96L312.9 264.96L312.9 264.82L312.71 264.82L312.71 264.69L312.31 264.69L312.31 264.56L312.12 264.56L312.12 264.43L312.02 264.43L312.02 264.3L311.82 264.3L311.82 264.17L311.62 264.17L311.62 264.03L311.52 264.04L311.52 263.9L311.43 263.91L311.43 262.98L311.52 262.99L311.52 262.85L311.62 262.85L311.62 262.72L311.82 262.72L311.82 262.59L311.92 262.59L311.92 262.46L312.21 262.46L312.21 262.59L312.41 262.59L312.41 262.72L312.61 262.72L312.61 262.85L312.71 262.85L312.71 262.99L312.8 262.98L312.8 263.12L312.9 263.12L312.9 263.25L313 263.25L313 263.38L313.1 263.38L313.1 263.64L313.2 263.64L313.2 263.77L313.59 263.77L313.59 263.64L313.98 263.64L313.98 263.51L314.58 263.51L314.58 263.64L314.68 263.64L314.68 263.51L315.17 263.51L315.17 263.38L315.47 263.38L315.47 263.25L315.76 263.25L315.76 263.12L316.15 263.12L316.15 262.98L316.35 262.99L316.35 262.85L317.34 262.85L317.34 262.72L317.53 262.72L317.53 262.59L317.82 262.59L317.82 262.46L318.02 262.46L318.02 262.33L318.22 262.33ZM323.44 251.3L323.44 251.16L324.13 251.16L324.13 251.3L324.43 251.3L324.43 251.43L324.82 251.43L324.82 251.56L325.12 251.56L325.12 251.82L325.02 251.82L325.02 252.74L324.92 252.74L324.92 253.4L324.82 253.4L324.82 253.53L324.72 253.53L324.72 253.66L324.63 253.66L324.63 253.79L324.53 253.79L324.53 253.92L324.43 253.92L324.43 254.19L324.13 254.19L324.13 254.31L324.03 254.31L324.03 254.19L323.84 254.19L323.84 254.05L323.64 254.05L323.64 253.92L323.54 253.92L323.54 253.79L323.44 253.79L323.44 253.66L323.34 253.66L323.34 253.53L323.25 253.53L323.25 253.4L323.15 253.4L323.15 253.27L322.85 253.27L322.85 253L322.75 253L322.75 252.21L322.85 252.21L322.85 251.82L322.95 251.82L322.95 251.56L323.05 251.56L323.05 251.43L323.25 251.43L323.25 251.3L323.44 251.3Z" />
	<path id="Layer" class="shp1" d="M790 261.5L800 261.5L800 271.5L790 271.5L790 261.5Z" />
	<path id="Layer" class="shp1" d="" />
	<path id="North Goa" fill="#000000" aria-label="North Goa"  d="M373.31 191L373.31 181.52L375.04 181.52L379.24 189.45L379.24 181.52L380.49 181.52L380.49 191L378.76 191L374.56 183.07L374.56 191L373.31 191ZM385.74 184.71Q384.8 184.71 384.26 185.45Q383.71 186.18 383.71 187.45Q383.71 188.73 384.25 189.46Q384.8 190.19 385.74 190.19Q386.68 190.19 387.22 189.46Q387.77 188.72 387.77 187.45Q387.77 186.19 387.22 185.45Q386.68 184.71 385.74 184.71ZM385.74 183.72Q387.27 183.72 388.14 184.71Q389.01 185.7 389.01 187.45Q389.01 189.2 388.14 190.19Q387.27 191.18 385.74 191.18Q384.21 191.18 383.34 190.19Q382.48 189.2 382.48 187.45Q382.48 185.7 383.34 184.71Q384.21 183.72 385.74 183.72ZM395.05 183.78L395.06 184.98Q394.86 184.87 394.63 184.82Q394.4 184.76 394.12 184.76Q393.13 184.76 392.6 185.41Q392.07 186.05 392.07 187.25L392.07 191L390.9 191L390.9 183.89L392.07 183.89L392.07 185Q392.44 184.35 393.03 184.04Q393.62 183.72 394.46 183.72Q394.59 183.72 394.73 183.74Q394.88 183.75 395.05 183.78ZM396.27 181.87L397.44 181.87L397.44 183.89L399.85 183.89L399.85 184.8L397.44 184.8L397.44 188.66Q397.44 189.53 397.68 189.77Q397.92 190.02 398.65 190.02L399.85 190.02L399.85 191L398.65 191Q397.3 191 396.78 190.5Q396.27 189.99 396.27 188.66L396.27 184.8L395.41 184.8L395.41 183.89L396.27 183.89L396.27 181.87ZM407.29 186.71L407.29 191L406.13 191L406.13 186.75Q406.13 185.74 405.73 185.24Q405.34 184.73 404.55 184.73Q403.61 184.73 403.06 185.34Q402.51 185.94 402.51 186.98L402.51 191L401.34 191L401.34 181.12L402.51 181.12L402.51 185Q402.93 184.35 403.5 184.04Q404.07 183.72 404.81 183.72Q406.04 183.72 406.66 184.48Q407.29 185.24 407.29 186.71ZM420.27 189.65L420.27 187.1L418.17 187.1L418.17 186.05L421.54 186.05L421.54 190.12Q420.79 190.64 419.9 190.92Q419 191.18 417.99 191.18Q415.77 191.18 414.51 189.89Q413.26 188.59 413.26 186.27Q413.26 183.95 414.51 182.65Q415.77 181.35 417.99 181.35Q418.92 181.35 419.75 181.58Q420.59 181.81 421.29 182.25L421.29 183.62Q420.58 183.01 419.78 182.71Q418.98 182.41 418.1 182.41Q416.36 182.41 415.48 183.38Q414.61 184.35 414.61 186.27Q414.61 188.19 415.48 189.16Q416.36 190.13 418.1 190.13Q418.78 190.13 419.31 190.02Q419.84 189.9 420.27 189.65ZM426.58 184.71Q425.64 184.71 425.1 185.45Q424.55 186.18 424.55 187.45Q424.55 188.73 425.09 189.46Q425.64 190.19 426.58 190.19Q427.52 190.19 428.06 189.46Q428.61 188.72 428.61 187.45Q428.61 186.19 428.06 185.45Q427.52 184.71 426.58 184.71ZM426.58 183.72Q428.11 183.72 428.98 184.71Q429.85 185.7 429.85 187.45Q429.85 189.2 428.98 190.19Q428.11 191.18 426.58 191.18Q425.05 191.18 424.18 190.19Q423.32 189.2 423.32 187.45Q423.32 185.7 424.18 184.71Q425.05 183.72 426.58 183.72ZM436.18 187.43L435.01 187.43Q433.6 187.43 433.05 187.75Q432.51 188.07 432.51 188.85Q432.51 189.48 432.91 189.84Q433.32 190.21 434.03 190.21Q435 190.21 435.58 189.52Q436.18 188.83 436.18 187.69L436.18 187.43ZM437.34 186.94L437.34 191L436.18 191L436.18 189.92Q435.78 190.57 435.18 190.88Q434.58 191.18 433.72 191.18Q432.63 191.18 431.98 190.57Q431.34 189.96 431.34 188.93Q431.34 187.73 432.14 187.12Q432.94 186.51 434.54 186.51L436.18 186.51L436.18 186.4Q436.18 185.59 435.64 185.15Q435.11 184.71 434.16 184.71Q433.55 184.71 432.97 184.86Q432.39 185 431.86 185.29L431.86 184.21Q432.5 183.97 433.1 183.85Q433.71 183.72 434.28 183.72Q435.82 183.72 436.58 184.52Q437.34 185.32 437.34 186.94Z" />
	<path id="South Goa" fill="#000000" aria-label="South Goa"  d="M416.5 352.83L416.5 354.08Q415.77 353.74 415.12 353.56Q414.48 353.39 413.87 353.39Q412.83 353.39 412.25 353.8Q411.69 354.21 411.69 354.95Q411.69 355.58 412.06 355.91Q412.45 356.22 413.5 356.42L414.27 356.58Q415.71 356.85 416.39 357.54Q417.07 358.23 417.07 359.38Q417.07 360.76 416.15 361.47Q415.23 362.18 413.44 362.18Q412.77 362.18 412.01 362.03Q411.25 361.88 410.44 361.58L410.44 360.26Q411.22 360.7 411.97 360.92Q412.72 361.14 413.44 361.14Q414.54 361.14 415.14 360.71Q415.73 360.28 415.73 359.48Q415.73 358.78 415.3 358.39Q414.88 357.99 413.9 357.8L413.12 357.65Q411.68 357.36 411.04 356.75Q410.4 356.14 410.4 355.06Q410.4 353.8 411.28 353.08Q412.17 352.35 413.73 352.35Q414.39 352.35 415.09 352.47Q415.78 352.59 416.5 352.83ZM421.78 355.71Q420.84 355.71 420.29 356.45Q419.74 357.18 419.74 358.45Q419.74 359.73 420.28 360.46Q420.83 361.19 421.78 361.19Q422.71 361.19 423.26 360.46Q423.8 359.72 423.8 358.45Q423.8 357.19 423.26 356.45Q422.71 355.71 421.78 355.71ZM421.78 354.72Q423.3 354.72 424.17 355.71Q425.04 356.7 425.04 358.45Q425.04 360.2 424.17 361.19Q423.3 362.18 421.78 362.18Q420.25 362.18 419.38 361.19Q418.51 360.2 418.51 358.45Q418.51 356.7 419.38 355.71Q420.25 354.72 421.78 354.72ZM426.85 359.19L426.85 354.89L428.02 354.89L428.02 359.15Q428.02 360.16 428.42 360.67Q428.81 361.17 429.6 361.17Q430.54 361.17 431.09 360.57Q431.64 359.96 431.64 358.92L431.64 354.89L432.81 354.89L432.81 362L431.64 362L431.64 360.91Q431.22 361.56 430.65 361.87Q430.09 362.18 429.35 362.18Q428.12 362.18 427.49 361.42Q426.85 360.66 426.85 359.19ZM429.79 354.72L429.79 354.72ZM435.2 352.87L436.37 352.87L436.37 354.89L438.78 354.89L438.78 355.8L436.37 355.8L436.37 359.66Q436.37 360.53 436.6 360.77Q436.85 361.02 437.58 361.02L438.78 361.02L438.78 362L437.58 362Q436.22 362 435.71 361.5Q435.2 360.99 435.2 359.66L435.2 355.8L434.34 355.8L434.34 354.89L435.2 354.89L435.2 352.87ZM446.22 357.71L446.22 362L445.05 362L445.05 357.75Q445.05 356.74 444.66 356.24Q444.27 355.73 443.48 355.73Q442.53 355.73 441.99 356.34Q441.44 356.94 441.44 357.98L441.44 362L440.27 362L440.27 352.12L441.44 352.12L441.44 356Q441.86 355.35 442.43 355.04Q443 354.72 443.74 354.72Q444.96 354.72 445.59 355.48Q446.22 356.24 446.22 357.71ZM459.2 360.65L459.2 358.1L457.1 358.1L457.1 357.05L460.47 357.05L460.47 361.12Q459.72 361.64 458.83 361.92Q457.93 362.18 456.92 362.18Q454.7 362.18 453.44 360.89Q452.19 359.59 452.19 357.27Q452.19 354.95 453.44 353.65Q454.7 352.35 456.92 352.35Q457.84 352.35 458.68 352.58Q459.51 352.81 460.22 353.25L460.22 354.62Q459.51 354.01 458.71 353.71Q457.91 353.41 457.02 353.41Q455.29 353.41 454.41 354.38Q453.54 355.35 453.54 357.27Q453.54 359.19 454.41 360.16Q455.29 361.13 457.02 361.13Q457.7 361.13 458.24 361.02Q458.77 360.9 459.2 360.65ZM465.51 355.71Q464.57 355.71 464.03 356.45Q463.48 357.18 463.48 358.45Q463.48 359.73 464.02 360.46Q464.57 361.19 465.51 361.19Q466.44 361.19 466.99 360.46Q467.54 359.72 467.54 358.45Q467.54 357.19 466.99 356.45Q466.44 355.71 465.51 355.71ZM465.51 354.72Q467.04 354.72 467.9 355.71Q468.77 356.7 468.77 358.45Q468.77 360.2 467.9 361.19Q467.04 362.18 465.51 362.18Q463.98 362.18 463.11 361.19Q462.25 360.2 462.25 358.45Q462.25 356.7 463.11 355.71Q463.98 354.72 465.51 354.72ZM475.1 358.43L473.94 358.43Q472.53 358.43 471.98 358.75Q471.43 359.07 471.43 359.85Q471.43 360.48 471.84 360.84Q472.25 361.21 472.96 361.21Q473.93 361.21 474.51 360.52Q475.1 359.83 475.1 358.69L475.1 358.43ZM476.27 357.94L476.27 362L475.1 362L475.1 360.92Q474.7 361.57 474.11 361.88Q473.51 362.18 472.65 362.18Q471.55 362.18 470.91 361.57Q470.27 360.96 470.27 359.93Q470.27 358.73 471.07 358.12Q471.87 357.51 473.47 357.51L475.1 357.51L475.1 357.4Q475.1 356.59 474.57 356.15Q474.04 355.71 473.08 355.71Q472.47 355.71 471.9 355.86Q471.32 356 470.79 356.29L470.79 355.21Q471.43 354.97 472.03 354.85Q472.63 354.72 473.2 354.72Q474.75 354.72 475.51 355.52Q476.27 356.32 476.27 357.94Z" />
</svg>