<?xml version="1.0" encoding="utf-8"?>
<!-- Generator: Adobe Illustrator 25.1.0, SVG Export Plug-In . SVG Version: 6.00 Build 0)  -->
<svg version="1.1" id="Himachal_Pradesh" xmlns="http://www.w3.org/2000/svg" xmlns:xlink="http://www.w3.org/1999/xlink" x="0px"
	 y="0px" viewBox="0 0 800 534" style="enable-background:new 0 0 800 534;" xml:space="preserve">
<style type="text/css">
	.st0{fill-opacity:0;stroke:#000000;stroke-width:0.4;stroke-miterlimit:10.5;}
	.st1{fill:none;}
	.st2{font-family:'Tahoma';}
	.st3{font-size:12px;}
	.st4{font-size:13px;}
</style>
<path id="Bilaspur" class="st0" d="M350,338.2L350,338.2l0,0.7l0.2,0.6l0.5,0.9l-0.7,1.4l0.5,0.6l1.7,1.3l1.1,0.5l1-0.1l0.8,0.4
	l0.4,1.6l0.6,0.2l-0.9,2l-0.5,0.8l-0.7,0.5l-0.7,0.1l-0.7,0.3l-0.3,0.7l0.4,0.9l-0.3,0.5l-0.8-0.2l-0.9,0.5l-0.7,0.1l-0.5,0.8
	l-0.6,1.7l0.4,0l0.5,1.7l1.1,1.8l-1.1,0.8l-1.5,0l-1.3-0.8l-0.6-0.9l-0.8-0.3l-0.8,0.9l-0.5,0l-0.1,0.1l-0.8-0.5l-0.6,0l-0.6-0.3
	l-1,0.6l-2.3,0.9l-0.5-1l-0.8-0.2l-1.2-0.1l-1-0.7l-0.4-0.5l-0.8-0.5l-0.6-0.1l-0.5,0.9l-0.7,0.6l-1.1,0.6l-0.9,0.4l-0.7,0.4
	l-0.7,0.6l-2.6,0.3l-0.9,0.5l-1.7,0.4l-0.1-0.4l-1.1-0.9l0.2-0.9l-1.1-0.4l-3.5,2.1l-0.7,0l-0.1-0.6l-0.4-0.8l0.8-0.8l0.3-1.4l0.9-1
	l1-0.7l-3.6-4.6l-2.1,2.4l-0.7,1.4l-1.3,0.1l-0.3-1.7l0.3-0.9l0.3-1.8l-0.7,0.1l-0.4,2.1l-1.1,1.2l-0.4-0.3l0.3-2l-0.3-0.9L309,350
	l-0.9,0.7l-0.6,0.7l-1.1,0l-0.6-1.7l-0.4-0.8l-0.5-0.5l-0.1-1.1l-0.3-1.2l-0.7-0.5l-0.5,0.5l-1.3,1.7l-0.6,1l-1.7,1.1l-0.3-1
	l0.9-0.8l1.1-0.9l0.3-0.9l-1.3-1.8l-1.1-1.2l-1.2-1.9l-0.6-1.6l-0.5-1l-1.1-1.8l-1-2.1l-1.4-2l1.3-1l-1-2.1l0.1-0.8l-0.1-1.4
	l0.4-0.8l2.2,2.2l2.1,0.2l0.8-0.5l0.9-0.3l1.3-0.9l0.8-0.3l0.4,0l0.2,0l0.2-1l0-1.5l0.6-0.3l-0.1-0.5l-0.8,0.1l-0.8-0.3l0.2-0.4
	l0.5-1.5l-1.4-2.3l-0.7-1.6l0.7-0.5l0.6,0.3l0.4,0.5l2,1.5l0.9,0.2l0.9,0l1.5,1.4l0.5-1.2l0.9,1.1l0.8-0.1l0.2,1.1l2.3,2l0.4,0.5
	l0.4,1.5l1.4-0.4l2,1.5l0.4-0.6l1,0.5l0.7,0.2l0.7,0.4l0.4-0.8l-0.2-1.2l1.1-1.2l0.2-1l-2-3.8l-0.3-3.2l1.3-3.8l0-0.9l0.2-1.2
	l-0.5-0.7l0-1.1l-0.3-1.2l0.6-1.6l-0.3-1.3l0.6-1.2l0.1,0l1.1-0.3l1.4-1.8l1.2,0.5l1.3,0.2l0.7-0.4l0.9-0.3l0.5-0.9l2.4-0.9l2.8,1.8
	l0.1,0.3l0.2,0.5l0,1.4l-0.3,1.4l0.8,0.2l-0.7,1.1l0.1,1.4l0.7,1.1l-0.2,1.1l0.6,1.2l-0.3,0.4l-0.5,0.4l0.9,0.3l0.7-0.2l1.9-0.1
	l0.5-0.1l0.6,0.6l1.5,2.1l0.1,0.2l0.3,1.1l-0.4,1.6l0.7,0.7l0.7,0.5l0.1,1.8l0.5,1.2l0.1,0.8l-0.6,0l-0.2,0.9l0.8,0.8l0.2,1.2
	l-0.3,1l0.1,0.6l0.9-0.2l0.5,0.5l0.9,0.3l0.4-0.4l0.7-0.2l1.4,0.9l1.6,0.5l1.2,0l1.3,0.2l0.3,1.7l0.1,2l-0.8,0.5l-0.9,0.1l-0.5,0.6
	l0.7,1l0.6,1.2l-0.2,1L350,338.2z"/>
<path id="Chamba" class="st0" d="M273,177.2l-0.4,1l-0.7,1.4l-0.7,0.8l-0.8,0.8l-1,0.6L268,183l-1.3,0.5l0.4,0.4l0.1,0.8l0.3,0.9
	l-0.1,0.4l-0.4,0.8l-0.1,1l-0.3,0.6l-0.6,0.7l0.3,0.8l0,2.3l0.5,1.5l0.1,0.8l0.6,0.5l1,0.5l0.6,0.6l0.1,0.9l-0.3,1.6l-0.5,1.7l0.4,2
	l-0.3,0.8l-0.6,0.4l-0.4,0l-0.1-0.9l-0.5-1l-1.1,1l-1,0.5l-0.8,0.3l-1.3-0.5l-0.7,0l-0.4,0l0.3-1.1l-0.2-1.1l0.1-1.5l-0.5-0.8
	l-1.1-0.3l-1.2-0.8l-0.7-0.8l-0.8-0.4l-1,0l-0.7,0.4l-2.9,0.7l-0.7-0.7l-1.2-0.2l-0.5-1.3l-1.1-1.9l0-1.3l0.3-0.7l0.2-1.4l0.3-1
	l0-0.4l-0.9,0.4l0.3-1l0.4-0.9l-0.3-1.1l-1.7-2.5l-0.6-1.5l-1-1.9l-1.4-1.5l-0.6-0.9l-0.8-0.2l-1,0.3l-1.4-0.3L240,177l-0.3-0.8
	l-0.9-1.3l0.5-0.2l1.2-0.2l0.7-0.8l0.3-1.2l-0.4-0.9l-0.8-1.3l-1-1.5l-2.4-2.1l-1-1.6l-2.2-2.6l-1.6-1.7l-0.5-1.3l0-2.1l0.6-2.6
	l1.6-3.3l0.6-1.9l-0.3-0.8l1.6-2.5l2.1-3.6l0.4-0.6l1.9-3.8l0.2-1.7l-0.2-0.6l-1.1-1.2l-1.1-1l-0.8-1.3l-0.3-1.6l0.3-1.4l0.7-1.4
	l0.6-1.8l0.5-3.3l-0.2-2.4l-1.5-2l-1.7-4l-1.4-2.8l-2.2-1.9l-2.1-1.7l-1.2-0.6l-0.8-0.4l-0.6-0.7l-0.9-1l-0.3-0.5l-1.2-2l-0.1-0.1
	l-0.6-1.8l-0.1-0.5l-0.2-1.4l0.3-0.1l0.5-0.5l0.5-0.8l0.2-0.3l0.2-1l-0.4-1.4l0.6-0.6l0.5-1l1.6-0.6L229,93l0.7-0.1l1.9,0.5l2,0.1
	l1.6,0.8l2.3,1.4l1.6,1.5l1.1,1.3l1.2,2.2l0.7,0l0.7-0.1l4.4-2.4l0.5,0l1.2-1.4l0.8-0.7l1-0.3l0.4-0.3l0.5-1.1l0.3-1.1l0.5-0.9
	l1.7-0.4l0.9-0.6l0.5-1l1.3-1.1l0.5-0.7l1-0.6l0.5-0.4l0.4-1l0.7-2.8l0.4-1.2l-0.1-0.7l1.6-0.5l1-0.1l0.5-0.3l0.9,0.1l1.8-1l1-1
	l4.2-0.7l3.3-0.2l1.6-0.3l0-0.1l0.9-0.3l2.1-3.1l1.4-5.3l0.4-1.6l0.5-0.3l0.1-0.4l-0.2-0.5l1.5-1.4l0.5-1.1l1.8-1.1l1-0.5l2.3-2.5
	l1.9-1.3l0.4,0l0.4-0.5l0.2-0.8l0.6-0.8l0.9-0.8l0.7-0.5l0.6-1l0.8-0.6l1.1,0l0.8-0.3l1.7,1l0.9-0.2l1.4,0.4l1-0.4l0.6-0.1l1.2,0.5
	l0.3,0l2.3-1.6l0.8-0.9l0.3-0.1l0.8,0.1l1.7-0.7l1.6,0.2l0.9-1.2l0.6-0.4l1,0.4l0.8,0.1l0.5-0.1l1.1,0.2l0.6-0.2l0.5,0.4l-0.2,0.7
	l-0.1,1L318,53l0.5-0.1l0.6,0.4l0.2,0.6l0,1.2l0.1,0.4l1.5,1.2l1.7,0.5l1.6-0.3l1.2-1.1l0.9,0.1l0.1,0l0.1,0l1-0.3l1.9-0.1l1-0.6
	l0.4-0.6l1.4,0l0.7,0.6l1.8-0.3l-0.1,3.1l-0.3,0.6l0.5,0.9l0.1,1.4l-0.1,1.5l-0.2,0.8l-0.6,0.7l0,0.9l-0.4,1.3l-0.3,1.5l0.2,1.1
	l-0.2,1.1l0.2,1.2l0.7,1.8l0.2,1.7l1.1,1.4l-0.2,0.9l0.4,0.3l-0.1,1.8l0.7,1.1l0.7,0.1l0.8,0.5l-0.3,0.8l0.2,1.2l-0.1,0.3l0.1,1
	l0.7,0.2l0.6,0.4l0.2,0.3l-0.8,0.7l-0.4,0.5l0.4,2l0,1.1l0.7-0.1l0.7,0.1l-1.6,2.4l-0.4,1.2l-0.6,0.2l-0.3,0.4l-0.3,0.6l-2.2,0.6
	l-3,0.5l-0.1,1.4l0,3.6l-1.8,1.4l-0.5,0.5l-0.2,1.1l-0.7,1.1l-0.6,1.6l-0.7,0.4l-0.9,0.9l-0.8-0.1l-0.9-0.4l-1.1,0.7l-0.9,0.4
	l-1.2-0.2l-0.8-0.8l-0.6-0.8l-0.6-0.2l-1,0.9l-1.5,1.7l-1.8,1.5L313,110l-1,1.1l-0.9,0.7l-1.2,0.2l-1.1,0.8l-1.6,0.6l-4.7-0.3
	l-0.4-1.1l0.1-1.3l-0.7-0.8l-0.9-3.2l-0.2-0.9l-1.4-0.3l-1.2,0.4l-1.8,0.9l-0.9,0.6l-0.6,0.8l-0.7,1.2l-0.7,0.9l-1.2,0.3l-0.7,0.3
	l-0.2,1.5l0,2l1.1,0.7l0.2,1.2l-0.3,1.5l2.2,5.8v1.6l1.7,1.3l0.9,1.1l0.4,1l0.2,1.1l-0.2,1.1l-0.3,0.5l0.5,0.8l0.6,0.7l0.4,0.3
	l0.8,0.3l-0.4,2.3l1.1,0.7l1.5,0.3l3.3-1.5l1.4-0.5l1.5-0.3l0.6,0.2l1,1.3l1,0.3l1.3-0.4l3,1.4l2.1,1.1l0.4,1.8l0.8,0.8l0,1.3
	l0.1,1.1l0.5,0.6l0.8,0.3l1.8,0.2l-0.3,0.8l-0.5,1.9l0.1,1.2l0.5,0.7l1.1-0.3l1.2-0.7l2.3,1.3l1.3,0.4l1.1-0.1l1.9-0.4l0.5,0.6
	l-0.1,1.3L330,152l-0.7,1.2l0.7,0.4l0.9,0.8l1.2-2.2l0.8-0.5l0.9-0.9l0.8,0.4l0.8,0.1l0.5-0.1l1.2,1.7l0.6-0.5l1.1-0.3l1.3,1.3
	l0.4,1.1l0.8,0.5l0.8,0.1l0.7-0.2l0.8-0.4l0.7-0.1l0.3,1.2l1.1,0.7l1.1-0.4l0.9-0.5l1.1-0.2l0.9,0.3l-0.2,0.7l0.3,0.9l1.1,0.3
	l-0.4,0.4l-0.4,1.1l-0.7,0.9l-0.6,1.2l-0.3,1l-0.7,1l-0.4,1l0.2,1.1l0.4,0.8l0.7,0.5l-0.9,0.8l-1.2,1.3l-1.4,1l-1.3,0.7l-1.2,1.5
	l-0.3,1.4l-1,1l-1.9,0.9l-0.2,2.5l0.1,1.3l0.3,1.1l-0.6,0.8l-0.5,1.1l-0.6,0.4l-1.7-0.1l-0.6,0.3l0.4,1l0.7,1l1.1,0.9l0.5,1l0.2,0.9
	l0.8,1.6l-0.6,0.6l-1,0.6l0.3,1.2l0.1,1.5l-0.6,1.5l1.1,2.1l-0.5,1l-0.7,1.2l0.1,0.6l0.8,0.3l-0.8,0.9l0.2,2.4l-0.2,0.9l-0.6,1.1
	l-0.7,1.1l-0.7,0.6l-1.7,2.3l-0.3,0.2l-1-0.5l-0.9-0.7l-0.9-0.5l-0.5,0l-1.3,0.3l-0.6,1.1l-0.6,0.7l-0.6,0.9l-1.1,0.1l-0.9-0.2
	l-0.8-0.5l-4-1.4l-1.3-1l-0.7-1.2l-1-1.2l-1.1-1l-2.1-0.7l-0.9,0.1l-0.9-0.6l-1,0.1l-2.6-0.7l-0.2-0.7l-1.3,0.8l-1.1-0.1l-1.2-1.6
	l-0.6-0.4l-0.8-1l-0.7,0.6l-0.7,0l-0.7-0.1l-0.6-1l-1-1.1l-1.1-0.6l-0.9,0.4l-1-0.2l-0.6-2.4l-1.5-0.4l-3.3-2.2l-0.7-0.8l-1.1-2.3
	l-0.9-1.5l-0.9,0.1l-1.1-0.1l-0.9-1l-0.6-0.5l-1-0.2l-0.9-0.4l-0.9,0.4l-0.8-0.4l-0.9-2.6l-0.1-1.1l-0.3-0.7l-1-1l-0.2-0.2l-0.8,0.3
	l-0.6-0.9l-0.3-2.1l-0.6-0.2l-1.4,0.1l-2.3-0.3L273,177.2z"/>
<path id="Hamirpur" class="st0" d="M301.2,318.8l-1.6-2.7l-0.7-1.7l-0.4-1.3l0.2-0.4l-0.1-0.4l0.3-1.5l-0.4-0.6l-0.4-0.8l-2.9-7
	l-0.9-3.2l-0.5-0.5l-0.2-0.2l0.1-0.8l-1.9-2.2l-1.2-0.9l-1.2-1.8l-0.6-1.9l-0.9-1.7l-1-1.2l-0.9-1.9l-1-2.7l-0.6-0.9l-0.1-0.5
	l0.4-0.7l0.3-0.8l-0.4-0.4l0-1l-0.4-0.4l-0.3-0.9l0.1-1.2l-0.4-0.3l0.3-1l0.3-0.7l-1.2-1.2l-0.2-1l0-0.8l0.4,0.1l0.3,0.8l0.2,0.3
	l0.7,0.3l0.8-0.1l2-0.9l1.7-1.4l0.5,0.3l0.7,0.8l0.6,0.7l0.3,0.6l1.4-0.5l1.3-1.9l0.7-0.7l1,1l0.5,1l0.2-1.8l1.9,0.2l0.7-0.4
	l0.4-2.1l0.7,0l-0.1,1.1l0.7,0l1.3-0.3l-0.7-1.4l0.4-0.7l0.7,0.4l0.4,0.8l0.6-0.1l0.1-0.9l-0.9-1.7l0.3-0.3l0.4-0.2l0.7-0.2l2.4-1.2
	l2.4-0.7l0.1-1.1l-0.5-1l0-0.2l0.8-0.9l1.7-1.1l1.7-1.7l1.9-1.2l2.8-1l1.6,0.3l4.1,3l-0.5,0.9l-0.3,2.7l-0.7,1.3l-0.1,1.2l0.1,1.5
	l-0.1,1.4l-0.7,4.1l0.5,2.3l0.5,1.1l0.9,2.9l1.3,1.1l0.3,0.1l0.9,0.3l1,0.2l0.9,1l-0.2,1.6l0.4,1.1l1.5,0.9l-0.2,1.2l0.6,0.6l0,0.6
	l0.2,1.8l2.9,1.6l1.1,1.1l-0.4,1.2l-1,4.2l0.1,1.5l0.9,2.2l0.6,2.2l0.1,1.2l-0.1-0.3l-2.8-1.8l-2.4,0.9l-0.5,0.9l-0.9,0.3l-0.7,0.4
	l-1.3-0.2l-1.2-0.5l-1.4,1.8l-1.1,0.3l-0.1,0l-0.6,1.2l0.3,1.3l-0.6,1.6l0.3,1.2l0,1.1l0.5,0.7l-0.2,1.2l0,0.9l-1.3,3.8l0.3,3.2
	l2,3.8l-0.2,1l-1.1,1.2l0.2,1.2l-0.4,0.8l-0.7-0.4l-0.7-0.2l-1-0.5l-0.4,0.6l-2-1.5l-1.4,0.4l-0.4-1.5l-0.4-0.5l-2.3-2l-0.2-1.1
	l-0.8,0.1l-0.9-1.1l-0.5,1.2l-1.5-1.4l-0.9,0l-0.9-0.2l-2-1.5l-0.4-0.5L301.2,318.8z"/>
<path id="Kangra" class="st0" d="M257.4,265.1l-0.1-0.1l-0.3-2l-1.2,0.8l-2.2-2.4l-0.8-1.1l-1.1-0.4l-3.5,0.1l-0.8,1.2l-0.2,0.7
	l-1.2,0.2l-1.2,0.1l-1.1-0.6l-1.3-0.4l-0.7-1.6l-0.8-2.5l-0.6-0.9l-1.6-4.2l-1.2-1.8l-0.8-1.9l-0.2-1.5l-2-1.9l-0.9-0.6l-0.1-0.1
	l-0.3-0.3l-1.1-0.1l-0.6-0.5l-1.1-0.2l-0.6-1.3l-2.6-0.3l-1-0.3l-1.2-0.6l-1.3-0.9l-1.2-1l-0.9-1.1l-0.6-1l-0.9-0.9l-0.6-1.1l-1-1.1
	l-0.2-0.2l-0.5-0.2l-1.3,0.2l-1.5,0l-1.2-1.2l-1-2.5l-0.3-0.3l-2-0.8l-2.8-1.6l-1.1,0.1l-1.7,0.6l-1.8,0.5l-1.3,0.5l-2.3-2.4
	l3.7-2.8l2.4-3.1l2-2.8l0.9-1.3l0.7-2.9l-0.7-1.9l-0.8-0.5l-3.4-0.9l-0.1-0.7l-0.1-1.1l0.2-3.6l0.2-1.5l0.1-0.7l1.4-1.6l0.8-0.4
	l1.3-1.3l0.3-0.1l2.5-1.3l1.1-0.2l2.3-0.3l3.7-1l1.8-1.6l0.3-0.3l0.8-1.6l0.2-0.9l2.3-3.1l0.3-0.2l1-1.3l0.7-0.8l1.7-2.1l0.6-0.7
	l2.2-2.8l0.8-1l2.6-2.4l0.7-0.6l4.6-1.7l0.9,1.3l0.3,0.8l1.1,0.5l1.4,0.3l1-0.3l0.8,0.2l0.6,0.9l1.4,1.5l1,1.9l0.6,1.5l1.7,2.5
	l0.3,1.1l-0.4,0.9l-0.3,1l0.9-0.4l0,0.4l-0.3,1l-0.2,1.4l-0.3,0.7l0,1.3l1.1,1.9l0.5,1.3l1.2,0.2l0.7,0.7l2.9-0.7l0.7-0.4l1,0
	l0.8,0.4l0.7,0.8l1.2,0.8l1.1,0.3l0.5,0.8l-0.1,1.5l0.2,1.1l-0.3,1.1l0.4,0l0.7,0l1.3,0.5l0.8-0.3l1-0.5l1.1-1l0.5,1l0.1,0.9l0.4,0
	l0.6-0.4l0.3-0.8l-0.4-2l0.5-1.7l0.3-1.6l-0.1-0.9l-0.6-0.6l-1-0.5l-0.6-0.5l-0.1-0.8l-0.5-1.5l0-2.3l-0.3-0.8l0.6-0.7l0.3-0.6
	l0.1-1l0.4-0.8l0.1-0.4l-0.3-0.9l-0.1-0.8l-0.4-0.4l1.3-0.5l1.5-1.3l1-0.6l0.8-0.8l0.7-0.8l0.7-1.4l0.4-1l0.4-0.3l2.3,0.3l1.4-0.1
	l0.6,0.2l0.3,2.1l0.6,0.9l0.8-0.3l0.2,0.2l1,1l0.3,0.7l0.1,1.1l0.9,2.6l0.8,0.4l0.9-0.4l0.9,0.4l1,0.2l0.6,0.5l0.9,1l1.1,0.1
	l0.9-0.1l0.9,1.5l1.1,2.3l0.7,0.8l3.3,2.2l1.5,0.4l0.6,2.4l1,0.2l0.9-0.4l1.1,0.6l1,1.1l0.6,1l0.7,0.1l0.7,0l0.7-0.6l0.8,1l0.6,0.4
	l1.2,1.6l1.1,0.1l1.3-0.8l0.2,0.7l2.6,0.7l1-0.1l0.9,0.6l0.9-0.1l2.1,0.7l1.1,1l1,1.2l0.7,1.2l1.3,1l4,1.4l0.8,0.5l0.9,0.2l1.1-0.1
	l0.6-0.9l0.6-0.7l0.6-1.1l1.3-0.3l0.5,0l0.9,0.5l0.9,0.7l1,0.5l0.3-0.2l1.7-2.3l0.7-0.6l0.7-1.1l0.6-1.1l0.2-0.9l-0.2-2.4l0.8-0.9
	l-0.8-0.3l-0.1-0.6l0.7-1.2l0.5-1l-1.1-2.1l0.6-1.5l-0.1-1.5l-0.3-1.2l1-0.6l0.6-0.6l-0.8-1.6l-0.2-0.9l-0.5-1l-1.1-0.9l-0.7-1
	l-0.4-1l0.6-0.3l1.7,0.1l0.6-0.4l0.5-1.1l0.6-0.8l-0.3-1.1l-0.1-1.3l0.2-2.5l1.9-0.9l1-1l0.3-1.4l1.2-1.5l1.3-0.7l1.4-1l1.2-1.3
	l0.9-0.8l2-0.9l1.3-0.4l0.9-0.1l0.9,0.5l-0.1,1.1l-0.9,1.1l-0.5,1l-0.5,1.3l1.1-0.5l1.1,0.1l1,0.9l0,1.1l-0.6,1.4l0.8,0.5l0.8,0.2
	l1.2-0.6l0.8-0.6l0.6-0.3l0.6,0.1l-0.2,2.4l0.1,1l1.1,0l1.1-0.4l1.2,0.2l1.1-1l0.5,0.2l0.8-0.2l1.3-0.7l2.1-0.6l1.7-0.6l1.4-0.8
	l0.7,0.6l0.3,0.5l0.2,0.8l1.1-0.1l0.2,0.8l0,0.5l-0.2,1.3l-0.5,0.6l0.2,0.5l-0.4,0.6l-0.4,1.1l-1.6,2l-0.3,0.6l-0.7,2.9l-0.6,1.3
	l0.4,1l0.1,0.9l0,0.8l-0.3,0.7l-1.2,1.2l-0.1,0.6l0.4,2l0.3,0.5l0,0.8l-0.6,1.4l-0.2,0.6l0,1.7l0.3,0.7l0,0.7l-0.1,0.8l0.3,0.7
	l1.1,1.1l1.1,1.6l-0.7,1.5l-1,1.4l-2,0.2l-0.5,0.8l-1.3,0.2l-0.4,0.5l-0.9,1.5l0.5,0.7l-0.5,1.1l-0.4,1.7l-0.5,1.5l-0.3,3.5l0.3,2.3
	l0.2,0.9l-5-0.2l-0.2,1.2l-0.3,0.9l-0.4,1l0.5,1.1l-0.1,1l0.2,2l-0.5,0.6l-1.1,0.5l-0.9,0.1l-0.9-0.3l-1.4,0.1l-1.8,0.3l-2.2,1
	l-1.1,0.1l-0.8,0.4l-0.4,0.5l-0.7,0.5l-0.4-0.4l-1.5-0.8l-1.3-1.5l-1.3-1.2l-0.3-1.2l-1-0.2l-0.6,0.2l-0.5,1l-0.7-0.3l-0.8,0.6
	l-1,1.8l-2,2.5l-0.7,1.2l-0.9,0.1l-0.1-0.5l-0.7,0l-1.1-0.4l-0.9-0.7l0-0.9l-0.4-0.6l-1.7-0.4l-1,0.6l-0.4,0.4l-0.1,0.6l-1.5,1.7
	l0.2,2.9l0.5,1.8l1.3,2.1l0.5,1.6l0.3,1.6l-0.3,0.9l0.6,1l0.1,1.1l0.1,0.6l0.3,1.7l-0.6,0.3l-0.2,0.7l0,0.7l-0.5,1.7l-0.6,0.5l0,0.5
	l0.2,1l-0.4,0.6l0,1l0,0.3l0.2,1l0.1,0.9l-1.1,0l-1.1,0.4l-1.2-0.2l-1-0.4l-4.1-3l-1.6-0.3l-2.8,1l-1.9,1.2l-1.7,1.7l-1.7,1.1
	l-0.8,0.9l0,0.2l0.5,1l-0.1,1.1l-2.4,0.7l-2.4,1.2l-0.7,0.2l-0.4,0.2l-0.3,0.3l0.9,1.7l-0.1,0.9l-0.6,0.1l-0.4-0.8l-0.7-0.4
	l-0.4,0.7l0.7,1.4l-1.3,0.3l-0.7,0l0.1-1.1l-0.7,0l-0.4,2.1l-0.7,0.4l-1.9-0.2l-0.2,1.8l-0.5-1l-1-1l-0.7,0.7l-1.3,1.9l-1.4,0.5
	l-0.3-0.6l-0.6-0.7l-0.7-0.8l-0.5-0.3l-1.7,1.4l-2,0.9l-0.8,0.1l-0.7-0.3l-0.2-0.3l-0.3-0.8l-0.4-0.1l0,0.8l0.2,1l1.2,1.2l-0.3,0.7
	l-0.3,1l0.4,0.3l-0.1,1.2l0.3,0.9l0.4,0.4l0,1l0.4,0.4l-0.3,0.8l-0.4,0.7l-0.2,0.3l-2.1,4.5l-0.6,0.7l-0.6-0.7l-0.6-1.2l-0.9-1.1
	l-1.7-1.4l-0.7-0.6l-0.3-0.6l-2.9-3.2l-1.6-3.2l-0.1-0.8l-0.6-0.7l-1.1,0.1l-0.6,0.6l-0.8-0.3l0.2-1l-0.5-1.2l-1-0.7l-0.7-0.8
	l-0.7-0.4l-3.3-0.6l-2-0.8l-1.5-2.1l-1.4-0.7L257.4,265.1z"/>
<path id="Kinnaur" class="st0" d="M589.7,354.6l-0.1,1.4l0.5,2.5l0.7,1.4l0.5,0.3l1.8,0.1l0,0.5l-0.2,0.7l0.3,1.4l0.7,0.8l0.4,0.6
	l0.2,0.5l0.8,0.6l0.9,0.5l0.6,0.1l0.3,0.4l0.4,0.2l0.3,0.7l0.3,1.2l0,2.4l-0.2,0.6l0.3,0.8l0.8,0.7l0.3,0.1l0.3,0.5l0.2,1l0.7,2.1
	v0.2l0,0.1l-0.7-0.3l-0.7,0.1l-2.3,0.2l-1.2,0.7l-0.4,0.4l-1.2,0.5l-0.5,0l-0.6-0.3l-1.4-0.1l-0.9-1.3l-0.6,0l-0.5,0.1l-0.4,0.5
	l-0.1,0.7l-0.3,0.3l-0.7-0.1l-0.8,0.3l-0.5,0.1l-1-0.5l-1.1-0.8l-1.2-2.2l-0.9-0.3l-0.8-0.4l-1-0.9l-0.5-1.1l-0.7-0.6l-0.3-1
	l-0.7-1.6l0.2-0.9l-1.3-1.4l-0.3-0.7l0.1-1l0.4-0.8l0.2-0.8l-0.4-0.5l-0.6-0.4l-0.7,0.1l-2.1,1.1l-0.7,0.2l-0.8,0.2l-1,0.1l-3.4-0.4
	l-0.9,0.1l-0.7,0.3l-0.8-0.2l-0.6,0l-2.3-1.1l-1.2,0.1l-0.7-0.1l-1.1,0.8l-0.3,0.5l-0.3-1.2l-0.9-0.9l-0.2-1.7l-0.2-0.4l-0.7,0
	l-1.3-0.5l-0.4-0.3l-0.4-0.6l-1.1-0.8l-0.6-0.1l-1.3,0.3l-0.5-0.1l-1.5,0.2l-0.5,0.6l-0.7,0.3l-0.7,1.4l-1.5,1.8l-2.7,0.4l-3.2,0
	l-1.1-0.1l-0.8,0.2l-0.3-1.3l-0.1-1.4l-1.1-1.1l-1.5-2.6l-1.5-0.8l-0.5-1l-0.9-0.6l-0.6,1.4l-1.1,0.3l-0.9,0.1l-0.7-0.8l0.2-1.5
	l-0.8-1.1l-0.3-0.7l-0.2-1.1l-0.9,0.4l-0.5-1.4l-0.7-0.3l-0.8-0.1l-1,0.1l-0.6,0.2l-0.7,0.2l-1.1-0.1l-1.1,0.5l-1.2-0.2l-0.9-0.3
	l-0.8-0.4l-1.3-1.1l0-1l0.3-0.8l0-0.8l0.5-0.9l-1.2-1.4l-2-0.1l-1.7-0.5l-0.5-0.4l-0.3-0.6l-0.4-0.4l-0.2-0.6l-0.3-0.2l-0.4,0.2
	l-0.7,1l-0.8,0.5l-0.4,0.5l-0.7,0.4l-0.6,0l-0.7-0.5l-0.7-0.1l-2-1.2l-0.7,0.1l-1-1.2l-0.9,0l-0.5-0.8l-0.8-1.6l1.5-2.8l-0.3-0.9
	l-0.4-0.6l-0.7-0.5l-0.8,0.5l-0.7-1.1l-0.6-0.3l-0.7-1.1l-0.4-0.4l-1.1-0.5l-0.7-0.1l-0.7-1l-0.1-0.6l-1.1-0.1l-0.6-0.2l-0.3,0.1
	l-0.8,0.6l-0.7,0l-0.5,0.3l-1.7-0.5l-0.8,0.6l-1.7,1.6l-0.5,0.4l-0.5,0.2l-1.2-0.4l-0.7,0.2l-1,0l-0.5-0.3l-2.2,0.5l-1.5-0.1
	l-0.3-1.8l-1.4-1.2l-0.5-0.2l-1.4,0.2l-0.5-0.3l-0.7-1.1l-0.6-0.2l-0.5-0.5l-0.4-0.7l-0.7-0.4l-0.5-2.1l-0.4-0.6l-0.8-0.8l-1-0.8
	l0.4-1.5l-0.1-1l-0.4-0.7l-1-1l-0.2-1l-0.7-0.6l-0.5-0.6l-0.4,0.9l-0.5-0.4l-1.2,0.2l0-1l0.4-1.2l0.1-1l-0.2-1.5l-0.3-1.3l-0.5-1.3
	l-0.1-1.4l0.4-2.6l-0.4-1l-1.8-3l-0.7-0.9l0.2-0.9l0.9-2.4l0.1-0.9l-0.5-0.8l-0.5-2.2l-0.4-0.9l-1-1l-1.1-0.7l-0.2-0.8l-0.4-1.3
	l-0.7-1.2l-1.4-1.4l-1-0.1l-1-0.5l-0.5-0.9l0.1-0.5l0.5-0.5l0-1.1l-0.4-2.6l0-1.2l1-0.6l0.2-1.1l0.6,0.7l1.3,0.9l1.1,0l1.2-1.1
	l1.4-0.3l2.1,0l2.4,0.9l0.5-0.7l0.3-1.4l0.2-1l-0.3-1l1.3-0.3l0.6,0.5l0.5,1.1l1,0.5l1.5,1.6l0.2,1l0.8,0.2l1-0.2l0.8,0.7l1.1,0.2
	l0.7-0.3l-0.1-1.2l0.7-0.3l0.4-3.1l0-1l1,0l0.6,0.4l0.7,0.3l0.9,0.1l0.5,0.3l0.6-0.3l1.1,0.5l0.9,0.1l0.5,0.1l0.7-0.1l0.5,0.8
	l0.7,0.7l0.7,0.9l0.8-0.1l1.6-1.8l0.6-0.5l0.3-0.7l0.4-0.5l2.1-0.1l0.8-0.6l0.1-0.5l-0.1-0.5l0.3-1.1l0.1-1.3l0.6-0.9l0.5-1.3
	l-0.3-1.1l0.5-0.5l-0.1-0.7l-1.2-1.1l0.3-0.9l0.7-0.4l-0.5-0.8l0.7-0.1l1.2,0.1l0.8-0.4l1.4-1l1,0l0.7,0.1l1.3-0.2l0.5,0.6l1,0.2
	l1.4-0.1l0.4-0.5l1.5-0.9l-0.1-0.9l-0.6-1.6l0.3-1l-0.3-0.7l0.3-0.9l0-0.6l-0.3-1.3l0.9-0.5l0.4-0.5l0.1-0.9l0.7-0.8l1.2-0.3l1,0.3
	l4.4-0.2l1.7-0.3l1.6,0.8l1.9,0.6l0.2-1.2l0.9-0.5l3.3,0.3l0.4,0.3l0.5-0.8l0.7-0.2l0.9-1.1l1.1-2l2.1,0.6l1.4,0.2l0.8,0.6l1.6,2
	l0.8-0.2l0.6,0.4l0.9-0.3l0.8,0.2l0.6-0.1l0.5-0.3l0.2-0.4l-0.5-1.2l0.5-0.7l0.2-0.8l-1.3-1.3l-0.7-0.5l-0.9-0.3l-0.3-1.1l-1.5-1.6
	l0.1-1l0.2-0.8l0.6-0.8l-0.1-1.6l0.5-1.4l0.6-1.3l0.3-1.5l0.4-0.6l0.4-0.9l0.6-0.4l0.7,0l0.6,0.3l1.1,0.7l0.6,0.1l0.8-0.1l0,0.6
	l0.1,0.3l0.3-0.2l0.4-0.6l1.7-0.5l1.2-0.5l1-0.8l2.1-0.8l0.6,0.2l1.5,0.2l1-0.2l2.3,0.2l1.1,0.3l0.5,0.9l0.5,0l1.3-1.1l1-0.6
	l1.1-0.1l1.1-0.2l1.1-0.6l0.7-0.6l0.3-1l0-0.9l0.3-0.5l0.3,0l0.2,0.8l0.5,0.7l0.1,0.4l0.1,0.1l0.2,0.2l0,0.1l0.1,0.1l1.6,1.4
	l0.8,0.8l0.1,0.1l0.1,0.2l0.1,0.2l0.3,0.4l0.2,0.1l0.2,0.7l0.1,0l0.1,0.1l0.1,0.2l0.1,0.8l0.1,0.1l0.3,0.3l0.1,0.1l0,0.1l0.2,0.1
	l0.1,0.2l0.1,0.1l0.1,0.1l0.9,0.8l0,0.1l0.8,0.6l0.6,0.6l0,0.1l0.6,0.7l0,0.1l0.3,0.3l0.1,0.2l0.1,0.5l0.1,0l0.1,0l0.1,0.1l0,0.1
	l0.1,0l0.1,0.2l0,0.1l0.1,0.1l0,0.1l0.7,0.6l0.3-0.1l1.3,0.1l0.3,0.1l0.9,0.3l0.9,0.2l0.2,0.1l0.1-0.1l0,0.5l0,0.2l0,0.1l-0.1,0.5
	l-1,4.3l-0.4,1.4l-0.2,0.7l-0.4,1.7l-0.3,0.8l-0.6,1.5l-0.6,0.8l-0.1,0l-0.2,0.4l-0.2,0.2l-0.1,0l0,0.1l0,0.1l-0.2,0.3l0,0.5
	l-0.1,0.1l-0.1,0.1l-0.1,0.2l0,0.1l0.2,0.2l0,0.2l0,0.7l-0.4,1.3l-0.1,0.1l-0.1,0.1l-0.3,0.6l0,0.1l0,0.1l0,0.1l0,0.3l0,1l-0.1,4.4
	l-0.2,1.4l0,0.1l-0.1,0.3l-0.1,0.1l-0.2,0.1l-1.7,1.2l-0.2,0.2l-0.1,0l0,0.1l0,0.1l-0.1,0l-0.7,1.1l-0.2,0.4l-0.1,0.3l-0.2,0.9
	l0,1.5l0,0.6l0.2,1.1l0.1,0.1l0.1,0.3l0.2,0.8l0.1,0.1l0.4,0.6l0.1,0.1l0.2,0.5l1.2,0.5l0.2,0.1l0.7,0.3l0.3,0.2l-0.1,0.6l-0.5,0.6
	l-0.3,0.4l-0.1,0.2l-0.1,0.3l-0.1,0.2l-0.3,0.7l-0.1,0.6l0.1,0l0.1,0l0,0.3l0.1,0.1l0.1,0.1l0,0.2l0.5,0.3l0.2,0.4l0.1,0l0.1,0.3
	l0.2,0.8l0.1,0.3l0.2,0.9l0.3,2.4l0.4,0.7l0.2,0.3l0.1,0.6l0.1,0.1l0,0.1l0.1,0.1l0.5,0.4l0.9,0.5l0.1,0l0.2,0.1l0.3,0l0.2,0l0.1,0
	l1.2-0.2l0.8-0.3l0.2-0.1l0.8-0.2l0.1,0.4l0.1,1.9l0,0.3l0,0.1l0.4,1.8l0.2,0.2l0.1,0.2l0,0.1l0.1,0.1l0.2,0.4l0.4,0.4l0.1,0.2
	l0.2,0.1l0,0.1l0.1,0.1l1.6,1.4l0.1,0.1l0.8,0.5l0.4,0.4l0.4,0.5l0,0.1l0.1,0.2l0.2,0.2l0,0.1l0,0.1l0,0.1l0.1,0.1l0,0.1l0.2,0.7
	l0.1,0.1l0,0.7l-0.4,1.3l-0.4,0.7L580,301l-0.1,0.3l-0.5,0.5l-0.1,0.2l-0.3,0.4l-0.1,0.1l-0.1,0.2l-0.1,0.2l-0.1,0.3l-0.1,0.1
	l-0.1,0l0,0.1l-0.5,0.7l-0.9,1.1l-0.7,0.4l-0.8,0.4l-1.9,0.9l0,0.1l-0.5,0.5l-0.3,0.7l-0.4,0.6l-0.9,0.7l-0.4,0.2l-1.9,0.5l-1,0.5
	l-0.2,0.7l-0.2,1l-0.1,0.1l-0.1,0l0,0.1l-0.8,0.8l-0.2,0.4l0,0.4l0.2,0.5l0.8,1.1l0.1,0.6l0,2.6l0.1,0.4l0.3,0.1l0.5-0.3l0,0
	l0.6-0.2l1.8-0.5l0.3,0l0.2-0.1l0.1,0l0.3,0.3l0.4,1.3l0.7,0.7l0.1,0.1l0,0.1l0,0.1l0.1,0.1l0.4,0.3l0.1,0l0,0.1l0.2,0.1l0.4,0.3
	l0.2,0.3l0.1,0.2l0.6,0.5l0.1,0.2l1.4,1l0.4,0.4l0.2,0.6l0,0.7l-0.1,0.8l0,0.8l0,0.6l-0.4,2l-0.3,0.4l-0.7,0.4l-0.1,0.1l-0.1,0.1
	l0,0.1L575,331l-0.5,0.6l-0.1,0.7l0,0.1l0,0l0.2,0l0.5,0.2l1.5,0.6l0.8,0.4l0.7,0.2l0.4,0.2l0.6,0.4l0.5,0.7l0,0.1l0.7,0.3l0.1,0
	l0.3,0.9l0.5,0.5l0.1,0.2l0,0.1l0.1,0.2l0.2,0.8l0.1,0l0.3,1.5l0,0.6l-0.3,0.9l-0.7,1l-0.4,1l0,0.4l0.5,0.2l0.2,0l0.3,0.1l0.1,0.1
	l0.2,0.1l0.6,0.6l0.3,0.3l0.1,0.2l0.1,0.1l0,0.1l0.1,0.1l0.1,0.1l0.2,0.1l0,0.1l0.1,0l0.5,0.5l0.2,0.6l0.1,0.1l0.1,0l0,0.1l0.3,0.4
	l0.1,0.2l0,0.1l0.3,0.4l0.3,1.6l0.1,0l0.1,0.3l0.1,0l0.8,2.6l0.1,0l0.1,0.3l0.6,0.6l0.1,0.1l0.5,0.2l1.3,0.6L589.7,354.6z"/>
<path id="Kallu" class="st0" d="M420.7,339.4l-0.3,0.4l-2.6,0.4l-0.9,0.7l-1.2-0.2l-0.8,0.4l-0.7-0.8l-0.6,0.1l-1.5-1.7l-0.5-0.8
	l-0.6,0.4l-0.6-0.1l-0.6-0.3l0.5-1.6l-0.2-0.8l0.2-1.1l-0.4-0.5l0.1-0.4l-0.7-0.7l0.2-0.7l-0.1-0.5l0.3-0.8l-0.1-0.8l-0.4-0.9
	l-0.5-0.5l-0.7-0.4l-0.8-0.8l-0.6-0.6l-1.6-2l-0.8-0.5l-0.7-1.4l-0.6-2l-0.3-1.9l-0.2-2.3l-0.5-1.5l-0.1-2.7l0.4-0.8l-0.7-1.3
	l-0.9-1.3l-0.5-1.7l0.3-1.2l0.1-2.2l-0.5-2l0.3-1l0.3-1.9l-0.1-1.7l-0.9-4.9l0.8-1.3l-2.5-4.4l-1.3-1.7l-1.8-1.4l-1.4-0.4l-0.9-1
	l-1.3-0.5l-0.1-0.2l-0.1-0.2L390,282l-0.5-1.6l0-1.6l-0.2-1.2l0-0.9l-0.4-1.5l-0.3-0.7l-0.9-1.5l0.1-0.9l-0.5-0.9l0.2-1l-0.9-1.7
	l0.2-1l-0.4-1.1l-1.3-0.7l0.3-0.9l0.2-1.5l-0.9,0.2l-0.6,0.3l-5.4,0.1l-1.9-0.1l-1.1,0.3l-1.4,1.1l-0.5-0.5l-1.1-0.4l-1.2,0.1l0-0.6
	l-0.2-0.8l0.4-1.9l-0.5-0.3l-0.2-0.7l-2.9-4.9l-0.3-1.1l-0.1-1.7l-0.3-1.5l-0.8-1.4l-1.6-2.5l-0.4-1.3l-1.2-1.7l-1.4-2.9l0.3-1.3
	l0.1-1.2l-0.1-1.8l-0.5-1.9l-1.5-0.7l-0.6-0.8l-1.8-1.8l-0.1-2l-0.4-0.8l0.5-0.6l-0.2-2l0.1-1l-0.5-1.1l0.4-1l0.3-0.9l0.2-1.2l5,0.2
	l-0.2-0.9l-0.3-2.3l0.3-3.5l0.5-1.5l0.4-1.7l0.5-1.1l-0.5-0.7l0.9-1.5l0.4-0.5l1.3-0.2l0.5-0.8l2-0.2l1-1.4l0.7-1.5l-1.1-1.6
	l-1.1-1.1l-0.3-0.7l0.1-0.8l0-0.7l-0.3-0.7l0-1.7l0.2-0.6l0.6-1.4l0-0.8l-0.3-0.5l-0.4-2l0.1-0.6l1.2-1.2l0.3-0.7l0-0.8l-0.1-0.9
	l-0.4-1l0.6-1.3l0.7-2.9l0.3-0.6l1.6-2l0.4-1.1l0.4-0.6l-0.2-0.5l2.4-0.2l1.7-0.2l0.7-0.6l2.2-0.9l1.9-1.2l0.7,0.3l2.8,1.5l1.8,0.5
	l0.5,1.4l0.4,0.5l1.6,1l1.4,1.3l0.9-0.4l0.6-0.1l0.5,0.2l1.1,0.9l1,1.2l1.5,0.8l0.6,1.1l0.2,1l0.4,0l1.3,1.3l1.2,0l0.4,0.8l1.3,0.9
	l0.5,0.6l0.5,1.1l-0.1,0.7l0.2,0.4l0.6-0.2l0.7,2.8l0.4,0.4l0.2,0.6l-0.1,0.8l0,0.9l0.4,0.9l-0.2,0.7l0.1,0.7l-0.5,0.7l0.2,0.6
	l1.2,2.7l1.5,1.5l0.6,0.1l1.1,0.8l0.6,0.2l0.7-0.4l2.5,2.1l0.3,1.3l0.3,0.3l0.7,0.1l0.7-0.2l1.3,0.1l1.4-0.3l0.6-0.4l0.2-0.6
	l-0.1-0.7l0.1-0.8l0.3-1.5l0.2-0.6l0.6-0.5l0.8,0.4l1,0.1l1.3,0.7l0.4,0.9l0.7,0.8l0.3,0.6l0.2,0.7l1.2,0.3l0.8,0l0.3-0.9l-0.2-1.2
	l0.9-0.7l0.6-0.7l2.2,2.1l0.1,1.2l0.2,0.8l0.8,1.2l1,0.3l0.4,0.6l0.1,0.5l0.9,0.3l1.1,1.2l1.2,1l0.7,0.3l1,0l0.7,1.2l0.7,0.1l1.5,1
	l0.2,0.5l0.7,0.6l0,0.8l0.3,1.1l0.7,0.4l0.2,0.8l0.4,0.2l0.3,0.3l0.8,1.4l0.5,0.5l1.6,0.1l1.4,1.2l0.9,0.5l1.6,0.3l1.2,0.1l0.2,2.2
	l0.2,0.4l0.8,0.6l0.4,1.6l0.6,0.7l0.3,0.6l0,0.8l-0.2,1l0.4,0.6l0.8,0.5l0.5,0l1.5,2.4l-0.1,0.3l-1.8,1.4l1.1,1.1l0.7,1.3l1.1,1
	l0.1,0.7l-0.8,1l-0.9,0.6l-0.6,0.7l0.1,1l-1,1.3l-0.6,1.4l0.4,1.3l0.9,1.4l0.3,1.7l1,1.5l1.6,1.6l1.4,0.3l1.5-0.2l2,1l1.3,0.8
	l1.1,0.2l-0.6,0.7l-1.7,1.2l-1.1,2.4l-0.2,1l0.6,1.8l0.6,1.1l-0.3,0.7l-0.1,1.1l0.1,1.9l0.8,1.4l1,1l0.4,1.1l-1.3,0.3l0.3,1l-0.2,1
	l-0.3,1.4l-0.5,0.7l-2.4-0.9l-2.1,0l-1.4,0.3l-1.2,1.1l-1.1,0l-1.3-0.9l-0.6-0.7l-0.2,1.1l-1,0.6l0,1.2l0.4,2.6l0,1.1l-0.5,0.5
	l-0.1,0.5l-0.9-0.2l-0.9,0.1l-2.2,1.6l-0.8,0.2l-1.7-0.2l-1,0.1l-0.7,0.7l-1.1,2.5l-0.9,0.6l-0.3,1.4l-0.8,0.8l-0.4,0.7l-0.1,0.4
	l0.2,0.7l0.3,0.3l1.3,2.6l-0.4,0.5l-0.7,0.3l-0.2,0.7l-0.3,1.8l0,1.1l0.1,1.1l0.4,1l0.4,2.2l1,1l1.1,1.7l0.7,0.2l0.5,1.6l0.8,0.8
	l0.9,0.5l0.6,1.9l-0.4,1.7l0.3,1.5l0.7,1l-0.3,0.9l-0.6,0.2l-1.5,1.4l-0.8,1.4l-0.6,1.3l-0.6,1l-1,0.5l-1,0.2l-1.6,0.7l-1,0.7
	l-0.5,0.6l-0.4,1.1l-0.2,2.4l0.4,1.5l0.9,2.6l-0.5,1l-1.2,0.4l-1.1-0.8l-1.2-0.4l-1.1,0.1l-2.3,1.4l-1-0.3l-1,0.3l-0.7,0.7l-1,2.1
	l-0.9,2.4l-0.7,0.3l-0.9,0L424,339l-1.1-0.1L420.7,339.4z"/>
<path id="Lahul" class="st0" d="M490.5,272l-2.1,0.1l-0.4,0.5l-0.3,0.7l-0.6,0.5l-1.6,1.8l-0.8,0.1l-0.7-0.9l-0.7-0.7l-0.5-0.8
	l-0.7,0.1l-0.5-0.1l-0.9-0.1l-1.1-0.5L479,273l-0.5-0.3l-0.9-0.1l-0.7-0.3l-0.6-0.4l-1,0l0,1l-0.4,3.1l-0.7,0.3l0.1,1.2l-0.7,0.3
	l-1.1-0.2l-0.8-0.7l-1,0.2l-0.8-0.2l-0.2-1l-1.5-1.6l-1-0.5l-0.5-1.1l-0.6-0.5l-0.4-1.1l-1-1l-0.8-1.4l-0.1-1.9l0.1-1.1l0.3-0.7
	l-0.6-1.1l-0.6-1.8l0.2-1l1.1-2.4l1.7-1.2l0.6-0.7l-1.1-0.2l-1.3-0.8l-2-1l-1.5,0.2l-1.4-0.3l-1.6-1.6l-1-1.5l-0.3-1.7l-0.9-1.4
	l-0.4-1.3l0.6-1.4l1-1.3l-0.1-1l0.6-0.7l0.9-0.6l0.8-1l-0.1-0.7l-1.1-1l-0.7-1.3l-1.1-1.1l1.8-1.4l0.1-0.3l-1.5-2.4l-0.5,0l-0.8-0.5
	l-0.4-0.6l0.2-1l0-0.8l-0.3-0.6l-0.6-0.7l-0.4-1.6l-0.8-0.6l-0.2-0.4l-0.2-2.2l-1.2-0.1l-1.6-0.3l-0.9-0.5l-1.4-1.2l-1.6-0.1
	l-0.5-0.5l-0.8-1.4l-0.3-0.3l-0.4-0.2l-0.2-0.8l-0.7-0.4l-0.3-1.1l0-0.8l-0.7-0.6l-0.2-0.5l-1.5-1l-0.7-0.1l-0.7-1.2l-1,0l-0.7-0.3
	l-1.2-1l-1.1-1.2l-0.9-0.3l-0.1-0.5l-0.4-0.6l-1-0.3l-0.8-1.2l-0.2-0.8l-0.1-1.2l-2.2-2.1l-0.6,0.7l-0.9,0.7l0.2,1.2l-0.3,0.9
	l-0.8,0l-1.2-0.3l-0.2-0.7l-0.3-0.6l-0.7-0.8l-0.4-0.9l-1.3-0.7l-1-0.1l-0.8-0.4l-0.6,0.5l-0.2,0.6l-0.3,1.5l-0.1,0.8l0.1,0.7
	l-0.2,0.6l-0.6,0.4l-1.4,0.3l-1.3-0.1l-0.7,0.2l-0.7-0.1l-0.3-0.3l-0.3-1.3l-2.5-2.1l-0.7,0.4l-0.6-0.2l-1.1-0.8l-0.6-0.1l-1.5-1.5
	l-1.2-2.7l-0.2-0.6l0.5-0.7l-0.1-0.7l0.2-0.7l-0.4-0.9l0-0.9l0.1-0.8l-0.2-0.6l-0.4-0.4l-0.7-2.8l-0.6,0.2l-0.2-0.4l0.1-0.7
	l-0.5-1.1l-0.5-0.6l-1.3-0.9l-0.4-0.8l-1.2,0l-1.3-1.3l-0.4,0l-0.2-1l-0.6-1.1l-1.5-0.8l-1-1.2l-1.1-0.9l-0.5-0.2l-0.6,0.1l-0.9,0.4
	l-1.4-1.3l-1.6-1l-0.4-0.5l-0.5-1.4l-1.8-0.5l-2.8-1.5l-0.7-0.3l-1.9,1.2l-2.2,0.9l-0.7,0.6l-1.7,0.2l-2.4,0.2l0.5-0.6l0.2-1.3
	l0-0.5l-0.2-0.8l-1.1,0.1l-0.2-0.8l-0.3-0.5l-0.7-0.6l-1.4,0.8l-1.7,0.6l-2.1,0.6l-1.3,0.7l-0.8,0.2l-0.5-0.2l-1.1,1l-1.2-0.2
	l-1.1,0.4l-1.1,0l-0.1-1l0.2-2.4l-0.6-0.1l-0.6,0.3l-0.8,0.6l-1.2,0.6l-0.8-0.2l-0.8-0.5l0.6-1.4l0-1.1l-1-0.9l-1.1-0.1l-1.1,0.5
	l0.5-1.3l0.5-1l0.9-1.1l0.1-1.1l-0.9-0.5l-0.9,0.1l-1.3,0.4l-2,0.9l-0.7-0.5l-0.4-0.8l-0.2-1.1l0.4-1l0.7-1l0.3-1l0.6-1.2l0.7-0.9
	l0.4-1.1l0.4-0.4l-1.1-0.3l-0.3-0.9l0.2-0.7l-0.9-0.3l-1.1,0.2l-0.9,0.5l-1.1,0.4l-1.1-0.7l-0.3-1.2l-0.7,0.1l-0.8,0.4l-0.7,0.2
	l-0.8-0.1l-0.8-0.5l-0.4-1.1l-1.3-1.3l-1.1,0.3l-0.6,0.5l-1.2-1.7l-0.5,0.1l-0.8-0.1l-0.8-0.4l-0.9,0.9l-0.8,0.5l-1.2,2.2l-0.9-0.8
	l-0.7-0.4l0.7-1.2l0.3-1.1l0.1-1.3l-0.5-0.6l-1.9,0.4l-1.1,0.1l-1.3-0.4l-2.3-1.3l-1.2,0.7L321,149l-0.5-0.7l-0.1-1.2l0.5-1.9
	l0.3-0.8l-1.8-0.2l-0.8-0.3l-0.5-0.6l-0.1-1.1l0-1.3l-0.8-0.8l-0.4-1.8l-2.1-1.1l-3-1.4l-1.3,0.4l-1-0.3l-1-1.3l-0.6-0.2l-1.5,0.3
	l-1.4,0.5l-3.3,1.5l-1.5-0.3l-1.1-0.7l0.4-2.3l-0.8-0.3l-0.4-0.3l-0.6-0.7l-0.5-0.8l0.3-0.5l0.2-1.1l-0.2-1.1l-0.4-1l-0.9-1.1
	l-1.7-1.3v-1.6l-2.2-5.8l0.3-1.5l-0.2-1.2l-1.1-0.7l0-2l0.2-1.5l0.7-0.3l1.2-0.3l0.7-0.9l0.7-1.2l0.6-0.8l0.9-0.6l1.8-0.9l1.2-0.4
	l1.4,0.3l0.2,0.9l0.9,3.2l0.7,0.8l-0.1,1.3l0.4,1.1l4.7,0.3l1.6-0.6l1.1-0.8l1.2-0.2l0.9-0.7l1-1.1l1.5-0.7l1.8-1.5l1.5-1.7l1-0.9
	l0.6,0.2l0.6,0.8l0.8,0.8l1.2,0.2l0.9-0.4l1.1-0.7l0.9,0.4l0.8,0.1l0.9-0.9l0.7-0.4l0.6-1.6l0.7-1.1l0.2-1.1l0.5-0.5l1.8-1.4l0-3.6
	l0.1-1.4l3-0.5l2.2-0.6l0.3-0.6l0.3-0.4l0.6-0.2l0.4-1.2l1.6-2.4l-0.7-0.1l-0.7,0.1l0-1.1l-0.4-2l0.4-0.5l0.8-0.7l-0.2-0.3l-0.6-0.4
	l-0.7-0.2l-0.1-1l0.1-0.3l-0.2-1.2l0.3-0.8l-0.8-0.5l-0.7-0.1l-0.7-1.1l0.1-1.8l-0.4-0.3l0.2-0.9l-1.1-1.4l-0.2-1.7l-0.7-1.8
	l-0.2-1.2l0.2-1.1l-0.2-1.1l0.3-1.5l0.4-1.3l0-0.9l0.6-0.7l0.2-0.8l0.1-1.5l-0.1-1.4l-0.5-0.9l0.3-0.6l0.1-3.1l0.1-0.9l0.4-1.2
	l0.9-0.7l0.4-1.1l0.6-0.9l0.6-1.5l0.4-0.8l0.3-2.3l-0.6-0.6l-0.3-0.7l0-0.3l0.2-0.2l0.4-0.4l0.4-0.2l1.7-0.2l0.8,0.3l1.3,1.9
	l0.7,0.7l0.4,0.1l0.3-1l0.1-0.3l0.6-0.5l0.4-0.2l0.5,0l0.2,0.1l0.4,0.2l0.1,0.1l0.1,0.6l-0.7,0.8l-0.6,1l-0.6,1.3l-0.2,1.1l0.7,0.5
	l0.2,1l-1.8,1.8l0.4,1.4l-0.2,0.4l-0.6,0.7l-0.3,0.7l0.1,0.6l0.3,0.5l-0.1,0.7l0.2,0.9l0.7,1.1l0.6,0.4l0.3,0.7l0.7,0.1l0.7,0.6
	l-0.1,0.9l1.1,0.8l-0.4,0.9l0.6,0.8l0.6,0.5l1,0.1l0.9-0.8l1-0.6l1,0.9l0,1.1l0.9,1.5l1.1,0.4l0.1,0.6l-0.5,1.1l0,0.6l0.7,0.8
	l0.1,0.8l0.4,1.1l1.2,2.2l0.4,0.9l0.2,0.8l0.3,0.8l0.8,0.7l1,0.1l1.8,1.6l1,0.3l0.6,0.4l0.2,0.6l0.3,0.4l1.7,0.9l0.7,0.9l0.5,0.5
	l0.3,0.1l0.5,0.4l1.5-0.6l1,0.2l0.5-0.8l1.3-0.4l2,1.4l0.7,0.8l0.9,0.1l0.7,1.5l0.4,0.5l1.1-0.1l1.5-0.6l0.7-1.5l1.1,0.5l0.9,0.2
	l0.9-0.2l1,0.5l-0.1,0.9l-0.2,0.8l0.1,0.8l0,0.6l0.1,0.5l1.1,0.2l0,2.1l0.3,0.2l0,0.5l-0.2,0.6l0.4,2.2l-0.5,1l1.3,0.1l0.4-0.4
	l0.1-0.8l0.3-0.6l0.3-0.5l0.9-0.5l0.9,2.4l0.8,0.8l1.8,0.6l1.6,1.4L393,99l0.1,1.4l-0.2,0.4l-0.4,0.2l0.1,0.4l0.4,0.5l1,0.7l0.2,0.5
	l0.1,0.6l1,0l1.3-1.8l1.4,1.6l0.5,1l0.8,0.6l0.9,0.5l1.1-0.2l0.8,0l0.9,1.2l-0.2,1.3l0.7,1.2l0.5,0.3l0.1,0.9l0.7,0.4l0.9,0.2
	l0.5-0.3l0.9-0.1l0.9-0.6l0.4-2l0.3-0.7l0.1-0.6l-0.3-0.8l-0.1-0.7l0.1-0.5l0.4-0.6l1-0.6l1-2.1l0.9-0.7l0.9-0.3l0.2,0.1l0.2,0.5
	l0.5,0.4l0.8,0.5l0.9-0.2l0.9-0.7l0.6,1.2l0.1,0.8l0.5,0.7l1.4,0.7l0.8,0l2.1-2.7l1.3-1.2l1.1,0.8l1.4-0.2l0.6-0.4l1-0.3l0.4-0.4
	l0.4-0.4l1-1.6l1.1-1.5l0.6-0.3l0.5,0l1.9-1.3l1.2-1.6l0.2-0.4l0.1-0.7l0.3-0.7l0.3,0.6l0.8-0.3l1.5-0.1l0.5,0l0.3,0.1l0.5-0.4
	l0.7-0.1l1.8-1.8l0.6-0.3l0.8-0.1l0.4-0.2l0.4-1l0.4-0.5l0.4-1.1l0.2-1.6l0.7,0l0.8,0.9l0.2,0.5l1.3-0.3l0.5,0.2l0.2,0.7l0.4,0.7
	l0.4,0.5l0.5-0.2l0.5-0.7l1.2,1.2l0.5,1.1l0.8,1.1l0.3,0.4l0.3,0.1l0.7,0.2l0.3,0.6l0,0.3l0,0.2l0.4,0.5l1,1.3l2.2,1.8l0.4,0.9
	l1,0.7l0.3,1.1l-0.6,1l-1.7,0.1l-0.8,1.7l-0.5,2.4l0.7,1l0.9,0.6l0.6,0.1l0.8,0.7l0.5,0.1l0.8,0.5l1.1,1.5l0.7,0l0.5-0.4l0.7-0.2
	l0.7,0.8l1.9,1l0.6,0.5l0.3,0.6l0.7,0.8l0.3,0.7l0.1,0.8l0.5,1l-0.2,1.6l0.6,0.6l0.5,1l0.5,0.7l0.8,0l0.4,0.1l1-0.1l0.5,0.4l0.6,0.1
	l0.4,0.8l0.3,0.2l0.2,0.5l0.1,0.9l-0.1,0.8l-0.3,1.1l0,0.4l-0.3,0.8l0.4,0.4l0.3,0.5l-0.8,0.8l-0.3,0.7l-0.1,0.8l-0.3,0.6l-0.1,1.4
	l-0.4,0.8l0.1,0.8l0.9,0.8l1.1,1.4l0.7,2l0.1,0.7l0.6,1l0.8,1.3l0.9,0.8l0.7,0.4l0.3,0.9l-0.1,1.4l0.6,0.8l0.3,1.1l0.7,0.9l0.8,1.8
	l0.2,0.7l0.7,0.8l0.5-0.3l3.6,0.2l1.2-0.3l1-0.5l0.7-1.1l0-0.9l-0.6-0.9l-0.3-0.7l-0.2-2l0-0.8l0.1-0.3l1.2,1.1l1.7,0.7l0.7,0
	l0.2-0.2l0.6-2.9l0.7-1.3l1.1-1.1l0.6-0.4l0.7,0.3l0.9,1.6l1.1,1.1l0.6,0l0.6-1.1l0.5-1.7l0.6-1.6l1-1l0.9-0.4l0.7,0l1.4,0.3
	l1.1,1.1l0.5,1l1.3-0.5l0.8,0.3l1.3-0.6l1.4-1l1-1.3l0.4-1.7l2.6-1.3l1.6,0l1.4-0.6l1.3-0.9l0.3-1.1l-0.1-0.8l-0.4-1.1l-0.8-1
	l3.1-1.7l3.6-2.3l2.3,0.1l0.8,0.2l0.2,0.3l-0.2,2.2l0.1,1.9l0.4,1.7l0.3,0.5l-1.2,3.1l-0.5,2.2l-0.1,2.1l0.9,5.3l0.6,1.3l1.5,1
	l-1.4,1.3l-4.3,3.4l-1,1.3l-1.6,0.7l-1.8,0.2l-0.7,0.2l0.3,7.5l-0.5,1.1l-1.9,2.3l3.2,4.7l0.5,0.3l5.4-5.7l2.4-2.1l0.7-0.6l1.4,0.2
	l0.4,0.2l0.1,0.1l0.1,0.4l0.1,0.9l0.5,0.5l0,0.1l0.4,0.2l0,0.1l0.2,0l0.5,0.1l0.2,0l1.1-0.1l0.7,0.3l0.5,0.4l0.1,0.1l0.2,0.3
	l0.2,0.3l0.1,0.4l0.3,0.2l0.2,0.2l0.3,0.9l0.1,0.4l0,0.1l0,0.3l0,0.1l-0.3,0.7l-0.3,0.4l-0.2,0.3l-0.1,0.1l-0.4,0.9l-0.2,0.8l0,0.5
	l0.1,0.5l0.1,0l0,0.2l0.1,0.1l0,0.1l0.4,0.3l0.2,0.1l0.3,0.1l1,0.5l0.8,0.4l0.5,0.4l0.1,0.3l0.1,0l0.1,0l0,0.1l0.1,0l0.3,0.7l0,0
	l0,0l0.1,0l0.1,0.6l0.1,0.1l0.1,0.2l0,0.1l0.2,0.2l0,0.2l0.2,0.1l0,0.1l0.6,0.1l0.4,0l1.8-0.2l1,0.4l0.3,0.3l0.5,0.5l-0.2,0.8
	l-0.1,0.1l-1.4,1.5l-0.1,0.2l-0.2,0.2l0,0.1l-0.5,0.8l-0.2,0.7l-0.2,2.1l-0.3,0.6l-0.8,0.9l-0.1,0.1l-0.1,0.2l-0.7,0.5l-1.1,0.8
	l-0.4,0.8l-0.1,0.1l-0.1,0.4l-0.2,1l-0.1,0.9l0.1,0l0.4,2.6l0.1,1.3l0.2,3.2l-0.1,1.2l-0.2,1l-0.2,0.3l-0.4,0.8l-0.1,0.2l-0.2,0.2
	l-0.3,0.6l-0.1,0.1l-0.2,0.3l0,0.1l-0.3,0.5l-0.1,0.2l-0.2,0.2l0,0.1l-0.4,0.6l-0.1,0l-0.2,0.5l0,0.3l0.9,0.1l0.1,0l1.3,0l0.1,0
	l0.5-0.1l1.6,0.3l0.6,0.1l2.2-0.4l0.5-0.3l0.9-0.2l0.7-0.1l0.1,0l0.3,0l1.4,0.1l0.4,0l0.4,0.2l2.2,1.8l1.4,0.9l2.2,2l0.1,0.1
	l0.1,0.1l0.1,0.1l0,0.1l0,0.7l-0.5,1.2l-0.1,1l0.1,0l0.3,1.4l-0.1,0.9l-0.2,0.4l-0.3,0.9l-0.1,0.4l-0.4,0.4l-0.1,0.1l-0.7,0.5l0,0.1
	h-0.1l-0.3,0.6l0,0.5l0,0.1l0.1,0l0.1,0.2l0.4,0.3l1,1.1l0.1,0.2l0.1,0.1l0,0.5l0.1,0.2l0.2,0.2l0.2,0.7l0,0.6l0.2,1.3l0.1,0.1
	l0,0.1l0.2,0.2l0,0.1l0.8,0.4l0.5,0l0.7,0.3l0.1,0l0.1,0l1.3,0.2l1.3,0.4l1,0.8l0.1,0.1l0.1,0.2l0.1,1l0.2,0.8l-0.3,0l-0.3,0.5
	l0,0.9l-0.3,1l-0.7,0.6l-1.1,0.6l-1.1,0.2l-1.1,0.1l-1,0.6l-1.3,1.1l-0.5,0l-0.5-0.9l-1.1-0.3l-2.3-0.2l-1,0.2l-1.5-0.2l-0.6-0.2
	l-2.1,0.8l-1,0.8l-1.2,0.5l-1.7,0.5l-0.4,0.6l-0.3,0.2l-0.1-0.3l0-0.6l-0.8,0.1l-0.6-0.1l-1.1-0.7l-0.6-0.3l-0.7,0l-0.6,0.4
	l-0.4,0.9l-0.4,0.6l-0.3,1.5l-0.6,1.3l-0.5,1.4l0.1,1.6l-0.6,0.8l-0.2,0.8l-0.1,1l1.5,1.6l0.3,1.1l0.9,0.3l0.7,0.5l1.3,1.3l-0.2,0.8
	l-0.5,0.7l0.5,1.2l-0.2,0.4l-0.5,0.3L534,248l-0.8-0.2l-0.9,0.3l-0.6-0.4l-0.8,0.2l-1.6-2l-0.8-0.6l-1.4-0.2l-2.1-0.6l-1.1,2
	l-0.9,1.1l-0.7,0.2l-0.5,0.8l-0.4-0.3l-3.3-0.3l-0.9,0.5l-0.2,1.2l-1.9-0.6l-1.6-0.8l-1.7,0.3l-4.4,0.2l-1-0.3l-1.2,0.3l-0.7,0.8
	l-0.1,0.9l-0.4,0.5l-0.9,0.5l0.3,1.3l0,0.6l-0.3,0.9l0.3,0.7l-0.3,1l0.6,1.6l0.1,0.9l-1.5,0.9l-0.4,0.5l-1.4,0.1l-1-0.2l-0.5-0.6
	l-1.3,0.2l-0.7-0.1l-1,0l-1.4,1l-0.8,0.4l-1.2-0.1l-0.7,0.1l0.5,0.8l-0.7,0.4l-0.3,0.9l1.2,1.1l0.1,0.7l-0.5,0.5l0.3,1.1l-0.5,1.3
	l-0.6,0.9l-0.1,1.3l-0.3,1.1l0.1,0.5l-0.1,0.5L490.5,272z"/>
<path id="Mandi" class="st0" d="M409.9,337.1l-0.1,0.5l-0.8-0.1l-0.8,0l-0.9,0.4l-0.7,0.7l-0.6,1l-1.3,3.6l-0.3,2.7l-0.3,1.1
	l-0.6,0.7l-0.8,0.1l-0.8,1.5l-0.5,0.3l-0.9,1.5l-0.4,0.3l-1.4,0.3l-0.8,0.3l-0.5-0.3l-0.3-0.9l-0.6-0.3l-0.4,0.8l-1.4,1.2l-0.4,0.8
	l-0.4,0.5l-0.2-0.3l-0.7-0.4l-1.7-0.3l-0.8,0.2l-1,1.6l-0.8,0.8l-0.9,0l-0.3-1l-0.5-0.7l-1.3,1.7l-1.4,1.6l-0.6,0.5l-0.8,0.1
	l-0.9-0.2l-0.9,0.5l-0.8,0l-0.6-0.4l-0.3-0.6l0.1-0.8l-0.1-0.6l-0.4-0.4l-1.2,0.4l-0.6-0.5l-1.2,0.5l-1.4-0.5l-1.1-1.3l-1.2-0.9
	l-0.3-0.3l-2.4-1.2l-1-0.6l-1.7-2.1L365,347l-0.4-0.3l-2.5-1.7l-1.2-1.8l-1.4-1.1l-1.4-0.7l0.3-0.8l-0.4-1.3l-1.2-1.6l-1.4-1.4
	l-1.4,0.7l-0.9-0.2l-1.2,0.4l-0.8,0.6l-1.1,0.6l-0.2-1l0.2-1l-0.6-1.2l-0.7-1l0.5-0.6l0.9-0.1l0.8-0.5l-0.1-2l-0.3-1.7l-1.3-0.2
	l-1.2,0l-1.6-0.5l-1.4-0.9l-0.7,0.2l-0.4,0.4l-0.9-0.3l-0.5-0.5l-0.9,0.2l-0.1-0.6l0.3-1l-0.2-1.2l-0.8-0.8l0.2-0.9l0.6,0l-0.1-0.8
	l-0.5-1.2l-0.1-1.8l-0.7-0.5l-0.7-0.7l0.4-1.6l-0.3-1.1l-0.1-0.2l-1.5-2.1l-0.6-0.6l-0.5,0.1l-1.9,0.1l-0.7,0.2l-0.9-0.3l0.5-0.4
	l0.3-0.4l-0.6-1.2l0.2-1.1l-0.7-1.1l-0.1-1.4l0.7-1.1l-0.8-0.2l0.3-1.4l0-1.4l-0.2-0.5l-0.1-1.2l-0.6-2.2l-0.9-2.2l-0.1-1.5l1-4.2
	l0.4-1.2l-1.1-1.1l-2.9-1.6l-0.2-1.8l0-0.6l-0.6-0.6l0.2-1.2l-1.5-0.9l-0.4-1.1l0.2-1.6l-0.9-1l-1-0.2l-0.9-0.3l-0.3-0.1l-1.3-1.1
	l-0.9-2.9l-0.5-1.1l-0.5-2.3l0.7-4.1l0.1-1.4l-0.1-1.5l0.1-1.2l0.7-1.3l0.3-2.7l0.5-0.9l1,0.4l1.2,0.2l1.1-0.4l1.1,0l-0.1-0.9
	l-0.2-1l0-0.3l0-1l0.4-0.6l-0.2-1l0-0.5l0.6-0.5l0.5-1.7l0-0.7l0.2-0.7l0.6-0.3l-0.3-1.7l-0.1-0.6l-0.1-1.1l-0.6-1l0.3-0.9l-0.3-1.6
	l-0.5-1.6l-1.3-2.1l-0.5-1.8l-0.2-2.9l1.5-1.7l0.1-0.6l0.4-0.4l1-0.6l1.7,0.4l0.4,0.6l0,0.9l0.9,0.7l1.1,0.4l0.7,0l0.1,0.5l0.9-0.1
	l0.7-1.2l2-2.5l1-1.8l0.8-0.6l0.7,0.3l0.5-1l0.6-0.2l1,0.2l0.3,1.2l1.3,1.2l1.3,1.5l1.5,0.8l0.4,0.4l0.7-0.5l0.4-0.5l0.8-0.4
	l1.1-0.1l2.2-1l1.8-0.3l1.4-0.1l0.9,0.3l0.9-0.1l1.1-0.5l0.4,0.8l0.1,2l1.8,1.8l0.6,0.8l1.5,0.7l0.5,1.9l0.1,1.8l-0.1,1.2l-0.3,1.3
	l1.4,2.9l1.2,1.7l0.4,1.3l1.6,2.5l0.8,1.4l0.3,1.5l0.1,1.7l0.3,1.1l2.9,4.9l0.2,0.7l0.5,0.3l-0.4,1.9l0.2,0.8l0,0.6l1.2-0.1l1.1,0.4
	l0.5,0.5l1.4-1.1l1.1-0.3l1.9,0.1l5.4-0.1l0.6-0.3l0.9-0.2l-0.2,1.5l-0.3,0.9l1.3,0.7l0.4,1.1l-0.2,1l0.9,1.7l-0.2,1l0.5,0.9
	l-0.1,0.9l0.9,1.5l0.3,0.7l0.4,1.5l0,0.9l0.2,1.2l0,1.6l0.5,1.6l0.9-0.6l0.1,0.2l0.1,0.2l1.3,0.5l0.9,1l1.4,0.4l1.8,1.4l1.3,1.7
	l2.5,4.4l-0.8,1.3l0.9,4.9l0.1,1.7l-0.3,1.9l-0.3,1l0.5,2l-0.1,2.2l-0.3,1.2l0.5,1.7l0.9,1.3l0.7,1.3l-0.4,0.8l0.1,2.7l0.5,1.5
	l0.2,2.3l0.3,1.9l0.6,2l0.7,1.4l0.8,0.5l1.6,2l0.6,0.6l0.8,0.8l0.7,0.4l0.5,0.5l0.4,0.9l0.1,0.8l-0.3,0.8l0.1,0.5l-0.2,0.7l0.7,0.7
	l-0.1,0.4l0.4,0.5l-0.2,1.1l0.2,0.8L409.9,337.1z"/>
<path id="Shimla" class="st0" d="M426.1,428.3l-1.1-0.8l-0.7-0.2l-0.9-0.6l-1-0.2l0.4-0.9l-0.3-0.6l0-1l-0.1-0.6l-0.3-0.4l-0.1-1.4
	l0.1-1.6l0.3-0.8l-0.7-0.6l-0.2-0.7l-0.9-2.4l-0.8,0.2l-0.6-0.1l-0.5-0.2l-1.1,0.5l-1-1.1l-1.3-0.4l0.5-1l0.1-1.4l-0.3-1l-0.5-0.7
	l-0.4-0.5l-0.2-1.1l-0.2-0.8l-0.4-0.4l-0.4-0.7l-0.7-0.6l-0.1-0.2l2.1-1.1l0.7-0.6l0.8-1.2l-0.1-0.8l0-1l0.1-1l0-0.7l-0.2-1.3
	l-1-1.5l-0.6-0.4l-0.5-0.5l-0.1-0.3l-0.5-0.4l-0.2-0.5l-0.8-0.2l-0.1-0.1l-0.6-0.6l-1.2-1.1l-2.4-1.6l-0.1,0.8l-1.1,1.1l-3,1.4
	l-0.4,0.8l-0.4,1l-0.3,0.4l-0.3,0.4l-0.2,0.7l-0.4,0.6l-0.5,0l-0.5,0.6l-0.5,0.4l-0.8,0.2l-0.2,0.6l0,1.2l-0.6,0.8l-0.9,0l-0.8,0.4
	l-0.7,0.7l-1,0.6l-0.3,0.6l-0.2,1.4l-0.7,1l-1,0.5l-0.1-1l-0.2-0.8l-0.3-0.7l0-0.8l0.8-0.4l0.5-0.8l-0.6-0.7l-0.6-0.5l-0.7-0.7
	l-1.8-0.9l-0.8,0l-0.7-0.1l-0.5-0.4l0-0.7l0.3-0.4l0.3-0.8l0.2-0.7l-0.1-0.7l-0.5-0.7l-0.6-0.6l-0.2-0.2l-1.3-1.3l-0.7,0l-0.2,0.2
	l-0.2,0.1l-0.7,0.4l-2.6-0.6l-0.5-1.9l-1.8-1.3l-1.1-0.4l-0.8,0.2l-0.9-0.1l-1.5-1l-0.7-0.8l-0.8-0.4l-0.8-0.2l-0.7-0.5l0.4-0.7
	l1.1-0.3l0.1-0.9l0.6-0.6l-0.8-2.1l-0.2-0.9l-0.6-0.3l-0.4,0.3l-0.7-0.4l-0.7-0.3l-0.8,0.7l-0.6,0.8l-0.4,1.2l-0.5,0.6l-0.5-1.8
	l-0.8-0.3l-0.2-0.9l0.1-0.7l1.1-0.5l0.6-0.7l1-0.1l0.7-0.6l-0.5-1l-0.6-0.9l-0.8,0.2l-1,0l-0.3,0.7l-0.2,0.2l-1,0l-2,0.6l-0.9-1
	l0-0.4l0-0.3l0.4-0.1l0.5,0.4l0.7,0.1l0.4-0.2l0.2-0.4l-0.1-1.9l0.2-1l2.1-2.4l0.4-1l-0.9-1.5l-1.5-1l-0.8-1l-0.2-1.1l-0.1-1.1
	l0.2-1.2l0.6-1l1.2-1.4l-0.7-1.2l-0.1-1.2l-0.9-0.5l0.8-4l0.4-1.4l-0.1-1.1l-1.3-3l1.7,1.4l1.7,2.1l1,0.6l2.4,1.2l0.3,0.3l1.2,0.9
	l1.1,1.3l1.4,0.5l1.2-0.5l0.6,0.5l1.2-0.4l0.4,0.4l0.1,0.6l-0.1,0.8l0.3,0.6l0.6,0.4l0.8,0l0.9-0.5l0.9,0.2l0.8-0.1l0.6-0.5l1.4-1.6
	l1.3-1.7l0.5,0.7l0.3,1l0.9,0l0.8-0.8l1-1.6l0.8-0.2l1.7,0.3l0.7,0.4l0.2,0.3l0.4-0.5l0.4-0.8l1.4-1.2l0.4-0.8l0.6,0.3l0.3,0.9
	l0.5,0.3l0.8-0.3l1.4-0.3l0.4-0.3l0.9-1.5l0.5-0.3l0.8-1.5l0.8-0.1l0.6-0.7l0.3-1.1l0.3-2.7l1.3-3.6l0.6-1l0.7-0.7l0.9-0.4l0.8,0
	l0.8,0.1l0.1-0.5l0.6,0.3l0.6,0.1l0.6-0.4l0.5,0.8l1.5,1.7l0.6-0.1l0.7,0.8l0.8-0.4l1.2,0.2l0.9-0.7l2.6-0.4l0.3-0.4l2.3-0.5
	l1.1,0.1l1.3,0.6l0.9,0l0.7-0.3l0.9-2.4l1-2.1l0.7-0.7l1-0.3l1,0.3l2.3-1.4l1.1-0.1l1.2,0.4l1.1,0.8l1.2-0.4l0.5-1l-0.9-2.6
	l-0.4-1.5l0.2-2.4l0.4-1.1l0.5-0.6l1-0.7l1.6-0.7l1-0.2l1-0.5l0.6-1l0.6-1.3l0.8-1.4l1.5-1.4l0.6-0.2l0.3-0.9l-0.7-1l-0.3-1.5
	l0.4-1.7l-0.6-1.9l-0.9-0.5l-0.8-0.8l-0.5-1.6l-0.7-0.2l-1.1-1.7l-1-1l-0.4-2.2l-0.4-1l-0.1-1.1l0-1.1l0.3-1.8l0.2-0.7l0.7-0.3
	l0.4-0.5l-1.3-2.6l-0.3-0.3l-0.2-0.7l0.1-0.4l0.4-0.7l0.8-0.8l0.3-1.4l0.9-0.6l1.1-2.5l0.7-0.7l1-0.1l1.7,0.2l0.8-0.2l2.2-1.6
	l0.9-0.1l0.9,0.2l0.5,0.9l1,0.5l1,0.1l1.4,1.4l0.7,1.2l0.4,1.3l0.2,0.8l1.1,0.7l1,1l0.4,0.9l0.5,2.2l0.5,0.8l-0.1,0.9l-0.9,2.4
	l-0.2,0.9l0.7,0.9l1.8,3l0.4,1l-0.4,2.6l0.1,1.4l0.5,1.3l0.3,1.3l0.2,1.5l-0.1,1l-0.4,1.2l0,1l1.2-0.2l0.5,0.4l0.4-0.9l0.5,0.6
	l0.7,0.6l0.2,1l1,1l0.4,0.7l0.1,1l-0.4,1.5l1,0.8l0.8,0.8l0.4,0.6l0.5,2.1l0.7,0.4l0.4,0.7l0.5,0.5l0.6,0.2l0.7,1.1l0.5,0.3l1.4-0.2
	l0.5,0.2l1.4,1.2l0.3,1.8l1.5,0.1l2.2-0.5l0.5,0.3l1,0l0.7-0.2l1.2,0.4l0.5-0.2l0.5-0.4l1.7-1.6l0.8-0.6l1.7,0.5l0.5-0.3l0.7,0
	l0.8-0.6l0.3-0.1l0.6,0.2l1.1,0.1l0.1,0.6l0.7,1l0.7,0.1l1.1,0.5l0.4,0.4l0.7,1.1l0.6,0.3l0.7,1.1l0.8-0.5l0.7,0.5l0.4,0.6l0.3,0.9
	l-1.5,2.8l0.8,1.6l0.5,0.8l0.9,0l1,1.2l0.7-0.1l2,1.2l0.7,0.1l0.7,0.5l0.6,0l0.7-0.4l0.4-0.5l0.8-0.5l0.7-1l0.4-0.2l0.3,0.2l0.2,0.6
	l0.4,0.4l0.3,0.6l0.5,0.4l1.7,0.5l2,0.1l1.2,1.4l-0.5,0.9l0,0.8l-0.3,0.8l0,1l1.3,1.1l0.8,0.4l-0.2,0.6l-0.2,1.8l-0.2,1.1l-0.6,0.3
	l-1.2-0.4l-1.1-0.7l-1.3,1.7l-0.4,0.6l-0.2,0.6l-0.4,0.4l-0.2,0.6l-0.7,0.5l-0.6-0.1l0,0.6l-0.6,0.7l-1.7-0.6l-0.7,0l-0.6,0.2
	l-0.3,0.5l-0.4,1.3l-0.9,0.4l-0.6,0.1l-0.3-0.2l-1-1l-0.6-0.3l-0.7,0.1l-0.3-0.1l-0.3-0.1l-0.6,0.3l-0.3-0.1l-0.6-0.1l-0.2,0.7
	l-0.3,0.4l-0.8,0.3l-0.3,1l-1.8,0.3l-0.6,1.2l-0.5,0.1l-0.3,0.5l-0.7,0.4l-1,1.1l-0.5,0.3l-0.9,0l-0.5-0.3l-0.5,0l-1.4,0.1l-0.6-0.1
	l-1.7,0.8l-0.1,0.1l-1,0.3l-0.4,0.8l-1.2,1.4l-0.1,0.8l0.1,1.2l-0.3,0.6l-0.8-0.3l-1.8-1.6l-0.9-0.2l-0.7,0.2l-1.1,0.2l-1.7-2.1
	l-1,0.4l-0.6,0.8l-0.2,0.6l-0.6,0l-2.3,1.7l-0.6,0.2l-0.8-0.5l-1.1,0.2l-0.6,0.4l0.3,0.9l-0.5,0.9l-0.6,0.9l-0.2,0.9l0,1.1l-0.7,0.2
	l-1.7,1.1l-0.7,0.8l-0.2,1.1l0,1.4l-0.9,2.2l-0.6,0.6l-0.8,0.1l-0.7,0.4l-0.6,1.5l-0.6,0.6l-0.6,0.2l0-0.3l-0.3-0.1l-0.7,0l0.5,0.5
	l0,0.7l0.7,1.6l0.5,1.5l0.4,0.3l0.3,0.4l-0.1,1.4l-0.3,0.8l0.5,0.6l0.3,0.6l-0.1,0.5l-1.7,0l0,0.5l0.4,0.5l-0.3,0.6l-0.4,0.2
	l-0.2,0.9l0,0.5l0,0.2l-0.1,0.3l-0.2,0.3l-0.5,0.6l-0.2,0.5l-0.1,0.5l0.1,0.3l0.5,0.7l0.4,0.4l1-0.2l0.4,0.1l0.3,0.3l0,0.5l-0.3,0.5
	l-0.5,0.1l-0.6-0.1l-0.6-0.2l-0.7-0.5l-1.1-1.1l-1.1-1l-0.9-0.5l-0.8-0.2l-1.2,0l-1.4,1.4l-0.7,0.6l-0.2,0.6l-0.2,1.6l0.2,0.9
	l0.1,0.3l0.1,0.4l0.3,0.5l0.5,0.2l0.3,0.2l0.1,0.8l-0.2,1l0.8,0.2l0.7,0.1l0.6,0l0.5-0.1l0.5-0.6l0.3-0.2l0.9-0.1l0.8,0l0.3,0l0.3,0
	l0.3,0.3l-0.1,0.5l0.3,0.6l0.4,0.6l-0.2,0.6l-0.5,0.8l-0.4,0.4l-0.5,0.7l-0.1,0.4l-0.1,0.8l0,1l-0.1,0.5l0,1l0.4,0.6l0.2,0.5l0.1,1
	l-1.3-0.2l-0.6-0.2l-0.5-0.3l-0.4-0.3l-0.3-0.5l-0.1-1.1l-0.2-0.4l-0.2-0.4l-0.4-0.3l-0.4,0l-0.4,0.1l-0.4,0.2l-0.3,0.5l-0.1,0.6
	l0,0.7l0.1,0.9l-0.2,0.6l-0.5,0.5l-0.3,0.4l-0.2,0.5l0.2,0.5l0.9,1.1l0.4,0.6l0,1L453,422l-0.3,0.2l-0.4,0.3l-0.4,0.7l-0.5,0.8
	l-0.3,0.5l-0.5,0.4l-0.2,0.5l-0.1,0.9l-0.2,0.8l-0.8,1.5l-0.5,0.9l-0.7,0.9l-0.7,0.3l-0.5,0.4l-0.7-0.7l-0.6-0.7l-0.4-0.7l-0.2-0.7
	l-0.1-0.7l-0.5-0.5l-0.7-0.3l-0.5-0.6l-0.3-0.6l-0.4-0.3l-0.5,0.4l-0.1-0.5l-0.2-0.6l-0.4,0.4l-0.6-0.1l-1.5-0.4l-0.9,0l-0.5-0.1
	l-0.2,0.6l-0.1,0.4l0,0.6l-0.1,0.7l-0.4,0.6l-0.6,0.3l-1.2,1.2l-0.9,0.5l-0.9,0.3l-1,0l-0.9,0.1l-1-0.1l-1,0l-0.7,0.3l-0.4,0.2
	l-0.1-0.4l0.5-0.8l0.2-0.4l0.4-1.4l0-0.6l-0.5-0.2l-0.7-0.1l-0.5,0l-0.6,0.1l-0.4,0.3l-0.2,0.5L426.1,428.3z"/>
<path id="Sirmaur" class="st0" d="M460.1,471.2l-0.2,0.3l-0.6,0.4l-0.7,0.4l-2.4,0.3l-0.5,0.6l-1,0.3l-0.9,0.7l-1.3,1.1l-0.9,0.8
	l-0.9,0.7l-1.2,0.1l-0.8,0.6l-0.6,0.7l-1.1,0.9l-0.9,0.8l-0.4,0.9l-2,0.5l-1-0.1l-0.8-0.5l-0.8,0l-0.3,0.4l-0.3,0.8l-0.3,0.7
	l-0.3,0.6l-1.6,0l-0.6-0.3l-1,0.1l-1.6,0.6l-1.1,0.5l-0.8,0.6l-0.8,0.8l-0.6,0.7l-0.1,1.1l0.1,0.9l0.6,0.9l0.6,0.9l0.4,0.5l-0.1,0.8
	l-1.1-0.1l-0.9-0.9l-0.6-0.5l-1.1-0.6l-0.5-0.7l-0.4-1.1l-0.7-0.7l-0.4-0.6L427,484l-0.4-1.3l-0.5-1.5l-0.5,0.1L425,482l-1,1.7
	l-0.2,1.3l0,1.2l-0.5,0.7l-0.5-0.4l-0.6,0.3l-1.1,0.2l-0.8,1l-0.9,0.1l-1.2,0l-0.9,0.1l-0.5-0.6l-1.6-0.1l-0.1-0.7l0.6-0.6l0.6-0.5
	l1.6-0.7l0.3-0.9l1.3-1.6l0.1-0.9l0.3-0.9l-0.1-1l-0.7-1.1l-0.6-0.1l-1.2,2.3l-1.1,1.5l-1.1,1.1l-1.1,0.9l-0.8,1.4l-0.6-0.3l0.2-1.5
	l-0.3-0.6l-1.4-0.8l-0.2-1.1l-0.5,0l-0.8,0.1l-1.5,0.6l-0.4-1l-0.4-1.4l-0.4-0.7l-0.8-0.3l-0.8-0.1l-0.8,0.2l-0.5,0.2l-0.7,0.7
	l-0.7,0.6l-1.2-0.5l-0.8-0.4l-1.3-0.4l-0.9-0.3l-1.3-0.4l-0.2-0.7l-0.1-0.8l-0.5-0.8l-0.6-0.5l-1.2-0.1l-1-0.3l-0.8-0.2l-0.9,0.4
	l-0.8,0.6l-1.1,0.2l-0.4-0.7l0.1-0.7l-0.1-1.6l0-1.2l-0.4-0.8l-0.6-1.2l-0.6-1l-1.3-0.7l-0.6-0.4l-0.7-0.2l-1.4-0.4l-0.8-0.1
	l-0.9-0.1l-0.8-0.5l-1-1l-0.7-1.4l-0.3-0.8l-0.3-0.8l0.2-0.1l0.3-0.3l0.6-0.2l0.4-0.2l0.2-0.2l0.8-0.7l0.8-0.7l0.8-0.9l0.5-0.6
	l0.3-0.5l0.4-0.5l0.1-0.6l0-0.7l0-1l0.1-2.8l0.3-1.1l-0.2-0.6l-0.5-0.9l-0.4-1l0-0.7l0.3-1.5l-0.2-1.4l-0.4-0.7l-0.1-0.5l0.4-0.7
	l-0.2-0.3l-0.5-0.5l-0.8-0.6l-0.8-0.7l-1-0.8l-0.3-0.8l-0.6-0.9l-0.9-0.7l-0.8,0.3l-0.4-0.3l0-0.6l0.3-0.7l-0.2-0.3l-0.5-0.3
	l-0.6-0.2l-0.6-0.6l-1.1-0.8l-0.8-0.3l-0.9,0.1l-0.8-0.1l-0.9-0.3l-1.1-0.7l-0.5-0.4l-0.4,0.6l0,0.8l-0.2,0.5l-0.5,0.3l-0.7,0.2
	l-0.6-0.3l-0.4-0.5l-0.3-0.6l-0.2-0.5l0.3,0l0.4,0.2l0.6,0l0.2-0.5l0-0.7l0.2-0.6l0.3-0.4l1.1-0.7l0.8-0.9l2.3-1.6l0.7-0.5l0.7-0.8
	l0.4-0.7l-0.1-1.3l0.2-1l0.3-0.9l0-0.9l0-0.7l-0.1-0.6l0.6-0.3l0.6-0.3l0.5-0.1l0.4-0.2l0.2-0.3l0.2-0.5l0.8-0.7l0.5-1.4l0.7-0.1
	l0.7,0l0.5-0.2l0.7,0.1l0.4,0.2l0.4,0.1l0.3-0.6l0.5,0.1l0.2,0.6l0.7,0.7l0.4,0.5l0.6,0l0.7-0.2l0.4-0.5l-0.1-0.9l0.1-1l0.5,0
	l0.7-0.1l0.6-0.4l0.3-0.5l0.5-0.4l1.4-0.8l-1-1.9l1-1.2l0-0.9l0.3-0.3l0.5,0.2l0.4,0.3l0.4,0l0.4-0.2l0.4-0.2l0.2-0.6l0.5-1.2
	l0.7-0.8l1-0.5l0.7-1l0.2-1.4l0.3-0.6l1-0.6l0.7-0.7l0.8-0.4l0.9,0l0.6-0.8l0-1.2l0.2-0.6l0.8-0.2l0.5-0.4l0.5-0.6l0.5,0l0.4-0.6
	l0.2-0.7l0.3-0.4l0.3-0.4l0.4-1l0.4-0.8l3-1.4l1.1-1.1l0.1-0.8l2.4,1.6l1.2,1.1l0.6,0.6l0.1,0.1l0.8,0.2l0.2,0.5l0.5,0.4l0.1,0.3
	l0.5,0.5l0.6,0.4l1,1.5l0.2,1.3l0,0.7l-0.1,1l0,1l0.1,0.8l-0.8,1.2l-0.7,0.6l-2.1,1.1l0.1,0.2l0.7,0.6l0.4,0.7l0.4,0.4l0.2,0.8
	l0.2,1.1l0.4,0.5l0.5,0.7l0.3,1l-0.1,1.4l-0.5,1l1.3,0.4l1,1.1l1.1-0.5l0.5,0.2l0.6,0.1l0.8-0.2l0.9,2.4l0.2,0.7l0.7,0.6l-0.3,0.8
	l-0.1,1.6l0.1,1.4l0.3,0.4l0.1,0.6l0,1l0.3,0.6l-0.4,0.9l1,0.2l0.9,0.6l0.7,0.2l1.1,0.8l0.4-1.5l0.2-0.5l0.4-0.3l0.6-0.1l0.5,0
	l0.7,0.1l0.5,0.2l0,0.6l-0.4,1.4l-0.2,0.4l-0.5,0.8l0.1,0.4l0.4-0.2l0.7-0.3l1,0l1,0.1l0.9-0.1l1,0l0.9-0.3l0.9-0.5l1.2-1.2l0.6-0.3
	l0.4-0.6l0.1-0.7l0-0.6l0.1-0.4l0.2-0.6l0.5,0.1l0.9,0l1.5,0.4l0.6,0.1l0.4-0.4l0.2,0.6l0.1,0.5l0.5-0.4l0.4,0.3l0.3,0.6l0.5,0.6
	l0.7,0.3l0.5,0.5l0.1,0.7l0.2,0.7l0.4,0.7l0.6,0.7l0.7,0.7l0.4,1.3l0.2,0.4l-0.1,0.4l-0.2,0.6l0.1,0.5l0.3,0.3l0.4,0.2h0.4l0.4-0.1
	l0.3,0l0.2,0.2l0.3,0.3l0.1,0.4l0.3,0.2l0.3-0.1l0.3,0.1l0.2,0.3l0.1,0.5l0,0.4l0.4,0.5l0.6,0.4l0.2,0.6l0.2,0.6l0.3,0.5l0.4,0.4
	l-0.1,0.6l-0.4,0.3l-0.1,0.5l-0.3,0.6l0,0.6l0,1.2l0.4,0.5l0.7,0.4l0.6,0.4l0.7,0.3l0.5,0.6l0.5,0.6l0.3,0.5l0.4,0.2l0.3-0.2l0.2,0
	l0.3,0l0.2,0.3l-0.5,0.8l-0.5,0.5l-0.2,0.6l0.5,1l0.3,0.6l0.1,0.6l-0.4,0.8l-0.1,0.6l0.6,0.4l0.4,0.5l0.3,0.5l-0.4,0.2l-0.8,0
	l-0.6-0.1l-0.7-0.2l-0.6-0.1l-0.1,0.6l0.2,1.8l-0.3,0.6l-0.6-0.1l-0.8-0.9l-0.5-0.1l-0.4,0l-0.3,0.2l-0.1,0.4l0,0.5l-0.2,0.5
	l0.3,0.3l0.8,0.5l0.6,0.5l0.3,0.8l0.4,0.7l0.3,0.8l0.2,0.7l0.4,0.7l0.5,0.4l0.5-0.1l0.5,0.2l0.4,0.5l0.4,0.2l1-0.6l0.5,0.2l0.5-0.1
	l0.4-0.5l0.6,0.1l0.3,0.5l0.1,1l0,0.8l0.4,0.8l0.3,0.9l-0.2,0.8l-0.7,1.3l-0.1,0.7l-0.3,0.8L460.1,471.2z"/>
<path id="Solan" class="st0" d="M363.8,376.7l0,0.4l0.9,1l2-0.6l1,0l0.2-0.2l0.3-0.7l1,0l0.8-0.2l0.6,0.9l0.5,1l-0.7,0.6l-1,0.1
	l-0.6,0.7l-1.1,0.5l-0.1,0.7l0.2,0.9l0.8,0.3l0.5,1.8l0.5-0.6l0.4-1.2l0.6-0.8l0.8-0.7l0.7,0.3l0.7,0.4l0.4-0.3l0.6,0.3l0.2,0.9
	l0.8,2.1l-0.6,0.6l-0.1,0.9L373,386l-0.4,0.7l0.7,0.5l0.8,0.2l0.8,0.4l0.7,0.8l1.5,1l0.9,0.1l0.8-0.2l1.1,0.4l1.8,1.3l0.5,1.9
	l2.6,0.6l0.7-0.4l0.2-0.1l0.2-0.2l0.7,0l1.3,1.3l0.2,0.2l0.6,0.6l0.5,0.7l0.1,0.7l-0.2,0.7l-0.3,0.8l-0.3,0.4l0,0.7l0.5,0.4l0.7,0.1
	l0.8,0l1.8,0.9l0.7,0.7l0.6,0.5l0.6,0.7l-0.5,0.8l-0.8,0.4l0,0.8l0.3,0.7l0.2,0.8l0.1,1l-0.7,0.8l-0.5,1.2l-0.2,0.6l-0.4,0.2
	l-0.4,0.2l-0.4,0l-0.4-0.3l-0.5-0.2l-0.3,0.3l0,0.9l-1,1.2l1,1.9l-1.4,0.8l-0.5,0.4l-0.3,0.5l-0.6,0.4l-0.7,0.1l-0.5,0l-0.1,1
	l0.1,0.9l-0.4,0.5l-0.7,0.2l-0.6,0l-0.4-0.5l-0.7-0.7l-0.2-0.6l-0.5-0.1l-0.3,0.6l-0.4-0.1l-0.4-0.2l-0.7-0.1l-0.5,0.2l-0.7,0
	l-0.7,0.1l-0.5,1.4l-0.8,0.7l-0.2,0.5l-0.2,0.3l-0.4,0.2l-0.5,0.1l-0.6,0.3l-0.6,0.3l0.1,0.6l0,0.7l0,0.9l-0.3,0.9l-0.2,1l0.1,1.3
	l-0.4,0.7l-0.7,0.8l-0.7,0.5l-2.3,1.6l-0.8,0.9l-1.1,0.7l-0.3,0.4l-0.2,0.6l0,0.7l-0.2,0.5l-0.6,0l-0.4-0.2l-0.3,0l0-0.8l0.1-0.7
	l-0.2-0.7l-0.2-0.2l-0.4-0.2l-0.4-0.3l-0.5-0.4L365,430l0.3-0.6l0.5-0.7l0.6-0.6l0-0.8l0.1-0.6l-0.1-1.1l-0.1-0.8l-0.1-0.7l-0.2-0.4
	l-0.4-0.2l-0.5,0.5l-0.2,0.3l-0.2,0.4l-0.2,1l-0.4,0.9l-1.2-1.4l-0.8-0.2l-0.9-0.3l-0.7-1.9l-0.6-0.9l-1.1-0.4l-0.7-0.8l0-1.7
	l-0.1-1l-1.3-2.3l-1-3.4l-0.6-1l-1.8,1.4l-0.9,0.4l-1,1.2l-0.9,0.7l-1.1,0.4l-1.8-1.3l-1.7-1.4l-0.8-1.2l-0.7-1.7l0.5-2.3l-0.1-0.9
	L344,406l-1.3,0.9l-3.4,2.9l-1.9-1.8l0-0.8l-0.6-0.1l0-0.8l-0.6,0l-0.6-0.2l-1.4-1.4l-0.1-0.5l-0.2-1.3l-1.4-2l-0.9,0l-0.8-0.9
	l-0.3-0.5l-0.2-0.1l-3.1,0.4l-0.7-0.2l-1.1-1.7l-2.3-1.4l-0.9-0.3l-0.6-0.9l-1-0.6l-0.3-0.3l0.4-2.8l-1-1.8l-0.4-1.6l-0.3-1.6
	l1.2-1.1l-0.5-2.8l0.3-0.8l0.5-2l1.6-2.2l-0.2-1.2l-1-0.6l-1,0.3l-1.2-1l-1-0.2l0.5-1.4l0.6-2.3l-0.5,0l-0.5-0.9l0.2-0.5l-0.2-0.7
	l0.4-1.2l-0.2-1.7l0.9-0.6l0.3-0.7l0.6-1l0.8-0.9l0.8-0.2l0.2-0.4l1.8-1l1.7-0.4l0.9-0.5l2.6-0.3l0.7-0.6l0.7-0.4l0.9-0.4l1.1-0.6
	l0.7-0.6l0.5-0.9l0.6,0.1l0.8,0.5l0.4,0.5l1,0.7l1.2,0.1l0.8,0.2l0.5,1l2.3-0.9l1-0.6l0.6,0.3l0.6,0l0.8,0.5l0.1-0.1l0.5,0l0.8-0.9
	l0.8,0.3l0.6,0.9l1.3,0.8l1.5,0l1.1-0.8l-1.1-1.8l-0.5-1.7l-0.4,0l0.6-1.7l0.5-0.8l0.7-0.1l0.9-0.5l0.8,0.2l0.3-0.5l-0.4-0.9
	l0.3-0.7l0.7-0.3l0.7-0.1l0.7-0.5l0.5-0.8l0.9-2l-0.6-0.2l-0.4-1.6l-0.8-0.4l-1,0.1l-1.1-0.5l-1.7-1.3l-0.5-0.6l0.7-1.4l-0.5-0.9
	l-0.2-0.6l0-0.6l0-0.1l1.1-0.6l0.8-0.6l1.2-0.4l0.9,0.2l1.4-0.7l1.4,1.4l1.2,1.6l0.4,1.3l-0.3,0.8l1.4,0.7l1.4,1.1l1.2,1.8l2.5,1.7
	l0.4,0.3l1.3,3l0.1,1.1l-0.4,1.4l-0.8,4l0.9,0.5l0.1,1.2l0.7,1.2l-1.2,1.4l-0.6,1l-0.2,1.2l0.1,1.1l0.2,1.1l0.8,1l1.5,1l0.9,1.5
	l-0.4,1l-2.1,2.4l-0.2,1l0.1,1.9l-0.2,0.4l-0.4,0.2l-0.7-0.1l-0.5-0.4l-0.4,0.1L363.8,376.7z"/>
<path id="Una" class="st0" d="M293.8,331l-1-0.5l0.3-1.3l-0.7-0.9l-0.7-2.1l-0.7,1.8l0.3,2.2l-0.7,0.5l-0.7,1.1l-1.4,0.3l-0.6,0.4
	l-1.6-0.2l0.3,2.2l-0.1,1.1l1.3,0.2l0.1,1.8l0.2,1.3l0.6,0.9l-0.8,1.2l-0.7-0.3l-0.8-0.8l-0.2,0.7l-1.9,0.6l-0.5,0.2l0.7,2.5
	l-0.7,1.1l-0.7,0.6l-0.7,0.3l-0.8,0.6l-1,0.5l-0.8,0.1l-0.6-1.4l-1.3,0.2l-2.5,0.1l-1,0.8l-1,0.4l-2.4,0.1l-1.5-0.3l-0.5-1.2
	l-0.3-1.9l0-2.4l-1-0.9l-1.2-0.2l-1-0.8l-0.5-1.3l-0.1-3.3l0.5-0.7l1-0.8l0.7-0.8l0.4-1.1l-0.4-1.5l-0.8-0.8l0-1.1l-0.4-1l-1-0.8
	l-0.8-1l-0.7-1.6l-0.2-1.1l-0.7-0.7l-0.1-1.3l-0.8-1.4l0-2l-0.5-1.1l-1.1-1.9l-0.5-0.7l-0.2-1.4l-0.6-1.5l-0.8-1.4l-0.6-1.3l-0.7-1
	l-0.1-0.2l-1.6-3.1l-1-1.6l-0.1-0.6l0.2-1.1l-0.5-0.8l-0.4,0.3l-0.6-0.4l-1-0.9l-0.7-1l-1.7-3.9l0.4-0.8l-0.3-0.9l0.1-1l-0.9-0.9
	l0-1.1l-0.3-0.9l-0.3-0.5l-0.1-0.2l0,0.2l-0.6-0.1l-1.2-1.6l0.2-1.5l-0.6-1.6l-0.4-0.7l-0.4-2.2l-0.6-0.5l-0.4-0.6l0.3-0.6l0-0.8
	l-0.9-2.1l-0.8-2.9l-1-0.5l-0.1-0.8l-0.3-1.1l-0.7-1.3l-0.6-1.9l0.6,0.1l0.3,0.2l0.5,0l0.3-0.5l1.5-0.8l0.5-0.1l0.9,0.9l0.8,0.6
	l0.5,0.1l-0.1-0.7l-0.4-0.7l-1.4-1.4l-0.3-1.2l-0.5-1.3l-0.6-1.5l1.3,0.4l1.1,0.6l1.2-0.1l1.2-0.2l0.2-0.7l0.8-1.2l3.5-0.1l1.1,0.4
	l0.8,1.1l2.2,2.4l1.2-0.8l0.3,2l0.1,0.1l0.6,1.1l1.4,0.7l1.5,2.1l2,0.8l3.3,0.6l0.7,0.4l0.7,0.8l1,0.7l0.5,1.2l-0.2,1l0.8,0.3
	l0.6-0.6l1.1-0.1l0.6,0.7l0.1,0.8l1.6,3.2l2.9,3.2l0.3,0.6l0.7,0.6l1.7,1.4l0.9,1.1l0.6,1.2l0.6,0.7l0.6-0.7l2.1-4.5l0.2-0.3
	l0.1,0.5l0.6,0.9l1,2.7l0.9,1.9l1,1.2l0.9,1.7l0.6,1.9l1.2,1.8l1.2,0.9l1.9,2.2l-0.1,0.8l0.2,0.2l0.5,0.5l0.9,3.2l2.9,7l0.4,0.8
	l0.4,0.6l-0.3,1.5l0.1,0.4l-0.2,0.4l0.4,1.3l0.7,1.7l1.6,2.7l-0.7,0.5l0.7,1.6l1.4,2.3l-0.5,1.5l-0.2,0.4l0.8,0.3l0.8-0.1l0.1,0.5
	l-0.6,0.3l0,1.5l-0.2,1l-0.2,0l-0.4,0l-0.8,0.3l-1.3,0.9l-0.9,0.3l-0.8,0.5l-2.1-0.2l-2.2-2.2l-0.4,0.8l0.1,1.4L293.8,331z"/>
<path class="st1" d="M15,10"/>
<text transform="matrix(1 0 0 1 303.7715 343.1826)" class="st2 st3">Bilaspur</text>
<text transform="matrix(1 0 0 1 264.2372 159.9594)" class="st2 st4">Chamba</text>
<text transform="matrix(-4.846751e-02 -0.9988 0.9988 -4.846751e-02 316.8821 318.0696)" class="st2 st3">Hamirpur</text>
<text transform="matrix(1 0 0 1 266.7915 225.8951)" class="st2 st4">Kangra</text>
<text transform="matrix(1 0 0 1 504.1626 301.0263)" class="st2 st4">Kinnaur</text>
<text transform="matrix(1 0 0 1 397.6782 256.8461)" class="st2 st4">Kullu</text>
<text transform="matrix(1 0 0 1 389.1929 159.9594)" class="st2 st4">Lahul &amp;amp; Spiti</text>
<text transform="matrix(1 0 0 1 348.1904 303.1606)" class="st2 st4">Mandi</text>
<text transform="matrix(1 0 0 1 411.7191 375.0129)" class="st2 st4">Shimla</text>
<text transform="matrix(1 0 0 1 397.678 453.8085)" class="st2 st4">Sirmaur</text>
<text transform="matrix(1 0 0 1 333.0244 390.2574)" class="st2 st4">Solan</text>
<text transform="matrix(1 0 0 1 260.7152 303.1609)" class="st2 st4">Una</text>
</svg>
