<svg version="1.2" baseProfile="tiny-ps" xmlns="http://www.w3.org/2000/svg" viewBox="0 0 1400 534" width="800" height="300">
	<title>Himachal Pradesh Map Chart-svg</title>
	<style>
		tspan { white-space:pre }
		.shp0 { stroke: #000000;stroke-width: 0.4 } 
		.shp1 { fill: none } 
		.txt2 { font-size: 13px;fill: #000000;font-weight: 400;font-family: "LiberationSans", "Liberation Sans" } 
	</style>
	<path id="Bilaspur" class="shp0" d="M350 338.2L350 338.2L350 338.9L350.2 339.5L350.7 340.4L350 341.8L350.5 342.4L352.2 343.7L353.3 344.2L354.3 344.1L355.1 344.5L355.5 346.1L356.1 346.3L355.2 348.3L354.7 349.1L354 349.6L353.3 349.7L352.6 350L352.3 350.7L352.7 351.6L352.4 352.1L351.6 351.9L350.7 352.4L350 352.5L349.5 353.3L348.9 355L349.3 355L349.8 356.7L350.9 358.5L349.8 359.3L348.3 359.3L347 358.5L346.4 357.6L345.6 357.3L344.8 358.2L344.3 358.2L344.2 358.3L343.4 357.8L342.8 357.8L342.2 357.5L341.2 358.1L338.9 359L338.4 358L337.6 357.8L336.4 357.7L335.4 357L335 356.5L334.2 356L333.6 355.9L333.1 356.8L332.4 357.4L331.3 358L330.4 358.4L329.7 358.8L329 359.4L326.4 359.7L325.5 360.2L323.8 360.6L323.7 360.2L322.6 359.3L322.8 358.4L321.7 358L318.2 360.1L317.5 360.1L317.4 359.5L317 358.7L317.8 357.9L318.1 356.5L319 355.5L320 354.8L316.4 350.2L314.3 352.6L313.6 354L312.3 354.1L312 352.4L312.3 351.5L312.6 349.7L311.9 349.8L311.5 351.9L310.4 353.1L310 352.8L310.3 350.8L310 349.9L309 350L308.1 350.7L307.5 351.4L306.4 351.4L305.8 349.7L305.4 348.9L304.9 348.4L304.8 347.3L304.5 346.1L303.8 345.6L303.3 346.1L302 347.8L301.4 348.8L299.7 349.9L299.4 348.9L300.3 348.1L301.4 347.2L301.7 346.3L300.4 344.5L299.3 343.3L298.1 341.4L297.5 339.8L297 338.8L295.9 337L294.9 334.9L293.5 332.9L294.8 331.9L293.8 329.8L293.9 329L293.8 327.6L294.2 326.8L296.4 329L298.5 329.2L299.3 328.7L300.2 328.4L301.5 327.5L302.3 327.2L302.7 327.2L302.9 327.2L303.1 326.2L303.1 324.7L303.7 324.4L303.6 323.9L302.8 324L302 323.7L302.2 323.3L302.7 321.8L301.3 319.5L300.6 317.9L301.3 317.4L301.9 317.7L302.3 318.2L304.3 319.7L305.2 319.9L306.1 319.9L307.6 321.3L308.1 320.1L309 321.2L309.8 321.1L310 322.2L312.3 324.2L312.7 324.7L313.1 326.2L314.5 325.8L316.5 327.3L316.9 326.7L317.9 327.2L318.6 327.4L319.3 327.8L319.7 327L319.5 325.8L320.6 324.6L320.8 323.6L318.8 319.8L318.5 316.6L319.8 312.8L319.8 311.9L320 310.7L319.5 310L319.5 308.9L319.2 307.7L319.8 306.1L319.5 304.8L320.1 303.6L320.2 303.6L321.3 303.3L322.7 301.5L323.9 302L325.2 302.2L325.9 301.8L326.8 301.5L327.3 300.6L329.7 299.7L332.5 301.5L332.6 301.8L332.8 302.3L332.8 303.7L332.5 305.1L333.3 305.3L332.6 306.4L332.7 307.8L333.4 308.9L333.2 310L333.8 311.2L333.5 311.6L333 312L333.9 312.3L334.6 312.1L336.5 312L337 311.9L337.6 312.5L339.1 314.6L339.2 314.8L339.5 315.9L339.1 317.5L339.8 318.2L340.5 318.7L340.6 320.5L341.1 321.7L341.2 322.5L340.6 322.5L340.4 323.4L341.2 324.2L341.4 325.4L341.1 326.4L341.2 327L342.1 326.8L342.6 327.3L343.5 327.6L343.9 327.2L344.6 327L346 327.9L347.6 328.4L348.8 328.4L350.1 328.6L350.4 330.3L350.5 332.3L349.7 332.8L348.8 332.9L348.3 333.5L349 334.5L349.6 335.7L349.4 336.7L350 338.2Z" />
	<path id="Chamba" class="shp0" d="M273 177.2L272.6 178.2L271.9 179.6L271.2 180.4L270.4 181.2L269.4 181.8L268 183L266.7 183.5L267.1 183.9L267.2 184.7L267.5 185.6L267.4 186L267 186.8L266.9 187.8L266.6 188.4L266 189.1L266.3 189.9L266.3 192.2L266.8 193.7L266.9 194.5L267.5 195L268.5 195.5L269.1 196.1L269.2 197L268.9 198.6L268.4 200.3L268.8 202.3L268.5 203.1L267.9 203.5L267.5 203.5L267.4 202.6L266.9 201.6L265.8 202.6L264.8 203.1L264 203.4L262.7 202.9L262 202.9L261.6 202.9L261.9 201.8L261.7 200.7L261.8 199.2L261.3 198.4L260.2 198.1L259 197.3L258.3 196.5L257.5 196.1L256.5 196.1L255.8 196.5L252.9 197.2L252.2 196.5L251 196.3L250.5 195L249.4 193.1L249.4 191.8L249.7 191.1L249.9 189.7L250.2 188.7L250.2 188.3L249.3 188.7L249.6 187.7L250 186.8L249.7 185.7L248 183.2L247.4 181.7L246.4 179.8L245 178.3L244.4 177.4L243.6 177.2L242.6 177.5L241.2 177.2L240 177L239.7 176.2L238.8 174.9L239.3 174.7L240.5 174.5L241.2 173.7L241.5 172.5L241.1 171.6L240.3 170.3L239.3 168.8L236.9 166.7L235.9 165.1L233.7 162.5L232.1 160.8L231.6 159.5L231.6 157.4L232.2 154.8L233.8 151.5L234.4 149.6L234.1 148.8L235.7 146.3L237.8 142.7L238.2 142.1L240.1 138.3L240.3 136.6L240.1 136L239 134.8L237.9 133.8L237.1 132.5L236.8 130.9L237.1 129.5L237.8 128.1L238.4 126.3L238.9 123L238.7 120.6L237.2 118.6L235.5 114.6L234.1 111.8L231.9 109.9L229.8 108.2L228.6 107.6L227.8 107.2L227.2 106.5L226.3 105.5L226 105L224.8 103L224.7 102.9L224.1 101.1L224 100.6L223.8 99.2L224.1 99.1L224.6 98.6L225.1 97.8L225.3 97.5L225.5 96.5L225.1 95.1L225.7 94.5L226.2 93.5L227.8 92.9L229 93L229.7 92.9L231.6 93.4L233.6 93.5L235.2 94.3L237.5 95.7L239.1 97.2L240.2 98.5L241.4 100.7L242.1 100.7L242.8 100.6L247.2 98.2L247.7 98.2L248.9 96.8L249.7 96.1L250.7 95.8L251.1 95.5L251.6 94.4L251.9 93.3L252.4 92.4L254.1 92L255 91.4L255.5 90.4L256.8 89.3L257.3 88.6L258.3 88L258.8 87.6L259.2 86.6L259.9 83.8L260.3 82.6L260.2 81.9L261.8 81.4L262.8 81.3L263.3 81L264.2 81.1L266 80.1L267 79.1L271.2 78.4L274.5 78.2L276.1 77.9L276.1 77.8L277 77.5L279.1 74.4L280.5 69.1L280.9 67.5L281.4 67.2L281.5 66.8L281.3 66.3L282.8 64.9L283.3 63.8L285.1 62.7L286.1 62.2L288.4 59.7L290.3 58.4L290.7 58.4L291.1 57.9L291.3 57.1L291.9 56.3L292.8 55.5L293.5 55L294.1 54L294.9 53.4L296 53.4L296.8 53.1L298.5 54.1L299.4 53.9L300.8 54.3L301.8 53.9L302.4 53.8L303.6 54.3L303.9 54.3L306.2 52.7L307 51.8L307.3 51.7L308.1 51.8L309.8 51.1L311.4 51.3L312.3 50.1L312.9 49.7L313.9 50.1L314.7 50.2L315.2 50.1L316.3 50.3L316.9 50.1L317.4 50.5L317.2 51.2L317.1 52.2L318 53L318.5 52.9L319.1 53.3L319.3 53.9L319.3 55.1L319.4 55.5L320.9 56.7L322.6 57.2L324.2 56.9L325.4 55.8L326.3 55.9L326.4 55.9L326.5 55.9L327.5 55.6L329.4 55.5L330.4 54.9L330.8 54.3L332.2 54.3L332.9 54.9L334.7 54.6L334.6 57.7L334.3 58.3L334.8 59.2L334.9 60.6L334.8 62.1L334.6 62.9L334 63.6L334 64.5L333.6 65.8L333.3 67.3L333.5 68.4L333.3 69.5L333.5 70.7L334.2 72.5L334.4 74.2L335.5 75.6L335.3 76.5L335.7 76.8L335.6 78.6L336.3 79.7L337 79.8L337.8 80.3L337.5 81.1L337.7 82.3L337.6 82.6L337.7 83.6L338.4 83.8L339 84.2L339.2 84.5L338.4 85.2L338 85.7L338.4 87.7L338.4 88.8L339.1 88.7L339.8 88.8L338.2 91.2L337.8 92.4L337.2 92.6L336.9 93L336.6 93.6L334.4 94.2L331.4 94.7L331.3 96.1L331.3 99.7L329.5 101.1L329 101.6L328.8 102.7L328.1 103.8L327.5 105.4L326.8 105.8L325.9 106.7L325.1 106.6L324.2 106.2L323.1 106.9L322.2 107.3L321 107.1L320.2 106.3L319.6 105.5L319 105.3L318 106.2L316.5 107.9L314.7 109.4L313 110L312 111.1L311.1 111.8L309.9 112L308.8 112.8L307.2 113.4L302.5 113.1L302.1 112L302.2 110.7L301.5 109.9L300.6 106.7L300.4 105.8L299 105.5L297.8 105.9L296 106.8L295.1 107.4L294.5 108.2L293.8 109.4L293.1 110.3L291.9 110.6L291.2 110.9L291 112.4L291 114.4L292.1 115.1L292.3 116.3L292 117.8L294.2 123.6L294.2 125.2L295.9 126.5L296.8 127.6L297.2 128.6L297.4 129.7L297.2 130.8L296.9 131.3L297.4 132.1L298 132.8L298.4 133.1L299.2 133.4L298.8 135.7L299.9 136.4L301.4 136.7L304.7 135.2L306.1 134.7L307.6 134.4L308.2 134.6L309.2 135.9L310.2 136.2L311.5 135.8L314.5 137.2L316.6 138.3L317 140.1L317.8 140.9L317.8 142.2L317.9 143.3L318.4 143.9L319.2 144.2L321 144.4L320.7 145.2L320.2 147.1L320.3 148.3L320.8 149L321.9 148.7L323.1 148L325.4 149.3L326.7 149.7L327.8 149.6L329.7 149.2L330.2 149.8L330.1 151.1L330 152L329.3 153.2L330 153.6L330.9 154.4L332.1 152.2L332.9 151.7L333.8 150.8L334.6 151.2L335.4 151.3L335.9 151.2L337.1 152.9L337.7 152.4L338.8 152.1L340.1 153.4L340.5 154.5L341.3 155L342.1 155.1L342.8 154.9L343.6 154.5L344.3 154.4L344.6 155.6L345.7 156.3L346.8 155.9L347.7 155.4L348.8 155.2L349.7 155.5L349.5 156.2L349.8 157.1L350.9 157.4L350.5 157.8L350.1 158.9L349.4 159.8L348.8 161L348.5 162L347.8 163L347.4 164L347.6 165.1L348 165.9L348.7 166.4L347.8 167.2L346.6 168.5L345.2 169.5L343.9 170.2L342.7 171.7L342.4 173.1L341.4 174.1L339.5 175L339.3 177.5L339.4 178.8L339.7 179.9L339.1 180.7L338.6 181.8L338 182.2L336.3 182.1L335.7 182.4L336.1 183.4L336.8 184.4L337.9 185.3L338.4 186.3L338.6 187.2L339.4 188.8L338.8 189.4L337.8 190L338.1 191.2L338.2 192.7L337.6 194.2L338.7 196.3L338.2 197.3L337.5 198.5L337.6 199.1L338.4 199.4L337.6 200.3L337.8 202.7L337.6 203.6L337 204.7L336.3 205.8L335.6 206.4L333.9 208.7L333.6 208.9L332.6 208.4L331.7 207.7L330.8 207.2L330.3 207.2L329 207.5L328.4 208.6L327.8 209.3L327.2 210.2L326.1 210.3L325.2 210.1L324.4 209.6L320.4 208.2L319.1 207.2L318.4 206L317.4 204.8L316.3 203.8L314.2 203.1L313.3 203.2L312.4 202.6L311.4 202.7L308.8 202L308.6 201.3L307.3 202.1L306.2 202L305 200.4L304.4 200L303.6 199L302.9 199.6L302.2 199.6L301.5 199.5L300.9 198.5L299.9 197.4L298.8 196.8L297.9 197.2L296.9 197L296.3 194.6L294.8 194.2L291.5 192L290.8 191.2L289.7 188.9L288.8 187.4L287.9 187.5L286.8 187.4L285.9 186.4L285.3 185.9L284.3 185.7L283.4 185.3L282.5 185.7L281.7 185.3L280.8 182.7L280.7 181.6L280.4 180.9L279.4 179.9L279.2 179.7L278.4 180L277.8 179.1L277.5 177L276.9 176.8L275.5 176.9L273.2 176.6L273 177.2Z" />
	<path id="Hamirpur" class="shp0" d="M301.2 318.8L299.6 316.1L298.9 314.4L298.5 313.1L298.7 312.7L298.6 312.3L298.9 310.8L298.5 310.2L298.1 309.4L295.2 302.4L294.3 299.2L293.8 298.7L293.6 298.5L293.7 297.7L291.8 295.5L290.6 294.6L289.4 292.8L288.8 290.9L287.9 289.2L286.9 288L286 286.1L285 283.4L284.4 282.5L284.3 282L284.7 281.3L285 280.5L284.6 280.1L284.6 279.1L284.2 278.7L283.9 277.8L284 276.6L283.6 276.3L283.9 275.3L284.2 274.6L283 273.4L282.8 272.4L282.8 271.6L283.2 271.7L283.5 272.5L283.7 272.8L284.4 273.1L285.2 273L287.2 272.1L288.9 270.7L289.4 271L290.1 271.8L290.7 272.5L291 273.1L292.4 272.6L293.7 270.7L294.4 270L295.4 271L295.9 272L296.1 270.2L298 270.4L298.7 270L299.1 267.9L299.8 267.9L299.7 269L300.4 269L301.7 268.7L301 267.3L301.4 266.6L302.1 267L302.5 267.8L303.1 267.7L303.2 266.8L302.3 265.1L302.6 264.8L303 264.6L303.7 264.4L306.1 263.2L308.5 262.5L308.6 261.4L308.1 260.4L308.1 260.2L308.9 259.3L310.6 258.2L312.3 256.5L314.2 255.3L317 254.3L318.6 254.6L322.7 257.6L322.2 258.5L321.9 261.2L321.2 262.5L321.1 263.7L321.2 265.2L321.1 266.6L320.4 270.7L320.9 273L321.4 274.1L322.3 277L323.6 278.1L323.9 278.2L324.8 278.5L325.8 278.7L326.7 279.7L326.5 281.3L326.9 282.4L328.4 283.3L328.2 284.5L328.8 285.1L328.8 285.7L329 287.5L331.9 289.1L333 290.2L332.6 291.4L331.6 295.6L331.7 297.1L332.6 299.3L333.2 301.5L333.3 302.7L333.2 302.4L330.4 300.6L328 301.5L327.5 302.4L326.6 302.7L325.9 303.1L324.6 302.9L323.4 302.4L322 304.2L320.9 304.5L320.8 304.5L320.2 305.7L320.5 307L319.9 308.6L320.2 309.8L320.2 310.9L320.7 311.6L320.5 312.8L320.5 313.7L319.2 317.5L319.5 320.7L321.5 324.5L321.3 325.5L320.2 326.7L320.4 327.9L320 328.7L319.3 328.3L318.6 328.1L317.6 327.6L317.2 328.2L315.2 326.7L313.8 327.1L313.4 325.6L313 325.1L310.7 323.1L310.5 322L309.7 322.1L308.8 321L308.3 322.2L306.8 320.8L305.9 320.8L305 320.6L303 319.1L302.6 318.6L301.2 318.8Z" />
	<path id="Kangra" class="shp0" d="M257.4 265.1L257.3 265L257 263L255.8 263.8L253.6 261.4L252.8 260.3L251.7 259.9L248.2 260L247.4 261.2L247.2 261.9L246 262.1L244.8 262.2L243.7 261.6L242.4 261.2L241.7 259.6L240.9 257.1L240.3 256.2L238.7 252L237.5 250.2L236.7 248.3L236.5 246.8L234.5 244.9L233.6 244.3L233.5 244.2L233.2 243.9L232.1 243.8L231.5 243.3L230.4 243.1L229.8 241.8L227.2 241.5L226.2 241.2L225 240.6L223.7 239.7L222.5 238.7L221.6 237.6L221 236.6L220.1 235.7L219.5 234.6L218.5 233.5L218.3 233.3L217.8 233.1L216.5 233.3L215 233.3L213.8 232.1L212.8 229.6L212.5 229.3L210.5 228.5L207.7 226.9L206.6 227L204.9 227.6L203.1 228.1L201.8 228.6L199.5 226.2L203.2 223.4L205.6 220.3L207.6 217.5L208.5 216.2L209.2 213.3L208.5 211.4L207.7 210.9L204.3 210L204.2 209.3L204.1 208.2L204.3 204.6L204.5 203.1L204.6 202.4L206 200.8L206.8 200.4L208.1 199.1L208.4 199L210.9 197.7L212 197.5L214.3 197.2L218 196.2L219.8 194.6L220.1 194.3L220.9 192.7L221.1 191.8L223.4 188.7L223.7 188.5L224.7 187.2L225.4 186.4L227.1 184.3L227.7 183.6L229.9 180.8L230.7 179.8L233.3 177.4L234 176.8L238.6 175.1L239.5 176.4L239.8 177.2L240.9 177.7L242.3 178L243.3 177.7L244.1 177.9L244.7 178.8L246.1 180.3L247.1 182.2L247.7 183.7L249.4 186.2L249.7 187.3L249.3 188.2L249 189.2L249.9 188.8L249.9 189.2L249.6 190.2L249.4 191.6L249.1 192.3L249.1 193.6L250.2 195.5L250.7 196.8L251.9 197L252.6 197.7L255.5 197L256.2 196.6L257.2 196.6L258 197L258.7 197.8L259.9 198.6L261 198.9L261.5 199.7L261.4 201.2L261.6 202.3L261.3 203.4L261.7 203.4L262.4 203.4L263.7 203.9L264.5 203.6L265.5 203.1L266.6 202.1L267.1 203.1L267.2 204L267.6 204L268.2 203.6L268.5 202.8L268.1 200.8L268.6 199.1L268.9 197.5L268.8 196.6L268.2 196L267.2 195.5L266.6 195L266.5 194.2L266 192.7L266 190.4L265.7 189.6L266.3 188.9L266.6 188.3L266.7 187.3L267.1 186.5L267.2 186.1L266.9 185.2L266.8 184.4L266.4 184L267.7 183.5L269.2 182.2L270.2 181.6L271 180.8L271.7 180L272.4 178.6L272.8 177.6L273.2 177.3L275.5 177.6L276.9 177.5L277.5 177.7L277.8 179.8L278.4 180.7L279.2 180.4L279.4 180.6L280.4 181.6L280.7 182.3L280.8 183.4L281.7 186L282.5 186.4L283.4 186L284.3 186.4L285.3 186.6L285.9 187.1L286.8 188.1L287.9 188.2L288.8 188.1L289.7 189.6L290.8 191.9L291.5 192.7L294.8 194.9L296.3 195.3L296.9 197.7L297.9 197.9L298.8 197.5L299.9 198.1L300.9 199.2L301.5 200.2L302.2 200.3L302.9 200.3L303.6 199.7L304.4 200.7L305 201.1L306.2 202.7L307.3 202.8L308.6 202L308.8 202.7L311.4 203.4L312.4 203.3L313.3 203.9L314.2 203.8L316.3 204.5L317.4 205.5L318.4 206.7L319.1 207.9L320.4 208.9L324.4 210.3L325.2 210.8L326.1 211L327.2 210.9L327.8 210L328.4 209.3L329 208.2L330.3 207.9L330.8 207.9L331.7 208.4L332.6 209.1L333.6 209.6L333.9 209.4L335.6 207.1L336.3 206.5L337 205.4L337.6 204.3L337.8 203.4L337.6 201L338.4 200.1L337.6 199.8L337.5 199.2L338.2 198L338.7 197L337.6 194.9L338.2 193.4L338.1 191.9L337.8 190.7L338.8 190.1L339.4 189.5L338.6 187.9L338.4 187L337.9 186L336.8 185.1L336.1 184.1L335.7 183.1L336.3 182.8L338 182.9L338.6 182.5L339.1 181.4L339.7 180.6L339.4 179.5L339.3 178.2L339.5 175.7L341.4 174.8L342.4 173.8L342.7 172.4L343.9 170.9L345.2 170.2L346.6 169.2L347.8 167.9L348.7 167.1L350.7 166.2L352 165.8L352.9 165.7L353.8 166.2L353.7 167.3L352.8 168.4L352.3 169.4L351.8 170.7L352.9 170.2L354 170.3L355 171.2L355 172.3L354.4 173.7L355.2 174.2L356 174.4L357.2 173.8L358 173.2L358.6 172.9L359.2 173L359 175.4L359.1 176.4L360.2 176.4L361.3 176L362.5 176.2L363.6 175.2L364.1 175.4L364.9 175.2L366.2 174.5L368.3 173.9L370 173.3L371.4 172.5L372.1 173.1L372.4 173.6L372.6 174.4L373.7 174.3L373.9 175.1L373.9 175.6L373.7 176.9L373.2 177.5L373.4 178L373 178.6L372.6 179.7L371 181.7L370.7 182.3L370 185.2L369.4 186.5L369.8 187.5L369.9 188.4L369.9 189.2L369.6 189.9L368.4 191.1L368.3 191.7L368.7 193.7L369 194.2L369 195L368.4 196.4L368.2 197L368.2 198.7L368.5 199.4L368.5 200.1L368.4 200.9L368.7 201.6L369.8 202.7L370.9 204.3L370.2 205.8L369.2 207.2L367.2 207.4L366.7 208.2L365.4 208.4L365 208.9L364.1 210.4L364.6 211.1L364.1 212.2L363.7 213.9L363.2 215.4L362.9 218.9L363.2 221.2L363.4 222.1L358.4 221.9L358.2 223.1L357.9 224L357.5 225L358 226.1L357.9 227.1L358.1 229.1L357.6 229.7L356.5 230.2L355.6 230.3L354.7 230L353.3 230.1L351.5 230.4L349.3 231.4L348.2 231.5L347.4 231.9L347 232.4L346.3 232.9L345.9 232.5L344.4 231.7L343.1 230.2L341.8 229L341.5 227.8L340.5 227.6L339.9 227.8L339.4 228.8L338.7 228.5L337.9 229.1L336.9 230.9L334.9 233.4L334.2 234.6L333.3 234.7L333.2 234.2L332.5 234.2L331.4 233.8L330.5 233.1L330.5 232.2L330.1 231.6L328.4 231.2L327.4 231.8L327 232.2L326.9 232.8L325.4 234.5L325.6 237.4L326.1 239.2L327.4 241.3L327.9 242.9L328.2 244.5L327.9 245.4L328.5 246.4L328.6 247.5L328.7 248.1L329 249.8L328.4 250.1L328.2 250.8L328.2 251.5L327.7 253.2L327.1 253.7L327.1 254.2L327.3 255.2L326.9 255.8L326.9 256.8L326.9 257.1L327.1 258.1L327.2 259L326.1 259L325 259.4L323.8 259.2L322.8 258.8L318.7 255.8L317.1 255.5L314.3 256.5L312.4 257.7L310.7 259.4L309 260.5L308.2 261.4L308.2 261.6L308.7 262.6L308.6 263.7L306.2 264.4L303.8 265.6L303.1 265.8L302.7 266L302.4 266.3L303.3 268L303.2 268.9L302.6 269L302.2 268.2L301.5 267.8L301.1 268.5L301.8 269.9L300.5 270.2L299.8 270.2L299.9 269.1L299.2 269.1L298.8 271.2L298.1 271.6L296.2 271.4L296 273.2L295.5 272.2L294.5 271.2L293.8 271.9L292.5 273.8L291.1 274.3L290.8 273.7L290.2 273L289.5 272.2L289 271.9L287.3 273.3L285.3 274.2L284.5 274.3L283.8 274L283.6 273.7L283.3 272.9L282.9 272.8L282.9 273.6L283.1 274.6L284.3 275.8L284 276.5L283.7 277.5L284.1 277.8L284 279L284.3 279.9L284.7 280.3L284.7 281.3L285.1 281.7L284.8 282.5L284.4 283.2L284.2 283.5L282.1 288L281.5 288.7L280.9 288L280.3 286.8L279.4 285.7L277.7 284.3L277 283.7L276.7 283.1L273.8 279.9L272.2 276.7L272.1 275.9L271.5 275.2L270.4 275.3L269.8 275.9L269 275.6L269.2 274.6L268.7 273.4L267.7 272.7L267 271.9L266.3 271.5L263 270.9L261 270.1L259.5 268L258.1 267.3L257.4 265.1Z" />
	<path id="Kinnaur" class="shp0" d="M589.7 354.6L589.6 356L590.1 358.5L590.8 359.9L591.3 360.2L593.1 360.3L593.1 360.8L592.9 361.5L593.2 362.9L593.9 363.7L594.3 364.3L594.5 364.8L595.3 365.4L596.2 365.9L596.8 366L597.1 366.4L597.5 366.6L597.8 367.3L598.1 368.5L598.1 370.9L597.9 371.5L598.2 372.3L599 373L599.3 373.1L599.6 373.6L599.8 374.6L600.5 376.7L600.5 376.9L600.5 377L599.8 376.7L599.1 376.8L596.8 377L595.6 377.7L595.2 378.1L594 378.6L593.5 378.6L592.9 378.3L591.5 378.2L590.6 376.9L590 376.9L589.5 377L589.1 377.5L589 378.2L588.7 378.5L588 378.4L587.2 378.7L586.7 378.8L585.7 378.3L584.6 377.5L583.4 375.3L582.5 375L581.7 374.6L580.7 373.7L580.2 372.6L579.5 372L579.2 371L578.5 369.4L578.7 368.5L577.4 367.1L577.1 366.4L577.2 365.4L577.6 364.6L577.8 363.8L577.4 363.3L576.8 362.9L576.1 363L574 364.1L573.3 364.3L572.5 364.5L571.5 364.6L568.1 364.2L567.2 364.3L566.5 364.6L565.7 364.4L565.1 364.4L562.8 363.3L561.6 363.4L560.9 363.3L559.8 364.1L559.5 364.6L559.2 363.4L558.3 362.5L558.1 360.8L557.9 360.4L557.2 360.4L555.9 359.9L555.5 359.6L555.1 359L554 358.2L553.4 358.1L552.1 358.4L551.6 358.3L550.1 358.5L549.6 359.1L548.9 359.4L548.2 360.8L546.7 362.6L544 363L540.8 363L539.7 362.9L538.9 363.1L538.6 361.8L538.5 360.4L537.4 359.3L535.9 356.7L534.4 355.9L533.9 354.9L533 354.3L532.4 355.7L531.3 356L530.4 356.1L529.7 355.3L529.9 353.8L529.1 352.7L528.8 352L528.6 350.9L527.7 351.3L527.2 349.9L526.5 349.6L525.7 349.5L524.7 349.6L524.1 349.8L523.4 350L522.3 349.9L521.2 350.4L520 350.2L519.1 349.9L518.3 349.5L517 348.4L517 347.4L517.3 346.6L517.3 345.8L517.8 344.9L516.6 343.5L514.6 343.4L512.9 342.9L512.4 342.5L512.1 341.9L511.7 341.5L511.5 340.9L511.2 340.7L510.8 340.9L510.1 341.9L509.3 342.4L508.9 342.9L508.2 343.3L507.6 343.3L506.9 342.8L506.2 342.7L504.2 341.5L503.5 341.6L502.5 340.4L501.6 340.4L501.1 339.6L500.3 338L501.8 335.2L501.5 334.3L501.1 333.7L500.4 333.2L499.6 333.7L498.9 332.6L498.3 332.3L497.6 331.2L497.2 330.8L496.1 330.3L495.4 330.2L494.7 329.2L494.6 328.6L493.5 328.5L492.9 328.3L492.6 328.4L491.8 329L491.1 329L490.6 329.3L488.9 328.8L488.1 329.4L486.4 331L485.9 331.4L485.4 331.6L484.2 331.2L483.5 331.4L482.5 331.4L482 331.1L479.8 331.6L478.3 331.5L478 329.7L476.6 328.5L476.1 328.3L474.7 328.5L474.2 328.2L473.5 327.1L472.9 326.9L472.4 326.4L472 325.7L471.3 325.3L470.8 323.2L470.4 322.6L469.6 321.8L468.6 321L469 319.5L468.9 318.5L468.5 317.8L467.5 316.8L467.3 315.8L466.6 315.2L466.1 314.6L465.7 315.5L465.2 315.1L464 315.3L464 314.3L464.4 313.1L464.5 312.1L464.3 310.6L464 309.3L463.5 308L463.4 306.6L463.8 304L463.4 303L461.6 300L460.9 299.1L461.1 298.2L462 295.8L462.1 294.9L461.6 294.1L461.1 291.9L460.7 291L459.7 290L458.6 289.3L458.4 288.5L458 287.2L457.3 286L455.9 284.6L454.9 284.5L453.9 284L453.4 283.1L453.5 282.6L454 282.1L454 281L453.6 278.4L453.6 277.2L454.6 276.6L454.8 275.5L455.4 276.2L456.7 277.1L457.8 277.1L459 276L460.4 275.7L462.5 275.7L464.9 276.6L465.4 275.9L465.7 274.5L465.9 273.5L465.6 272.5L466.9 272.2L467.5 272.7L468 273.8L469 274.3L470.5 275.9L470.7 276.9L471.5 277.1L472.5 276.9L473.3 277.6L474.4 277.8L475.1 277.5L475 276.3L475.7 276L476.1 272.9L476.1 271.9L477.1 271.9L477.7 272.3L478.4 272.6L479.3 272.7L479.8 273L480.4 272.7L481.5 273.2L482.4 273.3L482.9 273.4L483.6 273.3L484.1 274.1L484.8 274.8L485.5 275.7L486.3 275.6L487.9 273.8L488.5 273.3L488.8 272.6L489.2 272.1L491.3 272L492.1 271.4L492.2 270.9L492.1 270.4L492.4 269.3L492.5 268L493.1 267.1L493.6 265.8L493.3 264.7L493.8 264.2L493.7 263.5L492.5 262.4L492.8 261.5L493.5 261.1L493 260.3L493.7 260.2L494.9 260.3L495.7 259.9L497.1 258.9L498.1 258.9L498.8 259L500.1 258.8L500.6 259.4L501.6 259.6L503 259.5L503.4 259L504.9 258.1L504.8 257.2L504.2 255.6L504.5 254.6L504.2 253.9L504.5 253L504.5 252.4L504.2 251.1L505.1 250.6L505.5 250.1L505.6 249.2L506.3 248.4L507.5 248.1L508.5 248.4L512.9 248.2L514.6 247.9L516.2 248.7L518.1 249.3L518.3 248.1L519.2 247.6L522.5 247.9L522.9 248.2L523.4 247.4L524.1 247.2L525 246.1L526.1 244.1L528.2 244.7L529.6 244.9L530.4 245.5L532 247.5L532.8 247.3L533.4 247.7L534.3 247.4L535.1 247.6L535.7 247.5L536.2 247.2L536.4 246.8L535.9 245.6L536.4 244.9L536.6 244.1L535.3 242.8L534.6 242.3L533.7 242L533.4 240.9L531.9 239.3L532 238.3L532.2 237.5L532.8 236.7L532.7 235.1L533.2 233.7L533.8 232.4L534.1 230.9L534.5 230.3L534.9 229.4L535.5 229L536.2 229L536.8 229.3L537.9 230L538.5 230.1L539.3 230L539.3 230.6L539.4 230.9L539.7 230.7L540.1 230.1L541.8 229.6L543 229.1L544 228.3L546.1 227.5L546.7 227.7L548.2 227.9L549.2 227.7L551.5 227.9L552.6 228.2L553.1 229.1L553.6 229.1L554.9 228L555.9 227.4L557 227.3L558.1 227.1L559.2 226.5L559.9 225.9L560.2 224.9L560.2 224L560.5 223.5L560.8 223.5L561 224.3L561.5 225L561.6 225.4L561.7 225.5L561.9 225.7L561.9 225.8L562 225.9L563.6 227.3L564.4 228.1L564.5 228.2L564.6 228.4L564.7 228.6L565 229L565.2 229.1L565.4 229.8L565.5 229.8L565.6 229.9L565.7 230.1L565.8 230.9L565.9 231L566.2 231.3L566.3 231.4L566.3 231.5L566.5 231.6L566.6 231.8L566.7 231.9L566.8 232L567.7 232.8L567.7 232.9L568.5 233.5L569.1 234.1L569.1 234.2L569.7 234.9L569.7 235L570 235.3L570.1 235.5L570.2 236L570.3 236L570.4 236L570.5 236.1L570.5 236.2L570.6 236.2L570.7 236.4L570.7 236.5L570.8 236.6L570.8 236.7L571.5 237.3L571.8 237.2L573.1 237.3L573.4 237.4L574.3 237.7L575.2 237.9L575.4 238L575.5 237.9L575.5 238.4L575.5 238.6L575.5 238.7L575.4 239.2L574.4 243.5L574 244.9L573.8 245.6L573.4 247.3L573.1 248.1L572.5 249.6L571.9 250.4L571.8 250.4L571.6 250.8L571.4 251L571.3 251L571.3 251.1L571.3 251.2L571.1 251.5L571.1 252L571 252.1L570.9 252.2L570.8 252.4L570.8 252.5L571 252.7L571 252.9L571 253.6L570.6 254.9L570.5 255L570.4 255.1L570.1 255.7L570.1 255.8L570.1 255.9L570.1 256L570.1 256.3L570.1 257.3L570 261.7L569.8 263.1L569.8 263.2L569.7 263.5L569.6 263.6L569.4 263.7L567.7 264.9L567.5 265.1L567.4 265.1L567.4 265.2L567.4 265.3L567.3 265.3L566.6 266.4L566.4 266.8L566.3 267.1L566.1 268L566.1 269.5L566.1 270.1L566.3 271.2L566.4 271.3L566.5 271.6L566.7 272.4L566.8 272.5L567.2 273.1L567.3 273.2L567.5 273.7L568.7 274.2L568.9 274.3L569.6 274.6L569.9 274.8L569.8 275.4L569.3 276L569 276.4L568.9 276.6L568.8 276.9L568.7 277.1L568.4 277.8L568.3 278.4L568.4 278.4L568.5 278.4L568.5 278.7L568.6 278.8L568.7 278.9L568.7 279.1L569.2 279.4L569.4 279.8L569.5 279.8L569.6 280.1L569.8 280.9L569.9 281.2L570.1 282.1L570.4 284.5L570.8 285.2L571 285.5L571.1 286.1L571.2 286.2L571.2 286.3L571.3 286.4L571.8 286.8L572.7 287.3L572.8 287.3L573 287.4L573.3 287.4L573.5 287.4L573.6 287.4L574.8 287.2L575.6 286.9L575.8 286.8L576.6 286.6L576.7 287L576.8 288.9L576.8 289.2L576.8 289.3L577.2 291.1L577.4 291.3L577.5 291.5L577.5 291.6L577.6 291.7L577.8 292.1L578.2 292.5L578.3 292.7L578.5 292.8L578.5 292.9L578.6 293L580.2 294.4L580.3 294.5L581.1 295L581.5 295.4L581.9 295.9L581.9 296L582 296.2L582.2 296.4L582.2 296.5L582.2 296.6L582.2 296.7L582.3 296.8L582.3 296.9L582.5 297.6L582.6 297.7L582.6 298.4L582.2 299.7L581.8 300.4L580 301L579.9 301.3L579.4 301.8L579.3 302L579 302.4L578.9 302.5L578.8 302.7L578.7 302.9L578.6 303.2L578.5 303.3L578.4 303.3L578.4 303.4L577.9 304.1L577 305.2L576.3 305.6L575.5 306L573.6 306.9L573.6 307L573.1 307.5L572.8 308.2L572.4 308.8L571.5 309.5L571.1 309.7L569.2 310.2L568.2 310.7L568 311.4L567.8 312.4L567.7 312.5L567.6 312.5L567.6 312.6L566.8 313.4L566.6 313.8L566.6 314.2L566.8 314.7L567.6 315.8L567.7 316.4L567.7 319L567.8 319.4L568.1 319.5L568.6 319.2L568.6 319.2L569.2 319L571 318.5L571.3 318.5L571.5 318.4L571.6 318.4L571.9 318.7L572.3 320L573 320.7L573.1 320.8L573.1 320.9L573.1 321L573.2 321.1L573.6 321.4L573.7 321.4L573.7 321.5L573.9 321.6L574.3 321.9L574.5 322.2L574.6 322.4L575.2 322.9L575.3 323.1L576.7 324.1L577.1 324.5L577.3 325.1L577.3 325.8L577.2 326.6L577.2 327.4L577.2 328L576.8 330L576.5 330.4L575.8 330.8L575.7 330.9L575.6 331L575.6 331.1L575 331L574.5 331.6L574.4 332.3L574.4 332.4L574.4 332.4L574.6 332.4L575.1 332.6L576.6 333.2L577.4 333.6L578.1 333.8L578.5 334L579.1 334.4L579.6 335.1L579.6 335.2L580.3 335.5L580.4 335.5L580.7 336.4L581.2 336.9L581.3 337.1L581.3 337.2L581.4 337.4L581.6 338.2L581.7 338.2L582 339.7L582 340.3L581.7 341.2L581 342.2L580.6 343.2L580.6 343.6L581.1 343.8L581.3 343.8L581.6 343.9L581.7 344L581.9 344.1L582.5 344.7L582.8 345L582.9 345.2L583 345.3L583 345.4L583.1 345.5L583.2 345.6L583.4 345.7L583.4 345.8L583.5 345.8L584 346.3L584.2 346.9L584.3 347L584.4 347L584.4 347.1L584.7 347.5L584.8 347.7L584.8 347.8L585.1 348.2L585.4 349.8L585.5 349.8L585.6 350.1L585.7 350.1L586.5 352.7L586.6 352.7L586.7 353L587.3 353.6L587.4 353.7L587.9 353.9L589.2 354.5L589.7 354.6Z" />
	<path id="Kullu" class="shp0" d="M420.7 339.4L420.4 339.8L417.8 340.2L416.9 340.9L415.7 340.7L414.9 341.1L414.2 340.3L413.6 340.4L412.1 338.7L411.6 337.9L411 338.3L410.4 338.2L409.8 337.9L410.3 336.3L410.1 335.5L410.3 334.4L409.9 333.9L410 333.5L409.3 332.8L409.5 332.1L409.4 331.6L409.7 330.8L409.6 330L409.2 329.1L408.7 328.6L408 328.2L407.2 327.4L406.6 326.8L405 324.8L404.2 324.3L403.5 322.9L402.9 320.9L402.6 319L402.4 316.7L401.9 315.2L401.8 312.5L402.2 311.7L401.5 310.4L400.6 309.1L400.1 307.4L400.4 306.2L400.5 304L400 302L400.3 301L400.6 299.1L400.5 297.4L399.6 292.5L400.4 291.2L397.9 286.8L396.6 285.1L394.8 283.7L393.4 283.3L392.5 282.3L391.2 281.8L391.1 281.6L391 281.4L390 282L389.5 280.4L389.5 278.8L389.3 277.6L389.3 276.7L388.9 275.2L388.6 274.5L387.7 273L387.8 272.1L387.3 271.2L387.5 270.2L386.6 268.5L386.8 267.5L386.4 266.4L385.1 265.7L385.4 264.8L385.6 263.3L384.7 263.5L384.1 263.8L378.7 263.9L376.8 263.8L375.7 264.1L374.3 265.2L373.8 264.7L372.7 264.3L371.5 264.4L371.5 263.8L371.3 263L371.7 261.1L371.2 260.8L371 260.1L368.1 255.2L367.8 254.1L367.7 252.4L367.4 250.9L366.6 249.5L365 247L364.6 245.7L363.4 244L362 241.1L362.3 239.8L362.4 238.6L362.3 236.8L361.8 234.9L360.3 234.2L359.7 233.4L357.9 231.6L357.8 229.6L357.4 228.8L357.9 228.2L357.7 226.2L357.8 225.2L357.3 224.1L357.7 223.1L358 222.2L358.2 221L363.2 221.2L363 220.3L362.7 218L363 214.5L363.5 213L363.9 211.3L364.4 210.2L363.9 209.5L364.8 208L365.2 207.5L366.5 207.3L367 206.5L369 206.3L370 204.9L370.7 203.4L369.6 201.8L368.5 200.7L368.2 200L368.3 199.2L368.3 198.5L368 197.8L368 196.1L368.2 195.5L368.8 194.1L368.8 193.3L368.5 192.8L368.1 190.8L368.2 190.2L369.4 189L369.7 188.3L369.7 187.5L369.6 186.6L369.2 185.6L369.8 184.3L370.5 181.4L370.8 180.8L372.4 178.8L372.8 177.7L373.2 177.1L373 176.6L375.4 176.4L377.1 176.2L377.8 175.6L380 174.7L381.9 173.5L382.6 173.8L385.4 175.3L387.2 175.8L387.7 177.2L388.1 177.7L389.7 178.7L391.1 180L392 179.6L392.6 179.5L393.1 179.7L394.2 180.6L395.2 181.8L396.7 182.6L397.3 183.7L397.5 184.7L397.9 184.7L399.2 186L400.4 186L400.8 186.8L402.1 187.7L402.6 188.3L403.1 189.4L403 190.1L403.2 190.5L403.8 190.3L404.5 193.1L404.9 193.5L405.1 194.1L405 194.9L405 195.8L405.4 196.7L405.2 197.4L405.3 198.1L404.8 198.8L405 199.4L406.2 202.1L407.7 203.6L408.3 203.7L409.4 204.5L410 204.7L410.7 204.3L413.2 206.4L413.5 207.7L413.8 208L414.5 208.1L415.2 207.9L416.5 208L417.9 207.7L418.5 207.3L418.7 206.7L418.6 206L418.7 205.2L419 203.7L419.2 203.1L419.8 202.6L420.6 203L421.6 203.1L422.9 203.8L423.3 204.7L424 205.5L424.3 206.1L424.5 206.8L425.7 207.1L426.5 207.1L426.8 206.2L426.6 205L427.5 204.3L428.1 203.6L430.3 205.7L430.4 206.9L430.6 207.7L431.4 208.9L432.4 209.2L432.8 209.8L432.9 210.3L433.8 210.6L434.9 211.8L436.1 212.8L436.8 213.1L437.8 213.1L438.5 214.3L439.2 214.4L440.7 215.4L440.9 215.9L441.6 216.5L441.6 217.3L441.9 218.4L442.6 218.8L442.8 219.6L443.2 219.8L443.5 220.1L444.3 221.5L444.8 222L446.4 222.1L447.8 223.3L448.7 223.8L450.3 224.1L451.5 224.2L451.7 226.4L451.9 226.8L452.7 227.4L453.1 229L453.7 229.7L454 230.3L454 231.1L453.8 232.1L454.2 232.7L455 233.2L455.5 233.2L457 235.6L456.9 235.9L455.1 237.3L456.2 238.4L456.9 239.7L458 240.7L458.1 241.4L457.3 242.4L456.4 243L455.8 243.7L455.9 244.7L454.9 246L454.3 247.4L454.7 248.7L455.6 250.1L455.9 251.8L456.9 253.3L458.5 254.9L459.9 255.2L461.4 255L463.4 256L464.7 256.8L465.8 257L465.2 257.7L463.5 258.9L462.4 261.3L462.2 262.3L462.8 264.1L463.4 265.2L463.1 265.9L463 267L463.1 268.9L463.9 270.3L464.9 271.3L465.3 272.4L464 272.7L464.3 273.7L464.1 274.7L463.8 276.1L463.3 276.8L460.9 275.9L458.8 275.9L457.4 276.2L456.2 277.3L455.1 277.3L453.8 276.4L453.2 275.7L453 276.8L452 277.4L452 278.6L452.4 281.2L452.4 282.3L451.9 282.8L451.8 283.3L450.9 283.1L450 283.2L447.8 284.8L447 285L445.3 284.8L444.3 284.9L443.6 285.6L442.5 288.1L441.6 288.7L441.3 290.1L440.5 290.9L440.1 291.6L440 292L440.2 292.7L440.5 293L441.8 295.6L441.4 296.1L440.7 296.4L440.5 297.1L440.2 298.9L440.2 300L440.3 301.1L440.7 302.1L441.1 304.3L442.1 305.3L443.2 307L443.9 307.2L444.4 308.8L445.2 309.6L446.1 310.1L446.7 312L446.3 313.7L446.6 315.2L447.3 316.2L447 317.1L446.4 317.3L444.9 318.7L444.1 320.1L443.5 321.4L442.9 322.4L441.9 322.9L440.9 323.1L439.3 323.8L438.3 324.5L437.8 325.1L437.4 326.2L437.2 328.6L437.6 330.1L438.5 332.7L438 333.7L436.8 334.1L435.7 333.3L434.5 332.9L433.4 333L431.1 334.4L430.1 334.1L429.1 334.4L428.4 335.1L427.4 337.2L426.5 339.6L425.8 339.9L424.9 339.9L424 339L422.9 338.9L420.7 339.4Z" />
	<path id="Lahaul and Spiti" class="shp0" d="M490.5 272L488.4 272.1L488 272.6L487.7 273.3L487.1 273.8L485.5 275.6L484.7 275.7L484 274.8L483.3 274.1L482.8 273.3L482.1 273.4L481.6 273.3L480.7 273.2L479.6 272.7L479 273L478.5 272.7L477.6 272.6L476.9 272.3L476.3 271.9L475.3 271.9L475.3 272.9L474.9 276L474.2 276.3L474.3 277.5L473.6 277.8L472.5 277.6L471.7 276.9L470.7 277.1L469.9 276.9L469.7 275.9L468.2 274.3L467.2 273.8L466.7 272.7L466.1 272.2L465.7 271.1L464.7 270.1L463.9 268.7L463.8 266.8L463.9 265.7L464.2 265L463.6 263.9L463 262.1L463.2 261.1L464.3 258.7L466 257.5L466.6 256.8L465.5 256.6L464.2 255.8L462.2 254.8L460.7 255L459.3 254.7L457.7 253.1L456.7 251.6L456.4 249.9L455.5 248.5L455.1 247.2L455.7 245.8L456.7 244.5L456.6 243.5L457.2 242.8L458.1 242.2L458.9 241.2L458.8 240.5L457.7 239.5L457 238.2L455.9 237.1L457.7 235.7L457.8 235.4L456.3 233L455.8 233L455 232.5L454.6 231.9L454.8 230.9L454.8 230.1L454.5 229.5L453.9 228.8L453.5 227.2L452.7 226.6L452.5 226.2L452.3 224L451.1 223.9L449.5 223.6L448.6 223.1L447.2 221.9L445.6 221.8L445.1 221.3L444.3 219.9L444 219.6L443.6 219.4L443.4 218.6L442.7 218.2L442.4 217.1L442.4 216.3L441.7 215.7L441.5 215.2L440 214.2L439.3 214.1L438.6 212.9L437.6 212.9L436.9 212.6L435.7 211.6L434.6 210.4L433.7 210.1L433.6 209.6L433.2 209L432.2 208.7L431.4 207.5L431.2 206.7L431.1 205.5L428.9 203.4L428.3 204.1L427.4 204.8L427.6 206L427.3 206.9L426.5 206.9L425.3 206.6L425.1 205.9L424.8 205.3L424.1 204.5L423.7 203.6L422.4 202.9L421.4 202.8L420.6 202.4L420 202.9L419.8 203.5L419.5 205L419.4 205.8L419.5 206.5L419.3 207.1L418.7 207.5L417.3 207.8L416 207.7L415.3 207.9L414.6 207.8L414.3 207.5L414 206.2L411.5 204.1L410.8 204.5L410.2 204.3L409.1 203.5L408.5 203.4L407 201.9L405.8 199.2L405.6 198.6L406.1 197.9L406 197.2L406.2 196.5L405.8 195.6L405.8 194.7L405.9 193.9L405.7 193.3L405.3 192.9L404.6 190.1L404 190.3L403.8 189.9L403.9 189.2L403.4 188.1L402.9 187.5L401.6 186.6L401.2 185.8L400 185.8L398.7 184.5L398.3 184.5L398.1 183.5L397.5 182.4L396 181.6L395 180.4L393.9 179.5L393.4 179.3L392.8 179.4L391.9 179.8L390.5 178.5L388.9 177.5L388.5 177L388 175.6L386.2 175.1L383.4 173.6L382.7 173.3L380.8 174.5L378.6 175.4L377.9 176L376.2 176.2L373.8 176.4L374.3 175.8L374.5 174.5L374.5 174L374.3 173.2L373.2 173.3L373 172.5L372.7 172L372 171.4L370.6 172.2L368.9 172.8L366.8 173.4L365.5 174.1L364.7 174.3L364.2 174.1L363.1 175.1L361.9 174.9L360.8 175.3L359.7 175.3L359.6 174.3L359.8 171.9L359.2 171.8L358.6 172.1L357.8 172.7L356.6 173.3L355.8 173.1L355 172.6L355.6 171.2L355.6 170.1L354.6 169.2L353.5 169.1L352.4 169.6L352.9 168.3L353.4 167.3L354.3 166.2L354.4 165.1L353.5 164.6L352.6 164.7L351.3 165.1L349.3 166L348.6 165.5L348.2 164.7L348 163.6L348.4 162.6L349.1 161.6L349.4 160.6L350 159.4L350.7 158.5L351.1 157.4L351.5 157L350.4 156.7L350.1 155.8L350.3 155.1L349.4 154.8L348.3 155L347.4 155.5L346.3 155.9L345.2 155.2L344.9 154L344.2 154.1L343.4 154.5L342.7 154.7L341.9 154.6L341.1 154.1L340.7 153L339.4 151.7L338.3 152L337.7 152.5L336.5 150.8L336 150.9L335.2 150.8L334.4 150.4L333.5 151.3L332.7 151.8L331.5 154L330.6 153.2L329.9 152.8L330.6 151.6L330.9 150.5L331 149.2L330.5 148.6L328.6 149L327.5 149.1L326.2 148.7L323.9 147.4L322.7 148.1L321 149L320.5 148.3L320.4 147.1L320.9 145.2L321.2 144.4L319.4 144.2L318.6 143.9L318.1 143.3L318 142.2L318 140.9L317.2 140.1L316.8 138.3L314.7 137.2L311.7 135.8L310.4 136.2L309.4 135.9L308.4 134.6L307.8 134.4L306.3 134.7L304.9 135.2L301.6 136.7L300.1 136.4L299 135.7L299.4 133.4L298.6 133.1L298.2 132.8L297.6 132.1L297.1 131.3L297.4 130.8L297.6 129.7L297.4 128.6L297 127.6L296.1 126.5L294.4 125.2L294.4 123.6L292.2 117.8L292.5 116.3L292.3 115.1L291.2 114.4L291.2 112.4L291.4 110.9L292.1 110.6L293.3 110.3L294 109.4L294.7 108.2L295.3 107.4L296.2 106.8L298 105.9L299.2 105.5L300.6 105.8L300.8 106.7L301.7 109.9L302.4 110.7L302.3 112L302.7 113.1L307.4 113.4L309 112.8L310.1 112L311.3 111.8L312.2 111.1L313.2 110L314.7 109.3L316.5 107.8L318 106.1L319 105.2L319.6 105.4L320.2 106.2L321 107L322.2 107.2L323.1 106.8L324.2 106.1L325.1 106.5L325.9 106.6L326.8 105.7L327.5 105.3L328.1 103.7L328.8 102.6L329 101.5L329.5 101L331.3 99.6L331.3 96L331.4 94.6L334.4 94.1L336.6 93.5L336.9 92.9L337.2 92.5L337.8 92.3L338.2 91.1L339.8 88.7L339.1 88.6L338.4 88.7L338.4 87.6L338 85.6L338.4 85.1L339.2 84.4L339 84.1L338.4 83.7L337.7 83.5L337.6 82.5L337.7 82.2L337.5 81L337.8 80.2L337 79.7L336.3 79.6L335.6 78.5L335.7 76.7L335.3 76.4L335.5 75.5L334.4 74.1L334.2 72.4L333.5 70.6L333.3 69.4L333.5 68.3L333.3 67.2L333.6 65.7L334 64.4L334 63.5L334.6 62.8L334.8 62L334.9 60.5L334.8 59.1L334.3 58.2L334.6 57.6L334.7 54.5L334.8 53.6L335.2 52.4L336.1 51.7L336.5 50.6L337.1 49.7L337.7 48.2L338.1 47.4L338.4 45.1L337.8 44.5L337.5 43.8L337.5 43.5L337.7 43.3L338.1 42.9L338.5 42.7L340.2 42.5L341 42.8L342.3 44.7L343 45.4L343.4 45.5L343.7 44.5L343.8 44.2L344.4 43.7L344.8 43.5L345.3 43.5L345.5 43.6L345.9 43.8L346 43.9L346.1 44.5L345.4 45.3L344.8 46.3L344.2 47.6L344 48.7L344.7 49.2L344.9 50.2L343.1 52L343.5 53.4L343.3 53.8L342.7 54.5L342.4 55.2L342.5 55.8L342.8 56.3L342.7 57L342.9 57.9L343.6 59L344.2 59.4L344.5 60.1L345.2 60.2L345.9 60.8L345.8 61.7L346.9 62.5L346.5 63.4L347.1 64.2L347.7 64.7L348.7 64.8L349.6 64L350.6 63.4L351.6 64.3L351.6 65.4L352.5 66.9L353.6 67.3L353.7 67.9L353.2 69L353.2 69.6L353.9 70.4L354 71.2L354.4 72.3L355.6 74.5L356 75.4L356.2 76.2L356.5 77L357.3 77.7L358.3 77.8L360.1 79.4L361.1 79.7L361.7 80.1L361.9 80.7L362.2 81.1L363.9 82L364.6 82.9L365.1 83.4L365.4 83.5L365.9 83.9L367.4 83.3L368.4 83.5L368.9 82.7L370.2 82.3L372.2 83.7L372.9 84.5L373.8 84.6L374.5 86.1L374.9 86.6L376 86.5L377.5 85.9L378.2 84.4L379.3 84.9L380.2 85.1L381.1 84.9L382.1 85.4L382 86.3L381.8 87.1L381.9 87.9L381.9 88.5L382 89L383.1 89.2L383.1 91.3L383.4 91.5L383.4 92L383.2 92.6L383.6 94.8L383.1 95.8L384.4 95.9L384.8 95.5L384.9 94.7L385.2 94.1L385.5 93.6L386.4 93.1L387.3 95.5L388.1 96.3L389.9 96.9L391.5 98.3L393 99L393.1 100.4L392.9 100.8L392.5 101L392.6 101.4L393 101.9L394 102.6L394.2 103.1L394.3 103.7L395.3 103.7L396.6 101.9L398 103.5L398.5 104.5L399.3 105.1L400.2 105.6L401.3 105.4L402.1 105.4L403 106.6L402.8 107.9L403.5 109.1L404 109.4L404.1 110.3L404.8 110.7L405.7 110.9L406.2 110.6L407.1 110.5L408 109.9L408.4 107.9L408.7 107.2L408.8 106.6L408.5 105.8L408.4 105.1L408.5 104.6L408.9 104L409.9 103.4L410.9 101.3L411.8 100.6L412.7 100.3L412.9 100.4L413.1 100.9L413.6 101.3L414.4 101.8L415.3 101.6L416.2 100.9L416.8 102.1L416.9 102.9L417.4 103.6L418.8 104.3L419.6 104.3L421.7 101.6L423 100.4L424.1 101.2L425.5 101L426.1 100.6L427.1 100.3L427.5 99.9L427.9 99.5L428.9 97.9L430 96.4L430.6 96.1L431.1 96.1L433 94.8L434.2 93.2L434.4 92.8L434.5 92.1L434.8 91.4L435.1 92L435.9 91.7L437.4 91.6L437.9 91.6L438.2 91.7L438.7 91.3L439.4 91.2L441.2 89.4L441.8 89.1L442.6 89L443 88.8L443.4 87.8L443.8 87.3L444.2 86.2L444.4 84.6L445.1 84.6L445.9 85.5L446.1 86L447.4 85.7L447.9 85.9L448.1 86.6L448.5 87.3L448.9 87.8L449.4 87.6L449.9 86.9L451.1 88.1L451.6 89.2L452.4 90.3L452.7 90.7L453 90.8L453.7 91L454 91.6L454 91.9L454 92.1L454.4 92.6L455.4 93.9L457.6 95.7L458 96.6L459 97.3L459.3 98.4L458.7 99.4L457 99.5L456.2 101.2L455.7 103.6L456.4 104.6L457.3 105.2L457.9 105.3L458.7 106L459.2 106.1L460 106.6L461.1 108.1L461.8 108.1L462.3 107.7L463 107.5L463.7 108.3L465.6 109.3L466.2 109.8L466.5 110.4L467.2 111.2L467.5 111.9L467.6 112.7L468.1 113.7L467.9 115.3L468.5 115.9L469 116.9L469.5 117.6L470.3 117.6L470.7 117.7L471.7 117.6L472.2 118L472.8 118.1L473.2 118.9L473.5 119.1L473.7 119.6L473.8 120.5L473.7 121.3L473.4 122.4L473.4 122.8L473.1 123.6L473.5 124L473.8 124.5L473 125.3L472.7 126L472.6 126.8L472.3 127.4L472.2 128.8L471.8 129.6L471.9 130.4L472.8 131.2L473.9 132.6L474.6 134.6L474.7 135.3L475.3 136.3L476.1 137.6L477 138.4L477.7 138.8L478 139.7L477.9 141.1L478.5 141.9L478.8 143L479.5 143.9L480.3 145.7L480.5 146.4L481.2 147.2L481.7 146.9L485.3 147.1L486.5 146.8L487.5 146.3L488.2 145.2L488.2 144.3L487.6 143.4L487.3 142.7L487.1 140.7L487.1 139.9L487.2 139.6L488.4 140.7L490.1 141.4L490.8 141.4L491 141.2L491.6 138.3L492.3 137L493.4 135.9L494 135.5L494.7 135.8L495.6 137.4L496.7 138.5L497.3 138.5L497.9 137.4L498.4 135.7L499 134.1L500 133.1L500.9 132.7L501.6 132.7L503 133L504.1 134.1L504.6 135.1L505.9 134.6L506.7 134.9L508 134.3L509.4 133.3L510.4 132L510.8 130.3L513.4 129L515 129L516.4 128.4L517.7 127.5L518 126.4L517.9 125.6L517.5 124.5L516.7 123.5L519.8 121.8L523.4 119.5L525.7 119.6L526.5 119.8L526.7 120.1L526.5 122.3L526.6 124.2L527 125.9L527.3 126.4L526.1 129.5L525.6 131.7L525.5 133.8L526.4 139.1L527 140.4L528.5 141.4L527.1 142.7L522.8 146.1L521.8 147.4L520.2 148.1L518.4 148.3L517.7 148.5L518 156L517.5 157.1L515.6 159.4L518.8 164.1L519.3 164.4L524.7 158.7L527.1 156.6L527.8 156L529.2 156.2L529.6 156.4L529.7 156.5L529.8 156.9L529.9 157.8L530.4 158.3L530.4 158.4L530.8 158.6L530.8 158.7L531 158.7L531.5 158.8L531.7 158.8L532.8 158.7L533.5 159L534 159.4L534.1 159.5L534.3 159.8L534.5 160.1L534.6 160.5L534.9 160.7L535.1 160.9L535.4 161.8L535.5 162.2L535.5 162.3L535.5 162.6L535.5 162.7L535.2 163.4L534.9 163.8L534.7 164.1L534.6 164.2L534.2 165.1L534 165.9L534 166.4L534.1 166.9L534.2 166.9L534.2 167.1L534.3 167.2L534.3 167.3L534.7 167.6L534.9 167.7L535.2 167.8L536.2 168.3L537 168.7L537.5 169.1L537.6 169.4L537.7 169.4L537.8 169.4L537.8 169.5L537.9 169.5L538.2 170.2L538.2 170.2L538.2 170.2L538.3 170.2L538.4 170.8L538.5 170.9L538.6 171.1L538.6 171.2L538.8 171.4L538.8 171.6L539 171.7L539 171.8L539.6 171.9L540 171.9L541.8 171.7L542.8 172.1L543.1 172.4L543.6 172.9L543.4 173.7L543.3 173.8L541.9 175.3L541.8 175.5L541.6 175.7L541.6 175.8L541.1 176.6L540.9 177.3L540.7 179.4L540.4 180L539.6 180.9L539.5 181L539.4 181.2L538.7 181.7L537.6 182.5L537.2 183.3L537.1 183.4L537 183.8L536.8 184.8L536.7 185.7L536.8 185.7L537.2 188.3L537.3 189.6L537.5 192.8L537.4 194L537.2 195L537 195.3L536.6 196.1L536.5 196.3L536.3 196.5L536 197.1L535.9 197.2L535.7 197.5L535.7 197.6L535.4 198.1L535.3 198.3L535.1 198.5L535.1 198.6L534.7 199.2L534.6 199.2L534.4 199.7L534.4 200L535.3 200.1L535.4 200.1L536.7 200.1L536.8 200.1L537.3 200L538.9 200.3L539.5 200.4L541.7 200L542.2 199.7L543.1 199.5L543.8 199.4L543.9 199.4L544.2 199.4L545.6 199.5L546 199.5L546.4 199.7L548.6 201.5L550 202.4L552.2 204.4L552.3 204.5L552.4 204.6L552.5 204.7L552.5 204.8L552.5 205.5L552 206.7L551.9 207.7L552 207.7L552.3 209.1L552.2 210L552 210.4L551.7 211.3L551.6 211.7L551.2 212.1L551.1 212.2L550.4 212.7L550.4 212.8L550.3 212.8L550 213.4L550 213.9L550 214L550.1 214L550.2 214.2L550.6 214.5L551.6 215.6L551.7 215.8L551.8 215.9L551.8 216.4L551.9 216.6L552.1 216.8L552.3 217.5L552.3 218.1L552.5 219.4L552.6 219.5L552.6 219.6L552.8 219.8L552.8 219.9L553.6 220.3L554.1 220.3L554.8 220.6L554.9 220.6L555 220.6L556.3 220.8L557.6 221.2L558.6 222L558.7 222.1L558.8 222.3L558.9 223.3L559.1 224.1L558.8 224.1L558.5 224.6L558.5 225.5L558.2 226.5L557.5 227.1L556.4 227.7L555.3 227.9L554.2 228L553.2 228.6L551.9 229.7L551.4 229.7L550.9 228.8L549.8 228.5L547.5 228.3L546.5 228.5L545 228.3L544.4 228.1L542.3 228.9L541.3 229.7L540.1 230.2L538.4 230.7L538 231.3L537.7 231.5L537.6 231.2L537.6 230.6L536.8 230.7L536.2 230.6L535.1 229.9L534.5 229.6L533.8 229.6L533.2 230L532.8 230.9L532.4 231.5L532.1 233L531.5 234.3L531 235.7L531.1 237.3L530.5 238.1L530.3 238.9L530.2 239.9L531.7 241.5L532 242.6L532.9 242.9L533.6 243.4L534.9 244.7L534.7 245.5L534.2 246.2L534.7 247.4L534.5 247.8L534 248.1L534 248L533.2 247.8L532.3 248.1L531.7 247.7L530.9 247.9L529.3 245.9L528.5 245.3L527.1 245.1L525 244.5L523.9 246.5L523 247.6L522.3 247.8L521.8 248.6L521.4 248.3L518.1 248L517.2 248.5L517 249.7L515.1 249.1L513.5 248.3L511.8 248.6L507.4 248.8L506.4 248.5L505.2 248.8L504.5 249.6L504.4 250.5L504 251L503.1 251.5L503.4 252.8L503.4 253.4L503.1 254.3L503.4 255L503.1 256L503.7 257.6L503.8 258.5L502.3 259.4L501.9 259.9L500.5 260L499.5 259.8L499 259.2L497.7 259.4L497 259.3L496 259.3L494.6 260.3L493.8 260.7L492.6 260.6L491.9 260.7L492.4 261.5L491.7 261.9L491.4 262.8L492.6 263.9L492.7 264.6L492.2 265.1L492.5 266.2L492 267.5L491.4 268.4L491.3 269.7L491 270.8L491.1 271.3L491 271.8L490.5 272Z" />
	<path id="Mandi" class="shp0" d="M409.9 337.1L409.8 337.6L409 337.5L408.2 337.5L407.3 337.9L406.6 338.6L406 339.6L404.7 343.2L404.4 345.9L404.1 347L403.5 347.7L402.7 347.8L401.9 349.3L401.4 349.6L400.5 351.1L400.1 351.4L398.7 351.7L397.9 352L397.4 351.7L397.1 350.8L396.5 350.5L396.1 351.3L394.7 352.5L394.3 353.3L393.9 353.8L393.7 353.5L393 353.1L391.3 352.8L390.5 353L389.5 354.6L388.7 355.4L387.8 355.4L387.5 354.4L387 353.7L385.7 355.4L384.3 357L383.7 357.5L382.9 357.6L382 357.4L381.1 357.9L380.3 357.9L379.7 357.5L379.4 356.9L379.5 356.1L379.4 355.5L379 355.1L377.8 355.5L377.2 355L376 355.5L374.6 355L373.5 353.7L372.3 352.8L372 352.5L369.6 351.3L368.6 350.7L366.9 348.6L365 347L364.6 346.7L362.1 345L360.9 343.2L359.5 342.1L358.1 341.4L358.4 340.6L358 339.3L356.8 337.7L355.4 336.3L354 337L353.1 336.8L351.9 337.2L351.1 337.8L350 338.4L349.8 337.4L350 336.4L349.4 335.2L348.7 334.2L349.2 333.6L350.1 333.5L350.9 333L350.8 331L350.5 329.3L349.2 329.1L348 329.1L346.4 328.6L345 327.7L344.3 327.9L343.9 328.3L343 328L342.5 327.5L341.6 327.7L341.5 327.1L341.8 326.1L341.6 324.9L340.8 324.1L341 323.2L341.6 323.2L341.5 322.4L341 321.2L340.9 319.4L340.2 318.9L339.5 318.2L339.9 316.6L339.6 315.5L339.5 315.3L338 313.2L337.4 312.6L336.9 312.7L335 312.8L334.3 313L333.4 312.7L333.9 312.3L334.2 311.9L333.6 310.7L333.8 309.6L333.1 308.5L333 307.1L333.7 306L332.9 305.8L333.2 304.4L333.2 303L333 302.5L332.9 301.3L332.3 299.1L331.4 296.9L331.3 295.4L332.3 291.2L332.7 290L331.6 288.9L328.7 287.3L328.5 285.5L328.5 284.9L327.9 284.3L328.1 283.1L326.6 282.2L326.2 281.1L326.4 279.5L325.5 278.5L324.5 278.3L323.6 278L323.3 277.9L322 276.8L321.1 273.9L320.6 272.8L320.1 270.5L320.8 266.4L320.9 265L320.8 263.5L320.9 262.3L321.6 261L321.9 258.3L322.4 257.4L323.4 257.8L324.6 258L325.7 257.6L326.8 257.6L326.7 256.7L326.5 255.7L326.5 255.4L326.5 254.4L326.9 253.8L326.7 252.8L326.7 252.3L327.3 251.8L327.8 250.1L327.8 249.4L328 248.7L328.6 248.4L328.3 246.7L328.2 246.1L328.1 245L327.5 244L327.8 243.1L327.5 241.5L327 239.9L325.7 237.8L325.2 236L325 233.1L326.5 231.4L326.6 230.8L327 230.4L328 229.8L329.7 230.2L330.1 230.8L330.1 231.7L331 232.4L332.1 232.8L332.8 232.8L332.9 233.3L333.8 233.2L334.5 232L336.5 229.5L337.5 227.7L338.3 227.1L339 227.4L339.5 226.4L340.1 226.2L341.1 226.4L341.4 227.6L342.7 228.8L344 230.3L345.5 231.1L345.9 231.5L346.6 231L347 230.5L347.8 230.1L348.9 230L351.1 229L352.9 228.7L354.3 228.6L355.2 228.9L356.1 228.8L357.2 228.3L357.6 229.1L357.7 231.1L359.5 232.9L360.1 233.7L361.6 234.4L362.1 236.3L362.2 238.1L362.1 239.3L361.8 240.6L363.2 243.5L364.4 245.2L364.8 246.5L366.4 249L367.2 250.4L367.5 251.9L367.6 253.6L367.9 254.7L370.8 259.6L371 260.3L371.5 260.6L371.1 262.5L371.3 263.3L371.3 263.9L372.5 263.8L373.6 264.2L374.1 264.7L375.5 263.6L376.6 263.3L378.5 263.4L383.9 263.3L384.5 263L385.4 262.8L385.2 264.3L384.9 265.2L386.2 265.9L386.6 267L386.4 268L387.3 269.7L387.1 270.7L387.6 271.6L387.5 272.5L388.4 274L388.7 274.7L389.1 276.2L389.1 277.1L389.3 278.3L389.3 279.9L389.8 281.5L390.7 280.9L390.8 281.1L390.9 281.3L392.2 281.8L393.1 282.8L394.5 283.2L396.3 284.6L397.6 286.3L400.1 290.7L399.3 292L400.2 296.9L400.3 298.6L400 300.5L399.7 301.5L400.2 303.5L400.1 305.7L399.8 306.9L400.3 308.6L401.2 309.9L401.9 311.2L401.5 312L401.6 314.7L402.1 316.2L402.3 318.5L402.6 320.4L403.2 322.4L403.9 323.8L404.7 324.3L406.3 326.3L406.9 326.9L407.7 327.7L408.4 328.1L408.9 328.6L409.3 329.5L409.4 330.3L409.1 331.1L409.2 331.6L409 332.3L409.7 333L409.6 333.4L410 333.9L409.8 335L410 335.8L409.9 337.1Z" />
	<path id="Shimla" class="shp0" d="M426.1 428.3L425 427.5L424.3 427.3L423.4 426.7L422.4 426.5L422.8 425.6L422.5 425L422.5 424L422.4 423.4L422.1 423L422 421.6L422.1 420L422.4 419.2L421.7 418.6L421.5 417.9L420.6 415.5L419.8 415.7L419.2 415.6L418.7 415.4L417.6 415.9L416.6 414.8L415.3 414.4L415.8 413.4L415.9 412L415.6 411L415.1 410.3L414.7 409.8L414.5 408.7L414.3 407.9L413.9 407.5L413.5 406.8L412.8 406.2L412.7 406L414.8 404.9L415.5 404.3L416.3 403.1L416.2 402.3L416.2 401.3L416.3 400.3L416.3 399.6L416.1 398.3L415.1 396.8L414.5 396.4L414 395.9L413.9 395.6L413.4 395.2L413.2 394.7L412.4 394.5L412.3 394.4L411.7 393.8L410.5 392.7L408.1 391.1L408 391.9L406.9 393L403.9 394.4L403.5 395.2L403.1 396.2L402.8 396.6L402.5 397L402.3 397.7L401.9 398.3L401.4 398.3L400.9 398.9L400.4 399.3L399.6 399.5L399.4 400.1L399.4 401.3L398.8 402.1L397.9 402.1L397.1 402.5L396.4 403.2L395.4 403.8L395.1 404.4L394.9 405.8L394.2 406.8L393.2 407.3L393.1 406.3L392.9 405.5L392.6 404.8L392.6 404L393.4 403.6L393.9 402.8L393.3 402.1L392.7 401.6L392 400.9L390.2 400L389.4 400L388.7 399.9L388.2 399.5L388.2 398.8L388.5 398.4L388.8 397.6L389 396.9L388.9 396.2L388.4 395.5L387.8 394.9L387.6 394.7L386.3 393.4L385.6 393.4L385.4 393.6L385.2 393.7L384.5 394.1L381.9 393.5L381.4 391.6L379.6 390.3L378.5 389.9L377.7 390.1L376.8 390L375.3 389L374.6 388.2L373.8 387.8L373 387.6L372.3 387.1L372.7 386.4L373.8 386.1L373.9 385.2L374.5 384.6L373.7 382.5L373.5 381.6L372.9 381.3L372.5 381.6L371.8 381.2L371.1 380.9L370.3 381.6L369.7 382.4L369.3 383.6L368.8 384.2L368.3 382.4L367.5 382.1L367.3 381.2L367.4 380.5L368.5 380L369.1 379.3L370.1 379.2L370.8 378.6L370.3 377.6L369.7 376.7L368.9 376.9L367.9 376.9L367.6 377.6L367.4 377.8L366.4 377.8L364.4 378.4L363.5 377.4L363.5 377L363.5 376.7L363.9 376.6L364.4 377L365.1 377.1L365.5 376.9L365.7 376.5L365.6 374.6L365.8 373.6L367.9 371.2L368.3 370.2L367.4 368.7L365.9 367.7L365.1 366.7L364.9 365.6L364.8 364.5L365 363.3L365.6 362.3L366.8 360.9L366.1 359.7L366 358.5L365.1 358L365.9 354L366.3 352.6L366.2 351.5L364.9 348.5L366.6 349.9L368.3 352L369.3 352.6L371.7 353.8L372 354.1L373.2 355L374.3 356.3L375.7 356.8L376.9 356.3L377.5 356.8L378.7 356.4L379.1 356.8L379.2 357.4L379.1 358.2L379.4 358.8L380 359.2L380.8 359.2L381.7 358.7L382.6 358.9L383.4 358.8L384 358.3L385.4 356.7L386.7 355L387.2 355.7L387.5 356.7L388.4 356.7L389.2 355.9L390.2 354.3L391 354.1L392.7 354.4L393.4 354.8L393.6 355.1L394 354.6L394.4 353.8L395.8 352.6L396.2 351.8L396.8 352.1L397.1 353L397.6 353.3L398.4 353L399.8 352.7L400.2 352.4L401.1 350.9L401.6 350.6L402.4 349.1L403.2 349L403.8 348.3L404.1 347.2L404.4 344.5L405.7 340.9L406.3 339.9L407 339.2L407.9 338.8L408.7 338.8L409.5 338.9L409.6 338.4L410.2 338.7L410.8 338.8L411.4 338.4L411.9 339.2L413.4 340.9L414 340.8L414.7 341.6L415.5 341.2L416.7 341.4L417.6 340.7L420.2 340.3L420.5 339.9L422.8 339.4L423.9 339.5L425.2 340.1L426.1 340.1L426.8 339.8L427.7 337.4L428.7 335.3L429.4 334.6L430.4 334.3L431.4 334.6L433.7 333.2L434.8 333.1L436 333.5L437.1 334.3L438.3 333.9L438.8 332.9L437.9 330.3L437.5 328.8L437.7 326.4L438.1 325.3L438.6 324.7L439.6 324L441.2 323.3L442.2 323.1L443.2 322.6L443.8 321.6L444.4 320.3L445.2 318.9L446.7 317.5L447.3 317.3L447.6 316.4L446.9 315.4L446.6 313.9L447 312.2L446.4 310.3L445.5 309.8L444.7 309L444.2 307.4L443.5 307.2L442.4 305.5L441.4 304.5L441 302.3L440.6 301.3L440.5 300.2L440.5 299.1L440.8 297.3L441 296.6L441.7 296.3L442.1 295.8L440.8 293.2L440.5 292.9L440.3 292.2L440.4 291.8L440.8 291.1L441.6 290.3L441.9 288.9L442.8 288.3L443.9 285.8L444.6 285.1L445.6 285L447.3 285.2L448.1 285L450.3 283.4L451.2 283.3L452.1 283.5L452.6 284.4L453.6 284.9L454.6 285L456 286.4L456.7 287.6L457.1 288.9L457.3 289.7L458.4 290.4L459.4 291.4L459.8 292.3L460.3 294.5L460.8 295.3L460.7 296.2L459.8 298.6L459.6 299.5L460.3 300.4L462.1 303.4L462.5 304.4L462.1 307L462.2 308.4L462.7 309.7L463 311L463.2 312.5L463.1 313.5L462.7 314.7L462.7 315.7L463.9 315.5L464.4 315.9L464.8 315L465.3 315.6L466 316.2L466.2 317.2L467.2 318.2L467.6 318.9L467.7 319.9L467.3 321.4L468.3 322.2L469.1 323L469.5 323.6L470 325.7L470.7 326.1L471.1 326.8L471.6 327.3L472.2 327.5L472.9 328.6L473.4 328.9L474.8 328.7L475.3 328.9L476.7 330.1L477 331.9L478.5 332L480.7 331.5L481.2 331.8L482.2 331.8L482.9 331.6L484.1 332L484.6 331.8L485.1 331.4L486.8 329.8L487.6 329.2L489.3 329.7L489.8 329.4L490.5 329.4L491.3 328.8L491.6 328.7L492.2 328.9L493.3 329L493.4 329.6L494.1 330.6L494.8 330.7L495.9 331.2L496.3 331.6L497 332.7L497.6 333L498.3 334.1L499.1 333.6L499.8 334.1L500.2 334.7L500.5 335.6L499 338.4L499.8 340L500.3 340.8L501.2 340.8L502.2 342L502.9 341.9L504.9 343.1L505.6 343.2L506.3 343.7L506.9 343.7L507.6 343.3L508 342.8L508.8 342.3L509.5 341.3L509.9 341.1L510.2 341.3L510.4 341.9L510.8 342.3L511.1 342.9L511.6 343.3L513.3 343.8L515.3 343.9L516.5 345.3L516 346.2L516 347L515.7 347.8L515.7 348.8L517 349.9L517.8 350.3L517.6 350.9L517.4 352.7L517.2 353.8L516.6 354.1L515.4 353.7L514.3 353L513 354.7L512.6 355.3L512.4 355.9L512 356.3L511.8 356.9L511.1 357.4L510.5 357.3L510.5 357.9L509.9 358.6L508.2 358L507.5 358L506.9 358.2L506.6 358.7L506.2 360L505.3 360.4L504.7 360.5L504.4 360.3L503.4 359.3L502.8 359L502.1 359.1L501.8 359L501.5 358.9L500.9 359.2L500.6 359.1L500 359L499.8 359.7L499.5 360.1L498.7 360.4L498.4 361.4L496.6 361.7L496 362.9L495.5 363L495.2 363.5L494.5 363.9L493.5 365L493 365.3L492.1 365.3L491.6 365L491.1 365L489.7 365.1L489.1 365L487.4 365.8L487.3 365.9L486.3 366.2L485.9 367L484.7 368.4L484.6 369.2L484.7 370.4L484.4 371L483.6 370.7L481.8 369.1L480.9 368.9L480.2 369.1L479.1 369.3L477.4 367.2L476.4 367.6L475.8 368.4L475.6 369L475 369L472.7 370.7L472.1 370.9L471.3 370.4L470.2 370.6L469.6 371L469.9 371.9L469.4 372.8L468.8 373.7L468.6 374.6L468.6 375.7L467.9 375.9L466.2 377L465.5 377.8L465.3 378.9L465.3 380.3L464.4 382.5L463.8 383.1L463 383.2L462.3 383.6L461.7 385.1L461.1 385.7L460.5 385.9L460.5 385.6L460.2 385.5L459.5 385.5L460 386L460 386.7L460.7 388.3L461.2 389.8L461.6 390.1L461.9 390.5L461.8 391.9L461.5 392.7L462 393.3L462.3 393.9L462.2 394.4L460.5 394.4L460.5 394.9L460.9 395.4L460.6 396L460.2 396.2L460 397.1L460 397.6L460 397.8L459.9 398.1L459.7 398.4L459.2 399L459 399.5L458.9 400L459 400.3L459.5 401L459.9 401.4L460.9 401.2L461.3 401.3L461.6 401.6L461.6 402.1L461.3 402.6L460.8 402.7L460.2 402.6L459.6 402.4L458.9 401.9L457.8 400.8L456.7 399.8L455.8 399.3L455 399.1L453.8 399.1L452.4 400.5L451.7 401.1L451.5 401.7L451.3 403.3L451.5 404.2L451.6 404.5L451.7 404.9L452 405.4L452.5 405.6L452.8 405.8L452.9 406.6L452.7 407.6L453.5 407.8L454.2 407.9L454.8 407.9L455.3 407.8L455.8 407.2L456.1 407L457 406.9L457.8 406.9L458.1 406.9L458.4 406.9L458.7 407.2L458.6 407.7L458.9 408.3L459.3 408.9L459.1 409.5L458.6 410.3L458.2 410.7L457.7 411.4L457.6 411.8L457.5 412.6L457.5 413.6L457.4 414.1L457.4 415.1L457.8 415.7L458 416.2L458.1 417.2L456.8 417L456.2 416.8L455.7 416.5L455.3 416.2L455 415.7L454.9 414.6L454.7 414.2L454.5 413.8L454.1 413.5L453.7 413.5L453.3 413.6L452.9 413.8L452.6 414.3L452.5 414.9L452.5 415.6L452.6 416.5L452.4 417.1L451.9 417.6L451.6 418L451.4 418.5L451.6 419L452.5 420.1L452.9 420.7L452.9 421.7L453 422L452.7 422.2L452.3 422.5L451.9 423.2L451.4 424L451.1 424.5L450.6 424.9L450.4 425.4L450.3 426.3L450.1 427.1L449.3 428.6L448.8 429.5L448.1 430.4L447.4 430.7L446.9 431.1L446.2 430.4L445.6 429.7L445.2 429L445 428.3L444.9 427.6L444.4 427.1L443.7 426.8L443.2 426.2L442.9 425.6L442.5 425.3L442 425.7L441.9 425.2L441.7 424.6L441.3 425L440.7 424.9L439.2 424.5L438.3 424.5L437.8 424.4L437.6 425L437.5 425.4L437.5 426L437.4 426.7L437 427.3L436.4 427.6L435.2 428.8L434.3 429.3L433.4 429.6L432.4 429.6L431.5 429.7L430.5 429.6L429.5 429.6L428.8 429.9L428.4 430.1L428.3 429.7L428.8 428.9L429 428.5L429.4 427.1L429.4 426.5L428.9 426.3L428.2 426.2L427.7 426.2L427.1 426.3L426.7 426.6L426.5 427.1L426.1 428.3Z" />
	<path id="Sirmaur" class="shp0" d="M460.1 471.2L459.9 471.5L459.3 471.9L458.6 472.3L456.2 472.6L455.7 473.2L454.7 473.5L453.8 474.2L452.5 475.3L451.6 476.1L450.7 476.8L449.5 476.9L448.7 477.5L448.1 478.2L447 479.1L446.1 479.9L445.7 480.8L443.7 481.3L442.7 481.2L441.9 480.7L441.1 480.7L440.8 481.1L440.5 481.9L440.2 482.6L439.9 483.2L438.3 483.2L437.7 482.9L436.7 483L435.1 483.6L434 484.1L433.2 484.7L432.4 485.5L431.8 486.2L431.7 487.3L431.8 488.2L432.4 489.1L433 490L433.4 490.5L433.3 491.3L432.2 491.2L431.3 490.3L430.7 489.8L429.6 489.2L429.1 488.5L428.7 487.4L428 486.7L427.6 486.1L427 484L426.6 482.7L426.1 481.2L425.6 481.3L425 482L424 483.7L423.8 485L423.8 486.2L423.3 486.9L422.8 486.5L422.2 486.8L421.1 487L420.3 488L419.4 488.1L418.2 488.1L417.3 488.2L416.8 487.6L415.2 487.5L415.1 486.8L415.7 486.2L416.3 485.7L417.9 485L418.2 484.1L419.5 482.5L419.6 481.6L419.9 480.7L419.8 479.7L419.1 478.6L418.5 478.5L417.3 480.8L416.2 482.3L415.1 483.4L414 484.3L413.2 485.7L412.6 485.4L412.8 483.9L412.5 483.3L411.1 482.5L410.9 481.4L410.4 481.4L409.6 481.5L408.1 482.1L407.7 481.1L407.3 479.7L406.9 479L406.1 478.7L405.3 478.6L404.5 478.8L404 479L403.3 479.7L402.6 480.3L401.4 479.8L400.6 479.4L399.3 479L398.4 478.7L397.1 478.3L396.9 477.6L396.8 476.8L396.3 476L395.7 475.5L394.5 475.4L393.5 475.1L392.7 474.9L391.8 475.3L391 475.9L389.9 476.1L389.5 475.4L389.6 474.7L389.5 473.1L389.5 471.9L389.1 471.1L388.5 469.9L387.9 468.9L386.6 468.2L386 467.8L385.3 467.6L383.9 467.2L383.1 467.1L382.2 467L381.4 466.5L380.4 465.5L379.7 464.1L379.4 463.3L379.1 462.5L379.3 462.4L379.6 462.1L380.2 461.9L380.6 461.7L380.8 461.5L381.6 460.8L382.4 460.1L383.2 459.2L383.7 458.6L384 458.1L384.4 457.6L384.5 457L384.5 456.3L384.5 455.3L384.6 452.5L384.9 451.4L384.7 450.8L384.2 449.9L383.8 448.9L383.8 448.2L384.1 446.7L383.9 445.3L383.5 444.6L383.4 444.1L383.8 443.4L383.6 443.1L383.1 442.6L382.3 442L381.5 441.3L380.5 440.5L380.2 439.7L379.6 438.8L378.7 438.1L377.9 438.4L377.5 438.1L377.5 437.5L377.8 436.8L377.6 436.5L377.1 436.2L376.5 436L375.9 435.4L374.8 434.6L374 434.3L373.1 434.4L372.3 434.3L371.4 434L370.3 433.3L369.8 432.9L369.4 433.5L369.4 434.3L369.2 434.8L368.7 435.1L368 435.3L367.4 435L367 434.5L366.7 433.9L366.5 433.4L366.8 433.4L367.2 433.6L367.8 433.6L368 433.1L368 432.4L368.2 431.8L368.5 431.4L369.6 430.7L370.4 429.8L372.7 428.2L373.4 427.7L374.1 426.9L374.5 426.2L374.4 424.9L374.6 423.9L374.9 423L374.9 422.1L374.9 421.4L374.8 420.8L375.4 420.5L376 420.2L376.5 420.1L376.9 419.9L377.1 419.6L377.3 419.1L378.1 418.4L378.6 417L379.3 416.9L380 416.9L380.5 416.7L381.2 416.8L381.6 417L382 417.1L382.3 416.5L382.8 416.6L383 417.2L383.7 417.9L384.1 418.4L384.7 418.4L385.4 418.2L385.8 417.7L385.7 416.8L385.8 415.8L386.3 415.8L387 415.7L387.6 415.3L387.9 414.8L388.4 414.4L389.8 413.6L388.8 411.7L389.8 410.5L389.8 409.6L390.1 409.3L390.6 409.5L391 409.8L391.4 409.8L391.8 409.6L392.2 409.4L392.4 408.8L392.9 407.6L393.6 406.8L394.6 406.3L395.3 405.3L395.5 403.9L395.8 403.3L396.8 402.7L397.5 402L398.3 401.6L399.2 401.6L399.8 400.8L399.8 399.6L400 399L400.8 398.8L401.3 398.4L401.8 397.8L402.3 397.8L402.7 397.2L402.9 396.5L403.2 396.1L403.5 395.7L403.9 394.7L404.3 393.9L407.3 392.5L408.4 391.4L408.5 390.6L410.9 392.2L412.1 393.3L412.7 393.9L412.8 394L413.6 394.2L413.8 394.7L414.3 395.1L414.4 395.4L414.9 395.9L415.5 396.3L416.5 397.8L416.7 399.1L416.7 399.8L416.6 400.8L416.6 401.8L416.7 402.6L415.9 403.8L415.2 404.4L413.1 405.5L413.2 405.7L413.9 406.3L414.3 407L414.7 407.4L414.9 408.2L415.1 409.3L415.5 409.8L416 410.5L416.3 411.5L416.2 412.9L415.7 413.9L417 414.3L418 415.4L419.1 414.9L419.6 415.1L420.2 415.2L421 415L421.9 417.4L422.1 418.1L422.8 418.7L422.5 419.5L422.4 421.1L422.5 422.5L422.8 422.9L422.9 423.5L422.9 424.5L423.2 425.1L422.8 426L423.8 426.2L424.7 426.8L425.4 427L426.5 427.8L426.9 426.3L427.1 425.8L427.5 425.5L428.1 425.4L428.6 425.4L429.3 425.5L429.8 425.7L429.8 426.3L429.4 427.7L429.2 428.1L428.7 428.9L428.8 429.3L429.2 429.1L429.9 428.8L430.9 428.8L431.9 428.9L432.8 428.8L433.8 428.8L434.7 428.5L435.6 428L436.8 426.8L437.4 426.5L437.8 425.9L437.9 425.2L437.9 424.6L438 424.2L438.2 423.6L438.7 423.7L439.6 423.7L441.1 424.1L441.7 424.2L442.1 423.8L442.3 424.4L442.4 424.9L442.9 424.5L443.3 424.8L443.6 425.4L444.1 426L444.8 426.3L445.3 426.8L445.4 427.5L445.6 428.2L446 428.9L446.6 429.6L447.3 430.3L447.7 431.6L447.9 432L447.8 432.4L447.6 433L447.7 433.5L448 433.8L448.4 434L448.8 434L449.2 433.9L449.5 433.9L449.7 434.1L450 434.4L450.1 434.8L450.4 435L450.7 434.9L451 435L451.2 435.3L451.3 435.8L451.3 436.2L451.7 436.7L452.3 437.1L452.5 437.7L452.7 438.3L453 438.8L453.4 439.2L453.3 439.8L452.9 440.1L452.8 440.6L452.5 441.2L452.5 441.8L452.5 443L452.9 443.5L453.6 443.9L454.2 444.3L454.9 444.6L455.4 445.2L455.9 445.8L456.2 446.3L456.6 446.5L456.9 446.3L457.1 446.3L457.4 446.3L457.6 446.6L457.1 447.4L456.6 447.9L456.4 448.5L456.9 449.5L457.2 450.1L457.3 450.7L456.9 451.5L456.8 452.1L457.4 452.5L457.8 453L458.1 453.5L457.7 453.7L456.9 453.7L456.3 453.6L455.6 453.4L455 453.3L454.9 453.9L455.1 455.7L454.8 456.3L454.2 456.2L453.4 455.3L452.9 455.2L452.5 455.2L452.2 455.4L452.1 455.8L452.1 456.3L451.9 456.8L452.2 457.1L453 457.6L453.6 458.1L453.9 458.9L454.3 459.6L454.6 460.4L454.8 461.1L455.2 461.8L455.7 462.2L456.2 462.1L456.7 462.3L457.1 462.8L457.5 463L458.5 462.4L459 462.6L459.5 462.5L459.9 462L460.5 462.1L460.8 462.6L460.9 463.6L460.9 464.4L461.3 465.2L461.6 466.1L461.4 466.9L460.7 468.2L460.6 468.9L460.3 469.7L460.1 471.2Z" />
	<path id="Solan" class="shp0" d="M363.8 376.7L363.8 377.1L364.7 378.1L366.7 377.5L367.7 377.5L367.9 377.3L368.2 376.6L369.2 376.6L370 376.4L370.6 377.3L371.1 378.3L370.4 378.9L369.4 379L368.8 379.7L367.7 380.2L367.6 380.9L367.8 381.8L368.6 382.1L369.1 383.9L369.6 383.3L370 382.1L370.6 381.3L371.4 380.6L372.1 380.9L372.8 381.3L373.2 381L373.8 381.3L374 382.2L374.8 384.3L374.2 384.9L374.1 385.8L373 386L372.6 386.7L373.3 387.2L374.1 387.4L374.9 387.8L375.6 388.6L377.1 389.6L378 389.7L378.8 389.5L379.9 389.9L381.7 391.2L382.2 393.1L384.8 393.7L385.5 393.3L385.7 393.2L385.9 393L386.6 393L387.9 394.3L388.1 394.5L388.7 395.1L389.2 395.8L389.3 396.5L389.1 397.2L388.8 398L388.5 398.4L388.5 399.1L389 399.5L389.7 399.6L390.5 399.6L392.3 400.5L393 401.2L393.6 401.7L394.2 402.4L393.7 403.2L392.9 403.6L392.9 404.4L393.2 405.1L393.4 405.9L393.5 406.9L392.8 407.7L392.3 408.9L392.1 409.5L391.7 409.7L391.3 409.9L390.9 409.9L390.5 409.6L390 409.4L389.7 409.7L389.7 410.6L388.7 411.8L389.7 413.7L388.3 414.5L387.8 414.9L387.5 415.4L386.9 415.8L386.2 415.9L385.7 415.9L385.6 416.9L385.7 417.8L385.3 418.3L384.6 418.5L384 418.5L383.6 418L382.9 417.3L382.7 416.7L382.2 416.6L381.9 417.2L381.5 417.1L381.1 416.9L380.4 416.8L379.9 417L379.2 417L378.5 417.1L378 418.5L377.2 419.2L377 419.7L376.8 420L376.4 420.2L375.9 420.3L375.3 420.6L374.7 420.9L374.8 421.5L374.8 422.2L374.8 423.1L374.5 424L374.3 425L374.4 426.3L374 427L373.3 427.8L372.6 428.3L370.3 429.9L369.5 430.8L368.4 431.5L368.1 431.9L367.9 432.5L367.9 433.2L367.7 433.7L367.1 433.7L366.7 433.5L366.4 433.5L366.4 432.7L366.5 432L366.3 431.3L366.1 431.1L365.7 430.9L365.3 430.6L364.8 430.2L365 430L365.3 429.4L365.8 428.7L366.4 428.1L366.4 427.3L366.5 426.7L366.4 425.6L366.3 424.8L366.2 424.1L366 423.7L365.6 423.5L365.1 424L364.9 424.3L364.7 424.7L364.5 425.7L364.1 426.6L362.9 425.2L362.1 425L361.2 424.7L360.5 422.8L359.9 421.9L358.8 421.5L358.1 420.7L358.1 419L358 418L356.7 415.7L355.7 412.3L355.1 411.3L353.3 412.7L352.4 413.1L351.4 414.3L350.5 415L349.4 415.4L347.6 414.1L345.9 412.7L345.1 411.5L344.4 409.8L344.9 407.5L344.8 406.6L344 406L342.7 406.9L339.3 409.8L337.4 408L337.4 407.2L336.8 407.1L336.8 406.3L336.2 406.3L335.6 406.1L334.2 404.7L334.1 404.2L333.9 402.9L332.5 400.9L331.6 400.9L330.8 400L330.5 399.5L330.3 399.4L327.2 399.8L326.5 399.6L325.4 397.9L323.1 396.5L322.2 396.2L321.6 395.3L320.6 394.7L320.3 394.4L320.7 391.6L319.7 389.8L319.3 388.2L319 386.6L320.2 385.5L319.7 382.7L320 381.9L320.5 379.9L322.1 377.7L321.9 376.5L320.9 375.9L319.9 376.2L318.7 375.2L317.7 375L318.2 373.6L318.8 371.3L318.3 371.3L317.8 370.4L318 369.9L317.8 369.2L318.2 368L318 366.3L318.9 365.7L319.2 365L319.8 364L320.6 363.1L321.4 362.9L321.6 362.5L323.4 361.5L325.1 361.1L326 360.6L328.6 360.3L329.3 359.7L330 359.3L330.9 358.9L332 358.3L332.7 357.7L333.2 356.8L333.8 356.9L334.6 357.4L335 357.9L336 358.6L337.2 358.7L338 358.9L338.5 359.9L340.8 359L341.8 358.4L342.4 358.7L343 358.7L343.8 359.2L343.9 359.1L344.4 359.1L345.2 358.2L346 358.5L346.6 359.4L347.9 360.2L349.4 360.2L350.5 359.4L349.4 357.6L348.9 355.9L348.5 355.9L349.1 354.2L349.6 353.4L350.3 353.3L351.2 352.8L352 353L352.3 352.5L351.9 351.6L352.2 350.9L352.9 350.6L353.6 350.5L354.3 350L354.8 349.2L355.7 347.2L355.1 347L354.7 345.4L353.9 345L352.9 345.1L351.8 344.6L350.1 343.3L349.6 342.7L350.3 341.3L349.8 340.4L349.6 339.8L349.6 339.2L349.6 339.1L350.7 338.5L351.5 337.9L352.7 337.5L353.6 337.7L355 337L356.4 338.4L357.6 340L358 341.3L357.7 342.1L359.1 342.8L360.5 343.9L361.7 345.7L364.2 347.4L364.6 347.7L365.9 350.7L366 351.8L365.6 353.2L364.8 357.2L365.7 357.7L365.8 358.9L366.5 360.1L365.3 361.5L364.7 362.5L364.5 363.7L364.6 364.8L364.8 365.9L365.6 366.9L367.1 367.9L368 369.4L367.6 370.4L365.5 372.8L365.3 373.8L365.4 375.7L365.2 376.1L364.8 376.3L364.1 376.2L363.6 375.8L363.2 375.9L363.8 376.7Z" />
	<path id="Una" class="shp0" d="M293.8 331L292.8 330.5L293.1 329.2L292.4 328.3L291.7 326.2L291 328L291.3 330.2L290.6 330.7L289.9 331.8L288.5 332.1L287.9 332.5L286.3 332.3L286.6 334.5L286.5 335.6L287.8 335.8L287.9 337.6L288.1 338.9L288.7 339.8L287.9 341L287.2 340.7L286.4 339.9L286.2 340.6L284.3 341.2L283.8 341.4L284.5 343.9L283.8 345L283.1 345.6L282.4 345.9L281.6 346.5L280.6 347L279.8 347.1L279.2 345.7L277.9 345.9L275.4 346L274.4 346.8L273.4 347.2L271 347.3L269.5 347L269 345.8L268.7 343.9L268.7 341.5L267.7 340.6L266.5 340.4L265.5 339.6L265 338.3L264.9 335L265.4 334.3L266.4 333.5L267.1 332.7L267.5 331.6L267.1 330.1L266.3 329.3L266.3 328.2L265.9 327.2L264.9 326.4L264.1 325.4L263.4 323.8L263.2 322.7L262.5 322L262.4 320.7L261.6 319.3L261.6 317.3L261.1 316.2L260 314.3L259.5 313.6L259.3 312.2L258.7 310.7L257.9 309.3L257.3 308L256.6 307L256.5 306.8L254.9 303.7L253.9 302.1L253.8 301.5L254 300.4L253.5 299.6L253.1 299.9L252.5 299.5L251.5 298.6L250.8 297.6L249.1 293.7L249.5 292.9L249.2 292L249.3 291L248.4 290.1L248.4 289L248.1 288.1L247.8 287.6L247.7 287.4L247.7 287.6L247.1 287.5L245.9 285.9L246.1 284.4L245.5 282.8L245.1 282.1L244.7 279.9L244.1 279.4L243.7 278.8L244 278.2L244 277.4L243.1 275.3L242.3 272.4L241.3 271.9L241.2 271.1L240.9 270L240.2 268.7L239.6 266.8L240.2 266.9L240.5 267.1L241 267.1L241.3 266.6L242.8 265.8L243.3 265.7L244.2 266.6L245 267.2L245.5 267.3L245.4 266.6L245 265.9L243.6 264.5L243.3 263.3L242.8 262L242.2 260.5L243.5 260.9L244.6 261.5L245.8 261.4L247 261.2L247.2 260.5L248 259.3L251.5 259.2L252.6 259.6L253.4 260.7L255.6 263.1L256.8 262.3L257.1 264.3L257.2 264.4L257.8 265.5L259.2 266.2L260.7 268.3L262.7 269.1L266 269.7L266.7 270.1L267.4 270.9L268.4 271.6L268.9 272.8L268.7 273.8L269.5 274.1L270.1 273.5L271.2 273.4L271.8 274.1L271.9 274.9L273.5 278.1L276.4 281.3L276.7 281.9L277.4 282.5L279.1 283.9L280 285L280.6 286.2L281.2 286.9L281.8 286.2L283.9 281.7L284.1 281.4L284.2 281.9L284.8 282.8L285.8 285.5L286.7 287.4L287.7 288.6L288.6 290.3L289.2 292.2L290.4 294L291.6 294.9L293.5 297.1L293.4 297.9L293.6 298.1L294.1 298.6L295 301.8L297.9 308.8L298.3 309.6L298.7 310.2L298.4 311.7L298.5 312.1L298.3 312.5L298.7 313.8L299.4 315.5L301 318.2L300.3 318.7L301 320.3L302.4 322.6L301.9 324.1L301.7 324.5L302.5 324.8L303.3 324.7L303.4 325.2L302.8 325.5L302.8 327L302.6 328L302.4 328L302 328L301.2 328.3L299.9 329.2L299 329.5L298.2 330L296.1 329.8L293.9 327.6L293.5 328.4L293.6 329.8L293.8 331Z" />
	<path id="Layer" class="shp1" d="" />
	<text id="Bilaspur" style="transform: matrix(1,0,0,1,303.772,343.183)" >
		<tspan x="0" y="0" class="txt2">Bilaspur</tspan>
	</text>
	<text id="Chamba" style="transform: matrix(1,0,0,1,264.237,159.959)" >
		<tspan x="0" y="0" class="txt2">Chamba</tspan>
	</text>
	<text id="Hamirpur" style="transform: matrix(-0.048,-0.999,0.999,-0.048,316.882,318.07)" >
		<tspan x="0" y="0" class="txt2">Hamirpur</tspan>
	</text>
	<text id="Kangra" style="transform: matrix(1,0,0,1,266.791,225.895)" >
		<tspan x="0" y="0" class="txt2">Kangra</tspan>
	</text>
	<text id="Kinnaur" style="transform: matrix(1,0,0,1,504.163,301.026)" >
		<tspan x="0" y="0" class="txt2">Kinnaur</tspan>
	</text>
	<text id="Kullu" style="transform: matrix(1,0,0,1,397.678,256.846)" >
		<tspan x="0" y="0" class="txt2">Kullu</tspan>
	</text>
	<text id="Lahul &amp;amp; Spiti" style="transform: matrix(1,0,0,1,389.193,159.959)" >
		<tspan x="0" y="0" class="txt2">Lahul &amp;amp; Spiti</tspan>
	</text>
	<text id="Mandi" style="transform: matrix(1,0,0,1,348.19,303.161)" >
		<tspan x="0" y="0" class="txt2">Mandi</tspan>
	</text>
	<text id="Shimla" style="transform: matrix(1,0,0,1,411.719,375.013)" >
		<tspan x="0" y="0" class="txt2">Shimla</tspan>
	</text>
	<text id="Sirmaur" style="transform: matrix(1,0,0,1,397.678,453.808)" >
		<tspan x="0" y="0" class="txt2">Sirmaur</tspan>
	</text>
	<text id="Solan" style="transform: matrix(1,0,0,1,333.024,390.257)" >
		<tspan x="0" y="0" class="txt2">Solan</tspan>
	</text>
	<text id="Una" style="transform: matrix(1,0,0,1,260.715,303.161)" >
		<tspan x="0" y="0" class="txt2">Una</tspan>
	</text>
</svg>