<svg version="1.2" baseProfile="tiny-ps" xmlns="http://www.w3.org/2000/svg" viewBox="0 0 1800 534" width="1000" height="300">
	<title>Jammu and Kashmir Map Chart (1)-svg</title>
	<style>
		tspan { white-space:pre }
		.shp0 { fill: none } 
		.shp1 { stroke: #000000;stroke-width: 0.4 } 
		.txt2 { font-size: 13px;fill: #000000;font-weight: 400;font-family: "LiberationSans", "Liberation Sans" } 
	</style>
	<path id="Layer" class="shp0" d="" />
	<path id="Anantnag" class="shp1" d="M269.5 324.2L267.9 322.7L266.6 320.5L265.4 318.9L264.1 317.4L261.6 315.9L261.4 313.5L261.3 311.8L261.1 310.6L260.9 308.6L260.4 308.2L260.3 307.1L260.1 305.8L259.6 304.8L259 304.7L258.6 303.2L258 303.1L257.7 302.1L257.1 301.1L256.8 300.5L256.3 299.7L256.3 298.8L255.4 298.2L254.9 297.6L254 297.4L253.7 296.3L252.8 296.3L251.6 296.7L250.3 297L248.5 296.6L248.4 295.4L248.5 293.9L248.6 292.3L248.4 291L249.3 290.1L250.2 289.7L250.3 288.9L251.2 288.9L252.1 288.5L252.6 287.9L253 287.2L253 285.9L253.5 285L253.8 284L254.5 282.9L255.7 282.3L255.7 281.3L255.7 280.8L255.8 279.3L256 278L255.3 277.4L255.2 276.9L254.2 276.9L252.8 276.8L251.6 276.8L249.9 277L249 276.5L248.7 275.9L249.4 275L250 274.1L250.3 273.6L250.9 272.7L251.5 272.4L252.2 272.1L252.9 271.6L253.9 270.7L255.2 270.5L256.1 270.5L256.6 270.1L257.3 269.2L258 268.7L259.3 267.6L260.2 267L260.8 265.8L261.3 264.8L261.8 263.7L262.5 262.8L263 262L263.5 261.5L263.5 261.1L264 254.6L265 251.2L264.7 250.2L264.4 249.2L264 248.7L263.9 247.7L263.9 246.7L263.6 246.3L262.5 245.7L261.8 245.7L260.7 245.5L259.6 245.1L258.6 244.3L258 243.8L257.3 243.4L256.7 242.3L256.3 241.3L256.4 240.2L256.1 239.9L255.7 238.7L255.2 237.4L254.8 236.8L254.2 236L253.5 235.2L252.8 233.9L253 233.1L253.7 232.1L254.7 232.3L255.5 232.1L255.8 231.1L255.4 229.8L256 229.2L256.7 227.8L259.1 228L261.7 228.5L263 226.5L264.8 224.9L266.4 223.5L267.6 222.8L270.2 223.3L274.1 224.7L275.9 225.4L277 225.9L278.1 226.5L279.7 226.4L280.6 226.4L281.2 225.6L282.3 225L282.8 225.6L283.5 226.4L284.1 227L284.8 228L285.5 229.2L287.1 229.9L287.7 228.8L288.6 227.7L289.7 226L291.2 225.8L292.5 225.6L292.5 226.9L293.7 226.9L294.2 227.6L295.5 227.6L296.6 227.8L297.4 228.9L297.4 229.8L297.7 230.9L296.6 233.1L296.2 234.9L294.9 236.5L293.8 236.9L292.7 237.9L292 239.4L292.1 241.6L292.4 243.5L293 245.6L293 247.1L293 248.4L292.3 249.7L290.7 249.7L288.8 249.8L286.9 249.8L285 249.9L284.1 250L284 252.7L283.7 254.5L283 255.8L281.7 257.4L281 259L280.2 261.7L280.2 262.6L280.4 264.5L281.3 265.1L281.9 267.5L282.3 269.9L282.3 271.7L283.3 272.7L283.1 274L284.2 275.2L285.2 277.6L285.4 278.2L286.1 279.4L286.3 280.4L286.7 281.1L286.7 282.6L286.8 283.5L287.8 284.5L288.6 285.8L289.4 286.4L290.2 287.9L290.2 289.8L289.5 290.5L289.2 291.1L289.2 292.9L289.3 295.4L289.3 297.6L289.3 300L289.9 301L291.2 301.6L292.4 302.3L292.7 303.5L291.7 304.7L291.3 305.1L290.2 305.7L290.2 307.2L290.3 311.4L290.1 313.5L289.2 313.5L288.5 314.7L287.6 315L287.2 316L286.8 316.4L287.1 317.6L288 318.5L288 319.8L288.6 320.7L288.7 322.2L288.6 324.7L288.7 325.7L289 326.6L288.2 328.1L286.8 328L286.2 329.4L284.5 330.9L282.1 331.5L280.1 332.4L277.6 332.5L275.5 330.7L273.3 327.9L271.5 325.2L269.5 324.2Z" />
	<path id="Budgam" class="shp1" d="M226.2 265.8L225.6 266.3L225.3 267L225 267.8L224.8 268.7L224.6 269.7L224 270.9L223.9 271.8L222.9 272.6L222.2 273L221.5 273.6L220.4 274.4L220.4 275.1L219.6 275.8L219 275.8L217.5 275.7L216.4 275.8L216.3 276.6L215.3 276.6L214.4 276.9L212.9 276.5L212.3 276.9L211.7 277.5L210.7 278.4L210.3 279.5L209.8 280.3L209.3 281.4L208 282.6L206.8 283.1L206.3 284.1L205.1 285.3L204 286.3L202.9 287.6L202.2 288.8L201.9 290.3L201.1 291.1L200.3 291.7L199.5 292.4L198.8 292L197.5 290.8L196.6 290L195.6 289.2L194.6 288L193.9 287.4L193.2 286.6L192.6 285.8L191.8 284.7L191.2 284.1L190.4 283.2L190.4 282.6L190.5 281.5L191 280.5L191.5 280.1L192 279.7L192.3 278.7L192.2 278.1L191.6 277.5L190.7 276.7L189.8 275.8L189.1 275L188.2 274.1L187.7 273.3L187 272.9L186.8 271.9L186.7 270.2L186.7 269L187 266.9L187.1 265.8L187.5 265.4L187.6 264L189.2 263.8L189.9 262.4L190.8 260.6L192.4 260.6L194.3 259.9L194.4 258.3L193.7 256.1L192.9 254.7L192.6 252.9L194.9 251.3L196.9 249.8L199.4 247.6L201.5 245.7L202.6 244.5L203.8 242.4L205.6 243L207.6 242.7L209.2 241.4L210 239.8L210.7 239.7L212.7 240.9L213.5 241.3L214.5 241.7L215.7 241.8L217.8 240.7L218.9 241.3L219.3 242.3L219.6 243.3L218.4 243.7L218.2 244.9L218.3 249L219.4 249.1L219.9 248.7L220.8 248.3L221.5 247.9L222.3 248.6L223.2 249.4L224.3 250L225.4 250L226 249.7L226.3 248.9L227.1 248.1L228.2 248.1L229.1 248.4L230 248.7L230.7 249L231.1 250L231.9 250L232 250L231.9 251.1L232 252.4L232 253.5L231.9 254.4L231.8 255.7L231.4 257L230.7 258.3L229.9 259.3L229 259.8L228.2 261.1L227.6 262.5L227.3 263.4L226.6 264.6L226.2 265.8Z" />
	<path id="Bandipora" class="shp1" d="M210.8 209L209.7 208.3L208.7 208L207.1 208L205.6 208.9L203.8 209.5L202 209L200.7 207.8L199.8 206.5L198.9 206.1L198.7 204.8L198.7 202.6L199.6 202.3L200.3 200.4L199.6 198.8L198.9 198.4L197.8 196.6L198.9 195.4L199.8 193.6L199.7 191.7L198.7 190.4L196.9 191.1L196.3 189L197.3 188.3L198.3 187.1L196.2 183.3L196.2 179.5L199.3 177L199.4 175.1L200.9 174.2L201.5 172.6L201.6 170.4L201.6 167.9L201 164.3L202.2 164.2L202.2 162L202.3 159.6L203.2 156.7L203.5 156.6L206.5 159.6L207 160.1L208.3 160.6L209 161.2L209.9 162.6L210.9 164.1L212.1 165.3L215.1 166.3L217.5 166.9L218.6 167.1L220.8 167.5L221.1 167.4L221.6 167.7L223 167.7L227.6 168.4L229.3 168.3L232.7 167.6L233.1 167.5L234.7 167.7L236.3 168.3L238.1 169.8L242.9 171.7L243.1 171.9L243.4 172.2L244.8 172.9L245.9 172.9L247 172.9L247.8 172.6L248.1 172.3L251 171.2L253 171.2L253.5 170.9L256.4 170.3L258.5 170.5L259.7 170.9L259.8 170.9L262.5 172.3L265.2 172L266.5 172.1L267.4 172.5L268 173.1L268.1 173.7L267.3 175.8L267.7 176.6L269.3 177.7L274.6 181.4L276 182.6L278.6 183.8L277.6 185.3L277.3 188.2L276.1 188.9L274.9 189.4L275 191.6L276.1 193.4L276 195.6L274.8 195.8L273.6 196.7L273.3 198.9L273.8 201.1L275.8 201.5L277.4 202.6L277.5 204.2L276.4 206.3L275.3 208.1L273.7 209.7L271.6 208.4L270.4 209.7L269.5 210.8L268 209.9L266.2 207.9L264.7 208.1L264 209L262.8 207.4L261.7 206.3L260.9 208.5L259.6 210.1L257.3 211L254.5 211.4L252.5 210L251.3 208.9L250.1 207.1L249 205.5L248.5 204.4L247 201.5L245.1 200.6L243.3 199.5L241.8 198.8L239.2 198.4L237.9 198L237.2 196.6L235.6 196.4L233.6 196.6L232.4 198L231.3 199.4L231.6 202.1L233.6 203.2L233.6 205.7L231.6 206.6L230.5 207.3L227.5 208.9L224.7 209.3L223.6 210.5L222.3 211.7L221.1 213.7L220.4 215L219.5 216.1L217.7 214.7L216.5 213.3L215.6 211.3L214.1 210L212.3 210L210.8 209Z" />
	<path id="Baramulla" class="shp1" d="M172.7 253.3L172.1 251.2L171.9 250.9L171 249.7L169.9 248.7L168.9 248.1L167.2 247.9L165.8 248L163.9 248.1L162.7 247.6L161.1 246.4L160.6 246.2L160.3 246.1L159.5 246.3L158.1 247.3L157.7 248L156.9 248.3L154.5 248.7L154 249L152.8 249.2L152.3 249.3L149.2 250.1L148.6 249.1L140 248.8L139 248.8L138.2 247.6L137.6 246.7L137.7 245.3L137.8 243.6L139.6 240.9L139.6 237.7L140.8 235.2L143.4 231.7L146.4 226.5L146.9 223.1L148.5 223L149.3 222.1L150.2 221.4L154.9 221.1L155.5 221.7L156.7 222.7L159.8 223L160.8 222.4L162 221.4L162.6 220.2L163.7 219L164.5 217.7L165.8 216.8L166.5 216.1L167.3 214.9L167.9 214.2L171.5 214.2L172.5 212.1L174.5 212.4L177.1 212.7L178.9 212.7L180.6 210.9L181.9 209L182.7 208.4L182.7 205.9L182.7 204.4L183.6 203.1L184.6 202.4L185.4 203.7L187 204L187.4 202.4L187.5 201.1L188.4 200.5L189 200.1L188.7 198.8L188.1 197.9L187.3 196.4L188.2 195.8L189.4 197.4L190.4 197.4L190.6 196.1L191.8 195.5L190.5 194.5L190.5 193L192.4 192.7L194.1 192.1L195 191.1L196.2 189.5L196.8 191.6L198.6 190.9L199.6 192.2L199.7 194.1L198.8 195.9L197.7 197.1L198.8 198.9L199.5 199.3L200.2 200.9L199.5 202.8L198.6 203.1L198.6 205.3L198.8 206.6L199.7 207L200.6 208.3L201.9 209.5L203.7 209.9L205.5 209.3L207 208.4L208.6 208.4L209.6 208.7L210.7 209.4L211 211.5L211.7 212.4L212 214L211.9 215.5L211.2 216.7L211.2 217.3L210.3 217.9L210.3 219.5L211 220.5L212.5 221.1L212.1 222.3L211 223.5L209.9 224.4L209.1 225.4L208.4 226.3L208.3 228.2L208.9 230.4L210.4 232L210.9 232.5L211.8 234.1L213.1 236L214.7 237.6L216.3 237.9L217.1 239.4L217.8 240.4L215.7 241.5L214.5 241.4L213.5 241L212.7 240.6L210.7 239.4L210 239.5L209.2 241.1L207.6 242.4L205.6 242.7L203.8 242.1L202.6 244.2L201.5 245.4L199.4 247.3L196.9 249.5L194.9 251L192.6 252.6L192.9 254.4L193.7 255.8L194.4 258L194.3 259.6L192.4 260.3L190.8 260.3L189.9 262.1L189.2 263.5L187.6 263.7L186.4 261.5L185.3 260.1L183.8 258.8L181.1 258.3L179.2 256.5L178 254.2L175.3 252.1L175.2 252L172.7 253.3Z" />
	<path id="Doda" class="shp1" d="M331.1 393.3L330.1 391.6L329.2 390.6L327.9 389.4L326.1 388.3L324.8 387.6L323.2 387.5L321.7 387.1L321.2 387.2L320.6 387.3L319.3 387.8L318.9 388.6L318.4 389.1L318.7 390.3L318.5 391.1L318.3 391.3L317.9 391.9L317.5 392.3L317.3 392.4L315 393.7L313.7 393.8L312.9 394.7L311.1 394.7L309.3 394.8L307.3 394.1L306.4 394.1L306.2 392.3L306.4 390.5L305.7 389.2L305.1 388.5L303.9 387.9L303 387.3L302 387.3L301 386.7L300.2 386.1L298.7 385.2L297.5 384.6L296.3 384L295.2 383.6L294.1 383L292.6 383.1L292 384L290.5 384.1L289.2 385.3L288.1 385.3L287 385.3L286.2 383.4L284.9 382.8L283.8 381.6L283.1 380.4L282.4 378.3L282.1 371.7L280.5 371.4L279.3 371.3L278.5 370.6L276.7 369.4L274.9 369.5L273.7 368L271.9 366.8L270.9 365.3L270.7 363.3L270.8 360.7L271 359.4L271.8 357.2L272.2 356.8L272.6 354.1L272.6 351.9L272.9 349.4L273.3 347.3L273.2 345.4L273.2 343.5L272.9 341.3L272 339.4L271.1 338.2L270.7 336.7L270.5 335.1L269.9 332.7L269.8 331.5L269.8 329.1L270.1 328.1L269.4 325L271.3 326.6L273.1 329.3L275.3 332.1L277.4 333.9L279.9 333.8L281.9 332.9L284.3 332.3L286 330.8L286.6 329.4L288 329.5L288.8 328L290.3 329L291.8 331.7L293.6 334.1L295.6 336.5L297.6 338.6L298.9 340.4L301.1 342.2L303.1 343.1L305.5 344.6L306.6 345.8L308.8 347.7L310.1 349L311.7 350.9L311.8 352.7L312.1 355.2L312.5 357.1L313.5 357L315 357.6L315.6 359.4L317.2 360.9L318.4 363.1L318.6 365L320.2 364.9L322.4 365L324.5 365.4L327 365.8L330.7 365.9L333.8 365.8L336.9 365.4L338.7 365.4L339.8 364.1L341.4 364L343.1 363.3L345.1 362.1L346.9 361.1L347.7 359.2L349.4 357.7L351.5 355.9L353.5 355.9L355.2 356L356.8 356.9L357.6 357.8L359.2 360L359.6 361.8L359.7 364.6L359.7 367.3L358.9 368.9L358.3 370.8L357.5 372.3L357.4 375.6L354.8 375.7L351.4 376.3L350.6 377.1L349.1 377.9L348.4 377.9L348 378.1L347.2 378.2L345.9 378.6L346 379.2L345.7 380.2L345.2 382.4L344.9 383.2L344.5 383.5L343.7 384L343.3 384.5L342.2 385.4L341.8 386.2L341.1 386.7L339.7 387.1L339.3 387.8L339.1 388.7L338.7 389.6L338.4 389.8L337.6 390L336.9 390.6L335.9 391.7L335.5 391.7L332 393.6L331.4 393.7L331.1 393.3Z" />
	<path id="Ganderbal" class="shp1" d="M210.8 209L212.5 209.6L214.3 209.6L215.8 210.9L216.7 212.9L217.9 214.3L219.7 215.7L220.6 214.6L221.3 213.3L222.5 211.3L223.8 210.1L224.9 208.9L227.7 208.5L230.7 206.9L231.8 206.2L233.8 205.3L233.8 202.8L231.8 201.7L231.5 199L232.6 197.6L233.8 196.2L235.8 196L237.4 196.2L238.1 197.6L239.4 198L242 198.4L243.5 199.1L245.3 200.2L247.2 201.1L248.7 204L249.2 205.1L250.3 206.7L251.5 208.5L252.7 209.6L254.7 211L257.5 210.6L259.8 209.7L261.1 208.1L261.9 205.9L263 207L264.2 208.6L264.9 207.7L266.4 207.5L268.2 209.5L269.7 210.4L270.6 209.3L271.8 208L273.9 209.3L275.5 207.7L276.6 205.9L277.1 207.2L278 207.4L278.8 209.4L278.8 211.2L278.7 212.8L279.6 213.3L279.1 215.3L279.4 216.9L279.8 218.2L281.1 217.8L282.6 217.7L285.2 217.5L286.3 218.8L287.5 219L287.6 221.3L288.4 221.8L288.7 223.6L289.1 224.3L289.5 225.6L288.4 227.3L287.5 228.4L286.9 229.5L285.3 228.8L284.6 227.6L283.9 226.6L283.3 226L282.6 225.2L282.1 224.6L281 225.2L280.4 226L279.5 226L277.9 226.1L276.8 225.5L275.7 225L273.9 224.3L270 222.9L267.4 222.4L266.2 223.1L264.6 224.5L262.8 226.1L261.5 228.1L258.9 227.6L256.5 227.4L255.8 228.8L255.2 229.4L254.3 230.2L251.9 230L250.7 229.1L249.5 227.3L248.6 226L246.8 225.5L244.4 227.1L242.4 227.6L239.4 227.1L236.7 226.4L236 224.8L234 224.3L231.4 224.3L229.6 224.5L228 225.6L226.8 227.2L226.5 228.5L226 229.7L225.8 230.6L225.6 231.6L224.8 232L224 232.4L223.2 232.4L222.2 231.8L221.1 230.7L220.4 229.9L219.4 229.7L218.6 229.1L217.5 229L216 229L215 229L213.9 229.2L213.2 229.6L212.5 230L211.9 230.4L211.2 230.6L210.8 231.3L210.5 231.7L209 230.1L208.4 227.9L208.5 226L209.2 225.1L210 224.1L211.1 223.2L212.2 222L212.6 220.8L211.1 220.2L210.4 219.2L210.4 217.6L211.3 217L211.3 216.4L212 215.2L212.1 213.7L211.8 212.1L211.1 211.2L210.8 209Z" />
	<path id="Jammu" class="shp1" d="M239 387.5L240.2 389.3L241.6 389.8L242.3 391L242.6 391.6L243.6 392.8L244.4 393.9L245.2 394.7L246.7 396.1L248.4 397.4L249.7 398.6L251.6 399.9L253 401.1L254 402L254.5 404L255.5 405.3L257.3 406.9L257.7 408.1L257.2 409.2L256.2 410L255.3 410.4L254.2 411.1L253.5 411.9L252.1 412.4L250.4 411.3L248.9 411L246.7 410.7L245.6 409.2L244.8 408.6L242.1 407.1L240.5 406.8L239.9 407.7L239.5 409.3L239.1 411.5L238 413.3L236.9 414.5L236 415.5L235.1 416.7L233.8 417.7L232.3 419.2L231.9 421L232.3 422.8L233.8 424.1L235.4 424.5L236.6 426L236.5 427.9L235.4 430.3L234.2 432.5L233.2 434.3L231.3 436.2L230.2 438.1L228.7 439.4L227.7 441.9L226.1 441.9L224.2 443.4L220.7 443.6L220.4 443.9L219.5 444L219.4 444L219.1 443.7L217 443.7L214.9 443.3L213.8 442.3L213.4 441.2L213.3 441L213.1 439.5L213.5 437.7L213.3 436.6L211.5 434.9L211.3 434.7L210.6 433.8L210.2 432.3L209.8 429.3L209.7 427.4L210.4 425.5L211.3 424.1L212.3 423L213 421.5L212.9 420.5L212.8 420.4L212.3 419.3L211.6 418.6L210.9 417.1L210.5 413.8L211.6 409.2L212.2 408.1L212.2 407.7L213.2 405.8L214.1 404L214.8 402.3L215.3 400.1L215 398.5L213.5 398.7L211.7 400L209.9 400.6L209.5 401.2L209.4 402.1L209.8 404.5L209 406.3L207.2 408.8L206.6 408.8L205.3 408.9L203.9 409.3L203.4 409L202.8 409L200.5 410.2L200.3 410.3L199.4 410.8L196.7 408.4L194.5 406.8L194.3 406.5L193.7 406.1L193.1 405.7L192.7 404.5L192.7 404.4L192.3 403.2L192 402.8L191.7 401.3L191.2 400.2L191 399.8L189.8 397.8L189.5 396.1L189.8 393.4L189.7 392.9L189.4 391.7L188.3 390.3L187.6 389.9L186 389.7L185.7 389.7L184.1 389.7L183.8 389.7L182.2 389.7L180.3 389.1L179.4 388.3L179.2 387L179.6 385.6L180.9 383.9L182 382.5L182.6 380.3L182.6 379.4L183.9 380L185 381.1L186.3 380.6L187.4 379.7L188.3 378.6L189.1 377.5L190.2 376.7L191.7 375.8L193.3 375.8L195.5 376.3L197.1 376.4L197.9 377.2L198.5 378.5L199.6 379L200.5 378.9L200.8 375.3L201.4 374.7L202.2 375.5L202.9 377.6L203.5 379.2L204.3 380.7L205.3 383L206.1 383.5L207.1 383.4L207.6 382.6L208.3 381.1L208 379.5L207 377.9L206.2 376.9L207.3 375.3L208.1 374L208.9 372.7L210 374.6L210.8 375.2L211.6 374.1L211.3 373L211.7 371L212.4 370.6L213.6 371.1L214.6 372L215.4 372.8L217 372.6L218.7 372.6L219.9 373.6L221.6 376.1L222.7 377.6L223.4 379.1L222.9 381.2L222.2 382.1L220.9 382.8L220.5 384.4L220.7 385.9L221 387.3L221.8 388.1L222.8 388.4L223.5 388.8L224.3 389.4L225.9 389.4L227.5 389.4L227.5 388L228.3 387.6L228.2 385.7L228.4 384.4L229.2 384L230.3 384.1L231.9 385.2L232.1 386.7L232.4 388L233.8 388.3L234.2 389.1L234.8 390.2L235.5 391.1L235.9 392.4L236.9 392.3L237.9 391.5L238.2 389.7L238.4 387.8L239 387.5Z" />
	<path id="Kulgam" class="shp1" d="M413.7 348.3L413.7 348.1L412.5 347.1L411.5 345L410.6 343.5L407 343L405.9 343L405 341L404.2 339L403.1 337.7L401.8 338.2L400.9 339.5L399 340.4L395.5 339.9L392.9 338.8L392.1 338.3L392.8 336.3L393.9 334.7L394.6 332.4L394.3 329L393.2 327.2L391.9 325L391.4 322.7L389.2 320L387.3 317.8L385.4 316L385.7 314.6L385.6 312.2L383.8 312.6L382.2 311.5L381.2 309.6L377.3 310.8L375.4 310.8L373.9 308.8L372.2 307L369.2 303.1L367.3 302.4L366.5 302.6L365.4 303.5L365.4 306.4L364.3 307.5L363 308.2L362.1 308.6L361 308.4L360.2 309.7L359.4 309.7L358.7 311.9L352.4 311.5L352.4 309.7L352.4 307.7L351.5 307.5L350.6 305.7L349.5 305.5L349.8 303.9L350.2 303L351.4 302.3L351.8 300.5L353 300L353.3 298.4L353.2 291L353.2 288.3L352.7 286.5L352.4 284.3L352.7 282.7L351.6 281.4L351.9 279.8L351.8 277.6L349.9 276.2L348.8 275.5L347.6 274.8L346.3 273.7L345.9 272.8L344.8 271.9L344.1 271L343.7 271L343.3 269.9L341.7 269.5L341.7 268.6L340.8 268.6L340.7 267.5L339.5 267L338.4 265.4L338 264L339.5 263.1L339.8 262.2L339.3 260.6L338.1 259.7L336.6 258.8L334.7 259.3L333.5 258.9L332.6 259.8L331.3 259.4L330.6 258.7L329.8 258.9L329.7 257.8L329.2 257.3L327.3 257.5L325.1 257.5L323.3 257.5L321 257.5L320.3 256.2L321.5 255.3L321.8 254.8L322.5 253.9L322 252.8L320.9 252.4L320.4 251.3L319.3 251.1L318.4 250.2L318.3 249.7L317 249.2L315.8 248.3L314 248L313.2 246.2L312.3 245.8L311.9 243.8L311.6 241.8L310.7 240.9L309.6 239.5L308 238L307.3 237.5L306.8 236.4L306 235.3L307.1 233.7L308.2 232.1L308.2 230.7L307.4 230.5L307.1 229.8L306 229.4L305.3 228.9L304.8 228.4L303.2 228L302.5 227.1L302 227.6L301.1 228.1L300.8 228.6L299.6 230L298.7 230L297.8 230L297.5 228.9L297.5 228L296.7 226.9L295.6 226.7L294.3 226.7L293.8 226L292.6 226L292.6 225L291.3 225.2L289.8 225.4L289.4 224.1L289 223.4L288.7 221.6L287.9 221.1L287.8 218.8L286.6 218.6L285.5 217.3L282.9 217.5L281.4 217.6L280.1 218L279.7 216.7L279.4 215.1L279.9 213.1L279 212.6L279.1 211L279.1 209.2L278.3 207.2L277.4 207L276.9 205.7L278 203.6L277.9 202L276.3 200.9L274.3 200.5L273.8 198.3L274.1 196.1L275.3 195.2L276.5 195L276.6 192.8L275.5 191L275.4 188.8L276.6 188.3L277.8 187.6L278.1 184.7L279.1 183.2L280.7 183.7L282.5 183.9L287.3 184.4L288.6 184.9L291.2 185.2L292.2 185.1L292.6 184.9L295.5 185.1L296.7 185L298 184.9L299.2 184.8L301.4 185L304.1 185.6L308.6 187.1L310.6 187.5L312.1 187.8L314 187.8L315.8 187L318.1 185.5L319.7 183.7L320.7 182.3L322.6 180.5L322.8 180.3L326.4 178.3L329.3 177L329.9 176.5L331.2 174L332.5 173.2L334.5 172.9L334.6 172.9L336 173.4L336.8 173.3L337.6 172.6L338.9 170.4L339.9 169.1L340.9 168.3L342.7 167.6L344.5 167.6L345.6 168.2L346.3 168.8L349 171.3L349.8 171.7L350.6 171.8L352.4 171.7L355.7 170.2L356.2 169.7L359 168.1L359.7 168L362.1 166.6L363.5 165.4L364.3 164.4L364.9 163L366 161.5L367.4 160.6L368.6 160.4L369.5 173.2L372.8 175.1L372.8 179.2L373.6 184.1L377.5 183L382 182.3L384.5 182.7L387 185.3L389.5 186.4L392.9 188.3L392.3 192.4L392.3 196.9L392.3 201.4L393.1 204L395.6 204.4L400.1 206.3L402.1 208.5L401.3 211.9L401 216L400.4 219.4L399.6 222L399.6 225.7L401.3 226.4L400.7 229.8L398.9 233.2L402.1 235.6L404.9 238.8L404.7 242.5L401.6 241.8L400.5 239.3L399.8 235.9L398.2 235.5L396.2 237.1L397 239.6L398.6 241.4L398.2 244.5L396 245.4L393.3 245L390.7 243.4L387.6 244.7L386.1 246.9L385.7 249.8L386.9 253.2L389.6 255.2L391.9 257L394.6 259.2L394.9 263L395.7 265.9L397.9 268.2L400.6 268.9L403 269.8L404.3 271.6L405.6 273.4L409 273.9L412.2 273.9L414.6 274.6L417.6 276.9L418.9 279.4L420.7 282.8L423.9 285.9L426.9 287.9L430.7 289.9L433.5 289.9L435.5 287.6L436.8 286.3L438.1 287.6L439.3 289.2L441.3 288.5L443.3 288.3L445.3 290.5L448.7 294.3L452.4 297.1L454.8 298.7L456.3 301.8L456.3 304.5L458.7 304.3L461.4 305.2L462.4 307.7L465.4 307.7L467.6 307.9L470 310.1L471.7 312.1L473.4 314.3L475.8 314.1L478.8 315.2L480.3 317.7L480 320.6L481 324.2L483.1 326L483.6 328.3L482.8 331.2L481.6 333.4L479.3 335.2L476.5 337.4L474.2 339.9L472 342.1L470.8 345L469.2 348.1L466.9 351.4L466.1 353.7L465.7 356.2L465.4 358.7L465.8 361.4L466.3 364.1L466.7 365.9L464.9 366.6L463.4 367.9L462.6 369.7L460.7 371.5L460.3 374.2L460.3 376.5L460.2 379.2L458.9 379.6L459 382.3L459 385L459.4 387.5L460.2 389.8L461 391.1L461.5 392.7L462.4 394L462.5 396L462.9 398.9L464.3 401.5L463.6 401.6L463.2 401.8L462.4 401.7L461.8 401.4L461.7 400.7L461.3 400.5L460.8 399.5L461 398.4L460.3 397.4L459.6 397.4L458.7 397.6L458 397.2L457.3 396.7L456.9 395.9L455.8 394.6L454.8 396L454 396L453.9 395.5L453.7 395.1L452.9 394.5L452.6 394.1L452.5 393.8L452.8 393.6L453 393.2L452.9 392.1L451.9 391.9L450.6 390.8L449.1 390.3L448.4 389.6L447.7 387.6L447 388L446.7 388.4L446.5 388.9L446.4 389.5L446.1 389.9L445 389.8L445.4 389L445 387.2L445.2 386.8L445.2 386.4L444.9 386.2L444.9 384.5L444 384.3L443.9 383.9L443.9 383.4L443.8 382.8L443.9 382.2L444 381.4L443.2 381L442.5 381.1L441.8 380.9L440.9 380.5L440.3 381.7L439.1 382.2L438.2 382.2L437.9 381.8L437.4 380.6L436.7 380.5L436.1 379.9L434.5 378.8L433.5 379.1L433.1 379.8L432.3 379.6L431.1 380.1L430.7 379.8L430.5 379.7L430.1 379.3L429.5 378.6L428.2 377.9L427.9 377.5L427.8 377L427.3 376.6L426.5 376.4L425 375.1L424.2 375L423.6 374.4L423.3 373.8L423.2 373.1L422.9 372.3L421.9 370.5L421.6 369.6L421.5 369L421 368.4L421 367.9L421.4 367L421.3 366.5L420.4 366.2L419.7 365L419.7 364.1L418.9 363.3L418.1 363.8L417.4 364.4L416.6 364.3L416.1 363.9L415.6 363.2L415.9 362.5L415 361.8L415.1 361L415 361L414.5 360.9L414.3 360.4L413.8 360.1L413.2 359.2L413 358.5L413.1 357.9L412.8 357.5L412.7 357L412.9 356.4L413.3 355.8L413.4 355.5L413.1 354.4L414.5 352.9L414.4 352.1L413.8 351.7L414 350.8L414.5 349.7L415 348.9L415.5 348.2L415.5 347.7L415.4 347.7L415.1 347.6L414.9 347.5L414.5 347.5L414.2 347.6L413.7 348L413.7 348.3Z" />
	<path id="Kathua" class="shp1" d="M250.8 444.2L251.8 443.7L252.9 443L253.8 441.7L254.1 440.2L255.1 440.1L256 439.1L257 438.9L257.6 438.9L257.9 438.3L258.6 437.1L259.1 436.2L259.6 435.2L260 434.3L260.5 433.9L261 433L262.3 433L264.2 433.2L264.9 432.4L265.5 431.9L266 431.6L266.6 431.2L267.4 432L268.8 432L270.1 432.2L271.8 432.1L272.9 432.1L273.3 431.4L274.4 431L274.3 429.7L274.2 429L273.6 427.6L272.7 426.9L271.8 426L271.2 424.6L271.5 423.7L271.6 422.3L272.8 421.6L274.1 421.8L275.1 422.2L276.2 422.1L276.6 421.2L276.9 420.2L277 418.9L277.4 418.7L278.2 418.8L278.8 419.4L279.4 420.2L279.9 421.5L281.7 421.4L283.5 421.2L285.7 421.1L287 421.3L287.5 420.4L287.8 419.5L287.7 417.5L287.6 416L287.7 413.3L287.7 412L287.6 410.7L288.3 409.7L289.2 409L289.8 408.4L290.7 408.2L291.2 407.5L293.2 407.4L295.1 407.4L295.8 408.5L296.3 409L297.3 409.4L298.6 409.1L298.8 408.3L299.7 408.2L300.4 408.3L300.3 407.7L302.4 407.6L303.9 407.5L305 407.3L305.6 406.6L306.1 405.9L306.4 404.9L306.4 402.9L306.3 401.5L306.4 398.4L306.5 396.8L307.1 396.4L307.2 395.5L307.1 394L309.1 394.7L310.9 394.6L312.7 394.6L313.5 393.7L314.8 393.6L317.1 392.3L317.3 393.4L317.4 393.8L317.9 395.2L318 395.3L319 397L319.3 397.4L320 398.2L320.5 398.7L321.1 399L322 399.5L323.7 400.8L325.4 402.4L326.5 404.7L327.9 407.9L329.1 409.5L329.2 411.4L328.8 414.1L328.3 415.6L327.8 416.7L327.6 417.9L327.8 419.2L328.4 420.3L329.3 421.1L330.2 422.1L330.3 422.6L330.1 423.9L328.6 427L328.3 427.5L326.6 430.4L325.3 432.4L325.2 432.5L323.8 434.6L322 437.2L321.3 438.8L321.1 439.4L320.7 440.8L320.6 441L319.9 442.1L318.8 443.6L317.5 444.6L316.4 445.1L315.8 445.1L314 445.1L313.3 445L313.2 445.3L313.1 445.9L312.3 447.7L311.8 448.9L311.4 449.7L310.9 450.7L310.5 451.5L310.1 452.2L308.8 453.3L307.5 454.4L305.4 455.3L304 455.9L303 456.1L298.8 456.8L296.4 458L295.5 458.6L294.4 459.4L292.9 460.9L292.4 462L291.6 467.3L290.6 469.4L290.5 469.6L290.2 470L290 470.1L289.6 469.9L289.2 468.5L289.4 466.6L289.3 466.1L289.2 465.7L288.7 465.7L288.2 465.7L287.4 465.2L287.1 464.8L287.6 462.1L287.5 462L287 462.2L286 462.9L285.6 463.1L285.3 463.2L283.8 463.8L283.7 463.8L282.2 464.1L280.5 463.9L279.4 463.7L278.7 463.6L278.2 463.4L276.9 462.9L275.6 462.4L275.5 462.3L274.3 461.7L273.7 461.9L273.6 462L273.4 462.5L272.4 461.6L270.3 460L269.5 458.8L269.3 458.7L268.2 458L266.9 457.2L265.4 455.2L264.9 454.8L264.8 454.8L264.2 454.7L262 454.4L261.7 454.2L261.5 454L261.2 452.4L261.2 452.2L260.8 451.6L260 451L259.3 451.4L258.2 452.1L257 452.5L256.2 452.3L255.1 451.5L254.4 448.9L254.2 448.6L253.8 448L253.4 447.3L253.1 447.2L252.3 445.8L250.8 444.2Z" />
	<path id="Kishtwar" class="shp1" d="M357.8 375.2L357.9 371.9L358.7 370.4L359.3 368.5L360.1 366.9L360.1 364L360 361.2L359.6 359.4L358 357.2L357.2 356.3L355.6 355.4L353.9 355.3L351.9 355.3L349.8 357.1L348.1 358.6L347.3 360.5L345.5 361.5L343.5 362.7L341.8 363.4L340.2 363.5L339.1 364.8L337.3 364.8L334.2 365.2L331.1 365.3L327.4 365.2L324.9 364.8L322.8 364.4L320.6 364.3L319 364.4L318.8 362.5L317.6 360.3L316 358.8L315.4 357L313.9 356.4L312.9 356.5L312.5 354.6L312.2 352.1L312.1 350.3L310.5 348.4L309 347L306.8 345.1L305.7 343.9L303.3 342.4L301.3 341.5L299.1 339.7L297.8 337.9L295.8 335.8L293.8 333.4L292 331L290.5 328.3L289 327.3L288.7 326.4L288.6 325.4L288.7 322.9L288.6 321.4L288 320.5L288 319L287.1 318.1L286.8 316.9L287.2 316.5L287.6 315.5L288.5 315.2L289.2 314L290.1 314L290.3 311.9L290.2 307.7L290.2 306.2L291.3 305.6L291.7 305.2L292.7 304L292.4 302.8L291.2 302.1L289.9 301.5L289.3 300.5L289.3 298.1L289.3 295.9L289.2 293.4L289.2 291.6L289.5 291L290.2 290.3L290.2 288.4L289.4 286.9L288.6 286.3L287.8 285L286.8 284L286.7 283.1L286.7 281.6L286.3 280.9L286.1 279.9L285.4 278.7L285.2 278.1L284.2 275.7L283.1 274.5L283.3 273.2L282.3 272.2L282.3 270.4L281.9 268L281.3 265.6L280.4 265L280.2 263.1L280.2 262.2L281 259.5L281.7 257.9L283 256.3L283.7 255L284 253.2L284.1 250.5L285 250.4L286.9 250.3L288.8 250.3L290.7 250.2L292.3 250.2L293 248.9L293 247.6L293 246.1L292.4 244L292.1 242.1L292 239.9L292.7 238.4L293.8 237.4L294.9 237L296.2 235.4L296.6 233.6L297.7 231.4L298.6 231.4L299.5 231.4L300.7 230L301 229.5L301.9 229L302.4 228.5L303.1 229.4L304.7 229.8L305.2 230.3L305.9 230.8L307 231.2L307.3 231.9L308.1 232.1L308.1 233.5L307 235.1L305.9 236.7L306.7 237.8L307.2 238.9L307.9 239.4L309.5 240.9L310.6 242.3L311.5 243.2L311.8 245.2L312.2 247.2L313.1 247.6L313.9 249.4L315.5 249.8L316.7 250.7L318 251.2L318.1 251.7L319 252.6L320.1 252.8L320.6 253.9L321.7 254.3L322.2 255.4L321.5 256.3L321.2 256.8L320 257.7L320.7 259L322.3 259L324.1 259L326.3 259L328.2 258.8L328.7 259.3L328.8 260.4L329.6 260.2L330.3 260.9L331.6 261.3L332.5 260.4L333.7 260.8L335.6 260.3L337.1 261.2L338.3 262.1L338.8 263.7L338.5 264.6L337 265.5L337.4 266.9L338.5 268.5L339.7 269L339.8 270.1L340.7 270.1L340.7 271L342.3 271.4L342.7 272.5L343.1 272.5L343.8 273.4L344.9 274.3L345.3 275.2L346.6 276.3L347.8 277L348.9 277.7L350.8 279.1L350.9 281.3L350.6 282.9L351.7 284.2L351.4 285.8L351.7 288L352.2 289.8L352.2 292.5L352.3 299.9L352 301.5L350.8 302L350.4 303.8L349.2 304.5L348.8 305.4L348.5 307L349.6 307.2L350.5 309L351.4 309.2L351.4 311.2L351.4 313L357.7 313.4L358.4 311.2L359.2 311.2L360 309.9L361.1 310.1L362 309.7L363.3 309L364.4 307.9L364.4 305L365.5 304.1L366.3 303.9L368.2 304.6L371.2 308.5L372.9 310.3L374.4 312.3L376.3 312.3L380.2 311.1L381.2 313L382.8 314.1L384.6 313.7L384.7 316.1L384.4 317.5L386.3 319.3L388.2 321.5L390.4 324.2L390.9 326.5L392.2 328.7L393.3 330.5L393.6 333.9L392.9 336.2L391.8 337.8L391.1 339.8L391.9 340.3L394.5 341.4L398 341.9L399.9 341L400.8 339.7L402.1 339.2L403.2 340.5L404 342.5L404.9 344.5L406 344.5L409.5 345L410.4 346.5L411.4 348.6L412.6 349.6L412.6 349.8L412.4 350.6L412.1 350.5L411.6 349.9L410.5 348.3L409.8 348L408.4 348.2L408.1 348.4L407.8 348.7L407.7 348.8L407.7 349.1L407.9 349.6L408.4 350.1L408.2 352L407.8 352.6L407.3 353.8L406.8 354.5L406.5 355.4L405.8 355.9L405.4 356.9L405.3 357.6L403.8 357.9L403.3 357.4L402.2 357.4L401.9 357.9L401.1 358.3L399.6 358.4L398.8 358.6L398.7 358.6L398.6 358.6L397.9 358.5L396.9 359.4L395.6 359.7L394.2 359.3L393 358.3L392.9 358L392.9 357.1L392.8 356.6L392.3 356.3L391.9 356.4L391.5 356L391.6 355.2L391.7 354.6L391.3 354.3L390.8 354.4L389.9 354.2L389.5 354.3L388.8 354.2L388 353.9L387.5 354.2L386.8 355.1L385.5 355L384.1 355.6L383.4 355.5L383.1 355.6L382.4 356.3L380.5 357.6L380.2 357.6L379.2 357.2L378.7 357.3L377.9 357.6L376.8 357.3L376 357.4L374.7 356.6L374 356.8L373.2 356.8L372.5 357.3L372.1 358.1L371.5 358.5L370.8 359.2L370.3 359.9L370.1 360.6L369.8 361L369.5 361L367.9 362.1L366 364.1L365.2 364.5L363.8 365.4L363.4 366.3L362.2 367.5L362.4 367.9L362.3 368.2L361.9 368.4L361.5 369.7L360.3 374L358.6 376.5L357.9 376.7L357.9 376.8L357.8 375.2Z" />
	<path id="Kupwara" class="shp1" d="M196.2 306.3L196.5 302.8L196.7 300.3L196.6 297L197 295.2L197.8 293.7L199.1 292.5L199.9 291.8L200.7 291.2L201.5 290.4L202.3 291L203.1 291.4L203.7 292.3L204.5 292.6L205.7 292.6L206.6 292.5L207.3 292.3L208.5 291.8L209.7 291.4L210.8 291L211.8 291.5L212.2 292.2L212.5 292.6L213.8 292.6L214.8 292.6L215.4 293.4L215.9 293.8L216.6 294.7L217.8 294.6L218.5 293.7L219.4 293.1L220.3 294.3L220.4 295.7L221.1 296.8L222.5 297L223.7 296.5L224.9 297.5L230.6 298.2L231.8 297.1L232.7 296.5L232.7 295.9L232.8 295.2L233.5 294.8L233.6 293.5L234.2 293.6L235.3 293.7L236 293.6L237.3 293.3L237.8 292.6L238.5 291.7L238.5 290.3L238.3 289.2L237.6 288.8L237.5 287.7L237.5 286L238 285.7L238.7 285.9L239.6 285.6L239.6 284.5L240.9 284.5L241.4 284.7L242.3 285.5L243.2 285.6L244.3 285.9L244.9 285.2L245.2 284.4L245.2 283.3L245.1 281.9L245.2 280.1L245.7 279.9L246.2 279.2L246.8 278.5L247.2 277.9L247.7 276.6L248.2 275.6L248.5 276.2L249.4 276.7L251.1 276.5L252.3 276.5L253.7 276.6L254.7 276.6L254.8 277.1L255.5 277.7L255.3 279L255.2 280.5L255.2 281L255.2 282L254 282.6L253.3 283.7L253 284.7L252.5 285.6L252.5 286.9L252.1 287.6L251.6 288.2L250.7 288.6L249.8 288.6L249.7 289.4L248.8 289.8L247.9 290.7L248.1 292L248 293.6L247.9 295.1L248 296.3L249.8 296.7L251.1 296.4L252.3 296L253.2 296L253.5 297.1L254.4 297.3L254.9 297.9L255.8 298.5L255.8 299.4L256.3 300.2L256.6 300.8L257.2 301.8L257.5 302.8L258.1 302.9L258.5 304.4L259.1 304.5L259.6 305.5L259.8 306.8L259.9 307.9L260.4 308.3L260.6 310.3L260.8 311.5L260.9 313.2L261.1 315.6L260 314.4L259.4 314.3L258.1 314.6L257.7 314L257.2 313.3L256.7 313.2L256.4 312.8L256 312.3L255.6 311.6L255.4 311.2L254.9 311.1L254.6 310.1L254.2 309.7L254.1 308.8L254.1 307.8L254.2 306.8L254.3 305.7L253.7 305.2L253.3 305.2L253.1 306.4L252.4 307.3L251.9 308.4L251.1 309.2L250.2 310L249.8 310.5L249.7 311.6L250.1 312.5L250.9 313.3L251.6 314L252.3 314.5L252.6 315.2L252.9 316.2L252.6 316.6L251.7 316.9L249.3 317.1L246.6 317.2L244.3 317.4L243.9 319.1L243.7 319.8L243.1 319.8L242.4 319.7L241.9 319.6L241 319.4L240.7 319.2L240.4 318.8L239.9 318.8L239.5 318.1L238.5 317.7L238 317.7L237.4 317.4L236.2 317.3L235.5 317.2L234.8 317.2L234.1 318.4L232.6 318.7L231.9 319.3L231.2 319.4L230.4 319.4L228.6 319.4L227.4 319.4L226.4 320.1L225.2 320.4L223.9 320.5L222.1 319.8L221.7 318.9L221.4 317.9L220.2 317.3L219 317.3L218 316.6L217.3 315.3L216.8 315.3L216.1 314.7L215.6 314.5L214.7 314.1L214.1 314.1L213.6 314.5L213.2 314.9L211.4 315.5L209.8 315.5L208.6 315.5L207.5 316.2L206.8 317.8L204.4 317.8L203.3 316.5L202.5 315.9L201.9 314.6L200.2 314L198.6 312.1L197 310.9L196.1 309.7L196.1 307.9L196.2 306.3Z" />
	<path id="Kupwara" class="shp1" d="M147 222.9L146.5 219.7L143.2 215.1L141.2 210L140.6 209.3L139.3 207.8L138.4 208.2L137.5 208.6L133.9 210.6L130.7 208.3L127.5 209.2L126.5 208L126.6 206.6L127.8 200.9L129 199.5L130.7 197.6L135.2 193.6L139.3 190.8L138.2 188.4L139 184.4L144 181.1L143.4 178.7L142.1 171.9L143.4 168L145.2 165.5L147.6 164.6L148.9 164.1L150.1 163.9L152.1 165.9L152.9 166.7L153.6 167L154.6 167L156.6 166.1L157.1 165.9L157.7 165.8L158.1 166L159.9 166.2L161.4 166.3L162.3 166.2L163 165.7L165.4 162.9L168.1 160.5L168.8 160L170.2 159.1L170.4 158.8L171.5 158.5L174.4 157.2L175.3 156.5L176 155.8L177.5 152.9L177.9 152.6L178.6 152.6L180.1 153.6L180.2 153.6L181.1 153.9L181.6 153.8L183.6 152.3L184.4 152.2L193.7 153.8L194 153.9L194.8 154.2L196.8 155.7L197.6 155.8L199.8 155.6L200.4 155.6L202 155.9L202.4 156.2L203.5 156.5L202.6 159.4L202.5 161.8L202.5 164L201.3 164.1L201.9 167.7L201.9 170.2L201.8 172.4L201.2 174L199.7 174.9L199.6 176.8L196.5 179.3L196.5 183.1L198.6 186.9L197.6 188.1L196.6 188.8L195.4 190.4L194.5 191.4L192.8 192L190.9 192.3L190.9 193.8L192.2 194.8L191 195.4L190.8 196.7L189.8 196.7L188.6 195.1L187.7 195.7L188.5 197.2L189.1 198.1L189.4 199.4L188.8 199.8L187.9 200.4L187.8 201.7L187.4 203.3L185.8 203L185 201.7L184 202.4L183.1 203.7L183.1 205.2L183.1 207.7L182.3 208.3L181 210.2L179.3 212L177.5 212L174.9 211.7L172.9 211.4L171.9 213.5L168 213.5L167.4 214.2L166.6 215.4L165.9 216.1L164.6 217L163.8 218.3L162.7 219.5L162.1 220.7L160.9 221.7L159.9 222.3L156.8 222L155.6 221L155 220.4L150.3 220.7L149.4 221.4L148.6 222.3L147 222.9Z" />
	<path id="Kathua" class="shp1" d="M653.8 437.7L653.2 438.3L650.7 442.7L650.1 443.1L650 443.2L649.3 443.3L648.6 443.1L646 439.4L645.1 438.8L644.9 438.7L644.9 438.7L644.5 438.8L644 438.9L642.8 439.3L642.6 439.4L641.7 439.7L641.5 439.8L640.8 440L640.1 440.2L639.7 440.3L637.8 441.5L636.1 442.6L634.6 443.6L632.7 445.8L632.5 446.1L632 447.1L631.9 447.4L631.9 447.4L631.7 447.8L631.9 449.3L632.1 451.2L632 451.9L632 452.1L631.1 454.2L630.8 456.2L630.4 457.6L629.6 458.1L629.2 458L627.8 456.7L626.9 455.9L626.6 455.9L626.2 455.9L625.2 456.2L625.2 456.2L625 456.4L623 458.2L620.1 458.5L619 460.8L618.5 461.2L618.2 461.1L617.9 461L613.5 458.6L613 458.3L612.6 458.1L612.5 458L611.4 456.3L611.2 456L610.1 455L609.9 454.5L608.8 452.2L608.1 451.6L607.1 451.6L605.1 450.8L603.7 449.4L603.6 449.3L603.4 449.1L603.3 448.9L601.6 446.1L601.5 446L600.1 444.6L599.7 443.5L599.6 442.7L599.6 439.5L599.6 439.1L599.3 436L598.9 434.9L598.8 434.6L598.7 434.3L598.6 433.4L598.5 433L598.6 432.1L599.7 430.4L600.1 429.1L600 428.6L599.7 426.9L599.2 424.4L599 420.9L598.7 419.6L598.6 419.3L598.5 419L598.2 418.3L596.8 416.8L596.4 416.8L595.9 416.8L594.1 418.7L589.1 421.7L588.2 422.6L587.9 423.2L586.1 427.4L585.5 427.9L583.4 428.2L583.1 428.1L582.6 427.9L581.9 427.7L579.3 427.2L578.4 427.2L578.4 427.2L578 427.2L578 427.2L577.4 427.4L577.2 427.5L577.2 427.5L576.7 427.7L576.3 427.9L574.6 429.4L574.1 430L573.4 430.9L572.4 432.1L571.8 432.1L571.1 431.5L571.1 431.5L571 431.5L570.9 431.5L570.1 431.3L569.3 431.4L568.4 432.3L567.9 432.8L565.5 434.3L565.4 434.5L564.7 436.5L564.8 438.2L565.4 438.9L565.5 439L565.9 439.5L565.6 439.7L565.4 439.9L565.3 439.9L565.3 439.8L565 439.6L565 439.5L564.6 439.1L564.5 438.4L564.4 438.1L564.3 438L564 437.8L562.9 437.7L562.4 438.2L560.5 439.9L556.2 444.5L555.8 444.3L553.2 440.5L554.8 438.7L555.2 437.8L555 431.7L555.5 431.6L557 431.4L558.3 430.8L559.1 429.8L562.5 427.1L563.6 426L562.4 425.2L561.9 424.1L561.2 419.8L561.2 418.1L561.6 416.3L562.6 413.8L562.3 413.4L561.9 412L561.9 410.5L562.1 408.7L562 408.5L561.3 408.4L559.5 408.3L556.6 410.1L554.1 411.5L554.8 412.3L555.1 413.2L555.1 413.8L554.8 414.7L553.8 415.5L552.7 416L551.4 416L549.3 417L549 418.4L548.2 419.4L547.1 420.2L546 420.7L545.4 420.4L544.4 420.8L544 420L543.1 419.1L542 418.9L541.4 418.9L540.6 419.2L539.8 420L539.3 421.3L538.9 422.7L538.4 423.5L537.9 423.5L537 422.6L536.3 421.3L535.7 421L535.2 421.3L534.3 422.2L533.7 423.3L533.2 425.7L533 425.9L532.4 425.9L531 425.4L530 424.5L529.9 424.7L529.9 425.4L530.1 427L530.3 427.6L530.7 428.3L530.7 429.1L530.2 430L529.4 430.4L528.5 430.6L525.6 430.5L525.2 430.7L524.6 430L524.4 429.4L523.7 427.9L523.2 427.2L522.9 426.3L522.4 425.6L522.5 424.5L522.3 423.8L521.7 423.5L521 422.8L520.4 421.8L519.9 421L519.8 420.5L519.2 418.9L518.3 417.8L517.6 417.2L517.5 416.5L517.8 415.8L517.9 414.7L518.1 414.2L518.2 413.6L518.4 413L519 412.4L518.7 412L518.3 411.6L518.5 410.9L518.5 410.6L518.8 409.7L518.9 409.1L518.8 408.4L518.6 408L518.3 407.9L518 407.3L517.5 407.2L517.1 406.9L516.3 407L516 406.9L515.4 406.9L515 406.3L514.6 405.5L514.1 405L514.3 403.7L513.9 402.9L513.8 402.3L513.6 401.7L513 401.1L512.8 400.6L512.3 400.2L510.8 399.4L510.2 398.8L509.6 399L509.2 399.3L508.6 399.3L507.7 398.1L507 397.7L506.6 397.6L506 397.1L505.5 397L504.7 396.5L504.1 395.7L504.5 393.8L505.1 392.5L506.4 392.4L506.9 391.6L506.7 390.7L505.9 390.1L505.5 389.4L503.8 387.9L503 386.8L502.7 386.4L502.7 386.3L502.7 386.1L502.5 385.6L501.9 385.4L501.7 385.3L501 385L500.4 384.1L500 383.2L499 382.3L498.6 382.9L498.2 383L497.8 382.6L497.5 382.1L497.3 381.5L496.9 381.3L495.8 381.5L495.7 381.1L495 380.4L494.5 380.4L494.3 381.7L494 382.6L493.7 383L493.4 383.8L493 384L492.4 384.1L491.9 384.3L490.5 385.8L489.9 385.9L489.5 386.2L489.3 386.1L488.9 386.1L487.7 386.2L487 386.4L486.8 385.9L486.6 386.5L486.5 387.1L486.4 387.5L485.5 388.8L484 389.9L483.6 389.9L483.1 390.1L482.2 391.3L481.4 392.6L481 392.9L480.7 393.2L479.9 393.4L479.4 393.7L478.3 393.9L477.4 393.3L476.3 394.3L474.6 396.4L474 396.4L472.9 395.9L472.5 395.3L472.4 394.6L471.9 393.6L471.1 394.2L470.4 394.3L469.7 393.9L469.3 393.6L469.1 393.2L468.9 393.2L468.1 393.4L467.3 394L466.5 395.7L465.7 396.2L465.4 396.7L465.3 397.1L465.4 397.7L465.7 398.3L465.6 398.8L465.4 399.4L465.1 401L464.3 401.5L462.9 398.9L462.5 396L462.4 394L461.5 392.7L461 391.1L460.2 389.8L459.4 387.5L459 385L459 382.3L458.9 379.6L460.2 379.2L460.3 376.5L460.3 374L460.7 371.3L462.6 369.5L463.4 367.7L464.9 366.4L466.7 365.7L466.3 363.9L465.8 361.2L465.4 358.5L465.7 356L466.1 353.5L466.9 351.2L469.2 347.9L470.8 344.8L472 341.9L474.2 339.7L476.5 337.2L479.3 335L481.6 333.2L482.8 331L483.6 328.1L483.1 325.8L481 324L480 320.4L480.3 317.5L478.8 315L475.8 313.9L473.4 314.1L471.7 311.9L470 309.9L467.6 307.7L465.4 307.5L462.4 307.5L461.4 305L458.7 304.1L456.3 304.3L456.3 301.6L454.8 298.5L452.4 296.9L448.7 294.1L445.3 290.3L443.3 288.1L441.3 288.3L439.3 289L438.1 287.4L436.8 286.1L435.5 287.4L433.5 289.7L430.7 289.7L426.9 287.7L423.9 285.7L420.7 282.6L418.9 279.2L417.6 276.7L414.6 274.4L412.2 273.7L409 273.7L405.6 273.2L404.3 271.4L403 269.6L400.6 268.7L397.9 268L395.7 265.7L394.9 262.8L394.6 259L391.9 256.8L389.6 255L386.9 253L385.7 249.6L386.1 246.7L387.6 244.5L390.7 243.2L393.3 244.8L396 245.2L398.2 244.3L398.6 241.2L397 239.4L396.2 236.9L398.2 235.3L399.8 235.7L400.5 239.1L401.6 241.6L404.7 242.3L404.9 238.6L402.1 235.4L398.9 233L400.7 229.6L401.3 226.2L399.6 225.5L399.6 221.8L400.4 219.2L401 215.8L401.3 211.7L402.1 208.3L400.1 206.1L395.6 204.2L393.1 203.8L392.3 201.2L392.3 196.7L392.3 192.2L392.9 188.1L389.5 186.2L387 185.1L384.5 182.5L382 182.1L377.5 182.8L373.6 183.9L372.8 179L372.8 174.9L369.5 173L368.6 160.2L369.7 160L370.7 160L374 159.8L376.2 157.8L377.9 156.5L378.8 156.3L381.8 152.9L382 152.7L382.2 152.5L382.5 152.5L383.7 152.7L386 153.8L388.9 156.1L390.5 157L391.4 157L392.3 157.4L395.9 157.3L399.2 157.2L401 157.1L402 156.8L402.5 156.3L403.4 154.3L404.3 151.5L406.3 149L407.3 147.8L407.8 146.6L407.9 146L407.8 143.5L407.4 138.8L407.8 136.8L408.4 135.7L409.6 134.9L409.8 134.9L413.1 134.6L413.6 134.8L414.2 134.7L415.6 133.9L417.7 131.8L418.2 131.1L419.1 130.2L419.8 130L421.1 130.3L422.5 131.1L422.8 131.2L423.5 131.4L427.5 134L429.4 134.7L431.1 134.7L431.9 134.2L433.1 132L433.2 130.7L433.2 129.9L433.1 126.5L433.1 124.5L433.2 123.1L433.5 122.2L433.9 121.8L434.7 121.5L435.6 122.6L438.6 123.6L439.8 123.3L442.5 121.7L446.9 119.8L448.7 118.3L450.5 116.7L458.6 109.3L460 108.4L460.5 108L467.9 101.8L468.4 101.6L471.6 99L473.8 97.2L477.8 93.2L482.9 89.3L487.2 86L493.4 80.6L494.4 79.6L501.4 72.2L503.7 70L505 68.9L508.8 65.7L509.2 64.7L509.6 63.7L511.2 63.7L511.4 63.7L511.7 63.7L512 64.8L512.1 65.2L513.2 69L513.8 70L514.8 71.8L515.3 72.3L515.7 72.7L516.7 72.8L517 72.8L517.7 72.6L518.6 72L518.7 71.9L519.4 71.2L520.9 68.4L521 68.3L521.6 67.1L522.6 66.3L523.1 66.1L525.3 65.4L527.1 65.1L528 65L530.4 64.9L532.1 64.8L532.2 64.8L533.6 64.7L533.8 64.8L534.3 64.9L534.9 65.1L535.8 65.7L536.1 66.2L536.4 66.7L536.5 67.2L536.2 68.2L535.9 68.5L535.2 69.3L533.5 70.2L532.8 70.4L532.6 70.7L532.5 70.9L529 73.4L528.8 73.7L528.8 73.8L528.7 73.9L528.3 74.2L528 74.2L528 74.3L527.9 74.5L525.8 77.2L525.2 79.1L525.2 81L525.4 82.9L525.6 83.4L526.3 89.3L526.3 89.7L526.7 90.2L527.4 93.5L527.8 95.3L529.1 99L530.1 101.3L530.2 101.4L531 102.7L531.5 103.5L531.7 103.7L532.6 104.6L533.4 105L533.5 105L537.1 108.4L537.3 108.8L537.8 109.7L538 110.5L537.9 110.9L537.8 111.4L537.1 112.7L536.5 113.2L535.2 114.4L534.4 114.7L534.3 114.7L533.9 115.3L533.8 116.3L534.9 119.5L536.8 124.8L537.1 125.8L537.4 126.6L538.3 129.3L538.6 130.2L541.8 137.6L542.4 138.3L542.5 138.7L543.4 141.4L543.7 143.8L545.5 156L545.8 156.9L546.6 159.3L546.8 160L547.8 162.2L547.8 162.2L549.3 164.9L551 166.9L551.7 167.5L551.8 167.6L552.8 168.4L554.3 169.1L554.9 169.2L555.9 169.4L556.5 169.7L556.6 169.8L562.5 170.3L563.3 170.6L563.6 170.7L563.6 170.7L564.2 171.3L564.4 172.2L564.4 174.2L564.6 175.1L565.4 176.1L566.1 176.3L567.1 176.4L567.8 176.5L569.3 176.5L571.5 176.4L574.3 175.7L576.7 175.1L578.7 175L579.8 175.4L581 176.5L583.7 179L584.6 180.1L586.2 182.9L586.8 183.5L587.6 184.7L588.3 185.8L590.2 187.6L590.7 188L591.7 188.7L593.6 189.5L594.9 190L595.5 190.6L595.7 190.8L596.7 192.4L596.8 192.6L597 193.2L597.1 193.3L597.9 194.4L600.3 196.8L601.3 197.8L603.7 200.2L604.9 201.1L605 201.2L608.5 202.7L610 203.3L612.2 204.7L612.9 205.1L613.4 205.6L613.6 205.8L614.6 206.8L616.6 208.8L617.4 209.4L618.1 210.4L618.5 210.5L619.2 212.2L619.3 212.4L619.7 214.3L619.6 216L618.8 218.6L617.9 221.7L616.1 224.8L614.8 226.4L614.2 227.1L611.8 229.5L610.3 230.8L609.8 231.3L608.9 231.9L608.2 232.4L607 233.1L602.9 235.5L599 237.8L598.7 237.9L598 238.1L597.7 238.2L597.6 238.2L594.7 240.1L594.2 240.6L593.2 241.9L592.5 243.1L592.5 244.8L593.1 245.8L595 246.8L597.6 247.6L597.6 247.6L597.7 247.6L598.2 248.1L598.4 249L598.6 249.8L598.4 250.5L597.9 252.1L595.9 253.9L594.5 255.2L593.3 256.8L593.2 257.4L593.4 258.7L593.5 258.7L593.4 259.9L593.2 260.6L592.9 262L593.4 266L594.2 268.4L595.7 272.3L597.5 275.2L597.6 275.3L598.8 277.2L599.3 278.7L599.6 281.1L598.8 284.1L598.8 284.1L597.6 286.1L597.1 286.6L595.2 288.8L595.2 288.8L594.7 289.4L592.6 292.5L592.5 292.9L592.3 293.7L592.5 294.8L592.7 295.5L594.2 299.5L594.4 300.2L595.6 302.7L595.7 303L597.1 306L597.6 307L598.3 308.4L599.5 310.8L600.2 311.7L601.4 314L602.8 316.2L603 316.5L603.2 316.9L607.6 322.4L607.7 322.5L608.1 322.8L610 324.9L612.4 327.6L614.3 328.7L615.6 330.7L617.3 331.6L617.9 332.7L618.8 334.1L619.7 335L620.2 335.5L621.7 336.2L623 338.4L623.3 338.6L624.3 339.4L626.1 340.7L626.5 341.3L626.7 342.2L626.3 343.5L626 344.6L626.1 345.8L626.1 346.4L626.5 347.9L626.8 349.1L628.5 350.1L630.4 351.3L631.8 352.1L633.1 352.7L634.6 353L635.3 353.1L636.8 353.4L637 353.6L637.2 353.8L639.2 353.5L639.8 353.4L649.5 354.1L653.3 354L655.3 354L656.8 354.1L657.3 354.3L657.6 354.6L658.3 355.4L659 356.9L659.1 358.3L658.9 359.3L658.7 360L658.5 360.8L657.3 363.4L657.2 364.1L657 364.4L656.8 364.6L656.5 364.9L654.9 368.6L654.9 368.8L654.8 369.4L654.4 370.1L654.3 370.3L653.2 374L653 375L652.9 375.6L652.7 378.3L652.8 378.9L652.8 379.1L652.8 379.3L652.9 380.4L653.8 382.5L654.1 383.1L655.6 385.3L655.8 385.6L656.2 386.1L656.6 386.4L657.4 387.1L659.2 388.8L660.5 389.6L660.8 390.2L661.5 390.9L661.9 391.3L662.1 391.5L662.6 392.6L662.7 392.9L662.9 393.7L663.6 400.6L664.2 402.4L664.8 403.2L665.4 404L666.5 404.7L668.3 405.8L669.4 406.8L669.6 407.1L670 407.7L670.7 409.1L671 410.3L671.1 410.8L671.3 411.5L672.1 414.1L672.7 417.3L672.8 418L673 418.9L672.4 424L672 425.3L671.6 426L671.2 426.9L669.2 428.3L669 428.4L669 430L668.5 430.2L666.6 430L666.3 430L665.7 430L664.4 430L662.9 430.8L661.8 431.6L661 432L658.5 434.4L654.6 436.9L654.5 437L654.4 437.1L653.8 437.7Z" />
	<path id="Punch" class="shp1" d="M202.6 316L200.7 317.3L199.4 318.3L199 319.8L197.3 319.8L196.4 318L195.6 316.2L193.7 313.8L192.4 312.8L191.4 311.3L190 309.4L188.3 307.5L187.5 306.8L185.7 305L183.5 305L180.7 305.1L178.7 305.4L177.7 306.4L176.9 307.7L176 308.7L174.4 309L173.5 309.3L171.7 309.2L170.2 308.3L168.6 308.2L168 309.5L167.6 311.3L167.9 312.5L169 313.2L169 315.2L170.3 316.1L169.3 317.9L168 320.7L167.3 322.9L165.7 324.9L165.9 324.3L166 322.8L166.4 321.1L166.3 319.7L166.2 319.5L165.6 317.7L164.3 315.9L163.7 315.1L162.2 313.1L160.4 310L157.9 306.7L157.8 306.5L157.1 306.1L155.8 306.7L155.8 306.6L153.9 307.1L153.1 307L151.5 305.9L150.2 302.9L149.8 302L148.8 299.7L148.8 299.6L146.5 290.9L144.7 287.5L145.7 285L148.9 283.5L151.2 281.1L151.6 280.6L152.5 278.2L152.8 277.7L153.5 276.5L153.9 276.2L155.1 275.1L157.4 274.3L161.2 274.1L162.5 273.8L165 272.6L167.1 271.1L168.5 270.1L169.6 269.1L172 265.6L173.5 261.9L173.7 259.7L173.7 258.1L173.7 255.7L172.9 252.8L175.3 251.8L175.4 251.9L178.1 254L179.3 256.3L181.2 258.1L183.9 258.6L185.4 259.9L186.5 261.3L187.7 263.5L187.6 264.9L187.2 265.3L187.1 266.4L186.8 268.5L186.8 269.8L186.9 271.5L187.1 272.5L187.8 272.9L188.3 273.7L189.2 274.6L189.9 275.4L190.8 276.3L191.7 277.1L192.3 277.7L192.4 278.3L192.1 279.3L191.6 279.7L191.1 280.1L190.6 281.1L190.5 282.2L190.5 282.8L191.3 283.7L191.9 284.3L192.7 285.4L193.3 286.2L194 287L194.7 287.6L195.7 288.8L196.7 289.6L197.6 290.4L198.9 291.6L199.6 292L198.3 293.2L197.5 294.7L197.1 296.5L197.2 299.8L197 302.3L196.7 305.8L196.8 307.4L196.8 309.2L197.7 310.4L199.3 311.6L200.9 313.5L202.6 314.1L202.6 316Z" />
	<path id="Pulwama" class="shp1" d="M249.8 273.7L249 273.4L248.5 272.5L248.2 272.1L247.3 271.7L246.6 271.3L245.9 270.5L244.6 269.7L244.1 269.1L243.7 268.6L242.7 268.1L241.5 268.3L240.4 268.4L239.5 269L239 270L238.3 270.5L237.4 270.9L236 272L235.1 272.4L234 272.4L233.1 272.4L232.3 271.8L231.9 270.8L232.4 270.4L232.9 270L232.1 269.2L231.4 268.7L230.3 268.3L229.4 267.7L228.6 267.7L227.9 267.6L227.3 267.4L226.8 266.2L227.1 264.9L227.8 263.7L228.1 262.8L228.7 261.4L229.5 260.1L230.4 259.6L231.2 258.6L231.9 257.3L232.3 256L232.4 254.7L232.5 253.8L232.5 252.7L232.4 251.4L232.5 250.3L233.5 250.6L234.5 250.1L235.4 249.7L237.3 249.7L238.2 249.3L239.5 248.7L240.1 247.4L241.2 246L242.5 245L243.2 244.4L244.4 243.5L245.9 242.5L247.4 241.2L247.9 240.7L248.6 240.4L249.8 240.2L250.7 240.7L251.3 240.9L251.9 241.3L252.6 241.9L254 242.1L254.5 242L255.4 241.6L256.3 241.4L256.7 242.4L257.3 243.5L258 243.9L258.6 244.4L259.6 245.2L260.7 245.6L261.8 245.8L262.5 245.8L263.6 246.4L263.9 246.8L263.9 247.8L264 248.8L264.4 249.3L264.7 250.3L265 251.3L264 254.7L263.5 261.2L263.5 261.6L263 262.1L262.5 262.9L261.8 263.8L261.3 264.9L260.8 265.9L260.2 267.1L259.3 267.7L258 268.8L257.3 269.3L256.6 270.2L256.1 270.6L255.2 270.6L253.9 270.8L252.9 271.7L252.2 272.2L251.5 272.5L250.9 272.8L250.3 273.7L249.8 273.7Z" />
	<path id="Rajouri" class="shp1" d="M206.9 317.9L206.6 319.3L205.6 319.8L204.8 320.8L204.7 321.4L205.5 322.4L206.5 322.5L208.1 322.5L209 322.5L210.4 323L211.3 323.8L211.8 325.8L211.6 328.2L212 329.8L212.6 331.1L212.5 332.6L211.4 333.7L210.2 334.2L208.7 334.2L208.7 335.6L209.9 336.9L210.3 338.8L210.8 339.9L210.8 341L209.8 342L209.8 343L210.5 344.3L211 344.3L212.1 345.6L212.6 346.5L212.6 349L212.3 352.1L212.5 353.4L211.6 354.4L210.5 354.7L208.8 354.3L207.9 353.4L206.8 352.6L206.2 353.1L205.4 354L204.7 353.7L203.1 353.4L202.3 352.8L201.7 354.7L200.9 355L198.8 355.1L197.1 355.7L197.4 357.3L198.2 357.3L199.8 357.9L201.6 357.9L204.5 358.2L205.3 358.2L206.2 359.3L206.5 360.3L206.1 361.8L205.5 363.7L206.8 364.7L207.1 365.6L206.8 367.1L205.2 367.7L204.2 367.8L203.4 368.2L202 368.6L200.5 368.7L200.2 370.1L200.1 371.2L200.6 372.8L201.1 375.1L200.5 375.7L200.2 379.3L199.3 379.4L198.2 378.9L197.6 377.6L196.8 376.8L195.2 376.7L193 376.2L191.4 376.2L189.9 377.1L188.8 377.9L188 379L187.1 380.1L186 381L184.7 381.5L183.6 380.4L182 380L181.9 377.1L181.7 376.7L180.6 375.5L179.5 375.1L177.7 375L175.4 373.4L172.7 372.7L171.5 372.9L169.5 373.2L169.1 373.4L168 373.4L167.4 372.9L166.6 369.1L165.2 365.3L163.4 362.9L162.6 361.9L162.2 361.7L159.1 358L158 357L156.4 356L153.9 355.3L151.8 355.1L151.1 355L150.3 354.4L149.9 353.8L149.6 351.2L149.6 348.7L149.8 347.3L149.9 347.2L150.5 346.2L150.9 345.7L152 345.4L153.1 345.4L154.7 346L155 346L156 346L156.9 345.7L157.1 345.6L158.3 344.7L159.5 343.4L159.7 342.8L164.3 335.4L164.5 335.2L164.6 335.1L166 330.5L165.9 329.6L165.5 328.2L165.4 325.2L167 323.2L167.7 321L169 318.2L170 316.4L168.7 315.5L168.7 313.5L167.6 312.8L167.3 311.6L167.7 309.8L168.3 308.5L169.9 308.6L171.4 309.5L173.2 309.6L174.1 309.3L175.7 309L176.6 308L177.4 306.7L178.4 305.7L180.4 305.4L183.2 305.3L185.4 305.3L187.2 307.1L188 307.8L189.7 309.7L191.1 311.6L192.1 313.1L193.4 314.1L195.3 316.5L196.1 318.3L197 320.1L198.7 320.1L199.1 318.6L200.4 317.6L202.3 316.3L203.1 316.9L204.2 318.2L206.9 318.2L206.9 317.9Z" />
	<path id="Ramban" class="shp1" d="M270.8 365.1L269.8 364.8L269 364.6L267.8 364.3L267.1 363.9L266.5 363.6L266.2 363L265.6 362.9L265.1 362.4L264.2 361.9L263.2 360.5L262.4 358.8L260.5 357.6L258.9 356.4L257.5 356.4L255.7 355.7L254.5 354.7L253.2 354.6L251.9 353.4L251.4 352.2L250.1 351.4L248.1 351.4L247.5 350.4L246.3 349.6L244.6 348.8L245.4 348.1L246.7 346.8L247.5 345.7L247.9 344.5L248.1 343.4L249 342L249.5 340.3L250.5 339.2L250.7 337.3L250.7 335.6L249.4 334.8L248.2 333.7L247.4 332.3L246 331.3L245.2 330.5L244.4 329.1L243.1 328.6L243 327.8L242.8 326.1L243.6 325.9L244.7 324.9L245.5 324.2L245.3 323L244.2 322L243.8 320.6L243.9 320.2L244.1 319.5L244.5 317.8L246.8 317.6L249.5 317.5L251.9 317.3L252.8 317L253.1 316.6L252.8 315.6L252.5 314.9L251.8 314.4L251.1 313.7L250.3 312.9L249.9 312L250 310.9L250.4 310.4L251.3 309.6L252.1 308.8L252.6 307.7L253.3 306.8L253.5 305.6L253.9 305.6L254.5 306.1L254.4 307.2L254.3 308.2L254.3 309.2L254.4 310.1L254.8 310.5L255.1 311.5L255.6 311.6L255.8 312L256.2 312.7L256.6 313.2L256.9 313.6L257.4 313.7L257.9 314.4L258.3 315L259.6 314.7L260.2 314.8L261.3 316L263.8 317.5L265.1 319L266.3 320.6L267.6 322.8L269.2 324.3L269.9 327.4L269.6 328.4L269.6 330.8L269.7 332L270.3 334.4L270.5 336L270.9 337.5L271.8 338.7L272.7 340.6L273 342.8L273 344.7L273.1 346.6L272.7 348.7L272.4 351.2L272.4 353.4L272 356.1L271.6 356.5L270.8 358.7L270.6 360L270.5 362.6L270.8 365.1Z" />
	<path id="Reasi" class="shp1" d="M244.5 348.7L244 349.8L243.6 350.9L243.6 352L243 352.8L243 353.9L242.9 355.3L242.9 355.9L243 357.1L242.2 358.2L242.2 359.3L243.6 359.1L244.5 359.3L245.2 359.8L246.3 360.1L247 361.1L247.4 362.1L247.4 363.3L247.5 364.2L246.8 364.5L246.8 365.8L245.9 366.2L244.8 366.2L243.9 366.6L243 368.2L242.6 368.8L242.2 370.1L241.6 371.5L241.3 372.4L240.6 373.3L239.9 374.5L239.4 376.2L238.3 376.8L237.9 377.7L237.8 379.1L238.2 380.2L238.5 380.8L238 381.8L238 383.1L238 384.3L238.3 385.5L239.1 387.5L238 388.4L237.8 390.3L237.5 392.1L236.5 392.9L235.5 393L235.1 391.7L234.4 390.8L233.8 389.7L233.4 388.9L232 388.6L231.7 387.3L231.5 385.8L229.9 384.7L228.8 384.6L228 385L227.8 386.3L227.9 388.2L227.1 388.6L227.1 390L225.5 390L223.9 390L223.1 389.4L222.4 389L221.4 388.7L220.6 387.9L220.3 386.5L220.1 385L220.5 383.4L221.8 382.7L222.5 381.8L223 379.7L222.3 378.2L221.2 376.7L219.5 374.2L218.3 373.2L216.6 373.2L215 373.4L214.2 372.6L213.2 371.7L212 371.2L211.3 371.6L210.9 373.6L211.2 374.7L210.4 375.8L209.6 375.2L208.5 373.3L207.7 374.6L206.9 375.9L205.8 377.5L206.6 378.5L207.6 380.1L207.9 381.7L207.2 383.2L206.7 384L205.7 384.1L204.9 383.6L203.9 381.3L203.1 379.8L202.5 378.2L201.8 376.1L201 375.3L200.5 373L200 371.4L200.1 370.3L200.4 368.9L201.9 368.8L203.3 368.4L204.1 368L205.1 367.9L206.7 367.3L207 365.8L206.7 364.9L205.4 363.9L206 362L206.4 360.5L206.1 359.5L205.2 358.4L204.4 358.4L201.5 358.1L199.7 358.1L198.1 357.5L197.3 357.5L197 355.9L198.7 355.3L200.8 355.2L201.6 354.9L202.2 353L203 353.6L204.6 353.9L205.3 354.2L206.1 353.3L206.7 352.8L207.8 353.6L208.7 354.5L210.4 354.9L211.5 354.6L212.4 353.6L212.2 352.3L212.5 349.2L212.5 346.7L212 345.8L210.9 344.5L210.4 344.5L209.7 343.2L209.7 342.2L210.7 341.2L210.7 340.1L210.2 339L209.8 337.1L208.6 335.8L208.6 334.4L210.1 334.4L211.3 333.9L212.4 332.8L212.5 331.3L211.9 330L211.5 328.4L211.7 326L211.2 324L210.3 323.2L208.9 322.7L208 322.7L206.4 322.7L205.4 322.6L204.6 321.6L204.7 321L205.5 320L206.5 319.5L206.8 318.1L207.5 316.5L208.6 315.8L209.8 315.8L211.4 315.8L213.2 315.2L213.6 314.8L214.1 314.4L214.7 314.4L215.6 314.8L216.1 315L216.8 315.6L217.3 315.6L218 316.9L219 317.6L220.3 317.6L221.5 318.2L221.8 319.2L222.2 320.1L224 320.8L225.3 320.7L226.5 320.4L227.5 319.7L228.7 319.7L230.5 319.7L231.3 319.7L232 319.6L232.7 319L234.2 318.7L234.9 317.5L235.6 317.5L236.3 317.6L237.5 317.7L238.1 318L238.6 318L239.6 318.4L240 319.1L240.5 319.1L240.8 319.5L241.1 319.7L242 319.9L242.5 320L243.2 320.1L243.8 320.1L243.7 320.5L244.1 321.9L245.2 322.9L245.4 324.1L244.6 324.8L243.5 325.8L242.7 326L242.9 327.7L243 328.5L244.3 329L245.1 330.4L245.9 331.2L247.3 332.2L248.1 333.6L249.3 334.7L250.6 335.5L250.6 337.2L250.4 339.1L249.4 340.2L248.9 341.9L248 343.3L247.8 344.4L247.4 345.6L246.6 346.7L245.3 348L244.5 348.7Z" />
	<path id="Samba" class="shp1" d="M233.3 445.8L232.8 445.5L232.3 444.4L232 444L232 444L232 444L231.7 443.7L231.5 443.5L230 443L229.5 442.6L228.5 442.4L227.5 442.2L228.5 439.7L230 438.4L231.1 436.5L233 434.6L234 432.8L235.2 430.6L236.3 428.2L236.4 426.3L235.2 424.8L233.6 424.4L232.1 423.1L231.7 421.3L232.1 419.5L233.6 418L234.9 417L235.8 415.8L236.7 414.8L237.8 413.6L238.9 411.8L239.3 409.6L239.7 408L240.3 407.1L241.9 407.4L244.6 408.9L245.4 409.5L246.5 411L248.7 411.3L250.2 411.6L251.9 412.7L251.7 413.9L252 414.7L252.6 416.1L254 416.2L254.4 417.3L255.1 417.7L256.3 419.3L257.6 420.7L258.1 421.5L259.7 421.9L262.3 422.4L264.4 422.6L265.9 422.9L267.2 423.2L268.1 423.9L269.2 424.8L270.3 424.9L271.1 425.1L271.7 426.5L272.6 427.4L273.5 428.1L274.1 429.5L274.2 430.2L274.3 431.5L273.2 431.9L272.8 432.6L272 432.6L270.3 432.7L269 432L267.6 432L266.8 431.2L266.2 431.6L265.7 431.9L265.1 432.4L264.4 433.2L262.5 433L261.2 433L260.7 433.9L260.2 434.3L259.8 435.2L259.3 436.2L258.8 437.1L258.1 438.3L257.8 438.9L257.2 438.9L256.2 439.1L255.3 440.1L254.3 440.2L254 441.7L253.1 443L252 443.7L251 444.2L250 443.8L249.2 443.9L249.1 443.9L246.8 442.6L246.2 442.6L245.4 443.4L244.5 444.6L244 445.5L243.6 446.2L243.5 446.7L242.4 447.9L241.6 448.1L241 448.1L240.1 447.5L238.7 447.3L238.2 446.5L237.3 445.6L236.4 445.5L234.1 445.8L233.3 445.8Z" />
	<path id="Shopiyan" class="shp1" d="M201.6 290.3L201.9 288.8L202.6 287.6L203.7 286.3L204.8 285.3L206 284.1L206.5 283.1L207.7 282.6L209 281.4L209.5 280.3L210 279.5L210.4 278.4L211.4 277.5L212 276.9L212.6 276.5L214.1 276.9L215 276.6L216 276.6L216.1 275.8L217.2 275.7L218.7 275.8L219.2 275.8L220 275.1L220 274.4L221.1 273.6L221.8 273L222.5 272.6L223.5 271.8L223.6 270.9L224.2 269.7L224.4 268.7L224.6 267.8L224.9 267L225.2 266.3L225.8 265.8L226.3 267L226.9 267.2L227.6 267.3L228.4 267.3L229.3 267.9L230.4 268.3L231.1 268.8L231.9 269.6L231.4 270L230.9 270.4L231.3 271.4L232.1 272L233 272L234.1 272L235 271.6L236.4 270.5L237.3 270.1L238 269.6L238.5 268.6L239.4 268L240.5 267.9L241.7 267.7L242.7 268.2L243.1 268.7L243.6 269.3L244.9 270.1L245.6 270.9L246.3 271.3L247.2 271.7L247.5 272.1L248 273L248.8 273.3L248.2 274.2L247.5 275.1L247 276.1L246.5 277.4L246.1 278L245.5 278.7L245 279.4L244.5 279.6L244.4 281.4L244.5 282.8L244.5 283.9L244.2 284.7L243.6 285.4L242.5 285.1L241.6 285L240.7 284.2L240.2 284L238.9 284L238.9 285.1L238 285.4L237.3 285.2L236.8 285.5L236.8 287.1L236.9 288.2L237.6 288.6L237.8 289.7L237.8 291.1L237.1 292L236.6 292.7L235.3 293L234.6 293.1L233.5 293L232.9 292.9L232.8 294.2L232.1 294.6L232 295.3L232 295.9L231.1 296.5L229.9 297.6L224.2 296.9L223 295.9L221.8 296.4L220.4 296.2L219.7 295.1L219.6 293.7L218.7 292.5L217.8 293.1L217.1 294L215.9 294.1L215.2 293.2L214.7 292.8L214.1 292L213.1 292L211.8 292L211.5 291.6L211.1 290.9L210.1 290.4L209 290.8L207.8 291.2L206.6 291.7L205.9 291.9L205 292L203.8 292L203 291.7L202.4 290.8L201.6 290.4L201.6 290.3Z" />
	<path id="Srinagar" class="shp1" d="M256.1 240.6L255.2 240.8L254.3 241.2L253.8 241.3L252.4 241.1L251.7 240.5L251.1 240.1L250.5 239.9L249.6 239.4L248.4 239.6L247.7 239.9L247.2 240.4L245.7 241.7L244.2 242.7L243 243.6L242.3 244.2L241 245.2L239.9 246.6L239.3 247.9L238 248.5L237.1 248.9L235 248.9L234.1 249.3L233.1 249.8L232.1 249.5L232 249.5L231.2 249.5L230.8 248.5L230.1 248.2L229.2 247.9L228.3 247.6L227.2 247.6L226.4 248.4L226.1 249.2L225.5 249.5L224.4 249.5L223.3 248.9L222.4 248.1L221.6 247.4L220.9 247.8L220 248.2L219.5 248.6L218.4 248.5L218.3 244.4L218.5 243.2L219.7 242.8L219.4 241.8L219 240.8L217.9 240.2L217.2 239.2L216.4 237.7L214.8 237.4L213.2 235.8L211.9 233.9L211 232.3L210.5 231.8L210.8 231.4L211.2 230.7L211.9 230.5L212.5 230.1L213.2 229.7L213.9 229.3L215 229.1L216.1 228.9L217.6 228.9L218.7 229L219.5 229.6L220.5 229.8L221.2 230.6L222.3 231.7L223.3 232.3L224.1 232.3L224.9 231.9L225.7 231.5L225.9 230.5L226.1 229.6L226.6 228.4L226.9 227.1L228.1 225.5L229.7 224.4L231.5 224.2L234.1 224.2L236.1 224.7L236.8 226.3L239.5 227L242.5 227.5L244.5 227L246.9 225.4L248.7 225.9L249.6 227.2L250.8 229L252 229.9L254.4 230.1L255.3 229.3L255.7 230.6L255.4 231.6L254.6 231.8L253.6 231.6L252.9 232.6L252.7 233.4L253.4 234.7L254.1 235.5L254.7 236.3L255.1 236.9L255.6 238.2L256 239.4L256.3 239.7L256.1 240.6Z" />
	<path id="Udhampur" class="shp1" d="M239 387.5L238.2 385.5L237.9 384.3L237.9 383.1L237.9 381.8L238.4 380.8L238.1 380.2L237.7 379.1L237.8 377.7L238.2 376.8L239.3 376.2L239.8 374.5L240.5 373.3L241.2 372.4L241.5 371.5L242.1 370.1L242.5 368.8L242.9 368.2L243.8 366.6L244.7 366.2L245.8 366.2L246.7 365.8L246.7 364.5L247.4 364.2L247.3 363.3L247.3 362L246.9 361L246.2 360L245.1 359.7L244.4 359.2L243.5 359L242.1 359.2L242.1 358.1L242.9 357L242.8 355.8L242.8 355.2L242.9 353.8L242.9 352.7L243.5 351.9L243.5 350.8L243.9 349.7L244.4 348.6L246.1 349.4L247.3 350.2L247.9 351.2L249.9 351.2L251.2 352L251.7 353.2L253 354.4L254.3 354.5L255.5 355.5L257.3 356.2L258.7 356.2L260.3 357.4L262.2 358.6L263 360.3L264 361.7L264.9 362.2L265.4 362.7L266 362.8L266.3 363.4L266.9 363.7L267.6 364.1L268.8 364.4L269.6 364.6L270.6 364.9L271.6 366.4L273.4 367.6L274.6 369.1L276.4 369L278.2 370.2L279 370.9L280.2 371L281.8 371.3L282.1 377.9L282.8 380L283.5 381.2L284.6 382.4L285.9 383L286.7 384.9L287.8 384.9L288.9 384.9L290.2 383.7L291.7 383.6L292.3 382.7L293.8 382.6L294.9 383.2L296 383.6L297.2 384.2L298.4 384.8L299.9 385.7L300.7 386.3L301.7 386.9L302.7 386.9L303.6 387.5L304.8 388.1L305.4 388.8L306.1 390.1L305.9 391.9L306.1 393.7L307 393.7L307.1 395.2L307 396.1L306.4 396.5L306.3 398.1L306.2 401.2L306.3 402.6L306.3 404.6L306 405.6L305.5 406.3L304.9 407L303.8 407.2L302.3 407.3L300.2 407.4L300.3 408L299.6 407.9L298.7 408L298.5 408.8L297.2 409.1L296.2 408.7L295.7 408.2L295 407.1L293.1 407.1L291.1 407.2L290.6 407.9L289.7 408.1L289.1 408.7L288.2 409.4L287.5 410.4L287.6 411.7L287.6 413L287.5 415.7L287.6 417.2L287.7 419.2L287.4 420.1L286.9 421L285.6 420.8L283.4 420.9L281.6 421.1L279.8 421.2L279.3 419.9L278.7 419.1L278.1 418.5L277.3 418.4L276.9 418.6L276.8 419.9L276.5 420.9L276.1 421.8L275 421.9L274 421.5L272.7 421.3L271.5 422L271.4 423.4L271.1 424.3L270.3 424.1L269.2 424L268.1 423.1L267.2 422.4L265.9 422.1L264.4 421.8L262.3 421.6L259.7 421.1L258.1 420.7L257.6 419.9L256.3 418.5L255.1 416.9L254.4 416.5L254 415.4L252.6 415.3L252 413.9L251.7 413.1L251.9 411.9L253.3 411.4L254 410.6L255.1 409.9L256 409.5L257 408.7L257.5 407.6L257.1 406.4L255.3 404.8L254.3 403.5L253.8 401.5L252.8 400.6L251.4 399.4L249.5 398.1L248.2 396.9L246.5 395.6L245 394.2L244.2 393.4L243.4 392.3L242.4 391.1L242.1 390.5L241.4 389.3L240 388.8L239 387.5Z" />
	<text id="Anantnag" style="transform: matrix(0.018,-1,1,0.018,273.139,307.435)" >
		<tspan x="0" y="0" class="txt2">Anantnag</tspan>
	</text>
	<text id="Badgam" style="transform: matrix(0.66,-0.751,0.751,0.66,197.903,278.454)" >
		<tspan x="0" y="0" class="txt2">Badgam</tspan>
	</text>
	<text id="Bandipore" style="transform: matrix(1,0,0,1,208.877,185.534)" >
		<tspan x="0" y="0" class="txt2">Bandipore</tspan>
	</text>
	<text id="Baramulla" style="transform: matrix(1,0,0,1,153.107,236.663)" >
		<tspan x="0" y="0" class="txt2">Baramulla</tspan>
	</text>
	<text id="Doda" style="transform: matrix(1,0,0,1,303.922,377.42)" >
		<tspan x="0" y="0" class="txt2">Doda</tspan>
	</text>
	<text id="Ganderbal" style="transform: matrix(1,0,0,1,220.026,219.477)" >
		<tspan x="0" y="0" class="txt2">Ganderbal</tspan>
	</text>
	<text id="Jammu" style="transform: matrix(0.713,0.701,-0.701,0.713,206.493,386.889)" >
		<tspan x="0" y="0" class="txt2">Jammu</tspan>
	</text>
	<text id="Kargil" style="transform: matrix(1,0,0,1,362.421,280.607)" >
		<tspan x="0" y="0" class="txt2">Kargil</tspan>
	</text>
	<text id="Kathua" style="transform: matrix(1,0,0,1,278.897,436.669)" >
		<tspan x="0" y="0" class="txt2">Kathua</tspan>
	</text>
	<text id="Kishtwar" style="transform: matrix(1,0,0,1,314.906,324.593)" >
		<tspan x="0" y="0" class="txt2">Kishtwar</tspan>
	</text>
	<text id="Kulgam" style="transform: matrix(1,0,0,1,207.744,307.435)" >
		<tspan x="0" y="0" class="txt2">Kulgam</tspan>
	</text>
	<text id="Kupwara" style="transform: matrix(1,0,0,1,145.019,192.167)" >
		<tspan x="0" y="0" class="txt2">Kupwara</tspan>
	</text>
	<text id="Leh (Ladakh)" style="transform: matrix(1,0,0,1,483.003,262.266)" >
		<tspan x="0" y="0" class="txt2">Leh (Ladakh)</tspan>
	</text>
	<text id="Poonch" style="transform: matrix(1,0,0,1,153.107,293.986)" >
		<tspan x="0" y="0" class="txt2">Poonch</tspan>
	</text>
	<text id="Pulw." style="transform: matrix(1,0,0,1,237.708,262.266)" >
		<tspan x="0" y="0" class="txt2">Pulw.</tspan>
	</text>
	<text id="Rajouri" style="transform: matrix(1,0,0,1,167.965,345.292)" >
		<tspan x="0" y="0" class="txt2">Rajouri</tspan>
	</text>
	<text id="Ramban" style="transform: matrix(-0.053,-0.999,0.999,-0.053,265.084,353.86)" >
		<tspan x="0" y="0" class="txt2">Ramban</tspan>
	</text>
	<text id="Reasi" style="transform: matrix(1,0,0,1,212.913,358.792)" >
		<tspan x="0" y="0" class="txt2">Reasi</tspan>
	</text>
	<text id="Samba" style="transform: matrix(1,0,0,1,236.601,429.24)" >
		<tspan x="0" y="0" class="txt2">Samba</tspan>
	</text>
	<text id="Shupiyan" style="transform: matrix(0.957,-0.291,0.291,0.957,209.932,287.805)" >
		<tspan x="0" y="0" class="txt2">Shupiyan</tspan>
	</text>
	<text id="Srinagar" style="transform: matrix(1,0,0,1,217.913,238.034)" >
		<tspan x="0" y="0" class="txt2">Srinagar</tspan>
	</text>
	<text id="Udhampur" style="transform: matrix(1,0,0,1,253.359,396.461)" >
		<tspan x="0" y="0" class="txt2">Udhampur</tspan>
	</text>
	<path id="Layer" class="shp0" d="" />
</svg>