<?xml version="1.0" encoding="utf-8"?>
<!-- Generator: Adobe Illustrator 25.1.0, SVG Export Plug-In . SVG Version: 6.00 Build 0)  -->
<svg version="1.1" id="Jammu__x26__Kashmir" xmlns="http://www.w3.org/2000/svg" xmlns:xlink="http://www.w3.org/1999/xlink"
	 x="0px" y="0px" viewBox="0 0 800 534" style="enable-background:new 0 0 800 534;" xml:space="preserve">
<style type="text/css">
	.st0{fill:none;}
	.st1{display:none;fill:#E0F2F1;}
	.st2{fill-opacity:0;stroke:#000000;stroke-width:0.4;stroke-miterlimit:9.5;}
	.st3{font-family:'Tahoma';}
	.st4{font-size:10.9995px;}
	.st5{font-size:10px;}
	.st6{font-size:11px;}
	.st7{font-size:9px;}
</style>
<path class="st0" d="z"/>
<rect class="st1" width="800" height="534"/>
<path id="Anantnag" class="st2" d="M269.5,324.2l-1.6-1.5l-1.3-2.2l-1.2-1.6l-1.3-1.5l-2.5-1.5l-0.2-2.4l-0.1-1.7l-0.2-1.2l-0.2-2
	l-0.5-0.4l-0.1-1.1l-0.2-1.3l-0.5-1l-0.6-0.1l-0.4-1.5l-0.6-0.1l-0.3-1l-0.6-1l-0.3-0.6l-0.5-0.8v-0.9l-0.9-0.6l-0.5-0.6l-0.9-0.2
	l-0.3-1.1h-0.9l-1.2,0.4l-1.3,0.3l-1.8-0.4l-0.1-1.2l0.1-1.5l0.1-1.6l-0.2-1.3l0.9-0.9l0.9-0.4l0.1-0.8h0.9l0.9-0.4l0.5-0.6l0.4-0.7
	v-1.3l0.5-0.9l0.3-1l0.7-1.1l1.2-0.6v-1v-0.5l0.1-1.5l0.2-1.3l-0.7-0.6l-0.1-0.5h-1l-1.4-0.1h-1.2l-1.7,0.2l-0.9-0.5l-0.3-0.6
	l0.7-0.9l0.6-0.9l0.3-0.5l0.6-0.9l0.6-0.3l0.7-0.3l0.7-0.5l1-0.9l1.3-0.2h0.9l0.5-0.4l0.7-0.9l0.7-0.5l1.3-1.1l0.9-0.6l0.6-1.2
	l0.5-1l0.5-1.1l0.7-0.9l0.5-0.8l0.5-0.5l0-0.4l0.5-6.5l1-3.4l-0.3-1l-0.3-1l-0.4-0.5l-0.1-1l0-1l-0.3-0.4l-1.1-0.6h-0.7l-1.1-0.2
	l-1.1-0.4l-1-0.8l-0.6-0.5l-0.7-0.4l-0.6-1.1l-0.4-1l0.1-1.1l-0.3-0.3l-0.4-1.2l-0.5-1.3l-0.4-0.6l-0.6-0.8l-0.7-0.8l-0.7-1.3
	l0.2-0.8l0.7-1l1,0.2l0.8-0.2l0.3-1l-0.4-1.3l0.6-0.6l0.7-1.4l2.4,0.2l2.6,0.5l1.3-2l1.8-1.6l1.6-1.4l1.2-0.7l2.6,0.5l3.9,1.4
	l1.8,0.7l1.1,0.5l1.1,0.6l1.6-0.1h0.9l0.6-0.8l1.1-0.6l0.5,0.6l0.7,0.8l0.6,0.6l0.7,1l0.7,1.2l1.6,0.7l0.6-1.1l0.9-1.1l1.1-1.7
	l1.5-0.2l1.3-0.2v1.3h1.2l0.5,0.7h1.3l1.1,0.2l0.8,1.1v0.9l0.3,1.1l-1.1,2.2l-0.4,1.8l-1.3,1.6l-1.1,0.4l-1.1,1l-0.7,1.5l0.1,2.2
	l0.3,1.9l0.6,2.1v1.5v1.3l-0.7,1.3h-1.6l-1.9,0.1h-1.9l-1.9,0.1l-0.9,0.1l-0.1,2.7l-0.3,1.8l-0.7,1.3l-1.3,1.6l-0.7,1.6l-0.8,2.7
	v0.9l0.2,1.9l0.9,0.6l0.6,2.4l0.4,2.4v1.8l1,1l-0.2,1.3l1.1,1.2l1,2.4l0.2,0.6l0.7,1.2l0.2,1l0.4,0.7v1.5l0.1,0.9l1,1l0.8,1.3
	l0.8,0.6l0.8,1.5v1.9l-0.7,0.7l-0.3,0.6v1.8l0.1,2.5v2.2v2.4l0.6,1l1.3,0.6l1.2,0.7l0.3,1.2l-1,1.2l-0.4,0.4l-1.1,0.6v1.5l0.1,4.2
	l-0.2,2.1h-0.9l-0.7,1.2l-0.9,0.3l-0.4,1l-0.4,0.4l0.3,1.2l0.9,0.9v1.3l0.6,0.9l0.1,1.5l-0.1,2.5l0.1,1l0.3,0.9l-0.8,1.5l-1.4-0.1
	l-0.6,1.4l-1.7,1.5l-2.4,0.6l-2,0.9l-2.5,0.1l-2.1-1.8l-2.2-2.8l-1.8-2.7L269.5,324.2z"/>
<path id="Badgam" class="st2" d="M226.2,265.8l-0.6,0.5l-0.3,0.7l-0.3,0.8l-0.2,0.9l-0.2,1l-0.6,1.2l-0.1,0.9l-1,0.8l-0.7,0.4
	l-0.7,0.6l-1.1,0.8v0.7l-0.8,0.7H219l-1.5-0.1l-1.1,0.1l-0.1,0.8h-1l-0.9,0.3l-1.5-0.4l-0.6,0.4l-0.6,0.6l-1,0.9l-0.4,1.1l-0.5,0.8
	l-0.5,1.1l-1.3,1.2l-1.2,0.5l-0.5,1l-1.2,1.2l-1.1,1l-1.1,1.3l-0.7,1.2l-0.3,1.5l-0.8,0.8l-0.8,0.6l-0.8,0.7l-0.7-0.4l-1.3-1.2
	l-0.9-0.8l-1-0.8l-1-1.2l-0.7-0.6l-0.7-0.8l-0.6-0.8l-0.8-1.1l-0.6-0.6l-0.8-0.9v-0.6l0.1-1.1l0.5-1l0.5-0.4l0.5-0.4l0.3-1l-0.1-0.6
	l-0.6-0.6l-0.9-0.8l-0.9-0.9l-0.7-0.8l-0.9-0.9l-0.5-0.8l-0.7-0.4l-0.2-1l-0.1-1.7V269l0.3-2.1l0.1-1.1l0.4-0.4l0.1-1.4l1.6-0.2
	l0.7-1.4l0.9-1.8h1.6l1.9-0.7l0.1-1.6l-0.7-2.2l-0.8-1.4l-0.3-1.8l2.3-1.6l2-1.5l2.5-2.2l2.1-1.9l1.1-1.2l1.2-2.1l1.8,0.6l2-0.3
	l1.6-1.3l0.8-1.6l0.7-0.1l2,1.2l0.8,0.4l1,0.4l1.2,0.1l2.1-1.1l1.1,0.6l0.4,1l0.3,1l-1.2,0.4l-0.2,1.2l0.1,4.1l1.1,0.1l0.5-0.4
	l0.9-0.4l0.7-0.4l0.8,0.7l0.9,0.8l1.1,0.6h1.1l0.6-0.3l0.3-0.8l0.8-0.8h1.1l0.9,0.3l0.9,0.3l0.7,0.3l0.4,1h0.8l0.1,0l-0.1,1.1
	l0.1,1.3v1.1l-0.1,0.9l-0.1,1.3l-0.4,1.3l-0.7,1.3l-0.8,1l-0.9,0.5l-0.8,1.3l-0.6,1.4l-0.3,0.9l-0.7,1.2L226.2,265.8z"/>
<path id="Bandipore" class="st2" d="M210.8,209l-1.1-0.7l-1-0.3h-1.6l-1.5,0.9l-1.8,0.6L202,209l-1.3-1.2l-0.9-1.3l-0.9-0.4
	l-0.2-1.3v-2.2l0.9-0.3l0.7-1.9l-0.7-1.6l-0.7-0.4l-1.1-1.8l1.1-1.2l0.9-1.8l-0.1-1.9l-1-1.3l-1.8,0.7l-0.6-2.1l1-0.7l1-1.2
	l-2.1-3.8v-3.8l3.1-2.5l0.1-1.9l1.5-0.9l0.6-1.6l0.1-2.2v-2.5l-0.6-3.6l1.2-0.1v-2.2l0.1-2.4l0.9-2.9l0.3-0.1l3,3l0.5,0.5l1.3,0.5
	l0.7,0.6l0.9,1.4l1,1.5l1.2,1.2l3,1l2.4,0.6l1.1,0.2l2.2,0.4l0.3-0.1l0.5,0.3l1.4,0l4.6,0.7l1.7-0.1l3.4-0.7l0.4-0.1l1.6,0.2
	l1.6,0.6l1.8,1.5l4.8,1.9l0.2,0.2l0.3,0.3l1.4,0.7l1.1,0l1.1,0l0.8-0.3l0.3-0.3l2.9-1.1l2,0l0.5-0.3l2.9-0.6l2.1,0.2l1.2,0.4l0.1,0
	l2.7,1.4l2.7-0.3l1.3,0.1l0.9,0.4l0.6,0.6l0.1,0.6l-0.8,2.1l0.4,0.8l1.6,1.1l5.3,3.7l1.4,1.2l2.6,1.2l-1,1.5l-0.3,2.9l-1.2,0.7
	l-1.2,0.5l0.1,2.2l1.1,1.8l-0.1,2.2l-1.2,0.2l-1.2,0.9l-0.3,2.2l0.5,2.2l2,0.4l1.6,1.1l0.1,1.6l-1.1,2.1l-1.1,1.8l-1.6,1.6l-2.1-1.3
	l-1.2,1.3l-0.9,1.1l-1.5-0.9l-1.8-2l-1.5,0.2l-0.7,0.9l-1.2-1.6l-1.1-1.1l-0.8,2.2l-1.3,1.6l-2.3,0.9l-2.8,0.4l-2-1.4l-1.2-1.1
	l-1.2-1.8l-1.1-1.6l-0.5-1.1l-1.5-2.9l-1.9-0.9l-1.8-1.1l-1.5-0.7l-2.6-0.4l-1.3-0.4l-0.7-1.4l-1.6-0.2l-2,0.2l-1.2,1.4l-1.1,1.4
	l0.3,2.7l2,1.1v2.5l-2,0.9l-1.1,0.7l-3,1.6l-2.8,0.4l-1.1,1.2l-1.3,1.2l-1.2,2l-0.7,1.3l-0.9,1.1l-1.8-1.4l-1.2-1.4l-0.9-2l-1.5-1.3
	h-1.8L210.8,209z"/>
<path id="Baramulla" class="st2" d="M172.7,253.3l-0.6-2.1l-0.2-0.3l-0.9-1.2l-1.1-1l-1-0.6l-1.7-0.2l-1.4,0.1l-1.9,0.1l-1.2-0.5
	l-1.6-1.2l-0.5-0.2l-0.3-0.1l-0.8,0.2l-1.4,1l-0.4,0.7l-0.8,0.3l-2.4,0.4L154,249l-1.2,0.2l-0.5,0.1l-3.1,0.8l-0.6-1l-8.6-0.3l-1,0
	l-0.8-1.2l-0.6-0.9l0.1-1.4l0.1-1.7l1.8-2.7l0-3.2l1.2-2.5l2.6-3.5l3-5.2l0.5-3.4l1.6-0.1l0.8-0.9l0.9-0.7l4.7-0.3l0.6,0.6l1.2,1
	l3.1,0.3l1-0.6l1.2-1l0.6-1.2l1.1-1.2l0.8-1.3l1.3-0.9l0.7-0.7l0.8-1.2l0.6-0.7h3.6l1-2.1l2,0.3l2.6,0.3h1.8l1.7-1.8l1.3-1.9
	l0.8-0.6v-2.5v-1.5l0.9-1.3l1-0.7l0.8,1.3l1.6,0.3l0.4-1.6l0.1-1.3l0.9-0.6l0.6-0.4l-0.3-1.3l-0.6-0.9l-0.8-1.5l0.9-0.6l1.2,1.6h1
	l0.2-1.3l1.2-0.6l-1.3-1v-1.5l1.9-0.3l1.7-0.6l0.9-1l1.2-1.6l0.6,2.1l1.8-0.7l1,1.3l0.1,1.9l-0.9,1.8l-1.1,1.2l1.1,1.8l0.7,0.4
	l0.7,1.6l-0.7,1.9l-0.9,0.3v2.2l0.2,1.3l0.9,0.4l0.9,1.3l1.3,1.2l1.8,0.4l1.8-0.6l1.5-0.9h1.6l1,0.3l1.1,0.7l0.3,2.1l0.7,0.9
	l0.3,1.6l-0.1,1.5l-0.7,1.2v0.6l-0.9,0.6v1.6l0.7,1l1.5,0.6l-0.4,1.2l-1.1,1.2l-1.1,0.9l-0.8,1l-0.7,0.9l-0.1,1.9l0.6,2.2l1.5,1.6
	l0.5,0.5l0.9,1.6l1.3,1.9l1.6,1.6l1.6,0.3l0.8,1.5l0.7,1l-2.1,1.1l-1.2-0.1l-1-0.4l-0.8-0.4l-2-1.2l-0.7,0.1l-0.8,1.6l-1.6,1.3
	l-2,0.3l-1.8-0.6l-1.2,2.1l-1.1,1.2l-2.1,1.9l-2.5,2.2l-2,1.5l-2.3,1.6l0.3,1.8l0.8,1.4l0.7,2.2l-0.1,1.6l-1.9,0.7h-1.6l-0.9,1.8
	l-0.7,1.4l-1.6,0.2l-1.2-2.2l-1.1-1.4l-1.5-1.3l-2.7-0.5l-1.9-1.8l-1.2-2.3l-2.7-2.1l-0.1-0.1L172.7,253.3z"/>
<path id="Doda" class="st2" d="M331.1,393.3l-1-1.7l-0.9-1l-1.3-1.2l-1.8-1.1l-1.3-0.7l-1.6-0.1l-1.5-0.4l-0.5,0.1l-0.6,0.1
	l-1.3,0.5l-0.4,0.8l-0.5,0.5l0.3,1.2l-0.2,0.8l-0.2,0.2l-0.4,0.6l-0.4,0.4l-0.2,0.1l-2.3,1.3l-1.3,0.1l-0.8,0.9h-1.8l-1.8,0.1
	l-2-0.7h-0.9l-0.2-1.8l0.2-1.8l-0.7-1.3l-0.6-0.7l-1.2-0.6l-0.9-0.6h-1l-1-0.6l-0.8-0.6l-1.5-0.9l-1.2-0.6l-1.2-0.6l-1.1-0.4
	l-1.1-0.6l-1.5,0.1l-0.6,0.9l-1.5,0.1l-1.3,1.2h-1.1H287l-0.8-1.9l-1.3-0.6l-1.1-1.2l-0.7-1.2l-0.7-2.1l-0.3-6.6l-1.6-0.3l-1.2-0.1
	l-0.8-0.7l-1.8-1.2l-1.8,0.1l-1.2-1.5l-1.8-1.2l-1-1.5l-0.2-2l0.1-2.6l0.2-1.3l0.8-2.2l0.4-0.4l0.4-2.7v-2.2l0.3-2.5l0.4-2.1
	l-0.1-1.9v-1.9l-0.3-2.2l-0.9-1.9l-0.9-1.2l-0.4-1.5l-0.2-1.6l-0.6-2.4l-0.1-1.2v-2.4l0.3-1l-0.7-3.1l1.9,1.6l1.8,2.7l2.2,2.8
	l2.1,1.8l2.5-0.1l2-0.9l2.4-0.6l1.7-1.5l0.6-1.4l1.4,0.1l0.8-1.5l1.5,1l1.5,2.7l1.8,2.4l2,2.4l2,2.1l1.3,1.8l2.2,1.8l2,0.9l2.4,1.5
	l1.1,1.2l2.2,1.9l1.3,1.3l1.6,1.9l0.1,1.8l0.3,2.5l0.4,1.9l1-0.1l1.5,0.6l0.6,1.8l1.6,1.5l1.2,2.2l0.2,1.9l1.6-0.1l2.2,0.1l2.1,0.4
	l2.5,0.4l3.7,0.1l3.1-0.1l3.1-0.4h1.8l1.1-1.3l1.6-0.1l1.7-0.7l2-1.2l1.8-1l0.8-1.9l1.7-1.5l2.1-1.8h2l1.7,0.1l1.6,0.9l0.8,0.9
	l1.6,2.2l0.4,1.8l0.1,2.8v2.7l-0.8,1.6l-0.6,1.9l-0.8,1.5l-0.1,3.3l-2.6,0.1l-3.4,0.6l-0.8,0.8l-1.5,0.8l-0.7,0l-0.4,0.2l-0.8,0.1
	l-1.3,0.4l0.1,0.6l-0.3,1l-0.5,2.2l-0.3,0.8l-0.4,0.3l-0.8,0.5l-0.4,0.5l-1.1,0.9l-0.4,0.8l-0.7,0.5l-1.4,0.4l-0.4,0.7l-0.2,0.9
	l-0.4,0.9l-0.3,0.2l-0.8,0.2l-0.7,0.6l-1,1.1l-0.4,0l-3.5,1.9l-0.6,0.1L331.1,393.3z"/>
<path id="Ganderbai" class="st2" d="M210.8,209l1.7,0.6h1.8l1.5,1.3l0.9,2l1.2,1.4l1.8,1.4l0.9-1.1l0.7-1.3l1.2-2l1.3-1.2l1.1-1.2
	l2.8-0.4l3-1.6l1.1-0.7l2-0.9v-2.5l-2-1.1l-0.3-2.7l1.1-1.4l1.2-1.4l2-0.2l1.6,0.2l0.7,1.4l1.3,0.4l2.6,0.4l1.5,0.7l1.8,1.1l1.9,0.9
	l1.5,2.9l0.5,1.1l1.1,1.6l1.2,1.8l1.2,1.1l2,1.4l2.8-0.4l2.3-0.9l1.3-1.6l0.8-2.2l1.1,1.1l1.2,1.6l0.7-0.9l1.5-0.2l1.8,2l1.5,0.9
	l0.9-1.1l1.2-1.3l2.1,1.3l1.6-1.6l1.1-1.8l0.5,1.3l0.9,0.2l0.8,2v1.8l-0.1,1.6l0.9,0.5l-0.5,2l0.3,1.6l0.4,1.3l1.3-0.4l1.5-0.1
	l2.6-0.2l1.1,1.3l1.2,0.2l0.1,2.3l0.8,0.5l0.3,1.8l0.4,0.7l0.4,1.3l-1.1,1.7l-0.9,1.1l-0.6,1.1l-1.6-0.7l-0.7-1.2l-0.7-1l-0.6-0.6
	l-0.7-0.8l-0.5-0.6l-1.1,0.6l-0.6,0.8h-0.9l-1.6,0.1l-1.1-0.6l-1.1-0.5l-1.8-0.7l-3.9-1.4l-2.6-0.5l-1.2,0.7l-1.6,1.4l-1.8,1.6
	l-1.3,2l-2.6-0.5l-2.4-0.2l-0.7,1.4l-0.6,0.6l-0.9,0.8l-2.4-0.2l-1.2-0.9l-1.2-1.8l-0.9-1.3l-1.8-0.5l-2.4,1.6l-2,0.5l-3-0.5
	l-2.7-0.7l-0.7-1.6l-2-0.5h-2.6l-1.8,0.2l-1.6,1.1l-1.2,1.6l-0.3,1.3l-0.5,1.2l-0.2,0.9l-0.2,1l-0.8,0.4l-0.8,0.4h-0.8l-1-0.6
	l-1.1-1.1l-0.7-0.8l-1-0.2l-0.8-0.6l-1.1-0.1H216L215,229l-1.1,0.2l-0.7,0.4l-0.7,0.4l-0.6,0.4l-0.7,0.2l-0.4,0.7l-0.3,0.4l-1.5-1.6
	l-0.6-2.2l0.1-1.9l0.7-0.9l0.8-1l1.1-0.9l1.1-1.2l0.4-1.2l-1.5-0.6l-0.7-1v-1.6l0.9-0.6v-0.6l0.7-1.2l0.1-1.5l-0.3-1.6l-0.7-0.9
	L210.8,209z"/>
<path id="Jammu" class="st2" d="M239,387.5l1.2,1.8l1.4,0.5l0.7,1.2l0.3,0.6l1,1.2l0.8,1.1l0.8,0.8l1.5,1.4l1.7,1.3l1.3,1.2l1.9,1.3
	l1.4,1.2l1,0.9l0.5,2l1,1.3l1.8,1.6l0.4,1.2l-0.5,1.1l-1,0.8l-0.9,0.4l-1.1,0.7l-0.7,0.8l-1.4,0.5l-1.7-1.1l-1.5-0.3l-2.2-0.3
	l-1.1-1.5l-0.8-0.6l-2.7-1.5l-1.6-0.3l-0.6,0.9l-0.4,1.6l-0.4,2.2l-1.1,1.8l-1.1,1.2l-0.9,1l-0.9,1.2l-1.3,1l-1.5,1.5l-0.4,1.8
	l0.4,1.8l1.5,1.3l1.6,0.4l1.2,1.5l-0.1,1.9l-1.1,2.4l-1.2,2.2l-1,1.8l-1.9,1.9l-1.1,1.9l-1.5,1.3l-1,2.5l-1.6,0l-1.9,1.5l-3.5,0.2
	l-0.3,0.3l-0.9,0.1l-0.1,0l-0.3-0.3l-2.1,0l-2.1-0.4l-1.1-1l-0.4-1.1l-0.1-0.2l-0.2-1.5l0.4-1.8l-0.2-1.1l-1.8-1.7l-0.2-0.2
	l-0.7-0.9l-0.4-1.5l-0.4-3l-0.1-1.9l0.7-1.9l0.9-1.4l1-1.1l0.7-1.5l-0.1-1l-0.1-0.1l-0.5-1.1l-0.7-0.7l-0.7-1.5l-0.4-3.3l1.1-4.6
	l0.6-1.1l0-0.4l1-1.9l0.9-1.8l0.7-1.7l0.5-2.2l-0.3-1.6l-1.5,0.2l-1.8,1.3l-1.8,0.6l-0.4,0.6l-0.1,0.9l0.4,2.4l-0.8,1.8l-1.8,2.5
	l-0.6,0l-1.3,0.1l-1.4,0.4l-0.5-0.3l-0.6,0l-2.3,1.2l-0.2,0.1l-0.9,0.5l-2.7-2.4l-2.2-1.6l-0.2-0.3l-0.6-0.4l-0.6-0.4l-0.4-1.2
	l0-0.1l-0.4-1.2l-0.3-0.4l-0.3-1.5l-0.5-1.1l-0.2-0.4l-1.2-2l-0.3-1.7l0.3-2.7l-0.1-0.5l-0.3-1.2l-1.1-1.4l-0.7-0.4l-1.6-0.2l-0.3,0
	l-1.6,0l-0.3,0l-1.6,0l-1.9-0.6l-0.9-0.8l-0.2-1.3l0.4-1.4l1.3-1.7l1.1-1.4l0.6-2.2l0-0.9l1.3,0.6l1.1,1.1l1.3-0.5l1.1-0.9l0.9-1.1
	l0.8-1.1l1.1-0.8l1.5-0.9h1.6l2.2,0.5l1.6,0.1l0.8,0.8l0.6,1.3l1.1,0.5l0.9-0.1l0.3-3.6l0.6-0.6l0.8,0.8l0.7,2.1l0.6,1.6l0.8,1.5
	l1,2.3l0.8,0.5l1-0.1l0.5-0.8l0.7-1.5l-0.3-1.6l-1-1.6l-0.8-1l1.1-1.6l0.8-1.3l0.8-1.3l1.1,1.9l0.8,0.6l0.8-1.1l-0.3-1.1l0.4-2
	l0.7-0.4l1.2,0.5l1,0.9l0.8,0.8l1.6-0.2h1.7l1.2,1l1.7,2.5l1.1,1.5l0.7,1.5l-0.5,2.1l-0.7,0.9l-1.3,0.7l-0.4,1.6l0.2,1.5l0.3,1.4
	l0.8,0.8l1,0.3l0.7,0.4l0.8,0.6h1.6h1.6v-1.4l0.8-0.4l-0.1-1.9l0.2-1.3l0.8-0.4l1.1,0.1l1.6,1.1l0.2,1.5l0.3,1.3l1.4,0.3l0.4,0.8
	l0.6,1.1l0.7,0.9l0.4,1.3l1-0.1l1-0.8l0.3-1.8l0.2-1.9L239,387.5z"/>
<path id="Kargil" class="st2" d="M413.7,348.3l0-0.2l-1.2-1l-1-2.1l-0.9-1.5L407,343h-1.1l-0.9-2l-0.8-2l-1.1-1.3l-1.3,0.5l-0.9,1.3
	l-1.9,0.9l-3.5-0.5l-2.6-1.1l-0.8-0.5l0.7-2l1.1-1.6l0.7-2.3l-0.3-3.4l-1.1-1.8l-1.3-2.2l-0.5-2.3l-2.2-2.7l-1.9-2.2l-1.9-1.8
	l0.3-1.4l-0.1-2.4l-1.8,0.4l-1.6-1.1l-1-1.9l-3.9,1.2h-1.9l-1.5-2l-1.7-1.8l-3-3.9l-1.9-0.7l-0.8,0.2l-1.1,0.9v2.9l-1.1,1.1
	l-1.3,0.7l-0.9,0.4l-1.1-0.2l-0.8,1.3h-0.8l-0.7,2.2l-6.3-0.4v-1.8v-2l-0.9-0.2l-0.9-1.8l-1.1-0.2l0.3-1.6l0.4-0.9l1.2-0.7l0.4-1.8
	l1.2-0.5l0.3-1.6l-0.1-7.4v-2.7l-0.5-1.8l-0.3-2.2l0.3-1.6l-1.1-1.3l0.3-1.6l-0.1-2.2l-1.9-1.4l-1.1-0.7l-1.2-0.7l-1.3-1.1l-0.4-0.9
	l-1.1-0.9l-0.7-0.9h-0.4l-0.4-1.1l-1.6-0.4v-0.9h-0.9l-0.1-1.1l-1.2-0.5l-1.1-1.6l-0.4-1.4l1.5-0.9l0.3-0.9l-0.5-1.6l-1.2-0.9
	l-1.5-0.9l-1.9,0.5l-1.2-0.4l-0.9,0.9l-1.3-0.4l-0.7-0.7l-0.8,0.2l-0.1-1.1l-0.5-0.5l-1.9,0.2h-2.2h-1.8H321l-0.7-1.3l1.2-0.9
	l0.3-0.5l0.7-0.9l-0.5-1.1l-1.1-0.4l-0.5-1.1l-1.1-0.2l-0.9-0.9l-0.1-0.5l-1.3-0.5l-1.2-0.9L314,248l-0.8-1.8l-0.9-0.4l-0.4-2
	l-0.3-2l-0.9-0.9l-1.1-1.4l-1.6-1.5l-0.7-0.5l-0.5-1.1l-0.8-1.1l1.1-1.6l1.1-1.6v-1.4l-0.8-0.2l-0.3-0.7l-1.1-0.4l-0.7-0.5l-0.5-0.5
	l-1.6-0.4l-0.7-0.9l-0.5,0.5l-0.9,0.5l-0.3,0.5l-1.2,1.4h-0.9h-0.9l-0.3-1.1v-0.9l-0.8-1.1l-1.1-0.2h-1.3l-0.5-0.7h-1.2V225
	l-1.3,0.2l-1.5,0.2l-0.4-1.3l-0.4-0.7l-0.3-1.8l-0.8-0.5l-0.1-2.3l-1.2-0.2l-1.1-1.3l-2.6,0.2l-1.5,0.1l-1.3,0.4l-0.4-1.3l-0.3-1.6
	l0.5-2l-0.9-0.5l0.1-1.6v-1.8l-0.8-2l-0.9-0.2l-0.5-1.3l1.1-2.1l-0.1-1.6l-1.6-1.1l-2-0.4l-0.5-2.2l0.3-2.2l1.2-0.9l1.2-0.2l0.1-2.2
	l-1.1-1.8l-0.1-2.2l1.2-0.5l1.2-0.7l0.3-2.9l1-1.5l1.6,0.5l1.8,0.2l4.8,0.5l1.3,0.5l2.6,0.3l1-0.1l0.4-0.2l2.9,0.2l1.2-0.1l1.3-0.1
	l1.2-0.1l2.2,0.2l2.7,0.6l4.5,1.5l2,0.4l1.5,0.3l1.9,0l1.8-0.8l2.3-1.5l1.6-1.8l1-1.4l1.9-1.8l0.2-0.2l3.6-2l2.9-1.3l0.6-0.5
	l1.3-2.5l1.3-0.8l2-0.3l0.1,0l1.4,0.5l0.8-0.1l0.8-0.7l1.3-2.2l1-1.3l1-0.8l1.8-0.7l1.8,0l1.1,0.6l0.7,0.6l2.7,2.5l0.8,0.4l0.8,0.1
	l1.8-0.1l3.3-1.5l0.5-0.5l2.8-1.6l0.7-0.1l2.4-1.4l1.4-1.2l0.8-1l0.6-1.4l1.1-1.5l1.4-0.9l1.2-0.2l0.9,12.8l3.3,1.9v4.1l0.8,4.9
	l3.9-1.1l4.5-0.7l2.5,0.4l2.5,2.6l2.5,1.1l3.4,1.9l-0.6,4.1v4.5v4.5l0.8,2.6l2.5,0.4l4.5,1.9l2,2.2l-0.8,3.4l-0.3,4.1l-0.6,3.4
	l-0.8,2.6v3.7l1.7,0.7l-0.6,3.4l-1.8,3.4l3.2,2.4l2.8,3.2l-0.2,3.7l-3.1-0.7l-1.1-2.5l-0.7-3.4l-1.6-0.4l-2,1.6l0.8,2.5l1.6,1.8
	l-0.4,3.1l-2.2,0.9l-2.7-0.4l-2.6-1.6l-3.1,1.3l-1.5,2.2l-0.4,2.9l1.2,3.4l2.7,2l2.3,1.8l2.7,2.2l0.3,3.8l0.8,2.9l2.2,2.3l2.7,0.7
	l2.4,0.9l1.3,1.8l1.3,1.8l3.4,0.5h3.2l2.4,0.7l3,2.3l1.3,2.5l1.8,3.4l3.2,3.1l3,2l3.8,2h2.8l2-2.3l1.3-1.3l1.3,1.3l1.2,1.6l2-0.7
	l2-0.2l2,2.2l3.4,3.8l3.7,2.8l2.4,1.6l1.5,3.1v2.7l2.4-0.2l2.7,0.9l1,2.5h3l2.2,0.2l2.4,2.2l1.7,2l1.7,2.2l2.4-0.2l3,1.1l1.5,2.5
	l-0.3,2.9l1,3.6l2.1,1.8l0.5,2.3l-0.8,2.9l-1.2,2.2l-2.3,1.8l-2.8,2.2l-2.3,2.5l-2.2,2.2l-1.2,2.9l-1.6,3.1l-2.3,3.3l-0.8,2.3
	l-0.4,2.5l-0.3,2.5l0.4,2.7l0.5,2.7l0.4,1.8l-1.8,0.7l-1.5,1.3l-0.8,1.8l-1.9,1.8l-0.4,2.7v2.3l-0.1,2.7l-1.3,0.4l0.1,2.7v2.7
	l0.4,2.5l0.8,2.3l0.8,1.3l0.5,1.6l0.9,1.3l0.1,2l0.4,2.9l1.4,2.6l-0.7,0.1l-0.4,0.2l-0.8-0.1l-0.6-0.3l-0.1-0.7l-0.4-0.2l-0.5-1
	l0.2-1.1l-0.7-1l-0.7,0l-0.9,0.2l-0.7-0.4l-0.7-0.5l-0.4-0.8l-1.1-1.3l-1,1.4l-0.8,0l-0.1-0.5l-0.2-0.4l-0.8-0.6l-0.3-0.4l-0.1-0.3
	l0.3-0.2l0.2-0.4l-0.1-1.1l-1-0.2l-1.3-1.1l-1.5-0.5l-0.7-0.7l-0.7-2l-0.7,0.4l-0.3,0.4l-0.2,0.5l-0.1,0.6l-0.3,0.4l-1.1-0.1
	l0.4-0.8l-0.4-1.8l0.2-0.4l0-0.4l-0.3-0.2l0-1.7l-0.9-0.2l-0.1-0.4l0-0.5l-0.1-0.6l0.1-0.6l0.1-0.8l-0.8-0.4l-0.7,0.1l-0.7-0.2
	l-0.9-0.4l-0.6,1.2l-1.2,0.5l-0.9,0l-0.3-0.4l-0.5-1.2l-0.7-0.1l-0.6-0.6l-1.6-1.1l-1,0.3l-0.4,0.7l-0.8-0.2l-1.2,0.5l-0.4-0.3
	l-0.2-0.1l-0.4-0.4l-0.6-0.7l-1.3-0.7l-0.3-0.4l-0.1-0.5l-0.5-0.4l-0.8-0.2l-1.5-1.3l-0.8-0.1l-0.6-0.6l-0.3-0.6l-0.1-0.7l-0.3-0.8
	l-1-1.8l-0.3-0.9l-0.1-0.6l-0.5-0.6l0-0.5l0.4-0.9l-0.1-0.5l-0.9-0.3l-0.7-1.2l0-0.9l-0.8-0.8l-0.8,0.5l-0.7,0.6l-0.8-0.1l-0.5-0.4
	l-0.5-0.7l0.3-0.7l-0.9-0.7l0.1-0.8L415,361l-0.5-0.1l-0.2-0.5l-0.5-0.3l-0.6-0.9l-0.2-0.7l0.1-0.6l-0.3-0.4l-0.1-0.5l0.2-0.6
	l0.4-0.6l0.1-0.3l-0.3-1.1l1.4-1.5l-0.1-0.8l-0.6-0.4l0.2-0.9l0.5-1.1l0.5-0.8l0.5-0.7l0-0.5l-0.1,0l-0.3-0.1l-0.2-0.1l-0.4,0
	l-0.3,0.1l-0.5,0.4L413.7,348.3z"/>
<path id="Kathua" class="st2" d="M250.8,444.2l1-0.5l1.1-0.7l0.9-1.3l0.3-1.5l1-0.1l0.9-1l1-0.2h0.6l0.3-0.6l0.7-1.2l0.5-0.9l0.5-1
	l0.4-0.9l0.5-0.4l0.5-0.9h1.3l1.9,0.2l0.7-0.8l0.6-0.5l0.5-0.3l0.6-0.4l0.8,0.8h1.4l1.3,0.2l1.7-0.1h1.1l0.4-0.7l1.1-0.4l-0.1-1.3
	l-0.1-0.7l-0.6-1.4l-0.9-0.7l-0.9-0.9l-0.6-1.4l0.3-0.9l0.1-1.4l1.2-0.7l1.3,0.2l1,0.4l1.1-0.1l0.4-0.9l0.3-1l0.1-1.3l0.4-0.2
	l0.8,0.1l0.6,0.6l0.6,0.8l0.5,1.3l1.8-0.1l1.8-0.2l2.2-0.1l1.3,0.2l0.5-0.9l0.3-0.9l-0.1-2l-0.1-1.5l0.1-2.7v-1.3l-0.1-1.3l0.7-1
	l0.9-0.7l0.6-0.6l0.9-0.2l0.5-0.7l2-0.1h1.9l0.7,1.1l0.5,0.5l1,0.4l1.3-0.3l0.2-0.8l0.9-0.1l0.7,0.1l-0.1-0.6l2.1-0.1l1.5-0.1
	l1.1-0.2l0.6-0.7l0.5-0.7l0.3-1v-2l-0.1-1.4l0.1-3.1l0.1-1.6l0.6-0.4l0.1-0.9l-0.1-1.5l2,0.7l1.8-0.1h1.8l0.8-0.9l1.3-0.1l2.3-1.3
	l0.2,1.1l0.1,0.4l0.5,1.4l0.1,0.1l1,1.7l0.3,0.4l0.7,0.8l0.5,0.5l0.6,0.3l0.9,0.5l1.7,1.3l1.7,1.6l1.1,2.3l1.4,3.2l1.2,1.6l0.1,1.9
	l-0.4,2.7l-0.5,1.5l-0.5,1.1l-0.2,1.2l0.2,1.3l0.6,1.1l0.9,0.8l0.9,1l0.1,0.5l-0.2,1.3l-1.5,3.1l-0.3,0.5l-1.7,2.9l-1.3,2l-0.1,0.1
	l-1.4,2.1l-1.8,2.6l-0.7,1.6l-0.2,0.6l-0.4,1.4l-0.1,0.2l-0.7,1.1l-1.1,1.5l-1.3,1l-1.1,0.5l-0.6,0l-1.8,0l-0.7-0.1l-0.1,0.3
	l-0.1,0.6l-0.8,1.8l-0.5,1.2l-0.4,0.8l-0.5,1l-0.4,0.8l-0.4,0.7l-1.3,1.1l-1.3,1.1l-2.1,0.9l-1.4,0.6l-1,0.2l-4.2,0.7l-2.4,1.2
	l-0.9,0.6l-1.1,0.8l-1.5,1.5l-0.5,1.1l-0.8,5.3l-1,2.1l-0.1,0.2l-0.3,0.4l-0.2,0.1l-0.4-0.2l-0.4-1.4l0.2-1.9l-0.1-0.5l-0.1-0.4
	l-0.5,0l-0.5,0l-0.8-0.5l-0.3-0.4l0.5-2.7l-0.1-0.1l-0.5,0.2l-1,0.7l-0.4,0.2l-0.3,0.1l-1.5,0.6l-0.1,0l-1.5,0.3l-1.7-0.2l-1.1-0.2
	l-0.7-0.1l-0.5-0.2l-1.3-0.5l-1.3-0.5l-0.1-0.1l-1.2-0.6l-0.6,0.2l-0.1,0.1l-0.2,0.5l-1-0.9l-2.1-1.6l-0.8-1.2l-0.2-0.1l-1.1-0.7
	l-1.3-0.8l-1.5-2l-0.5-0.4l-0.1,0l-0.6-0.1l-2.2-0.3l-0.3-0.2l-0.2-0.2l-0.3-1.6l0-0.2l-0.4-0.6L260,451l-0.7,0.4l-1.1,0.7l-1.2,0.4
	l-0.8-0.2l-1.1-0.8l-0.7-2.6l-0.2-0.3l-0.4-0.6l-0.4-0.7l-0.3-0.1l-0.8-1.4L250.8,444.2z"/>
<path id="Kishtwar" class="st2" d="M357.8,375.2l0.1-3.3l0.8-1.5l0.6-1.9l0.8-1.6V364l-0.1-2.8l-0.4-1.8l-1.6-2.2l-0.8-0.9l-1.6-0.9
	l-1.7-0.1h-2l-2.1,1.8l-1.7,1.5l-0.8,1.9l-1.8,1l-2,1.2l-1.7,0.7l-1.6,0.1l-1.1,1.3h-1.8l-3.1,0.4l-3.1,0.1l-3.7-0.1l-2.5-0.4
	l-2.1-0.4l-2.2-0.1l-1.6,0.1l-0.2-1.9l-1.2-2.2l-1.6-1.5l-0.6-1.8l-1.5-0.6l-1,0.1l-0.4-1.9l-0.3-2.5l-0.1-1.8l-1.6-1.9L309,347
	l-2.2-1.9l-1.1-1.2l-2.4-1.5l-2-0.9l-2.2-1.8l-1.3-1.8l-2-2.1l-2-2.4l-1.8-2.4l-1.5-2.7l-1.5-1l-0.3-0.9l-0.1-1l0.1-2.5l-0.1-1.5
	l-0.6-0.9V319l-0.9-0.9l-0.3-1.2l0.4-0.4l0.4-1l0.9-0.3l0.7-1.2h0.9l0.2-2.1l-0.1-4.2v-1.5l1.1-0.6l0.4-0.4l1-1.2l-0.3-1.2l-1.2-0.7
	l-1.3-0.6l-0.6-1v-2.4v-2.2l-0.1-2.5v-1.8l0.3-0.6l0.7-0.7v-1.9l-0.8-1.5l-0.8-0.6l-0.8-1.3l-1-1l-0.1-0.9v-1.5l-0.4-0.7l-0.2-1
	l-0.7-1.2l-0.2-0.6l-1-2.4l-1.1-1.2l0.2-1.3l-1-1v-1.8l-0.4-2.4l-0.6-2.4l-0.9-0.6l-0.2-1.9v-0.9l0.8-2.7l0.7-1.6l1.3-1.6l0.7-1.3
	l0.3-1.8l0.1-2.7l0.9-0.1l1.9-0.1h1.9l1.9-0.1h1.6l0.7-1.3v-1.3v-1.5l-0.6-2.1l-0.3-1.9l-0.1-2.2l0.7-1.5l1.1-1l1.1-0.4l1.3-1.6
	l0.4-1.8l1.1-2.2h0.9h0.9l1.2-1.4l0.3-0.5l0.9-0.5l0.5-0.5l0.7,0.9l1.6,0.4l0.5,0.5l0.7,0.5l1.1,0.4l0.3,0.7l0.8,0.2v1.4l-1.1,1.6
	l-1.1,1.6l0.8,1.1l0.5,1.1l0.7,0.5l1.6,1.5l1.1,1.4l0.9,0.9l0.3,2l0.4,2l0.9,0.4l0.8,1.8l1.6,0.4l1.2,0.9l1.3,0.5l0.1,0.5l0.9,0.9
	l1.1,0.2l0.5,1.1l1.1,0.4l0.5,1.1l-0.7,0.9l-0.3,0.5l-1.2,0.9l0.7,1.3h1.6h1.8h2.2l1.9-0.2l0.5,0.5l0.1,1.1l0.8-0.2l0.7,0.7l1.3,0.4
	l0.9-0.9l1.2,0.4l1.9-0.5l1.5,0.9l1.2,0.9l0.5,1.6l-0.3,0.9l-1.5,0.9l0.4,1.4l1.1,1.6l1.2,0.5l0.1,1.1h0.9v0.9l1.6,0.4l0.4,1.1h0.4
	l0.7,0.9l1.1,0.9l0.4,0.9l1.3,1.1l1.2,0.7l1.1,0.7l1.9,1.4l0.1,2.2l-0.3,1.6l1.1,1.3l-0.3,1.6l0.3,2.2l0.5,1.8v2.7l0.1,7.4l-0.3,1.6
	l-1.2,0.5l-0.4,1.8l-1.2,0.7l-0.4,0.9l-0.3,1.6l1.1,0.2l0.9,1.8l0.9,0.2v2v1.8l6.3,0.4l0.7-2.2h0.8l0.8-1.3l1.1,0.2l0.9-0.4l1.3-0.7
	l1.1-1.1v-2.9l1.1-0.9l0.8-0.2l1.9,0.7l3,3.9l1.7,1.8l1.5,2h1.9l3.9-1.2l1,1.9l1.6,1.1l1.8-0.4l0.1,2.4l-0.3,1.4l1.9,1.8l1.9,2.2
	l2.2,2.7l0.5,2.3l1.3,2.2l1.1,1.8l0.3,3.4l-0.7,2.3l-1.1,1.6l-0.7,2l0.8,0.5l2.6,1.1l3.5,0.5l1.9-0.9l0.9-1.3l1.3-0.5l1.1,1.3l0.8,2
	l0.9,2h1.1l3.5,0.5l0.9,1.5l1,2.1l1.2,1l0,0.2l-0.2,0.8l-0.3-0.1l-0.5-0.6l-1.1-1.6l-0.7-0.3l-1.4,0.2l-0.3,0.2l-0.3,0.3l-0.1,0.1
	l0,0.3l0.2,0.5l0.5,0.5l-0.2,1.9l-0.4,0.6l-0.5,1.2l-0.5,0.7l-0.3,0.9l-0.7,0.5l-0.4,1l-0.1,0.7l-1.5,0.3l-0.5-0.5l-1.1,0l-0.3,0.5
	l-0.8,0.4l-1.5,0.1l-0.8,0.2l-0.1,0l-0.1,0l-0.7-0.1l-1,0.9l-1.3,0.3l-1.4-0.4l-1.2-1l-0.1-0.3l0-0.9l-0.1-0.5l-0.5-0.3l-0.4,0.1
	l-0.4-0.4l0.1-0.8l0.1-0.6l-0.4-0.3l-0.5,0.1l-0.9-0.2l-0.4,0.1l-0.7-0.1l-0.8-0.3l-0.5,0.3l-0.7,0.9l-1.3-0.1l-1.4,0.6l-0.7-0.1
	l-0.3,0.1l-0.7,0.7l-1.9,1.3l-0.3,0l-1-0.4l-0.5,0.1l-0.8,0.3l-1.1-0.3l-0.8,0.1l-1.3-0.8l-0.7,0.2l-0.8,0l-0.7,0.5l-0.4,0.8
	l-0.6,0.4l-0.7,0.7l-0.5,0.7l-0.2,0.7l-0.3,0.4l-0.3,0l-1.6,1.1l-1.9,2l-0.8,0.4l-1.4,0.9l-0.4,0.9l-1.2,1.2l0.2,0.4l-0.1,0.3
	l-0.4,0.2l-0.4,1.3l-1.2,4.3l-1.7,2.5l-0.7,0.2l0,0.1L357.8,375.2z"/>
<path class="st2" d="M196.2,306.3l0.3-3.5l0.2-2.5l-0.1-3.3l0.4-1.8l0.8-1.5l1.3-1.2l0.8-0.7l0.8-0.6l0.8-0.8l0.8,0.6l0.8,0.4
	l0.6,0.9l0.8,0.3h1.2l0.9-0.1l0.7-0.2l1.2-0.5l1.2-0.4l1.1-0.4l1,0.5l0.4,0.7l0.3,0.4h1.3h1l0.6,0.8l0.5,0.4l0.7,0.9l1.2-0.1
	l0.7-0.9l0.9-0.6l0.9,1.2l0.1,1.4l0.7,1.1l1.4,0.2l1.2-0.5l1.2,1l5.7,0.7l1.2-1.1l0.9-0.6v-0.6l0.1-0.7l0.7-0.4l0.1-1.3l0.6,0.1
	l1.1,0.1l0.7-0.1l1.3-0.3l0.5-0.7l0.7-0.9v-1.4l-0.2-1.1l-0.7-0.4l-0.1-1.1V286l0.5-0.3l0.7,0.2l0.9-0.3v-1.1h1.3l0.5,0.2l0.9,0.8
	l0.9,0.1l1.1,0.3l0.6-0.7l0.3-0.8v-1.1l-0.1-1.4l0.1-1.8l0.5-0.2l0.5-0.7l0.6-0.7l0.4-0.6l0.5-1.3l0.5-1l0.3,0.6l0.9,0.5l1.7-0.2
	h1.2l1.4,0.1h1l0.1,0.5l0.7,0.6l-0.2,1.3l-0.1,1.5v0.5v1l-1.2,0.6l-0.7,1.1l-0.3,1l-0.5,0.9v1.3l-0.4,0.7l-0.5,0.6l-0.9,0.4h-0.9
	l-0.1,0.8l-0.9,0.4l-0.9,0.9l0.2,1.3l-0.1,1.6l-0.1,1.5l0.1,1.2l1.8,0.4l1.3-0.3l1.2-0.4h0.9l0.3,1.1l0.9,0.2l0.5,0.6l0.9,0.6v0.9
	l0.5,0.8l0.3,0.6l0.6,1l0.3,1l0.6,0.1l0.4,1.5l0.6,0.1l0.5,1l0.2,1.3l0.1,1.1l0.5,0.4l0.2,2l0.2,1.2l0.1,1.7l0.2,2.4l-1.1-1.2
	l-0.6-0.1l-1.3,0.3l-0.4-0.6l-0.5-0.7l-0.5-0.1l-0.3-0.4l-0.4-0.5l-0.4-0.7l-0.2-0.4l-0.5-0.1l-0.3-1l-0.4-0.4l-0.1-0.9v-1l0.1-1
	l0.1-1.1l-0.6-0.5h-0.4l-0.2,1.2l-0.7,0.9l-0.5,1.1l-0.8,0.8l-0.9,0.8l-0.4,0.5l-0.1,1.1l0.4,0.9l0.8,0.8l0.7,0.7l0.7,0.5l0.3,0.7
	l0.3,1l-0.3,0.4l-0.9,0.3l-2.4,0.2l-2.7,0.1l-2.3,0.2l-0.4,1.7l-0.2,0.7l-0.6,0l-0.7-0.1l-0.5-0.1l-0.9-0.2l-0.3-0.2l-0.3-0.4
	l-0.5,0l-0.4-0.7l-1-0.4h-0.5l-0.6-0.3l-1.2-0.1l-0.7-0.1h-0.7l-0.7,1.2l-1.5,0.3l-0.7,0.6l-0.7,0.1h-0.8h-1.8h-1.2l-1,0.7l-1.2,0.3
	l-1.3,0.1l-1.8-0.7l-0.4-0.9l-0.3-1l-1.2-0.6H219l-1-0.7l-0.7-1.3l-0.5,0l-0.7-0.6l-0.5-0.2l-0.9-0.4h-0.6l-0.5,0.4l-0.4,0.4
	l-1.8,0.6h-1.6h-1.2l-1.1,0.7l-0.7,1.6h-2.4l-1.1-1.3l-0.8-0.6l-0.6-1.3l-1.7-0.6l-1.6-1.9l-1.6-1.2l-0.9-1.2v-1.8L196.2,306.3z"/>
<path class="st2" d="M147,222.9l-0.5-3.2l-3.3-4.6l-2-5.1l-0.6-0.7l-1.3-1.5l-0.9,0.4l-0.9,0.4l-3.6,2l-3.2-2.3l-3.2,0.9l-1-1.2
	l0.1-1.4l1.2-5.7l1.2-1.4l1.7-1.9l4.5-4l4.1-2.8l-1.1-2.4l0.8-4l5-3.3l-0.6-2.4l-1.3-6.8l1.3-3.9l1.8-2.5l2.4-0.9l1.3-0.5l1.2-0.2
	l2,2l0.8,0.8l0.7,0.3l1,0l2-0.9l0.5-0.2l0.6-0.1l0.4,0.2l1.8,0.2l1.5,0.1l0.9-0.1l0.7-0.5l2.4-2.8l2.7-2.4l0.7-0.5l1.4-0.9l0.2-0.3
	l1.1-0.3l2.9-1.3l0.9-0.7l0.7-0.7l1.5-2.9l0.4-0.3l0.7,0l1.5,1l0.1,0l0.9,0.3l0.5-0.1l2-1.5l0.8-0.1l9.3,1.6l0.3,0.1l0.8,0.3l2,1.5
	l0.8,0.1l2.2-0.2l0.6,0l1.6,0.3l0.4,0.3l1.1,0.3l-0.9,2.9l-0.1,2.4v2.2l-1.2,0.1l0.6,3.6v2.5l-0.1,2.2l-0.6,1.6l-1.5,0.9l-0.1,1.9
	l-3.1,2.5v3.8l2.1,3.8l-1,1.2l-1,0.7l-1.2,1.6l-0.9,1l-1.7,0.6l-1.9,0.3v1.5l1.3,1l-1.2,0.6l-0.2,1.3h-1l-1.2-1.6l-0.9,0.6l0.8,1.5
	l0.6,0.9l0.3,1.3l-0.6,0.4l-0.9,0.6l-0.1,1.3l-0.4,1.6l-1.6-0.3l-0.8-1.3l-1,0.7l-0.9,1.3v1.5v2.5l-0.8,0.6l-1.3,1.9l-1.7,1.8h-1.8
	l-2.6-0.3l-2-0.3l-1,2.1H168l-0.6,0.7l-0.8,1.2l-0.7,0.7l-1.3,0.9l-0.8,1.3l-1.1,1.2l-0.6,1.2l-1.2,1l-1,0.6l-3.1-0.3l-1.2-1
	l-0.6-0.6l-4.7,0.3l-0.9,0.7l-0.8,0.9L147,222.9z"/>
<path id="Leh" class="st2" d="M653.8,437.7l-0.6,0.6l-2.5,4.4l-0.6,0.4l-0.1,0.1l-0.7,0.1l-0.7-0.2l-2.6-3.7l-0.9-0.6l-0.2-0.1l0,0
	l-0.4,0.1l-0.5,0.1l-1.2,0.4l-0.2,0.1l-0.9,0.3l-0.2,0.1l-0.7,0.2l-0.7,0.2l-0.4,0.1l-1.9,1.2l-1.7,1.1l-1.5,1l-1.9,2.2l-0.2,0.3
	l-0.5,1l-0.1,0.3l0,0l-0.2,0.4l0.2,1.5l0.2,1.9l-0.1,0.7l0,0.2l-0.9,2.1l-0.3,2l-0.4,1.4l-0.8,0.5l-0.4-0.1l-1.4-1.3l-0.9-0.8
	l-0.3,0l-0.4,0l-1,0.3l0,0l-0.2,0.2l-2,1.8l-2.9,0.3l-1.1,2.3l-0.5,0.4l-0.3-0.1l-0.3-0.1l-4.4-2.4l-0.5-0.3l-0.4-0.2l-0.1-0.1
	l-1.1-1.7l-0.2-0.3l-1.1-1l-0.2-0.5l-1.1-2.3l-0.7-0.6l-1,0l-2-0.8l-1.4-1.4l-0.1-0.1l-0.2-0.2l-0.1-0.2l-1.7-2.8l-0.1-0.1l-1.4-1.4
	l-0.4-1.1l-0.1-0.8l0-3.2l0-0.4l-0.3-3.1l-0.4-1.1l-0.1-0.3l-0.1-0.3l-0.1-0.9l-0.1-0.4l0.1-0.9l1.1-1.7l0.4-1.3l-0.1-0.5l-0.3-1.7
	l-0.5-2.5l-0.2-3.5l-0.3-1.3l-0.1-0.3l-0.1-0.3l-0.3-0.7l-1.4-1.5l-0.4,0l-0.5,0l-1.8,1.9l-5,3l-0.9,0.9l-0.3,0.6l-1.8,4.2l-0.6,0.5
	l-2.1,0.3l-0.3-0.1l-0.5-0.2l-0.7-0.2l-2.6-0.5l-0.9,0h0l-0.4,0h0l-0.6,0.2l-0.2,0.1l0,0l-0.5,0.2l-0.4,0.2l-1.7,1.5l-0.5,0.6
	l-0.7,0.9l-1,1.2l-0.6,0l-0.7-0.6l0,0l-0.1,0l-0.1,0l-0.8-0.2l-0.8,0.1l-0.9,0.9l-0.5,0.5l-2.4,1.5l-0.1,0.2l-0.7,2l0.1,1.7l0.6,0.7
	l0.1,0.1l0.4,0.5l-0.3,0.2l-0.2,0.2l-0.1,0l0-0.1l-0.3-0.2l0-0.1l-0.4-0.4l-0.1-0.7l-0.1-0.3l-0.1-0.1l-0.3-0.2l-1.1-0.1l-0.5,0.5
	l-1.9,1.7l-4.3,4.6l-0.4-0.2l-2.6-3.8l1.6-1.8l0.4-0.9l-0.2-6.1l0.5-0.1l1.5-0.2l1.3-0.6l0.8-1l3.4-2.7l1.1-1.1l-1.2-0.8l-0.5-1.1
	l-0.7-4.3l0-1.7l0.4-1.8l1-2.5l-0.3-0.4l-0.4-1.4l0-1.5l0.2-1.8l-0.1-0.2l-0.7-0.1l-1.8-0.1l-2.9,1.8l-2.5,1.4l0.7,0.8l0.3,0.9
	l0,0.6l-0.3,0.9l-1,0.8l-1.1,0.5l-1.3,0l-2.1,1l-0.3,1.4l-0.8,1l-1.1,0.8l-1.1,0.5l-0.6-0.3l-1,0.4l-0.4-0.8l-0.9-0.9l-1.1-0.2
	l-0.6,0l-0.8,0.3l-0.8,0.8l-0.5,1.3l-0.4,1.4l-0.5,0.8l-0.5,0l-0.9-0.9l-0.7-1.3l-0.6-0.3l-0.5,0.3l-0.9,0.9l-0.6,1.1l-0.5,2.4
	l-0.2,0.2l-0.6,0l-1.4-0.5l-1-0.9l-0.1,0.2l0,0.7l0.2,1.6l0.2,0.6l0.4,0.7l0,0.8l-0.5,0.9l-0.8,0.4l-0.9,0.2l-2.9-0.1l-0.4,0.2
	l-0.6-0.7l-0.2-0.6l-0.7-1.5l-0.5-0.7l-0.3-0.9l-0.5-0.7l0.1-1.1l-0.2-0.7l-0.6-0.3l-0.7-0.7l-0.6-1l-0.5-0.8l-0.1-0.5l-0.6-1.6
	l-0.9-1.1l-0.7-0.6l-0.1-0.7l0.3-0.7l0.1-1.1l0.2-0.5l0.1-0.6l0.2-0.6l0.6-0.6l-0.3-0.4l-0.4-0.4l0.2-0.7l0-0.3l0.3-0.9l0.1-0.6
	l-0.1-0.7l-0.2-0.4l-0.3-0.1l-0.3-0.6l-0.5-0.1l-0.4-0.3l-0.8,0.1l-0.3-0.1l-0.6,0l-0.4-0.6l-0.4-0.8l-0.5-0.5l0.2-1.3l-0.4-0.8
	l-0.1-0.6l-0.2-0.6l-0.6-0.6l-0.2-0.5l-0.5-0.4l-1.5-0.8l-0.6-0.6l-0.6,0.2l-0.4,0.3l-0.6,0l-0.9-1.2l-0.7-0.4l-0.4-0.1l-0.6-0.5
	l-0.5-0.1l-0.8-0.5l-0.6-0.8l0.4-1.9l0.6-1.3l1.3-0.1l0.5-0.8l-0.2-0.9l-0.8-0.6l-0.4-0.7l-1.7-1.5l-0.8-1.1l-0.3-0.4l0-0.1l0-0.2
	l-0.2-0.5l-0.6-0.2l-0.2-0.1L501,385l-0.6-0.9l-0.4-0.9l-1-0.9l-0.4,0.6l-0.4,0.1l-0.4-0.4l-0.3-0.5l-0.2-0.6l-0.4-0.2l-1.1,0.2
	l-0.1-0.4l-0.7-0.7l-0.5,0l-0.2,1.3l-0.3,0.9l-0.3,0.4l-0.3,0.8L493,384l-0.6,0.1l-0.5,0.2l-1.4,1.5l-0.6,0.1l-0.4,0.3l-0.2-0.1
	l-0.4,0l-1.2,0.1l-0.7,0.2l-0.2-0.5l-0.2,0.6l-0.1,0.6l-0.1,0.4l-0.9,1.3l-1.5,1.1l-0.4,0l-0.5,0.2l-0.9,1.2l-0.8,1.3l-0.4,0.3
	l-0.3,0.3l-0.8,0.2l-0.5,0.3l-1.1,0.2l-0.9-0.6l-1.1,1l-1.7,2.1l-0.6,0l-1.1-0.5l-0.4-0.6l-0.1-0.7l-0.5-1l-0.8,0.6l-0.7,0.1
	l-0.7-0.4l-0.4-0.3l-0.2-0.4l-0.2,0l-0.8,0.2l-0.8,0.6l-0.8,1.7l-0.8,0.5l-0.3,0.5l-0.1,0.4l0.1,0.6l0.3,0.6l-0.1,0.5l-0.2,0.6
	l-0.3,1.6l-0.8,0.5l-1.4-2.6l-0.4-2.9l-0.1-2l-0.9-1.3l-0.5-1.6l-0.8-1.3l-0.8-2.3l-0.4-2.5v-2.7l-0.1-2.7l1.3-0.4l0.1-2.7V374
	l0.4-2.7l1.9-1.8l0.8-1.8l1.5-1.3l1.8-0.7l-0.4-1.8l-0.5-2.7l-0.4-2.7l0.3-2.5l0.4-2.5l0.8-2.3l2.3-3.3l1.6-3.1l1.2-2.9l2.2-2.2
	l2.3-2.5l2.8-2.2l2.3-1.8l1.2-2.2l0.8-2.9l-0.5-2.3l-2.1-1.8l-1-3.6l0.3-2.9l-1.5-2.5l-3-1.1l-2.4,0.2l-1.7-2.2l-1.7-2l-2.4-2.2
	l-2.2-0.2h-3l-1-2.5l-2.7-0.9l-2.4,0.2v-2.7l-1.5-3.1l-2.4-1.6l-3.7-2.8l-3.4-3.8l-2-2.2l-2,0.2l-2,0.7l-1.2-1.6l-1.3-1.3l-1.3,1.3
	l-2,2.3h-2.8l-3.8-2l-3-2l-3.2-3.1l-1.8-3.4l-1.3-2.5l-3-2.3l-2.4-0.7H409l-3.4-0.5l-1.3-1.8l-1.3-1.8l-2.4-0.9l-2.7-0.7l-2.2-2.3
	l-0.8-2.9l-0.3-3.8l-2.7-2.2l-2.3-1.8l-2.7-2l-1.2-3.4l0.4-2.9l1.5-2.2l3.1-1.3l2.6,1.6l2.7,0.4l2.2-0.9l0.4-3.1l-1.6-1.8l-0.8-2.5
	l2-1.6l1.6,0.4l0.7,3.4l1.1,2.5l3.1,0.7l0.2-3.7l-2.8-3.2l-3.2-2.4l1.8-3.4l0.6-3.4l-1.7-0.7v-3.7l0.8-2.6l0.6-3.4l0.3-4.1l0.8-3.4
	l-2-2.2l-4.5-1.9l-2.5-0.4l-0.8-2.6v-4.5v-4.5l0.6-4.1l-3.4-1.9l-2.5-1.1l-2.5-2.6l-2.5-0.4l-4.5,0.7l-3.9,1.1l-0.8-4.9v-4.1
	l-3.3-1.9l-0.9-12.8l1.1-0.2l1,0l3.3-0.2l2.2-2l1.7-1.3l0.9-0.2l3-3.4l0.2-0.2l0.2-0.2l0.3,0l1.2,0.2l2.3,1.1l2.9,2.3l1.6,0.9l0.9,0
	l0.9,0.4l3.6-0.1l3.3-0.1l1.8-0.1l1-0.3l0.5-0.5l0.9-2l0.9-2.8l2-2.5l1-1.2l0.5-1.2l0.1-0.6l-0.1-2.5l-0.4-4.7l0.4-2l0.6-1.1
	l1.2-0.8l0.2,0l3.3-0.3l0.5,0.2l0.6-0.1l1.4-0.8l2.1-2.1l0.5-0.7l0.9-0.9l0.7-0.2l1.3,0.3l1.4,0.8l0.3,0.1l0.7,0.2l4,2.6l1.9,0.7
	l1.7,0l0.8-0.5l1.2-2.2l0.1-1.3l0-0.8l-0.1-3.4l0-2l0.1-1.4l0.3-0.9l0.4-0.4l0.8-0.3l0.9,1.1l3,1l1.2-0.3l2.7-1.6l4.4-1.9l1.8-1.5
	l1.8-1.6l8.1-7.4l1.4-0.9l0.5-0.4l7.4-6.2l0.5-0.2l3.2-2.6l2.2-1.8l4-4l5.1-3.9l4.3-3.3l6.2-5.4l1-1l7-7.4l2.3-2.2l1.3-1.1l3.8-3.2
	l0.4-1l0.4-1l1.6,0l0.2,0l0.3,0l0.3,1.1l0.1,0.4l1.1,3.8l0.6,1l1,1.8l0.5,0.5l0.4,0.4l1,0.1l0.3,0l0.7-0.2l0.9-0.6l0.1-0.1l0.7-0.7
	l1.5-2.8l0.1-0.1l0.6-1.2l1-0.8l0.5-0.2l2.2-0.7l1.8-0.3l0.9-0.1l2.4-0.1l1.7-0.1l0.1,0l1.4-0.1l0.2,0.1l0.5,0.1l0.6,0.2l0.9,0.6
	l0.3,0.5l0.3,0.5l0.1,0.5l-0.3,1l-0.3,0.3l-0.7,0.8l-1.7,0.9l-0.7,0.2l-0.2,0.3l-0.1,0.2l-3.5,2.5l-0.2,0.3l0,0.1l-0.1,0.1l-0.4,0.3
	l-0.3,0l0,0.1l-0.1,0.2l-2.1,2.7l-0.6,1.9l0,1.9l0.2,1.9l0.2,0.5l0.7,5.9l0,0.4l0.4,0.5l0.7,3.3l0.4,1.8l1.3,3.7l1,2.3l0.1,0.1
	l0.8,1.3l0.5,0.8l0.2,0.2l0.9,0.9l0.8,0.4l0.1,0l3.6,3.4l0.2,0.4l0.5,0.9l0.2,0.8l-0.1,0.4l-0.1,0.5l-0.7,1.3l-0.6,0.5l-1.3,1.2
	l-0.8,0.3l-0.1,0l-0.4,0.6l-0.1,1l1.1,3.2l1.9,5.3l0.3,1l0.3,0.8l0.9,2.7l0.3,0.9l3.2,7.4l0.6,0.7l0.1,0.4l0.9,2.7l0.3,2.4l1.8,12.2
	l0.3,0.9l0.8,2.4l0.2,0.7l1,2.2l0,0l1.5,2.7l1.7,2l0.7,0.6l0.1,0.1l1,0.8l1.5,0.7l0.6,0.1l1,0.2l0.6,0.3l0.1,0.1l5.9,0.5l0.8,0.3
	l0.3,0.1l0,0l0.6,0.6l0.2,0.9l0,2l0.2,0.9l0.8,1l0.7,0.2l1,0.1l0.7,0.1l1.5,0l2.2-0.1l2.8-0.7l2.4-0.6l2-0.1l1.1,0.4l1.2,1.1
	l2.7,2.5l0.9,1.1l1.6,2.8l0.6,0.6l0.8,1.2l0.7,1.1l1.9,1.8l0.5,0.4l1,0.7l1.9,0.8l1.3,0.5l0.6,0.6l0.2,0.2l1,1.6l0.1,0.2l0.2,0.6
	l0.1,0.1l0.8,1.1l2.4,2.4l1,1l2.4,2.4l1.2,0.9l0.1,0.1l3.5,1.5l1.5,0.6l2.2,1.4l0.7,0.4l0.5,0.5l0.2,0.2l1,1l2,2l0.8,0.6l0.7,1
	l0.4,0.1l0.7,1.7l0.1,0.2l0.4,1.9l-0.1,1.7l-0.8,2.6l-0.9,3.1l-1.8,3.1l-1.3,1.6l-0.6,0.7l-2.4,2.4l-1.5,1.3l-0.5,0.5l-0.9,0.6
	l-0.7,0.5l-1.2,0.7l-4.1,2.4l-3.9,2.3l-0.3,0.1l-0.7,0.2l-0.3,0.1l-0.1,0l-2.9,1.9l-0.5,0.5l-1,1.3l-0.7,1.2l0,1.7l0.6,1l1.9,1
	l2.6,0.8l0,0l0.1,0l0.5,0.5l0.2,0.9l0.2,0.8l-0.2,0.7l-0.5,1.6l-2,1.8l-1.4,1.3l-1.2,1.6l-0.1,0.6l0.2,1.3l0.1,0l-0.1,1.2l-0.2,0.7
	l-0.3,1.4l0.5,4l0.8,2.4l1.5,3.9l1.8,2.9l0.1,0.1l1.2,1.9l0.5,1.5l0.3,2.4l-0.8,3l0,0l-1.2,2l-0.5,0.5l-1.9,2.2l0,0l-0.5,0.6
	l-2.1,3.1l-0.1,0.4l-0.2,0.8l0.2,1.1l0.2,0.7l1.5,4l0.2,0.7l1.2,2.5l0.1,0.3l1.4,3l0.5,1l0.7,1.4l1.2,2.4l0.7,0.9l1.2,2.3l1.4,2.2
	l0.2,0.3l0.2,0.4l4.4,5.5l0.1,0.1l0.4,0.3l1.9,2.1l2.4,2.7l1.9,1.1l1.3,2l1.7,0.9l0.6,1.1l0.9,1.4l0.9,0.9l0.5,0.5l1.5,0.7l1.3,2.2
	l0.3,0.2l1,0.8l1.8,1.3l0.4,0.6l0.2,0.9l-0.4,1.3l-0.3,1.1l0.1,1.2l0,0.6l0.4,1.5l0.3,1.2l1.7,1l1.9,1.2l1.4,0.8l1.3,0.6l1.5,0.3
	l0.7,0.1l1.5,0.3l0.2,0.2l0.2,0.2l2-0.3l0.6-0.1l9.7,0.7l3.8-0.1l2,0l1.5,0.1l0.5,0.2l0.3,0.3l0.7,0.8l0.7,1.5l0.1,1.4l-0.2,1
	l-0.2,0.7l-0.2,0.8l-1.2,2.6l-0.1,0.7l-0.2,0.3l-0.2,0.2l-0.3,0.3l-1.6,3.7l0,0.2l-0.1,0.6l-0.4,0.7l-0.1,0.2l-1.1,3.7l-0.2,1
	l-0.1,0.6l-0.2,2.7l0.1,0.6l0,0.2l0,0.2l0.1,1.1l0.9,2.1l0.3,0.6l1.5,2.2l0.2,0.3l0.4,0.5l0.4,0.3l0.8,0.7l1.8,1.7l1.3,0.8l0.3,0.6
	l0.7,0.7l0.4,0.4l0.2,0.2l0.5,1.1l0.1,0.3l0.2,0.8l0.7,6.9l0.6,1.8l0.6,0.8l0.6,0.8l1.1,0.7l1.8,1.1l1.1,1l0.2,0.3l0.4,0.6l0.7,1.4
	l0.3,1.2l0.1,0.5l0.2,0.7l0.8,2.6l0.6,3.2l0.1,0.7l0.2,0.9l-0.6,5.1l-0.4,1.3l-0.4,0.7l-0.4,0.9l-2,1.4l-0.2,0.1L669,430l-0.5,0.2
	l-1.9-0.2l-0.3,0l-0.6,0l-1.3,0l-1.5,0.8l-1.1,0.8L661,432l-2.5,2.4l-3.9,2.5l-0.1,0.1l-0.1,0.1L653.8,437.7z"/>
<path id="Pooonch" class="st2" d="M202.6,316l-1.9,1.3l-1.3,1l-0.4,1.5h-1.7l-0.9-1.8l-0.8-1.8l-1.9-2.4l-1.3-1l-1-1.5l-1.4-1.9
	l-1.7-1.9l-0.8-0.7l-1.8-1.8h-2.2l-2.8,0.1l-2,0.3l-1,1l-0.8,1.3l-0.9,1l-1.6,0.3l-0.9,0.3l-1.8-0.1l-1.5-0.9l-1.6-0.1l-0.6,1.3
	l-0.4,1.8l0.3,1.2l1.1,0.7l0,2l1.3,0.9l-1,1.8l-1.3,2.8l-0.7,2.2l-1.6,2l0.2-0.6l0.1-1.5l0.4-1.7l-0.1-1.4l-0.1-0.2l-0.6-1.8
	l-1.3-1.8l-0.6-0.8l-1.5-2l-1.8-3.1l-2.5-3.3l-0.1-0.2l-0.7-0.4l-1.3,0.6l0-0.1l-1.9,0.5l-0.8-0.1l-1.6-1.1l-1.3-3l-0.4-0.9l-1-2.3
	l0-0.1l-2.3-8.7l-1.8-3.4l1-2.5l3.2-1.5l2.3-2.4l0.4-0.5l0.9-2.4l0.3-0.5l0.7-1.2l0.4-0.3l1.2-1.1l2.3-0.8l3.8-0.2l1.3-0.3l2.5-1.2
	l2.1-1.5l1.4-1l1.1-1l2.4-3.5l1.5-3.7l0.2-2.2l0-1.6l0-2.4l-0.8-2.9l2.4-1l0.1,0.1l2.7,2.1l1.2,2.3l1.9,1.8l2.7,0.5l1.5,1.3l1.1,1.4
	l1.2,2.2l-0.1,1.4l-0.4,0.4l-0.1,1.1l-0.3,2.1v1.3l0.1,1.7l0.2,1l0.7,0.4l0.5,0.8l0.9,0.9l0.7,0.8l0.9,0.9l0.9,0.8l0.6,0.6l0.1,0.6
	l-0.3,1l-0.5,0.4l-0.5,0.4l-0.5,1l-0.1,1.1v0.6l0.8,0.9l0.6,0.6l0.8,1.1l0.6,0.8l0.7,0.8l0.7,0.6l1,1.2l1,0.8l0.9,0.8l1.3,1.2
	l0.7,0.4l-1.3,1.2l-0.8,1.5l-0.4,1.8l0.1,3.3l-0.2,2.5l-0.3,3.5l0.1,1.6v1.8l0.9,1.2l1.6,1.2l1.6,1.9l1.7,0.6L202.6,316z"/>
<path id="Pulw" class="st2" d="M249.8,273.7l-0.8-0.3l-0.5-0.9l-0.3-0.4l-0.9-0.4l-0.7-0.4l-0.7-0.8l-1.3-0.8l-0.5-0.6l-0.4-0.5
	l-1-0.5l-1.2,0.2l-1.1,0.1l-0.9,0.6l-0.5,1l-0.7,0.5l-0.9,0.4l-1.4,1.1l-0.9,0.4h-1.1h-0.9l-0.8-0.6l-0.4-1l0.5-0.4l0.5-0.4
	l-0.8-0.8l-0.7-0.5l-1.1-0.4l-0.9-0.6h-0.8l-0.7-0.1l-0.6-0.2l-0.5-1.2l0.3-1.3l0.7-1.2l0.3-0.9l0.6-1.4l0.8-1.3l0.9-0.5l0.8-1
	l0.7-1.3l0.4-1.3l0.1-1.3l0.1-0.9v-1.1l-0.1-1.3l0.1-1.1l1,0.3l1-0.5l0.9-0.4h1.9l0.9-0.4l1.3-0.6l0.6-1.3l1.1-1.4l1.3-1l0.7-0.6
	l1.2-0.9l1.5-1l1.5-1.3l0.5-0.5l0.7-0.3l1.2-0.2l0.9,0.5l0.6,0.2l0.6,0.4l0.7,0.6l1.4,0.2l0.5-0.1l0.9-0.4l0.9-0.2l0.4,1l0.6,1.1
	l0.7,0.4l0.6,0.5l1,0.8l1.1,0.4l1.1,0.2h0.7l1.1,0.6l0.3,0.4l0,1l0.1,1l0.4,0.5l0.3,1l0.3,1l-1,3.4l-0.5,6.5l0,0.4l-0.5,0.5
	l-0.5,0.8l-0.7,0.9l-0.5,1.1l-0.5,1l-0.6,1.2l-0.9,0.6l-1.3,1.1l-0.7,0.5l-0.7,0.9l-0.5,0.4h-0.9l-1.3,0.2l-1,0.9l-0.7,0.5l-0.7,0.3
	l-0.6,0.3l-0.6,0.9L249.8,273.7z"/>
<path id="Rajouri" class="st2" d="M206.9,317.9l-0.3,1.4l-1,0.5l-0.8,1l-0.1,0.6l0.8,1l1,0.1h1.6h0.9l1.4,0.5l0.9,0.8l0.5,2
	l-0.2,2.4l0.4,1.6l0.6,1.3l-0.1,1.5l-1.1,1.1l-1.2,0.5h-1.5v1.4l1.2,1.3l0.4,1.9l0.5,1.1v1.1l-1,1v1l0.7,1.3h0.5l1.1,1.3l0.5,0.9
	v2.5l-0.3,3.1l0.2,1.3l-0.9,1l-1.1,0.3l-1.7-0.4l-0.9-0.9l-1.1-0.8l-0.6,0.5l-0.8,0.9l-0.7-0.3l-1.6-0.3l-0.8-0.6l-0.6,1.9l-0.8,0.3
	l-2.1,0.1l-1.7,0.6l0.3,1.6h0.8l1.6,0.6h1.8l2.9,0.3h0.8l0.9,1.1l0.3,1l-0.4,1.5l-0.6,1.9l1.3,1l0.3,0.9l-0.3,1.5l-1.6,0.6l-1,0.1
	l-0.8,0.4l-1.4,0.4l-1.5,0.1l-0.3,1.4l-0.1,1.1l0.5,1.6l0.5,2.3l-0.6,0.6l-0.3,3.6l-0.9,0.1l-1.1-0.5l-0.6-1.3l-0.8-0.8l-1.6-0.1
	l-2.2-0.5h-1.6l-1.5,0.9l-1.1,0.8l-0.8,1.1l-0.9,1.1l-1.1,0.9l-1.3,0.5l-1.1-1.1L182,380l-0.1-2.9l-0.2-0.4l-1.1-1.2l-1.1-0.4
	l-1.8-0.1l-2.3-1.6l-2.7-0.7l-1.2,0.2l-2,0.3l-0.4,0.2l-1.1,0l-0.6-0.5l-0.8-3.8l-1.4-3.8l-1.8-2.4l-0.8-1l-0.4-0.2l-3.1-3.7l-1.1-1
	l-1.6-1l-2.5-0.7l-2.1-0.2l-0.7-0.1l-0.8-0.6l-0.4-0.6l-0.3-2.6l0-2.5l0.2-1.4l0.1-0.1l0.6-1l0.4-0.5l1.1-0.3l1.1,0l1.6,0.6l0.3,0
	l1,0l0.9-0.3l0.2-0.1l1.2-0.9l1.2-1.3l0.2-0.6l4.6-7.4l0.2-0.2l0.1-0.1l1.4-4.6l-0.1-0.9l-0.4-1.4l-0.1-3l1.6-2l0.7-2.2l1.3-2.8
	l1-1.8l-1.3-0.9l0-2l-1.1-0.7l-0.3-1.2l0.4-1.8l0.6-1.3l1.6,0.1l1.5,0.9l1.8,0.1l0.9-0.3l1.6-0.3l0.9-1l0.8-1.3l1-1l2-0.3l2.8-0.1
	h2.2l1.8,1.8l0.8,0.7l1.7,1.9l1.4,1.9l1,1.5l1.3,1l1.9,2.4l0.8,1.8l0.9,1.8h1.7l0.4-1.5l1.3-1l1.9-1.3l0.8,0.6l1.1,1.3H206.9z"/>
<path id="Ramban" class="st2" d="M270.8,365.1l-1-0.3l-0.8-0.2l-1.2-0.3l-0.7-0.4l-0.6-0.3l-0.3-0.6l-0.6-0.1l-0.5-0.5l-0.9-0.5
	l-1-1.4l-0.8-1.7l-1.9-1.2l-1.6-1.2h-1.4l-1.8-0.7l-1.2-1l-1.3-0.1l-1.3-1.2l-0.5-1.2l-1.3-0.8h-2l-0.6-1l-1.2-0.8l-1.7-0.8l0.8-0.7
	l1.3-1.3l0.8-1.1l0.4-1.2l0.2-1.1l0.9-1.4l0.5-1.7l1-1.1l0.2-1.9v-1.7l-1.3-0.8l-1.2-1.1l-0.8-1.4l-1.4-1l-0.8-0.8l-0.8-1.4
	l-1.3-0.5l-0.1-0.8l-0.2-1.7l0.8-0.2l1.1-1l0.8-0.7l-0.2-1.2l-1.1-1l-0.4-1.4l0.1-0.4l0.2-0.7l0.4-1.7l2.3-0.2l2.7-0.1l2.4-0.2
	l0.9-0.3l0.3-0.4l-0.3-1l-0.3-0.7l-0.7-0.5l-0.7-0.7l-0.8-0.8l-0.4-0.9l0.1-1.1l0.4-0.5l0.9-0.8l0.8-0.8l0.5-1.1l0.7-0.9l0.2-1.2
	h0.4l0.6,0.5l-0.1,1.1l-0.1,1v1l0.1,0.9l0.4,0.4l0.3,1l0.5,0.1l0.2,0.4l0.4,0.7l0.4,0.5l0.3,0.4l0.5,0.1l0.5,0.7l0.4,0.6l1.3-0.3
	l0.6,0.1l1.1,1.2l2.5,1.5l1.3,1.5l1.2,1.6l1.3,2.2l1.6,1.5l0.7,3.1l-0.3,1v2.4l0.1,1.2l0.6,2.4l0.2,1.6l0.4,1.5l0.9,1.2l0.9,1.9
	l0.3,2.2v1.9l0.1,1.9l-0.4,2.1l-0.3,2.5v2.2l-0.4,2.7l-0.4,0.4l-0.8,2.2l-0.2,1.3l-0.1,2.6L270.8,365.1z"/>
<path id="Reasi" class="st2" d="M244.5,348.7l-0.5,1.1l-0.4,1.1v1.1l-0.6,0.8v1.1l-0.1,1.4v0.6l0.1,1.2l-0.8,1.1v1.1l1.4-0.2
	l0.9,0.2l0.7,0.5l1.1,0.3l0.7,1l0.4,1v1.2l0.1,0.9l-0.7,0.3v1.3l-0.9,0.4h-1.1l-0.9,0.4l-0.9,1.6l-0.4,0.6l-0.4,1.3l-0.6,1.4
	l-0.3,0.9l-0.7,0.9l-0.7,1.2l-0.5,1.7l-1.1,0.6l-0.4,0.9l-0.1,1.4l0.4,1.1l0.3,0.6l-0.5,1v1.3v1.2l0.3,1.2l0.8,2l-1.1,0.9l-0.2,1.9
	l-0.3,1.8l-1,0.8l-1,0.1l-0.4-1.3l-0.7-0.9l-0.6-1.1l-0.4-0.8l-1.4-0.3l-0.3-1.3l-0.2-1.5l-1.6-1.1l-1.1-0.1l-0.8,0.4l-0.2,1.3
	l0.1,1.9l-0.8,0.4v1.4h-1.6h-1.6l-0.8-0.6l-0.7-0.4l-1-0.3l-0.8-0.8l-0.3-1.4l-0.2-1.5l0.4-1.6l1.3-0.7l0.7-0.9l0.5-2.1l-0.7-1.5
	l-1.1-1.5l-1.7-2.5l-1.2-1h-1.7l-1.6,0.2l-0.8-0.8l-1-0.9l-1.2-0.5l-0.7,0.4l-0.4,2l0.3,1.1l-0.8,1.1l-0.8-0.6l-1.1-1.9l-0.8,1.3
	l-0.8,1.3l-1.1,1.6l0.8,1l1,1.6l0.3,1.6l-0.7,1.5l-0.5,0.8l-1,0.1l-0.8-0.5l-1-2.3l-0.8-1.5l-0.6-1.6l-0.7-2.1l-0.8-0.8l-0.5-2.3
	l-0.5-1.6l0.1-1.1l0.3-1.4l1.5-0.1l1.4-0.4l0.8-0.4l1-0.1l1.6-0.6l0.3-1.5l-0.3-0.9l-1.3-1l0.6-1.9l0.4-1.5l-0.3-1l-0.9-1.1h-0.8
	l-2.9-0.3h-1.8l-1.6-0.6h-0.8l-0.3-1.6l1.7-0.6l2.1-0.1l0.8-0.3l0.6-1.9l0.8,0.6l1.6,0.3l0.7,0.3l0.8-0.9l0.6-0.5l1.1,0.8l0.9,0.9
	l1.7,0.4l1.1-0.3l0.9-1l-0.2-1.3l0.3-3.1v-2.5l-0.5-0.9l-1.1-1.3h-0.5l-0.7-1.3v-1l1-1v-1.1l-0.5-1.1l-0.4-1.9l-1.2-1.3v-1.4h1.5
	l1.2-0.5l1.1-1.1l0.1-1.5l-0.6-1.3l-0.4-1.6l0.2-2.4l-0.5-2l-0.9-0.8l-1.4-0.5H208h-1.6l-1-0.1l-0.8-1l0.1-0.6l0.8-1l1-0.5l0.3-1.4
	l0.7-1.6l1.1-0.7h1.2h1.6l1.8-0.6l0.4-0.4l0.5-0.4h0.6l0.9,0.4l0.5,0.2l0.7,0.6l0.5,0l0.7,1.3l1,0.7h1.3l1.2,0.6l0.3,1l0.4,0.9
	l1.8,0.7l1.3-0.1l1.2-0.3l1-0.7h1.2h1.8h0.8l0.7-0.1l0.7-0.6l1.5-0.3l0.7-1.2h0.7l0.7,0.1l1.2,0.1l0.6,0.3h0.5l1,0.4l0.4,0.7l0.5,0
	l0.3,0.4l0.3,0.2l0.9,0.2l0.5,0.1l0.7,0.1l0.6,0l-0.1,0.4l0.4,1.4l1.1,1l0.2,1.2l-0.8,0.7l-1.1,1l-0.8,0.2l0.2,1.7l0.1,0.8l1.3,0.5
	l0.8,1.4l0.8,0.8l1.4,1l0.8,1.4l1.2,1.1l1.3,0.8v1.7l-0.2,1.9l-1,1.1l-0.5,1.7l-0.9,1.4l-0.2,1.1l-0.4,1.2l-0.8,1.1l-1.3,1.3
	L244.5,348.7z"/>
<path id="Samba" class="st2" d="M233.3,445.8l-0.5-0.3l-0.5-1.1L232,444l0,0l0,0l-0.3-0.3l-0.2-0.2L230,443l-0.5-0.4l-1-0.2l-1-0.2
	l1-2.5l1.5-1.3l1.1-1.9l1.9-1.9l1-1.8l1.2-2.2l1.1-2.4l0.1-1.9l-1.2-1.5l-1.6-0.4l-1.5-1.3l-0.4-1.8l0.4-1.8l1.5-1.5l1.3-1l0.9-1.2
	l0.9-1l1.1-1.2l1.1-1.8l0.4-2.2l0.4-1.6l0.6-0.9l1.6,0.3l2.7,1.5l0.8,0.6l1.1,1.5l2.2,0.3l1.5,0.3l1.7,1.1l-0.2,1.2l0.3,0.8l0.6,1.4
	l1.4,0.1l0.4,1.1l0.7,0.4l1.2,1.6l1.3,1.4l0.5,0.8l1.6,0.4l2.6,0.5l2.1,0.2l1.5,0.3l1.3,0.3l0.9,0.7l1.1,0.9l1.1,0.1l0.8,0.2
	l0.6,1.4l0.9,0.9l0.9,0.7l0.6,1.4l0.1,0.7l0.1,1.3l-1.1,0.4l-0.4,0.7H272l-1.7,0.1L269,432h-1.4l-0.8-0.8l-0.6,0.4l-0.5,0.3
	l-0.6,0.5l-0.7,0.8l-1.9-0.2h-1.3l-0.5,0.9l-0.5,0.4l-0.4,0.9l-0.5,1l-0.5,0.9l-0.7,1.2l-0.3,0.6h-0.6l-1,0.2l-0.9,1l-1,0.1
	l-0.3,1.5l-0.9,1.3l-1.1,0.7l-1,0.5l-1-0.4l-0.8,0.1l-0.1,0l-2.3-1.3l-0.6,0l-0.8,0.8l-0.9,1.2l-0.5,0.9l-0.4,0.7l-0.1,0.5l-1.1,1.2
	l-0.8,0.2l-0.6,0l-0.9-0.6l-1.4-0.2l-0.5-0.8l-0.9-0.9l-0.9-0.1l-2.3,0.3L233.3,445.8z"/>
<path id="Shpiyan" class="st2" d="M201.6,290.3l0.3-1.5l0.7-1.2l1.1-1.3l1.1-1l1.2-1.2l0.5-1l1.2-0.5l1.3-1.2l0.5-1.1l0.5-0.8
	l0.4-1.1l1-0.9l0.6-0.6l0.6-0.4l1.5,0.4l0.9-0.3h1l0.1-0.8l1.1-0.1l1.5,0.1h0.5l0.8-0.7v-0.7l1.1-0.8l0.7-0.6l0.7-0.4l1-0.8l0.1-0.9
	l0.6-1.2l0.2-1l0.2-0.9l0.3-0.8l0.3-0.7l0.6-0.5l0.5,1.2l0.6,0.2l0.7,0.1h0.8l0.9,0.6l1.1,0.4l0.7,0.5l0.8,0.8l-0.5,0.4l-0.5,0.4
	l0.4,1l0.8,0.6h0.9h1.1l0.9-0.4l1.4-1.1l0.9-0.4l0.7-0.5l0.5-1l0.9-0.6l1.1-0.1l1.2-0.2l1,0.5l0.4,0.5l0.5,0.6l1.3,0.8l0.7,0.8
	l0.7,0.4l0.9,0.4l0.3,0.4l0.5,0.9l0.8,0.3l-0.6,0.9l-0.7,0.9l-0.5,1l-0.5,1.3l-0.4,0.6l-0.6,0.7l-0.5,0.7l-0.5,0.2l-0.1,1.8l0.1,1.4
	v1.1l-0.3,0.8l-0.6,0.7l-1.1-0.3l-0.9-0.1l-0.9-0.8l-0.5-0.2h-1.3v1.1l-0.9,0.3l-0.7-0.2l-0.5,0.3v1.6l0.1,1.1l0.7,0.4l0.2,1.1v1.4
	l-0.7,0.9l-0.5,0.7l-1.3,0.3l-0.7,0.1l-1.1-0.1l-0.6-0.1l-0.1,1.3l-0.7,0.4l-0.1,0.7v0.6l-0.9,0.6l-1.2,1.1l-5.7-0.7l-1.2-1
	l-1.2,0.5l-1.4-0.2l-0.7-1.1l-0.1-1.4l-0.9-1.2l-0.9,0.6l-0.7,0.9l-1.2,0.1l-0.7-0.9l-0.5-0.4l-0.6-0.8h-1h-1.3l-0.3-0.4l-0.4-0.7
	l-1-0.5l-1.1,0.4l-1.2,0.4l-1.2,0.5l-0.7,0.2l-0.9,0.1h-1.2l-0.8-0.3l-0.6-0.9l-0.8-0.4L201.6,290.3z"/>
<path id="Srinagar" class="st2" d="M256.1,240.6l-0.9,0.2l-0.9,0.4l-0.5,0.1l-1.4-0.2l-0.7-0.6l-0.6-0.4l-0.6-0.2l-0.9-0.5l-1.2,0.2
	l-0.7,0.3l-0.5,0.5l-1.5,1.3l-1.5,1l-1.2,0.9l-0.7,0.6l-1.3,1l-1.1,1.4l-0.6,1.3l-1.3,0.6l-0.9,0.4H235l-0.9,0.4l-1,0.5l-1-0.3
	l-0.1,0h-0.8l-0.4-1l-0.7-0.3l-0.9-0.3l-0.9-0.3h-1.1l-0.8,0.8l-0.3,0.8l-0.6,0.3h-1.1l-1.1-0.6l-0.9-0.8l-0.8-0.7l-0.7,0.4
	l-0.9,0.4l-0.5,0.4l-1.1-0.1l-0.1-4.1l0.2-1.2l1.2-0.4l-0.3-1l-0.4-1l-1.1-0.6l-0.7-1l-0.8-1.5l-1.6-0.3l-1.6-1.6l-1.3-1.9l-0.9-1.6
	l-0.5-0.5l0.3-0.4l0.4-0.7l0.7-0.2l0.6-0.4l0.7-0.4l0.7-0.4l1.1-0.2l1.1-0.2h1.5l1.1,0.1l0.8,0.6l1,0.2l0.7,0.8l1.1,1.1l1,0.6h0.8
	l0.8-0.4l0.8-0.4l0.2-1l0.2-0.9l0.5-1.2l0.3-1.3l1.2-1.6l1.6-1.1l1.8-0.2h2.6l2,0.5l0.7,1.6l2.7,0.7l3,0.5l2-0.5l2.4-1.6l1.8,0.5
	l0.9,1.3l1.2,1.8l1.2,0.9l2.4,0.2l0.9-0.8l0.4,1.3l-0.3,1l-0.8,0.2l-1-0.2l-0.7,1l-0.2,0.8l0.7,1.3l0.7,0.8l0.6,0.8l0.4,0.6l0.5,1.3
	l0.4,1.2l0.3,0.3L256.1,240.6z"/>
<path id="Udhampur" class="st2" d="M239,387.5l-0.8-2l-0.3-1.2v-1.2v-1.3l0.5-1l-0.3-0.6l-0.4-1.1l0.1-1.4l0.4-0.9l1.1-0.6l0.5-1.7
	l0.7-1.2l0.7-0.9l0.3-0.9l0.6-1.4l0.4-1.3l0.4-0.6l0.9-1.6l0.9-0.4h1.1l0.9-0.4v-1.3l0.7-0.3l-0.1-0.9V362l-0.4-1l-0.7-1l-1.1-0.3
	l-0.7-0.5l-0.9-0.2l-1.4,0.2v-1.1l0.8-1.1l-0.1-1.2v-0.6l0.1-1.4v-1.1l0.6-0.8v-1.1l0.4-1.1l0.5-1.1l1.7,0.8l1.2,0.8l0.6,1h2
	l1.3,0.8l0.5,1.2l1.3,1.2l1.3,0.1l1.2,1l1.8,0.7h1.4l1.6,1.2l1.9,1.2l0.8,1.7l1,1.4l0.9,0.5l0.5,0.5l0.6,0.1l0.3,0.6l0.6,0.3
	l0.7,0.4l1.2,0.3l0.8,0.2l1,0.3l1,1.5l1.8,1.2l1.2,1.5l1.8-0.1l1.8,1.2l0.8,0.7l1.2,0.1l1.6,0.3l0.3,6.6l0.7,2.1l0.7,1.2l1.1,1.2
	l1.3,0.6l0.8,1.9h1.1h1.1l1.3-1.2l1.5-0.1l0.6-0.9l1.5-0.1l1.1,0.6l1.1,0.4l1.2,0.6l1.2,0.6l1.5,0.9l0.8,0.6l1,0.6h1l0.9,0.6
	l1.2,0.6l0.6,0.7l0.7,1.3l-0.2,1.8l0.2,1.8h0.9l0.1,1.5l-0.1,0.9l-0.6,0.4l-0.1,1.6l-0.1,3.1l0.1,1.4v2l-0.3,1l-0.5,0.7l-0.6,0.7
	l-1.1,0.2l-1.5,0.1l-2.1,0.1l0.1,0.6l-0.7-0.1l-0.9,0.1l-0.2,0.8l-1.3,0.3l-1-0.4l-0.5-0.5l-0.7-1.1h-1.9l-2,0.1l-0.5,0.7l-0.9,0.2
	l-0.6,0.6l-0.9,0.7l-0.7,1l0.1,1.3v1.3l-0.1,2.7l0.1,1.5l0.1,2l-0.3,0.9l-0.5,0.9l-1.3-0.2l-2.2,0.1l-1.8,0.2l-1.8,0.1l-0.5-1.3
	l-0.6-0.8l-0.6-0.6l-0.8-0.1l-0.4,0.2l-0.1,1.3l-0.3,1l-0.4,0.9l-1.1,0.1l-1-0.4l-1.3-0.2l-1.2,0.7l-0.1,1.4l-0.3,0.9l-0.8-0.2
	l-1.1-0.1l-1.1-0.9l-0.9-0.7l-1.3-0.3l-1.5-0.3l-2.1-0.2l-2.6-0.5l-1.6-0.4l-0.5-0.8l-1.3-1.4l-1.2-1.6l-0.7-0.4l-0.4-1.1l-1.4-0.1
	l-0.6-1.4l-0.3-0.8l0.2-1.2l1.4-0.5l0.7-0.8l1.1-0.7l0.9-0.4l1-0.8l0.5-1.1l-0.4-1.2l-1.8-1.6l-1-1.3l-0.5-2l-1-0.9l-1.4-1.2
	l-1.9-1.3l-1.3-1.2l-1.7-1.3l-1.5-1.4l-0.8-0.8l-0.8-1.1l-1-1.2l-0.3-0.6l-0.7-1.2l-1.4-0.5L239,387.5z"/>
<text transform="matrix(1.782886e-02 -0.9998 0.9998 1.782886e-02 273.1386 307.4349)" class="st3 st4">Anantnag</text>
<text transform="matrix(0.6604 -0.7509 0.7509 0.6604 197.9034 278.4536)" class="st3 st5">Badgam</text>
<text transform="matrix(1 0 0 1 208.8772 185.5341)" class="st3 st6">Bandipore</text>
<text transform="matrix(1 0 0 1 153.1068 236.663)" class="st3 st6">Baramulla</text>
<text transform="matrix(1 0 0 1 303.9221 377.4201)" class="st3 st6">Doda</text>
<text transform="matrix(1 0 0 1 220.0264 219.4774)" class="st3 st6">Ganderbal</text>
<text transform="matrix(0.7131 0.7011 -0.7011 0.7131 206.4926 386.8893)" class="st3 st6">Jammu</text>
<text transform="matrix(1 0 0 1 362.4211 280.6071)" class="st3 st6">Kargil</text>
<text transform="matrix(1 0 0 1 278.8965 436.6686)" class="st3 st6">Kathua</text>
<text transform="matrix(1 0 0 1 314.9061 324.5931)" class="st3 st6">Kishtwar</text>
<text transform="matrix(1 0 0 1 207.7438 307.4355)" class="st3 st6">Kulgam</text>
<text transform="matrix(1 0 0 1 145.0195 192.1673)" class="st3 st6">Kupwara</text>
<text transform="matrix(1 0 0 1 483.0029 262.2657)" class="st3 st6">Leh (Ladakh)</text>
<text transform="matrix(1 0 0 1 153.1068 293.986)" class="st3 st6">Poonch</text>
<text transform="matrix(1 0 0 1 237.7083 262.2657)" class="st3 st5">Pulw.</text>
<text transform="matrix(1 0 0 1 167.9649 345.2921)" class="st3 st6">Rajouri</text>
<text transform="matrix(-5.329054e-02 -0.9986 0.9986 -5.329054e-02 265.084 353.8601)" class="st3 st5">Ramban</text>
<text transform="matrix(1 0 0 1 212.9135 358.7918)" class="st3 st6">Reasi</text>
<text transform="matrix(1 0 0 1 236.6008 429.2396)" class="st3 st5">Samba</text>
<text transform="matrix(0.9566 -0.2914 0.2914 0.9566 209.9323 287.8049)" class="st3 st7">Shupiyan</text>
<text transform="matrix(1 0 0 1 217.9133 238.0337)" class="st3 st7">Srinagar</text>
<text transform="matrix(1 0 0 1 253.3587 396.4608)" class="st3 st6">Udhampur</text>
<path class="st0" d="z"/>
</svg>
