<?xml version="1.0" encoding="utf-8"?>
<!-- Generator: Adobe Illustrator 25.1.0, SVG Export Plug-In . SVG Version: 6.00 Build 0)  -->
<svg version="1.1" id="Kerala" xmlns="http://www.w3.org/2000/svg" xmlns:xlink="http://www.w3.org/1999/xlink" x="0px" y="0px"
	 viewBox="0 0 800 534" style="enable-background:new 0 0 800 534;" xml:space="preserve">
<style type="text/css">
	.st0{stroke:#000000;stroke-width:0.4;}
	.st1{fill:none;}
</style>
<path id="Alappuzha" class="st0" d="M423.7,363.6l0.1,0.1l0.1,0.8l0,1.5l0.1,0.5l0.8,0.1l0.4,0.3l0.5,0l0.1,0.3l0,0.4l-0.1,0.8
	l0,0.8l-0.1,0.3l0,0.6l-0.1,0.4l-0.4,0.8l-0.2,1.5l0.7,0.3l0.4,0.3l-0.4,0.7l0.2,0.1l0.1,0.7l-0.2,0.3l0.1,1.2l0.4,0.2l-0.2,0.6
	l0.2,0.6l-0.2,0.5v0.5l-0.2,0l0.1,0.5l0.4,0.4l0.4,0.1l0,0.2l-0.6,0l-0.1,0.9l-1.2,0.6l-0.4,0l-0.8,1.2l-0.1,0.5l0.3,0.3l0.6,0
	l0.9,0.5l0.4,0l0.6-0.3l1,0.1l0.3,0.1l0.2,0.3l0.9-0.3l0.3-0.2l0-1l0.3-0.2l0.1-0.5l-0.4-0.1l-0.2-0.3l0.3-0.2l0.2,0.3l0.3-0.3
	l0.6-0.4l0.6,0.6l0.4-0.1l0.7,0l0.3,0.1l0.3,0.3l1.4,0.5l0.3,0l0.2-0.2h0.7l0.1,0.2l-0.1,0.4l0.2,0.5l-0.4,0.5l0.6,1.3l0.5,0.8v0.9
	l0.1,0.6l0.3,0.2l0.3,0l0.3,0.1l0.2-0.2l0.3-0.1l0.3-0.5l0.3,0.4l0.2-0.4l0.5,0l0,0.8l-0.1,0.4l-0.7,0.3l-0.3,1l-1,0.2l-0.5,0.9
	l-0.2,0.6l0.3,1.1l-0.3,0.5l-1,0.4l0.2,1.2l0,0.6l-0.1,0.3l0.2,0.6l0.2,0.1l0-0.5l0.2,0l0.3,0.7l1,0.2l0.7,1.3l0.5,0.7l0.1,0.4
	l-0.1,0.4l-0.4-0.2l-0.2,0l-0.2,0.6l0.1,0.8l-0.1,0.3l-0.4,0.2l-0.8,0l-0.9,0.1l-0.2,0.3l-0.4,1l-0.8,0.1l-0.2,0.2l-0.1,0.3
	l-0.3,0.2l-1.2-0.1l-0.4,0.1l-0.1,0.7l-0.2,0.2l-0.1,0.4l-0.6-0.1l-0.5,0.6l-0.8,0.1l-0.5-0.3l-0.3-1.2l-0.3-0.4l0-0.9l-0.5,0.1
	l-1.6-0.1l-0.2,0.3l-0.2,0.1l-0.1,0.4l0.1,0.6l-0.4-0.2h-0.3l-0.8,0.1l-0.4-1.3l0.3-0.2l0.6,0l0.1,0.4l0.3,0l0.1-1l-0.1-0.8
	l-0.2-0.5l-0.1-0.7l0.1-0.7l-0.3,0l0.1,0.8l0.2,0.3l-0.1,0.7l-0.2,0.2l0,0.3l-0.2,0l-0.2-0.4l-0.1-1.1l-0.3-0.5l-0.2-0.1l-0.4-0.9
	l-0.1-0.6l-0.3-0.5l-0.4-1.1l-0.3-1.9l0.1-0.8l-0.1-0.5l-0.6,0.1l-0.2-0.3l0-0.3l-0.4-0.9l-0.2,0.4l0.4,0.9l0.4,0.7l0.1,0.6l0.3,0.7
	l0,0.4l0.2,0.3l0.1,1.3l0.5,0.6l0,0.2l0.3,0.3l0,0.3l0.4,1l0,0.3l-0.2,0l0.1,0.4l0.4-0.1l0.3,0.8l0.2,0.8l-0.5,0.1l-0.2-0.9
	l-0.4-0.9l-0.1-0.3l-0.5-1.4l-0.2-0.7l-0.1-0.2l-0.4-1.3v-0.2l-0.4-1.1L421,393l-0.6-1.6l-0.5-1.3v-0.2l-0.8-2.1l-0.1-0.5l-0.3-0.8
	l-0.5-1.6l-0.1-0.3l-0.6-2.1l-0.5-1.4l-0.4-1l-0.1-0.4l-0.8-2l-0.4-1.7l-0.5-1.5l-0.4-2l0-0.4l-0.4-1.2l-0.1-0.8l-0.1-0.5l-0.3-1.7
	l-0.1-0.2l0-0.8l-0.2-0.9l-0.4-2.2l0-0.7l-0.1-0.3l-0.1-0.9l-0.1-0.1l-0.2-1.6l-0.2-2.2l-0.1-0.2l-0.1-1.2l-0.1-0.2l-0.1-1.5
	l-0.2-1.4l0-1.3l-0.1-1.1v-0.6l-0.3-3l0-0.8l-0.2-1.9l0-1.2l-0.1-0.2l0-1.2l-0.1-0.6l-0.2-1.9l-0.2-1.3l-0.1-1.2l-0.1-0.3l0-0.6
	l-0.2-0.8v-0.3l0.2-0.7l0.1-1l0.6-0.1l0.1-0.1l-0.2,0.4l0.1,0.7l0.3-0.1l0.1-0.3h0.3l0-0.8l-0.1-0.4l0.5,0l0.1,0.6l0.2-0.3L412,333
	l0.2-0.3l-0.4-0.3l-0.1-0.9l0-1.6l-0.1-0.2l0.2-0.4l0.4,0.5l0.8,0.6l0.4,0.2l-0.2,0.8v0.6l0.1,1.3l-0.1,0.3l0.1,0.5l0.1,0.1l0.1,0.5
	l-0.1,0.2l0,0.7l0.1,0.3l0,1.2l0.3,0.2v1.2l0.2,0.6l0.3,0.3l0.2,0.5l-0.1,0.5l0.2,0.7l0.3,0.3l0,0.7l0.1,0.4l-0.1,0.7l0,1.2l0.1,0.3
	l0.2,0.2l0,1.1l0.3,0l0.1-0.5v-0.6l-0.3-0.8l-0.1-0.7l0.1-0.3l0-0.6l-0.2-0.5l-0.2-0.2l0-0.5l-0.3-0.6l-0.1-0.4l0.1-0.4l0.1-0.8
	l-0.5-1.5l0-0.4l0.4-0.4l-0.2-0.6V336l-0.2-0.7l-0.1-0.3l-0.2,0.3l-0.4-0.4l0.1-0.6l-0.2-0.4l-0.1-0.3l0.1-0.4l0-0.7l0.1-0.4
	l-0.1-0.3l0-0.8l0.5-0.2l0.3,0l0.3,0.6l0.2,0.1l0.2,0.8v1.4l0.2,0.6l0.4,0.4l0,0.2l0.4,0.5l0.5,0.3h0.2l0.2-0.3l0.2,0.3v0.3
	l-0.3,0.6l-0.3,0.4l-0.2,0.6l0,0.4l0.1,0.7l0.5,1.2l0.1,0.9l-0.1,0.7l0.2,1l0,0.7l0.2,0.1l0,0.5l-0.1,0.6l-0.2,0.2l0,0.7l0.1,0.2
	l-0.1,0.8l-0.1,0.2l-0.1,0.5l-0.2,0.2l0.3,0.4l0,0.4l0.2,0.1l0.3,0.6l0.6,0.1l0.2,0.4l0.5-0.1l0.2,0.4l-0.1,0.4l0,0.9l-0.1,0.3
	l-0.6,0.5l-0.2,1.3l0.1,0.5l-0.4,1.1l-0.4,0.6l-0.2,0.4l0,0.3l-0.1,0.6l-0.1,0.4l0.1,0.4l0,0.5l0.2,0.5l-0.2,0.4l-0.4,0.2l-0.1,0.2
	v0.9l-0.1,0.1v0.8l-0.3,1.4l0,0.6l0.3,0.7l0.2,0.1l0.6,0.2l0.4-0.1l0.6,0.6l0.1,0l0-0.9l2.9-0.1h0.7l0.4,0.9l-0.1,0.3l0.3,0.2v-1.5
	L423.7,363.6z M422.9,361.9l0.1,1.1l0.5,0.4l-1.8,0.1l0-2.2L422.9,361.9z M421.6,361.4v1.1l0,1.1l-2,0.1l-0.1-1.4l1.7-0.8
	L421.6,361.4z M419.5,362.3l0,1.3l-1.5,0l-0.1-0.6L419.5,362.3z M418.1,354.8l0.1,0.3l-0.2,0.4l-0.2-0.2l0.1-0.3L418.1,354.8z
	 M413.7,335.3l0.3,0.4l0.1,0.4l-0.1,0.9l-0.2,0v-1.3L413.7,335.3z M415.6,330.6l0,0.3l0.2,0.6l0.2,0.1l0.1,0.3l0.3,0.1l0.2,0.3
	l0.2,0l0.1,0.5v0.6l0.3,0.9l-0.2,0.4l-0.6,0l-0.5-0.4l-0.3-0.4l0.2-0.4l0-1.4l-0.2-0.3l0-0.6l-0.1-0.1L415.6,330.6z M420.2,360.2
	l0.1,0.5l0.5,0.2l0.1,0.6L420,362l-0.9,0.3l-1.2,0.6l-0.1-0.8l0.6-0.4l1-0.6l0-0.5L420.2,360.2z"/>
<path id="Ernakulam" class="st0" d="M434.9,333.2l-0.6-0.2l-0.8,0.8l0.4,0.6l-0.3,0.2l-0.3,0l-0.4-0.4l-0.6-0.2l-0.7,0.4l-0.2,0
	l-0.1,0.9l0.1,0.5l-0.1,0.4l-0.4,0.3l-0.4-0.3h-0.2l-0.5,0.7l0,0.3l-0.2,0.9l-0.7,0.3l-0.1-0.5l-0.2-0.1l0-0.6l-0.1-0.1l-0.1-0.9
	l-0.5-0.2l-0.8,0l-0.6-2.5l-0.3-0.1l-0.7,0l-0.8,0.5l-0.4-0.1l-0.5,0.4l-1-0.4l-0.5,0.7l-0.3,0.3l-0.3,0.5l-0.9,0.6l-0.6,0.2
	l-0.4,0.1l-0.3-0.1l-0.6-0.4l-0.3-0.4L418,335l0-0.5h0.3l-0.1-0.7l-0.6-0.4l-0.1,0.2l-0.4,0v-0.5l0.6-0.6l-0.1-0.8l-0.4-0.8l0-0.4
	l-0.4-0.8l-0.2-0.9l-0.2-0.5l-0.1-0.4l-0.4-0.9l-0.2-0.2h-0.4l-0.2-0.4l-0.3-0.3h-0.2v0.3l-0.3,0.2l0.2,1l0.4,0.2l-0.1,0.8l0,0.4
	l0.2,0.5l-0.3,0l-0.3-0.4l0.1-0.2l0-0.5l-0.2,0v0.6l0.2,0.4l-0.3,0.2l-0.5-0.6l-0.3-0.1l-0.2-0.8l0.1-0.2l-0.1-0.5l-0.2-0.2
	l-0.1-0.4l0.1-0.3l-0.2-0.4l0-0.4l-0.4-1.1l0.1-0.3l0-0.7l0.4-0.3l-0.2-0.3l-0.2,0.3l-0.2,0.9l-0.1,0.1l0.1,0.4l0.2,0.3l-0.2,0.2
	l-0.6-1.4l-0.1-0.3l-0.5-1.1l-0.3-0.8l-0.8-2.3l0.4-0.9l0-0.4l-0.3-0.7v-0.5l-0.3-0.5l-0.1-0.6l0-0.3l-0.2,0l-0.2-0.3l-0.2,0.6
	l0,0.4l0.2,0.4l0.2,0.9l0,0.5l0.1,0.3l0.1,1l-0.2-0.6l-0.2-0.9l-0.4-1.1l-0.2-0.6l-0.1-0.7l0.2-0.4l0.3-0.4l0.2-0.1l0.3,0.4l0.1-0.2
	l-0.2-0.4l-0.3-0.2l-0.3,0.2l-0.4-1.5l-0.2-0.3l-0.3-1l0.2-0.1l0.1,0.5l0.2,0.5l0.2,0.7l0.1-0.2l0.3,0.1l-0.2,0.3l0.3,0.4v-0.5
	l-0.1-0.3l0.2-0.4l-0.3-0.4l0.6-0.4l0.1-0.4l-0.4,0.1l0-0.8l0.2,0l-0.3-0.6l-0.1-0.1l-0.4,0.3l-0.2-0.4l0.1-0.5l-0.3-0.1l0.1-0.4
	l-0.2-0.4h-0.2l-0.1-0.6l-0.2-0.2l-0.1-0.3h-0.5l-0.2-0.6l0-0.4h-0.2l0.2,1.1l0.2,0.2l0.2,1.2l0.2,0.4l0.4,1.8l-0.2,0.1l-0.4-1v-0.3
	l-0.7-1.1L406,308l0.2,0.1l0.2,0.6l0.3-0.5l-0.2-0.3l0-0.4l-0.1-0.7l-0.3-0.5l-0.3,0l-0.2-0.6l0.2-0.2l-0.1-0.4l-0.3-0.2l-0.1,0.4
	l-0.2,0.3l0,0.4l0.3,0.5v0.4l0.3,1.3l0.2,0.5l-0.4,0.4l0.2,0.9l0.3,0.2l0.1,1.2l0.3,0.3l-0.2-1h0.2l0.1,0.6l0.2,0.6l0,0.4l0.2,0.3
	l0.1,0.4l-0.1,0.4l-0.3,0.1l0-0.7l-0.3-0.2l-0.1,0.8l0.3,0.2l-0.1,0.2l0.6,0.4l0.1,0.7l-0.1,0.4l0.5,0.6l0,0.7l-0.3,0.4l0.3,0.2
	l0,0.7l0.3,0.6l-0.1,1l0.1,0.4l0.2,0.3l-0.1,0.6l0.2,0.2l0.1,0.4l-0.3,0l-0.1-0.2l-0.5,0.2l-0.3-0.2l-0.3-0.3l-0.4-1.7l-0.1-1
	l-0.4-1.9l-0.1-0.1l-0.3-1.5l-0.2-0.9l-0.2-0.1l-0.3-1.6l0-0.3l-0.2-0.6l0-0.3l-0.2-0.9l-0.2-0.5l-0.1-0.8l-0.5-2.5l-0.3-0.8l-0.2-1
	l-0.3-0.7l-0.2-0.9l-0.2-0.4l0-0.7l0.2-0.5h0.4l0.1,0.9l0.3,0.3l0.2,0.4l0.6,0.4v0.4l0.4,1l0.3-0.2l-0.4-0.3l-0.3-1.1L404,303
	l-0.2-0.4l-0.4-0.4l-0.1-0.9l1.2-0.5l0.6-0.1l0.1-0.4l0.2,0l0.3-0.5l0.5,0.3l0.6,0.1l0.3-0.1l0.7,0.4l0.2-0.1l0.6,0.1l0.2,0.1
	l-0.2,0.3l0.1,0.6l0.4,0.1l0.4,0.8l0.1,0.5l1.1-0.3l0.4,0l0.4-0.6l0.2-0.1l0.6,0.4l-0.1-0.6v-0.7l-0.1-0.7l0.1-0.3l1.2-0.3l0.3-0.3
	l0.2-0.3l0.1-1.1l0.1-0.4l0.2-0.2l2-0.7l0.4-0.5l0-0.6l0.1-0.2l0.4,0l0.3-0.2l0-0.4l0.1-0.3l0.4-0.4l0.2-0.6l0.4-0.4l0.5-0.1l0-0.8
	l0.2-0.1l-0.1-0.6l0.1-0.1l1,0.5l0.3-0.2l0.3-0.1l0.7-0.3l0.8,0l0.9,0.4h1.5l0.4,0.4l0.3,0.1l1,0l0.6,0.1l1.1-0.3l0.4,0.1l0.5,0.4
	l0.3,0l0.5-0.2l0.7,0.1l-0.4-1l0.2-0.3l0.6-0.5l0.5,0.3l0.3,0l0.1,0.6l0.3,0.5l0.6,0.5l1,0.2l0.3,0.5l0.2,0.1l1-0.1l0.3-0.2l0.2-0.5
	l0.9,0l0.4,0.2l0.4,0.7l0.9,0.2l0.5,0.2l-0.1,0.5l-0.3,0.5l-0.2,0.5l0,1.1l-0.1,1.1l-0.2,1l-0.1,0.3l-1.1,1.7l-0.4,0.4l-0.6,2.4
	l-0.1,0.4l0.4,0.5l0.7,1.4l0.2,0.1l0.3-0.2l0.5,0l0.2,0.2l1,1.3l0.7,0.8l0.6,0.5l0.5,0.6l0.8,1.1l1.1,0.9l0.5,0.9l0.3,0.3l1.1,1
	l0.6,0l0.2,0.1l0.4,0.8l-0.1,0.4l0.5,0.5l0.3,0.2l0.4,0.1l0.5,0.4l0.4,0.1l0.8,0.8l0.8,0.2l-0.4,0.5l-0.2,0.4l-0.2,0.1l-1-0.5
	l-0.8-0.7l-0.8-0.4l-0.1-0.2l-0.6-0.2l-0.5,0.8l-0.7,1.4l0.4,1.1l0,0.9l-0.4,0.1l0,0.7l-1.2-0.8l-0.3,0.1l-0.9,0.4l-0.4,0.4
	l-0.6-0.6l-0.1,0.2l-0.4-0.2l0.5,1.8l0.1,1l-0.1,0.3l-0.5,0.4l0.1,0.3l-0.4,1.1l-0.4,0.7l-0.2-0.1l-0.3,0.4l0,0.3l0.7,0.6l-0.1,0.5
	l-0.3,0.2l-0.2,0l-0.5-0.4l-0.2-0.6l-0.7-0.1l-0.4,0.2l-0.3,0l-0.3-0.2l-0.3,0.1l-0.3-0.2l-0.5,0.2l-0.3-0.1l-0.4,0.4l-0.1,0.4
	l0.1,0.6l-0.1,0.4l0.1,0.3l0.1,1l0.4,0.6l0,0.3l-0.3,0.6l0,0.8L434.9,333.2z M407.8,317.4l0.2,0.3l0.6,0.4l0,0.5l0.3,1l0.1,1
	l-0.6,0.4l-0.3,0l0-1l-0.2-1v-0.6l-0.1-0.2L407.8,317.4z M410,335.5l-0.2-1.4l-0.2-0.8l0-0.5l-0.2-0.7l0-0.6l-0.2-0.9v-0.3l-0.5-2.8
	l-0.2-1.1l-0.5-1.7l0-0.3l-0.3-0.9l-0.1-0.6l0-0.8l0.4-0.4l0.7-0.1l0.1,0.3l0.4,0.4l0.1,0.6l0,0.5l0.1,0.2l0,0.7l0.1,0.4l0.2,0.3
	l1.1,0.8l0.5,0.2h0.2l0.2,0.2l0.1,0.6l0,1.9l-0.5-0.5l0.2-0.3l-0.1-0.6l-0.5,0.1l0,0.5l-0.8,0.2l-0.3-0.1l-0.2,0.2l-0.2-0.1
	l-0.1-0.6l-0.3-0.2v0.9l0.2,0.6l0.1,0.9l0.1,0.2l0.1,0.9l0.2,0.5l0.4-0.2l0.4-0.4l0-0.5l-0.2-1l-0.2-0.6l0.2,0.1l0.2,0.3l0-0.8
	l0.3,0.2l0.2,0.5l0.2,1.2l0.1,0.6l0.2,0.5l0,0.6l0.2,0.5l-0.1,0.3l-0.4-0.1l-0.4,0.1l0.1,0.6l-0.1,0.1l-0.6,0.1l-0.1,1L410,335.5z
	 M409.1,321.5l0.6,0.1l0.6,0.3l0.7,1.6l0.1,0.5l0.3,0.6l0.3,1.1l-0.4-0.1l-0.7-0.4L410,325l-0.3-0.5l-0.1-0.7l0.1-0.3l-0.1-1.1
	l-0.4-0.4L409.1,321.5z M412.6,326.2l0.4,0.6l-0.1,0.7l0.4,0.5l-0.1,0.4l0.2,0.7v0.3l-0.5-0.1l-0.2-0.6l0-0.3l-0.2-0.6v-0.6l0.1-0.6
	l-0.1-0.5L412.6,326.2z M417.9,335.4l0.2-0.2l0.4,0.5l-0.5,0L417.9,335.4z M409.6,315.8l0.1,0.7l-0.3,0.1l-0.1-0.3l0.1-0.5H409.6z"
	/>
<path id="Idukki" class="st0" d="M481,388.9l-0.6-0.4l-0.5-0.4l-0.5-0.1l-0.3-0.5l-0.7-0.3l-0.1,0.6l-0.3-0.3l-0.2,0.2l-0.1-0.9
	l-0.5-0.4l-0.2,0.1l0-1.7l0.7-1.1l-0.3-0.6l0.3-0.4l0.2-0.4l0-0.5l-0.2-0.5l0.1-0.5l0.3-0.4l0.1-1l0.3-0.6l0.1-0.5l-0.1-0.4
	l-1.3-2.4l0.2-0.5l-0.1-0.3l-0.3,0.1l0-0.4l-0.2-0.2l0.1-0.8l-0.7-0.5l-0.3-0.7l-0.4-0.5l-0.2,0.2l-0.3-0.1l-0.4,0.1l-0.2-0.1
	l-0.1-0.5l-0.2,0.1l-0.2-0.3l0.2-0.4l-0.2-0.9l-0.5,0.4l-0.4,0.5l-0.2-0.8l-0.4,0.1l-0.4,0l-0.9,0.8l-0.1-0.9l0-0.6l0.1-0.4l0-0.5
	l-0.1-0.3l-0.7-0.2l-0.5,1l-0.2,0.3l-0.6-0.1l-0.5,0l-0.8,1.2l-0.4,0.4l-0.6,0.3l-0.5,0.3l-0.2,0l-0.5-0.4l-0.6-0.1l-0.3,0.3
	l-0.1,0.5l0.6,1.7l0.4,0.8l0.3,0.8l-0.2,0.1l-0.7-0.1l-0.8,0.4l-0.5,0.1l-0.4,0.2l-0.2,0.2l-0.3,0l-0.3,0.1l-0.6-0.2l0-1l-0.6,0.1
	l-0.4-0.4l-0.5,0.1l-1-0.2l-1-0.4l-1.7,0l0.4-0.4l-0.4-0.6l0.2-0.4l0.5-0.1l0.5-0.7l0.4-0.7l0.4-0.2l1.3-0.4l0.1-0.6l0-0.4l-0.2-0.4
	l0.1-0.4l-0.7-1.5l-0.6-0.6L458,367l-0.3,0.9l-0.5,0l-0.6-0.8l-0.2-0.4l-0.3,0.1l-0.5-0.5l-1.3-1.5l-0.3-1.2l-0.9-0.1l-0.1-2l0-0.9
	l-0.3-1l0.1-0.2l0.6-0.4l-0.1-0.7v-0.8l-0.2-0.6l0-0.5l-0.1-0.4l0.1-0.2l0.4-0.2l-0.1-0.4l0.4-0.6l0.4-0.1l0.6,0.7l1.3,1l0.3-0.5
	l-0.9-1.4l-0.1-0.4v-0.5l0.1-0.2l0.4-0.3l0-0.2l-0.7-0.8l-0.5-0.9l-0.6-0.6l-0.1-0.8l-0.6-1.9l-0.5-1.2l-0.8-0.5l-0.4-0.4l-0.3-0.5
	l-0.4,0.3l-0.4-0.5l-1.3-2.3l-0.4-0.4l0-0.4l-1.1-1.6l-0.7-0.7l-1.5-1.3l-0.5-0.3l-0.6-0.1l-0.4-0.3l-0.4-0.2l-0.2,0.1l-0.6,0.9
	l-0.3-0.1l-0.5-0.4l-0.3-0.3l-0.3-0.1l-0.4-0.2l-0.9-0.8l-0.6-0.3l-0.2-0.6l-0.3-0.1l-0.5,0l-0.3-0.5H438l-0.4-0.5l-0.2,0.1
	l-0.4,0.4l-1-0.2l-1-0.5l-0.3-0.3l0.1-0.6l0.1-0.4l0-0.8l0.3-0.6l0-0.3l-0.4-0.6l-0.1-1l-0.1-0.3l0.1-0.4l-0.1-0.6l0.1-0.4l0.4-0.4
	l0.3,0.1l0.5-0.2l0.3,0.2l0.3-0.1l0.3,0.2l0.3,0l0.4-0.2l0.7,0.1l0.2,0.6l0.5,0.4l0.2,0l0.3-0.2l0.1-0.5l-0.7-0.6l0-0.3l0.3-0.4
	l0.2,0.1l0.4-0.7l0.4-1.1l-0.1-0.3l0.5-0.4l0.1-0.3l-0.1-1l-0.5-1.8l0.4,0.2l0.1-0.2l0.6,0.6l0.4-0.4l0.9-0.4l0.3-0.1l1.2,0.8l0-0.7
	l0.4-0.1l0-0.9l-0.4-1.1l0.7-1.4l0.5-0.8l0.6,0.2l0.1,0.2l0.8,0.4l0.8,0.7l1,0.5l0.2-0.1l0.2-0.4l0.4-0.5l-0.8-0.2l-0.8-0.8
	l-0.4-0.1l-0.5-0.4l-0.4-0.1l-0.3-0.2l-0.5-0.5l0.1-0.4l-0.4-0.8l-0.2-0.1l-0.6,0l-1.1-1l-0.3-0.3l-0.5-0.9l-1.1-0.9l-0.8-1.1
	l-0.5-0.6l-0.6-0.5l-0.7-0.8l-1-1.3l-0.2-0.2l-0.5,0l-0.3,0.2l-0.2-0.1l-0.7-1.4l-0.4-0.5l0.1-0.4l0.6-2.4l0.4-0.4l1.1-1.7l0.1-0.3
	l0.2-1l0.1-1.1l0-1.1l0.2-0.5l0.3-0.5l0.1-0.5l0.7,0.2l0.5-0.2l0.2-0.2l1.5-0.2l0.5-0.2l0.5-0.1l0.4-0.3l0.3,0.3l0.5,0.5l0.7-0.1
	l0.4-0.1l0-0.5l0.4,0l0.6-0.1l0.3-0.2l0.3,0.3l0.5-0.8l0.5,0l0.5,0.2l0.6,0.3l0.1,0.3l0.4-0.1l0.2-0.6l0.1,0l0.3,0.4l0.1-0.1
	l1.3,0.8l0.2,0.3l0.1-0.2l0.5,0.3l0.1,0.5l0.5,0.2l0.2,0.3l0.4-0.1l0.2,0.5l0.4,0.2l0.1,0.5l-0.1,0.5l0.5,0l0.2,0.5l0.6,0.4l0.8-0.2
	l0.3-0.4l0.2,0l0.8,0.8l0.5-0.2l0.5,0.3l0.5,0.1l0.2,0.3l0.4,0.3l0.2,0.4l0.3-0.5l0.5-0.6h0.4l0.3-0.3l0.2-0.4l0.4-0.2l0.5-0.6
	l0.6-0.1l0.1-0.3l0.2-0.1l0.8-0.1l0.6-0.5l0.3-1.3l-0.6-1l0.9-0.2l0.5-0.5l-0.1-0.3l0.1-0.2l0.6-0.1l0.5-0.4l0.4-0.5l0.6-0.4
	l0.4-0.2l0.3-0.2l0.6,0l0.6-0.3l0.4-0.3l0.4-0.5l0.5-0.5l0.5-0.3l1-1l1-1.2l0.4,0l0.3,0.2l0.6,0.1l0.5-0.3l0.3,0.3l0.5,0.1l1.1,0.1
	l0.5,0.1l0,1.1l-0.3,0.6l-0.3,1.5l0.2,0.8l0.3,0.2l0.8,1.8l1,1.9l0.3,0.4l-0.4,0.5l0,0.3l0.1,1.2l0,0.6l0.1,0.5l0.3-0.4l0.3-0.1
	l0.2,0.2l0.5-0.1l0.3,0.1l0.4,0.4l0.4,1.3l-0.1,0.3l-0.4,0.2l-0.3,1.4l-0.4,0.7l-0.4,2.3l0,1.3l-0.2,0.5l0,0.4l0.2,0.3l-0.1,0.9
	l-0.3,0.3l-0.1,0.5l-0.5-0.1l-0.4-0.2l-0.4-0.2l-0.3-0.3l-0.4,0.2l-0.3,0.3l-0.2,0.4l-0.9,0.5l-0.2,0.2l-0.4-0.3l-0.2,0l-0.5,1
	l0.1,0.4l0.1,0.9l0.3,0.7l0.3,0.3l0.4,0.2l0.6,1l0.4,0.1l0.2,0.6l0.3,0.5l0.4,0.6l0.5,0.4l0.4,0.9l0.4,0.6l0.1,0.4l-0.3,0.8
	l-0.3,0.5l0,0.3l0.5,0.5l0,0.4l-0.2,0.5l0.1,0.5l0.3,0l-0.1,0.4l0.1,0.4l0.7,0.6l0.1,0.2l-0.2,1l-0.3,0.3l-0.4,0.7l-0.7,0l-0.2,0.2
	l-0.2,0.3l-0.9,1.5l-0.1,0.5l-0.3,1.1l-0.9,1.1l0.2,1.6l-0.3,0.3l-0.1,0.5l-0.2,0.4l0.7,1.2l0.3,0.2l0.4-0.1l0.4,0.4l0,0.6l-0.7,0.4
	l0,0.5l0.1,0.2l-0.4,1.6l0.2,0.2l0.5,0l0,0.4l0.6,0.2l0.4,0.9l-0.1,0.3l0.1,0.6l-0.5,0.2l-0.3,0.5l-0.9,0.2l0.1,1.3l0.6,0.6
	l-0.4,0.4l-0.1,1l-0.4,0.7l0.1,1.5l-0.6,0.4l-0.7,0.2l0,0.9l-0.1,0.8l0.2,1.1l-0.4,0.8l-0.1,0.6l-0.2,0.3l-0.2,0.8l-0.5,0.4l0.1,0.4
	l-0.3,0l-0.2,0.3l0,1l-0.4,0.7l0.1,1l-0.5,0.6l0,0.5l-0.2,0.2l0.3,0.4l0.8,0.1l0.5,0.3l0.3-0.4l0.3-0.1l0.1-0.3l0.7,0.2l0,0.8
	l0.3,0.3l0.3,0l0.2,0.3l0,0.4l0.4,0.5l0.6,0.6l0.5-0.3l0.6,0.2l0.4,0.4l0.4,0.3l0.3,0l0.2-0.3l0.2,0.1l1-0.9l0-0.4l0.3,0.1l0.5-0.7
	l1.3-0.5l0.3,0.4l0.3-0.1l0.1,0.1l-0.3,0.4l0.1,0.6L484,359l0.1,0.5l0.7,0.3l0.3,0.4l0.3-1l0.9-2.1l0.7,0.5l-0.1,0.3l-0.3-0.1
	l-0.3,1l0.3,1l-0.1,0.3l-0.2,0l-0.3,0.7l0.2,0.6l0.1,0.1l0.5,0.1l0.2,0.2l0.1,0.6v1.3l0.3,0.2l0.4,0.7l0.4,0.1l0.3,0.6l1.1-0.8
	l0,0.9l0.3,0.2l0.3,0l0.1,0.8l-0.6,0.5l-0.2,0.5l-0.1,0.7l0,0.9l0.2,0.2l-0.3,0.6l-0.4,0.2l0.1,0.8l-0.5,0.5l-0.6,0.2l-0.2,0
	l-0.3-0.4L487,371l-0.4,0.4l-0.2,0.5l-0.6,0.9l0,0.7l-0.2,0.2l-0.1,0.6l-0.6,0.9l0,0.4l0.4,0.7l0,0.4l-0.2,0.6l0.1,0.5l-0.4,0.2
	l0,1.2l0.2,0.4l-0.2,0.4l0,0.4L484,382l0.1,0.6l-0.3,0l-0.5,0.3l-0.7-0.3l-0.5,0l0.1,0.6l-0.2,0.1l0.2,0.4l0.1,0.7l-0.2,0.3l0,0.4
	l-0.4,0.5l-0.3,0.1l-0.5,0.3l0,0.9l0.5,1.8L481,388.9z"/>
<path id="Kannur" class="st0" d="M332.7,116.1l0.1-0.3l0.3-0.4l-0.3-0.5l-0.1-1.3l-0.2-0.9l-0.5-0.6l-0.3-0.6l-0.2-0.6l0.2-0.1
	l0.3,0.1l0.7-0.1l0.4-0.2l0.4,0.2l0.3-0.1l0.4-0.6l0.4-0.4l0.5-0.6l0.3-0.7l0.4-0.3l0.2,0.2l0.7,0.1l0.6-0.2l0.5-0.5l0.7-0.2
	l0.4-0.2l0.4-0.5l0.3,0l0.4-0.2l0-0.5l-0.3-1.2l0-0.3l0.5-0.7l0.3-0.3l0.5-0.2h0.4l0.6-0.2l0.3,0.1l0.3,0.2l0.5,0.2l0.4-0.2l0.5,0.1
	l1.2-0.8l0.2-0.5l0.2-0.1l0.6,0l0.5-0.4l0.1-0.7l0.4,0l0,0.6l0.4-0.4l1,0l0.5,0.1l0.3-0.1l0.3-0.3l0.2-0.1l0.4,0l0.4,0.2l1.2,0.1
	l0.6-0.7l1.1,0.9l0.3,0.5l0.4,1.4l0.1,0.2l0.7,0.2l0,0.3l0.5,0.6l0.4,0.9l0.2,1l-0.1,0.2l0.4,0.2l0.1,0.9l0.9,0.8l-0.1,0.7l-0.3,0.4
	l0.1,0.3l0.3,0.1l0.2,0.3l0.2,0l0.4,0.3l0.2,0.4l0.1,0.8l0.2,0l0.3,0.7l0.8,0.3l0.5,1.4l0.4,0l0.3,0.2l0.3,0.5l0.4-0.3l0.3,0
	l0.4-0.2l0.2,0.3l0.4-0.3l0.7,0.4l0.2,0.3l0.4-0.1l0.1,0.2l0.1,0.6l0.4,0.3l0.1,0.7l-0.1,0.4l0.3,0.5l0.1,0.9l0.2,0.2l0.5,0.9
	l0.3,0.3l0.4,0.1l0.4-0.1l0.4-0.2l0.2-0.3l0.2-0.5l0.6,0l0.7,0.2l-0.1,1.2l0,0.4l0.4,0.1l0.8,0.4l-0.2,0.9l0,0.4l0.2,0.3l0.8-0.2
	l0.5-0.3l0.3-0.4l0.3,0l0.3-0.2l0.3-0.4l0.4,0l0.4-0.1l0.3,0.1l1.1,0.1l0.4,0.2l0.4,0l0.3,0.3l0.1,0.3l-0.4,1.8l-0.2,0.2l0.4,0.8
	l0,0.7l0.1,0.2l0.7,0.6l0.1,0.2v0.6l0.8,0.6l0.3,0.6l-0.3,0.8l0,1l0.2,0.6l0.3,0.3l0.7,0.2l0.3,0.2l0.1,0.5l0.3,0.7l1.1,1.1l0.8,0.5
	l0.5,0.2l0.5,0.1l0.3,0.1l0.7,0.2l0.8,0.1l0.3-0.2l0.4,0.3l-0.4,1.2l0,0.6l0.7,1.1l0.1,0.8l0,0.7l-0.1,0.6l-0.5,0.8l-1.1,0.6
	l0.4,0.5l0.8,0.7l-0.2,0.8l0,0.8l-0.1,0.3l-0.4-0.5l-0.2,0.2l-0.3-0.1l-0.9,0.3l-0.4-0.1l-0.3,0.1l-0.3-0.2l-0.5,0.1l-0.3-0.3
	l-0.6,0.1l-0.3-0.3l-0.5,0.2l-0.4-0.2l-0.4-0.5l-0.2,0l-0.5,0.4l-0.7-0.1l-0.5-0.4l-0.7,0.1l-0.3,0.6l-0.2,0.2l-0.6,0l-0.2,1
	l0.2,0.4l0.3,0.3l0.1,0.5v0.5l-0.1,0.4l-0.3,0.2l-0.3,0.1l-0.4,0.3l-0.2,0.3l-0.2,0.6l-0.3-0.3l-0.4-0.1l-0.9-0.1l-0.3,0.2l0.1,0.6
	l0.2,0.3l0.1,0.4l-0.1,0.3l-0.4,0.1l-0.6-0.2l-0.1,0.5l-0.4,0.1l-0.3-0.3l-0.3-0.7l-0.5-0.5l-0.4-0.1l-0.3,0l-0.3-0.2l-0.4-0.1
	l-0.5,0.3l-0.4,1.8l-0.2,0.2L367,151l-0.2,0.2l-0.2,0.8l-0.7,0.4l-1.6,1.8l-0.5-0.1l-0.2,0.7l-1,1.1l-0.3,0.1L362,156l-0.2,0.2
	l-0.5,0l-0.1,0.1l0.2,0.6l0,0.7l0.6,0.4l0.1,0.1l-0.1,0.7l-0.3,0.1l-0.7-0.1l-0.2,0.2l-0.3,0.6l-0.3,0.3l-0.5,0.2l-0.2-0.3l-0.3-0.2
	l-0.1-0.3l0.1-0.4l-0.1-0.5l-0.5-0.9l-0.9-0.2l-0.3-0.6l-0.4,0.1l-0.2-0.4l-0.2,0l-0.3-0.8l-0.3,0v-0.3l-0.7-1.4l-0.3-0.2l-0.4,0.1
	l-0.3-0.9l-0.3-0.3H354l-0.3-0.7l-0.3-0.3l-0.3-0.6l0.5-0.3l0.3,0l0.2,0.3l0.1,0.5l0.2-0.1l-0.1-0.4l-0.2-0.4l-0.4-0.1l-0.1,0.2
	l-0.4,0l0-0.4l0.4-0.4l0.2,0.1l0-0.5l0.1-0.5l-0.2-0.3l0.5-0.5l0.7-0.5l-0.2-0.2l-0.7,0.3l-0.6,0.7l-0.1,0.6l0.2,0.4l-0.2,0.3
	L353,150l-0.1,0.7l-0.1,0.2l-0.7-0.2l-0.4-0.3l0.1-0.6l0.3,0l0.2-0.8v-0.6h-0.2l0,0.6l-0.1,0.6l-0.4-0.1l-0.4-0.2l0-0.4l-0.3-0.6
	l-0.1-0.4l-0.6-0.9H350l-0.5-0.9l-0.3-0.4l0-0.2l-0.7-1.1l-0.5-0.5h-0.1l-0.4-0.7l-0.7-0.8l-0.4-0.2l-0.4,0.3l0.1,0.3l-0.5,0.1
	l-0.3-0.2l0-0.2l-0.4-0.3h-0.2l-0.2-0.7V141l-1.4-2.3l-0.1-0.3l-0.5-0.6l-0.5-0.2l0.1-0.5l-0.2-0.8l-0.7-1.2l-0.1-0.3l-0.4-0.5
	l-0.1-0.4l0.3-0.3l0.7,0.3l1.2,0.8l0.8,0.4l0.5,0.1l0.4-0.1l0.2,0.3l0.5-0.2l0.2-0.5l0.3-0.3l0.4,0.2l0.2,1l0.5,0.1l0.1,1l0.4,0.2
	l0.4-0.2l-0.3-0.3l-0.2,0.2l0.1-0.7l-0.2-0.4l-0.2-0.1l-0.5,0.1l0-0.9l-0.4-0.3l0-0.5l0.1-0.7l-0.2,0l-0.6,0.7l-0.1,0.4l0,0.6
	l-0.2,0.4l-0.8-0.3l-0.4-0.2l-0.5-0.6l-0.7-0.1l-0.7-0.3l0.1-0.4l-0.4-0.8l-0.2-1l-0.2,0.7l0.6,0.6l0.1,0.3l-0.3,0.1l-0.3-0.1l0-0.3
	l-0.3-0.4l-0.8-1.9l-0.2-0.2l0.1-0.3l-0.3-0.4l-0.2-0.1l-0.2-0.5h-0.3l-0.8-1l0.1-1l0.1-0.5l0.8,0.2l0.4,0.3l0,0.3l0.5,1l0.2-0.1
	l0.1-0.3l0.2,0.4l0.2-0.1l0.4,0.1l0,0.3l0.6-0.1l-0.2-0.3l0-0.3l0.5-0.1l-0.1-0.2l-0.8-0.1l-0.1-0.1l-0.4,0v-0.3l0.4-0.1l-0.2-0.3
	l0.1-0.3l-0.2-0.4l0.3-0.3l0.4,0l-0.1-0.4l-0.3-0.2l0.1-0.8l0.2-0.2l-0.2-0.5l-0.3,0.1l-0.3-0.5l-0.3-0.1l0.2-0.7l0.7-1.1l0.4-0.9
	l-0.4-0.3l0-1.1l0.3-0.2l0.5-0.1l0.6-0.1l0.1,0.4l0.4,0.4l0.3,0l0.9-1l0.2,0l0.2-0.3l0.6-0.4l0.2-0.4l0.5-0.2l0.3,0.1l0.3-0.2
	l0.6-0.2l0.4-0.3l0.3-0.4l0-0.2l-0.2-0.4l-0.4-0.5l-0.4-0.1l-0.7,0l-0.3-0.3l-0.2,0.2l0,0.4l-0.2,0.2l-0.1,0.5l-0.2,0l-1.1,0
	l-0.1-0.3l-0.3,0.1l-0.5-0.6l-0.3-0.1l-0.4,0l-0.3,0.1l-0.5,0.3l-0.2,0.3l-0.1,0.4l0,0.7l-1.3,0.8l-0.6,0.1l-0.1,0.6l-0.3,0.7
	l-0.2,0.2l-0.6-0.3l-0.4-0.5l-0.3,0l-0.6,0.5l-0.3-0.1l-0.2-0.4l-0.3-0.1l-1,0.5l-0.1,0.4l0.1,1.5l0,0.7l0.1,0.4l-0.1,0.9l0,0.9
	l0.3,1l-0.2,1.2l0.4,0.7l-0.3,0.2l-0.3,0.6l0,0.2l-0.4,0.3l-0.6,0l-0.2,0.6l-0.2,0l0-0.5l-0.3-0.7l-0.8-1.9l-0.2-0.7l0.2-0.2
	l-0.2-0.6l0.1-0.2l-0.2-0.3l-0.1-0.6l-0.4-1l0.1-0.9l-0.3-0.1l-0.1-0.6l0.2,0l-0.2-0.5l0.2-0.3l0.1,0.3l0.2,0.1h0.4l0.3-0.3l0.1-0.3
	l0-0.5l-0.1-0.6l0.3-0.1v-0.5l-0.4-0.7L332.7,116.1z M339.7,129.8l0.6,1.1l0.2,0.5l-0.2,0.1l-0.3-0.5l-0.2-0.7L339.7,129.8z"/>
<path id="Kasaragod" class="st0" d="M330.6,118.2l0.6,0.9l0.1,1l0.1,0.3l0.5,0.9l0,0.9l0.3,0.6l0.2,0.7l-0.1,0.2l-0.6-1.7l-0.3-1.2
	l-0.2-0.6l-0.2-0.7l-0.3-1V118.2z M332.7,116.1l-0.1,0.1l0.4,1.2l-0.2,0.4l0.1,0.2l0,0.5l0.1,0.3l-0.2,0.5l-0.4,0.1L332,119l-0.3,0
	v-0.6l-0.1-0.8l-0.3-0.3l-0.2,0.1l-0.2-0.2l0.2-0.8l0-0.4l-0.2-0.8l-0.5-0.7l-0.1-0.7l0-0.3l-0.3-1.1l-0.3-0.3l-0.2-0.4l-0.1-0.7
	l-0.3-0.1l-0.1-0.6l-0.2-0.5l0-0.6l-0.1-0.2l-0.1-0.7l-0.5-0.2l-0.1,0.2l0.1,0.7l-0.3-0.1l-0.4-1.4l-0.4-1.6l-0.8-2.5l-0.9-2.8v-0.1
	l-0.8-2.4l-0.5-1.5l0-0.6l-0.3-0.3l-0.4-1l-0.7-2.2l-0.3-0.8l-0.3-0.4l-0.2,0.2l-0.2-0.4l-0.6-1.7l-0.3-0.4h-0.2l-0.4-1.4l-0.6-1.6
	l-0.2-0.2l0-0.4l-0.3-0.8l-0.1-0.4l-0.4-0.9l-0.1-0.4l-0.3-0.5l-0.3-1.1l-0.2-0.2l0-0.4l-0.2-0.8l-0.2-1l-0.1-0.2l-0.2-0.8l-0.2-1.2
	l-0.3-0.4l-0.3-1l-0.3-0.8l0-0.3l-0.7-2l0.2-0.3l-0.2-0.3l-0.2-0.8l-0.1-0.3l-0.3-0.2l-0.1-0.6l-0.3-1.1l-0.2-0.6l-0.1-0.5l-0.4-1.2
	l-0.5-1.4l-0.2-0.8l-0.5-1.2l-0.3-1.2l0.2-0.4l-0.2-0.3l-0.4,0.2l-0.2-1l-0.2-0.7l0-0.4l-0.4-1.1l-0.3-0.9l0-0.2l0.6-0.1l0.1,0.5
	l0.5,0.1l0.2-0.3l0.4-0.4l0.2,0.1l0.3-0.4l0.3,0l0.2-0.2l1.5-0.8l0.6-0.1l1.2-0.7l0.4,0l0.2,0.4l0.4-0.1l0.2,0.3l0.8-0.2l0.4-0.3
	l0.4-0.5l-0.3-0.5l0.2-0.1l0.6,0.7l0.4-0.2l-0.1,1.1l0.3,0.8l0,0.4l-0.3,0.6l-0.3,0.2l-0.4,0.6l-0.2,0.6l-0.4,0l-0.1,0.2l0,0.6
	l0.2,0.1l0.4-0.4l0.5,0.6l0.9,0.4l-0.1,0.3l-0.5,0.5l0.3,0.4l0.5,0.1l0.3-0.7l0.3-0.1l0.2,0.1l0.4-0.2l0.5-0.2l0.4,0.3l0.2-0.1
	l0.2,0.1l0.4,1.1l-0.3,0.5l0.3,1.1l-0.2,0.3l-0.2-0.3l-0.2-0.1l-0.3,0.1l-0.1,1.6l0.1,0.7l0.2,0.3h0.5l0.2,0.1l0.2-0.3L324,66l0.3,0
	l0.4-0.7l0.6-0.1l0.2-0.4l0-0.5l-0.2-1.3l-0.2-0.3l0.3-0.4l0.4,0.3l0.5,0.1l0.4,0.2l0.3,0.6l0.3,0.9l0.6,0.2l0.4,0l0.4,0.2l0.3,0
	l0.2-0.2l0.4,0l0.4-0.3l0,0.7l0.8,0.5l-0.4,1l-0.2,0.4l-0.1,0.7l-0.6,0.4l0.1,0.4l0.3,0.5l0.5,0.9l0.3,0.2l0.3-0.1l0.5,0.1l0.5-0.5
	l0.4-0.5l0.5,0l0.3,0.1l0.5,0l0.1,0.2l-0.2,0.9l-0.1,0.7l0.6,0.6l0.2,0.3l0,0.5l-0.3,0.5l-0.1,0.6l0.5-0.3l0.2,1l0.2,0.2l0.4,0.8
	l0.6,0.2l0.4-0.1l0.1-0.2l0-0.8l0.1-0.1l0.7-0.1l0.1-0.4l0.4-0.6l0.2-0.5l0.2-0.2l0.4-1.2l0.2-0.3l0.4-0.3l0.3,0.3l0.6,0.3l0.2,0.8
	l0.2,0.1l0.5-0.3l0.3,0.4l0.2,0.7l0.7,0.3h0.7l0,0.8l-0.1,0.2l-0.5,0.1l-0.2,0.5l-0.5-0.3l-0.5-0.2l-0.8-0.1l-0.3,0.9l-0.7,0.1
	l-0.3,0.5l-0.1,0.5l0.1,1.3l0.5,1.6l0.1,0.5l0.8-0.2l0.3,0.1l0.3,0.3l0.3,0l0,1.9l0.2,0l0.5,0.5l0.5,0.1l0.5,0l0.5,0.1l0,0.5
	l0.2,0.2l0,0.9l0.1,0.8l-0.3,0.7l0.3,0.2l1-0.2l0.3-0.2l0.2-0.5l0.7-0.4l0.1-0.8l-0.2-0.6l0.1-0.2l0.5-0.2l0.1-0.3l0.8-0.1l0.2-0.5
	l0.2,0l0.3,0.7l0.2,0.1l0.3-0.4l0.4-0.2l0.4,1.6l0,0.8l0.3,0.5l-0.1,0.6l-0.4,0.1l-0.1,0.4l-0.4,0.4l-0.4,0.2l-0.8,0.2l-0.4-0.5
	l-1.4-0.1l0,0.2l0.3,0.3l0.1,1.6l-0.3,2.1l0.3,0.5l0.2,0.6l0.3,0.3l0.2,0.6l0.2,0.2l0.3-0.1l0.4,0.2l0.3,0.3l0.2,0.4l0.3,0l0.1,0.3
	l0.6-0.2l0.5,0.5l0.2,0.3v0.5l-0.1,0.9l-0.1,0.4l-0.2,0.4l-0.3,0.2l0.1,0.3l0.2,0.4L349,98l0.2,0.2l0,0.5l0.2,0.6l0.5,0.6l0,0.3
	l-0.6,0.8l-0.2,0.4l-0.5-0.1l-1,0l-0.4,0.4l0-0.6l-0.4,0l-0.1,0.7l-0.5,0.4l-0.6,0l-0.2,0.1l-0.2,0.5l-1.2,0.8l-0.5-0.1l-0.4,0.2
	l-0.5-0.2l-0.3-0.2l-0.3-0.1l-0.6,0.2h-0.4l-0.5,0.2l-0.3,0.3l-0.5,0.7l0,0.3l0.3,1.2l0,0.5l-0.4,0.2l-0.3,0l-0.4,0.5l-0.4,0.2
	l-0.7,0.2l-0.5,0.5l-0.6,0.2l-0.7-0.1l-0.2-0.2l-0.4,0.3l-0.3,0.7l-0.5,0.6l-0.4,0.4l-0.4,0.6l-0.3,0.1l-0.4-0.2l-0.4,0.2l-0.7,0.1
	l-0.3-0.1l-0.2,0.1l0.2,0.6l0.3,0.6l0.5,0.6l0.2,0.9l0.1,1.3l0.3,0.5l-0.3,0.4L332.7,116.1z M331,117.6l0.4,0.4l0.1,0.4l-0.1,0.4
	l0.1,0.4l-0.2,0.2l-0.1-0.5l-0.3-0.3l-0.2-0.8L331,117.6z M328.3,109.1l0,0.9l0.3,0.7l0,0.4l0.3,0.9l0,0.5l0.4,0.6l0,1l0.4,0.9
	l0,0.9l0.4,1.3l0.2,0.5l-0.1,0.4l-0.6-1.8l-0.1-0.5l-0.4-1.2l-0.2-0.7v-0.2l-0.3-0.9l-0.3-1.2l-0.2-0.6l-0.2-0.7l0-0.6L328.3,109.1z
	 M329,110.9l0.4,0.5v0.5l0.1,0.5l0.4,0.5l0.3,0.5v0.5l-0.3,0.2l-0.1-0.6l-0.1-0.8l-0.3-0.6L329,110.9z M330.3,115l0.3,0.4l0.2,0.4
	l-0.2,0.4v0.4l-0.1,0.2l-0.4-0.9l-0.1-0.7L330.3,115z"/>
<path id="Kollam" class="st0" d="M438.9,435.1l-0.4-0.9l-0.2-0.2l-0.4-0.7l-0.2-0.1l-0.1-0.4l-0.7-1.1l-0.1-0.6l-0.4-0.8l-0.4-0.6
	l-0.2-0.4l-0.6-0.9l-0.2-0.5l-0.9-1.1l-0.2-0.1l-0.8-1l-0.3-0.2l-0.6-0.5l-0.7-0.2l-0.2,0.3l-0.5-0.5l-0.1-0.3l-0.2-0.2l-0.5-0.7
	l-0.1-0.4l-0.3-0.2v-0.2l-0.2-0.5l-0.1-0.5l-0.1-1.1l-0.2-0.6l-0.1-0.6l-0.2-1.3l-0.4-1.2l0-0.4l-0.1-0.3l-0.3-1.7l-0.1-0.2v-1
	l-0.1-0.3l-0.1-0.9l-0.5-1.1l-0.2-0.7l-0.4-0.9l-0.5-1.6l-0.3-0.7l-0.6-2.1l-0.3-0.6l-0.2-0.7l-0.4-0.9l0.8-0.1h0.3l0.4,0.2
	l-0.1-0.6l0.1-0.4l0.2-0.1l0.2-0.3l1.6,0.1l0.5-0.1l0,0.9l0.3,0.4l0.3,1.2l0.5,0.3l0.8-0.1l0.5-0.6l0.6,0.1l0.1-0.4l0.2-0.2l0.1-0.7
	l0.4-0.1l1.2,0.1l0.3-0.2l0.1-0.3l0.2-0.2l0.8-0.1l0.4-1l0.2-0.3l0.9-0.1l0,1.4l0,1.2l-0.5,0.5l0.3,0.6l0.2,0.4l0,1l0.2,0.3l0.9,0.1
	l1.7,0.5l1.4,0.2l0.6,0.2l0.3-0.2l0.5,0.3l0.2-0.4l0.2,0l0.2,0.3l0.3,0l0.5-0.6l0.2,0.2l0.1,1.3l0.9-0.1v-1l-0.2-0.4l-0.1-0.8
	l1.2-1.5l1.6,0.4l0.5,0.2l0.2,0.2l0.1,0.4l0.4,0.5l0.4,0.2l0.3-0.1l0.3,0.1l0.8-0.4l0.1-0.4v-0.9l0.3-0.6l0.3,0.2l0.1-0.1l0.1-0.6
	l0.3,0.2l0.5-0.7l1,0.6l0.5-0.6l0.2,0.4l0.2,0.9l0.2-0.6l0.6-0.1l0.6,0.1l1,0.5l0.8,0.1l0.3-0.2l0.9-0.8l-1.1-0.5l-0.6-0.5l-0.5,0
	l-0.4-0.1l-0.2-1.6l0.1-0.5l0-0.4l0.1-0.6l0.5,0.2l0.8,0.8l1.8,1.4l0.7,0.5l0.7,0.4l0.4,0.5l0.7-0.6l0.6,0.8l0.5,0.4l0.5-0.1
	l0.2,0.3l0.5,0.2l0.5-0.3l0.4-0.1l0.1,0.4l0.4,0.4l0.3,0.1l0.2,0.4l0.2,0.1l0.6,0.1l0.1,0.2l0.7,0.4l0.2,0.3l0.8,0.5l0.3,0l0.8,0.2
	l0.9,0.5l0.8,0.4l0.4,0l0.3-0.1l-0.1,0.5l0.8,0.4l0.6,0l0.3-0.1l0.3,0.3l0.3,0l0.3-0.2l0.8,0.5l0.2,0.3l0.2-0.1l-0.2,0.5l-0.6,1.1
	l0.1,0.8l-0.9,0.2l-0.2-0.4l-1,0.2l-0.4,0.3l-0.2,0.5l0.1,0.5l-0.5,0.6l-0.6,0.3l0.2,0.6l-0.1,0.5l0.2,0.2l0.4,0l0.1,0.6l0.2,0.5
	l0.8,0.8l0.3,1.5l0.8,0.5l0,0.6l0.4,0.4l0.1,0.5l-0.1,0.4l0.2,0.8l-0.2,0.8l0.1,0.5l0.3,0.5l0.4-0.2l-0.2-0.3l0.2-0.4l0.3-0.2
	l0.3,0.2l0.5,0.2l0.2,0.3l-0.4,0.7l0.3,1.3l0.6,0.1l0.5,0.4l0.2,0.3l-0.1,0.7l0.3,0.6l0.3,0.3l0.6,0.1l0.2,0.8l0,0.4l-0.2,0.3
	l0.4,0.6l-0.2,0.4l0.3,0.9l-0.8,1.4l-0.4,0.6l0.1,0.4l-0.3,0.6l-0.2,0.2l-0.5,0.1l-0.1,1l0,1l-0.4,0.2l-0.3,0.3l-0.5,0.1l0.1,0.4
	l0.2,0.5l-0.3,0.3l-0.5-0.1l-0.6-0.2l-0.9-0.5l-0.5-0.4l-0.4-0.5l-0.8-0.5l-0.3-0.4l-0.3-0.1l-0.4-0.5l-0.4-0.3l-0.6-0.2l-0.5-0.5
	l-0.3-0.5l-0.9-0.6l-0.2-0.4l-0.6-0.1l-1.2-0.7l-2.1-0.7h-0.6l-0.7,0.3l-0.3,0.7l-0.2,0.4l-0.2,1.3l-0.5,0.2l-0.3,0.5l0.2,1l0.3,0.9
	l0.7,1.4l-0.6,0.2l-1.1,0.1l-0.7-1.1l-0.6-0.3l-0.5,0l-0.2,0.2l-0.2,0.5l-0.1,0.5l-0.3,0.1l-0.7,0.1l-0.5-0.1l-0.3,0.1l-0.4,0.4
	l-0.5,0.4l-0.2-0.4l-1.1-1.3l0.5-0.6l-0.2-0.7l-0.3-0.3l-0.2-0.5l-0.8-1.1l-0.7,0l-0.4,0.5l-0.5-0.4l-0.7-0.2l-0.7-0.5l-0.4-0.1
	l-0.2-0.7L450,431l0-0.7l-0.3-0.4l-0.6-0.4l-0.5,0l-0.3-1l-0.4-0.3l-0.3,0.3l-0.3-0.1l-0.2,0.4l-0.3-0.1l-0.2-0.3l-0.8-0.2l-0.1-0.3
	l-0.4,0.1l0.1,0.6l-0.2,0.5l0,0.4l0.2,0.1l0.9,1.4l-0.1,0.6l-0.2,0l-0.2,0.4l0.3,0.1l0.2,0.4l-0.1,0.4l-1.3,0l-0.1,0.1l0,0.6
	l-0.3,0.3l-0.5-0.1l-0.1,0.4h-0.9l-0.4-0.1l-1.5-0.6l-0.6,0.6l-0.2,0.1l-0.3,0.4l-0.3-0.1l-0.6,0L438.9,435.1z"/>
<path id="Kott" class="st0" d="M426.4,376.4l-0.4-0.2l-0.1-1.2l0.2-0.3l-0.1-0.7l-0.2-0.1l0.4-0.7l-0.4-0.3l-0.7-0.3l0.2-1.5
	l0.4-0.8l0.1-0.4l0-0.6l0.1-0.3l0-0.8l0.1-0.8l0-0.4l-0.1-0.3l-0.5,0l-0.4-0.3l-0.8-0.1l-0.1-0.5l0-1.5l-0.1-0.8l-0.1-0.1l1.2-0.1
	l1.4,0l-0.3-0.4l-0.4-0.2l-0.1-0.4l-0.4-0.1l-0.3,0.3h-0.1l-0.9-0.5l0-1.6h-0.1l0,1.5l-0.1,0l-0.6-0.3l-0.5-0.2l-0.6-0.3l-0.1-0.2
	l-0.4-0.1l-0.4,0l-0.7-0.4l0-0.5l-0.2-0.2l0-0.6l0.3-0.6l0.2-1.1v-0.4l0.1-0.4l0.1-0.7l0.1-0.1l0.1-0.7l-0.1-0.4l-0.2-0.3l-0.2-0.7
	l-0.3-0.3l-0.2-0.5l0.1-0.3l0.4-0.5l-0.4-0.2l0,0.4l-0.7-0.2l-0.4-0.3l0.1-1.1l0-0.8l0.1-0.6l0.2-0.1l0.2-0.4l0.2-0.4l0.2-0.7
	l-0.1-0.6l-0.6-0.3l-0.2,0.3l-0.3-0.1l-0.2-0.4l-0.6,0.1l-0.3-0.2l0.2-0.9l0.1-0.3l0.1-0.5l0-0.6l0.2-1.4l-0.1-0.1l-0.1-1.2
	l-0.3-0.5l-0.5-0.5v-0.2l-0.3-0.4l0.1-0.6l-0.2-0.1l0-0.4L417,339l-0.1-0.4l0.1-0.3l0.3-0.4l0.3,0l0.2-0.5l0.5-0.7l0.3-0.5v-0.3
	l-0.5,0l-0.1-0.5l0.1,0.3l0.5,0l0.1,0l0.6,0.4l0.3,0.1l0.4-0.1l0.6-0.2l0.9-0.6l0.3-0.5l0.3-0.3l0.5-0.7l1,0.4l0.5-0.4l0.4,0.1
	l0.8-0.5l0.7,0l0.3,0.1l0.6,2.5l0.8,0l0.5,0.2l0.1,0.9l0.1,0.1l0,0.6l0.2,0.1l0.1,0.5l0.7-0.3l0.2-0.9l0-0.3l0.5-0.7h0.2l0.4,0.3
	l0.4-0.3l0.1-0.4l-0.1-0.5l0.1-0.9l0.2,0l0.7-0.4l0.6,0.2l0.4,0.4l0.3,0l0.3-0.2l-0.4-0.6l0.8-0.8l0.6,0.2l-0.1,0.6l0.3,0.3l1,0.5
	l1,0.2l0.4-0.4l0.2-0.1l0.4,0.5h0.4l0.3,0.5l0.5,0l0.3,0.1l0.2,0.6l0.6,0.3l0.9,0.8l0.4,0.2l0.3,0.1l0.3,0.3l0.5,0.4l0.3,0.1
	l0.6-0.9l0.2-0.1l0.4,0.2l0.4,0.3l0.6,0.1l0.5,0.3l1.5,1.3l0.7,0.7l1.1,1.6l0,0.4l0.4,0.4l1.3,2.3l0.4,0.5l0.4-0.3l0.3,0.5l0.4,0.4
	l0.8,0.5l0.5,1.2l0.6,1.9l0.1,0.8l0.6,0.6l0.5,0.9l0.7,0.8l0,0.2l-0.4,0.3l-0.1,0.2v0.5l0.1,0.4l0.9,1.4l-0.3,0.5l-1.3-1l-0.6-0.7
	l-0.4,0.1l-0.4,0.6l0.1,0.4l-0.4,0.2l-0.1,0.2l0.1,0.4l0,0.5l0.2,0.6v0.8l0.1,0.7l-0.6,0.4l-0.1,0.2l0.3,1l0,0.9l0.1,2l0.9,0.1
	l0.3,1.2l1.3,1.5l0.5,0.5l0.3-0.1l0.2,0.4l0.6,0.8l0.5,0l0.3-0.9l0.5-0.6l0.6,0.6l0.7,1.5l-0.1,0.4l0.2,0.4l0,0.4l-0.1,0.6l-1.3,0.4
	l-0.4,0.2l-0.4,0.7l-0.5,0.7l-0.5,0.1l-0.2,0.4l0.4,0.6l-0.4,0.4l-0.1,0.8l-0.2,0l-0.3,0.3l-0.6,0.1l0-0.5l-0.1-0.2l-0.8-0.1
	l-0.9-0.8l-0.5-0.5l-0.4-0.3l-0.8-0.1l-0.6-0.4l-0.7-0.6l-0.2,0.6l-0.2,0.3l-0.4,0l-0.5-0.2l-0.6-0.1l-0.1,0.3l-0.2,0.1l-0.3-0.6
	l-0.3-0.3l-0.2,0.1l-0.8,0l-0.1,0.3l-0.2-0.2l-0.2,0.1l-0.1,0.6l-0.5-0.2l-0.2,0.1l-0.7,0.4l-0.2,0.2l-0.5,0.1l-0.2-0.3l-0.2-0.8
	l-0.2-0.2l-0.3,0.1l-0.1-0.2l0.2-0.8l-0.4-1.1l-0.2,0.1l-0.7,0l-0.2,0.3l0.1,0.4l-0.2,0.2l-0.7,0.4l-0.3,0.4l-0.4,0l-0.3-0.7
	l-0.2-0.2l0-0.9l-0.1-0.2l-0.5-0.1l-0.5,0l-0.5-0.4l-0.5,0.2l-0.7-0.1l-0.6,0.1l-0.9,0.4l0,0.6l-0.3,0.6l-0.3-0.6l-0.3,0.2l-0.1,0.4
	l0.1,0.3l-0.9,0l-0.3,0.2l-0.1,0.5l-0.3-0.4l-0.2,0.1l0,0.8l-0.2,0l-0.6,0.4l0,0.3l0.2,0.4l-0.1,0.9l0.3,0.6l0,0.3L432,375l-0.2-0.2
	l-0.7-0.4l-0.3,0.1l-0.4,0.4l-0.5,0.4l-0.3,0.1l-0.3-0.1l-0.1-0.5l-0.2-0.4l-0.3-0.1l-0.3,0.1l-0.3,0.6l-0.3,0.1l-0.2-0.2l-0.5,0.4
	l-0.2,0.4l-0.6,0L426.4,376.4z M422.9,361.9l0.9,0.4v1.1l-0.3,0.1l-0.5-0.4L422.9,361.9z M424,362.4l0.8,0.3l0,0.7h-0.9v-0.9
	L424,362.4z"/>
<path id="kozhikode" class="st0" d="M379.9,210l-0.3-0.1l-0.5,0.8l-0.2,0.1l-0.1,0.3l-0.3,0.1l-0.3,0.5l-0.8-2.2l-0.3-0.2l-0.6-0.9
	l0.3-0.3h0.2l0.1,0.5l0.5-0.2l0.2,0.3l0.2,0.1l0.3-0.4l-0.1-0.2l-0.2,0.5l-0.3-0.3l-0.5-0.2l0.2-0.4l0.1-0.5l0.2-0.2l0.1-0.3
	l0.3-0.3l-0.4-0.1l-0.4,0.3l-0.2,0.4l-0.2,0.8l-0.5,0.3l-0.2-0.9l-0.1-0.1l-0.2-1l-0.3-0.9l-0.3-1.1l-0.1-0.7l-0.4-1.3l-0.4-1.4
	l-0.1-0.5l-0.2-0.7l-0.1-0.8l-0.1-0.1l-0.2-0.6v-0.5l-0.2-0.6l-0.4-1.6l-0.1-0.6l-0.2-0.6l-0.1-0.7l-0.4-0.2l-0.3-0.4l-0.1-0.7
	l-0.1-0.2l0.2-0.6l0-0.6l0.1-0.3l-0.1-0.5l-0.2-0.2l-0.3-0.7l-0.5-1.8l-0.2-0.4l-0.2-0.7l-0.2-0.2l-0.2-0.6l-0.3-0.6l-0.2-0.9
	l-0.3-0.7l-0.4-0.6l-0.3-0.8l-0.4-0.6l-0.2-0.4l-0.4,0l-0.8-1.1h-0.2l-0.3-0.3l-0.8-0.3l-0.6,0.3l0,0.3l-0.3-0.1l-0.2-0.7l-0.3-0.4
	l-0.3-0.1l-0.2-0.2l0.1-0.4l-0.1-0.8l-0.3-0.9l-0.1-0.6l-0.3-0.8l-0.3-1.3l-0.7-2.1v-0.2l-0.3-0.7l0.2,0l0.1,0.7l0.2-0.1l-0.2-0.9
	l-0.2-0.3l-0.1-0.4l0.1-0.3l-0.3-0.2l0-0.3l-0.4-0.1l-0.1-0.3l-0.2-1.1l-0.1-0.2l-0.3-1.3l-0.7-2.2l-0.1-0.6l-0.5-1.5l-0.5-1.2
	l-0.1-0.6l-0.6-1.5l-0.6-1.4l0.4-0.1l0.3,0.6l0.9,0.2l0.5,0.9l0.1,0.5l-0.1,0.4l0.1,0.3l0.3,0.2l0.2,0.3l0.5-0.2l0.3-0.3l0.3-0.6
	l0.2-0.2l0.7,0.1l0.3-0.1l0.1-0.7L362,158l-0.6-0.4l0-0.7l-0.2-0.6l0.1-0.1l0.5,0l0.2-0.2l0.3,0.1l0.3-0.1l1-1.1l0.2-0.7l0.5,0.1
	l1.6-1.8l0.7-0.4l0.2-0.8l0.2-0.2l0.6-0.4l0.2-0.2l0.4-1.8l0.5-0.3l0.4,0.1l0.3,0.2l0.3,0l0.4,0.1l0.5,0.5l0.3,0.7l0.3,0.3l0.4-0.1
	l0.1-0.5l0.6,0.2l0.4-0.1l0.1-0.3l-0.1-0.4l-0.2-0.3l-0.1-0.6l0.3-0.2l0.9,0.1l0.4,0.1l0.3,0.3l0.8,0.5l0.3,0.4l0.1,0.9l-0.3,0.6
	l-0.1,0.9l-0.2,0.3l0,0.2l0.2,0.3l0.7,0.7l-0.2,0.5l0.5,0l0.4,0.2l0.7,0.6l0.2,0.2l0.3,0.8l0.4,0.1l0.4,0.5l0.6,0.5l0.1,0.7l0.3,0.2
	l0.1,0.3l0.6-0.1l0.8,0.1l0.5-0.1l0.2,0.2l0.5,0.1l0.7-0.1l0.5,0.2l0.2,0.3l0.7,0.5l-0.1,0.2l-0.4,0.3l-0.5,0.6l0.1,1l0,0.6
	l-0.1,1.1l-0.1,0.4l0,1.2l-0.1,0.3l0,0.6l0.5,0.5l0.1,0.8l0.1,0.2l1.3,1.2l0.8,0.2l0.6,0.5l0.4,0.1l0.4,0.2l0,0.7l0.1,0.5l0,0.5
	l0.7,1l0.4,0.4l0.4,0.5l0.5,0.4l0.2,0.4l0.7,0.6l0.6,0.5l0.6,0.7l0.5,0.2l0.7,0.4l0.6,0.7l0.2-0.3l0.2-0.1l0.4,0.2l0.4-0.6l0.4,0.1
	l0.8-1.2l0.2,0l0.9,1.4l0.1,0.7l0.3,0.5l-0.3,0.4l0.4,0.6l0.7,0.2l0.6,0.5l0.6,0.3l0.6,0.8l0.4,0.8l0.5,0.6l-0.2,0.5l0.1,0.6l0.2,1
	l-0.2,0.7l-0.6-0.6l-1.1,1.7l-0.5-0.2l-0.4,0.1l0.1,0.7l-0.4,0.5l-0.1,1.1l0.1,1.3L397,190l-0.2,0.8l0.4,1.2l1,0.7l0.3-0.4l0.1,0.1
	l0,0.5l0.1,0.4l0,0.4l-0.2,0.5l-0.6,0.3l-1.2,0.4l-1.4,1.5l0,0.9l-0.7,0.4l-0.4,0.6l-0.5,0.5l-0.4,0.3l-0.6-0.2l-0.7,0.1l-0.7-0.3
	l-0.6,0.9l-0.3,0.1l-0.7,0.6l-0.4-0.3l-0.2-0.3l-0.7-0.7l-0.5,0.5l-0.4,0.8l-0.3,0.3l-0.4,0.2l-1.2,0l-0.4,0.1l-0.9,0.9l-0.3,0.1
	l-0.8-0.7l-0.1,0.3l-0.1,0.8l-0.4,0.4l-0.4,0l-0.4,0.3l-0.3,0.5l-0.4,1.1l-0.6,0.5l-0.2,0.9l0.4,0.4l0.9,0.5l0.4-0.2l0.4,0.1
	l0.2,0.2l-0.1,0.4l-0.4,0.7l-0.8,0.4l-0.3-0.1l-0.3,0.2l-0.1,0.3l-0.6,0.7l-0.1,0.3L379.9,210z M379.1,210.9l-0.2,0.6l-0.3-0.1
	l0.2-0.4L379.1,210.9z"/>
<path id="Malappuram" class="st0" d="M395,250.2l-0.1,0.5l-0.4,0.2l-0.2,0.4l-0.4,0.3l-0.2,0.9l-0.3-0.1l-0.2,0.2l-0.4,0l-0.1-0.2
	l-0.4,0.6l-0.7,0.2l-0.5,0.3l-0.6,0.6l-0.4-0.2l-0.1-0.2l-0.3-0.2l-0.5-0.1l-0.7,0.1l0,0.7l-0.2-0.1l0-0.5h-0.5l-0.3-0.1l-0.3,0.3
	l-0.4-1.4l-0.4-1.2l-1-2.9l-0.1-0.6l-0.6-1.8l-0.1-0.6l-0.2-0.4l-0.5-1.3l-0.4-2l-0.2-1.6l-0.7-4.2l-0.1-0.3l-0.2-1.3l-0.1-0.7
	l-0.6-3.5l-0.3-1.9l-0.8-4l-0.1-0.2l-0.2-1.2l-0.2-1l-0.1-0.2l-0.1-0.8L380,220l-0.1-1l-0.3-1.6l-0.2-0.5l-0.4-1.7l0-0.4l-0.3-1.2
	l-0.2-1l-0.1-0.7l0.2-0.3l0.2-0.1l0.3-0.6v-0.3l0.2-0.5l0.5-0.3l-0.1-0.3l0.1-0.3l0.6-0.7l0.1-0.3l0.3-0.2l0.3,0.1l0.8-0.4l0.4-0.7
	l0.1-0.4l-0.2-0.2l-0.4-0.1l-0.4,0.2l-0.9-0.5l-0.4-0.4l0.2-0.9l0.6-0.5l0.4-1.1l0.3-0.5l0.4-0.3l0.4,0l0.4-0.4l0.1-0.8l0.1-0.3
	l0.8,0.7l0.3-0.1l0.9-0.9l0.4-0.1l1.2,0l0.4-0.2l0.3-0.3l0.4-0.8l0.5-0.5l0.7,0.7l0.2,0.3l0.4,0.3l0.7-0.6l0.3-0.1l0.6-0.9l0.7,0.3
	l0.7-0.1l0.6,0.2l0.4-0.3l0.5-0.5l0.4-0.6l0.7-0.4l0-0.9l1.4-1.5l1.2-0.4l0.6-0.3l0.2-0.5l0-0.4l-0.1-0.4l0-0.5l-0.1-0.1l-0.3,0.4
	l-1-0.7l-0.4-1.2l0.2-0.8l0.4-0.9l-0.1-1.3l0.1-1.1l0.4-0.5l-0.1-0.7l0.4-0.1l0.5,0.2l1.1-1.7l0.6,0.6l0.2-0.7l-0.2-1l-0.1-0.6
	l0.2-0.5l1.6-0.9l0.3-0.6l0.5-0.2l0.6-0.4l0.1-0.5l-0.2-0.6l0.5-1.2l0.8-1.1l1.5-0.5l0.3-0.6l0.4-0.5l0.6-0.1l0.6,1.3l0.2,1
	l-0.3,1.8l-0.1,1.5l0.5-0.4l0.8-0.9l0.6,0.4l0.9-0.6l0.6,0.6l0.1,0.2l-0.3,0.3l0.3,0.6l0.6-0.2l0.6,0.5l1.1,0.8l0.9-1.3l0.4,0.4
	l1,0.3l0.6,0.3l0.6,0.7l1.4,1.2l1.4-0.5l0,0.8l-0.1,1l0.7,0.9l1.5,1.4l0.6,0.9l1.7,0.6l2.7,1.4L427,190l-0.2,0.6l0.2,0.1l0.5-0.2
	l1,0.1l0.6-0.4l0.2,2.3l-0.1,0.6l-0.3,0.4l-0.3,0.6l-0.1,0.6l0.1,0.7l0.7,0.3l-0.4,0.4l-0.9,0.6l-0.4,0.8l-0.2,0.8l0,0.2l-1.8,0.9
	l-3,2.1l-0.2,2.9l-0.3,0.5l-0.4-0.1l-0.4,0.2l-1-0.4l-0.7,0l0,0.8l-0.4,1.3l0.4,0.6l0.3,0.6l-0.3,1.6l0.4,1.2l-0.3,0.8l-0.1,1.3
	l0.1,0.5l-0.5,0l-0.7,0.5l-0.3,0.6l-0.7,0.2l-0.4,0.3l-0.6-0.1l-0.4,0.1l-0.3,0.2l-0.5,0.2l-0.4,0.4l-0.9,1.5v0.6l0.1,0.4l-0.2,0.4
	l0,0.3l-0.3,0.4l-0.4,0.2l-0.7-0.3l-0.3,0.4l-0.9-0.2l-0.1,0.6l-0.6,0.6l0.1,0.6l-0.1,0.6l0.2,0.3l0.6-0.4l0.9-0.1l0.7,0.1l0.8,0.3
	l-0.2,1l0,0.6l0.7,0.7h0.6l1.8,0.2l0,0.3l-0.2,0.7l-0.4,1l-0.3-0.1l-0.6,0l-0.3-0.2l-0.6,0l-0.2-0.4l-0.4,0.2l-0.2,1l0,0.4l-0.1,0.5
	l-0.3,0.3v1.9l0.2,0.5l0.4,0.6l0.1,0.4l0,1.2l-0.5,0l-0.2-0.1l-0.1-0.5l-0.3-0.1l-0.8,0l-0.5-0.6l-0.6,0.5l-0.6-0.2l-0.5,0.1
	l-0.2-0.1l-0.4,0.3l-0.2,0.8l-0.8,1.8l-0.6,0l-0.7,0.1l-0.3-0.5l-0.1-0.4l-0.5-0.7l-0.1-0.4l0-0.5l-0.3-0.1l-0.2,0.2l-0.3,0.6
	l-0.1,0.7l-0.5,0.1l-0.8-0.1l-0.2-0.4l0-0.5l-0.3-0.2l-0.6,0.4l-0.1-0.2l-0.1-0.6l-0.6,0l-0.3,0.4l-0.1,1l-0.6,0.9l-0.3,0.1
	l-0.4-0.3l-0.6-0.5l-0.2,0.1l-0.1,0.7l0.2,0.5l0,0.4l-0.2,0.1l-0.6-0.2l-0.2,0.2l0,0.8l-0.2,0.4l-0.2,0.1l-0.4-0.3l-0.2,0.5l0.1,1.1
	l-0.1,0.6l-0.3,0.5l-0.4,0.2l-1.8,0.2l-0.9-0.5l-0.2-0.2l-0.4-0.1l-0.3,0.2l-0.4,0.9l-0.2,0.8l-0.3,0l-0.1,0.3l0.3,0.5l0.4,0.3
	l-0.1,0.6l0.9,0.3l-0.1,0.2l0.2,0.4l-0.1,0.3l-0.4,0.1l-0.2,3l0.1,0.1l-0.1,0.7l0.4,0l0,0.5l0.1,0.5l0.4-0.1l0.4,0.1l0.3-0.2
	l0.2,0.5l0,0.4l0.2,0.4L395,250.2z"/>
<path id="Palakkad" class="st0" d="M449.6,287.3l-0.5,0.1l-0.3-0.3l-0.6-0.8l-0.7,0.3l-0.2,0.7l-1,0.1l-0.3-0.1l-0.4-0.3l-0.4-0.1
	l-0.1,0.4l-0.3,0.2l-0.7-0.2l-0.6,0l-0.1-0.2l0.1-0.4l-0.1-0.4l0.4-0.2l0.2-0.2l0.3-0.7l0-0.4l-0.3,0.1l-0.3,0l-0.7-0.5l-0.4-0.1
	l-1.1-0.5l-0.4-0.1l-0.5,0l-0.4,0.2l-0.2,0.7l-0.5,0.1l-0.6,0l-0.2-0.1l-0.1-0.4l-0.8-0.3L437,283l-0.2,0.3l-0.1,0.4l-0.8-0.5
	l-0.6,0.3l-0.3,0.4l-0.2-0.1l0-0.5l-0.4,0.1l-0.3-0.2l-0.2-0.6l-0.7-1.2l-0.1-0.5l-0.4-1.3l-0.2-0.3l-0.3-0.7l-0.5-0.6l-0.5-0.1
	l-0.7,0l-0.3,0.1l-0.4,0.4l-0.1-0.2l0-0.9l-0.2-0.2l-1.1-0.3l-0.2-0.2l-0.5-1.2l-0.3-0.3l-0.8-0.5l-0.4-0.1l-0.3-0.2l-0.9-0.4
	l-0.4-0.5l-0.5,0l-0.2-0.2l-0.4-0.7l-0.2-0.2l0-0.5l-0.4-0.4l-0.1-0.4l-0.7-1l-0.4,0l-0.2-0.5l-0.6-0.6l0-0.5l0.4-1.6l-0.5-0.1
	l0-0.5l-0.2-0.2l-0.1-0.8l-0.2-0.1l-0.1-0.4l-0.5,0l-0.3,0.4l-0.1-0.5l-0.4-0.9l-0.1-0.6l0.1-0.4l0.4,0.3l0.3,0l0.1-0.3l0-0.5
	l0.4-0.1l0.2-0.2l0.3-0.8l-0.2-0.4l0-0.6l-0.4,0l-0.1-0.2l0.4-1.4l0-0.4l0.3-0.3l0.5,0l0-0.4l0.2-0.3l0.1-0.5l0.7,0.4l0.1-0.8
	l-0.1-0.9l-0.5-1.5l0-0.4l0.4-0.3l0.6,0.1l0.3-0.6l0.3-1.4l0.2-0.3l0.6-0.5l0.1-0.4l-0.2-0.5l-0.4-0.2l-0.1-0.2l0.3-0.6l-0.3-0.4
	l-0.6,0l-0.8,0.2l-0.7,0.1l-0.8-0.1l-0.7,0.1h-0.7l-0.5,0.2l-0.5-0.2l-0.2-0.4l-0.3-0.8l-0.1-0.3l-0.3-0.4l-0.3,0l-1,0.4l-0.3,0.5
	l-0.2,1.1l-0.2,0.2l-0.4-0.1l-0.8-0.3l-0.3,0.1l-0.8,0.3l-0.5-0.1l-1.5-0.9l-0.7-0.2l-0.6,0.2l-0.9,0l-0.5,0.4l-0.7,0.3l-0.3-0.2
	l-0.1-0.3l0-1.5l-0.2-0.4l-0.7,0l-0.6-0.8l-0.2-0.1l-0.6,0.4l-0.3-0.1l-0.6-0.3l-0.6-0.1l-0.2,0.2l1,1.2l-0.1,1.4l-0.5,0.1l-0.4,0.4
	l-0.1,0.5l-0.2,0.4l-0.5,0.5l-0.1,0.6l-0.6,0.9l-0.1,0.6l-0.3,0.4l-0.2,0.4l-0.3-0.3l-0.2-0.7l-0.2,0.3l-0.6-0.6l-0.5,0l-0.4-0.3
	l-0.3,0.7l-0.2,0.2l-0.5-0.3l-0.6-0.7l-0.8-0.4l-1.3-0.1l-0.7-0.2l0.1-0.3l-0.2-0.4l0-0.4l-0.2-0.5l-0.3,0.2l-0.4-0.1l-0.4,0.1
	l-0.1-0.5l0-0.5l-0.4,0l0.1-0.7l-0.1-0.1l0.2-3l0.4-0.1l0.1-0.3l-0.2-0.4l0.1-0.2l-0.9-0.3l0.1-0.6l-0.4-0.3l-0.3-0.5l0.1-0.3l0.3,0
	l0.2-0.8l0.4-0.9l0.3-0.2l0.4,0.1l0.2,0.2l0.9,0.5l1.8-0.2l0.4-0.2l0.3-0.5l0.1-0.6l-0.1-1.1l0.2-0.5l0.4,0.3l0.2-0.1l0.2-0.4l0-0.8
	l0.2-0.2l0.6,0.2l0.2-0.1l0-0.4l-0.2-0.5l0.1-0.7l0.2-0.1l0.6,0.5l0.4,0.3l0.3-0.1l0.6-0.9l0.1-1l0.3-0.4l0.6,0l0.1,0.6l0.1,0.2
	l0.6-0.4l0.3,0.2l0,0.5l0.2,0.4l0.8,0.1l0.5-0.1l0.1-0.7l0.3-0.6l0.2-0.2l0.3,0.1l0,0.5l0.1,0.4l0.5,0.7l0.1,0.4l0.3,0.5l0.7-0.1
	l0.6,0l0.8-1.8l0.2-0.8l0.4-0.3l0.2,0.1l0.5-0.1l0.6,0.2l0.6-0.5l0.5,0.6l0.8,0l0.3,0.1l0.1,0.5l0.2,0.1l0.5,0l0-1.2l-0.1-0.4
	l-0.4-0.6l-0.2-0.5v-1.9l0.3-0.3l0.1-0.5l0-0.4l0.2-1l0.4-0.2l0.2,0.4l0.6,0l0.3,0.2l0.6,0l0.3,0.1l0.4-1l0.2-0.7l0-0.3l-1.8-0.2
	H414l-0.7-0.7l0-0.6l0.2-1l-0.8-0.3l-0.7-0.1l-0.9,0.1l-0.6,0.4l-0.2-0.3l0.1-0.6l-0.1-0.6l0.6-0.6l0.1-0.6l0.9,0.2l0.3-0.4l0.7,0.3
	l0.4-0.2l0.3-0.4l0-0.3l0.2-0.4l-0.1-0.4v-0.6l0.9-1.5l0.4-0.4l0.5-0.2l0.3-0.2l0.4-0.1l0.6,0.1l0.4-0.3l0.7-0.2l0.3-0.6l0.7-0.5
	l0.5,0l-0.1-0.5l0.1-1.3l0.3-0.8l-0.4-1.2l0.3-1.6l-0.3-0.6l-0.4-0.6l0.4-1.3l0-0.8l0.7,0l1,0.4l0.4-0.2l0.4,0.1l0.2,0.3l0.2,0
	l0.7,1l0.4-0.4l0.5-0.2l0-1.2l0.6-0.2l0.9-0.1l1,0l0.3,0.1l0.3,0.6l0.8,0.5l1.1,0.1l0.9-0.4l2.1-0.4l1.1-0.1l0.6,0.2l1.5,0.9
	l0.5-0.5l0.9-0.5l0.8-0.7l1-0.6l0.7-0.8l0-0.4l0.1-0.4l1.2-0.4l1,1.2l0.7,0.6l0.1,0.3l0.3,0.2l-0.6,0.8v0.6l0.2,0.8l-0.5,0.6
	l-0.5-0.2l-0.4,0.5l-0.3,0.3l-0.2,0.5l-0.3,0.2l-0.2,0.7l0.4,1.2l0.3,0.4l0.1,0.7l0.5,0.1l0.1-0.4l-0.2-0.2l0-0.3l0.5,0.1l0.2,0.7
	l0.2,0.4l0.5,0.6l0.5-0.3l0.4,0l0.3,0.4l0,0.6l0.1,0.5l-0.1,0.6l-0.3,0.4l-0.1,0.5l0.3,0.9l0.3-0.2l0.2,0.2l0,0.5l0.1,0.4l-0.1,0.4
	l-0.8,0.7l0,0.5l0.1,0.4l0.1,0.7l0.2,0.2l0.4-0.1l0.3,0l0.3,0.7l0.5,0.5l0.4,0.2l0.6-0.2l1-1.5l0.2,0.2l-0.1,0.4l-0.4,1l-0.4,0.3
	l-1.8,0.4l-0.9-0.1l-0.8-0.3l-1.4-0.3l-0.4,0.1l-0.5,0.8l-0.6,0.5l-0.8,1.7l0.1,0.6L439,225l-0.1,0.6l-1.2,1.8l-0.1,1l-0.3,0.8
	l0.2,0.3l-0.1,0.4l-0.6,0.5l0.1,0.5l0.3,0.4l1.6,1.3l0.7,0.4l0.6,0l0.5,0.1l0.8,0.5l0.5,0.5l0.3,0.2l0.4,0.1l0.3,0.6l0.5-0.3l0.7,0
	l0.9,0.5l0.3-0.2l0.5,0l0.3,0.3l0.3,0.5l0.3,0.2l0.4,0.1l1.9,0.9l0.2,0.3l0.3,0.8l0.2,0.3l0.5,0.4l0.3,0.5l0.3,0.6l0.2,0.5l-0.1,0.4
	l-0.5,0.7l0.2,0.8l0.9-0.1l0.5,0.8l1.6-0.1l0.5,0.1l0.2,0.7l0.4,2l-0.1,0.5l-0.2,0.5l0,0.5l-0.1,0.5l-0.4,0.7l-0.1,0.6l-0.5,1
	l-0.1,0.6l0.1,0.7l0.2,0.5l-0.2,0.1l-0.4-0.1l-0.7,1.3l-0.2,0.6l0,0.5l-0.1,0.3l-0.3,0.2l0,0.3l0.6,0.5l0.3,0.1l0.2,0.2l0,0.7
	l0.2,0.3l0.2,1.4l-0.1,0.9l-0.9,0.4l-0.5,0.1l-0.6-0.2l-0.5,0l-0.5,0.1l-0.6-0.1l-0.5,0.1l-0.7,0l0,0.5l-0.2,0.6l0.1,0.5l0.2,0.2
	l0.1,0.3l-0.1,0.9l0.5,0.6l0.6-0.1l0.3,0.1l0.1,0.3l0,0.8l-0.2,0.9l0,0.6l0.2,0.4l0.1,0.4l-0.3,0.9l-0.1,0.5l0.5,0.8l0,0.4l-0.4,2.1
	l-0.4,1.2l0,1l-0.3,4l-0.7,2.2l0.3,0.3l0.2,0.9l0.5-0.2l0.1,0.9l-0.5,0.7l0.3,0.5l0.3,0.6l0.4,0.3l0.5,0.9l0.1,0.3l-0.2,0.6l0,0.6
	l-0.6,0.8l-0.1,0.3L449.6,287.3z"/>
<path id="Kollam_1_" class="st0" d="M436.3,400.3l0.8,0l0.4-0.2l0.1-0.3l-0.1-0.8l0.2-0.6l0.2,0l0.4,0.2l0.1-0.4l-0.1-0.4l-0.5-0.7
	l-0.7-1.3l-1-0.2l-0.3-0.7l-0.2,0l0,0.5l-0.2-0.1l-0.2-0.6l0.1-0.3l0-0.6l-0.2-1.2l1-0.4l0.3-0.5l-0.3-1.1l0.2-0.6l0.5-0.9l1-0.2
	l0.3-1l0.7-0.3l0.1-0.4l0-0.8l-0.5,0l-0.2,0.4l-0.3-0.4l-0.3,0.5l-0.3,0.1l-0.2,0.2l-0.3-0.1l-0.3,0l-0.3-0.2l-0.1-0.6v-0.9
	l-0.5-0.8l-0.6-1.3l0.4-0.5l-0.2-0.5l0.1-0.4l-0.1-0.2h-0.7l-0.2,0.2l-0.3,0l-1.4-0.5l-0.3-0.3l-0.3-0.1l-0.7,0l-0.4,0.1l-0.6-0.6
	l-0.6,0.4l-0.3,0.3l-0.2-0.3l-0.3,0.2l0.2,0.3l0.4,0.1l-0.1,0.5l-0.3,0.2l0,1l-0.3,0.2l-0.9,0.3l-0.2-0.3l-0.3-0.1l-1-0.1l-0.6,0.3
	l-0.4,0l-0.9-0.5l-0.6,0l-0.3-0.3l0.1-0.5l0.8-1.2l0.4,0l1.2-0.6l0.1-0.9l0.6,0l0-0.2l-0.4-0.1l-0.4-0.4l-0.1-0.5l0.2,0v-0.5
	l0.2-0.5l-0.2-0.6l0.2-0.6l0-0.7l0.6,0l0.2-0.4l0.5-0.4l0.2,0.2l0.3-0.1l0.3-0.6l0.3-0.1l0.3,0.1l0.2,0.4l0.1,0.5l0.3,0.1l0.3-0.1
	l0.5-0.4l0.4-0.4l0.3-0.1l0.7,0.4l0.2,0.2l0.2-0.2l0-0.3l-0.3-0.6l0.1-0.9l-0.2-0.4l0-0.3l0.6-0.4l0.2,0l0-0.8l0.2-0.1l0.3,0.4
	l0.1-0.5l0.3-0.2l0.9,0l-0.1-0.3l0.1-0.4l0.3-0.2l0.3,0.6l0.3-0.6l0-0.6l0.9-0.4l0.6-0.1l0.7,0.1l0.5-0.2l0.5,0.4l0.5,0l0.5,0.1
	l0.1,0.2l0,0.9l0.2,0.2l0.3,0.7l0.4,0l0.3-0.4l0.7-0.4l0.2-0.2l-0.1-0.4l0.2-0.3l0.7,0l0.2-0.1l0.4,1.1l-0.2,0.8l0.1,0.2l0.3-0.1
	l0.2,0.2l0.2,0.8l0.2,0.3l0.5-0.1l0.2-0.2l0.7-0.4l0.2-0.1l0.5,0.2l0.1-0.6l0.2-0.1l0.2,0.2l0.1-0.3l0.8,0l0.2-0.1l0.3,0.3l0.3,0.6
	l0.2-0.1l0.1-0.3l0.6,0.1l0.5,0.2l0.4,0l0.2-0.3l0.2-0.6l0.7,0.6l0.6,0.4l0.8,0.1l0.4,0.3l0.5,0.5l0.9,0.8l0.8,0.1l0.1,0.2l0,0.5
	l0.6-0.1l0.3-0.3l0.2,0l0.1-0.8l1.7,0l1,0.4l1,0.2l0.5-0.1l0.4,0.4l0.6-0.1l0,1l0.6,0.2l0.3-0.1l0.3,0l0.2-0.2l0.4-0.2l0.5-0.1
	l0.8-0.4l0.7,0.1l0.2-0.1l-0.3-0.8l-0.4-0.8l-0.6-1.7l0.1-0.5l0.3-0.3l0.6,0.1l0.5,0.4l0.2,0l0.5-0.3l0.6-0.3l0.4-0.4l0.8-1.2l0.5,0
	l0.6,0.1l0.2-0.3l0.5-1l0.7,0.2l0.1,0.3l0,0.5l-0.1,0.4l0,0.6l0.1,0.9l0.9-0.8l0.4,0l0.4-0.1l0.2,0.8l0.4-0.5l0.5-0.4l0.2,0.9
	l-0.2,0.4l0.2,0.3l0.2-0.1l0.1,0.5l0.2,0.1l0.4-0.1l0.3,0.1l0.2-0.2l0.4,0.5l0.3,0.7l0.7,0.5l-0.1,0.8l0.2,0.2l0,0.4l0.3-0.1
	l0.1,0.3l-0.2,0.5l1.3,2.4l0.1,0.4l-0.1,0.5l-0.3,0.6l-0.1,1l-0.3,0.4l-0.1,0.5l0.2,0.5l0,0.5l-0.2,0.4l-0.3,0.4l0.3,0.6l-0.7,1.1
	l0,1.7l0.2-0.1l0.5,0.4l0.1,0.9l0.2-0.2l0.3,0.3l0.1-0.6l0.7,0.3l0.3,0.5l0.5,0.1l0.5,0.4l0.6,0.4l0,0.4l-0.1,0.2l0,1.1l-0.2,0.3
	l0.1,0.9l-0.3,0.7l0.1,0.7l0.4,0.8l-0.6,0.8l-0.6,0.9l-0.2,0.1l-0.5-0.1l0,0.3l-0.2,0.7l0.5,0.3l0.4,0l0.3,1l-0.2,0.9l0.2,1.2
	l-0.4,0.4l0,0.4l-0.5,0.5l-0.4,1.1l-0.2,0.3L478,403l-0.6,0.6l-0.4,0.2l-0.2,0.8l-0.3,0.2l-0.2,0.4l-0.4,0.3l-0.4,1.2l0.1,0.5
	l0.1,0.5l-0.1,0.3l-0.2,0.1l-0.2-0.3l-0.8-0.5l-0.3,0.2l-0.3,0l-0.3-0.3l-0.3,0.1l-0.6,0l-0.8-0.4l0.1-0.5l-0.3,0.1l-0.4,0l-0.8-0.4
	l-0.9-0.5l-0.8-0.2l-0.3,0l-0.8-0.5l-0.2-0.3l-0.7-0.4l-0.1-0.2l-0.6-0.1l-0.2-0.1l-0.2-0.4l-0.3-0.1l-0.4-0.4l-0.1-0.4l-0.4,0.1
	l-0.5,0.3l-0.5-0.2l-0.2-0.3l-0.5,0.1l-0.5-0.4l-0.6-0.8l-0.7,0.6l-0.4-0.5l-0.7-0.4l-0.7-0.5l-1.8-1.4l-0.8-0.8l-0.5-0.2l-0.1,0.6
	l0,0.4l-0.1,0.5l0.2,1.6l0.4,0.1l0.5,0l0.6,0.5l1.1,0.5l-0.9,0.8l-0.3,0.2l-0.8-0.1l-1-0.5l-0.6-0.1l-0.6,0.1l-0.2,0.6l-0.2-0.9
	l-0.2-0.4l-0.5,0.6l-1-0.6l-0.5,0.7l-0.3-0.2l-0.1,0.6l-0.1,0.1l-0.3-0.2l-0.3,0.6v0.9l-0.1,0.4l-0.8,0.4l-0.3-0.1l-0.3,0.1
	l-0.4-0.2l-0.4-0.5l-0.1-0.4l-0.2-0.2l-0.5-0.2l-1.6-0.4l-1.2,1.5l0.1,0.8l0.2,0.4v1l-0.9,0.1l-0.1-1.3l-0.2-0.2l-0.5,0.6l-0.3,0
	l-0.2-0.3l-0.2,0l-0.2,0.4l-0.5-0.3l-0.3,0.2l-0.6-0.2l-1.4-0.2l-1.7-0.5l-0.9-0.1l-0.2-0.3l0-1l-0.2-0.4l-0.3-0.6l0.5-0.5l0-1.2
	L436.3,400.3z"/>
<path id="Thiruvananthapuram" class="st0" d="M438.9,435.1l0.1-0.7l0.6,0l0.3,0.1l0.3-0.4l0.2-0.1l0.6-0.6l1.5,0.6l0.4,0.1h0.9
	l0.1-0.4l0.5,0.1l0.3-0.3l0-0.6l0.1-0.1l1.3,0l0.1-0.4l-0.2-0.4l-0.3-0.1l0.2-0.4l0.2,0l0.1-0.6l-0.9-1.4l-0.2-0.1l0-0.4l0.2-0.5
	l-0.1-0.6l0.4-0.1l0.1,0.3l0.8,0.2l0.2,0.3l0.3,0.1l0.2-0.4l0.3,0.1l0.3-0.3l0.4,0.3l0.3,1l0.5,0l0.6,0.4l0.3,0.4l0,0.7l0.2,0.2
	l0.2,0.7l0.4,0.1l0.7,0.5l0.7,0.2l0.5,0.4l0.4-0.5l0.7,0l0.8,1.1l0.2,0.5l0.3,0.3l0.2,0.7l-0.5,0.6l1.1,1.3l0.2,0.4l0.5-0.4l0.4-0.4
	l0.3-0.1l0.5,0.1l0.7-0.1l0.3-0.1l0.1-0.5l0.2-0.5l0.2-0.2l0.5,0l0.6,0.3l0.7,1.1l1.1-0.1l0.6-0.2l-0.7-1.4l-0.3-0.9l-0.2-1l0.3-0.5
	l0.5-0.2l0.2-1.3l0.2-0.4l0.3-0.7l0.7-0.3h0.6l2.1,0.7l1.2,0.7l0.6,0.1l0.2,0.4l0.9,0.6l0.3,0.5l0.5,0.5l0.6,0.2l0.4,0.3l0.4,0.5
	l0.3,0.1l0.3,0.4l0.8,0.5l0.4,0.5l0.5,0.4l0.9,0.5l-0.2,0.3l0.2,0.4l0,0.5l-0.2,0.7l-0.3,0.5l-0.4,0.1l-0.6-0.2l-0.4-0.5l-0.1,0.3
	l0.2,0.6l0.4,1l-0.1,0.6l0.4,0.7l0.4,0.4l0.5,0.3l0.3,0.9l0.3,0.6l0.1,0.6l0,0.6l-0.2,0.8l0.2,0.7l0.3,0.6l0.2,0.7l0.5,0.6l0.2,0.4
	l0.3,0.2l0.5,1l0.7,0.5l0,0.9l0,0.5l0.3,0.5l0.4,0.4l0.4,0.7l0.6,0.9l0.6,2.1l0.4,0.6v0.5l-0.5,0.9l-0.4,1l-0.4,1.5l-0.4,0.3
	l-0.6,0.2l-0.3,0.5l-0.4,0.2l-0.4-0.7l-0.8-0.8l-0.6,0l-0.5,0.4l-0.4,0.6l0.3,0.5l0.3,1.8l0.3,0.9l0.5,0.5l0.3,0.5l0.1,0.7l0,0.5
	l-0.8,0.1l-0.7,0.2l-0.4,0.7l-0.2,0.8l0,0.9l-0.5,0.7l-0.4,0.6l-0.2,0.7l-0.8,1l-0.3,0.2l-0.3-0.6l-0.4-0.1l-0.4,0.4l0.1,0.6
	l0.4,0.3l0.1,0.6l-0.6,1l0,0.6l0.4-0.3l0.4-0.5l0.3,0l0.2,0.3l0.1,0.6l-0.4,0.9v0.4l0.2,0.5l0.5,0.8v0.5l-0.3-0.1l-0.2-0.6l-0.2-0.2
	l-0.4,0.2l-0.6,0l-0.4-0.4l-0.6,0.1l-0.7,0.6l-0.2,0.3l-0.6,0.1l0.3,1l-0.5,0l-0.1,0.3l-0.4,0.1l-0.4-0.3l0-0.3l-0.5-0.5l-0.2,0
	l-0.6-0.5l-0.3-0.4l-0.2-0.1l-0.5-0.6l-0.1-0.1l-0.5-0.7l-1.4-1.4l-0.5-0.5l-0.2-0.3l-0.2,0.1l-0.3-0.1l-0.1-0.6l-0.3-0.2l-0.1-0.5
	l-0.2,0l-0.3-0.4l-0.3,0l-0.1,0.1l-0.3-0.2l-0.1-0.3l-0.4-0.2l-0.2-0.7l-0.2-0.1l-0.2-0.4l0.2-0.1l-0.1-0.6l-0.3-0.7l-0.1-0.2
	l-0.2-0.6l-0.2-0.4l-0.3-0.4l-0.3-0.6l-0.4-0.6l-0.6-1.1l-0.5-0.7l-0.2-0.5l-0.3-0.3l-0.6-1.1l-0.7-1l-1.3-2l-0.2-0.3l-0.9-1.5
	l-0.4-0.9l-0.5-0.7l-0.2-0.5l-0.7-1.1l-0.5-0.8l-0.4-0.5l-0.2-0.4l-0.9-1.4l-0.3-0.5l-1.5-2.4l-0.6-0.8l-0.6-1.1l-0.4-0.5l-0.3-0.7
	l-0.5-0.8l-0.1-0.3l-0.3-0.3l-0.2-0.5l-0.7-1l-0.5-0.8l-0.1-0.4l-0.8-1.2l-0.2-0.4l-0.3-0.4l-0.5-0.7l-0.2-0.2l-0.1-0.4l-0.4-0.3
	l-0.1-0.6l-0.5-0.9l-0.6-1.2v-0.2L438.9,435.1z"/>
<path id="Thrissur" class="st0" d="M403.3,301.3l0.2-0.4l0.8-0.4l-0.1-0.4l-0.3,0l-0.8,0.5l-0.8,0.1l0,0.5l-0.2,0.1l-0.3-0.6
	l-0.2-0.8l-0.5-2.1l-0.3-0.8l-0.2-0.9l-0.3-0.9l-0.1-0.7l-0.2-0.5l0-0.4l-0.1-0.4l-0.1-0.9l-0.1-0.3l-0.1-1l-0.1-0.4l-0.2-1.4
	l-0.4-1.6l-0.4-1.8l-0.5-1.5l-0.3-1.2l-0.5-1.6l-0.4-1.5l-0.4-1.1l-0.1-0.5l-0.2-0.5v-0.2l-0.3-0.7l-0.2-0.7l-0.4-0.9l-0.4-1.3
	l-0.3-0.6l-0.7-1.8l-0.4-1l-0.2-0.4l0.2-0.2l-0.1-1l-0.2-0.4l-0.3-0.4l0-0.4l0.2-0.2l0.6,0l0.3,0.1l0.3-0.3l-0.1-0.7l0.3,0.4
	l0.2-0.1l0.3,0.3l0.2-0.3l0.1-0.6l-0.3-0.1L395,267l-0.3-0.2l-0.4,0.1l-0.1-0.2l0-0.5l-0.3-0.4l0-0.3l-0.2-0.4l0.1-0.3l0.3-0.2
	l-0.1-0.3l-0.5,0.2l-0.1,0.3l0.2,0.4v0.2l0.2,0.4l0.1,0.6l0.2,0.2l0.1,1.2l-0.7-0.1l-0.4,0.1l-0.2,0.8l0.4,0.7l0.2,0.9l-0.2,0
	l-0.2-0.4l-0.4-1.1l-0.8-2.3l-0.1-0.6l-0.4-1l0-0.2l-0.4-1l-0.1-0.6l-0.2-0.3l-0.2-1l-0.9-2.7l-0.4-0.9l-0.1-0.4l-0.3-0.9l-0.2-0.8
	l-0.3-0.5l-0.6-1.9l0.3-0.3l0.3,0.1h0.5l0,0.5l0.2,0.1l0-0.7l0.7-0.1l0.5,0.1l0.3,0.2l0.1,0.2l0.4,0.2l0.6-0.6l0.5-0.3l0.7-0.2
	l0.4-0.6l0.1,0.2l0.4,0l0.2-0.2l0.3,0.1l0.2-0.9l0.4-0.3l0.2-0.4l0.4-0.2l0.1-0.5l0.7,0.2l1.3,0.1l0.8,0.4l0.6,0.7l0.5,0.3l0.2-0.2
	l0.3-0.7l0.4,0.3l0.5,0l0.6,0.6l0.2-0.3l0.2,0.7l0.3,0.3l0.2-0.4l0.3-0.4l0.1-0.6l0.6-0.9l0.1-0.6l0.5-0.5l0.2-0.4l0.1-0.5l0.4-0.4
	l0.5-0.1l0.1-1.4l-1-1.2l0.2-0.2l0.6,0.1l0.6,0.3l0.3,0.1l0.6-0.4l0.2,0.1l0.6,0.8l0.7,0l0.2,0.4l0,1.5l0.1,0.3l0.3,0.2l0.7-0.3
	l0.5-0.4l0.9,0l0.6-0.2l0.7,0.2l1.5,0.9l0.5,0.1l0.8-0.3l0.3-0.1l0.8,0.3l0.4,0.1l0.2-0.2l0.2-1.1l0.3-0.5l1-0.4l0.3,0l0.3,0.4
	l0.1,0.3l0.3,0.8l0.2,0.4l0.5,0.2l0.5-0.2h0.7l0.7-0.1l0.8,0.1l0.7-0.1l0.8-0.2l0.6,0l0.3,0.4l-0.3,0.6l0.1,0.2l0.4,0.2l0.2,0.5
	l-0.1,0.4l-0.6,0.5l-0.2,0.3l-0.3,1.4l-0.3,0.6l-0.6-0.1l-0.4,0.3l0,0.4l0.5,1.5l0.1,0.9l-0.1,0.8l-0.7-0.4l-0.1,0.5l-0.2,0.3l0,0.4
	l-0.5,0l-0.3,0.3l0,0.4l-0.4,1.4l0.1,0.2l0.4,0l0,0.6l0.2,0.4l-0.3,0.8l-0.2,0.2l-0.4,0.1l0,0.5l-0.1,0.3l-0.3,0l-0.4-0.3l-0.1,0.4
	l0.1,0.6l0.4,0.9l0.1,0.5l0.3-0.4l0.5,0l0.1,0.4l0.2,0.1l0.1,0.8l0.2,0.2l0,0.5l0.5,0.1l-0.4,1.6l0,0.5l0.6,0.6l0.2,0.5l0.4,0l0.7,1
	l0.1,0.4l0.4,0.4l0,0.5l0.2,0.2l0.4,0.7l0.2,0.2l0.5,0l0.4,0.5l0.9,0.4l0.3,0.2l0.4,0.1l0.8,0.5l0.3,0.3l0.5,1.2l0.2,0.2l1.1,0.3
	l0.2,0.2l0,0.9l0.1,0.2l0.4-0.4l0.3-0.1l0.7,0l0.5,0.1l0.5,0.6l0.3,0.7l0.2,0.3l0.4,1.3l0.1,0.5l0.7,1.2l0.2,0.6l0.3,0.2l0.4-0.1
	l0,0.5l0.2,0.1l0.3-0.4l0.6-0.3l0.8,0.5l0.1-0.4l0.2-0.3l0.8,1.2l0.8,0.3l0.1,0.4l0.2,0.1l0.6,0l0.5-0.1l0.2-0.7l0.4-0.2l0.5,0
	l0.4,0.1l1.1,0.5l0.4,0.1l0.7,0.5l0.3,0l0.3-0.1l0,0.4l-0.3,0.7l-0.2,0.2l-0.4,0.2l0.1,0.4l-0.1,0.4l0.1,0.2l0.6,0l0.7,0.2l0.3-0.2
	l0.1-0.4l0.4,0.1l0.4,0.3l0.3,0.1l1-0.1l0.2-0.7l0.7-0.3l0.6,0.8l0.3,0.3l0.5-0.1l-0.1,1l-0.1,0.7l-0.3,0.9v0.7l0.4,0.1l0.4,0.3
	l0.1,0.7l0.6,0.6l0.1-0.6l0.7,0.1l0.5-0.6l0.2-0.1l0.3,0.1l-0.2,0.7l0,1.2l0,0.2l0.6,0.3l0.4,0.7l0.5,0.1l0.5,1.1l-0.4-0.2l-0.2-0.5
	l-0.4,0.1l-0.2-0.3l-0.5-0.2l-0.1-0.5l-0.5-0.3l-0.1,0.2l-0.2-0.3l-1.3-0.8l-0.1,0.1l-0.3-0.4l-0.1,0l-0.2,0.6l-0.4,0.1l-0.1-0.3
	l-0.6-0.3l-0.5-0.2l-0.5,0l-0.5,0.8l-0.3-0.3l-0.3,0.2l-0.6,0.1l-0.4,0l0,0.5l-0.4,0.1l-0.7,0.1l-0.5-0.5l-0.3-0.3l-0.4,0.3
	l-0.5,0.1l-0.5,0.2l-1.5,0.2l-0.2,0.2l-0.5,0.2l-0.7-0.2l-0.5-0.2l-0.9-0.2l-0.4-0.7l-0.4-0.2l-0.9,0l-0.2,0.5l-0.3,0.2l-1,0.1
	l-0.2-0.1l-0.3-0.5l-1-0.2l-0.6-0.5l-0.3-0.5l-0.1-0.6l-0.3,0l-0.5-0.3l-0.6,0.5l-0.2,0.3l0.4,1l-0.7-0.1l-0.5,0.2l-0.3,0l-0.5-0.4
	l-0.4-0.1l-1.1,0.3l-0.6-0.1l-1,0l-0.3-0.1l-0.4-0.4h-1.5l-0.9-0.4l-0.8,0l-0.7,0.3l-0.3,0.1l-0.3,0.2l-1-0.5l-0.1,0.1l0.1,0.6
	l-0.2,0.1l0,0.8l-0.5,0.1l-0.4,0.4l-0.2,0.6l-0.4,0.4l-0.1,0.3l0,0.4l-0.3,0.2l-0.4,0l-0.1,0.2l0,0.6l-0.4,0.5l-2,0.7l-0.2,0.2
	l-0.1,0.4l-0.1,1.1l-0.2,0.3l-0.3,0.3l-1.2,0.3l-0.1,0.3l0.1,0.7v0.7l0.1,0.6l-0.6-0.4l-0.2,0.1l-0.4,0.6l-0.4,0l-1.1,0.3l-0.1-0.5
	l-0.4-0.8l-0.4-0.1l-0.1-0.6l0.2-0.3l-0.2-0.1l-0.6-0.1l-0.2,0.1L407,300l-0.3,0.1l-0.6-0.1l-0.5-0.3l-0.3,0.5l-0.2,0l-0.1,0.4
	l-0.6,0.1L403.3,301.3z"/>
<path id="Wayanad" class="st0" d="M407.3,174.3l-0.6,0.1l-0.4,0.5l-0.3,0.6l-1.5,0.5l-0.8,1.1l-0.5,1.2l0.2,0.6l-0.1,0.5l-0.6,0.4
	l-0.5,0.2l-0.3,0.6l-1.6,0.9l-0.5-0.6l-0.4-0.8l-0.6-0.8l-0.6-0.3l-0.6-0.5l-0.7-0.2l-0.4-0.6l0.3-0.4l-0.3-0.5l-0.1-0.7l-0.9-1.4
	l-0.2,0l-0.8,1.2l-0.4-0.1l-0.4,0.6l-0.4-0.2l-0.2,0.1l-0.2,0.3l-0.6-0.7l-0.7-0.4l-0.5-0.2l-0.6-0.7l-0.6-0.5l-0.7-0.6l-0.2-0.4
	l-0.5-0.4l-0.4-0.5l-0.4-0.4l-0.7-1l0-0.5l-0.1-0.5l0-0.7l-0.4-0.2l-0.4-0.1l-0.6-0.5l-0.8-0.2l-1.3-1.2l-0.1-0.2l-0.1-0.8l-0.5-0.5
	l0-0.6l0.1-0.3l0-1.2l0.1-0.4l0.1-1.1l0-0.6l-0.1-1l0.5-0.6l0.4-0.3l0.1-0.2l-0.7-0.5l-0.2-0.3l-0.5-0.2l-0.7,0.1l-0.5-0.1l-0.2-0.2
	l-0.5,0.1l-0.8-0.1l-0.6,0.1l-0.1-0.3l-0.3-0.2l-0.1-0.7l-0.6-0.5l-0.4-0.5l-0.4-0.1l-0.3-0.8l-0.2-0.2l-0.7-0.6l-0.4-0.2l-0.5,0
	l0.2-0.5l-0.7-0.7L375,152l0-0.2l0.2-0.3l0.1-0.9l0.3-0.6l-0.1-0.9l-0.3-0.4l-0.8-0.5l0.2-0.6l0.2-0.3l0.4-0.3l0.3-0.1l0.3-0.2
	l0.1-0.4v-0.5l-0.1-0.5l-0.3-0.3l-0.2-0.4l0.2-1l0.6,0l0.2-0.2l0.3-0.6l0.7-0.1l0.5,0.4l0.7,0.1l0.5-0.4l0.2,0l0.4,0.5l0.4,0.2
	l0.5-0.2l0.3,0.3l0.6-0.1l0.3,0.3l0.5-0.1l0.3,0.2l0.3-0.1l0.4,0.1l0.9-0.3l0.3,0.1l0.2-0.2l0.4,0.5l0.1-0.3l0-0.8l0.2-0.8l-0.8-0.7
	l-0.4-0.5l1.1-0.6l0.5-0.8l0.1-0.6l0-0.7l-0.1-0.8l-0.7-1.1l0-0.6l0.4-1.2l0.4,0.2l0.4-0.2l0.8-0.1l0.5,0.2l0.3,0.3l0.6,0.1l0.3-0.1
	l0.3,0.2l0.5,0l0.8,0.2l0.3,0l0.4-0.8l0.7-0.1l0.3-0.2l0.8,0.2l0.6-0.6l0.2-0.4l0.4-0.1l1.4-1.3l0.4-0.3l0.6,0.1l0.7-0.1l1.2-0.9
	l0.1,4l-0.1,4.9l0.1,0.5l0,1.1l-0.1,0.7l0.6,0.8l0.6-0.2l1-1.2l0.7-0.4l0.9,0.1l0.8-0.2l0.7-0.1l0.9,0.8l0.4,0.1l0.2,0.5l0.1,1
	l0.1,0.7l-0.1,1.2l0.5,0.5l0.2,0.9l0.3,0.4l1,0.3l0.9,0.1l0.6-0.4l0.9-0.1l0.5-0.3l0.2,0.3l0.6,1.5l0.8,0.7l0.4,0.2l0.2,0.6l0.5,2.4
	l0.5,0.3l0.5,0.2l0.8,0.8l0.8,0l0.4-0.4l0.3-0.5l1.2,0.4l0.8-0.8l0.5,0.2l1-0.7l0.2-0.3l0.2,0.7l-0.3,0.6l-0.1,0.7l0.5-0.1l0.4,0.8
	l0.1,0.4l-0.1,0.8l-0.5,0.4l-0.2,0.6l-0.2,0.1l-0.2-0.3l-0.5,0.5l0.5,0.2l-0.1,1.6l0.4,1.3l0.2,0.5l0.5,0.1l0.4,0.4l0.3,1.1l0.5,0.6
	l0.1,0.4l-0.1,0.4l-0.2,0.4l-0.4,0.1l-0.1,0.6l-0.2-0.2l-1.8,0l-1.1,0.3l-0.2,0.7v1l-0.4,0.4l0,0.7l-0.4,0.2l-1.1,0.8l-0.7,0.2
	l-0.3,0.2l-0.1-0.2V168l-0.4-0.3l-1.2,1.1l-0.1,0.8l-0.3-0.1l-0.5,0.6l-0.3-0.1l0-0.6l-0.2-0.8l-0.3-0.2l-0.6-0.1l-0.1-0.6l-0.4-0.3
	l-0.3,0.4l-0.5,0.2l-2.4,2.1l0.1,0.4l0.5,1.3l0.3,1.2l0.3,0.4l0,0.4l-0.2,0.3L407.3,174.3z"/>
<path id="Layer" class="st1" d="M790,262h10v10h-10V262z"/>
<path id="Layer_1_" class="st1" d="M0,0"/>
<path id="Alappuzha_1_" d="M347.7,366.5l-1.8-4.7l-1.7,4.7H347.7z M341.6,370l3.6-9.5h1.5l3.6,9.5h-1.3l-0.9-2.4h-4.3l-0.9,2.4
	H341.6z M351.6,370v-9.9h1.2v9.9H351.6z M359.6,366.4h-1.2c-0.9,0-1.6,0.1-2,0.3c-0.4,0.2-0.5,0.6-0.5,1.1c0,0.4,0.1,0.8,0.4,1
	c0.3,0.2,0.6,0.4,1.1,0.4c0.6,0,1.2-0.2,1.6-0.7c0.4-0.5,0.6-1.1,0.6-1.8V366.4z M360.8,365.9v4.1h-1.2v-1.1c-0.3,0.4-0.6,0.8-1,1
	c-0.4,0.2-0.9,0.3-1.5,0.3c-0.7,0-1.3-0.2-1.7-0.6c-0.4-0.4-0.6-1-0.6-1.6c0-0.8,0.3-1.4,0.8-1.8c0.5-0.4,1.3-0.6,2.4-0.6h1.6v-0.1
	c0-0.5-0.2-1-0.5-1.2s-0.9-0.4-1.5-0.4c-0.4,0-0.8,0.1-1.2,0.1c-0.4,0.1-0.8,0.2-1.1,0.4v-1.1c0.4-0.2,0.8-0.3,1.2-0.4
	c0.4-0.1,0.8-0.1,1.2-0.1c1,0,1.8,0.3,2.3,0.8C360.5,364.1,360.8,364.9,360.8,365.9z M364.3,368.9v3.8h-1.2v-9.8h1.2v1.1
	c0.2-0.4,0.6-0.7,0.9-0.9c0.4-0.2,0.8-0.3,1.4-0.3c0.9,0,1.6,0.3,2.1,1c0.5,0.7,0.8,1.6,0.8,2.7c0,1.1-0.3,2-0.8,2.7
	c-0.5,0.7-1.2,1-2.1,1c-0.5,0-1-0.1-1.4-0.3C364.9,369.7,364.6,369.4,364.3,368.9z M368.3,366.5c0-0.9-0.2-1.5-0.5-2
	c-0.3-0.5-0.8-0.7-1.5-0.7c-0.6,0-1.1,0.2-1.5,0.7c-0.4,0.5-0.5,1.2-0.5,2c0,0.9,0.2,1.5,0.5,2c0.4,0.5,0.8,0.7,1.5,0.7
	c0.6,0,1.1-0.2,1.5-0.7C368.1,368,368.3,367.3,368.3,366.5z M372.6,368.9v3.8h-1.2v-9.8h1.2v1.1c0.2-0.4,0.6-0.7,0.9-0.9
	c0.4-0.2,0.8-0.3,1.4-0.3c0.9,0,1.6,0.3,2.1,1c0.5,0.7,0.8,1.6,0.8,2.7c0,1.1-0.3,2-0.8,2.7c-0.5,0.7-1.2,1-2.1,1
	c-0.5,0-1-0.1-1.4-0.3C373.1,369.7,372.8,369.4,372.6,368.9z M376.5,366.5c0-0.9-0.2-1.5-0.5-2c-0.4-0.5-0.8-0.7-1.5-0.7
	c-0.6,0-1.1,0.2-1.5,0.7c-0.4,0.5-0.5,1.2-0.5,2c0,0.9,0.2,1.5,0.5,2c0.4,0.5,0.8,0.7,1.5,0.7c0.6,0,1.1-0.2,1.5-0.7
	C376.4,368,376.5,367.3,376.5,366.5z M379.6,367.2v-4.3h1.2v4.3c0,0.7,0.1,1.2,0.4,1.5c0.3,0.3,0.7,0.5,1.2,0.5
	c0.6,0,1.1-0.2,1.5-0.6c0.4-0.4,0.6-1,0.6-1.6v-4h1.2v7.1h-1.2v-1.1c-0.3,0.4-0.6,0.8-1,1c-0.4,0.2-0.8,0.3-1.3,0.3
	c-0.8,0-1.4-0.3-1.9-0.8C379.8,368.9,379.6,368.2,379.6,367.2z M382.5,362.7L382.5,362.7z M387.4,363.8v-0.9h5.5v1.1l-4.4,5.1h4.4
	v0.9h-5.7v-1.1l4.4-5.1H387.4z M400.7,365.7v4.3h-1.2v-4.2c0-0.7-0.1-1.2-0.4-1.5c-0.3-0.3-0.7-0.5-1.2-0.5c-0.6,0-1.1,0.2-1.5,0.6
	c-0.4,0.4-0.5,0.9-0.5,1.6v4h-1.2v-9.9h1.2v3.9c0.3-0.4,0.6-0.8,1-1c0.4-0.2,0.8-0.3,1.3-0.3c0.8,0,1.4,0.3,1.9,0.8
	C400.4,364,400.7,364.7,400.7,365.7z M407.4,366.4h-1.2c-0.9,0-1.6,0.1-2,0.3c-0.4,0.2-0.6,0.6-0.6,1.1c0,0.4,0.1,0.8,0.4,1
	c0.3,0.2,0.6,0.4,1.1,0.4c0.6,0,1.2-0.2,1.6-0.7c0.4-0.5,0.6-1.1,0.6-1.8V366.4z M408.5,365.9v4.1h-1.2v-1.1c-0.3,0.4-0.6,0.8-1,1
	c-0.4,0.2-0.9,0.3-1.5,0.3c-0.7,0-1.3-0.2-1.7-0.6c-0.4-0.4-0.6-1-0.6-1.6c0-0.8,0.3-1.4,0.8-1.8c0.5-0.4,1.3-0.6,2.4-0.6h1.6v-0.1
	c0-0.5-0.2-1-0.5-1.2s-0.9-0.4-1.5-0.4c-0.4,0-0.8,0.1-1.2,0.1c-0.4,0.1-0.8,0.2-1.1,0.4v-1.1c0.4-0.2,0.8-0.3,1.2-0.4
	c0.4-0.1,0.8-0.1,1.2-0.1c1,0,1.8,0.3,2.3,0.8C408.3,364.1,408.5,364.9,408.5,365.9z"/>
<path id="Ernakulam_1_" d="M333.7,319v-9.5h6v1.1H335v2.8h4.5v1.1H335v3.4h4.8v1.1H333.7z M345.9,311.8l0,1.2
	c-0.1-0.1-0.3-0.1-0.4-0.2c-0.2,0-0.3-0.1-0.5-0.1c-0.7,0-1.2,0.2-1.5,0.6c-0.4,0.4-0.5,1-0.5,1.8v3.8h-1.2v-7.1h1.2v1.1
	c0.2-0.4,0.6-0.8,1-1c0.4-0.2,0.9-0.3,1.4-0.3c0.1,0,0.2,0,0.3,0C345.7,311.7,345.8,311.8,345.9,311.8z M352.9,314.7v4.3h-1.2v-4.2
	c0-0.7-0.1-1.2-0.4-1.5c-0.3-0.3-0.7-0.5-1.2-0.5c-0.6,0-1.1,0.2-1.5,0.6c-0.4,0.4-0.5,0.9-0.5,1.6v4h-1.2v-7.1h1.2v1.1
	c0.3-0.4,0.6-0.8,1-1c0.4-0.2,0.8-0.3,1.3-0.3c0.8,0,1.4,0.3,1.9,0.8S352.9,313.7,352.9,314.7z M359.6,315.4h-1.2
	c-0.9,0-1.6,0.1-2,0.3c-0.4,0.2-0.5,0.6-0.5,1.1c0,0.4,0.1,0.8,0.4,1c0.3,0.2,0.6,0.4,1.1,0.4c0.6,0,1.2-0.2,1.6-0.7
	c0.4-0.5,0.6-1.1,0.6-1.8V315.4z M360.8,314.9v4.1h-1.2v-1.1c-0.3,0.4-0.6,0.8-1,1c-0.4,0.2-0.9,0.3-1.5,0.3c-0.7,0-1.3-0.2-1.7-0.6
	c-0.4-0.4-0.6-1-0.6-1.6c0-0.8,0.3-1.4,0.8-1.8c0.5-0.4,1.3-0.6,2.4-0.6h1.6v-0.1c0-0.5-0.2-1-0.5-1.2s-0.9-0.4-1.5-0.4
	c-0.4,0-0.8,0-1.2,0.1c-0.4,0.1-0.8,0.2-1.1,0.4v-1.1c0.4-0.2,0.8-0.3,1.2-0.4c0.4-0.1,0.8-0.1,1.2-0.1c1,0,1.8,0.3,2.3,0.8
	C360.5,313.1,360.8,313.9,360.8,314.9z M363.1,319v-9.9h1.2v5.8l3.5-3.1h1.5l-3.8,3.3l3.9,3.8h-1.5l-3.6-3.5v3.5H363.1z
	 M370.2,316.2v-4.3h1.2v4.3c0,0.7,0.1,1.2,0.4,1.5c0.3,0.3,0.7,0.5,1.2,0.5c0.6,0,1.1-0.2,1.5-0.6c0.4-0.4,0.6-1,0.6-1.6v-4h1.2v7.1
	H375v-1.1c-0.3,0.4-0.6,0.8-1,1c-0.4,0.2-0.8,0.3-1.3,0.3c-0.8,0-1.4-0.3-1.9-0.8C370.4,317.9,370.2,317.2,370.2,316.2z
	 M373.1,311.7L373.1,311.7z M378.5,319v-9.9h1.2v9.9H378.5z M386.5,315.4h-1.2c-0.9,0-1.6,0.1-2,0.3c-0.4,0.2-0.5,0.6-0.5,1.1
	c0,0.4,0.1,0.8,0.4,1c0.3,0.2,0.6,0.4,1.1,0.4c0.6,0,1.2-0.2,1.5-0.7c0.4-0.5,0.6-1.1,0.6-1.8V315.4z M387.7,314.9v4.1h-1.2v-1.1
	c-0.3,0.4-0.6,0.8-1,1c-0.4,0.2-0.9,0.3-1.5,0.3c-0.7,0-1.3-0.2-1.7-0.6c-0.4-0.4-0.6-1-0.6-1.6c0-0.8,0.3-1.4,0.8-1.8
	c0.5-0.4,1.3-0.6,2.4-0.6h1.6v-0.1c0-0.5-0.2-1-0.5-1.2s-0.8-0.4-1.5-0.4c-0.4,0-0.8,0-1.2,0.1c-0.4,0.1-0.8,0.2-1.1,0.4v-1.1
	c0.4-0.2,0.8-0.3,1.2-0.4c0.4-0.1,0.8-0.1,1.2-0.1c1,0,1.8,0.3,2.3,0.8C387.4,313.1,387.7,313.9,387.7,314.9z M395.6,313.3
	c0.3-0.5,0.6-0.9,1-1.2c0.4-0.2,0.9-0.4,1.4-0.4c0.7,0,1.3,0.3,1.7,0.8c0.4,0.5,0.6,1.2,0.6,2.2v4.3h-1.2v-4.2
	c0-0.7-0.1-1.2-0.4-1.5c-0.2-0.3-0.6-0.5-1.1-0.5c-0.6,0-1.1,0.2-1.4,0.6c-0.4,0.4-0.5,0.9-0.5,1.6v4h-1.2v-4.2
	c0-0.7-0.1-1.2-0.4-1.5c-0.2-0.3-0.6-0.5-1.1-0.5c-0.6,0-1.1,0.2-1.4,0.6c-0.4,0.4-0.5,1-0.5,1.6v4H390v-7.1h1.2v1.1
	c0.3-0.4,0.6-0.8,1-1c0.4-0.2,0.8-0.3,1.3-0.3c0.5,0,1,0.1,1.3,0.4C395.2,312.4,395.5,312.8,395.6,313.3z"/>
<path id="Idukki_1_" d="M496.8,329v-9.5h1.3v9.5H496.8z M505.2,323v-3.9h1.2v9.9h-1.2v-1.1c-0.2,0.4-0.5,0.7-0.9,1
	c-0.4,0.2-0.8,0.3-1.3,0.3c-0.9,0-1.6-0.3-2.1-1c-0.5-0.7-0.8-1.6-0.8-2.7c0-1.1,0.3-2,0.8-2.7c0.5-0.7,1.2-1,2.1-1
	c0.5,0,1,0.1,1.3,0.3C504.7,322.2,505,322.5,505.2,323z M501.3,325.5c0,0.9,0.2,1.5,0.5,2c0.4,0.5,0.8,0.7,1.5,0.7
	c0.6,0,1.1-0.2,1.5-0.7c0.4-0.5,0.5-1.2,0.5-2c0-0.9-0.2-1.5-0.5-2s-0.8-0.7-1.5-0.7c-0.6,0-1.1,0.2-1.5,0.7
	S501.3,324.6,501.3,325.5z M508.7,326.2v-4.3h1.2v4.3c0,0.7,0.1,1.2,0.4,1.5c0.3,0.3,0.7,0.5,1.2,0.5c0.6,0,1.1-0.2,1.5-0.6
	c0.4-0.4,0.5-1,0.5-1.6v-4h1.2v7.1h-1.2v-1.1c-0.3,0.4-0.6,0.8-1,1c-0.4,0.2-0.8,0.3-1.3,0.3c-0.8,0-1.4-0.3-1.9-0.8
	C508.9,327.9,508.7,327.2,508.7,326.2z M511.6,321.7L511.6,321.7z M517,329v-9.9h1.2v5.8l3.5-3.1h1.5l-3.8,3.3l3.9,3.8h-1.5
	l-3.6-3.5v3.5H517z M524.5,329v-9.9h1.2v5.8l3.5-3.1h1.5l-3.8,3.3l3.9,3.8h-1.5l-3.6-3.5v3.5H524.5z M532.1,329v-7.1h1.2v7.1H532.1z
	 M532.1,320.6v-1.5h1.2v1.5H532.1z"/>
<path id="Kannur_1_" d="M380.4,116v-9.5h1.3v4l4.2-4h1.6l-4.7,4.4l5,5.1h-1.7l-4.5-4.6v4.6H380.4z M393,112.4h-1.2
	c-0.9,0-1.6,0.1-2,0.3c-0.4,0.2-0.5,0.6-0.5,1.1c0,0.4,0.1,0.8,0.4,1c0.3,0.2,0.7,0.4,1.1,0.4c0.6,0,1.2-0.2,1.6-0.7
	c0.4-0.5,0.6-1.1,0.6-1.8V112.4z M394.2,111.9v4.1H393v-1.1c-0.3,0.4-0.6,0.8-1,1c-0.4,0.2-0.9,0.3-1.5,0.3c-0.7,0-1.3-0.2-1.7-0.6
	c-0.4-0.4-0.6-1-0.6-1.6c0-0.8,0.3-1.4,0.8-1.8c0.5-0.4,1.3-0.6,2.4-0.6h1.6v-0.1c0-0.5-0.2-1-0.5-1.2c-0.3-0.3-0.8-0.4-1.5-0.4
	c-0.4,0-0.8,0.1-1.2,0.2c-0.4,0.1-0.8,0.2-1.1,0.4v-1.1c0.4-0.2,0.8-0.3,1.2-0.4c0.4-0.1,0.8-0.1,1.2-0.1c1,0,1.8,0.3,2.3,0.8
	C394,110.1,394.2,110.9,394.2,111.9z M402.5,111.7v4.3h-1.2v-4.2c0-0.7-0.1-1.2-0.4-1.5c-0.3-0.3-0.7-0.5-1.2-0.5
	c-0.6,0-1.1,0.2-1.5,0.6c-0.4,0.4-0.5,0.9-0.5,1.6v4h-1.2v-7.1h1.2v1.1c0.3-0.4,0.6-0.8,1-1c0.4-0.2,0.8-0.3,1.3-0.3
	c0.8,0,1.4,0.3,1.9,0.8C402.3,110,402.5,110.7,402.5,111.7z M410.8,111.7v4.3h-1.2v-4.2c0-0.7-0.1-1.2-0.4-1.5
	c-0.3-0.3-0.7-0.5-1.2-0.5c-0.6,0-1.1,0.2-1.5,0.6c-0.4,0.4-0.5,0.9-0.5,1.6v4h-1.2v-7.1h1.2v1.1c0.3-0.4,0.6-0.8,1-1
	c0.4-0.2,0.8-0.3,1.3-0.3c0.8,0,1.4,0.3,1.9,0.8C410.6,110,410.8,110.7,410.8,111.7z M413,113.2v-4.3h1.2v4.3c0,0.7,0.1,1.2,0.4,1.5
	c0.3,0.3,0.7,0.5,1.2,0.5c0.6,0,1.1-0.2,1.5-0.6c0.4-0.4,0.6-1,0.6-1.7v-4h1.2v7.1h-1.2v-1.1c-0.3,0.4-0.6,0.8-1,1
	c-0.4,0.2-0.8,0.3-1.3,0.3c-0.8,0-1.4-0.3-1.9-0.8C413.2,114.9,413,114.2,413,113.2z M415.9,108.7L415.9,108.7z M425.5,108.8l0,1.2
	c-0.1-0.1-0.3-0.1-0.4-0.2c-0.2,0-0.3-0.1-0.5-0.1c-0.7,0-1.2,0.2-1.5,0.7c-0.3,0.4-0.5,1-0.5,1.8v3.8h-1.2v-7.1h1.2v1.1
	c0.2-0.4,0.6-0.8,1-1c0.4-0.2,0.9-0.3,1.4-0.3c0.1,0,0.2,0,0.3,0C425.2,108.7,425.3,108.8,425.5,108.8z"/>
<path id="Kasaragod_1_" d="M360,82v-9.5h1.3v4l4.2-4h1.7l-4.7,4.4l5,5.1h-1.7l-4.5-4.6V82H360z M372.7,78.4h-1.2
	c-0.9,0-1.6,0.1-2,0.3c-0.4,0.2-0.5,0.6-0.5,1.1c0,0.4,0.1,0.8,0.4,1c0.3,0.2,0.6,0.4,1.1,0.4c0.6,0,1.2-0.2,1.6-0.7
	c0.4-0.5,0.6-1.1,0.6-1.8V78.4z M373.8,77.9V82h-1.2v-1.1c-0.3,0.4-0.6,0.8-1,1c-0.4,0.2-0.9,0.3-1.5,0.3c-0.7,0-1.3-0.2-1.7-0.6
	c-0.4-0.4-0.6-1-0.6-1.6c0-0.8,0.3-1.4,0.8-1.8c0.5-0.4,1.3-0.6,2.4-0.6h1.6v-0.1c0-0.5-0.2-1-0.5-1.2c-0.3-0.3-0.8-0.4-1.5-0.4
	c-0.4,0-0.8,0.1-1.2,0.2c-0.4,0.1-0.8,0.2-1.1,0.4v-1.1c0.4-0.2,0.8-0.3,1.2-0.4c0.4-0.1,0.8-0.1,1.2-0.1c1,0,1.8,0.3,2.3,0.8
	C373.6,76.1,373.8,76.9,373.8,77.9z M380.8,75.1v1.1c-0.3-0.2-0.7-0.3-1-0.4c-0.4-0.1-0.7-0.1-1.1-0.1c-0.6,0-1,0.1-1.3,0.3
	c-0.3,0.2-0.4,0.4-0.4,0.8c0,0.3,0.1,0.5,0.3,0.6s0.6,0.3,1.2,0.4l0.4,0.1c0.8,0.2,1.4,0.4,1.8,0.8c0.3,0.3,0.5,0.8,0.5,1.3
	c0,0.7-0.3,1.2-0.8,1.6c-0.5,0.4-1.2,0.6-2.1,0.6c-0.4,0-0.8,0-1.2-0.1c-0.4-0.1-0.8-0.2-1.3-0.3v-1.2c0.4,0.2,0.9,0.4,1.3,0.5
	c0.4,0.1,0.8,0.2,1.2,0.2c0.6,0,1-0.1,1.3-0.3c0.3-0.2,0.4-0.5,0.4-0.8c0-0.3-0.1-0.6-0.3-0.7c-0.2-0.2-0.7-0.3-1.4-0.5l-0.4-0.1
	c-0.7-0.2-1.2-0.4-1.6-0.7c-0.3-0.3-0.5-0.8-0.5-1.3c0-0.7,0.2-1.2,0.7-1.5c0.5-0.4,1.1-0.5,2-0.5c0.4,0,0.8,0,1.2,0.1
	C380.1,74.9,380.4,75,380.8,75.1z M387.4,78.4h-1.2c-0.9,0-1.6,0.1-2,0.3c-0.4,0.2-0.5,0.6-0.5,1.1c0,0.4,0.1,0.8,0.4,1
	c0.3,0.2,0.7,0.4,1.1,0.4c0.6,0,1.2-0.2,1.6-0.7c0.4-0.5,0.6-1.1,0.6-1.8V78.4z M388.6,77.9V82h-1.2v-1.1c-0.3,0.4-0.6,0.8-1,1
	c-0.4,0.2-0.9,0.3-1.5,0.3c-0.7,0-1.3-0.2-1.7-0.6c-0.4-0.4-0.6-1-0.6-1.6c0-0.8,0.3-1.4,0.8-1.8c0.5-0.4,1.3-0.6,2.4-0.6h1.6v-0.1
	c0-0.5-0.2-1-0.5-1.2c-0.3-0.3-0.8-0.4-1.5-0.4c-0.4,0-0.8,0.1-1.2,0.2c-0.4,0.1-0.8,0.2-1.1,0.4v-1.1c0.4-0.2,0.8-0.3,1.2-0.4
	c0.4-0.1,0.8-0.1,1.2-0.1c1,0,1.8,0.3,2.3,0.8C388.3,76.1,388.6,76.9,388.6,77.9z M395.1,74.8l0,1.2c-0.1-0.1-0.3-0.1-0.4-0.2
	c-0.2,0-0.3-0.1-0.5-0.1c-0.7,0-1.2,0.2-1.5,0.7c-0.4,0.4-0.5,1-0.5,1.8V82h-1.2v-7.1h1.2V76c0.2-0.4,0.6-0.8,1-1
	c0.4-0.2,0.9-0.3,1.4-0.3c0.1,0,0.2,0,0.3,0C394.9,74.7,395,74.8,395.1,74.8z M400.7,78.4h-1.2c-0.9,0-1.6,0.1-2,0.3
	c-0.4,0.2-0.6,0.6-0.6,1.1c0,0.4,0.1,0.8,0.4,1c0.3,0.2,0.6,0.4,1.1,0.4c0.6,0,1.2-0.2,1.6-0.7c0.4-0.5,0.6-1.1,0.6-1.8V78.4z
	 M401.9,77.9V82h-1.2v-1.1c-0.3,0.4-0.6,0.8-1,1c-0.4,0.2-0.9,0.3-1.5,0.3c-0.7,0-1.3-0.2-1.7-0.6c-0.4-0.4-0.6-1-0.6-1.6
	c0-0.8,0.3-1.4,0.8-1.8c0.5-0.4,1.3-0.6,2.4-0.6h1.6v-0.1c0-0.5-0.2-1-0.5-1.2c-0.3-0.3-0.8-0.4-1.5-0.4c-0.4,0-0.8,0.1-1.2,0.2
	c-0.4,0.1-0.8,0.2-1.1,0.4v-1.1c0.4-0.2,0.8-0.3,1.2-0.4c0.4-0.1,0.8-0.1,1.2-0.1c1,0,1.8,0.3,2.3,0.8
	C401.6,76.1,401.9,76.9,401.9,77.9z M409,78.4c0-0.8-0.2-1.5-0.5-2c-0.3-0.5-0.8-0.7-1.5-0.7c-0.6,0-1.1,0.2-1.5,0.7
	c-0.3,0.5-0.5,1.1-0.5,2c0,0.8,0.2,1.5,0.5,2c0.4,0.5,0.8,0.7,1.5,0.7c0.6,0,1.1-0.2,1.5-0.7C408.8,79.9,409,79.2,409,78.4z
	 M410.1,74.9v6.2c0,1.2-0.3,2.1-0.8,2.7c-0.5,0.6-1.4,0.9-2.5,0.9c-0.4,0-0.8,0-1.2-0.1c-0.4-0.1-0.7-0.2-1.1-0.3v-1.1
	c0.3,0.2,0.7,0.3,1,0.4c0.3,0.1,0.7,0.1,1,0.1c0.8,0,1.3-0.2,1.7-0.6s0.6-1,0.6-1.8v-0.6c-0.2,0.4-0.5,0.7-0.9,0.9
	c-0.4,0.2-0.8,0.3-1.4,0.3c-0.9,0-1.6-0.3-2.1-1c-0.5-0.7-0.8-1.5-0.8-2.6s0.3-2,0.8-2.6c0.5-0.7,1.2-1,2.1-1c0.5,0,1,0.1,1.4,0.3
	c0.4,0.2,0.7,0.5,0.9,0.9v-1.1H410.1z M415.3,75.7c-0.6,0-1.1,0.2-1.5,0.7c-0.4,0.5-0.5,1.2-0.5,2c0,0.9,0.2,1.5,0.5,2
	s0.9,0.7,1.5,0.7c0.6,0,1.1-0.2,1.5-0.7c0.4-0.5,0.5-1.2,0.5-2c0-0.8-0.2-1.5-0.5-2C416.4,76,415.9,75.7,415.3,75.7z M415.3,74.7
	c1,0,1.8,0.3,2.4,1c0.6,0.7,0.9,1.6,0.9,2.7c0,1.2-0.3,2.1-0.9,2.7c-0.6,0.7-1.4,1-2.4,1c-1,0-1.8-0.3-2.4-1
	c-0.6-0.7-0.9-1.6-0.9-2.7s0.3-2.1,0.9-2.7C413.5,75,414.3,74.7,415.3,74.7z M425.2,76v-3.8h1.2V82h-1.2v-1.1
	c-0.2,0.4-0.6,0.7-0.9,0.9c-0.4,0.2-0.8,0.3-1.3,0.3c-0.9,0-1.6-0.3-2.1-1c-0.5-0.7-0.8-1.6-0.8-2.7c0-1.1,0.3-2,0.8-2.7
	c0.5-0.7,1.2-1,2.1-1c0.5,0,1,0.1,1.3,0.3C424.6,75.2,424.9,75.5,425.2,76z M421.2,78.4c0,0.9,0.2,1.5,0.5,2
	c0.4,0.5,0.8,0.7,1.5,0.7c0.6,0,1.1-0.2,1.5-0.7c0.4-0.5,0.5-1.2,0.5-2c0-0.9-0.2-1.5-0.5-2c-0.4-0.5-0.8-0.7-1.5-0.7
	c-0.6,0-1.1,0.2-1.5,0.7C421.4,76.9,421.2,77.6,421.2,78.4z"/>
<path id="Kollam_2_" d="M380.4,417v-9.5h1.3v4l4.2-4h1.6l-4.7,4.4l5,5.1h-1.7l-4.5-4.6v4.6H380.4z M391,410.7
	c-0.6,0-1.1,0.2-1.5,0.7c-0.4,0.5-0.5,1.2-0.5,2c0,0.9,0.2,1.5,0.5,2c0.4,0.5,0.9,0.7,1.5,0.7c0.6,0,1.1-0.2,1.5-0.7
	c0.4-0.5,0.5-1.2,0.5-2c0-0.8-0.2-1.5-0.5-2C392.1,411,391.6,410.7,391,410.7z M391,409.7c1,0,1.8,0.3,2.4,1
	c0.6,0.7,0.9,1.6,0.9,2.7c0,1.2-0.3,2.1-0.9,2.7c-0.6,0.7-1.4,1-2.4,1c-1,0-1.8-0.3-2.4-1c-0.6-0.7-0.9-1.6-0.9-2.7
	c0-1.2,0.3-2.1,0.9-2.7C389.2,410.1,390,409.7,391,409.7z M396.2,417v-9.9h1.2v9.9H396.2z M399.8,417v-9.9h1.2v9.9H399.8z
	 M407.8,413.4h-1.2c-0.9,0-1.6,0.1-2,0.3s-0.5,0.6-0.5,1.1c0,0.4,0.1,0.8,0.4,1c0.3,0.2,0.6,0.4,1.1,0.4c0.6,0,1.2-0.2,1.5-0.7
	c0.4-0.5,0.6-1.1,0.6-1.8V413.4z M409,412.9v4.1h-1.2v-1.1c-0.3,0.4-0.6,0.8-1,1c-0.4,0.2-0.9,0.3-1.5,0.3c-0.7,0-1.3-0.2-1.7-0.6
	c-0.4-0.4-0.6-1-0.6-1.6c0-0.8,0.3-1.4,0.8-1.8c0.5-0.4,1.3-0.6,2.4-0.6h1.6v-0.1c0-0.5-0.2-1-0.5-1.2s-0.8-0.4-1.5-0.4
	c-0.4,0-0.8,0.1-1.2,0.1c-0.4,0.1-0.8,0.2-1.1,0.4v-1.1c0.4-0.2,0.8-0.3,1.2-0.4c0.4-0.1,0.8-0.1,1.2-0.1c1,0,1.8,0.3,2.3,0.8
	C408.7,411.1,409,411.9,409,412.9z M416.9,411.3c0.3-0.5,0.6-0.9,1-1.2c0.4-0.2,0.9-0.4,1.4-0.4c0.7,0,1.3,0.3,1.7,0.8
	c0.4,0.5,0.6,1.2,0.6,2.2v4.3h-1.2v-4.2c0-0.7-0.1-1.2-0.4-1.5c-0.2-0.3-0.6-0.5-1.1-0.5c-0.6,0-1.1,0.2-1.4,0.6
	c-0.4,0.4-0.5,0.9-0.5,1.6v4h-1.2v-4.2c0-0.7-0.1-1.2-0.4-1.5c-0.2-0.3-0.6-0.5-1.1-0.5c-0.6,0-1.1,0.2-1.4,0.6
	c-0.3,0.4-0.5,1-0.5,1.6v4h-1.2v-7.1h1.2v1.1c0.3-0.4,0.6-0.8,1-1c0.4-0.2,0.8-0.3,1.3-0.3c0.5,0,1,0.1,1.3,0.4
	C416.5,410.4,416.7,410.8,416.9,411.3z"/>
<path id="Kott." d="M426,355v-9.5h1.3v4l4.3-4h1.6l-4.7,4.4l5,5.1h-1.7l-4.6-4.6v4.6H426z M436.6,348.7c-0.6,0-1.1,0.2-1.5,0.7
	c-0.4,0.5-0.6,1.2-0.5,2c0,0.9,0.2,1.5,0.5,2c0.4,0.5,0.9,0.7,1.5,0.7c0.6,0,1.1-0.2,1.5-0.7c0.4-0.5,0.6-1.2,0.6-2
	c0-0.8-0.2-1.5-0.6-2C437.7,349,437.2,348.7,436.6,348.7z M436.6,347.7c1,0,1.8,0.3,2.4,1c0.6,0.7,0.9,1.6,0.9,2.7
	c0,1.2-0.3,2.1-0.9,2.7c-0.6,0.7-1.4,1-2.4,1c-1,0-1.8-0.3-2.4-1c-0.6-0.7-0.9-1.6-0.9-2.7c0-1.2,0.3-2.1,0.9-2.7
	C434.8,348.1,435.6,347.7,436.6,347.7z M441.8,345.9h1.2v2h2.4v0.9H443v3.9c0,0.6,0.1,0.9,0.2,1.1c0.2,0.2,0.5,0.2,1,0.2h1.2v1h-1.2
	c-0.9,0-1.5-0.2-1.9-0.5c-0.3-0.3-0.5-1-0.5-1.8v-3.9h-0.9v-0.9h0.9V345.9z M446.9,345.9h1.2v2h2.4v0.9H448v3.9
	c0,0.6,0.1,0.9,0.2,1.1c0.2,0.2,0.5,0.2,1,0.2h1.2v1h-1.2c-0.9,0-1.5-0.2-1.9-0.5c-0.3-0.3-0.5-1-0.5-1.8v-3.9H446v-0.9h0.9V345.9z
	 M452.2,355v-1.6h1.3v1.6H452.2z"/>
<path id="Kozhikode" d="M297,194v-9.5h1.3v4l4.3-4h1.6l-4.7,4.4l5,5.1h-1.7l-4.6-4.6v4.6H297z M307.5,187.7c-0.6,0-1.1,0.2-1.5,0.7
	c-0.4,0.5-0.5,1.2-0.5,2c0,0.9,0.2,1.5,0.5,2c0.4,0.5,0.9,0.7,1.5,0.7c0.6,0,1.1-0.2,1.5-0.7c0.4-0.5,0.6-1.2,0.6-2
	c0-0.8-0.2-1.5-0.6-2C308.7,188,308.2,187.7,307.5,187.7z M307.5,186.7c1,0,1.8,0.3,2.4,1c0.6,0.7,0.9,1.6,0.9,2.7
	c0,1.2-0.3,2.1-0.9,2.7c-0.6,0.7-1.4,1-2.4,1c-1,0-1.8-0.3-2.4-1c-0.6-0.7-0.9-1.6-0.9-2.7c0-1.2,0.3-2.1,0.9-2.7
	C305.7,187.1,306.5,186.7,307.5,186.7z M312.2,187.8v-0.9h5.5v1.1l-4.4,5.1h4.4v0.9h-5.7v-1.1l4.4-5.1H312.2z M325.5,189.7v4.3h-1.2
	v-4.2c0-0.7-0.1-1.2-0.4-1.5c-0.3-0.3-0.7-0.5-1.2-0.5c-0.6,0-1.1,0.2-1.5,0.6c-0.4,0.4-0.5,0.9-0.5,1.6v4h-1.2v-9.9h1.2v3.9
	c0.3-0.4,0.6-0.8,1-1c0.4-0.2,0.8-0.3,1.3-0.3c0.8,0,1.4,0.3,1.9,0.8C325.3,188,325.5,188.7,325.5,189.7z M327.8,194v-7.1h1.2v7.1
	H327.8z M327.8,185.6v-1.5h1.2v1.5H327.8z M331.4,194v-9.9h1.2v5.8l3.5-3.1h1.5l-3.8,3.3l3.9,3.8h-1.5l-3.6-3.5v3.5H331.4z
	 M341.2,187.7c-0.6,0-1.1,0.2-1.5,0.7c-0.4,0.5-0.5,1.2-0.5,2c0,0.9,0.2,1.5,0.5,2c0.4,0.5,0.9,0.7,1.5,0.7c0.6,0,1.1-0.2,1.5-0.7
	c0.4-0.5,0.5-1.2,0.5-2c0-0.8-0.2-1.5-0.5-2C342.4,188,341.9,187.7,341.2,187.7z M341.2,186.7c1,0,1.8,0.3,2.4,1
	c0.6,0.7,0.9,1.6,0.9,2.7c0,1.2-0.3,2.1-0.9,2.7c-0.6,0.7-1.4,1-2.4,1c-1,0-1.8-0.3-2.4-1c-0.6-0.7-0.9-1.6-0.9-2.7
	c0-1.2,0.3-2.1,0.9-2.7C339.4,187.1,340.2,186.7,341.2,186.7z M351.1,188v-3.9h1.2v9.9h-1.2v-1.1c-0.2,0.4-0.6,0.7-0.9,1
	c-0.4,0.2-0.8,0.3-1.3,0.3c-0.9,0-1.6-0.3-2.1-1c-0.5-0.7-0.8-1.6-0.8-2.7c0-1.1,0.3-2,0.8-2.7c0.5-0.7,1.2-1,2.1-1
	c0.5,0,1,0.1,1.3,0.3C350.6,187.2,350.9,187.5,351.1,188z M347.1,190.4c0,0.9,0.2,1.5,0.5,2c0.4,0.5,0.8,0.7,1.5,0.7
	s1.1-0.2,1.5-0.7c0.4-0.5,0.5-1.2,0.5-2c0-0.9-0.2-1.5-0.5-2s-0.8-0.7-1.5-0.7s-1.1,0.2-1.5,0.7S347.1,189.6,347.1,190.4z
	 M360.8,190.1v0.6h-5.4c0,0.8,0.3,1.4,0.7,1.9c0.4,0.4,1,0.6,1.8,0.6c0.4,0,0.9-0.1,1.3-0.2c0.4-0.1,0.8-0.3,1.3-0.5v1.1
	c-0.4,0.2-0.9,0.3-1.3,0.4c-0.4,0.1-0.9,0.1-1.3,0.1c-1.1,0-2-0.3-2.7-1c-0.7-0.7-1-1.6-1-2.7c0-1.2,0.3-2.1,0.9-2.8
	c0.6-0.7,1.5-1,2.5-1c1,0,1.7,0.3,2.3,0.9C360.5,188.3,360.8,189.1,360.8,190.1z M355.4,189.8l4.2,0c0-0.6-0.2-1.2-0.5-1.5
	c-0.3-0.4-0.8-0.6-1.4-0.6c-0.7,0-1.2,0.2-1.6,0.5C355.7,188.6,355.5,189.1,355.4,189.8z"/>
<path id="Malappuram_1_" d="M435.9,187v-9.5h1.9l2.4,6.4l2.4-6.4h1.9v9.5h-1.2v-8.3l-2.4,6.5h-1.3l-2.4-6.5v8.3H435.9z M451.5,183.4
	h-1.2c-0.9,0-1.6,0.1-2,0.3c-0.4,0.2-0.6,0.6-0.6,1.1c0,0.4,0.1,0.7,0.4,1c0.3,0.2,0.6,0.4,1.1,0.4c0.6,0,1.2-0.2,1.6-0.7
	c0.4-0.5,0.6-1.1,0.6-1.8V183.4z M452.6,182.9v4.1h-1.2v-1.1c-0.3,0.4-0.6,0.8-1,1c-0.4,0.2-0.9,0.3-1.5,0.3c-0.7,0-1.3-0.2-1.7-0.6
	c-0.4-0.4-0.6-1-0.6-1.6c0-0.8,0.3-1.4,0.8-1.8c0.5-0.4,1.3-0.6,2.4-0.6h1.6v-0.1c0-0.5-0.2-1-0.5-1.2s-0.9-0.4-1.5-0.4
	c-0.4,0-0.8,0.1-1.2,0.1c-0.4,0.1-0.8,0.2-1.1,0.4v-1.1c0.4-0.2,0.8-0.3,1.2-0.4c0.4-0.1,0.8-0.1,1.2-0.1c1,0,1.8,0.3,2.3,0.8
	C452.4,181.1,452.6,181.9,452.6,182.9z M455,187v-9.9h1.2v9.9H455z M463,183.4h-1.2c-0.9,0-1.6,0.1-2,0.3c-0.4,0.2-0.5,0.6-0.5,1.1
	c0,0.4,0.1,0.7,0.4,1c0.3,0.2,0.6,0.4,1.1,0.4c0.7,0,1.2-0.2,1.6-0.7c0.4-0.5,0.6-1.1,0.6-1.8V183.4z M464.2,182.9v4.1H463v-1.1
	c-0.3,0.4-0.6,0.8-1,1c-0.4,0.2-0.9,0.3-1.5,0.3c-0.7,0-1.3-0.2-1.7-0.6c-0.4-0.4-0.6-1-0.6-1.6c0-0.8,0.3-1.4,0.8-1.8
	c0.5-0.4,1.3-0.6,2.4-0.6h1.6v-0.1c0-0.5-0.2-1-0.5-1.2s-0.8-0.4-1.5-0.4c-0.4,0-0.8,0.1-1.2,0.1c-0.4,0.1-0.8,0.2-1.1,0.4v-1.1
	c0.4-0.2,0.8-0.3,1.2-0.4c0.4-0.1,0.8-0.1,1.2-0.1c1,0,1.8,0.3,2.3,0.8C464,181.1,464.2,181.9,464.2,182.9z M467.8,185.9v3.8h-1.2
	v-9.8h1.2v1.1c0.2-0.4,0.6-0.7,0.9-0.9c0.4-0.2,0.8-0.3,1.4-0.3c0.9,0,1.6,0.3,2.1,1s0.8,1.6,0.8,2.7c0,1.1-0.3,2-0.8,2.7
	c-0.5,0.7-1.2,1-2.1,1c-0.5,0-1-0.1-1.4-0.3C468.3,186.7,468,186.4,467.8,185.9z M471.7,183.4c0-0.9-0.2-1.5-0.5-2
	c-0.3-0.5-0.8-0.7-1.5-0.7c-0.6,0-1.1,0.2-1.5,0.7s-0.5,1.2-0.5,2c0,0.9,0.2,1.5,0.5,2c0.4,0.5,0.8,0.7,1.5,0.7
	c0.6,0,1.1-0.2,1.5-0.7C471.6,185,471.7,184.3,471.7,183.4z M476,185.9v3.8h-1.2v-9.8h1.2v1.1c0.2-0.4,0.5-0.7,0.9-0.9
	c0.4-0.2,0.8-0.3,1.4-0.3c0.9,0,1.6,0.3,2.1,1s0.8,1.6,0.8,2.7c0,1.1-0.3,2-0.8,2.7c-0.5,0.7-1.2,1-2.1,1c-0.5,0-1-0.1-1.4-0.3
	C476.6,186.7,476.2,186.4,476,185.9z M480,183.4c0-0.9-0.2-1.5-0.5-2s-0.8-0.7-1.5-0.7c-0.6,0-1.1,0.2-1.5,0.7
	c-0.3,0.5-0.5,1.2-0.5,2c0,0.9,0.2,1.5,0.5,2c0.4,0.5,0.8,0.7,1.5,0.7c0.6,0,1.1-0.2,1.5-0.7C479.8,185,480,184.3,480,183.4z
	 M483,184.2v-4.3h1.2v4.3c0,0.7,0.1,1.2,0.4,1.5c0.3,0.3,0.7,0.5,1.2,0.5c0.6,0,1.1-0.2,1.5-0.6c0.4-0.4,0.6-1,0.6-1.7v-4h1.2v7.1
	h-1.2v-1.1c-0.3,0.4-0.6,0.8-1,1c-0.4,0.2-0.8,0.3-1.3,0.3c-0.8,0-1.4-0.3-1.9-0.8C483.2,185.9,483,185.2,483,184.2z M486,179.7
	L486,179.7z M495.5,179.8l0,1.2c-0.1-0.1-0.3-0.1-0.4-0.2c-0.1,0-0.3-0.1-0.5-0.1c-0.7,0-1.2,0.2-1.5,0.7c-0.3,0.4-0.5,1-0.5,1.8
	v3.8h-1.2v-7.1h1.2v1.1c0.2-0.4,0.6-0.8,1-1c0.4-0.2,0.9-0.3,1.4-0.3c0.1,0,0.2,0,0.3,0C495.3,179.7,495.4,179.8,495.5,179.8z
	 M501.1,183.4h-1.2c-0.9,0-1.6,0.1-2,0.3c-0.4,0.2-0.5,0.6-0.5,1.1c0,0.4,0.1,0.7,0.4,1c0.3,0.2,0.6,0.4,1.1,0.4
	c0.6,0,1.2-0.2,1.6-0.7c0.4-0.5,0.6-1.1,0.6-1.8V183.4z M502.3,182.9v4.1h-1.2v-1.1c-0.3,0.4-0.6,0.8-1,1c-0.4,0.2-0.9,0.3-1.5,0.3
	c-0.7,0-1.3-0.2-1.7-0.6c-0.4-0.4-0.6-1-0.6-1.6c0-0.8,0.3-1.4,0.8-1.8s1.3-0.6,2.4-0.6h1.6v-0.1c0-0.5-0.2-1-0.5-1.2
	s-0.8-0.4-1.5-0.4c-0.4,0-0.8,0.1-1.2,0.1c-0.4,0.1-0.8,0.2-1.1,0.4v-1.1c0.4-0.2,0.8-0.3,1.2-0.4c0.4-0.1,0.8-0.1,1.2-0.1
	c1,0,1.8,0.3,2.3,0.8C502,181.1,502.3,181.9,502.3,182.9z M510.2,181.3c0.3-0.5,0.6-0.9,1.1-1.2c0.4-0.2,0.9-0.4,1.4-0.4
	c0.7,0,1.3,0.3,1.7,0.8c0.4,0.5,0.6,1.2,0.6,2.2v4.3h-1.2v-4.2c0-0.7-0.1-1.2-0.4-1.5c-0.2-0.3-0.6-0.5-1.1-0.5
	c-0.6,0-1.1,0.2-1.4,0.6c-0.4,0.4-0.5,0.9-0.5,1.6v4h-1.2v-4.2c0-0.7-0.1-1.2-0.4-1.5c-0.2-0.3-0.6-0.5-1.1-0.5
	c-0.6,0-1.1,0.2-1.4,0.6c-0.3,0.4-0.5,1-0.5,1.6v4h-1.2v-7.1h1.2v1.1c0.3-0.4,0.6-0.8,1-1c0.4-0.2,0.8-0.3,1.3-0.3
	c0.5,0,1,0.1,1.3,0.4C509.8,180.4,510,180.8,510.2,181.3z"/>
<path id="Palakkad_1_" d="M464,230.6h-1.6v3.6h1.6c0.6,0,1.1-0.2,1.4-0.5c0.3-0.3,0.5-0.7,0.5-1.3c0-0.6-0.2-1-0.5-1.3
	C465,230.7,464.6,230.6,464,230.6z M461.1,239v-9.5h2.9c1.1,0,1.9,0.2,2.4,0.7c0.5,0.5,0.8,1.2,0.8,2.1c0,0.9-0.3,1.6-0.8,2.1
	c-0.5,0.5-1.3,0.7-2.4,0.7h-1.6v3.8H461.1z M472.7,235.4h-1.2c-0.9,0-1.6,0.1-2,0.3c-0.4,0.2-0.5,0.6-0.5,1.1c0,0.4,0.1,0.7,0.4,1
	c0.3,0.2,0.7,0.4,1.1,0.4c0.6,0,1.2-0.2,1.6-0.7c0.4-0.5,0.6-1.1,0.6-1.8V235.4z M473.9,234.9v4.1h-1.2v-1.1c-0.3,0.4-0.6,0.8-1,1
	c-0.4,0.2-0.9,0.3-1.5,0.3c-0.7,0-1.3-0.2-1.7-0.6c-0.4-0.4-0.6-1-0.6-1.6c0-0.8,0.3-1.4,0.8-1.8c0.5-0.4,1.3-0.6,2.4-0.6h1.6v-0.1
	c0-0.5-0.2-1-0.5-1.2c-0.3-0.3-0.8-0.4-1.5-0.4c-0.4,0-0.8,0.1-1.2,0.1c-0.4,0.1-0.8,0.2-1.1,0.4v-1.1c0.4-0.2,0.8-0.3,1.2-0.4
	c0.4-0.1,0.8-0.1,1.2-0.1c1,0,1.8,0.3,2.3,0.8C473.6,233.1,473.9,233.9,473.9,234.9z M476.3,239v-9.9h1.2v9.9H476.3z M484.3,235.4
	h-1.2c-0.9,0-1.6,0.1-2,0.3c-0.4,0.2-0.5,0.6-0.5,1.1c0,0.4,0.1,0.7,0.4,1c0.3,0.2,0.6,0.4,1.1,0.4c0.6,0,1.2-0.2,1.6-0.7
	c0.4-0.5,0.6-1.1,0.6-1.8V235.4z M485.4,234.9v4.1h-1.2v-1.1c-0.3,0.4-0.6,0.8-1,1c-0.4,0.2-0.9,0.3-1.5,0.3c-0.7,0-1.3-0.2-1.7-0.6
	c-0.4-0.4-0.6-1-0.6-1.6c0-0.8,0.3-1.4,0.8-1.8c0.5-0.4,1.3-0.6,2.4-0.6h1.6v-0.1c0-0.5-0.2-1-0.5-1.2s-0.8-0.4-1.5-0.4
	c-0.4,0-0.8,0.1-1.2,0.1c-0.4,0.1-0.8,0.2-1.1,0.4v-1.1c0.4-0.2,0.8-0.3,1.2-0.4c0.4-0.1,0.8-0.1,1.2-0.1c1,0,1.8,0.3,2.3,0.8
	C485.2,233.1,485.4,233.9,485.4,234.9z M487.8,239v-9.9h1.2v5.8l3.5-3.1h1.5l-3.8,3.3l3.9,3.8h-1.5l-3.6-3.5v3.5H487.8z M495.3,239
	v-9.9h1.2v5.8l3.5-3.1h1.5l-3.8,3.3l3.9,3.8h-1.5l-3.6-3.5v3.5H495.3z M507.1,235.4h-1.2c-0.9,0-1.6,0.1-2,0.3
	c-0.4,0.2-0.5,0.6-0.5,1.1c0,0.4,0.1,0.7,0.4,1c0.3,0.2,0.6,0.4,1.1,0.4c0.6,0,1.2-0.2,1.6-0.7c0.4-0.5,0.6-1.1,0.6-1.8V235.4z
	 M508.2,234.9v4.1h-1.2v-1.1c-0.3,0.4-0.6,0.8-1,1c-0.4,0.2-0.9,0.3-1.5,0.3c-0.7,0-1.3-0.2-1.7-0.6c-0.4-0.4-0.6-1-0.6-1.6
	c0-0.8,0.3-1.4,0.8-1.8c0.5-0.4,1.3-0.6,2.4-0.6h1.6v-0.1c0-0.5-0.2-1-0.5-1.2s-0.8-0.4-1.5-0.4c-0.4,0-0.8,0.1-1.2,0.1
	c-0.4,0.1-0.8,0.2-1.1,0.4v-1.1c0.4-0.2,0.8-0.3,1.2-0.4c0.4-0.1,0.8-0.1,1.2-0.1c1,0,1.8,0.3,2.3,0.8
	C508,233.1,508.2,233.9,508.2,234.9z M515.3,233v-3.9h1.2v9.9h-1.2v-1.1c-0.2,0.4-0.6,0.7-0.9,1c-0.4,0.2-0.8,0.3-1.3,0.3
	c-0.9,0-1.6-0.3-2.1-1c-0.5-0.7-0.8-1.6-0.8-2.7c0-1.1,0.3-2,0.8-2.7c0.5-0.7,1.2-1,2.1-1c0.5,0,1,0.1,1.3,0.3
	C514.8,232.2,515.1,232.5,515.3,233z M511.3,235.4c0,0.9,0.2,1.5,0.5,2c0.4,0.5,0.8,0.7,1.5,0.7c0.6,0,1.1-0.2,1.5-0.7
	c0.4-0.5,0.5-1.2,0.5-2c0-0.9-0.2-1.5-0.5-2c-0.4-0.5-0.8-0.7-1.5-0.7c-0.6,0-1.1,0.2-1.5,0.7C511.5,233.9,511.3,234.6,511.3,235.4z
	"/>
<path id="Pathanamthitta" d="M494.2,395.6h-1.6v3.6h1.6c0.6,0,1.1-0.2,1.4-0.5c0.3-0.3,0.5-0.7,0.5-1.3c0-0.6-0.2-1-0.5-1.3
	C495.3,395.7,494.8,395.6,494.2,395.6z M491.3,404v-9.5h2.9c1.1,0,1.9,0.2,2.4,0.7c0.5,0.5,0.8,1.2,0.8,2.1c0,0.9-0.3,1.6-0.8,2.1
	c-0.5,0.5-1.3,0.7-2.4,0.7h-1.6v3.8H491.3z M502.9,400.4h-1.2c-0.9,0-1.6,0.1-2,0.3c-0.4,0.2-0.5,0.6-0.5,1.1c0,0.4,0.1,0.8,0.4,1
	c0.3,0.2,0.6,0.4,1.1,0.4c0.6,0,1.2-0.2,1.5-0.7c0.4-0.5,0.6-1.1,0.6-1.8V400.4z M504.1,399.9v4.1h-1.2v-1.1c-0.3,0.4-0.6,0.8-1,1
	c-0.4,0.2-0.9,0.3-1.5,0.3c-0.7,0-1.3-0.2-1.7-0.6c-0.4-0.4-0.7-1-0.6-1.6c0-0.8,0.3-1.4,0.8-1.8c0.5-0.4,1.3-0.6,2.4-0.6h1.6v-0.1
	c0-0.5-0.2-1-0.5-1.2s-0.8-0.4-1.5-0.4c-0.4,0-0.8,0.1-1.2,0.1c-0.4,0.1-0.8,0.2-1.1,0.4v-1.1c0.4-0.2,0.8-0.3,1.2-0.4
	c0.4-0.1,0.8-0.1,1.2-0.1c1,0,1.8,0.3,2.3,0.8C503.8,398.1,504.1,398.9,504.1,399.9z M506.5,394.9h1.2v2h2.4v0.9h-2.4v3.9
	c0,0.6,0.1,0.9,0.2,1.1c0.2,0.2,0.5,0.2,1,0.2h1.2v1h-1.2c-0.9,0-1.5-0.2-1.9-0.5c-0.3-0.3-0.5-1-0.5-1.8v-3.9h-0.9v-0.9h0.9V394.9z
	 M517.5,399.7v4.3h-1.2v-4.2c0-0.7-0.1-1.2-0.4-1.5c-0.3-0.3-0.7-0.5-1.2-0.5c-0.6,0-1.1,0.2-1.5,0.6c-0.4,0.4-0.5,0.9-0.5,1.6v4
	h-1.2v-9.9h1.2v3.9c0.3-0.4,0.6-0.8,1-1c0.4-0.2,0.8-0.3,1.3-0.3c0.8,0,1.4,0.3,1.8,0.8C517.3,398,517.5,398.7,517.5,399.7z
	 M524.2,400.4H523c-0.9,0-1.6,0.1-2,0.3c-0.4,0.2-0.5,0.6-0.5,1.1c0,0.4,0.1,0.8,0.4,1c0.3,0.2,0.6,0.4,1.1,0.4
	c0.6,0,1.2-0.2,1.5-0.7c0.4-0.5,0.6-1.1,0.6-1.8V400.4z M525.4,399.9v4.1h-1.2v-1.1c-0.3,0.4-0.6,0.8-1,1c-0.4,0.2-0.9,0.3-1.5,0.3
	c-0.7,0-1.3-0.2-1.7-0.6c-0.4-0.4-0.6-1-0.6-1.6c0-0.8,0.3-1.4,0.8-1.8c0.5-0.4,1.3-0.6,2.4-0.6h1.6v-0.1c0-0.5-0.2-1-0.5-1.2
	c-0.4-0.3-0.8-0.4-1.5-0.4c-0.4,0-0.8,0.1-1.2,0.1c-0.4,0.1-0.8,0.2-1.1,0.4v-1.1c0.4-0.2,0.8-0.3,1.2-0.4c0.4-0.1,0.8-0.1,1.2-0.1
	c1,0,1.8,0.3,2.3,0.8C525.1,398.1,525.4,398.9,525.4,399.9z M533.7,399.7v4.3h-1.2v-4.2c0-0.7-0.1-1.2-0.4-1.5
	c-0.3-0.3-0.7-0.5-1.2-0.5c-0.6,0-1.1,0.2-1.5,0.6c-0.4,0.4-0.5,0.9-0.5,1.6v4h-1.2v-7.1h1.2v1.1c0.3-0.4,0.6-0.8,1-1
	c0.4-0.2,0.8-0.3,1.3-0.3c0.8,0,1.4,0.3,1.8,0.8C533.5,398,533.7,398.7,533.7,399.7z M540.4,400.4h-1.2c-0.9,0-1.6,0.1-2,0.3
	c-0.4,0.2-0.5,0.6-0.5,1.1c0,0.4,0.1,0.8,0.4,1c0.3,0.2,0.6,0.4,1.1,0.4c0.7,0,1.2-0.2,1.6-0.7c0.4-0.5,0.6-1.1,0.6-1.8V400.4z
	 M541.6,399.9v4.1h-1.2v-1.1c-0.3,0.4-0.6,0.8-1,1c-0.4,0.2-0.9,0.3-1.5,0.3c-0.7,0-1.3-0.2-1.7-0.6c-0.4-0.4-0.6-1-0.6-1.6
	c0-0.8,0.3-1.4,0.8-1.8c0.5-0.4,1.3-0.6,2.4-0.6h1.6v-0.1c0-0.5-0.2-1-0.5-1.2s-0.9-0.4-1.5-0.4c-0.4,0-0.8,0.1-1.2,0.1
	c-0.4,0.1-0.8,0.2-1.1,0.4v-1.1c0.4-0.2,0.8-0.3,1.2-0.4c0.4-0.1,0.8-0.1,1.2-0.1c1,0,1.8,0.3,2.3,0.8
	C541.3,398.1,541.6,398.9,541.6,399.9z M549.5,398.3c0.3-0.5,0.6-0.9,1-1.2c0.4-0.2,0.9-0.4,1.4-0.4c0.7,0,1.3,0.3,1.7,0.8
	c0.4,0.5,0.6,1.2,0.6,2.2v4.3h-1.2v-4.2c0-0.7-0.1-1.2-0.4-1.5c-0.2-0.3-0.6-0.5-1.1-0.5c-0.6,0-1.1,0.2-1.4,0.6
	c-0.3,0.4-0.5,0.9-0.5,1.6v4h-1.2v-4.2c0-0.7-0.1-1.2-0.4-1.5c-0.2-0.3-0.6-0.5-1.1-0.5c-0.6,0-1.1,0.2-1.4,0.6
	c-0.4,0.4-0.5,1-0.5,1.6v4h-1.2v-7.1h1.2v1.1c0.3-0.4,0.6-0.8,1-1c0.4-0.2,0.8-0.3,1.3-0.3c0.5,0,1,0.1,1.3,0.4
	C549.1,397.4,549.3,397.8,549.5,398.3z M556.6,394.9h1.2v2h2.4v0.9h-2.4v3.9c0,0.6,0.1,0.9,0.2,1.1c0.2,0.2,0.5,0.2,1,0.2h1.2v1H559
	c-0.9,0-1.5-0.2-1.9-0.5c-0.3-0.3-0.5-1-0.5-1.8v-3.9h-0.9v-0.9h0.9V394.9z M567.7,399.7v4.3h-1.2v-4.2c0-0.7-0.1-1.2-0.4-1.5
	c-0.3-0.3-0.7-0.5-1.2-0.5c-0.6,0-1.1,0.2-1.5,0.6c-0.4,0.4-0.5,0.9-0.5,1.6v4h-1.2v-9.9h1.2v3.9c0.3-0.4,0.6-0.8,1-1
	c0.4-0.2,0.8-0.3,1.3-0.3c0.8,0,1.4,0.3,1.9,0.8C567.4,398,567.7,398.7,567.7,399.7z M570,404v-7.1h1.2v7.1H570z M570,395.6v-1.5
	h1.2v1.5H570z M573.6,394.9h1.2v2h2.4v0.9h-2.4v3.9c0,0.6,0.1,0.9,0.2,1.1c0.2,0.2,0.5,0.2,1,0.2h1.2v1H576c-0.9,0-1.5-0.2-1.9-0.5
	c-0.3-0.3-0.5-1-0.5-1.8v-3.9h-0.9v-0.9h0.9V394.9z M578.7,394.9h1.2v2h2.4v0.9h-2.4v3.9c0,0.6,0.1,0.9,0.2,1.1
	c0.2,0.2,0.5,0.2,1,0.2h1.2v1H581c-0.9,0-1.5-0.2-1.9-0.5c-0.3-0.3-0.5-1-0.5-1.8v-3.9h-0.8v-0.9h0.8V394.9z M588.2,400.4H587
	c-0.9,0-1.6,0.1-2,0.3c-0.4,0.2-0.5,0.6-0.5,1.1c0,0.4,0.1,0.8,0.4,1c0.3,0.2,0.6,0.4,1.1,0.4c0.6,0,1.2-0.2,1.6-0.7
	c0.4-0.5,0.6-1.1,0.6-1.8V400.4z M589.3,399.9v4.1h-1.2v-1.1c-0.3,0.4-0.6,0.8-1,1c-0.4,0.2-0.9,0.3-1.5,0.3c-0.7,0-1.3-0.2-1.7-0.6
	c-0.4-0.4-0.6-1-0.6-1.6c0-0.8,0.3-1.4,0.8-1.8c0.5-0.4,1.3-0.6,2.4-0.6h1.6v-0.1c0-0.5-0.2-1-0.5-1.2s-0.9-0.4-1.5-0.4
	c-0.4,0-0.8,0.1-1.2,0.1c-0.4,0.1-0.8,0.2-1.1,0.4v-1.1c0.4-0.2,0.8-0.3,1.2-0.4c0.4-0.1,0.8-0.1,1.2-0.1c1,0,1.8,0.3,2.3,0.8
	C589.1,398.1,589.3,398.9,589.3,399.9z"/>
<path id="Thiruvananthapuram_1_" d="M495.5,448.6v-1.1h8v1.1h-3.4v8.4h-1.3v-8.4H495.5z M510.6,452.7v4.3h-1.2v-4.2
	c0-0.7-0.1-1.2-0.4-1.5c-0.3-0.3-0.7-0.5-1.2-0.5c-0.6,0-1.1,0.2-1.5,0.6c-0.4,0.4-0.6,0.9-0.5,1.6v4h-1.2v-9.9h1.2v3.9
	c0.3-0.4,0.6-0.8,1-1c0.4-0.2,0.8-0.3,1.3-0.3c0.8,0,1.4,0.3,1.9,0.8C510.4,451,510.6,451.7,510.6,452.7z M512.9,457v-7.1h1.2v7.1
	H512.9z M512.9,448.6v-1.5h1.2v1.5H512.9z M520.7,449.8v1.2c-0.1-0.1-0.3-0.1-0.4-0.2c-0.2,0-0.3-0.1-0.5-0.1
	c-0.7,0-1.2,0.2-1.5,0.6c-0.4,0.4-0.5,1-0.5,1.8v3.8h-1.2v-7.1h1.2v1.1c0.2-0.4,0.6-0.8,1-1c0.4-0.2,0.9-0.3,1.4-0.3
	c0.1,0,0.2,0,0.3,0C520.4,449.7,520.5,449.8,520.7,449.8z M521.8,454.2v-4.3h1.2v4.3c0,0.7,0.1,1.2,0.4,1.5c0.3,0.3,0.7,0.5,1.2,0.5
	c0.6,0,1.1-0.2,1.5-0.6c0.4-0.4,0.5-1,0.5-1.6v-4h1.2v7.1h-1.2v-1.1c-0.3,0.4-0.6,0.8-1,1c-0.4,0.2-0.8,0.3-1.3,0.3
	c-0.8,0-1.4-0.3-1.9-0.8C522,455.9,521.8,455.2,521.8,454.2z M524.7,449.7L524.7,449.7z M532,457l-2.7-7.1h1.2l2.2,6l2.2-6h1.2
	l-2.7,7.1H532z M542.2,453.4H541c-0.9,0-1.6,0.1-2,0.3c-0.4,0.2-0.5,0.6-0.5,1.1c0,0.4,0.1,0.8,0.4,1c0.3,0.2,0.6,0.4,1.1,0.4
	c0.6,0,1.2-0.2,1.5-0.7c0.4-0.5,0.6-1.1,0.6-1.8V453.4z M543.4,452.9v4.1h-1.2v-1.1c-0.3,0.4-0.6,0.8-1,1c-0.4,0.2-0.9,0.3-1.5,0.3
	c-0.7,0-1.3-0.2-1.7-0.6c-0.4-0.4-0.6-1-0.6-1.6c0-0.8,0.3-1.4,0.8-1.8c0.5-0.4,1.3-0.6,2.4-0.6h1.6v-0.1c0-0.5-0.2-1-0.5-1.2
	c-0.4-0.3-0.8-0.4-1.5-0.4c-0.4,0-0.8,0.1-1.2,0.1c-0.4,0.1-0.8,0.2-1.1,0.4v-1.1c0.4-0.2,0.8-0.3,1.2-0.4c0.4-0.1,0.8-0.1,1.2-0.1
	c1,0,1.8,0.3,2.3,0.8C543.1,451.1,543.4,451.9,543.4,452.9z M551.7,452.7v4.3h-1.2v-4.2c0-0.7-0.1-1.2-0.4-1.5
	c-0.3-0.3-0.7-0.5-1.2-0.5c-0.6,0-1.1,0.2-1.5,0.6c-0.4,0.4-0.5,0.9-0.5,1.6v4h-1.2v-7.1h1.2v1.1c0.3-0.4,0.6-0.8,1-1
	c0.4-0.2,0.8-0.3,1.3-0.3c0.8,0,1.4,0.3,1.8,0.8C551.5,451,551.7,451.7,551.7,452.7z M558.4,453.4h-1.2c-0.9,0-1.6,0.1-2,0.3
	c-0.4,0.2-0.5,0.6-0.5,1.1c0,0.4,0.1,0.8,0.4,1c0.3,0.2,0.6,0.4,1.1,0.4c0.7,0,1.2-0.2,1.6-0.7c0.4-0.5,0.6-1.1,0.6-1.8V453.4z
	 M559.6,452.9v4.1h-1.2v-1.1c-0.3,0.4-0.6,0.8-1,1c-0.4,0.2-0.9,0.3-1.5,0.3c-0.7,0-1.3-0.2-1.7-0.6c-0.4-0.4-0.6-1-0.6-1.6
	c0-0.8,0.3-1.4,0.8-1.8c0.5-0.4,1.3-0.6,2.4-0.6h1.6v-0.1c0-0.5-0.2-1-0.5-1.2s-0.9-0.4-1.5-0.4c-0.4,0-0.8,0.1-1.2,0.1
	c-0.4,0.1-0.8,0.2-1.1,0.4v-1.1c0.4-0.2,0.8-0.3,1.2-0.4c0.4-0.1,0.8-0.1,1.2-0.1c1,0,1.8,0.3,2.3,0.8
	C559.3,451.1,559.6,451.9,559.6,452.9z M567.9,452.7v4.3h-1.2v-4.2c0-0.7-0.1-1.2-0.4-1.5c-0.3-0.3-0.7-0.5-1.2-0.5
	c-0.6,0-1.1,0.2-1.5,0.6c-0.4,0.4-0.5,0.9-0.5,1.6v4h-1.2v-7.1h1.2v1.1c0.3-0.4,0.6-0.8,1-1c0.4-0.2,0.8-0.3,1.3-0.3
	c0.8,0,1.4,0.3,1.9,0.8C567.7,451,567.9,451.7,567.9,452.7z M570.2,447.9h1.2v2h2.4v0.9h-2.4v3.9c0,0.6,0.1,0.9,0.2,1.1
	c0.2,0.2,0.5,0.2,1,0.2h1.2v1h-1.2c-0.9,0-1.5-0.2-1.9-0.5c-0.3-0.3-0.5-1-0.5-1.8v-3.9h-0.9v-0.9h0.9V447.9z M581.2,452.7v4.3h-1.2
	v-4.2c0-0.7-0.1-1.2-0.4-1.5c-0.3-0.3-0.7-0.5-1.2-0.5c-0.6,0-1.1,0.2-1.5,0.6c-0.4,0.4-0.5,0.9-0.5,1.6v4h-1.2v-9.9h1.2v3.9
	c0.3-0.4,0.6-0.8,1-1c0.4-0.2,0.8-0.3,1.3-0.3c0.8,0,1.4,0.3,1.8,0.8S581.2,451.7,581.2,452.7z M588,453.4h-1.2
	c-0.9,0-1.6,0.1-2,0.3c-0.4,0.2-0.5,0.6-0.5,1.1c0,0.4,0.1,0.8,0.4,1c0.3,0.2,0.6,0.4,1.1,0.4c0.6,0,1.2-0.2,1.5-0.7
	c0.4-0.5,0.6-1.1,0.6-1.8V453.4z M589.1,452.9v4.1H588v-1.1c-0.3,0.4-0.6,0.8-1,1c-0.4,0.2-0.9,0.3-1.5,0.3c-0.7,0-1.3-0.2-1.7-0.6
	c-0.4-0.4-0.7-1-0.7-1.6c0-0.8,0.3-1.4,0.8-1.8c0.5-0.4,1.3-0.6,2.4-0.6h1.6v-0.1c0-0.5-0.2-1-0.5-1.2c-0.4-0.3-0.8-0.4-1.5-0.4
	c-0.4,0-0.8,0.1-1.2,0.1c-0.4,0.1-0.8,0.2-1.1,0.4v-1.1c0.4-0.2,0.8-0.3,1.2-0.4c0.4-0.1,0.8-0.1,1.2-0.1c1,0,1.8,0.3,2.3,0.8
	C588.9,451.1,589.1,451.9,589.1,452.9z M592.7,455.9v3.8h-1.2v-9.8h1.2v1.1c0.2-0.4,0.5-0.7,0.9-0.9c0.4-0.2,0.8-0.3,1.3-0.3
	c0.9,0,1.6,0.3,2.1,1c0.5,0.7,0.8,1.6,0.8,2.7c0,1.1-0.3,2-0.8,2.7c-0.5,0.7-1.2,1-2.1,1c-0.5,0-1-0.1-1.3-0.3
	C593.2,456.7,592.9,456.4,592.7,455.9z M596.6,453.5c0-0.9-0.2-1.5-0.5-2c-0.4-0.5-0.8-0.7-1.5-0.7c-0.6,0-1.1,0.2-1.5,0.7
	c-0.3,0.5-0.5,1.2-0.5,2c0,0.9,0.2,1.5,0.5,2c0.4,0.5,0.8,0.7,1.5,0.7c0.6,0,1.1-0.2,1.5-0.7C596.5,455,596.6,454.3,596.6,453.5z
	 M599.7,454.2v-4.3h1.2v4.3c0,0.7,0.1,1.2,0.4,1.5c0.3,0.3,0.7,0.5,1.2,0.5c0.6,0,1.1-0.2,1.5-0.6c0.4-0.4,0.5-1,0.5-1.6v-4h1.2v7.1
	h-1.2v-1.1c-0.3,0.4-0.6,0.8-1,1c-0.4,0.2-0.8,0.3-1.3,0.3c-0.8,0-1.4-0.3-1.9-0.8C599.9,455.9,599.7,455.2,599.7,454.2z
	 M602.6,449.7L602.6,449.7z M612.1,449.8l0,1.2c-0.1-0.1-0.3-0.1-0.4-0.2c-0.1,0-0.3-0.1-0.5-0.1c-0.7,0-1.2,0.2-1.5,0.6
	c-0.3,0.4-0.5,1-0.5,1.8v3.8H608v-7.1h1.2v1.1c0.2-0.4,0.6-0.8,0.9-1c0.4-0.2,0.9-0.3,1.4-0.3c0.1,0,0.2,0,0.3,0
	C611.9,449.7,612,449.8,612.1,449.8z M617.8,453.4h-1.2c-0.9,0-1.6,0.1-2,0.3s-0.5,0.6-0.5,1.1c0,0.4,0.1,0.8,0.4,1
	c0.3,0.2,0.6,0.4,1.1,0.4c0.6,0,1.2-0.2,1.5-0.7c0.4-0.5,0.6-1.1,0.6-1.8V453.4z M618.9,452.9v4.1h-1.2v-1.1c-0.3,0.4-0.6,0.8-1,1
	c-0.4,0.2-0.9,0.3-1.5,0.3c-0.7,0-1.3-0.2-1.7-0.6c-0.4-0.4-0.6-1-0.6-1.6c0-0.8,0.3-1.4,0.8-1.8c0.5-0.4,1.3-0.6,2.4-0.6h1.6v-0.1
	c0-0.5-0.2-1-0.5-1.2s-0.8-0.4-1.5-0.4c-0.4,0-0.8,0.1-1.2,0.1c-0.4,0.1-0.8,0.2-1.1,0.4v-1.1c0.4-0.2,0.8-0.3,1.2-0.4
	c0.4-0.1,0.8-0.1,1.2-0.1c1,0,1.8,0.3,2.3,0.8C618.7,451.1,618.9,451.9,618.9,452.9z M626.9,451.3c0.3-0.5,0.6-0.9,1-1.2
	c0.4-0.2,0.9-0.4,1.4-0.4c0.7,0,1.3,0.3,1.7,0.8c0.4,0.5,0.6,1.2,0.6,2.2v4.3h-1.2v-4.2c0-0.7-0.1-1.2-0.4-1.5
	c-0.2-0.3-0.6-0.5-1.1-0.5c-0.6,0-1.1,0.2-1.4,0.6c-0.4,0.4-0.5,0.9-0.5,1.6v4h-1.2v-4.2c0-0.7-0.1-1.2-0.4-1.5
	c-0.2-0.3-0.6-0.5-1.1-0.5c-0.6,0-1.1,0.2-1.4,0.6c-0.3,0.4-0.5,1-0.5,1.6v4h-1.2v-7.1h1.2v1.1c0.3-0.4,0.6-0.8,1-1
	c0.4-0.2,0.8-0.3,1.3-0.3c0.5,0,1,0.1,1.3,0.4C626.4,450.4,626.7,450.8,626.9,451.3z"/>
<path id="Thrissur_1_" d="M332.4,271.6v-1.1h8v1.1H337v8.4h-1.3v-8.4H332.4z M347.5,275.7v4.3h-1.2v-4.2c0-0.7-0.1-1.2-0.4-1.5
	c-0.3-0.3-0.7-0.5-1.2-0.5c-0.6,0-1.1,0.2-1.5,0.6c-0.4,0.4-0.5,0.9-0.5,1.6v4h-1.2v-9.9h1.2v3.9c0.3-0.4,0.6-0.8,1-1
	c0.4-0.2,0.8-0.3,1.3-0.3c0.8,0,1.4,0.3,1.9,0.8C347.3,274,347.5,274.7,347.5,275.7z M353.9,272.8l0,1.2c-0.1-0.1-0.3-0.1-0.4-0.2
	c-0.2,0-0.3-0.1-0.5-0.1c-0.7,0-1.2,0.2-1.5,0.6c-0.3,0.4-0.5,1-0.5,1.8v3.8h-1.2v-7.1h1.2v1.1c0.2-0.4,0.6-0.8,1-1
	c0.4-0.2,0.9-0.3,1.4-0.3c0.1,0,0.2,0,0.3,0C353.7,272.7,353.8,272.8,353.9,272.8z M355.1,280v-7.1h1.2v7.1H355.1z M355.1,271.6
	v-1.5h1.2v1.5H355.1z M363.3,273.1v1.1c-0.3-0.2-0.7-0.3-1-0.4c-0.4-0.1-0.7-0.1-1.1-0.1c-0.6,0-1,0.1-1.3,0.3
	c-0.3,0.2-0.4,0.4-0.4,0.8c0,0.3,0.1,0.5,0.3,0.6c0.2,0.2,0.6,0.3,1.3,0.4l0.4,0.1c0.8,0.2,1.4,0.4,1.8,0.8c0.4,0.3,0.5,0.8,0.5,1.4
	c0,0.7-0.3,1.2-0.8,1.6c-0.5,0.4-1.2,0.6-2.1,0.6c-0.4,0-0.8,0-1.2-0.1c-0.4-0.1-0.8-0.2-1.3-0.3v-1.2c0.4,0.2,0.9,0.4,1.3,0.5
	c0.4,0.1,0.8,0.2,1.2,0.2c0.6,0,1-0.1,1.3-0.3c0.3-0.2,0.5-0.5,0.5-0.8c0-0.3-0.1-0.6-0.3-0.7c-0.2-0.2-0.7-0.3-1.4-0.5l-0.4-0.1
	c-0.7-0.2-1.2-0.4-1.6-0.7c-0.3-0.3-0.5-0.8-0.5-1.3c0-0.7,0.2-1.2,0.7-1.5c0.5-0.4,1.2-0.5,2-0.5c0.4,0,0.8,0,1.2,0.1
	C362.6,272.9,363,273,363.3,273.1z M370.1,273.1v1.1c-0.3-0.2-0.7-0.3-1-0.4c-0.4-0.1-0.7-0.1-1.1-0.1c-0.6,0-1,0.1-1.3,0.3
	c-0.3,0.2-0.4,0.4-0.4,0.8c0,0.3,0.1,0.5,0.3,0.6c0.2,0.2,0.6,0.3,1.2,0.4l0.4,0.1c0.8,0.2,1.4,0.4,1.8,0.8c0.4,0.3,0.5,0.8,0.5,1.4
	c0,0.7-0.3,1.2-0.8,1.6c-0.5,0.4-1.2,0.6-2.1,0.6c-0.4,0-0.8,0-1.2-0.1c-0.4-0.1-0.8-0.2-1.3-0.3v-1.2c0.4,0.2,0.8,0.4,1.3,0.5
	c0.4,0.1,0.8,0.2,1.2,0.2c0.5,0,1-0.1,1.3-0.3c0.3-0.2,0.4-0.5,0.4-0.8c0-0.3-0.1-0.6-0.3-0.7c-0.2-0.2-0.7-0.3-1.4-0.5l-0.4-0.1
	c-0.7-0.2-1.2-0.4-1.6-0.7c-0.3-0.3-0.5-0.8-0.5-1.3c0-0.7,0.2-1.2,0.7-1.5c0.5-0.4,1.1-0.5,2-0.5c0.4,0,0.8,0,1.2,0.1
	C369.4,272.9,369.7,273,370.1,273.1z M372.2,277.2v-4.3h1.2v4.3c0,0.7,0.1,1.2,0.4,1.5c0.3,0.3,0.7,0.5,1.2,0.5
	c0.6,0,1.1-0.2,1.5-0.6c0.4-0.4,0.6-1,0.6-1.6v-4h1.2v7.1H377v-1.1c-0.3,0.4-0.6,0.8-1,1c-0.4,0.2-0.8,0.3-1.3,0.3
	c-0.8,0-1.4-0.3-1.9-0.8C372.4,278.9,372.2,278.2,372.2,277.2z M375.1,272.7L375.1,272.7z M384.6,272.8l0,1.2
	c-0.1-0.1-0.3-0.1-0.4-0.2c-0.2,0-0.3-0.1-0.5-0.1c-0.7,0-1.2,0.2-1.5,0.6c-0.4,0.4-0.5,1-0.5,1.8v3.8h-1.2v-7.1h1.2v1.1
	c0.2-0.4,0.6-0.8,1-1c0.4-0.2,0.9-0.3,1.4-0.3c0.1,0,0.2,0,0.3,0C384.4,272.7,384.5,272.8,384.6,272.8z"/>
<path id="Wayanad_1_" d="M431.9,153l-2.4-9.5h1.3l2,8l2-8h1.4l2,8l2-8h1.3l-2.4,9.5h-1.6l-2-8.2l-2,8.2H431.9z M446.8,149.4h-1.2
	c-0.9,0-1.6,0.1-2,0.3c-0.4,0.2-0.6,0.6-0.6,1.1c0,0.4,0.1,0.7,0.4,1c0.3,0.2,0.6,0.4,1.1,0.4c0.6,0,1.2-0.2,1.6-0.7
	c0.4-0.5,0.6-1.1,0.6-1.8V149.4z M448,148.9v4.1h-1.2v-1.1c-0.3,0.4-0.6,0.8-1,1c-0.4,0.2-0.9,0.3-1.5,0.3c-0.7,0-1.3-0.2-1.7-0.6
	c-0.4-0.4-0.6-1-0.6-1.6c0-0.8,0.3-1.4,0.8-1.8c0.5-0.4,1.3-0.6,2.4-0.6h1.6v-0.1c0-0.5-0.2-1-0.5-1.2c-0.4-0.3-0.9-0.4-1.5-0.4
	c-0.4,0-0.8,0.1-1.2,0.1c-0.4,0.1-0.8,0.2-1.1,0.4v-1.1c0.4-0.2,0.8-0.3,1.2-0.4c0.4-0.1,0.8-0.1,1.2-0.1c1,0,1.8,0.3,2.3,0.8
	C447.7,147.1,448,147.9,448,148.9z M456.4,145.9l-3.1,7.8c-0.3,0.8-0.6,1.4-1,1.7c-0.3,0.3-0.7,0.4-1.3,0.4h-0.9v-1h0.7
	c0.3,0,0.6-0.1,0.8-0.2s0.4-0.5,0.6-1.1l0.2-0.5l-2.9-7h1.2l2.2,5.6l2.2-5.6H456.4z M462.4,149.4h-1.2c-0.9,0-1.6,0.1-2,0.3
	c-0.4,0.2-0.6,0.6-0.6,1.1c0,0.4,0.1,0.7,0.4,1c0.3,0.2,0.6,0.4,1.1,0.4c0.6,0,1.2-0.2,1.6-0.7c0.4-0.5,0.6-1.1,0.6-1.8V149.4z
	 M463.6,148.9v4.1h-1.2v-1.1c-0.3,0.4-0.6,0.8-1,1c-0.4,0.2-0.9,0.3-1.5,0.3c-0.7,0-1.3-0.2-1.7-0.6c-0.4-0.4-0.6-1-0.6-1.6
	c0-0.8,0.3-1.4,0.8-1.8c0.5-0.4,1.3-0.6,2.4-0.6h1.6v-0.1c0-0.5-0.2-1-0.5-1.2c-0.4-0.3-0.8-0.4-1.5-0.4c-0.4,0-0.8,0.1-1.2,0.1
	c-0.4,0.1-0.8,0.2-1.1,0.4v-1.1c0.4-0.2,0.8-0.3,1.2-0.4c0.4-0.1,0.8-0.1,1.2-0.1c1,0,1.8,0.3,2.3,0.8
	C463.4,147.1,463.6,147.9,463.6,148.9z M471.9,148.7v4.3h-1.2v-4.2c0-0.7-0.1-1.2-0.4-1.5c-0.3-0.3-0.7-0.5-1.2-0.5
	c-0.6,0-1.1,0.2-1.5,0.6c-0.4,0.4-0.5,0.9-0.5,1.6v4H466v-7.1h1.2v1.1c0.3-0.4,0.6-0.8,1-1c0.4-0.2,0.8-0.3,1.3-0.3
	c0.8,0,1.4,0.3,1.9,0.8C471.7,147,471.9,147.7,471.9,148.7z M478.6,149.4h-1.2c-0.9,0-1.6,0.1-2,0.3c-0.4,0.2-0.5,0.6-0.5,1.1
	c0,0.4,0.1,0.7,0.4,1c0.3,0.2,0.6,0.4,1.1,0.4c0.6,0,1.2-0.2,1.5-0.7c0.4-0.5,0.6-1.1,0.6-1.8V149.4z M479.8,148.9v4.1h-1.2v-1.1
	c-0.3,0.4-0.6,0.8-1,1c-0.4,0.2-0.9,0.3-1.5,0.3c-0.7,0-1.3-0.2-1.7-0.6c-0.4-0.4-0.6-1-0.6-1.6c0-0.8,0.3-1.4,0.8-1.8
	s1.3-0.6,2.4-0.6h1.6v-0.1c0-0.5-0.2-1-0.5-1.2c-0.4-0.3-0.8-0.4-1.5-0.4c-0.4,0-0.8,0.1-1.2,0.1c-0.4,0.1-0.8,0.2-1.1,0.4v-1.1
	c0.4-0.2,0.8-0.3,1.2-0.4c0.4-0.1,0.8-0.1,1.2-0.1c1,0,1.8,0.3,2.3,0.8C479.6,147.1,479.8,147.9,479.8,148.9z M486.9,147v-3.9h1.2
	v9.9h-1.2v-1.1c-0.2,0.4-0.6,0.7-0.9,1c-0.4,0.2-0.8,0.3-1.3,0.3c-0.9,0-1.6-0.3-2.1-1c-0.5-0.7-0.8-1.6-0.8-2.7
	c0-1.1,0.3-2,0.8-2.7c0.5-0.7,1.2-1,2.1-1c0.5,0,1,0.1,1.3,0.3C486.3,146.2,486.7,146.5,486.9,147z M482.9,149.4
	c0,0.9,0.2,1.5,0.5,2c0.4,0.5,0.8,0.7,1.5,0.7c0.6,0,1.1-0.2,1.5-0.7c0.4-0.5,0.5-1.2,0.5-2c0-0.9-0.2-1.5-0.5-2
	c-0.4-0.5-0.8-0.7-1.5-0.7c-0.6,0-1.1,0.2-1.5,0.7C483.1,147.9,482.9,148.6,482.9,149.4z"/>
<path id="Created_with_paintmaps.com" d="M647.2,512.2c-0.8,0-1.5,0.3-2,0.8c-0.5,0.5-0.7,1.3-0.7,2.2c0,0.9,0.2,1.7,0.7,2.2
	c0.5,0.6,1.1,0.8,2,0.8c1.1,0,1.9-0.5,2.4-1.6l0.8,0.4c-0.3,0.7-0.7,1.2-1.3,1.5c-0.6,0.3-1.2,0.5-2,0.5c-0.8,0-1.4-0.2-2-0.5
	c-0.6-0.3-1-0.8-1.3-1.3c-0.3-0.6-0.4-1.3-0.4-2.1c0-1.2,0.3-2.2,1-2.8c0.6-0.7,1.5-1,2.7-1c0.8,0,1.5,0.2,2,0.5s0.9,0.8,1.2,1.4
	l-1,0.3c-0.2-0.4-0.5-0.8-0.8-1C648.2,512.3,647.8,512.2,647.2,512.2z M652.7,519h-1v-4.5c0-0.4,0-0.9,0-1.3h0.9c0,0.7,0,1.1,0,1.2
	h0c0.2-0.5,0.3-0.8,0.5-1c0.2-0.2,0.5-0.3,0.9-0.3c0.1,0,0.3,0,0.4,0v0.9c-0.1,0-0.3-0.1-0.5-0.1c-0.4,0-0.7,0.2-0.9,0.5
	c-0.2,0.3-0.3,0.8-0.3,1.5V519z M660.2,516.3h-4.1c0,0.7,0.1,1.2,0.4,1.5c0.3,0.4,0.7,0.5,1.2,0.5c0.4,0,0.8-0.1,1-0.2
	c0.3-0.2,0.4-0.4,0.5-0.6l0.9,0.2c-0.3,0.9-1.1,1.4-2.4,1.4c-0.9,0-1.5-0.3-2-0.8c-0.5-0.5-0.7-1.3-0.7-2.3c0-1,0.2-1.7,0.7-2.2
	c0.4-0.5,1.1-0.8,1.9-0.8c1.7,0,2.6,1,2.6,3.1V516.3z M656.1,515.6h3.1c-0.1-0.6-0.2-1.1-0.5-1.3c-0.3-0.3-0.6-0.4-1.1-0.4
	c-0.5,0-0.8,0.2-1.1,0.5C656.3,514.6,656.1,515,656.1,515.6z M663,519.1c-0.6,0-1-0.2-1.3-0.5c-0.3-0.3-0.4-0.7-0.4-1.3
	c0-0.6,0.2-1.1,0.6-1.4c0.4-0.3,1-0.5,1.9-0.5l1.3,0v-0.3c0-0.5-0.1-0.8-0.3-1c-0.2-0.2-0.5-0.3-0.9-0.3c-0.4,0-0.8,0.1-1,0.2
	c-0.2,0.1-0.3,0.4-0.3,0.7l-1-0.1c0.2-1,0.9-1.6,2.3-1.6c0.7,0,1.3,0.2,1.6,0.5c0.4,0.3,0.5,0.8,0.5,1.4v2.5c0,0.3,0,0.5,0.1,0.7
	c0.1,0.1,0.2,0.2,0.4,0.2c0.1,0,0.2,0,0.3,0v0.6c-0.2,0.1-0.5,0.1-0.7,0.1c-0.4,0-0.6-0.1-0.8-0.3c-0.2-0.2-0.2-0.5-0.3-0.9h0
	c-0.3,0.4-0.5,0.8-0.9,0.9C663.8,519,663.4,519.1,663,519.1z M663.2,518.4c0.4,0,0.7-0.1,0.9-0.2c0.3-0.2,0.5-0.4,0.7-0.7
	c0.2-0.3,0.2-0.6,0.2-0.9v-0.5l-1.1,0c-0.5,0-0.8,0.1-1,0.1c-0.2,0.1-0.4,0.2-0.5,0.4c-0.1,0.2-0.2,0.4-0.2,0.7
	c0,0.3,0.1,0.6,0.2,0.7C662.6,518.3,662.9,518.4,663.2,518.4z M669.8,518.2v0.7c-0.3,0.1-0.6,0.1-1,0.1c-0.8,0-1.2-0.4-1.2-1.3v-3.9
	H667v-0.7h0.7l0.3-1.3h0.7v1.3h1.1v0.7h-1.1v3.7c0,0.3,0,0.5,0.1,0.6c0.1,0.1,0.3,0.2,0.5,0.2C669.4,518.3,669.6,518.3,669.8,518.2z
	 M675.5,516.3h-4.2c0,0.7,0.1,1.2,0.4,1.5c0.3,0.4,0.7,0.5,1.2,0.5c0.4,0,0.8-0.1,1-0.2s0.4-0.4,0.5-0.6l0.8,0.2
	c-0.3,0.9-1.1,1.4-2.4,1.4c-0.9,0-1.5-0.3-2-0.8c-0.4-0.5-0.7-1.3-0.7-2.3c0-1,0.2-1.7,0.7-2.2c0.4-0.5,1.1-0.8,1.9-0.8
	c1.7,0,2.6,1,2.6,3.1V516.3z M671.4,515.6h3.1c-0.1-0.6-0.2-1.1-0.5-1.3c-0.3-0.3-0.6-0.4-1.1-0.4c-0.5,0-0.8,0.2-1.1,0.5
	C671.6,514.6,671.4,515,671.4,515.6z M680.5,518.1L680.5,518.1c-0.2,0.4-0.4,0.6-0.7,0.8c-0.3,0.2-0.7,0.2-1.1,0.2
	c-0.7,0-1.3-0.2-1.6-0.7c-0.3-0.5-0.5-1.2-0.5-2.2c0-2,0.7-3,2.1-3c0.4,0,0.8,0.1,1.1,0.2c0.3,0.2,0.5,0.4,0.7,0.8h0l0-0.7V511h1
	v6.8c0,0.6,0,1,0,1.2h-0.9c0-0.1,0-0.2,0-0.4C680.5,518.4,680.5,518.2,680.5,518.1z M677.5,516.1c0,0.8,0.1,1.4,0.3,1.7
	c0.2,0.4,0.6,0.5,1,0.5c0.5,0,0.9-0.2,1.2-0.6c0.2-0.4,0.4-1,0.4-1.8c0-0.8-0.1-1.3-0.4-1.7c-0.3-0.4-0.7-0.5-1.2-0.5
	c-0.5,0-0.8,0.2-1,0.5C677.6,514.7,677.5,515.3,677.5,516.1z M693.2,513.2l-1.7,5.8h-1.1l-1-4.1l-0.2-0.9c0,0.2-0.1,0.4-0.1,0.7
	c-0.1,0.3-0.4,1.7-1.1,4.3h-1.1l-1.6-5.8h1l1,4c0,0.1,0.1,0.4,0.2,1.1l0.1-0.4l1.2-4.6h1l1,4l0.2,1l0.2-0.8l1.1-4.3H693.2z
	 M694.8,512h-1V511h1V512z M694.8,519h-1v-5.8h1V519z M698.5,518.2v0.7c-0.3,0.1-0.6,0.1-1,0.1c-0.8,0-1.2-0.4-1.2-1.3v-3.9h-0.7
	v-0.7h0.7l0.3-1.3h0.6v1.3h1.1v0.7h-1.1v3.7c0,0.3,0,0.5,0.1,0.6c0.1,0.1,0.2,0.2,0.5,0.2C698.1,518.3,698.3,518.3,698.5,518.2z
	 M700.3,514.2L700.3,514.2c0.2-0.4,0.5-0.7,0.8-0.8c0.3-0.2,0.7-0.3,1.1-0.3c0.6,0,1.1,0.2,1.4,0.5c0.3,0.3,0.4,0.8,0.4,1.6v3.9h-1
	v-3.7c0-0.4,0-0.7-0.1-0.9c-0.1-0.2-0.2-0.3-0.4-0.4s-0.4-0.1-0.7-0.1c-0.5,0-0.8,0.2-1.1,0.5c-0.3,0.3-0.4,0.7-0.4,1.3v3.4h-1v-8h1
	v2.1c0,0.2,0,0.4,0,0.7C700.3,514,700.3,514.1,700.3,514.2z M713.5,516.1c0,2-0.7,3-2.1,3c-0.9,0-1.5-0.3-1.8-1h0c0,0,0,0.3,0,0.9
	v2.3h-1v-6.9c0-0.6,0-1,0-1.2h0.9c0,0,0,0.1,0,0.2c0,0.1,0,0.2,0,0.4c0,0.2,0,0.3,0,0.4h0c0.2-0.4,0.4-0.6,0.7-0.8
	c0.3-0.2,0.7-0.2,1.1-0.2c0.7,0,1.2,0.2,1.6,0.7C713.3,514.3,713.5,515,713.5,516.1z M712.5,516.1c0-0.8-0.1-1.4-0.3-1.7
	c-0.2-0.3-0.6-0.5-1-0.5c-0.4,0-0.7,0.1-0.9,0.2c-0.2,0.2-0.4,0.4-0.5,0.8c-0.1,0.3-0.2,0.8-0.2,1.3c0,0.8,0.1,1.3,0.4,1.7
	c0.2,0.4,0.6,0.5,1.2,0.5c0.5,0,0.8-0.2,1-0.5C712.3,517.5,712.5,516.9,712.5,516.1z M716.2,519.1c-0.6,0-1-0.2-1.3-0.5
	c-0.3-0.3-0.4-0.7-0.4-1.3c0-0.6,0.2-1.1,0.6-1.4c0.4-0.3,1-0.5,1.9-0.5l1.3,0v-0.3c0-0.5-0.1-0.8-0.3-1c-0.2-0.2-0.5-0.3-0.9-0.3
	c-0.4,0-0.8,0.1-1,0.2c-0.2,0.1-0.3,0.4-0.4,0.7l-1-0.1c0.2-1,0.9-1.6,2.3-1.6c0.7,0,1.3,0.2,1.7,0.5c0.4,0.3,0.5,0.8,0.5,1.4v2.5
	c0,0.3,0,0.5,0.1,0.7c0.1,0.1,0.2,0.2,0.4,0.2c0.1,0,0.2,0,0.3,0v0.6c-0.2,0.1-0.5,0.1-0.7,0.1c-0.4,0-0.6-0.1-0.8-0.3
	c-0.2-0.2-0.2-0.5-0.3-0.9h0c-0.2,0.4-0.5,0.8-0.9,0.9C717,519,716.6,519.1,716.2,519.1z M716.4,518.4c0.4,0,0.7-0.1,0.9-0.2
	c0.3-0.2,0.5-0.4,0.7-0.7c0.2-0.3,0.2-0.6,0.2-0.9v-0.5l-1.1,0c-0.5,0-0.8,0.1-1,0.1c-0.2,0.1-0.4,0.2-0.5,0.4
	c-0.1,0.2-0.2,0.4-0.2,0.7c0,0.3,0.1,0.6,0.2,0.7C715.8,518.3,716.1,518.4,716.4,518.4z M721.8,512h-1V511h1V512z M721.8,519h-1
	v-5.8h1V519z M727.9,519h-1v-3.7c0-0.4,0-0.7-0.1-0.9c-0.1-0.2-0.2-0.4-0.4-0.5c-0.2-0.1-0.4-0.1-0.7-0.1c-0.5,0-0.8,0.2-1.1,0.5
	c-0.3,0.3-0.4,0.8-0.4,1.3v3.4h-1v-4.6c0-0.7,0-1.1,0-1.2h0.9c0,0,0,0.1,0,0.1c0,0.1,0,0.2,0,0.3c0,0.1,0,0.3,0,0.6h0
	c0.2-0.4,0.5-0.7,0.8-0.8c0.3-0.2,0.7-0.2,1.1-0.2c0.6,0,1.1,0.2,1.4,0.5c0.3,0.3,0.4,0.8,0.5,1.6V519z M731.6,518.2v0.7
	c-0.3,0.1-0.6,0.1-1,0.1c-0.8,0-1.2-0.4-1.2-1.3v-3.9h-0.7v-0.7h0.7l0.3-1.3h0.6v1.3h1.1v0.7h-1.1v3.7c0,0.3,0,0.5,0.1,0.6
	c0.1,0.1,0.3,0.2,0.5,0.2C731.1,518.3,731.3,518.3,731.6,518.2z M736.7,519h-1v-3.7c0-0.6-0.1-1-0.2-1.2c-0.2-0.2-0.4-0.3-0.8-0.3
	c-0.4,0-0.7,0.2-1,0.5s-0.4,0.8-0.4,1.3v3.4h-1v-4.6c0-0.7,0-1.1,0-1.2h0.9c0,0,0,0.1,0,0.1c0,0.1,0,0.2,0,0.3c0,0.1,0,0.3,0,0.6h0
	c0.2-0.4,0.4-0.7,0.7-0.9c0.3-0.2,0.6-0.2,1-0.2c0.4,0,0.8,0.1,1,0.3c0.3,0.2,0.4,0.5,0.5,0.8h0c0.2-0.4,0.4-0.7,0.7-0.8
	c0.3-0.2,0.6-0.3,1-0.3c0.6,0,1,0.2,1.3,0.5c0.3,0.3,0.4,0.8,0.4,1.6v3.9h-1v-3.7c0-0.6-0.1-1-0.2-1.2s-0.4-0.3-0.8-0.3
	c-0.4,0-0.8,0.2-1,0.5c-0.2,0.3-0.4,0.8-0.4,1.3V519z M743,519.1c-0.6,0-1-0.2-1.3-0.5c-0.3-0.3-0.4-0.7-0.4-1.3
	c0-0.6,0.2-1.1,0.6-1.4c0.4-0.3,1-0.5,1.9-0.5l1.3,0v-0.3c0-0.5-0.1-0.8-0.3-1c-0.2-0.2-0.5-0.3-0.9-0.3c-0.4,0-0.7,0.1-1,0.2
	c-0.2,0.1-0.3,0.4-0.3,0.7l-1-0.1c0.2-1,0.9-1.6,2.3-1.6c0.7,0,1.3,0.2,1.7,0.5c0.4,0.3,0.5,0.8,0.5,1.4v2.5c0,0.3,0,0.5,0.1,0.7
	c0.1,0.1,0.2,0.2,0.4,0.2c0.1,0,0.2,0,0.3,0v0.6c-0.2,0.1-0.5,0.1-0.8,0.1c-0.4,0-0.6-0.1-0.8-0.3c-0.2-0.2-0.2-0.5-0.3-0.9h0
	c-0.2,0.4-0.5,0.8-0.9,0.9C743.9,519,743.5,519.1,743,519.1z M743.3,518.4c0.4,0,0.7-0.1,0.9-0.2c0.3-0.2,0.5-0.4,0.6-0.7
	c0.2-0.3,0.2-0.6,0.2-0.9v-0.5l-1,0c-0.5,0-0.8,0.1-1,0.1s-0.4,0.2-0.5,0.4c-0.1,0.2-0.2,0.4-0.2,0.7c0,0.3,0.1,0.6,0.3,0.7
	C742.7,518.3,743,518.4,743.3,518.4z M752.6,516.1c0,2-0.7,3-2.1,3c-0.9,0-1.5-0.3-1.8-1h0c0,0,0,0.3,0,0.9v2.3h-1v-6.9
	c0-0.6,0-1,0-1.2h0.9c0,0,0,0.1,0,0.2s0,0.2,0,0.4c0,0.2,0,0.3,0,0.4h0c0.2-0.4,0.4-0.6,0.7-0.8c0.3-0.2,0.7-0.2,1.1-0.2
	c0.7,0,1.2,0.2,1.6,0.7C752.4,514.3,752.6,515,752.6,516.1z M751.6,516.1c0-0.8-0.1-1.4-0.3-1.7c-0.2-0.3-0.6-0.5-1-0.5
	c-0.4,0-0.7,0.1-0.9,0.2c-0.2,0.2-0.4,0.4-0.5,0.8c-0.1,0.3-0.2,0.8-0.2,1.3c0,0.8,0.1,1.3,0.4,1.7c0.2,0.4,0.6,0.5,1.2,0.5
	c0.5,0,0.8-0.2,1-0.5C751.5,517.5,751.6,516.9,751.6,516.1z M758.2,517.4c0,0.6-0.2,1-0.6,1.3c-0.4,0.3-1,0.5-1.7,0.5
	c-0.7,0-1.3-0.1-1.7-0.4c-0.4-0.2-0.6-0.6-0.8-1.1l0.8-0.2c0.1,0.3,0.3,0.5,0.5,0.7c0.3,0.1,0.6,0.2,1.1,0.2c0.5,0,0.9-0.1,1.1-0.2
	c0.2-0.2,0.3-0.4,0.3-0.7c0-0.2-0.1-0.4-0.2-0.6c-0.2-0.1-0.4-0.3-0.8-0.3l-0.7-0.2c-0.6-0.1-1-0.3-1.2-0.4
	c-0.2-0.1-0.4-0.3-0.6-0.5c-0.1-0.2-0.2-0.4-0.2-0.7c0-0.5,0.2-0.9,0.6-1.2c0.4-0.3,0.9-0.4,1.7-0.4c0.6,0,1.2,0.1,1.5,0.3
	c0.4,0.2,0.6,0.6,0.7,1.1l-0.9,0.1c-0.1-0.3-0.2-0.5-0.4-0.6c-0.2-0.1-0.5-0.2-0.9-0.2c-0.4,0-0.8,0.1-1,0.2
	c-0.2,0.1-0.3,0.3-0.3,0.6c0,0.2,0,0.3,0.1,0.4c0.1,0.1,0.2,0.2,0.4,0.3c0.2,0.1,0.5,0.2,1.1,0.3c0.5,0.1,0.9,0.2,1.1,0.4
	c0.2,0.1,0.4,0.2,0.5,0.4s0.2,0.3,0.3,0.5C758.1,517,758.2,517.2,758.2,517.4z M760.6,519h-1v-1.2h1V519z M763.1,516.1
	c0,0.8,0.1,1.3,0.4,1.7c0.2,0.4,0.6,0.6,1.1,0.6c0.3,0,0.6-0.1,0.9-0.3c0.2-0.2,0.4-0.5,0.4-0.9l1,0.1c-0.1,0.6-0.3,1-0.7,1.3
	s-0.9,0.5-1.5,0.5c-0.8,0-1.4-0.3-1.9-0.8c-0.4-0.5-0.6-1.3-0.6-2.2c0-1,0.2-1.7,0.6-2.2c0.4-0.5,1-0.8,1.8-0.8
	c0.6,0,1.1,0.2,1.5,0.5c0.4,0.3,0.6,0.7,0.7,1.3l-1,0.1c-0.1-0.3-0.2-0.6-0.4-0.8c-0.2-0.2-0.5-0.3-0.9-0.3c-0.5,0-0.9,0.2-1.1,0.5
	C763.2,514.7,763.1,515.3,763.1,516.1z M772.8,516.1c0,1-0.2,1.8-0.7,2.3c-0.4,0.5-1.1,0.8-1.9,0.8c-0.8,0-1.5-0.3-1.9-0.8
	c-0.4-0.5-0.6-1.3-0.6-2.2c0-2,0.9-3,2.6-3c0.9,0,1.5,0.2,2,0.7C772.6,514.3,772.8,515.1,772.8,516.1z M771.8,516.1
	c0-0.8-0.1-1.4-0.4-1.8c-0.2-0.4-0.6-0.5-1.2-0.5c-0.6,0-1,0.2-1.2,0.5c-0.3,0.4-0.4,1-0.4,1.7c0,0.8,0.1,1.3,0.4,1.7
	c0.3,0.4,0.6,0.6,1.2,0.6c0.6,0,1-0.2,1.2-0.6C771.6,517.5,771.8,516.9,771.8,516.1z M778.3,519h-1v-3.7c0-0.6-0.1-1-0.2-1.2
	c-0.2-0.2-0.4-0.3-0.8-0.3c-0.4,0-0.7,0.2-1,0.5s-0.4,0.8-0.4,1.3v3.4h-1v-4.6c0-0.7,0-1.1,0-1.2h0.9c0,0,0,0.1,0,0.1
	c0,0.1,0,0.2,0,0.3c0,0.1,0,0.3,0,0.6h0c0.2-0.4,0.4-0.7,0.7-0.9c0.3-0.2,0.6-0.2,1-0.2c0.4,0,0.8,0.1,1,0.3
	c0.3,0.2,0.4,0.5,0.5,0.8h0c0.2-0.4,0.4-0.7,0.7-0.8c0.3-0.2,0.6-0.3,1-0.3c0.6,0,1,0.2,1.3,0.5c0.3,0.3,0.4,0.8,0.4,1.6v3.9h-1
	v-3.7c0-0.6-0.1-1-0.2-1.2s-0.4-0.3-0.8-0.3c-0.4,0-0.8,0.2-1,0.5c-0.2,0.3-0.3,0.8-0.3,1.3V519z"/>
</svg>
