<?xml version="1.0" encoding="utf-8"?>
<!-- Generator: Adobe Illustrator 25.1.0, SVG Export Plug-In . SVG Version: 6.00 Build 0)  -->
<svg version="1.1" id="Layer_1" xmlns="http://www.w3.org/2000/svg" xmlns:xlink="http://www.w3.org/1999/xlink" x="0px" y="0px"
	 viewBox="0 0 800 533" style="enable-background:new 0 0 800 533;" xml:space="preserve">
<style type="text/css">
	.st0{stroke:#000000;stroke-width:0.4;}
	.st1{fill:none;}
</style>
<path id="Bishnupur" class="st0" d="M404,393.2l-0.9,0l-0.6-0.3l-1.1,0l0-1.3l-3.2-4.5l-0.6-2l-1.1-9.6l-0.9-1.3l-0.8-0.7l-4,1.3
	h-0.9l-1.7-1.7l1.4-5.6l-0.3-0.3l0.3-1.3l-4-1.7l-2.8-0.7l-3.4,0l-1.1-1.7h-0.8l-0.3,1l-0.6,0.3l-0.6,2l-1.1,0l-0.6-1.3l0-3l0.9-2.6
	l-0.3-0.7l-2.3,2l-2-2.3l-0.3-2.7l-0.8-3l0.8-1.3l0.3-1.3l0.3-3l0.9-1.7v-3.3l2.6-4l0.1-5.9l0-7l-0.6-1.7l-0.3-3.3l-1.1-4.3l0.3-2.3
	l2.9-7.6l0.3-0.3l2.3-7l-0.3-3l-0.3-1l0.6-5l0.9-1l0.6,0.3h1.1l0.9-2v-1.7l0.6-2l0-5.3l0.9-1.3l-0.6-1l0-0.7l3.1,2l2,0.3l1.1-0.7
	l3.7,3l1.7,0.3l2-0.3l6,1.2l2,1.3l2,0l-0.3,1l0.3,1.3v1l-0.3,2l-2.9,2.7l-1.7,0.7l-4,0.3l-0.3-1.3l-2,0.3l-7.1,3l0.8,6.6l2.5,2
	l-0.6,1.7l-1.7,2l0,1.7l1.1,1.7l1.7,0.7l5.7-4.6l0.9,0.3l0.6,0.7l-0.6,1.3l0.6,1.7l2.6-0.7l0.6,0.7l0.3,1.3l-0.3,1.3l3.4,3.6
	l0.3,1.3l-0.3,1l-3.4,1.6l-0.6,2l1.4,3l-1.1,3.7v3.3l0,1.5l0.3,0.7l0.6-0.4l0.6,0.4l0,2.7l0.8,0.3l-0.3,1.3L403,337l1.4,1.7l0.3,1
	l-0.3,1l-0.6,0.7l-0.9,2l-0.3,1.3l-1.7,2.3l-0.9,0.3l-0.8,0.7l0.6,0.7v0.7l-0.6,0.7l0,2l-0.6,0.7l-0.6,1.7l-0.9,0l-1.1,1.3l0,1.3
	l1.7,3l-1.1,0.3l-0.3,0.7l0.3,1.3l0.9,1l0.3,1l0,3.3l0.6,1v0.3l-0.6,0.7l0.3,3.3l0.8,0.3v1l-0.6,0.7v1.3l1.1-0.7l0.6-0.7l0.6,1
	l-0.8,1l-0.9,1.6l2,2l-0.6,1v1.6l-1.1-0.6l0.3,2.3l-0.6,1.7l0.6,0.3l1.7,0l0.9,0.6l0,1.3L404,393.2z"/>
<path id="Chandel" class="st0" d="M377.1,467.9l-1.2,0.2l0.2-1.7l0.7-2l0.1-1.3l0.7-2l1.9-3l0.1-1.7l0.9-0.7l0.1-1.7l0.3-2l1.2-1.7
	l-0.5-1.7l1.1-1l-0.3-2l1.1-1l0.3-1.7v-2l-0.6-1.3l-0.6-2.7l1.1-1.3l-0.4-1l1.1-2.5l1.7-0.3l0.3-1l2-0.3l1.4-2.3l0.9-3.6l2.5-1.7
	l0.6-1.7l1.7-1l0.6-2.6l0.8-0.7l0.6-2.7l1.1-1.7l1.1,1.3l1.4,0.7l0.6-1.7l0-1.3l1.7-0.3l0.6-0.7l0-1.3l-1.4-1l-2-0.3l-0.3-0.7
	l0.9-1.3l0.6-1.3l-0.8-0.3l0.3-2l-0.6-1.7l0.3-1.4l1.2-1.4l0.6-1l1.5-3.7l1.1,0.7l0.3,1.3l-0.9,3.4l0.2,6.4l0.3,1.3l1.4-0.7l1.2-2
	l2.6-0.7l0-3.4l1.1,0.6l0.9-0.7l0.3-2.3l-0.6-1.9l0.3-0.6l1.1,0.3l1.4-1.3l0.6-1.3l0.6-0.3v-1.3l-1.4-3.6l-1.7-3.3l-1.7-2l-0.8-2.3
	l0.3-3.3l0.6-1.6l0.6-3.3l1.4-1.6l0.6-3l1.7-2l2,0.3l0-1l-0.3-1l0.3-1l0.9-1l1.1,0l1.1,0.7l0.6-0.4l0.3-0.7l-0.3-2.4l1.4-3l0.9-4.6
	l-0.3-1.8l-0.9-2.5l-0.3-2.1l0-3.6l0.3-0.3l0.9-0.4l0.6,0l0.9,1.4l0.3,3.8l2.8,1.2l0.7,0.8l0,3.8l0.4,1.3l1.5-0.2l1.9-0.6l3.2-2.9
	l2.5-4l-2.8-8.3l-0.1-0.2l0.9-5.6l0-3.9l1.6,1.2l1.1,1.3l0.9-0.5l0.1,0.7l-0.7,0.8l-0.3,0.6l0.1,1.4l0.7,1.2l0.9-1.2l0.5-1.2
	l0.4,1.5l1.1-0.2l2.3,0.3l1-0.6l-2.7-6.1l-0.6-3.6l0.4-2.3l1.4,0.3l2.1,2.6l1.1-0.4l0.9-1.6l1.3-4.5l2.1-3.8l0.4-1.9l-0.2-1.1
	l0.6-0.8l1.3,0.2l1.1,0.5l1.2,0.3l1,0l1-0.5l0.1-2.1l-0.3-1.9l0.2,0l1.4-0.4l1.1-0.9l2.1-3l0.5-0.2l5.2,2.4l0.9,0.5l1.5,0.6l0.8,0.8
	l1.6,0.1l1.5,0.5l3.3,0.1l0.5,0.2l1.1,1.5l0.8,1.6l1.5,2l2.8-1.4l1.5,2l0.7,1.5l2.2,1.4l1,1.3l0.2,1.1l0.8,0.5l2.3,0.5l0.4,1.2
	l0.7,0.2l0.5,0.3L494,320l0.5,1.8l-0.6,0.8l0.6,0.8l2.9-1.1l0.7,0l0.5,1.1l1-0.1l0.4-0.5l2,0.2l0.3,0.8l-0.1,0.5l-0.5,0.8l0.1,0.6
	l-0.1,0.9l-0.5,1l-0.7,0.6l0.1,1.7l-0.6,0.7l0.5,0.5l1.3,0.2l0.2,0.6l-0.5,0.8l1.7-0.4l0.1,0.8l-0.1,0.6l-0.7-0.4l-0.2,0.6l0.8,0.3
	l-0.1,0.8l0.7,0.1l-0.1,0.7l-0.8,0.8l0.3,0.3l0.8,0l0.3,0.7l0.4,0.4l0.3,0.8l1.2,1.4l0.6-0.7l0.9,0.3l0.5,0.7l-1.1,0.5l0.5,1.6
	l1.1,3.2l-1.7,1.2l-0.5,0.8l1.5,2.2l0.2,2.6l-0.3,3.4l-0.7,2.7l-0.9,2.1l-1.5,0.9l-0.1,0.1l-1.5,0.5l-1.8,0.7l-1.5,0.1l-0.3,1.3
	l0.4,0.4l1.7,1.5l1.9,2.2l-0.5,1.4l-1.1,2.2l-1.6,2.4l-2.7,4.1l-0.8,1.2l-0.9,0.7l-1.4,0.1l-1,0.1l-1.7-0.1l-0.2,1.3l0.3,0.9l0.1,2
	l0.1,1.1l0.1,3.4l-0.1,3.6l-1.2,4.4l-1.4,4.3l-0.3,1.5l-1.2,1.4l-0.7,0.8l-1.7,1.5l-0.7,4.4l-0.2,0.8l-0.5,1.8l-0.5,2.8l-0.1,2.9
	l-0.2,3.1l-0.8,1.1l-0.2,0.1l-2.4,0.9l-0.8,1.2l-0.5,3.2l0,0.3l-0.4,3.1l0.2,3l0,3.1l-0.5,3.5l0.3,1.3l0.3,1.4l-0.1,1.8l-1.1,3.1
	l-0.8,1.9l-0.6,2.1l-0.1-0.1l-1.3-0.8l-1.4-0.2l0.4,2.2l0.3,0.5l1.4,2.3l0.4,1l-2.7,6l-1.2,1.9l-1,2.1l-1,2.3l-1,1.3l-1.8,3.8
	l-1.4,3.4l-0.2,3.7l0.7,1.9l-0.2,1.7l-1.1,1l-1.4-0.8l-0.3-0.2l-1-0.3l-1.2,1l-0.2,1.7l-0.1,4.5l-0.1,5.9l-0.6,6.4l-0.7,3.2
	l-0.8,0.2l-0.4,0.1l-1.6-1.2l-0.2,0l-1.4,0.1l-0.8,2.6l-1.3,0.9l-1.2,0h0l-1.6-2.6l0-0.2l-0.1-3.6l-0.5-1.1l-1.5-1.7l-0.6-3.1
	l-1-1.2l-1.1-0.2l-1,0.4l-1.9,0l-1.4-0.7l-1.5-0.5l-0.9-0.1l-1.1-0.7l-0.4-1.8l-0.5-1.6l-0.7-1.2l-1-0.7l-0.8-0.4l-1.3-1l-1.2-1.4
	l-0.8-0.6l-0.9-0.2l-1.1,0.4l-1.3,0.5l-1.2-0.1l-1.2-0.1l-1.6-0.3l-1-0.5l-1.4,0.4l-1.4-0.9l-0.1-1.6l-0.4-0.9l-1.2-0.9l-2.4-0.7
	l-1.2-0.1l-1.9-0.5l-1.1-0.4l-1.4-0.2l-1.4,0.1l-1,0.4l-1.2,0.2l-1,0.8l-0.8,1.1l-1.1,0.1l-0.9,0.1l-0.8,0.8l-1.4,1.6l-3.5,0
	l-2.2,1.6l-1.9,0.2l-2.4,0.4l-1.3-0.7l-0.2-0.1l-0.5-1.1l-0.1-2.6l-0.4-1l-0.5-1.2l-0.8-0.3l-0.6-1.6l-0.1-1.2l-1.6-0.5l-1.2-2.2
	l-1.2-1.2l-0.6-2l-0.7-1.9l-0.9-1.9l-1.1-1.4L377.1,467.9z"/>
<path id="Churachandpur" class="st0" d="M377.1,467.9l-0.4,1.9l-0.9,0.5l-1.4-0.7l-1.2-0.5l-1.3-0.5l-1.5,0.1l-1.3-0.3l-1.8-0.3
	l-2.1-0.6l-1.8-0.4l-0.6,0.8l-1.4,0.7l-0.9,0.2l-0.8-0.7l-0.8-0.7l-0.5-0.9l-1.5-0.1l-1.9,0.2l-1.5-0.5l-1.4,0.3l-0.9,0.9l0.1,2.1
	l0.6,0.8l0.1,0.1l0.1,1.1l0,1.1l-1,2.6l-0.7,1.1l-0.6,1l-0.6,0.6l-0.5,0.5l-1.2,0.6l-0.9-0.2l-1.7-0.1l-0.7-0.4L344,478l-0.6-2
	l-0.9-1.4l-0.7-1.4l-1.1-0.2l-0.5,1.1l-0.8,1.6l0.1,2.5l-0.5,1.3l-1.7,0.5l-1.4,0l-1.8,0.7l-1.2,1.6l-0.9,1.1l-0.1,0.1l-0.9,0.8
	l-1.3-0.5l-1.2-1.8l-1.3-0.4l-1.3-1.1l-0.7-1.6l-1.5-0.5l-1.1-0.3L322,477l-0.5-1.4l0.1-2.2l0.1-1.2l0-0.2l-0.1-1.7l-0.2-0.2
	l-0.6-0.9l-0.9-1.6l-0.3-1.4l-0.8-2.1l-1.8-1.3l-0.6-1.8l-0.2-2.3l-1.4-4.8l-1.6-2.6l-0.9-1.1l-1-0.8l-1-0.6l-1.2-0.7l-2.6-1
	l-1.5-0.3l-2.6-0.8l-0.4-0.1l-0.4-0.1l-1-1.9l-0.9-2.4l-1.1-0.9l-0.9-0.2l0.4,2.1l0.4,0.9l0.6,1l-1.4,1.4l-0.6-0.5l-0.8,0.3l-1,0.8
	l0.4,1.3l0,0.1l0.3,1.6l0.2,1.8l0.6,1.3l-0.9,1.7l-0.2,1.1l0.2,0.9l-4.9-0.2l-2.8,0.7l-2,0l-0.6,1.3l-1.7,1.7l-0.6,1.7l-3.7,2.7
	l0.3-1.3l-0.9-1.3l2-6.3h0.3l0.6-0.7l-0.6-2v-1.3l-3.1-3.3l-1.1-0.3l-1.1,0.7l-2-0.7l-0.6,0.7l-0.3,0.7l0.6,2l-0.6,1.7l-0.3,1.7
	l-0.8,3l-3.7-0.6l-0.8-1l-3.1,0.6l-0.6,0.1l-1.1-0.3l-0.6-1.7l0.6-2.7v-1l-1.7-0.7l-0.6-1.6l-2.1-1.1l-1.1,0.3l-1.4,2v1.7l-1.1,2.3
	l-1.7,1l-0.3,1l-1.4,0.3l-0.3,1.3l-0.9,0.3l-1.1,1l-0.3-1l0.9-1l-0.6-1l0.3-1.7l-0.3-1l0.3-2l-1.4-1.7l-1.1-1l-0.9-1.7l-1.1-3.3
	l-1.1,0.7l-1.7,1.6l-2.3,1l-3.2-1.2l-0.6-1.1l-0.9-0.4l-0.6-0.7l-1.2,0.6l-1.5-0.8l-0.9-1.4l-1.8-1.4l-0.8-0.4l-1.4,0.1l-0.9,0.4
	h-1.7l-0.3-0.6l-0.2-1.8l0.8-0.7l1.7-0.7l0.7-0.8l0.7-2.3l-0.4-1.7l0-0.9l0.4-0.8l1.5-0.9l0.9-1l0-0.7l-0.4-2.9l1.5-2.1l-1.6-3.2
	l0-0.8l1.9,0l0.8-0.6l0.3-2l0.8-0.7l0.3-2l-0.8-2v-1l1.4-1l-1.7-1l-2.2-4.6l0-2.3l1.4-2.3l-1.1-2.3l0.6-2l1.4-1.3l1.1-2l2.2-4.7
	l1.6-6.6l-2.3-0.3l-2-0.6l-0.4-3.2l0.2-1.9l0.4-2.2l-1-1.5l1.4-2.8l-4.7-3.4l1.2-2.3l0.5,1.7l1.4,0.8l2.6-1l2-1.3l0-1.7l-1.4-3
	l0.9-4l0.2-4.5l2.1-0.8l0-3l-0.5-1.7l-2-4l1.7-2.3l-0.9-1.3l0.3-1l2.3-1.3v-1.3l-0.9-1.6l0.6-1.7l0.3-2l1.7-2.6l0.9,2l1.4-3.6
	l-2.3-3.6l2-0.3l1.4,0.3l1.7,1l1.8-2.4l0.2-0.6l1.4,0l0.5-0.3l2,2.9l2.5,2l1.2,0.2l2.1-2l1.5-2.6v-1.8l-1.5-1.8l-2.4-2l-2.7-3
	l-0.2-4.5v-3.9l0.2-5.1l1.2-3.4l1.5-3.7l1.5-2.4l2.7-0.4l1.1-2.5l0.9,0l3.1,1l2.3,0l2.8,0.7v0.7l0.3,0.3l1.7,0.7l0.3-0.3l-0.3,1
	l-1.4,2.3l-0.6,4.6l2.8-1v2l-0.6,0.3l-0.9-0.7l-0.6,0.7l0,1l0.9,2v1.7l1.1,1l0.6,1v1.3l-0.6,1.7l-1.7,0l-0.3,1l1.4,1.6l-0.3,1.3v1.3
	l0.6,1.7l-0.6,3.3l-0.3,0.7l-0.6,0.3l-1.7-1l-0.3-0.3l0.3,3l0.9,0.7l-0.6,0.7l0.6,0.3l0.6,1l-0.6,0.3h-0.6l-0.6-0.7l-1.1-0.7l-0.6,1
	l0.6,0.7l0.3,0.7v0.7l-0.6,1l-0.9,1.3l-1.4,1.3l-0.6,1.3l-0.6,2.3l-1.1,1l0.6,2l-0.3,1.3h0.9l1.1,0.6l0.3-2.3l1.7,0.3l0.9,1.7
	l1.7,0.3l1.4,4l1.7,1l1.4-2l1.1-2.3l2.3-0.7l1.4,1.3l1.4,0l1.1-0.3v-2l0.6-1l-1.7-0.6l1.4-3.3l1.1-1.3l-0.6-1l1.1-0.7l1.7-3.3
	l-0.9-1l1.4-0.7l4,1l2-0.7l1.7-0.3l2,0l0.9-1.7l1.4-0.7l1.4,0.3l6.8,2.3l1.1-2.7l1.1,0.7l0.3,1l0.9,1.3l1.1,1l3.4,1.3l3.7,4.3
	l1.1-1.7l2.3-6l1.1-0.7h1.4l1.1,1l1.7,4l1.1-1.3l0.6,0.3l1.4-1.3l0.9-1.3l4,2.3l0.9-0.3v-3l0.6-0.7l0.6-2l0.8,0.3l0.6-1h1.7l0.3-1
	l2.3-1.7l0.8,1.7l1.4,1.3l0.9,1.3l0.6,1.7l1.1,0.7l0.6-1l1.7-0.3l0.9-1.3l0.9-1.7l1.4-5l0.6-0.7l1.7-0.3l3.1,3.7l0.6-1l0.3-2
	l1.4-1.3h1.1l2.6,0.7l1.7-1.3l2.3-0.6l3.4,2l0.9,1.3l0.6,2l-0.3,2.3l1.1,4.3l0.3,3.3l0.6,1.7l0,7l-0.1,5.9l-2.6,4v3.3l-0.9,1.7
	l-0.3,3l-0.3,1.3l-0.8,1.3l0.8,3l0.3,2.7l2,2.3l2.3-2l0.3,0.7l-0.9,2.6l0,3l0.6,1.3l1.1,0l0.6-2l0.6-0.3l0.3-1h0.8l1.1,1.7l3.4,0
	l2.8,0.7l4,1.7l-0.3,1.3l0.3,0.3l-1.4,5.6l1.7,1.7h0.9l4-1.3l0.8,0.7l0.9,1.3l1.1,9.6l0.6,2l3.2,4.5l0,1.3l1.1,0l0.6,0.3l0.9,0
	l-1.5,3.7l-0.6,1l-1.2,1.4l-0.3,1.4l0.6,1.7l-0.3,2l0.8,0.3l-0.6,1.3l-0.9,1.3l0.3,0.7l2,0.3l1.4,1l0,1.3l-0.6,0.7l-1.7,0.3l0,1.3
	l-0.6,1.7l-1.4-0.7l-1.1-1.3l-1.1,1.7l-0.6,2.7l-0.8,0.7l-0.6,2.6l-1.7,1L393,423l-2.5,1.7l-0.9,3.6l-1.4,2.3l-2,0.3l-0.3,1
	l-1.7,0.3l-1.1,2.5l0.4,1l-1.1,1.3l0.6,2.7l0.6,1.3v2l-0.3,1.7l-1.1,1l0.3,2l-1.1,1l0.5,1.7l-1.2,1.7l-0.3,2l-0.1,1.7l-0.9,0.7
	l-0.1,1.7l-1.9,3l-0.7,2l-0.1,1.3l-0.7,2l-0.2,1.7L377.1,467.9z"/>
<path id="Imphal_West" class="st0" d="M250.2,315.8l0-0.1l-0.5-1l-1.1-1l-2,0.4l-1.7-0.7l-0.9-1l0-1l0.3-1l2-2l0-0.7l-0.9-1l-0.6-1
	l0-1.3l0.6-0.3h1.4l0-1.7l-0.9-3.6l0.3-1l0.6-0.3l1.4,0v-1l0.3-0.7l0-1l0.3-1l0.8-1.3l0.3-1v-1l-0.6-0.3l-0.9,0.7l-0.8,0.3l-0.3-0.3
	v-0.7l0.3-1v-1l-0.6-1.3l-1.1-1.3l-0.3-1l-0.6-0.7l-0.9-1.6l0.6-1l2,1.3l0.8-1.7l0.3-1.3l-0.3-1h0.3l0.6-1v-1l1.4-1.3l0.6-1.3
	l-0.3-1l-0.6-0.3v1l-0.3,0.3l-0.6-0.7l0.6-1.3l-0.3-0.3v-1l0.8-2.3l0.3-1.7l-0.6-1l-0.3-1.3l1.1-1.3l-0.3-0.3l0-1l0.6-0.7l0.8-3
	l-0.6-2l0.3-0.7l1.7-1.3l0.6-0.7v1.3l-0.6,1l0.3,0.7h1.1l0.9,0.7l1.1-1.3l0.6,1.7l0.6,1l0.3,0.3l0.9,0.3l0.6,0.7l0.3,0.7l0,1
	l0.9-0.7l0.9-1.3l0.9-0.3l0.6-0.7l1.1-0.7l0.3,1.7l0.3,0.3l0.3,0l0.3-0.7v-1l0.3-0.7h0.9l0.8-0.3l0.6,0l0.3-0.7l0.6-0.7l0.3-1
	l-0.6-0.3l-0.9-1.6l0.3-1l0.9-2l-0.9,0V249l0.3-0.3h0.3l0.6,0.3l0.6-1l-0.3-0.3l-0.3,0.3h-0.3l-0.6-1l0.3-0.7l1.1,0.7v-1.7l-0.6-0.7
	l-0.3-1l0.6-0.3l1.1,0.7l0.6-0.3l0.3-0.7l0.8-0.8l2.6,0.3l1.1,0.7l1.1,0.3l1.1,0l0.3,0.7l-0.6,2.7l-2,5l-1.4,4.3l-0.3,1.7v1.3
	l-0.6,0.7l-0.9,0.3l-1.7,2l-0.6,1l-1.1,0.7l-0.9,0l-0.6-0.3l-0.6-1v-0.7l-2,0.3l-1.4,5.6l-2.8,5l-1.7,4.7l-0.3,2l-0.6,1.7l0.6,0.7
	l2.5,0l-1.1,2.5l-2.7,0.4l-1.5,2.4l-1.5,3.7l-1.2,3.4l-0.2,5.1v3.9l0.2,4.5l2.7,3l2.4,2l1.5,1.8v1.8l-1.5,2.6l-2.1,2l-1.2-0.2
	l-2.5-2L250.2,315.8z M414.7,231.8l0.3,0.7l1.2-0.7l0.9,0l1.4-1.3l-0.3-0.3h-0.9l0-0.3l2.6-2.3l0.3-1l-2.6,1.3l-0.3-1.3l0.6-0.6
	l2-0.9l0.3-0.3l0.3-1.5l-1.7-0.1l-0.6-0.7l0.3-1.6l1.9,0.5l1.1-0.1l0.3,1.2l1.1,0.4l0.1,2.4l0.3,0.6l0.6,0.6l1.1-1.4l-0.3-0.3
	l-0.1-2.7l-0.3-0.6l-0.6-0.4l0-0.8l-2.7-1.5l-0.3-1l-1.9-0.4l0.8-0.8l-0.8-1.8l1.6,1.4l0.5-0.5l0.8,0.3l0.5,0.5l0.3,1.3l0.8,0.6
	l1.1,0.2l1.9,1l0.1-2.1l1.1-1.3l1.4,1.1l0.7,0.2l0.9-0.1l0.6-1l0.3-4.7l0.8-5.3l-0.3-1.3l-0.9-0.1l-1.2-0.5l-2.4-0.2l1.3-0.8l2-0.1
	l0.5-0.2l0.3-0.6l0.2-2.1l-0.1-1l-0.6-2.5l-0.5-1.2l0.8-2.4l0.7-1.1l2-1.1l0,0.6l-0.5,0.8l-0.7,2.7l0.1,0.7l0.8,1.4l0,1.7l0.5,0.7
	l0.8-0.1l0.4-0.4l0.5,0.1l1,1.7l-0.5,0.3l-0.3-0.1l-0.4-0.5l-0.3,0l-0.3,0.8l-1.1,0l-0.4,1l0,0.6l0,0.2l1,0.3l0.6-0.3l0.3-0.1
	l0.3,0.1l0.5,0.8l0.4,0.2l-0.1,0.3l0.6,0.7l-0.6,0.3l-1.3,0.2l-1,1.8l0,0.6l1.8-0.3l0.4,1.4l-1.5,0.3l-0.9,2.1l-0.2,0.8l0.1,0.8
	l1.2-0.6l0.8-0.8l0.8-0.4l0.1,1.7l-0.3,1.1l0,1.2l0.5,0.6l2.3,0.3l0.7,0.7l-0.5,0.8l-1.5,1l-0.2,0.5l1,0.5l1.2-0.1l0.7,0.1
	l-1.6,10.4l0.4,3.7l0.6,1.2l1,0.8l1.8-0.3l2-1.2l1.1-1.1l0.8-3.7l1.5-0.4l1.3-0.1l1.1-1.8l0.3-1.1l1.7-1.5l0-3.7l0.6-0.6l0.9,0.2
	l0.3,1.2l0,1.3l0.2,1l0.7,0.9l0.4,0.9l-1.1,1.9l-2.4,3l-1,3.9l-0.9,1l-0.7,1.4l-0.4,2.1l-0.4,4l-0.8,0.3l-1.3,0l-0.8,0.6l0.7,5.1
	l-0.6,2.1l-0.9,1.8l-0.8,2.5l-0.3,2.6l-1.6,11.7l-0.7,0.3l0.2,1.2l-0.3,1.1l-0.9,0.1l0.1,0.9l-0.8-0.5l-0.2,0.6l0.5,0.5l-0.5,0.5
	l0,0.9l0.8,0.6l-0.4,0.3l-0.7,0l-0.6,2.5l1.9-0.6l0,0.6l-0.8,0.6l0.4,0.1l-0.2,0.5l0.2,0.4l-0.6,0.4l0.5,0.8l-0.6,0.6l-0.4,0.8l0,2
	l0.2,0.9l0.9-0.7l0.5-2.8l1.6-0.5l0.8,2.3l0.7,0.9l0.3,0.7l-0.3,1.5l-0.8-0.4l-0.2,0.7l-0.3-0.3l-0.7-0.1l0,0.8l-2.8-0.2l-0.3,0.4
	l-0.3,1.1l-2.4-0.3l0.1,1.7l-1.1,0.6l0.1-1.1l-1.3,1l-0.1-0.7l-0.4-0.6l0.2,1.3l-0.8,0.3l-0.8-0.3l-0.4,1.5l-0.7,0l-0.4-1l-0.5-3
	l-1.1-1.1l1.5-2.4l0-1.4l-0.7-1l-1.3-1.1l-0.7-1.4l0-2.7l-0.8-0.9h-0.9L424,277l-1.6,0.6l-0.3,1l0.3,2l-0.8,0.3l-0.3,1.7l-1.7-0.7
	l-2.5-0.4l0-0.7l-0.6-1.7l-0.3,0.7l-1.7-8.9l0.6-4.7l0-3.7l0.6-2.3l0.6-8.6l0.5-2.7l-1.7-1.3l-0.6-1.7l-3.7-2.7l-0.9,1l-2.5-0.7
	l0.5-2.3L414.7,231.8z"/>
<path id="Imphal_East" class="st0" d="M408.2,321.5l-1.1,0.7l-1.1,0.3l-2.8,0.3l-1.4-3l0.6-2l3.4-1.6l0.3-1l-0.3-1.3l-3.4-3.6
	l0.3-1.3l-0.3-1.3l-0.6-0.7l-2.6,0.7l-0.6-1.7l0.6-1.3l-0.6-0.7l-0.9-0.3l-5.7,4.6l-1.7-0.7l-1.1-1.7l0-1.7l1.7-2l0.6-1.7l-2.5-2
	l-0.8-6.6l7.1-3l2-0.3l0.3,1.3l4-0.3l1.7-0.7l2.9-2.7l0.3-2v-1l-0.3-1.3l0.3-1l-2,0l-2-1.3l-6-1.2l-2,0.3l-1.7-0.3l-3.7-3l-1.1,0.7
	l-2-0.3l-3.1-2l1.4-0.5l0.3-2l2.3-5l-0.6-1l0.9-1.3l-0.3-1l-0.9-1.7l-0.6-2l-0.6-3.3l0.9-1v-2.7l1.1-1.3l3.4-3.3v-2.3l-0.3-2.3
	l0.6-0.7l-0.9-2l0.6-1.3l1.4-0.7l0.8-4l1.1-1l0.9-4l0.6-4.3l1.7-2l0.1-3.7l0.6-2l3.6-1.4l1.3-5.1l3.1-6.7l0.7-2.4l0.2-2.2l1.5-3.4
	l1.9-2.5l1.1-0.6l0.4-0.6l0.6-1.8l0.1-1l8.5-4.4l2.1-0.8l1.4,0.5l0.8,0.9l0.3,1.5l-0.6,2.4l-4,5.9l-1.3,1.6l-4.7,3.2l-1.7,1.4
	l-2.2,2.4l-0.3,4.3l-1.4,2.4l0.8,0.3l0.2,0.7l1.1-0.3l0.5,0.7l-1.8,1l-0.6,0.7l-0.4,1.3l-1.5,0.7l-0.9,1l-0.8,3l1.3,2l2.2,1.7
	l0.5-4.7l4-5.6l0.5,0.7l0.8-0.6l-0.6,1.3l-1.5,1.6l-0.2,4l0.1,4.3l-0.6,0.7l0,1.7l-0.9,0.7l0.3,1.3l-1.1,1.7l1.4-0.7l1.4-0.3
	l1.1,0.3l0.3,1v0.7l-6.7,9.2l-0.5,2.3l2.5,0.7l0.9-1l3.7,2.7l0.6,1.7l1.7,1.3l-0.5,2.7l-0.6,8.6l-0.6,2.3l0,3.7l-0.6,4.7l1.7,8.9
	l-0.9,0.7l-1.7,0l-0.6,1.4l0,1.3l-1.7-0.3l-1.1,1.4l-1.1-0.3l0.3,1.3v1l-0.3,1l0.6,2l-0.6,0.7l-0.3,0.7l0.9,0.7l1.7,0l0,0.7l-0.6,1
	l0.3,0.7l2,0.3l0.3,0.3l1.4-0.3l0,4.4l-0.6-1.3l-0.9-0.3l-1.4,4l-2,0.3l-1.1,1l-0.9,1l0,2.7l-1.7,1l1.7,2l1.4-1.3l0.8,0.3l0.3,1
	l-0.3,2l0,2.3l-0.9,0l1.1,2.9l-0.3,2.6l-0.9,2L408.2,321.5z"/>
<path id="Senapati" class="st0" d="M454.9,255.9v0.1l0.4,0.5l0.6,0.7l0.9,0.3l2.2,0l0.9,0.4l1.2,3.6l1.6,1.9l1.3,2.8l0.1,1.4
	l-0.8,1.2l0.6,1.1l-0.3,1.9l-0.9,1.7l-0.2,0.9l2.4,3.9l0.5,1.8l0.1,5.4l-0.1,2.2l-1,3.5l1.3,2.6l1.6,1.8l0.4,3.8l0,1.9l0.2,1.8
	l-5.2-2.4l-0.5,0.2l-2.1,3l-1.1,0.9l-1.4,0.4l-0.2,0l-3.4-0.7l-1.5-1.1l-1.3-1.7l-0.8-1.5l-0.6-3.1l0.6-0.1l-0.5-0.9l-0.5-1.6
	l-0.6-0.6l-1-2l0.8-1.4l0.8-0.7l1-0.6l0.9,0.6l0.7-0.6l-0.3-0.7l0.4-0.4l0.6-0.1l1.1-1.6l-0.1-0.9l-1.2-0.6l-1.4-0.4l0.4-0.9
	l0.9-0.1l0.6,0.8l0.8-0.3l-0.4-0.9l0.4-0.8l0.9-0.5l-0.7-0.8l-0.2-2.3l-0.3-1.2l-1.2,1.8l-0.1,1.2l-0.3,1.1l-0.7,1l-1.2,1.1
	l-1.3,0.4l-2.1,1.7l-1.5-0.2l-0.3-0.7L444,284l-0.8-2.3l-1.6,0.5l-0.5,2.8l-0.9,0.7l-0.2-0.9l0-2l0.4-0.8l0.6-0.6l-0.5-0.8l0.6-0.4
	l-0.2-0.4l0.2-0.5l-0.4-0.1l0.8-0.6l0-0.6l-1.9,0.6l0.6-2.5l0.7,0l0.4-0.3l-0.8-0.6l0-0.9l0.5-0.5l-0.5-0.5l0.2-0.6l0.8,0.5
	l-0.1-0.9l0.9-0.1l0.3-1.1l-0.2-1.2l0.7-0.3l1.6-11.7l0.3-2.6l0.8-2.5l0.9-1.8l0.6-2.1l-0.7-5.1l0.8-0.6l1.3,0l0.8-0.3l0.4-4
	l0.4-2.1l0.7-1.4l0.9-1l1-3.9l2.4-3l1.1-1.9L456,225l-0.7-0.9l-0.2-1l0-1.3l-0.3-1.2l-0.9-0.2l-0.6,0.6l0,3.7l-1.7,1.5l-0.3,1.1
	l-1.1,1.8l-1.3,0.1l-1.5,0.4l-0.8,3.7l-1.1,1.1l-2,1.2l-1.8,0.3l-1-0.8l-0.6-1.2l-0.4-3.7l1.6-10.4l-0.7-0.1l-1.2,0.1l-1-0.5
	l0.2-0.5l1.5-1l0.5-0.8l-0.7-0.7l-2.3-0.3l-0.5-0.6l0-1.2l0.3-1.1l-0.1-1.7l-0.8,0.4l-0.8,0.8l-1.2,0.6l-0.1-0.8l0.2-0.8l0.9-2.1
	l1.5-0.3l-0.4-1.4l-1.8,0.3l0-0.6l1-1.8l1.3-0.2l0.6-0.3l-0.6-0.7l0.1-0.3l-0.4-0.2l-0.5-0.8l-0.3-0.1l-0.3,0.1l-0.6,0.3l-1-0.3
	l0-0.2l0-0.6l0.4-1l1.1,0l0.3-0.8l0.3,0l0.4,0.5l0.3,0.1l0.5-0.3l-1-1.7l-0.5-0.1l-0.4,0.4l-0.8,0.1l-0.5-0.7l0-1.7l-0.8-1.4
	l-0.1-0.7l0.7-2.7l0.5-0.8l0-0.6l-2,1.1l-0.7,1.1l-0.8,2.4l0.5,1.2l0.6,2.5l0.1,1l-0.2,2.1l-0.3,0.6l-0.5,0.2l-2,0.1l-1.3,0.8
	l2.4,0.2l1.2,0.5l0.9,0.1l0.3,1.3l-0.8,5.3l-0.3,4.7l-0.6,1l-0.9,0.1l-0.7-0.2l-1.4-1.1l-1.1,1.3l-0.1,2.1l-1.9-1l-1.1-0.2l-0.8-0.6
	l-0.3-1.3l-0.5-0.5l-0.8-0.3l-0.5,0.5l-1.6-1.4l0.8,1.8l-0.8,0.8l1.9,0.4l0.3,1l2.7,1.5l0,0.8l0.6,0.4l0.3,0.6l0.1,2.7l0.3,0.3
	l-1.1,1.4l-0.6-0.6l-0.3-0.6l-0.1-2.4l-1.1-0.4l-0.3-1.2l-1.1,0.1l-1.9-0.5l-0.3,1.6l0.6,0.7l1.7,0.1l-0.3,1.5L420,225l-2,0.9
	l-0.6,0.6l0.3,1.3l2.6-1.3l-0.3,1l-2.6,2.3l0,0.3h0.9l0.3,0.3l-1.4,1.3l-0.9,0l-1.2,0.7l-0.3-0.7v-0.7l-0.3-1l-1.1-0.3l-1.4,0.3
	l-1.4,0.7l1.1-1.7l-0.3-1.3l0.9-0.7l0-1.7l0.6-0.7l-0.1-4.3l0.2-4l1.5-1.6l0.6-1.3l-0.8,0.6l-0.5-0.7l-4,5.6l-0.5,4.7l-2.2-1.7
	l-1.3-2l0.8-3l0.9-1l1.5-0.7l0.4-1.3l0.6-0.7l1.8-1l-0.5-0.7l-1.1,0.3l-0.2-0.7l-0.8-0.3l1.4-2.4l0.3-4.3l2.2-2.4l1.7-1.4l4.7-3.2
	l1.3-1.6l4-5.9l0.6-2.4l-0.3-1.5l-0.8-0.9l-1.4-0.5l-2.1,0.8l-8.5,4.4l-0.1,1l-0.6,1.8l-0.4,0.6l-1.1,0.6l-1.9,2.5l-1.5,3.4
	l-0.2,2.2l-0.7,2.4l-3.1,6.7l-1.3,5.1l-3.6,1.4l-0.6,2l-0.1,3.7l-1.7,2l-0.6,4.3l-0.9,4l-1.1,1l-0.8,4l-1.4,0.7l-0.6,1.3l0.9,2
	l-0.6,0.7l0.3,2.3v2.3l-3.4,3.3l-1.1,1.3v2.7l-0.9,1l0.6,3.3l0.6,2l0.9,1.7l0.3,1l-0.9,1.3l0.6,1l-2.3,5l-0.3,2l-1.4,0.5l0,0.7
	l0.6,1l-0.9,1.3l0,5.3l-0.6,2v1.7l-0.9,2h-1.1l-0.6-0.3l-0.9,1l-0.6,5l0.3,1l0.3,3l-2.3,7l-0.3,0.3l-2.9,7.6l-0.6-2l-0.9-1.3l-3.4-2
	l-0.1-2.3l-1.1-10.2l-1.4-12.7l-4.4-22.6l1.7-1.4l0.6-0.3h0.6l0.6-1l1.1-0.7l0.3-1l0.6-0.3l0.6-1h1.4l0.6-1.7l0.6,0.3l1.7-0.3
	l1.4-1.3v-1l-0.6-1.3l1.4-3.7l1.7-1.7l-1.1-2.3l0-2.3l-1.4-1.3l-0.6-1.3l-1.2-1l-0.3-1l-0.6-0.7l0-1.3l-0.9-3.7l1.1-2l1.7-2l1.2-2
	l1.7-1l2.6-1l4.4-3.3l0.6-1h1.5l1.2-1l1.5-0.3l1.3-2l0.2-2l-0.1-1.7l-1-1l0.9-1l-1.1-1.7v-0.7l-0.3-1.7l0.4-1.4l0.8-1.1l0.9-0.4
	l1.2,0l1.2,0.6l0.6-0.3l0.3-1.8l-0.2-1.3l-0.4-1.5l-0.8-1.9l0-1l-0.7-1.4l-0.8-1l-0.6-1.7l-0.7-4.3l0.1-0.9l-0.4-0.6l0.1-0.9
	l0.1-3.3l-0.3-1.9l-0.5-1.7l-0.4-1l-0.7-1.3l-1.2-1.2l-0.6-3.9l-0.7-2.5l0.3-0.8l0.7-0.5l0.2-0.8l1.6-2.1l0.7-0.1l0.6-0.9l-0.3-0.7
	l0.1-0.7l0.6-0.1l0.3-2.5l0.8,0.1l1.6-2.8l0.9-1.1l0.1-1.9l1.1-1.9l1.2-1.9l1.1-0.6l1.1-0.1l0.9-0.4l0.8-0.6l1.1-0.3l2.6-4l2.4-2.4
	l1.4-1.1l0-0.6l1.2-0.8l0.3-0.6l0.8-0.9l1.2-0.9h4.1l0.9-0.4l2.3-1.5l2.6-2.1l0.6-0.9l-1.7-0.1l-0.5-0.5l-1.3-2.5l-0.8-2.7l-1.1-0.5
	l-0.7-1.1l-0.7-1.7l-0.6-1l-2.4-0.4l-0.6-0.4l-1.3-0.3l-0.6-0.7l-1.3,0.3v-0.8l0.7-0.5l0.1-1.5l-0.3-1.1l0.2-0.4l1.8-1.7l0.3-2.3
	l0.8-0.8l0.2-2.2l1.6-2.2l1.2-0.3l0-0.8l0.2-0.2l-0.3-1.8l-1.1-2l-0.8-0.8l-1-0.7l-1-1.8l-2-1.4l-0.7-0.3l-1.8,0.4l-1.6-0.1
	l-1.3-0.7l-2.3-0.5l-2.2-0.3l-1.8,0.1l-0.2-2.5l-1.1-2.9l-0.3-2l-0.6-1.5l-1.1,0.5l-1-0.1l-0.7-0.5l1-5.1l-1.2-2.9l-0.7-0.9
	l-1.4-1.4l-1.7-0.6l-3,2.3l-0.8,0.3l-0.7-0.8l-0.3-4.1l1-0.6l-0.2-2l0.1-1.4l0.4-1.4l-0.1-1.1l0.2-0.1l1.5,0.7l5.6-1.7l1.6-0.2
	l0.8,0.3l0.7-1l0.3-2.1l1.6-0.1l0-1.3l0.6-0.4l1.5,0.4l1.6,0.8l2,0.3l3.2-1.2l2.7-1.7l1.6-0.1l0.9,0.3l1.2,0l1.2,0.2l0.5,0.7
	l2.1-0.4l2.6,0.5l0.3,0.2l2.4,1.6l1.5,0l1.5-1.2l1-1.3l0.5-1.4l4-0.7l1.4,1.1l0.6-0.4l0.2-0.4l0.1-0.7l-0.1-1l-0.8-2.2l0-0.9
	l0.5-1.2l0.9-0.2l2.1,0.7l0.4,1.4l1.2,0.9l0.3,0.8l0.6-0.1l0.2-0.3l0,0.8l0.9,0.6l0.5-0.9l1.6,1.1l2.1,2.8l0.9,2l2.1-0.7l1.2,0.5
	l1.8,3.5l0.2,1.2l-0.7,1l-0.1,1.4l2.8,1l4.5,0.8l2,0.6l1.3-1l0.6-1.1l0.7-2.7l0.2-1.6l1.4-2l0.7,1.4l0.9,0.8l2.3-0.8l0.6-0.8
	l1.8,0.6l0.6-0.4l-0.2,2.7l-0.8,2l0.1,1l1.7,2.1l1.5,2.3v0.6l1.2,0.9l0,1.4l0.4,0.7l1,0.2l0.6,0.8l1.2,0.2l0.5-0.6l4-0.2l1-1.2
	l1.9,0.3l1.4-0.2l1.1-0.7l1.4-1.6l0.8,0.6l1.6,2.3l0.7,1.6l1.3,0.2l0.9-0.2l1.4-1.3l1.6-2.4l7.1-3.5l4.7-4l3.2-1.1l1.3-0.7l1.2,0.4
	l0.7-0.2l1-2.7l0.2-2.2l-0.3-3.1l-0.5-0.8l0.6-1.5l0.9-3l1.5-0.8l1.3,0l0.7-0.5l0.3-0.8l4.9-5.4l3.4,0.5l0,0.3l0.5,1.1l0.2,0.4
	l-1.3,2.9l-2.1,2.1l-1.1,1.5l-0.7,3.1l-0.5,4.2l-2.9,4.8l-1.2,2.5l-0.4,1.4l-0.5,0.7l0,0.8l-0.6,0.7l-0.4,1l-1.1,5.2l-0.9,2.2
	l-0.8,2.6l0.6,1.3l-2.1,2.9l-1.1,1.9l-0.3,2.1l-1.4,3l-0.7,1.8l-0.6-0.2l-0.6,0.1l-0.4,0.5l0.6,1l-1.3,2.4l0.8,1.4l-0.9,1.7
	l-0.5,1.3l-0.2,1l-0.1,3l0.2,2.1l0.6,0.9l-0.4,1.4l0.2,0.7l-0.6,1.1l-1.5,1.4l-1.5,2.2l-0.7,1.1l-0.3,1l-1.1,2.2l-0.8,2.5l-1,0.9
	l-0.7,0.9l-1.6,3.8l-0.3,2.2l-0.6,1.7l-1.9,2.9l-0.4,0.6l-0.8,0.6l-2.5,3.6l-2.8,2.7l-4,2.1l-1.1,0.8l-0.4,1.1l-0.3,1.8l-0.8,2.1
	l-1,1.5l-2,1.4l-1.5,0.6l-0.9,1.6l-0.5,1.9l-1.2,1l-1.5,0.6l-2.4,0l-0.8,1.2l-1.4,1l-0.4,0.3l0.1,0.9l0.3,0.8l-0.8-0.1l-0.9,0.6
	l0.2,1.6l-0.6,0.2l-0.8,1.1l-0.6,1.7l-0.8-0.5l-0.1,1l0.5,1l-0.7,0.6l-0.8-0.7l-0.3,1l-1-0.1l-0.5,1.9l-1.8,1.8l-0.8,0.4l0,0.6
	l-0.2,0.5l-0.6,0.3l-0.2,3.1l-0.6,1.8l-0.5,0.7l-0.2,1.4l0.2,1.8l-0.5,0.8l-0.3,1.8l0.2,0.9l0.5,0.5l0.6,1.1l0.1,0.7l0.3,1.2
	l2.4,1.2l1.7,3.5l0.3,2.1l0.3,0.9l-0.7,6l1,2.5l2,6.9l0.4,3l0.7,2.4l1.2,1l0,0.6l-0.3,0.1l-0.4-0.1l-0.1,0.5l0.2,0.5l0,0.6l-0.2,1.1
	l0.3,0.7l-0.1,1.2l-0.4,0.8l-1.1,0.2l-0.1,0.4l0.3,0.8l-0.6,2.5l0.4,0.8l-0.1,0.7l-0.3,0.3l-0.2,1.3l0.2,1l-0.3,0.5l-1.2,0.5
	l-0.3,2.5l-0.8-0.2l-0.4,0.3l-0.2,0.6l0.6,0.1l-0.4,2.7l-0.4,0.1l-0.4,0.4l0.2,0.8l0.7,0.8l-0.2,1.4l0.6,0.6l0.5,0.9l0,0.5l-0.6,0.4
	l0.8,0.9l0.1,0.6l-0.4,0.4l0.3,0.7l-0.3,0.6l-0.5-0.6l-0.6,0.1l0.2,2.7l-1.1,2.1l-0.2,1L454.9,255.9z"/>
<path id="Tamenglong" class="st0" d="M306.5,319.9l-6.8-2.3l-1.4-0.3l-1.4,0.7l-0.9,1.7l-2,0l-1.7,0.3l-2,0.7l-4-1l-1.4,0.7l0.9,1
	l-1.7,3.3l-1.1,0.7l0.6,1l-1.1,1.3l-1.4,3.3l1.7,0.6l-0.6,1v2l-1.1,0.3l-1.4,0l-1.4-1.3l-2.3,0.7l-1.1,2.3l-1.4,2l-1.7-1l-1.4-4
	l-1.7-0.3l-0.9-1.7l-1.7-0.3l-0.3,2.3l-1.1-0.6h-0.9l0.3-1.3l-0.6-2l1.1-1l0.6-2.3l0.6-1.3l1.4-1.3l0.9-1.3l0.6-1v-0.7l-0.3-0.7
	l-0.6-0.7l0.6-1l1.1,0.7l0.6,0.7h0.6l0.6-0.3l-0.6-1l-0.6-0.3l0.6-0.7l-0.9-0.7l-0.3-3l0.3,0.3l1.7,1l0.6-0.3l0.3-0.7l0.6-3.3
	l-0.6-1.7v-1.3l0.3-1.3l-1.4-1.6l0.3-1l1.7,0l0.6-1.7v-1.3l-0.6-1l-1.1-1v-1.7l-0.9-2l0-1l0.6-0.7l0.9,0.7l0.6-0.3v-2l-2.8,1
	l0.6-4.6l1.4-2.3l0.3-1l-0.3,0.3l-1.7-0.7l-0.3-0.3v-0.7l-2.8-0.7l-2.3,0l-3.1-1l-0.9,0l-2.5,0l-0.6-0.7l0.6-1.7l0.3-2l1.7-4.7
	l2.8-5l1.4-5.6l2-0.3v0.7l0.6,1l0.6,0.3l0.9,0l1.1-0.7l0.6-1l1.7-2l0.9-0.3l0.6-0.7v-1.3l0.3-1.7l1.4-4.3l2-5l0.6-2.7l-0.3-0.7
	l-1.1,0l-1.1-0.3l-1.1-0.7l-2.6-0.3l0.4-0.7l0.6-1.3l0.6-0.3l0.6-1l0.8-0.7l-0.6-1l0.6-1h0.9l0.3-1.3l-0.9-1.3h0.6v-1l0.6-1l1.1,0.3
	l0.3-0.7l0-1l-0.3-1l-0.6-1l0.3-0.3l0.3,0.3l1.7,0l0.6-1l-0.6-3h-1.1l-0.3-0.3l0.8-1.3l0.2-1H278l-1.1,0.7h-0.3l0-0.3l0.3-0.7
	l0.5-0.7h0.6l0.6,0.3h0.9l-0.6-1l0-1l-0.3-0.7l0-0.7h0.8l1.2,1l0.6,0l-0.3-0.7l0-1.3l0.5-1.3l0-0.7l-0.9-1.7h-1.1l0-0.7l0.3-1
	l-0.6-0.7l0.3-0.3l0-1l-0.2-0.6l0.6-1l0.3-1l0-0.7l-0.3-0.3l0-0.7l0.3,0.3h0.9l0.4-0.9l-0.2-0.5l-0.5-0.1l-0.4,0.6l-0.1,0.2
	l-0.1,0.1l-0.1,0l-0.1,0l-0.1-0.1l0-0.1l-0.3-0.6l-0.3,0.6l-0.1,0.2l-0.1,0.1l-0.1,0.1l-0.1,0l-0.1,0l-0.1,0l-0.1-0.1l-0.1-0.1
	l0-0.1l0.5-2.4l0.5-0.8l-0.6-0.7l1-0.7l0.8-0.1l0.1-0.9l-0.6-0.9l0.8-0.9l0.8-1l0-0.8l-0.2-0.8l1.1-0.6l0.2-0.7l-0.3-0.6l0.1-0.2
	l3.2-0.5l0.5,1.3l1-0.1l1-0.2l0.5-0.7l0.1-0.6l0.5,0.2l0,1l0.4,0.1l-0.1-2.1l0.9-0.7l-0.6-1.6l0.5-1.6l0.4-0.5l0.4-1.4l1.9-2.8
	l0.3-0.9l1.2-0.7l1.2-0.4l0.7-2.8l0.3-2.1l0.8-0.5v-1.4l0.4-1l0.5-0.1l-0.4-0.6l-0.2-0.6l0.6-1.3l-0.4-0.8l0.8-1.8l-0.5-2.4l0.1-1
	l-0.3-1.8l0.4-0.8l0.8-4l1.5-2.7l0.3-1l1.2-1.2l0.4-0.9l-0.2-1.2l1.7-2.1l0.3-1.2l0.5-0.8l0.6-0.5l0.1-0.8l0.4-0.9l-0.1-2.7l0.3-0.9
	l1.2-1.2l1.8-3.4l0.6-0.3l1.1,0.2l1.7-0.7l0.5-1.6v-1.5l0.6-0.8l2.4-1.4l1.2-1.5l1.4-0.6h1.6l1.1-1.1l1.7-2.7l0.2,2.5l-0.1,1.9
	l-0.4,1.8l0.8,1.7l1.3,0.6l0.8,0.2l1.5-0.7l1.9,0.8l1.3,0l-1.3,5.9l0.2,2.4l0.6,0.1l1.6-0.3l0.8-1.1l1.7,0.1l2.4,0.8l1.2-0.8
	l1.5-0.5l1.7,1l1.4,2.9l0.1,0.8l0.8,1.3l0.7,0.5l0.7-0.1l0.8,1l0.4,0l0.4,0.6l0.3,1.6l0.6,0.7l-0.4,1.2l0,0.7l0.8-0.1l0.8,0.5
	l0.6-0.5l0.7,0.6l0.9-1.1l1.7-5l1.5-2.9l0.6-1.9l1.2-2l1-2.5l0.1-1.5l1.3-0.9l0.3-1.2l0.1-1.4l2.8-5.1l-0.2-1.5l0.3-1.1l1.4-0.8
	l0.2-1.5l-0.4-3l2.4-0.2l0.6-0.4l0.9-4.3l0.3-3.8l1.4,0.6l2.3,0.4l1.3-0.9l0.2-2.3l0.8-1.4l1.6-1.3l1.7-1.1l0.3-1.3l-0.2-1.5
	l0.4-1.2l0.9-1.5l2.7-2.2l0.8-1.1l3.3-1.7l-0.1-1.3l0.8-0.7l0.7-1l0.4-2l0.7-1.4l0.9-1.4l0.8-1.7l0.5-0.8l0.8-0.6l0.7,0.5l1,0.1
	l1.1-0.5l0.6,1.5l0.3,2l1.1,2.9l0.2,2.5l1.8-0.1l2.2,0.3l2.3,0.5l1.3,0.7l1.6,0.1l1.8-0.4l0.7,0.3l2,1.4l1,1.8l1,0.7l0.8,0.8l1.1,2
	l0.3,1.8l-0.2,0.2l0,0.8l-1.2,0.3l-1.6,2.2l-0.2,2.2l-0.8,0.8l-0.3,2.3l-1.8,1.7l-0.2,0.4l0.3,1.1l-0.1,1.5l-0.7,0.5v0.8l1.3-0.3
	l0.6,0.7l1.3,0.3l0.6,0.4l2.4,0.4l0.6,1l0.7,1.7l0.7,1.1l1.1,0.5l0.8,2.7l1.3,2.5l0.5,0.5l1.7,0.1l-0.6,0.9l-2.6,2.1l-2.3,1.5
	l-0.9,0.4h-4.1l-1.2,0.9l-0.8,0.9l-0.3,0.6l-1.2,0.8l0,0.6l-1.4,1.1l-2.4,2.4l-2.6,4l-1.1,0.3l-0.8,0.6l-0.9,0.4l-1.1,0.1l-1.1,0.6
	l-1.2,1.9l-1.1,1.9l-0.1,1.9l-0.9,1.1l-1.6,2.8l-0.8-0.1l-0.3,2.5l-0.6,0.1l-0.1,0.7l0.3,0.7l-0.6,0.9l-0.7,0.1l-1.6,2.1l-0.2,0.8
	l-0.7,0.5l-0.3,0.8l0.7,2.5l0.6,3.9l1.2,1.2l0.7,1.3l0.4,1l0.5,1.7l0.3,1.9l-0.1,3.3l-0.1,0.9l0.4,0.6l-0.1,0.9l0.7,4.3l0.6,1.7
	l0.8,1l0.7,1.4l0,1l0.8,1.9l0.4,1.5l0.2,1.3l-0.3,1.8l-0.6,0.3l-1.2-0.6l-1.2,0l-0.9,0.4l-0.8,1.1l-0.4,1.4l0.3,1.7v0.7l1.1,1.7
	l-0.9,1l1,1l0.1,1.7l-0.2,2l-1.3,2l-1.5,0.3l-1.2,1h-1.5l-0.6,1l-4.4,3.3l-2.6,1l-1.7,1l-1.2,2l-1.7,2l-1.1,2l0.9,3.7l0,1.3l0.6,0.7
	l0.3,1l1.2,1l0.6,1.3l1.4,1.3l0,2.3l1.1,2.3l-1.7,1.7l-1.4,3.7l0.6,1.3v1l-1.4,1.3l-1.7,0.3l-0.6-0.3l-0.6,1.7h-1.4l-0.6,1L366,255
	l-0.3,1l-1.1,0.7l-0.6,1h-0.6l-0.6,0.3l-1.7,1.4l4.4,22.6l1.4,12.7l1.1,10.2l0.1,2.3l-2.3,0.6l-1.7,1.3l-2.6-0.7h-1.1l-1.4,1.3
	l-0.3,2l-0.6,1l-3.1-3.7l-1.7,0.3l-0.6,0.7l-1.4,5l-0.9,1.7l-0.9,1.3l-1.7,0.3l-0.6,1l-1.1-0.7l-0.6-1.7l-0.9-1.3l-1.4-1.3l-0.8-1.7
	l-2.3,1.7l-0.3,1h-1.7l-0.6,1l-0.8-0.3l-0.6,2l-0.6,0.7v3l-0.9,0.3l-4-2.3l-0.9,1.3l-1.4,1.3l-0.6-0.3l-1.1,1.3l-1.7-4l-1.1-1h-1.4
	l-1.1,0.7l-2.3,6l-1.1,1.7l-3.7-4.3l-3.4-1.3l-1.1-1l-0.9-1.3l-0.3-1l-1.1-0.7L306.5,319.9z"/>
<path id="Thoubal" class="st0" d="M401.9,329.8v-3.3l1.1-3.7l2.8-0.3l1.1-0.3l1.1-0.7l1.1-1.3l0.9-2l0.3-2.6l-1.1-2.9l0.9,0l0-2.3
	l0.3-2l-0.3-1l-0.8-0.3l-1.4,1.3l-1.7-2l1.7-1l0-2.7l0.9-1l1.1-1l2-0.3l1.4-4l0.9,0.3l0.6,1.3l0-4.4l-1.4,0.3l-0.3-0.3l-2-0.3
	l-0.3-0.7l0.6-1l0-0.7l-1.7,0l-0.9-0.7l0.3-0.7l0.6-0.7l-0.6-2l0.3-1v-1l-0.3-1.3l1.1,0.3l1.1-1.4l1.7,0.3l0-1.3l0.6-1.4l1.7,0
	l0.9-0.7l0.3-0.7l0.6,1.7l0,0.7l2.5,0.4l1.7,0.7l0.3-1.7l0.8-0.3l-0.3-2l0.3-1l1.6-0.6l2.8-0.6h0.9l0.8,0.9l0,2.7l0.7,1.4l1.3,1.1
	l0.7,1l0,1.4l-1.5,2.4l1.1,1.1l0.5,3l0.4,1l0.7,0l0.4-1.5l0.8,0.3l0.8-0.3l-0.2-1.3l0.4,0.6l0.1,0.7l1.3-1l-0.1,1.1l1.1-0.6
	l-0.1-1.7l2.4,0.3l0.3-1.1l0.3-0.4l2.8,0.2l0-0.8l0.7,0.1l0.3,0.3l0.2-0.7l0.8,0.4l0.3-1.5l1.5,0.2l2.1-1.7l1.3-0.4l1.2-1.1l0.7-1
	l0.3-1.1l0.1-1.2l1.2-1.8l0.3,1.2l0.2,2.3l0.7,0.8l-0.9,0.5l-0.4,0.8l0.4,0.9l-0.8,0.3l-0.6-0.8l-0.9,0.1l-0.4,0.9l1.4,0.4l1.2,0.6
	l0.1,0.9l-1.1,1.6l-0.6,0.1l-0.4,0.4l0.3,0.7l-0.7,0.6l-0.9-0.6l-1,0.6l-0.8,0.7l-0.8,1.4l1,2l0.6,0.6l0.5,1.6l0.5,0.9l-0.6,0.1
	l0.6,3.1l0.8,1.5l1.3,1.7l1.5,1.1l3.4,0.7l0.3,1.9l-0.1,2.1l-1,0.5l-1,0l-1.2-0.3l-1.1-0.5l-1.3-0.2l-0.6,0.8l0.2,1.1l-0.4,1.9
	l-2.1,3.8l-1.3,4.5l-0.9,1.6l-1.1,0.4l-2.1-2.6l-1.4-0.3l-0.4,2.3l0.6,3.6l2.7,6.1l-1,0.6l-2.3-0.3l-1.1,0.2l-0.4-1.5l-0.5,1.2
	l-0.9,1.2l-0.7-1.2l-0.1-1.4l0.3-0.6l0.7-0.8l-0.1-0.7l-0.9,0.5l-1.1-1.3l-1.6-1.2l0,3.9l-0.9,5.6l0.1,0.2l2.8,8.3l-2.5,4l-3.2,2.9
	l-1.9,0.6l-1.5,0.2l-0.4-1.3l0-3.8l-0.7-0.8l-2.8-1.2l-0.3-3.8l-0.9-1.4l-0.6,0l-0.9,0.4l-0.3,0.3l0,3.6l0.3,2.1l0.9,2.5l0.3,1.8
	l-0.9,4.6l-1.4,3l0.3,2.4l-0.3,0.7l-0.6,0.4l-1.1-0.7l-1.1,0l-0.9,1l-0.3,1l0.3,1l0,1l-2-0.3l-1.7,2l-0.6,3l-1.4,1.6l-0.6,3.3
	l-0.6,1.6l-0.3,3.3l0.8,2.3l1.7,2l1.7,3.3l1.4,3.6v1.3l-0.6,0.3l-0.6,1.3l-1.4,1.3l-1.1-0.3l-0.3,0.6l0.6,1.9l-0.3,2.3l-0.9,0.7
	l-1.1-0.6l0,3.4l-2.6,0.7l-1.2,2l-1.4,0.7l-0.3-1.3l-0.2-6.4l0.9-3.4l-0.3-1.3l-1.1-0.7l-2-4.5l0-1.3l-0.9-0.6l-1.7,0l-0.6-0.3
	l0.6-1.7l-0.3-2.3l1.1,0.6v-1.6l0.6-1l-2-2l0.9-1.6l0.8-1l-0.6-1l-0.6,0.7l-1.1,0.7v-1.3l0.6-0.7v-1l-0.8-0.3l-0.3-3.3l0.6-0.7v-0.3
	l-0.6-1l0-3.3l-0.3-1l-0.9-1l-0.3-1.3l0.3-0.7l1.1-0.3l-1.7-3l0-1.3l1.1-1.3l0.9,0l0.6-1.7l0.6-0.7l0-2l0.6-0.7v-0.7l-0.6-0.7
	l0.8-0.7l0.9-0.3l1.7-2.3l0.3-1.3l0.9-2l0.6-0.7l0.3-1l-0.3-1L403,337l0.9-0.7l0.3-1.3l-0.8-0.3l0-2.7l-0.6-0.4l-0.6,0.4l-0.3-0.7
	L401.9,329.8z"/>
<path id="Ukhrul" class="st0" d="M519.6,318l-1.2,2.3l-0.2,1l-0.5,2l-1.1,3.3l-0.9,3l-1,2.9l-0.8,1.2l-0.3,1.3l-0.5,1.8l-0.6,2.9
	l-1.6,0.8l-0.3,0l-2.2,0.2l-0.5-0.7l-0.9-0.3l-0.6,0.7l-1.2-1.4l-0.3-0.8l-0.4-0.4L504,337l-0.8,0l-0.3-0.3l0.8-0.8l0.1-0.7
	l-0.7-0.1l0.1-0.8l-0.8-0.3l0.2-0.6l0.7,0.4l0.1-0.6l-0.1-0.8l-1.7,0.4l0.5-0.8l-0.2-0.6l-1.3-0.2l-0.5-0.5l0.6-0.7l-0.1-1.7
	l0.7-0.6l0.5-1l0.1-0.9l-0.1-0.6l0.5-0.8l0.1-0.5l-0.3-0.8l-2-0.2l-0.4,0.5l-1,0.1l-0.5-1.1l-0.7,0l-2.9,1.1l-0.6-0.8l0.6-0.8
	L494,320l0.6-0.4l-0.5-0.3l-0.7-0.2l-0.4-1.2l-2.3-0.5l-0.8-0.5l-0.2-1.1l-1-1.3l-2.2-1.4l-0.7-1.5l-1.5-2l-2.8,1.4l-1.5-2l-0.8-1.6
	l-1.1-1.5l-0.5-0.2l-3.3-0.1l-1.5-0.5l-1.6-0.1l-0.8-0.8l-1.5-0.6L468,303l-0.2-1.8l0-1.9l-0.4-3.8l-1.6-1.8l-1.3-2.6l1-3.5l0.1-2.2
	l-0.1-5.4l-0.5-1.8l-2.4-3.9l0.2-0.9l0.9-1.7l0.3-1.9l-0.6-1.1l0.8-1.2l-0.1-1.4l-1.3-2.8l-1.6-1.9l-1.2-3.6l-0.9-0.4l-2.2,0
	l-0.9-0.3l-0.6-0.7l-0.4-0.5v-0.1l0.8-0.6l0.2-1l1.1-2.1l-0.2-2.7l0.6-0.1l0.5,0.6l0.3-0.6l-0.3-0.7l0.4-0.4l-0.1-0.6l-0.8-0.9
	l0.6-0.4l0-0.5l-0.5-0.9l-0.6-0.6l0.2-1.4l-0.7-0.8l-0.2-0.8l0.4-0.4l0.4-0.1l0.4-2.7l-0.6-0.1l0.2-0.6l0.4-0.3l0.8,0.2l0.3-2.5
	l1.2-0.5l0.3-0.5l-0.2-1l0.2-1.3l0.3-0.3l0.1-0.7l-0.4-0.8l0.6-2.5l-0.3-0.8l0.1-0.4l1.1-0.2l0.4-0.8l0.1-1.2l-0.3-0.7l0.2-1.1
	l0-0.6l-0.2-0.5l0.1-0.5l0.4,0.1l0.3-0.1l0-0.6l-1.2-1l-0.7-2.4l-0.4-3l-2-6.9l-1-2.5l0.7-6l-0.3-0.9l-0.3-2.1l-1.7-3.5l-2.4-1.2
	l-0.3-1.2l-0.1-0.7l-0.6-1.1l-0.5-0.5l-0.2-0.9l0.3-1.8l0.5-0.8l-0.2-1.8l0.2-1.4l0.5-0.7l0.6-1.8l0.2-3.1l0.6-0.3l0.2-0.5l0-0.6
	l0.8-0.4l1.8-1.8l0.5-1.9l1,0.1l0.3-1l0.8,0.7l0.7-0.6l-0.5-1l0.1-1l0.8,0.5l0.6-1.7l0.8-1.1l0.6-0.2l-0.2-1.6l0.9-0.6l0.8,0.1
	l-0.3-0.8l-0.1-0.9l0.4-0.3l1.4-1l0.8-1.2l2.4,0l1.5-0.6l1.2-1l0.5-1.9l0.9-1.6l1.5-0.6l2-1.4l1-1.5l0.8-2.1l0.3-1.8l0.4-1.1
	l1.1-0.8l4-2.1l2.8-2.7l2.5-3.6l0.8-0.6l0.4-0.6l1.9-2.9l0.6-1.7l0.3-2.2l1.6-3.8l0.7-0.9l1-0.9l0.8-2.5l1.1-2.2l0.3-1l0.7-1.1
	l1.5-2.2l1.5-1.4l0.6-1.1l-0.2-0.7l0.4-1.4l-0.6-0.9l-0.2-2.1l0.1-3l0.2-1l0.5-1.3l0.9-1.7l-0.8-1.4l1.3-2.4l-0.6-1l0.4-0.5l0.6-0.1
	l0.6,0.2l0.7-1.8l1.4-3l0.3-2.1l1.1-1.9l2.1-2.9l-0.6-1.3l0.8-2.6l0.9-2.2l1.1-5.2l0.4-1l0.6-0.7l0-0.8l0.5-0.7l0.4-1.4l1.2-2.5
	l2.9-4.8l0.5-4.2l0.7-3.1l1.1-1.5l2.1-2.1l1.3-2.9l-0.2-0.4l1.2-0.6l0.1-0.6l0,0l0.4-0.3l0.7,0.8l0.5-0.5l0.2-2.1l0.4-0.8l0.7-0.2
	l1.9-3.4l0.8-0.2l0.5,0.5l0.2-2l1.6-0.2l1-1.7l1.4-1.3l0.1-1.3l2.6-3.5l0.6-3l1-1.4l1.1,0.4l0.9,0.7l0.8,0.3l1.7,0.2l0.3,1.2
	l-1.4,1.5l-0.4,1l-0.6,0.6l0.4,0.8l-0.4,0.5l-0.4,1.3l0.4,0.9l-0.6,0.3l-0.1,0.8l-0.9,1.2l0.1,1.2l-0.2,1l2.1-0.5l1.6,0.7l-0.1,0.3
	l-0.8,0.6L543,38l-1,2.2l-0.3,1.5l-0.8,2.4l-0.8,0.9l-0.3,1l-0.4,0.4l-1.1,2.2l-0.8,2.2l1.2,2l-0.2,2.7l0.8,0l-0.7,2l0.3,2.9l-0.6,1
	l0.7,1.6l-1,1.3l0.6,1.1l-0.5,1.7l-0.3,3.1l2.1,1.6l1.3,0.4l2.1,2.2l0.4,1.2l0.7,0.7l0.8,0.4l0.5,0.5l2,1l3.5,3.5l1.5,0.9l3,1.1
	l1.6,0.8l0.5,0.4l1.4,0.4l0.8,0l2.5-1.2l0,0.8l0,1.6l-0.5,2.1l-0.1,2.5l-0.2,1.7l-0.4,1.6l-0.5,1.2l-0.6,1l-2.4,0.8l-0.5,0.2
	l-1.4,0.7l-0.9,1.2l-0.1,0.3l-0.4,0.3l-0.7,1.5l-0.7,0.3l-0.8,1.3l-0.7,3.3l0,3.3l0,1.8l-1.1,4.9l-0.1,0.2L550,118l-0.8,1.8
	l-0.4,0.9l-0.7,2.2l-0.5,1.4l-1,2.6l-0.6,2.5l0,2.1l-0.2,1.7l0.2,2.1l-0.4,2.6l-0.7,2.8l-0.3,2.3l-0.6,2l-0.4,1.3l-0.2,2.5l1.3,2.7
	l1.1,1.4l0.8,1.3l1.4,1.1l0.8,0.4l0.9-0.1l1-0.4l1.6,0.2l0.6,0.8l0.9,1.5l1.1,1.3l0.8,0.6l2,0.5l1.8,1.1l2.1,0.8l0.7,1l1.2,0.9
	l1.3-0.4l1-0.3l1,0.2l0.9,1.6l1.1,1l3,1.6l1.4,0.2l1.2,0.9l0.7,0.8l-0.1,2.6l0.1,2.1l-0.1,2l0,1.2l0,1.4l0.5,3.1l0.3,2.6l0.2,1.2
	l-0.1,1.3l0,1.9l-0.3,1.5l-0.3,2.3l-0.4,1.3l-0.1,1.3l-0.4,2.5l-0.1,1.3l-0.6,1.3l-0.8,2.1l-0.1,0.2l-1.7,2.8l-2.6,2l-1.5,2.7
	l-0.5,1.4l0,0.2l-0.2,2.4l0.4,1.3l0.4,1l0.7,1l0.9,0.8l0.7,1.7l0.4,1.1l-0.9,0.8l-1.8,1.4l-0.9,1.8l-0.1,0.3l-1.4,4.4l-0.2,0.5
	l-0.2,2.1l-0.6,1.3l-0.6,0.7l-1.2,1.5l-1.5,1.2l-2.1,1.3l-0.9,1l0.2,1.7l-0.4,1.1l-0.3,0.4l-1.2,1.6l-1.4,1.7l-0.3,0.8l-0.4,0.9
	l-0.6,3.4l0.1,1.7l0,0.1l-0.1,2.1l-0.5,1l-1,1.8l-0.5,2.2l0.1,2.6l0,0.3l0.8,2l0.7,1.2l0,2.1l-1.6,2.9l-0.2,0.3l-0.6,0.9l-0.7,1.4
	l-1.1,2.8l0,0.2l-0.2,0.9l-0.1,2l-0.7,0.6l-1.5,1.2l-1.7,1.2l-1.3-1l0.4-2l-0.1-2l-0.8-0.4l-0.8,0.3l-0.6,1.2l-0.2,1l0.4,0.9l0,0.3
	l0.2,1.4l-1.2,0.1l-0.6-0.6l-1-1.2l-1.2-0.2l-1.1,0.7l-0.9,2.4l0.5,1.4l0.3,0.7l0.4,1.8l-0.4,4.7l-0.7,2.2l-1.3,4.6l-0.6,1.4l-1.2,3
	l-2.1,4.1l-2.6,4l-1,1.4l-0.5,0.5l-0.3,0.4l-1.7,1l-0.9,1.8l-1.4,0.8l-1.1,0.3L519.6,318z"/>
<path id="Layer" class="st1" d="M790,261.5h10v10h-10V261.5z"/>
<path id="Layer_1_" class="st1" d="M0,0"/>
<path id="Bishnupur_1_" d="M384.9,353.5l0.1,1.7l2.9-0.1l-0.1-1.7c0-0.6-0.2-1-0.4-1.3c-0.3-0.3-0.6-0.4-1.1-0.4s-0.9,0.2-1.1,0.5
	C385,352.5,384.9,352.9,384.9,353.5z M381.6,353.8l0.1,1.6l2.4-0.1l-0.1-1.6c0-0.5-0.1-0.9-0.4-1.2c-0.2-0.3-0.5-0.4-0.9-0.3
	c-0.4,0-0.7,0.2-0.9,0.4C381.7,352.9,381.6,353.3,381.6,353.8z M388.9,356.1l-8,0.4l-0.1-2.8c0-0.8,0.1-1.5,0.4-1.9
	c0.3-0.5,0.8-0.7,1.4-0.8c0.5,0,0.9,0.1,1.2,0.3c0.3,0.2,0.5,0.5,0.6,1c0.1-0.5,0.3-1,0.7-1.3c0.3-0.3,0.8-0.5,1.3-0.5
	c0.7,0,1.3,0.2,1.7,0.6c0.4,0.5,0.6,1.1,0.7,2L388.9,356.1z M388.5,348.6l-6,0.3l0-1l6-0.3L388.5,348.6z M381.4,349l-1.2,0.1l0-1
	l1.2-0.1L381.4,349z M382.3,342.1l0.9,0c-0.1,0.3-0.2,0.6-0.3,0.9c-0.1,0.3-0.1,0.6-0.1,0.9c0,0.5,0.1,0.9,0.3,1.1
	c0.2,0.2,0.4,0.4,0.7,0.3c0.2,0,0.4-0.1,0.5-0.3c0.1-0.2,0.2-0.5,0.3-1.1l0.1-0.3c0.1-0.7,0.3-1.2,0.6-1.5c0.3-0.3,0.6-0.5,1.1-0.5
	c0.6,0,1,0.2,1.4,0.6c0.3,0.4,0.5,1,0.6,1.8c0,0.3,0,0.7,0,1c0,0.3-0.1,0.7-0.2,1.1l-1,0.1c0.2-0.4,0.3-0.7,0.4-1.1
	c0.1-0.4,0.1-0.7,0.1-1.1c0-0.5-0.1-0.8-0.3-1.1c-0.2-0.2-0.4-0.4-0.7-0.3c-0.3,0-0.5,0.1-0.6,0.3c-0.1,0.2-0.2,0.6-0.4,1.2
	l-0.1,0.4c-0.1,0.6-0.3,1.1-0.5,1.4c-0.3,0.3-0.6,0.4-1.1,0.5c-0.6,0-1-0.2-1.3-0.5c-0.3-0.4-0.5-0.9-0.5-1.7c0-0.4,0-0.7,0-1
	C382.1,342.6,382.2,342.3,382.3,342.1z M384.1,335.1l3.6-0.2l0,1l-3.6,0.2c-0.6,0-1,0.2-1.3,0.4c-0.3,0.2-0.4,0.6-0.4,1
	c0,0.5,0.2,0.9,0.6,1.2c0.4,0.3,0.8,0.4,1.4,0.4l3.4-0.2l0,1l-8.3,0.4l-0.1-1l3.3-0.2c-0.4-0.2-0.7-0.5-0.9-0.8
	c-0.2-0.3-0.3-0.7-0.3-1.1c0-0.7,0.2-1.2,0.6-1.6C382.7,335.3,383.3,335.1,384.1,335.1z M383.8,328.1l3.6-0.2l0.1,1l-3.6,0.2
	c-0.6,0-1,0.2-1.3,0.4c-0.3,0.2-0.4,0.6-0.4,1c0,0.5,0.2,0.9,0.6,1.2c0.4,0.3,0.8,0.4,1.4,0.4l3.4-0.2l0.1,1l-6,0.3l0-1l0.9-0.1
	c-0.4-0.2-0.7-0.5-0.9-0.8c-0.2-0.3-0.3-0.7-0.3-1.1c0-0.7,0.2-1.2,0.6-1.6C382.3,328.4,382.9,328.1,383.8,328.1z M384.9,326.2
	l-3.6,0.2l-0.1-1l3.6-0.2c0.6,0,1-0.2,1.3-0.4c0.3-0.2,0.4-0.6,0.4-1c0-0.5-0.2-0.9-0.6-1.2s-0.8-0.4-1.4-0.4l-3.4,0.2l0-1l6-0.3
	l0,1l-0.9,0c0.4,0.2,0.7,0.5,0.8,0.8c0.2,0.3,0.3,0.7,0.3,1.1c0,0.7-0.1,1.2-0.6,1.6C386.4,325.9,385.8,326.1,384.9,326.2z
	 M381,323.9L381,323.9z M386,318.1l3.2-0.2l0,1l-8.3,0.4l-0.1-1l0.9,0c-0.4-0.2-0.7-0.4-0.8-0.7c-0.2-0.3-0.3-0.7-0.3-1.1
	c0-0.7,0.2-1.3,0.8-1.8c0.6-0.5,1.3-0.8,2.2-0.8c0.9,0,1.7,0.1,2.3,0.6c0.6,0.4,0.9,1,1,1.7c0,0.4,0,0.8-0.2,1.1
	C386.6,317.6,386.3,317.8,386,318.1z M383.7,314.8c-0.7,0-1.3,0.2-1.7,0.5c-0.4,0.3-0.6,0.7-0.6,1.3c0,0.5,0.3,0.9,0.7,1.2
	c0.4,0.3,1,0.4,1.7,0.4c0.7,0,1.3-0.2,1.7-0.5s0.6-0.7,0.6-1.3c0-0.5-0.3-0.9-0.7-1.2C385,314.9,384.4,314.8,383.7,314.8z
	 M384.2,312.2l-3.6,0.2l-0.1-1l3.6-0.2c0.6,0,1-0.2,1.3-0.4c0.3-0.2,0.4-0.6,0.4-1c0-0.5-0.2-0.9-0.6-1.2c-0.4-0.3-0.8-0.4-1.4-0.4
	l-3.4,0.2l0-1l6-0.3l0.1,1l-0.9,0c0.4,0.2,0.7,0.5,0.9,0.8c0.2,0.3,0.3,0.7,0.3,1.1c0,0.7-0.1,1.2-0.6,1.6
	C385.6,312,385,312.2,384.2,312.2z M380.3,309.9L380.3,309.9z M379.9,301.9l1-0.1c-0.1,0.1-0.1,0.2-0.1,0.4c0,0.1,0,0.3,0,0.4
	c0,0.6,0.2,1,0.6,1.3s0.9,0.4,1.6,0.4l3.2-0.2l0,1l-6,0.3l-0.1-1l0.9,0c-0.4-0.2-0.7-0.4-0.9-0.8c-0.2-0.3-0.3-0.7-0.3-1.2
	c0-0.1,0-0.2,0-0.2C379.9,302.1,379.9,302,379.9,301.9z"/>
<path id="Chandel_1_" d="M426.8,415.2v1.4c-0.4-0.4-0.9-0.7-1.4-0.9c-0.5-0.2-1-0.3-1.6-0.3c-1.1,0-1.9,0.3-2.5,1
	c-0.6,0.7-0.9,1.6-0.9,2.9c0,1.2,0.3,2.2,0.9,2.9c0.6,0.7,1.4,1,2.5,1c0.5,0,1.1-0.1,1.6-0.3c0.5-0.2,1-0.5,1.4-0.9v1.3
	c-0.5,0.3-0.9,0.5-1.4,0.7c-0.5,0.1-1,0.2-1.6,0.2c-1.4,0-2.6-0.4-3.4-1.3c-0.8-0.9-1.2-2.1-1.2-3.6c0-1.5,0.4-2.7,1.2-3.6
	c0.8-0.9,2-1.3,3.4-1.3c0.6,0,1.1,0.1,1.6,0.2C425.9,414.7,426.4,414.9,426.8,415.2z M434.7,419.7v4.3h-1.2v-4.2
	c0-0.7-0.1-1.2-0.4-1.5c-0.3-0.3-0.7-0.5-1.2-0.5c-0.6,0-1.1,0.2-1.5,0.6c-0.4,0.4-0.5,0.9-0.5,1.6v4h-1.2v-9.9h1.2v3.9
	c0.3-0.4,0.6-0.8,1-1c0.4-0.2,0.8-0.3,1.3-0.3c0.8,0,1.4,0.3,1.8,0.8S434.7,418.7,434.7,419.7z M441.4,420.4h-1.2
	c-0.9,0-1.6,0.1-2,0.3c-0.4,0.2-0.5,0.6-0.5,1.1c0,0.4,0.1,0.8,0.4,1c0.3,0.2,0.6,0.4,1.1,0.4c0.6,0,1.2-0.2,1.6-0.7
	c0.4-0.5,0.6-1.1,0.6-1.8V420.4z M442.6,419.9v4.1h-1.2v-1.1c-0.3,0.4-0.6,0.8-1,1c-0.4,0.2-0.9,0.3-1.5,0.3c-0.7,0-1.3-0.2-1.7-0.6
	c-0.4-0.4-0.6-1-0.6-1.6c0-0.8,0.3-1.4,0.8-1.8c0.5-0.4,1.3-0.6,2.4-0.6h1.6v-0.1c0-0.5-0.2-1-0.5-1.2s-0.8-0.4-1.5-0.4
	c-0.4,0-0.8,0.1-1.2,0.1c-0.4,0.1-0.8,0.2-1.1,0.4v-1.1c0.4-0.2,0.8-0.3,1.2-0.4c0.4-0.1,0.8-0.1,1.2-0.1c1,0,1.8,0.3,2.3,0.8
	C442.3,418.1,442.6,418.9,442.6,419.9z M450.9,419.7v4.3h-1.2v-4.2c0-0.7-0.1-1.2-0.4-1.5c-0.3-0.3-0.7-0.5-1.2-0.5
	c-0.6,0-1.1,0.2-1.5,0.6c-0.4,0.4-0.5,0.9-0.5,1.6v4h-1.2v-7.1h1.2v1.1c0.3-0.4,0.6-0.8,1-1c0.4-0.2,0.8-0.3,1.3-0.3
	c0.8,0,1.4,0.3,1.9,0.8C450.7,418,450.9,418.7,450.9,419.7z M457.9,418v-3.9h1.2v9.9h-1.2v-1.1c-0.2,0.4-0.6,0.7-0.9,1
	c-0.4,0.2-0.8,0.3-1.4,0.3c-0.9,0-1.6-0.3-2.1-1c-0.5-0.7-0.8-1.6-0.8-2.7c0-1.1,0.3-2,0.8-2.7s1.2-1,2.1-1c0.5,0,1,0.1,1.4,0.3
	C457.3,417.2,457.6,417.5,457.9,418z M453.9,420.5c0,0.9,0.2,1.5,0.5,2c0.4,0.5,0.8,0.7,1.5,0.7c0.6,0,1.1-0.2,1.5-0.7
	c0.4-0.5,0.5-1.2,0.5-2c0-0.9-0.2-1.5-0.5-2c-0.4-0.5-0.8-0.7-1.5-0.7c-0.6,0-1.1,0.2-1.5,0.7C454.1,418.9,453.9,419.6,453.9,420.5z
	 M467.5,420.1v0.6h-5.4c0,0.8,0.3,1.4,0.7,1.9c0.4,0.4,1,0.6,1.8,0.6c0.5,0,0.9-0.1,1.3-0.2c0.4-0.1,0.8-0.3,1.2-0.5v1.1
	c-0.4,0.2-0.8,0.3-1.3,0.4c-0.4,0.1-0.9,0.1-1.3,0.1c-1.1,0-2-0.3-2.7-1c-0.7-0.7-1-1.5-1-2.7c0-1.2,0.3-2.1,0.9-2.8
	c0.6-0.7,1.5-1,2.5-1c1,0,1.7,0.3,2.3,0.9C467.3,418.3,467.5,419.1,467.5,420.1z M462.2,419.8l4.2,0c0-0.6-0.2-1.1-0.5-1.5
	c-0.3-0.4-0.8-0.6-1.4-0.6c-0.6,0-1.2,0.2-1.6,0.6C462.5,418.6,462.3,419.1,462.2,419.8z M469.5,424v-9.9h1.2v9.9H469.5z"/>
<path id="Churachandpur_1_" d="M286.1,397.2v1.4c-0.4-0.4-0.9-0.7-1.4-0.9c-0.5-0.2-1-0.3-1.6-0.3c-1.1,0-1.9,0.3-2.5,1
	c-0.6,0.7-0.9,1.6-0.9,2.9c0,1.2,0.3,2.2,0.9,2.9c0.6,0.7,1.4,1,2.5,1c0.6,0,1.1-0.1,1.6-0.3c0.5-0.2,0.9-0.5,1.4-0.9v1.3
	c-0.4,0.3-0.9,0.5-1.4,0.7c-0.5,0.1-1,0.2-1.6,0.2c-1.4,0-2.6-0.4-3.4-1.3c-0.8-0.9-1.2-2.1-1.2-3.6c0-1.5,0.4-2.7,1.2-3.6
	c0.8-0.9,2-1.3,3.4-1.3c0.6,0,1.1,0.1,1.6,0.2C285.2,396.7,285.7,396.9,286.1,397.2z M294,401.7v4.3h-1.2v-4.2
	c0-0.7-0.1-1.2-0.4-1.5c-0.3-0.3-0.7-0.5-1.2-0.5c-0.6,0-1.1,0.2-1.5,0.6c-0.4,0.4-0.6,0.9-0.6,1.6v4H288v-9.9h1.2v3.9
	c0.3-0.4,0.6-0.8,1-1c0.4-0.2,0.8-0.3,1.3-0.3c0.8,0,1.4,0.3,1.8,0.8C293.8,400,294,400.7,294,401.7z M296.2,403.2v-4.3h1.2v4.3
	c0,0.7,0.1,1.2,0.4,1.5c0.3,0.3,0.7,0.5,1.2,0.5c0.6,0,1.1-0.2,1.5-0.6c0.4-0.4,0.6-1,0.6-1.6v-4h1.2v7.1H301v-1.1
	c-0.3,0.4-0.6,0.8-1,1s-0.8,0.3-1.3,0.3c-0.8,0-1.4-0.3-1.9-0.8C296.4,404.9,296.2,404.2,296.2,403.2z M299.1,398.7L299.1,398.7z
	 M308.7,398.8l0,1.2c-0.1-0.1-0.3-0.1-0.4-0.2c-0.2,0-0.3-0.1-0.5-0.1c-0.7,0-1.2,0.2-1.5,0.6c-0.4,0.4-0.5,1-0.5,1.8v3.8h-1.2v-7.1
	h1.2v1.1c0.2-0.4,0.6-0.8,1-1c0.4-0.2,0.9-0.3,1.4-0.3c0.1,0,0.2,0,0.3,0C308.4,398.7,308.6,398.8,308.7,398.8z M314.3,402.4h-1.2
	c-0.9,0-1.6,0.1-2,0.3c-0.4,0.2-0.5,0.6-0.5,1.1c0,0.4,0.1,0.8,0.4,1c0.3,0.2,0.7,0.4,1.1,0.4c0.6,0,1.2-0.2,1.6-0.7
	c0.4-0.5,0.6-1.1,0.6-1.8V402.4z M315.5,401.9v4.1h-1.2v-1.1c-0.3,0.4-0.6,0.8-1,1c-0.4,0.2-0.9,0.3-1.5,0.3c-0.7,0-1.3-0.2-1.7-0.6
	c-0.4-0.4-0.6-1-0.6-1.6c0-0.8,0.3-1.4,0.8-1.8c0.5-0.4,1.3-0.6,2.4-0.6h1.6v-0.1c0-0.5-0.2-1-0.5-1.2c-0.3-0.3-0.8-0.4-1.5-0.4
	c-0.4,0-0.8,0.1-1.2,0.1c-0.4,0.1-0.8,0.2-1.1,0.4v-1.1c0.4-0.2,0.8-0.3,1.2-0.4c0.4-0.1,0.8-0.1,1.2-0.1c1,0,1.8,0.3,2.3,0.8
	C315.2,400.1,315.5,400.9,315.5,401.9z M323,399.2v1.1c-0.3-0.2-0.7-0.3-1-0.4c-0.3-0.1-0.7-0.1-1-0.1c-0.8,0-1.3,0.2-1.8,0.7
	c-0.4,0.5-0.6,1.2-0.6,2c0,0.9,0.2,1.5,0.6,2c0.4,0.5,1,0.7,1.8,0.7c0.3,0,0.7,0,1-0.1c0.3-0.1,0.7-0.2,1-0.4v1.1
	c-0.3,0.2-0.7,0.3-1,0.3c-0.3,0.1-0.7,0.1-1.1,0.1c-1.1,0-1.9-0.3-2.5-1c-0.6-0.7-1-1.6-1-2.7c0-1.2,0.3-2.1,1-2.7
	c0.6-0.7,1.5-1,2.6-1c0.4,0,0.7,0,1,0.1C322.3,398.9,322.7,399,323,399.2z M330.9,401.7v4.3h-1.2v-4.2c0-0.7-0.1-1.2-0.4-1.5
	c-0.3-0.3-0.7-0.5-1.2-0.5c-0.6,0-1.1,0.2-1.5,0.6c-0.4,0.4-0.5,0.9-0.5,1.6v4H325v-9.9h1.2v3.9c0.3-0.4,0.6-0.8,1-1
	c0.4-0.2,0.8-0.3,1.3-0.3c0.8,0,1.4,0.3,1.8,0.8C330.7,400,330.9,400.7,330.9,401.7z M337.6,402.4h-1.2c-0.9,0-1.6,0.1-2,0.3
	c-0.4,0.2-0.5,0.6-0.5,1.1c0,0.4,0.1,0.8,0.4,1c0.3,0.2,0.6,0.4,1.1,0.4c0.7,0,1.2-0.2,1.6-0.7c0.4-0.5,0.6-1.1,0.6-1.8V402.4z
	 M338.8,401.9v4.1h-1.2v-1.1c-0.3,0.4-0.6,0.8-1,1c-0.4,0.2-0.9,0.3-1.5,0.3c-0.7,0-1.3-0.2-1.7-0.6c-0.4-0.4-0.6-1-0.6-1.6
	c0-0.8,0.3-1.4,0.8-1.8c0.5-0.4,1.3-0.6,2.4-0.6h1.6v-0.1c0-0.5-0.2-1-0.5-1.2s-0.9-0.4-1.5-0.4c-0.4,0-0.8,0.1-1.2,0.1
	c-0.4,0.1-0.8,0.2-1.1,0.4v-1.1c0.4-0.2,0.8-0.3,1.2-0.4c0.4-0.1,0.8-0.1,1.2-0.1c1,0,1.8,0.3,2.3,0.8
	C338.6,400.1,338.8,400.9,338.8,401.9z M347.1,401.7v4.3H346v-4.2c0-0.7-0.1-1.2-0.4-1.5c-0.3-0.3-0.7-0.5-1.2-0.5
	c-0.6,0-1.1,0.2-1.5,0.6c-0.4,0.4-0.5,0.9-0.5,1.6v4h-1.2v-7.1h1.2v1.1c0.3-0.4,0.6-0.8,1-1c0.4-0.2,0.8-0.3,1.3-0.3
	c0.8,0,1.4,0.3,1.9,0.8C346.9,400,347.1,400.7,347.1,401.7z M354.1,400v-3.9h1.2v9.9h-1.2v-1.1c-0.2,0.4-0.6,0.7-0.9,1
	c-0.4,0.2-0.8,0.3-1.4,0.3c-0.9,0-1.6-0.3-2.1-1c-0.5-0.7-0.8-1.6-0.8-2.7c0-1.1,0.3-2,0.8-2.7s1.2-1,2.1-1c0.5,0,1,0.1,1.4,0.3
	C353.6,399.2,353.9,399.5,354.1,400z M350.2,402.5c0,0.9,0.2,1.5,0.5,2c0.4,0.5,0.8,0.7,1.5,0.7c0.6,0,1.1-0.2,1.5-0.7
	c0.4-0.5,0.5-1.2,0.5-2c0-0.9-0.2-1.5-0.5-2c-0.4-0.5-0.8-0.7-1.5-0.7c-0.6,0-1.1,0.2-1.5,0.7C350.3,400.9,350.2,401.6,350.2,402.5z
	 M358.8,404.9v3.8h-1.2v-9.8h1.2v1.1c0.2-0.4,0.6-0.7,0.9-0.9c0.4-0.2,0.8-0.3,1.4-0.3c0.9,0,1.6,0.3,2.1,1c0.5,0.7,0.8,1.6,0.8,2.7
	c0,1.1-0.3,2-0.8,2.7c-0.5,0.7-1.2,1-2.1,1c-0.5,0-1-0.1-1.4-0.3C359.4,405.7,359.1,405.4,358.8,404.9z M362.8,402.5
	c0-0.9-0.2-1.5-0.5-2c-0.4-0.5-0.8-0.7-1.5-0.7c-0.6,0-1.1,0.2-1.5,0.7c-0.4,0.5-0.5,1.2-0.5,2c0,0.9,0.2,1.5,0.5,2
	c0.4,0.5,0.8,0.7,1.5,0.7s1.1-0.2,1.5-0.7C362.6,404,362.8,403.3,362.8,402.5z M365.9,403.2v-4.3h1.2v4.3c0,0.7,0.1,1.2,0.4,1.5
	c0.3,0.3,0.7,0.5,1.2,0.5c0.6,0,1.1-0.2,1.5-0.6c0.4-0.4,0.6-1,0.6-1.6v-4h1.2v7.1h-1.2v-1.1c-0.3,0.4-0.6,0.8-1,1
	c-0.4,0.2-0.8,0.3-1.3,0.3c-0.8,0-1.4-0.3-1.9-0.8C366.1,404.9,365.9,404.2,365.9,403.2z M368.8,398.7L368.8,398.7z M378.3,398.8
	l0,1.2c-0.1-0.1-0.3-0.1-0.4-0.2c-0.1,0-0.3-0.1-0.5-0.1c-0.7,0-1.2,0.2-1.5,0.6c-0.3,0.4-0.5,1-0.5,1.8v3.8h-1.2v-7.1h1.2v1.1
	c0.2-0.4,0.6-0.8,1-1c0.4-0.2,0.9-0.3,1.4-0.3c0.1,0,0.2,0,0.3,0C378.1,398.7,378.2,398.8,378.3,398.8z"/>
<path id="Imphal_E." d="M399.5,272.6l-7.9-1.1l0.1-1.1l8,1.1L399.5,272.6z M395.7,264.2c-0.4-0.3-0.7-0.6-0.9-1
	c-0.2-0.4-0.2-0.8-0.1-1.2c0.1-0.6,0.4-1.1,0.9-1.4c0.5-0.3,1.1-0.4,1.9-0.3l3.6,0.5l-0.1,1l-3.6-0.5c-0.6-0.1-1,0-1.3,0.1
	c-0.3,0.2-0.5,0.5-0.5,0.9c-0.1,0.5,0,0.9,0.3,1.3c0.3,0.3,0.7,0.6,1.3,0.6l3.4,0.5l-0.1,1l-3.6-0.5c-0.6-0.1-1,0-1.3,0.1
	c-0.3,0.2-0.5,0.5-0.5,0.9c-0.1,0.5,0,0.9,0.3,1.3s0.7,0.5,1.3,0.6l3.4,0.5l-0.1,1l-6-0.8l0.1-1l0.9,0.1c-0.3-0.3-0.6-0.6-0.7-0.9
	c-0.1-0.3-0.2-0.7-0.1-1.2c0.1-0.4,0.2-0.8,0.5-1.1S395.3,264.3,395.7,264.2z M400.6,257.8l3.2,0.4l-0.1,1l-8.2-1.1l0.1-1l0.9,0.1
	c-0.3-0.3-0.6-0.5-0.7-0.9c-0.1-0.3-0.2-0.7-0.1-1.2c0.1-0.7,0.5-1.3,1.1-1.7c0.6-0.4,1.4-0.5,2.4-0.4c0.9,0.1,1.7,0.5,2.2,1
	c0.5,0.5,0.7,1.2,0.6,1.9c-0.1,0.4-0.2,0.8-0.4,1.1C401.3,257.4,401,257.6,400.6,257.8z M398.9,254.2c-0.7-0.1-1.3,0-1.8,0.2
	c-0.4,0.2-0.7,0.6-0.8,1.1c-0.1,0.5,0.1,0.9,0.5,1.3c0.4,0.4,0.9,0.6,1.6,0.7c0.7,0.1,1.3,0,1.8-0.2c0.4-0.2,0.7-0.6,0.8-1.1
	c0.1-0.5-0.1-1-0.4-1.3C400.2,254.5,399.7,254.3,398.9,254.2z M399.3,246.5l3.6,0.5l-0.1,1l-3.6-0.5c-0.6-0.1-1,0-1.3,0.2
	c-0.3,0.2-0.5,0.5-0.6,0.9c-0.1,0.5,0,1,0.3,1.3c0.3,0.3,0.7,0.6,1.3,0.6l3.4,0.5l-0.1,1l-8.3-1.1l0.1-1l3.2,0.4
	c-0.3-0.3-0.6-0.6-0.7-0.9c-0.1-0.3-0.2-0.7-0.1-1.1c0.1-0.7,0.4-1.2,0.9-1.5C397.9,246.5,398.5,246.4,399.3,246.5z M400.7,240.9
	l-0.1,1c-0.1,0.8-0.1,1.3,0,1.7c0.1,0.3,0.4,0.5,0.9,0.6c0.3,0,0.6,0,0.9-0.2c0.2-0.2,0.4-0.5,0.4-0.9c0.1-0.5-0.1-1-0.4-1.4
	c-0.3-0.4-0.8-0.6-1.5-0.7L400.7,240.9z M400.4,239.9l3.4,0.4l-0.1,1l-0.9-0.1c0.3,0.3,0.6,0.6,0.7,0.9c0.1,0.4,0.2,0.8,0.1,1.2
	c-0.1,0.6-0.3,1.1-0.7,1.4c-0.4,0.3-0.9,0.4-1.4,0.4c-0.7-0.1-1.1-0.4-1.4-0.9c-0.3-0.5-0.4-1.2-0.2-2.1l0.2-1.4l-0.1,0
	c-0.4-0.1-0.8,0-1.1,0.3c-0.3,0.3-0.5,0.7-0.5,1.2c0,0.3,0,0.7,0,1c0,0.3,0.1,0.7,0.2,1l-0.9-0.1c-0.1-0.4-0.2-0.7-0.2-1.1
	c0-0.3,0-0.7,0-1c0.1-0.9,0.4-1.5,0.9-1.8C398.8,239.9,399.5,239.8,400.4,239.9z M404.1,238.4l-8.3-1.1l0.1-1l8.3,1.1L404.1,238.4z
	 M405,231.8l-7.9-1.1l0.7-5l0.9,0.1l-0.5,3.9l2.4,0.3l0.5-3.8l0.9,0.1l-0.5,3.8l2.9,0.4l0.5-4l0.9,0.1L405,231.8z M405.9,224.8
	l-1.4-0.2l0.1-1.1l1.4,0.2L405.9,224.8z"/>
<path id="Imphal_W." d="M430,272.6l-8-0.8l0.1-1.1l8,0.8L430,272.6z M426,264.3c-0.4-0.3-0.7-0.6-0.9-1c-0.2-0.4-0.2-0.8-0.2-1.2
	c0.1-0.6,0.3-1.1,0.8-1.4c0.5-0.3,1.1-0.4,1.9-0.3l3.6,0.4l-0.1,1l-3.6-0.4c-0.6-0.1-1,0-1.3,0.2c-0.3,0.2-0.5,0.5-0.5,0.9
	c0,0.5,0.1,0.9,0.4,1.3c0.3,0.3,0.8,0.5,1.3,0.6l3.4,0.3l-0.1,1l-3.6-0.4c-0.6-0.1-1,0-1.3,0.2c-0.3,0.2-0.5,0.5-0.5,0.9
	c0,0.5,0.1,0.9,0.4,1.2c0.3,0.3,0.7,0.5,1.3,0.6l3.4,0.3l-0.1,1l-6-0.6l0.1-1l0.9,0.1c-0.3-0.3-0.6-0.6-0.7-0.9
	c-0.1-0.3-0.2-0.7-0.2-1.1c0-0.4,0.2-0.8,0.4-1.1C425.2,264.6,425.5,264.4,426,264.3z M430.6,257.8l3.2,0.3l-0.1,1l-8.3-0.8l0.1-1
	l0.9,0.1c-0.3-0.2-0.6-0.5-0.7-0.9c-0.1-0.3-0.2-0.7-0.2-1.2c0.1-0.7,0.4-1.3,1-1.7c0.6-0.4,1.4-0.5,2.3-0.4
	c0.9,0.1,1.7,0.4,2.2,0.9s0.8,1.1,0.7,1.9c0,0.4-0.2,0.8-0.4,1.1C431.3,257.4,431,257.6,430.6,257.8z M428.8,254.2
	c-0.7-0.1-1.3,0-1.7,0.3c-0.4,0.3-0.7,0.6-0.8,1.2c0,0.5,0.1,1,0.5,1.3s0.9,0.5,1.7,0.6c0.7,0.1,1.3,0,1.8-0.3
	c0.4-0.3,0.7-0.6,0.7-1.2c0.1-0.5-0.1-0.9-0.5-1.3C430.1,254.5,429.6,254.3,428.8,254.2z M429,246.5l3.6,0.3l-0.1,1l-3.6-0.4
	c-0.6-0.1-1,0-1.3,0.2c-0.3,0.2-0.5,0.5-0.5,0.9c-0.1,0.5,0.1,1,0.4,1.3c0.3,0.3,0.8,0.5,1.3,0.6l3.4,0.3l-0.1,1l-8.3-0.8l0.1-1
	l3.3,0.3c-0.3-0.3-0.6-0.6-0.7-0.9c-0.1-0.3-0.2-0.7-0.2-1.1c0.1-0.7,0.3-1.2,0.8-1.5C427.5,246.5,428.1,246.4,429,246.5z
	 M430.1,240.9l-0.1,1c-0.1,0.8,0,1.4,0.1,1.7c0.2,0.3,0.4,0.5,0.9,0.5c0.3,0,0.6,0,0.9-0.3c0.2-0.2,0.4-0.5,0.4-0.9
	c0.1-0.5-0.1-1-0.4-1.4c-0.4-0.4-0.9-0.6-1.5-0.6L430.1,240.9z M429.8,239.9l3.4,0.3l-0.1,1l-0.9-0.1c0.3,0.3,0.6,0.6,0.7,0.9
	c0.1,0.4,0.2,0.8,0.1,1.3c-0.1,0.6-0.3,1.1-0.7,1.4s-0.9,0.5-1.4,0.4c-0.7-0.1-1.2-0.3-1.5-0.8c-0.3-0.5-0.4-1.2-0.3-2.1l0.1-1.4
	l-0.1,0c-0.5,0-0.8,0.1-1.1,0.3c-0.3,0.3-0.4,0.7-0.5,1.2c0,0.3,0,0.7,0,1c0,0.3,0.1,0.7,0.3,1l-0.9-0.1c-0.1-0.4-0.2-0.7-0.2-1.1
	c0-0.3,0-0.7,0-1c0.1-0.9,0.4-1.5,0.9-1.9C428.2,239.9,428.9,239.8,429.8,239.9z M433.4,238.2l-8.3-0.8l0.1-1l8.3,0.8L433.4,238.2z
	 M434.2,230.4l-8.2,1.2l0.1-1.1l6.9-1l-6.6-2.3l0.1-1.2l6.9-1l-6.6-2.3l0.1-1.1l7.8,2.8l-0.1,1.4l-7.1,1l6.8,2.4L434.2,230.4z
	 M435,222l-1.4-0.1l0.1-1.1l1.4,0.1L435,222z"/>
<path id="Senapati_1_" d="M420.4,143.8v1.2c-0.5-0.2-0.9-0.4-1.4-0.5c-0.4-0.1-0.9-0.2-1.3-0.2c-0.7,0-1.2,0.1-1.6,0.4
	c-0.4,0.3-0.6,0.7-0.6,1.1c0,0.4,0.1,0.7,0.4,1c0.3,0.2,0.7,0.4,1.4,0.5l0.8,0.2c1,0.2,1.7,0.5,2.1,1c0.5,0.5,0.7,1.1,0.7,1.8
	c0,0.9-0.3,1.6-0.9,2.1c-0.6,0.5-1.5,0.7-2.7,0.7c-0.4,0-0.9-0.1-1.4-0.1c-0.5-0.1-1-0.2-1.6-0.4v-1.3c0.5,0.3,1,0.5,1.5,0.7
	s1,0.2,1.5,0.2c0.7,0,1.3-0.1,1.7-0.4c0.4-0.3,0.6-0.7,0.6-1.2c0-0.5-0.1-0.8-0.4-1.1c-0.3-0.3-0.7-0.5-1.4-0.6l-0.8-0.2
	c-1-0.2-1.7-0.5-2.1-0.9c-0.4-0.4-0.6-1-0.6-1.7c0-0.8,0.3-1.5,0.9-2c0.6-0.5,1.4-0.7,2.4-0.7c0.4,0,0.9,0,1.4,0.1
	S419.9,143.7,420.4,143.8z M429,149.1v0.6h-5.4c0.1,0.8,0.3,1.4,0.7,1.9c0.4,0.4,1,0.6,1.8,0.6c0.5,0,0.9-0.1,1.3-0.2
	c0.4-0.1,0.8-0.3,1.3-0.5v1.1c-0.4,0.2-0.9,0.3-1.3,0.4c-0.4,0.1-0.9,0.1-1.3,0.1c-1.1,0-2-0.3-2.7-1c-0.7-0.7-1-1.6-1-2.7
	c0-1.2,0.3-2.1,0.9-2.8c0.6-0.7,1.5-1,2.6-1c1,0,1.7,0.3,2.3,0.9C428.7,147.3,429,148.1,429,149.1z M423.7,148.8l4.2,0
	c0-0.6-0.2-1.1-0.5-1.5c-0.3-0.4-0.8-0.6-1.4-0.6c-0.7,0-1.2,0.2-1.6,0.5C424,147.6,423.8,148.1,423.7,148.8z M436.9,148.7v4.3h-1.2
	v-4.2c0-0.7-0.1-1.2-0.4-1.5c-0.3-0.3-0.7-0.5-1.2-0.5c-0.6,0-1.1,0.2-1.5,0.6c-0.4,0.4-0.6,0.9-0.5,1.6v4h-1.2v-7.1h1.2v1.1
	c0.3-0.4,0.6-0.8,1-1c0.4-0.2,0.8-0.3,1.3-0.3c0.8,0,1.4,0.3,1.9,0.8C436.6,147,436.9,147.7,436.9,148.7z M443.6,149.4h-1.2
	c-0.9,0-1.6,0.1-2,0.3c-0.4,0.2-0.6,0.6-0.6,1.1c0,0.4,0.1,0.7,0.4,1c0.3,0.2,0.6,0.4,1.1,0.4c0.6,0,1.2-0.2,1.6-0.7
	c0.4-0.5,0.6-1.1,0.6-1.8V149.4z M444.7,148.9v4.1h-1.2v-1.1c-0.3,0.4-0.6,0.8-1,1c-0.4,0.2-0.9,0.3-1.5,0.3c-0.7,0-1.3-0.2-1.7-0.6
	c-0.4-0.4-0.6-1-0.6-1.6c0-0.8,0.3-1.4,0.8-1.8s1.3-0.6,2.4-0.6h1.6v-0.1c0-0.5-0.2-1-0.5-1.2c-0.4-0.3-0.8-0.4-1.5-0.4
	c-0.4,0-0.8,0.1-1.2,0.1c-0.4,0.1-0.8,0.2-1.1,0.4v-1.1c0.4-0.2,0.8-0.3,1.2-0.4c0.4-0.1,0.8-0.1,1.2-0.1c1,0,1.8,0.3,2.3,0.8
	C444.5,147.1,444.7,147.9,444.7,148.9z M448.3,151.9v3.8h-1.2v-9.8h1.2v1.1c0.2-0.4,0.5-0.7,0.9-0.9c0.4-0.2,0.8-0.3,1.3-0.3
	c0.9,0,1.6,0.3,2.1,1c0.5,0.7,0.8,1.6,0.8,2.7c0,1.1-0.3,2-0.8,2.7c-0.5,0.7-1.2,1-2.1,1c-0.5,0-1-0.1-1.3-0.3
	C448.8,152.7,448.5,152.4,448.3,151.9z M452.2,149.4c0-0.9-0.2-1.5-0.5-2c-0.4-0.5-0.8-0.7-1.5-0.7c-0.6,0-1.1,0.2-1.5,0.7
	c-0.3,0.5-0.5,1.2-0.5,2c0,0.9,0.2,1.5,0.5,2c0.4,0.5,0.8,0.7,1.5,0.7c0.6,0,1.1-0.2,1.5-0.7C452.1,151,452.2,150.3,452.2,149.4z
	 M459.8,149.4h-1.2c-0.9,0-1.6,0.1-2,0.3c-0.4,0.2-0.6,0.6-0.6,1.1c0,0.4,0.1,0.7,0.4,1c0.3,0.2,0.6,0.4,1.1,0.4
	c0.6,0,1.2-0.2,1.6-0.7c0.4-0.5,0.6-1.1,0.6-1.8V149.4z M461,148.9v4.1h-1.2v-1.1c-0.3,0.4-0.6,0.8-1,1c-0.4,0.2-0.9,0.3-1.5,0.3
	c-0.7,0-1.3-0.2-1.7-0.6c-0.4-0.4-0.6-1-0.6-1.6c0-0.8,0.3-1.4,0.8-1.8c0.5-0.4,1.3-0.6,2.4-0.6h1.6v-0.1c0-0.5-0.2-1-0.5-1.2
	c-0.4-0.3-0.9-0.4-1.5-0.4c-0.4,0-0.8,0.1-1.2,0.1c-0.4,0.1-0.8,0.2-1.1,0.4v-1.1c0.4-0.2,0.8-0.3,1.2-0.4c0.4-0.1,0.8-0.1,1.2-0.1
	c1,0,1.8,0.3,2.3,0.8C460.7,147.1,461,147.9,461,148.9z M463.4,143.9h1.2v2h2.4v0.9h-2.4v3.9c0,0.6,0.1,0.9,0.2,1.1
	c0.2,0.2,0.5,0.2,1,0.2h1.2v1h-1.2c-0.9,0-1.5-0.2-1.9-0.5c-0.3-0.3-0.5-1-0.5-1.8v-3.9h-0.9v-0.9h0.9V143.9z M468.5,153v-7.1h1.2
	v7.1H468.5z M468.5,144.6v-1.5h1.2v1.5H468.5z"/>
<path id="Tamenglong_1_" d="M303,202.6v-1.1h8v1.1h-3.4v8.4h-1.3v-8.4H303z M314.5,207.4h-1.2c-0.9,0-1.6,0.1-2,0.3
	c-0.4,0.2-0.5,0.6-0.5,1.1c0,0.4,0.1,0.7,0.4,1c0.3,0.2,0.6,0.4,1.1,0.4c0.6,0,1.2-0.2,1.5-0.7c0.4-0.5,0.6-1.1,0.6-1.8V207.4z
	 M315.6,206.9v4.1h-1.2v-1.1c-0.3,0.4-0.6,0.8-1,1c-0.4,0.2-0.9,0.3-1.5,0.3c-0.7,0-1.3-0.2-1.7-0.6c-0.4-0.4-0.6-1-0.6-1.6
	c0-0.8,0.3-1.4,0.8-1.8c0.5-0.4,1.3-0.6,2.4-0.6h1.6v-0.1c0-0.5-0.2-1-0.5-1.2s-0.8-0.4-1.5-0.4c-0.4,0-0.8,0.1-1.2,0.1
	c-0.4,0.1-0.8,0.2-1.1,0.4v-1.1c0.4-0.2,0.8-0.3,1.2-0.4c0.4-0.1,0.8-0.1,1.2-0.1c1,0,1.8,0.3,2.3,0.8
	C315.4,205.1,315.6,205.9,315.6,206.9z M323.6,205.3c0.3-0.5,0.6-0.9,1-1.2c0.4-0.2,0.9-0.4,1.4-0.4c0.7,0,1.3,0.3,1.7,0.8
	c0.4,0.5,0.6,1.2,0.6,2.2v4.3h-1.2v-4.2c0-0.7-0.1-1.2-0.4-1.5c-0.2-0.3-0.6-0.5-1.1-0.5c-0.6,0-1.1,0.2-1.4,0.6
	c-0.4,0.4-0.5,0.9-0.5,1.6v4h-1.2v-4.2c0-0.7-0.1-1.2-0.4-1.5c-0.2-0.3-0.6-0.5-1.1-0.5c-0.6,0-1.1,0.2-1.4,0.6
	c-0.3,0.4-0.5,1-0.5,1.6v4H318v-7.1h1.2v1.1c0.3-0.4,0.6-0.8,1-1c0.4-0.2,0.8-0.3,1.3-0.3c0.5,0,1,0.1,1.3,0.4
	C323.1,204.4,323.4,204.8,323.6,205.3z M336.8,207.1v0.6h-5.4c0.1,0.8,0.3,1.4,0.7,1.9c0.4,0.4,1,0.6,1.8,0.6c0.4,0,0.9-0.1,1.3-0.2
	c0.4-0.1,0.8-0.3,1.3-0.5v1.1c-0.4,0.2-0.9,0.3-1.3,0.4c-0.4,0.1-0.9,0.1-1.3,0.1c-1.1,0-2-0.3-2.7-1c-0.7-0.7-1-1.6-1-2.7
	c0-1.2,0.3-2.1,0.9-2.8c0.6-0.7,1.5-1,2.5-1c1,0,1.7,0.3,2.3,0.9C336.5,205.3,336.8,206.1,336.8,207.1z M331.5,206.8l4.2,0
	c0-0.6-0.2-1.2-0.5-1.5c-0.3-0.4-0.8-0.6-1.4-0.6c-0.7,0-1.2,0.2-1.6,0.5C331.7,205.6,331.5,206.1,331.5,206.8z M344.6,206.7v4.3
	h-1.2v-4.2c0-0.7-0.1-1.2-0.4-1.5c-0.3-0.3-0.7-0.5-1.2-0.5c-0.6,0-1.1,0.2-1.5,0.6c-0.4,0.4-0.6,0.9-0.6,1.6v4h-1.2v-7.1h1.2v1.1
	c0.3-0.4,0.6-0.8,1-1c0.4-0.2,0.8-0.3,1.3-0.3c0.8,0,1.4,0.3,1.9,0.8C344.4,205,344.6,205.7,344.6,206.7z M351.6,207.4
	c0-0.8-0.2-1.5-0.5-2c-0.3-0.5-0.8-0.7-1.5-0.7c-0.6,0-1.1,0.2-1.5,0.7c-0.3,0.5-0.5,1.1-0.5,2c0,0.8,0.2,1.5,0.5,2
	c0.3,0.5,0.8,0.7,1.5,0.7c0.6,0,1.1-0.2,1.5-0.7C351.4,208.9,351.6,208.2,351.6,207.4z M352.8,203.9v6.2c0,1.2-0.3,2.1-0.8,2.7
	c-0.5,0.6-1.4,0.9-2.5,0.9c-0.4,0-0.8,0-1.2-0.1c-0.4-0.1-0.7-0.2-1.1-0.3v-1.1c0.3,0.2,0.7,0.3,1,0.4c0.3,0.1,0.7,0.1,1,0.1
	c0.8,0,1.3-0.2,1.7-0.6c0.4-0.4,0.6-1,0.6-1.8v-0.6c-0.2,0.4-0.6,0.7-0.9,0.9c-0.4,0.2-0.8,0.3-1.4,0.3c-0.9,0-1.6-0.3-2.1-1
	c-0.5-0.7-0.8-1.5-0.8-2.6c0-1.1,0.3-2,0.8-2.6c0.5-0.7,1.2-1,2.1-1c0.5,0,1,0.1,1.4,0.3c0.4,0.2,0.7,0.5,0.9,0.9v-1.1H352.8z
	 M355.2,211v-9.9h1.2v9.9H355.2z M361.6,204.7c-0.6,0-1.1,0.2-1.5,0.7c-0.4,0.5-0.5,1.2-0.5,2c0,0.9,0.2,1.5,0.5,2
	c0.4,0.5,0.9,0.7,1.5,0.7c0.6,0,1.1-0.2,1.5-0.7c0.4-0.5,0.5-1.2,0.5-2c0-0.8-0.2-1.5-0.5-2C362.7,205,362.2,204.7,361.6,204.7z
	 M361.6,203.7c1,0,1.8,0.3,2.4,1c0.6,0.7,0.9,1.6,0.9,2.7c0,1.2-0.3,2.1-0.9,2.7c-0.6,0.7-1.4,1-2.4,1c-1,0-1.8-0.3-2.4-1
	c-0.6-0.7-0.9-1.6-0.9-2.7c0-1.2,0.3-2.1,0.9-2.7C359.7,204.1,360.5,203.7,361.6,203.7z M372.7,206.7v4.3h-1.2v-4.2
	c0-0.7-0.1-1.2-0.4-1.5c-0.3-0.3-0.7-0.5-1.2-0.5c-0.6,0-1.1,0.2-1.5,0.6c-0.4,0.4-0.5,0.9-0.5,1.6v4h-1.2v-7.1h1.2v1.1
	c0.3-0.4,0.6-0.8,1-1c0.4-0.2,0.8-0.3,1.3-0.3c0.8,0,1.4,0.3,1.9,0.8C372.5,205,372.7,205.7,372.7,206.7z M379.7,207.4
	c0-0.8-0.2-1.5-0.5-2c-0.3-0.5-0.8-0.7-1.5-0.7c-0.6,0-1.1,0.2-1.5,0.7c-0.3,0.5-0.5,1.1-0.5,2c0,0.8,0.2,1.5,0.5,2
	c0.4,0.5,0.8,0.7,1.5,0.7c0.6,0,1.1-0.2,1.5-0.7C379.5,208.9,379.7,208.2,379.7,207.4z M380.8,203.9v6.2c0,1.2-0.3,2.1-0.8,2.7
	c-0.5,0.6-1.4,0.9-2.5,0.9c-0.4,0-0.8,0-1.2-0.1c-0.4-0.1-0.7-0.2-1.1-0.3v-1.1c0.3,0.2,0.7,0.3,1,0.4c0.3,0.1,0.7,0.1,1,0.1
	c0.8,0,1.3-0.2,1.7-0.6c0.4-0.4,0.6-1,0.6-1.8v-0.6c-0.2,0.4-0.5,0.7-0.9,0.9c-0.4,0.2-0.8,0.3-1.4,0.3c-0.9,0-1.6-0.3-2.1-1
	c-0.5-0.7-0.8-1.5-0.8-2.6c0-1.1,0.3-2,0.8-2.6c0.5-0.7,1.2-1,2.1-1c0.5,0,1,0.1,1.4,0.3c0.4,0.2,0.7,0.5,0.9,0.9v-1.1H380.8z"/>
<path id="Thoubal_1_" d="M410,336.2l-0.9-0.6l4.3-6.8l0.9,0.6l-1.8,2.8l7.1,4.5l-0.7,1.1l-7.1-4.5L410,336.2z M421.5,325.6l3.6,2.3
	l-0.6,1l-3.6-2.3c-0.6-0.4-1.1-0.5-1.5-0.5c-0.4,0-0.8,0.3-1.1,0.7c-0.3,0.5-0.4,1.1-0.3,1.6c0.1,0.5,0.5,1,1.1,1.3l3.4,2.1l-0.6,1
	l-8.4-5.2l0.6-1l3.3,2c-0.2-0.5-0.3-0.9-0.3-1.3c0-0.4,0.2-0.9,0.4-1.3c0.4-0.7,1-1.1,1.6-1.2C419.9,324.9,420.7,325.1,421.5,325.6z
	 M422.5,320.2c-0.3,0.5-0.4,1.1-0.2,1.7c0.2,0.6,0.7,1.1,1.4,1.5c0.7,0.5,1.4,0.7,2,0.6c0.6,0,1.1-0.3,1.4-0.9
	c0.3-0.5,0.4-1.1,0.2-1.6c-0.2-0.6-0.7-1.1-1.4-1.5c-0.7-0.4-1.4-0.6-2-0.6C423.3,319.4,422.9,319.7,422.5,320.2z M421.7,319.7
	c0.5-0.9,1.2-1.4,2.1-1.5c0.9-0.1,1.8,0.1,2.8,0.7c1,0.6,1.6,1.4,1.9,2.2c0.2,0.8,0.1,1.7-0.4,2.5c-0.5,0.9-1.2,1.4-2.1,1.5
	c-0.9,0.1-1.8-0.1-2.8-0.7c-1-0.6-1.6-1.3-1.9-2.2C421,321.4,421.1,320.6,421.7,319.7z M428.2,317.8l-3.6-2.3l0.6-1l3.6,2.3
	c0.6,0.4,1.1,0.5,1.5,0.5c0.4,0,0.8-0.3,1.1-0.7c0.3-0.5,0.4-1.1,0.3-1.6c-0.1-0.5-0.5-1-1.1-1.3l-3.4-2.1l0.6-1l6,3.8l-0.6,1
	l-0.9-0.6c0.2,0.5,0.3,0.9,0.3,1.4c0,0.4-0.2,0.8-0.4,1.3c-0.4,0.7-1,1.1-1.6,1.2C429.7,318.5,429,318.3,428.2,317.8z M426,312.9
	L426,312.9z M434.7,306c-0.7-0.5-1.4-0.7-2-0.6c-0.6,0-1.1,0.3-1.4,0.8c-0.3,0.5-0.4,1.1-0.1,1.6c0.2,0.6,0.7,1.1,1.4,1.5
	c0.7,0.5,1.4,0.7,2,0.6c0.6,0,1.1-0.3,1.4-0.9c0.3-0.5,0.4-1.1,0.1-1.6S435.4,306.4,434.7,306z M427.2,306l3.3,2.1
	c-0.2-0.4-0.3-0.9-0.3-1.3s0.2-0.9,0.5-1.3c0.5-0.7,1.1-1.1,2-1.2c0.9-0.1,1.8,0.2,2.7,0.8c0.9,0.6,1.6,1.3,1.9,2.1
	c0.3,0.8,0.2,1.6-0.2,2.3c-0.3,0.4-0.6,0.8-1,1c-0.4,0.2-0.8,0.3-1.3,0.3l0.9,0.6l-0.6,1l-8.4-5.2L427.2,306z M438.7,299.6l-0.6,1
	c-0.5,0.8-0.8,1.4-0.8,1.8c0,0.4,0.2,0.8,0.6,1.1c0.4,0.2,0.7,0.3,1.1,0.2c0.3-0.1,0.6-0.4,0.9-0.8c0.3-0.6,0.4-1.1,0.2-1.7
	c-0.2-0.6-0.6-1.1-1.2-1.5L438.7,299.6z M438.9,298.3l3.4,2.1l-0.6,1l-0.9-0.6c0.2,0.5,0.3,0.9,0.3,1.4c0,0.4-0.2,0.9-0.5,1.4
	c-0.4,0.6-0.9,1-1.4,1.1c-0.6,0.1-1.1,0-1.7-0.3c-0.7-0.4-1.1-1-1.1-1.6c-0.1-0.7,0.2-1.5,0.8-2.4l0.9-1.4l-0.1-0.1
	c-0.5-0.3-0.9-0.4-1.3-0.2c-0.4,0.1-0.8,0.5-1.2,1c-0.2,0.3-0.4,0.7-0.5,1.1c-0.1,0.4-0.2,0.8-0.2,1.2l-0.9-0.6
	c0.1-0.5,0.2-0.9,0.3-1.2c0.1-0.4,0.3-0.7,0.5-1.1c0.5-0.9,1.2-1.4,1.9-1.5C437.1,297.5,438,297.8,438.9,298.3z M443.6,298.5
	l-8.4-5.2l0.6-1l8.4,5.2L443.6,298.5z"/>
<path id="Ukhrul_1_" d="M500.4,212.4v-5.9h1.3v5.8c0,1,0.2,1.7,0.6,2.2c0.4,0.4,1,0.7,1.8,0.7c0.8,0,1.4-0.2,1.8-0.7
	c0.4-0.5,0.6-1.2,0.6-2.2v-5.8h1.3v5.9c0,1.2-0.3,2.2-0.9,2.8c-0.6,0.6-1.5,0.9-2.7,0.9c-1.2,0-2.1-0.3-2.7-0.9
	C500.7,214.6,500.4,213.7,500.4,212.4z M510,216v-9.9h1.2v5.8l3.5-3.1h1.5l-3.8,3.3l3.9,3.8h-1.5l-3.6-3.5v3.5H510z M523.5,211.7
	v4.3h-1.2v-4.2c0-0.7-0.1-1.2-0.4-1.5c-0.3-0.3-0.7-0.5-1.2-0.5c-0.6,0-1.1,0.2-1.5,0.6c-0.4,0.4-0.5,0.9-0.5,1.6v4h-1.2v-9.9h1.2
	v3.9c0.3-0.4,0.6-0.8,1-1c0.4-0.2,0.8-0.3,1.3-0.3c0.8,0,1.4,0.3,1.9,0.8C523.3,210,523.5,210.7,523.5,211.7z M529.9,208.8l0,1.2
	c-0.1-0.1-0.3-0.1-0.4-0.2c-0.2,0-0.3-0.1-0.5-0.1c-0.7,0-1.2,0.2-1.5,0.7c-0.4,0.4-0.5,1-0.5,1.8v3.8h-1.2v-7.1h1.2v1.1
	c0.2-0.4,0.6-0.8,1-1c0.4-0.2,0.9-0.3,1.4-0.3c0.1,0,0.2,0,0.3,0C529.7,208.7,529.8,208.8,529.9,208.8z M531,213.2v-4.3h1.2v4.3
	c0,0.7,0.1,1.2,0.4,1.5c0.3,0.3,0.7,0.5,1.2,0.5c0.6,0,1.1-0.2,1.5-0.6c0.4-0.4,0.5-1,0.5-1.7v-4h1.2v7.1h-1.2v-1.1
	c-0.3,0.4-0.6,0.8-1,1c-0.4,0.2-0.8,0.3-1.3,0.3c-0.8,0-1.4-0.3-1.9-0.8C531.2,214.9,531,214.2,531,213.2z M534,208.7L534,208.7z
	 M539.4,216v-9.9h1.2v9.9H539.4z"/>
</svg>
