<?xml version="1.0" encoding="utf-8"?>
<!-- Generator: Adobe Illustrator 25.1.0, SVG Export Plug-In . SVG Version: 6.00 Build 0)  -->
<svg version="1.1" id="Layer_1" xmlns="http://www.w3.org/2000/svg" xmlns:xlink="http://www.w3.org/1999/xlink" x="0px" y="0px"
	 viewBox="0 0 800 533" style="enable-background:new 0 0 800 533;" xml:space="preserve">
<style type="text/css">
	.st0{stroke:#000000;stroke-width:0.4;}
	.st1{fill:none;}
</style>
<path id="Aizawl" class="st0" d="M377.9,241.4l-0.7-1.3l0.3-1.5l0-0.4l-0.5-1l0.1-0.7l-0.9-1.6l0.1-1.2l-0.3-0.4l0.1-0.8l-0.1-2.7
	l0.1-3.8l-0.4-1.7l0.1-0.5l0.4-0.9l0.1-0.7l-0.2-1.1l-0.3-0.8l0-1.4l-0.3-0.2l-0.9-0.2l-0.5-0.1l-0.4-0.3l-0.7-2l0.4-1l0.7-0.3
	l0.3-0.3l-0.1-0.7l0.2-0.7l0.2-0.3l0.7,0l0.4-0.2l0.3-0.9l0.2-1.8l-0.4-0.8l-0.4-0.2l-0.2-1.2l-0.1-0.9l0.2-0.4l0.4-0.2l1-0.3l1-0.9
	l0.3-0.8l0.1-0.7l-0.1-0.9l0.1-0.8l0-0.7l-0.2-0.4l-1.9-0.5h-0.4l-0.3-0.3v-0.8l-0.6-0.4l-0.2-0.3l-0.6-0.5l-0.4-0.8l0-1.8l1.2-1.2
	l0.7-1.9l0.5-0.8l1.4-3.7l0-0.6l-0.2-0.4l-0.3-0.2l-0.8-0.1l-0.3-0.1l-0.3-0.3L375,186l-0.7-1.7l-0.2-0.8l-0.4-0.9l-0.2-1.4l0-1.4
	l-0.3-0.5l-0.7-0.4l-0.1-0.2l0.6-0.9l0.6-0.5l0.1-0.2l0.2-1.9l0.1-1.3l-0.2-0.2l-0.2-0.1l-1.2,0l-0.3-0.1l-0.3-0.5l0.8-1.3l0.2-0.6
	l0.2-1.2l0.4-0.1l0.6,0.6l0.7,0.2l0.4-0.1l0.5-0.6l0.2-0.6l-1,0l-0.2-0.3l-0.1-0.6l0.2-0.7l0.4-0.4l0.3-0.1l1.2-0.2l0.4-0.2l0-0.4
	l-0.3-0.3l-0.7-1.3l-0.4-0.4l-0.3-0.8l-0.5-1.7l-0.4-0.8l-0.2-0.7l0-1.4l-0.2-0.9l0-1l0.5-0.7l1.4-0.5l0.3-0.4l0.5-1.2l-0.3-1.3
	l-0.3-0.6l-1.1-0.2l-0.3-0.2l-0.2-1.2l-1-0.4l-1.2-0.1l-0.5-0.4l0.1-0.5l0.2-0.5l0.1-0.2l0.4-0.2l0-0.2l-0.3-1.5l0.5-0.3l0.4-0.1
	l0.8-1.2l0.3-0.2l0.1,0.1l0.2,0.7l0.2,0.4l0.4,0.2l0.6,0.1l0.4-0.2l0.6-0.8l0.2-0.3l0.2-0.7l0.2-0.3l0.3-0.1l0.5,0l0.8,0.5l0.4,0.1
	l0.4-1.3l0.2-0.9v-0.4l0.3,0l0.1,0.2l0.3-0.2l0.3,0.1l0.2-0.1l0.1,0.2l0.5-0.2l0.6,0.7l0.5-0.3l0.4,0l0.5,0.7l0.4,0.1l2-0.7l0.6-0.6
	l0.1-0.3l0-0.6l-0.2-0.2l0-0.6l0.2-0.1l0.3,0l0.9,0.6l0.3-0.1l0.2-0.2l0.1-0.4l-0.1-0.9l0.1-0.3l1.5-1.9l0.9-0.6l0.7-0.4l0.7-0.1
	l1.3,0.1l0.6-0.1l0.5-0.3l0.2-0.3l0.7-0.1l0.6,0.3l0.7,0.7l0.2,0.5l0.3,0.2l0.1-0.2l-0.1-0.8l0.1-0.3l0.4-0.3l0.3,1.1l0.2,0.2
	l0.4-1.8l0.4-0.3l-0.3-1.2l0.3,0.1l0.2-0.1l0.1-0.3l0-1.4l-0.3-0.1l0-0.2l0.2-0.6l-0.2-0.8l0.2-0.8l-0.1-0.4l0.3-0.4l0.1-0.1
	l0.1-0.8l0.6-0.2l0.1-1.3l0.3-1.3l-0.4-1.1l0.1-0.2l0.2-0.1l0-0.6l0.2,0.1l0-0.2l0-0.9l0.1-0.2l0.5-0.2l0.5-0.6l0.1-0.9l-0.1-0.6
	l0.6-0.7l0.2-0.5l0.4-0.2l-0.5-1.1l0-0.6l0.3-0.8l0.4-0.6l0.6-0.5l0.2-0.5l0-0.4l-0.2-0.4l0.1-0.2l0.3-0.2l0.1-0.9l-0.1-0.3l-0.3,0
	l0-0.2l0.2-0.1l0.6-0.4l0.3-0.1l0.1-0.3l0-1.7l0.2-1.1l-0.2-1.5l0.3,0l-0.1-0.5l0.5-0.2l0.1-0.2l0-0.3l-0.1-0.1l0.2-0.4l0-0.2
	l-0.3,0l0.4-1l0.2-0.8l-0.1-1.6L406,100l-0.4-0.2l-0.4-0.8h-0.3l-0.4,1.1l-0.5,0.5l-0.3-0.2l-0.2-0.6l-0.4-0.6l-1.2-0.1l-0.3,0
	l0-0.2l0.2-0.3l-0.2-0.7l0.5-0.3l-0.3-0.6l0.1-0.5l-0.4-0.1l-0.1-0.1l0.1-0.3l0.5-0.2l-0.4-0.5v-0.8l0.7-1.1l0.3-0.1l0.2,0.1
	l0.2-0.1v-0.2l-0.4-0.7l0.3-0.7l-0.3-0.6l-0.1-1l-0.2-0.5l-0.5-0.2l-0.3-1.3l-0.2-0.1l-0.5,0.3l-0.2-0.3l0.4-1l0.4-0.3l0.6-0.2
	l0.1-0.6l-0.4,0.1l-0.2-0.5l-0.3-0.2l0.2-0.5l0.2,0.3l0.2-0.1l0.4-0.4l0.4-0.2l0.4-0.5l0.2-0.7l1.1-2.3l0.7-0.8l-0.4-0.2l-0.2-0.7
	l-0.2-0.3l0.3-0.3l-0.1-0.5l0.5,0l0.1-0.2l0.1-1.4l-0.2-0.2l-0.6-0.1l-0.2-0.2L405,75l0.1-0.6l0.2,0.6l0.2,0l0.1-0.1l0.1-0.3
	l-0.2-0.4l0.6,0.1l0.5-0.2l0.1-0.2l0-0.6l0.4-0.7l0.3-1.6l1.5,1.2l-0.1,0.3l0.1,0.2l0.2,0.1l0.3,0.6l1,0.5l0.2-0.2l0.1-0.4l0.2-0.3
	l0.5-0.1l0.9-0.5l0.3,0l0.1,0.1l0.4,1l0.3,0.4l1.3-0.9l0.6-1.1l0.6-0.3l0.6,0.3l0.4,0l0.4,0.3l0.4,0.6l0.3,0.1l0.3-0.3l3,2.1
	l-0.9,1.7l0.6,1l-0.2,1.4l-0.1,1.2l0.3,2l1.3,0.4l1.4,0.2l-1,4.1l-1.4,2.9l-0.7,1.3l-0.9,0.8l-0.4,1.3l0.7,1.5l-0.9,1.5v1.5l1.4,2.9
	l1.1,0.6l-0.9,0.6v0.6l0.5,1.2l-0.2,1.2l-0.5,0.4l-0.2,1.2l-0.5,0.4h-1.2l0,0.5l1,2l-0.9,1.4l0.3,1.8l0,0.4l-0.6,0.6l-0.9,0.6
	l-0.2,0.5l0,0.6l0.2,1.1l-0.4,1.4l-0.4,0.5l-1.1,0.4l-0.5,0.4l0.2,1.1l0.2,0.4h1l0.6-0.3l0.9-0.1l0.5,0.2l1.1,0.9l0.6,0.9l0.9,0.5
	l0.7-0.4l0.4,0.5l0.5,0.3l0.4,0.7l2,0.7l1.4-0.6l1.1-1l0.7-0.4l0.7,2.1l0.5,1l0.7,0.6l0.9,1l-0.2,1.3l0.2,0.6l-0.2,1l0.4,0.6
	l-0.5,0.6l0.2,0.6l0.7-0.6l0.5-0.2l0.2-0.8l0.9-0.2l0.2-0.6l1.1-0.6l0.7-1.5v-1l0.9-1.2l0.7-0.2l1.3,0.7l0.4,1l1.1,0.4v0.6l-0.4,1.7
	l0.4,1l0.7,0.2l0.4-0.1l0.1,1.5l1.2,4.7l1.9,2.7l0.8,2.7l0.1,1.8l-1.4,2.8l-2.5,1.7l-1,2.2l-0.2,1.8l-0.4,1.5l-0.8,1.2v1.5l0.6,1.3
	v0.8l-0.1,1.2l-1.1,0.7l-1,0.5l-0.1,1.5l0.1,1.2v0.7v1.2l-1.1,2.5l-0.8,1.2l-2.8,0.5l-1.9,2.2l-2.9,2.2l-2.9,0.2l-2.9,1.2l0,0.3
	l-0.1,1.1l0.1,1.2l0.1,0.6l0.6,1.1l-0.3,0.2l-0.1,0.3l0.8,0.2l-0.3,0.6l0.3,0.6l-0.2,0.5l0.3,0.2v0.1l-0.5,0.2l-0.4,0.4l-0.3,0.6
	l0.3,0.6l0.1,0.6l0.1,1.6l-0.3,0.1l0.3,0.8l0.3-0.3l0.2,0.4l-0.2,1.4l0.1,0.7l-0.2,1.6l-0.6,0.2l0,1.4l0.2-0.2l0,2.4l0.1,0.7
	l0.6,2.4l-0.1,1.9l-0.2,0.5l-0.3,0.2l0.1,2.1l0,1.1l0.2,2.2l0,1.6l0.5,1.5l0.3,0.4l-0.1,0.9l-0.2,0.8l-0.1,0.6l0.3,0l-0.1,1.7
	l0.5,0.8l0.1,1.7l0.2,0.3l-0.1,0.7l0.3,1.4l-0.3,0.8l-0.5,0.6l-1.2,0.2l-0.5,0.7l-0.4,0.2l-0.6,0.9l-0.5,1.3l-2.8,0.3l-1.6-2.6
	l-0.5-1.5l-2.1-0.5l-1.9,1.9l-2.4,1.9l-2.8,2.9l-0.1,1.8l-1.2,1.5l-1.5-1l-0.4-2.3l-0.4-3.1l-1.1-2.9l-2.4-2.3l-2.7-2.1l-0.5-2.4
	l-0.6-2.9l-0.5-3.4l-0.4-1.6l-1.1-1.3l-0.9-0.6l-0.7,0.3l-0.1,1.6l-0.7,1.6l-1,0.8v1.8l0.2,2.1l0.8,1.8l1,1.5l0.4,1.5l-0.2,1.3
	l-0.6,1.3l-0.7,2.1v1.8v2.4v2.1l0.5,3.2l1.5,1.1l3.6,1.8l0.6,1.5v1.1l-0.6,2.3v1.6v1.1l0.4,1.8l0.6,2.3l1,2.1v1.3l-0.7,1.6l-1.1,1.6
	l-1.9,0.8h-2.1l-1.2-0.8l-1.7-1.8l-0.9-0.6h-1l-1.5-0.5l-1.2-1.5h-1.6l-0.9,0.8l-0.2,1.8l-0.1,1.9v2.1H380l-0.3-0.3l0.1-1l-0.4-1.1
	l0-0.4l0.3-0.2l0.1,0.1l0.2-0.1l0.1-0.2l-0.3-1.2l0.4-0.4l0.1-0.5l-0.1-0.4l0-1l0-0.4l0.1-0.1l0.1-0.3l-0.3-0.6l-0.1-0.8l-0.4-0.7
	l-1,0.2l-0.4-0.1l0.1-0.3l0.5-0.4l0-0.2l-0.2-0.4l0.1-0.6L377.9,241.4z"/>
<path id="Champhai" class="st0" d="M472.9,193.3l-0.4,0.7l-0.3,0.8l-0.4,1.2l-0.3,1.1l0,1.4v0.1l0.5,4.3l0.1,3.9l0.2,1l-0.2,1.1
	l-0.7,1.8l-0.4,0.4l0,1.3l0.4,1.4l0.1,1.3l0,1.1l0,0.6l-0.3,0.5l-0.4,0.7l-0.7,1.1l-0.6,1.2L469,221l0,1.1l0.1,0.9l-0.5,1.9l0.2,0.6
	l0.1,1l-0.1,1.3l-0.6,1.7l-0.2,1.7l-0.1,0.7l-0.2,1.6l0,1.2l-0.1,0.6l0.1,1.1l0.1,0.7l0.7,1.6l0.2,0.7l0.5,0.9l0.6,0.6l-1.2,0.7
	l-0.4,0.7l-0.6,0.9l0,1l0.3,0.6l-1.1,0.2l-1.7,0l-0.6,0.5l-0.5,0.3l-0.2,0.6l0.1,0.2l0.2,0.6l0.5,0.9l0.4,0.5l0.3,0.6l0.2,0.8
	l-0.2,1l-0.1,1.2l0,1.1l0.1,1l0.3,0.9l0.2,1.3v0.6l-0.4,0.5l-0.3,0.7l-0.1,1.3l0.3,1.7l0.1,1.3l0.6,1.9l0.6,1.6l0.8,1.8l0,0.8
	l-0.9,1.4l-0.1,1.5l-0.2,2.3l-0.5,2.2l-0.1,1.3l-0.3,0.6l-0.2,0.8l-0.3,1.4l0.6,1.1l0.5-0.2l1-0.5l0.5,0.6l-0.1,1l-1.4,1.8l-0.7,0.6
	l-0.5,0.2l-0.4,0.3l-0.5,0.6l-0.1,0.7v1.1l-0.1,0.5l0,0.5l-0.1,0.8l-0.6,0.7l-0.6,1l-0.2,0.7l0.9,0.4l0,0.4l-0.1,0.4l-0.5,1.3l-1,0
	l0,0l-0.5,1.5l-0.5,1.9l-0.5,1.3l-0.4,0.7l-0.7,1.1l-0.4,0.5l-0.7,0h-0.1l-0.4,0.6l-0.7,0.8l-0.5,0.9l-0.5,0.4l-0.2,0l-0.3,0.1
	l-0.6,0.1l-1.2-0.2l-0.6-0.8l-0.7-0.4l-1.1,0.6l-0.7,0.4l-0.7-0.5l-0.8-0.7l-0.4-0.6l-0.5-0.7l-0.3-0.9l-0.4-1l-1-2L445,297l-1-1.2
	l-0.6-0.2l-0.8-0.4l-0.4,0.3l-0.5,0.2h0v-2.6l-1.2-7v-2.9l-0.1-3.7l-0.8-1.8l-0.5-2v-1.5l-0.1-2.9l-0.6-2.5l-0.5-2.5l-0.8-1.4
	l-1.2-1l-2.5,0.1l-1.5,0.9l-2,0.2l-2.2,0.5h-2.1l-1.8-1.1l0,0l0.5-0.3l0.4-0.6l-0.6-0.5l-0.9-0.4l0-0.5l-0.4-0.4l0.2-0.6l-0.1-0.5
	l-0.5,0l-0.5-0.2l-1-0.6l-0.9-1.5l0-0.8l-0.2-0.6l-0.1-0.8l0.2-0.8l-0.1-0.5l0.1-0.5l0.4-0.4l0.4-0.7l2.1-2.1l0.3-0.5l0.3-1.7
	l0.3-0.6l0-0.6l0.2-0.6l0.3-0.4l0-1.1l0.4-1.1l0.5-0.8l0.2-0.7l-0.6-0.5l-1.4-2.9l0.2-3.4l-1.1-2.4l0.2-0.8l0.5-0.9l0.3-1l-0.6-0.5
	l-0.5-0.9l-0.1-0.9l0.2-1.5l0.2-0.3l-2-0.9l-1.3-1.5l0.2-0.6l0.5-0.9l0.1-0.2l0.5-1.3l0.6-0.9l0.4-0.2l0.5-0.7l1.2-0.2l0.5-0.6
	l0.3-0.8l-0.3-1.4l0.1-0.7l-0.2-0.3l-0.1-1.7l-0.5-0.8l0.1-1.7l-0.3,0l0.1-0.6l0.2-0.8l0.1-0.9l-0.3-0.4l-0.5-1.5l0-1.6l-0.2-2.2
	l0-1.1l-0.1-2.1l0.3-0.2l0.2-0.5l0.1-1.9l-0.6-2.4l-0.1-0.7l0-2.4l-0.2,0.2l0-1.4l0.6-0.2l0.2-1.6l-0.1-0.7l0.2-1.4l-0.2-0.4
	l-0.3,0.3l-0.3-0.8l0.3-0.1l-0.1-1.6l-0.1-0.6l-0.3-0.6l0.3-0.6l0.4-0.4l0.5-0.2v-0.1l-0.3-0.2l0.2-0.5l-0.3-0.6l0.3-0.6l-0.8-0.2
	l0.1-0.3l0.3-0.2l-0.6-1.1l-0.1-0.6l-0.1-1.2l0.1-1.1l0-0.3l2.9-1.2l2.9-0.2l2.9-2.2l1.9-2.2l2.8-0.5l0.8-1.2l1.1-2.5v-1.2v-0.7
	l-0.1-1.2l0.1-1.5l1-0.5l1.1-0.7l0.1-1.2v-0.8l-0.6-1.3v-1.5l0.8-1.2l0.4-1.5l0.2-1.8l1-2.2l2.5-1.7l1.4-2.8l-0.1-1.8l-0.8-2.7
	l-1.9-2.7l-1.2-4.7l-0.1-1.5l2-0.4l0.5,0.6l2.3,0.4l0.5-1.9l0.2-1l0.3-1l-0.4-1.2l0.2-0.4l0.4-0.4l1.2,0.4l0.7-0.4l0.7,0.2l2,2.1
	l0,0.8l0.3,1.2l-0.3,0.4H451l-1.2,4l0.5,0.8l-0.2,0.8l2.3-1.7l0.4-1l1.1-1l0.4-0.8h1.2l1.8-0.4l3.1,0.1l0.1,0.5l0.5,0.9l-0.8,0.3
	l-0.3,0.5l0.6,0.9l0.6,0.6l-0.5,0.9l-0.1,0.3l0.1,0.4l0,0.2l0.3,1.2l-0.1,1.6l0,0.1l0,1.1l-0.6,1.5l0.4,0.7l0.6,0.1l0.6,0.3l0.5,0.5
	l0.2,1l0.3,1.8l0.5,1.1l0.3,0.6l0.3,0.8l0.4,0.4l0.4,0.5l0.6,0.4l0.7,0.3l1.2,0.4l1,0.6l0.1,1L468,153l-0.2,1l-0.1,2.4l-0.1,1.9
	l0,1.8l0.1,1l0.1,1.2l0,0.9l0,1.3l0.1,1.6l0.4,0.9l-0.1,1.8l0.3,0.8l0.7,0.4l0.4,0.6l0.1,1l-0.1,1.5l-0.3,1.4l-0.4,2.5l0,1l0.1,1.2
	l0.2,1l0.4,1.2l0.5,0.8l0.1,0.8l0.3,1l-0.2,0.9l-0.1,0.7l0.1,0.8l0.2,1l0.3,0.6l0.5,0.7l0.8,0.5l0.9,0.8l0.3,0.7l0.3,0.6l0.4,1
	l-0.5,0.7L472.9,193.3z"/>
<path id="Kolasib" class="st0" d="M372.2,146.8l-0.9-0.6l0-0.6l0.7-2.8l0.8-1.2l-0.2-0.8l0-0.4l0.1-0.4l0.2-0.3l0-0.6l-1-0.9
	l-0.2-0.4l0.3-0.7l0-0.8l0.1-0.6l0.3-0.5l0-0.4l0.3-0.5l0.6-0.2l0.1-0.1l0.1-0.2l-0.6-0.3l-0.4-0.6l-0.3-0.1l-0.2,0.1l-0.1,0.2v0.4
	l0.2,0.6l-0.5-0.1l-0.2-0.3l-0.4-1.1l-0.1-1.1l-0.2-0.5l-0.4-0.1l-1.2,0l-1.1-1.8l-0.5-0.1l-0.2-0.2l-0.1-0.2l0-1.6l-0.3-0.2l-1.2,0
	l0,0.2l0.4,0.9l0,0.3l-0.5,0.8l0,0.5l0.1,1.6l-0.3,0.6l-0.4,1.2l-0.3-0.2l-0.5,0l-0.2-0.1l0.6-2l-0.7-0.1l0-0.7l-0.1-0.4l-0.3-0.2
	l-0.2,0l-0.3,0.5l-0.1,0.5l-0.1,1.7l0.1,0.7l-1,1l-0.3,0.1l0-0.7l-0.3-1.6l0.1-0.7l0.1-0.4v-0.7l-0.2-0.9l0.4-1.6l0.1-0.7l0-0.4
	l-0.3-2.1l0.2-0.6l0-0.7l-0.3-1.7l0.6-1.8l0.2-0.2l0-0.2l-0.7-0.1l0-0.2l0.2-0.4l0-0.5l0.4-0.5l0.3-0.7l0.1-0.5l-0.2-1l-0.3-0.6
	l-0.1-0.4l-1.4-1.4l0-0.5l0.4-0.2l0.5-0.8v-0.9l-0.5-0.4l0.1-0.1l-0.2-0.4l0.8-2.2l-0.2-0.6l0.1-0.3l0.5-0.7l0.1-0.7l0-0.6l0.4-0.9
	l0.2-0.7l0-1.2l-0.1-0.5l0-0.5l0.2-0.9l0.2-0.4l1-0.3l0.7-0.4l2.1,0.8l0.8,0.1l0.4-0.2l0.3-0.4l0.3-0.1l1.2,0l0.2-0.2l0.5-0.5
	l0.2-0.4l0.3-1.3l0-1.1l0.1-0.8l0.3-1l0-0.9l0-0.2l-0.2-0.2l0-0.4l0.2-1.4l0-0.8l0.2-0.7l0-0.5l0.5-1.5l0-1.7l0.1-0.3l0.2-0.3
	l0.6,0.2l0.6-0.4l0.2,0l0.1,0.2l-0.2,0l0,0.2l0.3,0.2l0.1,0.3l0.1,0.2l0.5,0.2l0.1-0.3l-0.1-0.4l0.5,0.5l0.1-0.1l-0.1-0.3l0.3,0.1
	l0-0.4l0-0.4l0.5-0.6l0.1-0.4l0-0.3l0.1,0l0.3-0.3l0.2,0.3l0.1-0.1l0.1-0.5l0.1,0.2l0.2-0.1l1-0.7l0.6,0.3l0.5,0.1l0-0.4l0.5-0.3
	l0.3-0.5l0.1-0.3l0-0.9l0.3-0.2l0-0.2l-0.1-0.5l0.2-0.3l0.2-0.7l0.2-0.2l0.5,0l0.2-0.2l-0.1-1.2l0.5-0.5v-0.9l0.8-2.1l0-0.4l0.1-0.2
	l-0.1-0.3l0-0.4l0.1-0.3l0.4-0.3l0.7-3.3l0.8-2.8l1.6-3.6l0.6-2.3l0.2-0.5l0.1-0.5l0.4-1.1l-0.1-1l0.7-0.8l0.7-1.2l0.1-0.3l1.7,5.7
	l0.4,1.9l0.3,0.6l0.2,1.2l0.5,1.3l0.5,2l0.5,1.6l0.3,0.4l0.3,0.8l0.2,0.7l0,0.2l-0.5,0l0.1,0.4l0.4,0l0.4-0.2l0.3,0.1l-0.1,0.4
	l0.1,0.3l0.2,0l0,0.3l0.7,0.2l0.2-0.1l0.4,1l0.4,0.4l0.7,0.4l0.1,0.2l0,0.2l-0.6,1l-0.2,0.5l0,0.3l0.4,0.5l0,1l0.1,0.3l0.5,0.2
	l0.9-0.7l0.6,0.2l0.3-0.4l0.3-0.6l0.3-1l0.3-0.3l0.6-0.7l0.5-0.2l1.1,0.4l0.3,0l0.5-0.3l0.8-0.7l0.5,0.2l0.3-0.1l0.1,0.1l0.3,1.1
	l0.2,0.2l0.2,0.4l-0.1,0.3l-0.1,0.1l-0.2,0l-0.2-0.6L405,75l-0.5,1.1l0.2,0.2l0.6,0.1l0.2,0.2l-0.1,1.4l-0.1,0.2l-0.5,0l0.1,0.5
	l-0.3,0.3l0.2,0.3l0.2,0.7l0.4,0.2l-0.7,0.8l-1.1,2.3l-0.2,0.7l-0.4,0.5l-0.4,0.2l-0.4,0.4l-0.2,0.1l-0.2-0.3l-0.2,0.5l0.3,0.2
	l0.2,0.5l0.4-0.1l-0.1,0.6l-0.6,0.2l-0.4,0.3l-0.4,1l0.2,0.3l0.5-0.3l0.2,0.1l0.3,1.3l0.5,0.2l0.2,0.5l0.1,1l0.3,0.6l-0.3,0.7
	l0.4,0.7v0.2l-0.2,0.1l-0.2-0.1l-0.3,0.1l-0.7,1.1v0.8l0.4,0.5l-0.5,0.2l-0.1,0.3l0.1,0.1l0.4,0.1l-0.1,0.5l0.3,0.6l-0.5,0.3
	l0.2,0.7l-0.2,0.3l0,0.2l0.3,0l1.2,0.1l0.4,0.6l0.2,0.6l0.3,0.2l0.5-0.5l0.4-1.1h0.3l0.4,0.8l0.4,0.2l0.3,0.8l0.1,1.6l-0.2,0.8
	l-0.4,1l0.3,0l0,0.2l-0.2,0.4l0.1,0.1l0,0.3l-0.1,0.2l-0.5,0.2l0.1,0.5l-0.3,0l0.2,1.5l-0.2,1.1l0,1.7l-0.1,0.3l-0.3,0.1l-0.6,0.4
	l-0.2,0.1l0,0.2l0.3,0l0.1,0.3l-0.1,0.9l-0.3,0.2l-0.1,0.2l0.2,0.4l0,0.4l-0.2,0.5l-0.6,0.5l-0.4,0.6l-0.3,0.8l0,0.6l0.5,1.1
	l-0.4,0.2l-0.2,0.5l-0.6,0.7l0.1,0.6l-0.1,0.9l-0.5,0.6l-0.5,0.2l-0.1,0.2l0,0.9l0,0.2l-0.2-0.1l0,0.6l-0.2,0.1l-0.1,0.2l0.4,1.1
	l-0.3,1.3l-0.1,1.3l-0.6,0.2l-0.1,0.8l-0.1,0.1l-0.3,0.4l0.1,0.4l-0.2,0.8l0.2,0.8l-0.2,0.6l0,0.2l0.3,0.1l0,1.4l-0.1,0.3l-0.2,0.1
	l-0.3-0.1l0.3,1.2l-0.4,0.3l-0.4,1.8l-0.2-0.2l-0.3-1.1l-0.4,0.3l-0.1,0.3l0.1,0.8l-0.1,0.2l-0.3-0.2l-0.2-0.5l-0.7-0.7l-0.6-0.3
	l-0.7,0.1l-0.2,0.3l-0.5,0.3l-0.6,0.1l-1.3-0.1l-0.7,0.1l-0.7,0.4l-0.9,0.6l-1.5,1.9l-0.1,0.3l0.1,0.9l-0.1,0.4l-0.2,0.2l-0.3,0.1
	l-0.9-0.6l-0.3,0l-0.2,0.1l0,0.6l0.2,0.2l0,0.6l-0.1,0.3l-0.6,0.6l-2,0.7l-0.4-0.1l-0.5-0.7l-0.4,0l-0.5,0.3l-0.6-0.7l-0.5,0.2
	l-0.1-0.2l-0.2,0.1l-0.3-0.1l-0.3,0.2l-0.1-0.2l-0.3,0v0.4l-0.2,0.9l-0.4,1.3l-0.4-0.1l-0.8-0.5l-0.5,0l-0.3,0.1l-0.2,0.3l-0.2,0.7
	l-0.2,0.3l-0.6,0.8l-0.4,0.2l-0.6-0.1l-0.4-0.2l-0.2-0.4l-0.2-0.7l-0.1-0.1l-0.3,0.2l-0.8,1.2l-0.4,0.1L372.2,146.8z"/>
<path id="Lawangtlai" class="st0" d="M400.6,459.9l-0.3,0.1l-0.7,0.4l-0.5-0.2v-0.8l-0.4-0.6l-0.6-0.7l-0.5,0l-0.9-0.5l-0.7-1.8
	l-0.4-0.9l-0.8-0.4l-0.9-0.8l-1-0.7l-0.8-0.4l-0.7,0l-0.7-0.2l-0.1,0l-0.4-0.2l-0.1-0.1l-0.5-0.7l0.1-1.2l-0.6-0.5l-1.8-1l-1-0.5
	l-0.7-0.5l-0.6-1.8l-1.8-0.5l-1.2-0.1l-0.6,0l-0.4,0.7l-0.1,0.2l0.2,1.6l-0.1,2.6l-0.1,0.7l-0.2,3.1l0,2.2l-0.1,0.9l-0.4,0.6
	l-0.3-0.6l-0.1-2.3l-0.1-2l-0.4-0.4l-0.3,0.7l0.1,2.2l0.1,1.1l0,0.6l0,0.9l0.1,1.1l0,1.1l-0.1,0.8l0,1.4l0.4,1.5l-0.1,0.9l-0.2,0.5
	l0,0.3l0,0.4l-0.1,0.8l-0.4,1l-0.4,0.6l-0.5,0l-0.7-0.1l-1-0.1l-0.5,0.1l-1.2,1.9l-0.6,0.9l-0.4,1l-0.4,0.6l-1,0.6l-0.1,0l-1.4,0.5
	l-0.7,0.2l0-0.3l0,0l-0.3,0.8l-0.1-0.4v-0.6l-0.1-0.2v0l0.2-0.1l0.1-0.2l0.1-0.4l0-0.3l0.1-0.2l0-0.2l-0.2-0.3l0-0.1l0-0.2l0-0.2
	l0-0.1l-0.1,0l-0.1-0.2l-0.3,0l-0.1,0v-0.1v-0.1l-0.2-0.3l-0.2-0.2l0-0.1l-0.1-0.4l-0.3-0.3v-0.1l-0.1-0.4l-0.1-0.1v0l0-0.1l0,0
	l0.2-0.2v-0.2l0-0.2l0.1-0.3l0.1-0.3l0.1-0.4l-0.1-0.4l0-0.6l-0.2-0.1l0,0l-0.1-0.1l-0.1-0.1v0v-0.2l-0.3-0.1l-0.1,0l0-0.1l-0.1-0.2
	v-0.4l0-0.3l-0.1-0.5l0.1-0.1l0.7-0.1l-0.1-0.3V463v-0.2l0.1-0.2l0.2-0.6v-0.5l0-0.3l0-0.2l0.1-0.2l0,0l0.1-0.1l0-0.1l0,0l-0.1,0.1
	h0l-0.3,0l-0.3-0.1l-0.1,0l-0.1-0.1l-0.1-0.2l-0.2-0.3l-0.1-0.4l-0.2-0.4l0.1-0.2l-0.1-0.5l-0.1-0.2l0.1-0.3l0-0.2l0-0.3l-0.2,0
	l-0.1,0l-0.3-0.1l-0.2-0.1l0-0.4l0-0.1l-0.1-0.1l-0.1-0.1l-0.1-0.1l0,0l0.1-0.3l0-0.2l-0.3-0.2l0-0.1l0.1-0.1l-0.1-0.3l0-0.2l0-0.3
	l-0.2-0.3l-0.1-0.2l-0.2-0.3l-0.1-0.1l0-0.2l-0.1-0.1l-0.1-0.4l0-0.2l0-0.2l0-0.2l-0.1-0.2l0.1-0.5l0-0.2l-0.2-0.2l-0.2-0.4
	l-0.4-0.4l-0.2-0.3l-0.2-0.1l-0.2-0.2l-0.1-0.4l0.1-0.3l-0.1-0.1l0.1-0.3l0-0.2l0.2-0.2l0.1,0l0.1-0.1h0.1l0.3,0l0.7,0l0.1-0.3
	l-0.2-0.4l0.3-0.4l0-0.1l0-0.1l0.1,0.1l0.3,0.2l0.3,0.1l0.3,0.1l0.2,0l0.4,0.2l0,0l0.2,0.3l-0.3,0.6l-0.1,0.1l-0.2,0.2l0,0.2
	l0.2,0.3l0.1,0.1l0.2,0.3l0.1,0.2l0.3,0.2l0.4,0.2l0.1-0.1l0.3,0.1l0.3,0l0.1-0.2l0.1-0.2l0.1-0.4l0-0.3l0-0.4l0-0.1l0.1-0.2
	l0.2-0.1l0.1-0.4l0-0.1l-0.1-0.1l-0.1-0.4l0-0.4l-0.1-0.4l0-0.4l0-0.4l-0.1-0.3l0-0.4l0-0.4l-0.1-0.3l0.1-0.1l0.1-0.5l-0.2-0.2
	l-0.2-0.1l0.1-0.3l0-0.1v-0.4v-0.2l-0.1-0.1h-0.2l0,0.1l0,0l-0.1,0.1l-0.4-0.2l-0.4-0.3l-0.3-0.2h-0.2l0.2-0.2l0-0.1l-0.1-0.2
	l-0.1,0l0,0v0v-0.3l-0.1,0l0,0l0.1-0.3l0,0l0.2-0.1l-0.2,0l0.1-0.2l0-0.2l-0.1-0.4v-0.1l0-0.1l0.1-0.1l-0.2-0.5h0.1l-0.1-0.2
	l-0.1-0.3l-0.1,0.1l0,0l0-0.2l0-0.1l0.1-0.1l-0.1-0.5l0-0.1l0,0l0.1-0.4l-0.1,0v-0.5l0-0.2l-0.1-0.1l0-0.1l0-0.1l-0.1,0v-0.1
	l-0.3-0.3l0.2-0.1l-0.1-0.1l-0.4-0.3l0.1-0.3l-0.1-0.1l0.3-0.4l0-0.3l-0.1-0.2l-0.1,0.1l0-0.1l0.2-0.2l-0.1-0.2l0.1-0.2l-0.1-0.3
	l0-0.1l0.1,0l0.2,0l-0.1-0.2l0.1-0.1l-0.2,0l0,0l0.1-0.2l0.1-0.1l0.1-0.1l-0.2-0.1l0,0l0-0.1l0-0.2l0.1-0.1l0.1-0.1l0-0.2l0-0.1
	l-0.1-0.6l0,0l0.1-0.1l0-0.3l-0.2-0.1l-0.1,0l0.1-0.1l0.1-0.2l0-0.1l-0.1-0.2l0-0.3l0.1-0.1l0-0.1l0-0.1l0,0l0.1-0.1l0-0.1l0-0.2
	l-0.2,0.1l0,0l0-0.1l0-0.2l-0.1,0l-0.1,0l-0.1-0.2l0-0.1l0,0l-0.1,0.1l0-0.1l0-0.1l0.2,0l-0.2-0.2l-0.1-0.1l0.1-0.3l0-0.2l0.2,0.1
	l-0.2-0.2l-0.1-0.4l-0.4-0.3l0.2-0.2l0.1-0.4l-0.1-0.2l-0.2,0.1l0-0.2v-0.2v0l0.3,0l0-0.2l0.2,0.1l0.2,0l-0.2-0.1l-0.1-0.2l0-0.1
	l0.1-0.1l0.1,0l0.1-0.1l-0.1-0.1l-0.1-0.2l-0.3,0l0-0.3l0.1-0.1l0.2,0l0-0.1l-0.1-0.2l-0.3-0.1l0.2-0.2l-0.1-0.2l-0.1-0.2l0.2-0.1
	l0-0.6l0-0.3l0-0.3l0.1-0.1l-0.2-0.2l0.1-0.3l-0.1,0l0,0l0-0.1l0,0l0,0l0.1,0l0,0l0.2-0.2l-0.2,0.1l-0.1,0l-0.1,0l0-0.1l0-0.2
	l-0.1,0l0,0l0.1-0.1l0,0l0-0.3l-0.3-0.2l-0.2-0.1l0,0l0-0.2l0.1,0.1l0.1-0.1l0,0l0,0L366,419l0.2-0.3l0,0l-0.1-0.1l-0.2-0.2l0.1-0.2
	l0.1-0.1l0.1-0.1l-0.1-0.2l0.2-0.1l-0.3-0.3l0.2-0.1l0-0.2l-0.2,0l-0.2,0h0v0l0-0.2l0-0.5l0-0.3l-0.2-0.1l0.2-0.1l0.1-0.1l-0.2-0.2
	l0,0l0,0l0.2-0.1l-0.1-0.2l0.1-0.1l-0.1-0.1l0,0l-0.1,0.1l-0.1-0.1l0.1-0.3l0-0.1l0-0.3l-0.2,0l0,0l0-0.3l0-0.2l-0.1,0l0,0l0-0.2
	l0.1-0.1l0-0.2l0-0.4l-0.1-0.4l-0.1-0.5l0.1-0.3l0-0.1l-0.2-0.2l-0.2,0l-0.1-0.1l0-0.1l-0.2-0.6l0.1-0.3l-0.1-0.2l-0.1-0.4l-0.5-0.1
	l0.1-0.4l0.1-0.3l-0.1-0.1l-0.1,0l-0.1,0l0-0.1l0-0.2l0.1-0.1l0-0.1l0.1-0.3l-0.5-0.3l0-0.1l0.1-0.2l0.1-0.2l-0.2-0.4l0.2-0.2
	l-0.1-0.1l-0.1-0.1l-0.1-0.2l0.2,0l-0.2-0.4l0.2-0.3l0-0.1l-0.3-0.2l-0.1-0.2l0.2-0.2h0.2h0v0l0.1-0.3l-0.2-0.1l-0.1,0l0,0l0-0.1
	l-0.1-0.2l-0.1-0.1l-0.1-0.1l0.1-0.2l0.2-0.1l0-0.1l0-0.1l-0.1-0.1l-0.3-0.2l-0.1,0.2l-0.1,0l-0.1,0l0.1-0.3l-0.1-0.3l0-0.1l0,0l0,0
	l-0.1-0.2l0.2-0.2l0.1-0.1l-0.1-0.2l-0.1-0.2l-0.2-0.2l0,0l-0.1-0.3l0.1-0.1l0.2,0.1l0.1-0.1l0,0l0.1,0.1l0.1-0.4h-0.2l0-0.4l-0.1,0
	l-0.1,0.1l-0.1,0l-0.1-0.1l0.1-0.1l0.2,0.2l0.1-0.1l0.1-0.1l-0.1-0.6l-0.2-0.2l0.1-0.4l-0.3-0.3l0.1-0.1l-0.1-0.4l0.1-0.3l-0.2-0.1
	l-0.1-0.1l0-0.2l0.1-0.2l0.1-0.1l-0.1-0.1l-0.1-0.2l0.2-0.1l-0.1-0.4l0-0.2l0-0.3l-0.2-0.1l-0.1-0.1l-0.1-0.1l0.1,0l0.1,0l0.1-0.1h0
	l-0.2-0.1l0-0.1l0.1,0l-0.2-0.4l0-0.1l-0.1-0.1l-0.1-0.1l0-0.1l0-0.2l0.1-0.2l-0.2-0.2l-0.1-0.3v-0.4l0.1-0.4l0.1-0.2l0-0.2
	l-0.1-0.1l0-0.2l-0.1-0.2l-0.1-0.2l0-0.2l0-0.3l0,0l-0.1,0l0.1-0.5l0.1-0.1l-0.1-0.2l0.1-0.2l-0.2-0.1l-0.1-0.1l0.1-0.2l0-0.1
	l-0.1-0.1l0-0.1l0.1-0.3l0.3-0.1l0.1,0l0.2-0.1l0.1,0l0-0.2v-0.3l-0.1,0l-0.4,0h-0.3l0,0l-0.1,0l0-0.2l0.1-0.2l0.1,0l0.1,0.1l0,0
	h0.1l0.1-0.1l0-0.1l0-0.1l0-0.1l0.1,0l0.1,0.1l0,0l0.1,0l0,0l0-0.1l0-0.1l0,0l0,0l-0.2,0l0,0l0,0l0-0.1l0.1-0.1l0,0l0.1-0.2l0,0
	l0-0.1l0-0.1l0-0.1l0.1,0l0.1,0.1l0.1,0l0-0.2l0-0.3l0,0l-0.1,0l-0.1,0h-0.2l-0.1,0l0,0v-0.1l0,0l0.2-0.1l0.2-0.1l0.1-0.1l0,0l0-0.1
	l0,0v-0.1l0,0l-0.1-0.1l-0.1,0l-0.2-0.1l0,0l-0.1,0l0-0.1l0-0.2l0,0l0,0l-0.1,0.3l-0.1,0.3l-0.1,0l-0.1-0.1l0,0l0-0.1l0-0.2l0-0.1
	l0.1-0.1l0.1-0.1l0-0.1l0-0.1l-0.1-0.2l-0.1-0.3l-0.1,0l-0.1,0l0,0l0-0.1v0l0-0.1l0-0.2l0.1-0.1l0.1,0l0,0l-0.4-0.2l0,0l0.1-0.1l0,0
	l0,0l-0.2-0.1l0-0.1l0,0l0.1,0l0.1,0l0.2,0l0-0.1l0-0.1l0-0.1l0-0.1l0-0.1l0,0l0-0.1l0-0.1l0,0l0-0.1l0-0.1l-0.2,0.1l0,0l0,0l0-0.2
	l0-0.1l0-0.1l0.1-0.1l0,0l0-0.1l-0.1-0.1l0.1-0.3l0-0.1l-0.1-0.1l-0.1,0l-0.1,0l-0.1,0l0-0.1l0-0.2l0-0.1l0-0.1l0-0.1h-0.1l-0.1,0
	l-0.2,0.1l-0.3-0.2l-0.1-0.1l0.1-0.3l0.1-0.4l0-0.2l0-0.1l0-0.1l-0.2-0.4l-0.3-0.3l-0.2-0.1l-0.1,0l-0.2,0l-0.1-0.1l-0.1-0.1
	L359,378l0.3-0.2l0.5-0.8l0,0l0-0.2l0-0.5l0-0.4l0,0l0-0.1l0.2,0l0.2,0.1l0.2,0.2l0.1-0.1l0,0l0-0.4l0.1-0.1l0.1,0l0.1-0.1l0.1,0.1
	l0.1,0v-0.3l-0.2-0.3l0,0l0,0l0.1-0.2l0-0.1l0-0.3l0-0.1l0-0.3l0,0l0.1-0.2l-0.1,0l-0.1,0.1l-0.1,0l-0.2,0v0l-0.2-0.1l-0.1-0.1v0
	v-0.1l0-0.1l0.1,0l0.3,0.3l0.2-0.2l0.2-0.3l0,0h-0.1H361l-0.2,0l-0.1-0.3l0,0l0.3-0.2l0.1,0l0-0.1l-0.2-0.3l0-0.3l-0.1-0.2l0-0.1
	l0-0.1l-0.4-0.4l-0.2-0.2l0-0.1l0-0.3l0-0.5l0-0.1l0.4,0.3l0.1-0.2l0.1-0.1l0,0l0-0.2l0-0.2l-0.4,0l-0.3-0.5l0-0.1l0-0.1l0,0l0-0.1
	l0-0.3l0.1-0.2l0-0.1l0,0l-0.1,0l-0.2,0h0v-0.1l0.1-0.3l0.1-0.1l0.1-0.2l0.3-0.3l0-0.2l0-0.2l0-0.3l0-0.1v-0.1h0l-0.3,0l-0.4,0
	l0-0.2v0l0.2-0.1l0,0l0,0l-0.1-0.2l0-0.1l0-0.2l0-0.1v-0.1l-0.2,0l0,0l0-0.1l0-0.3l0-0.1l0-0.3l-0.1-0.3l0-0.4l0.1-0.2l0,0l0,0
	l0.2,0.1l0,0l-0.1-0.6l-0.2,0l-0.1-0.2l0.1-0.6v0l0,0l0.2,0l0.1,0l0.1,0l0,0l0,0l0-0.1l-0.2,0l0-0.2l0.2-0.6l0-0.1l0-0.1l-0.1,0
	l-0.2,0.1l-0.1-1.1v0l0-0.1l0-0.1l-0.2-0.1l-0.2-0.1h0l0-0.1l0,0l0-0.1l0-0.1l0.1-0.3l0-0.3l-0.2-0.4l-0.1-0.1l0,0l0-0.1v-0.1
	l-0.1-0.3l-0.2-0.4v0l0-0.9l-0.2-0.8l-0.1-1l-0.1-0.5l-0.1,0l-0.1,0v0l-0.1-0.2l0-0.2l0.1-0.2l0.1-0.2l-0.1-0.3l-0.2-0.8l-0.4-0.9
	l-0.4-1.2l-0.4-0.5l0.2,0l0.3,0l0.4-0.1l0.1,0l0.3-0.7l-0.5-0.6l0.3-0.7l0.5-0.4l0.3-0.9l0.8-0.8l0.3,0.2l0.3,0.2l1.4-0.2l0.8,0.5
	l0.5,0.8l1.3,1.2l1.2,2.2l0.9-0.5l0.4-0.6l0-1.2l0.4-0.7l0.5,0.3l0.7,2.9l0.5,0.1l-0.1,0.3l0.2,0.7l0.4,0.4l0,1.3l-0.2,1.3l0.3,1.5
	l0.4,1l0.5,0.5l0.2,1l0.4,0.3l0.5-0.5l0.4,1.7l0.7,0.6l0.6,0l0.1,0.7l-0.3,0.5l0,0.5l0.8,0.4l0.5,0.6l0.3,0.7l0.5,1.8l0.1,1
	l-0.2,0.5l0,1.6l1.5-0.5l0.4,0l1.6-0.8l1.1,0l1.5,0.7l0.1,0.6l-0.4,1.6l0.2,1.9l0.3,0.9l1.5,1.1l0.3,0.4l0.2,0.8l0.6,1.2l0.6,0.7
	l2.5,2.1l0.4,0.8l1,0.9l0.1,1.3l0,2.2l0.8,3.2l0.2,0.5l0.6,0.1l0.8-0.7l0.1,0.4l0.3,0.2l0.3-0.1l-0.2-2.6l-0.3-0.8v-1.4l0.1-0.5
	l0.2-0.2l0.3-1.3l1.1-1.5l0.8-0.7l0.1-0.8l0.6-1.7l0-1.2l-0.3-1l-0.1-0.8l-0.5-2l0.1-0.8l-0.1-0.4l0.9-0.4l0.2-0.8l-0.2-0.6l0-0.9
	l0.6-1l0.6-0.1l1.1,0.4l0.4-0.1l1.4,0.3l1,0.6l0.5,0.7l0.1,0.6l0.8,1l0.7,0.7l0.4,0.6l0.8,0.6l0.8,1.3l0.7,0.9l2-0.4v0.2l0.5,1.3
	l0.1,0.9l0.5,3l0.5,1.1l0.6-0.1l1.4-0.8l0.7-0.8l-0.1,0.7l0.5,0.9l0.3,0.9l0.1,1.6l-0.6,5.2l0,2.7l0.5,1.2l0.8,1.3l0,0.8l-0.5,0.7
	l0.1,3.2l0.3,1.3l0.4,2.8l0.4,1.1l0.2,1.1l0.9,0.6l0.6,0l0.3,0.7l-0.5,2.5l-0.7,0.8l-1.7-0.5l-0.3-0.6l-0.2-0.8l0.6-0.8l-0.9-1
	l-0.5,0l-1.2,1l-0.5,0.8l-0.9,0.8l-1.5,2l-1.7,1.3l-0.3,0.4l-1,2.2l-0.8,2.7l-0.4,0.6l-1.3,0.6l-1.1-1.6l-0.6-0.2l-1.4-0.3l-0.5,0.5
	l-0.1,0.8l0.5,1l0.1,0.9l-0.2,0.8l0.3,1.5l0.9,1l0.4,1.1l-0.3,1.3l-0.4,0.8l0.3,0.8l0.1,0.9l-0.3,1.5l0.1,1.1l0.4,1.4l0.1,1.3
	l0.2,2.7l-0.1,1.6l0.1,1.9l-0.1,1l0.2,1.2l0.2,3.6l0.3,2l0,1l0.2,1.3l-0.3,1.8l0,1.5l0.3,1.6l0,1.6l0.2,1.2l-0.1,1.2l0.2,1.2
	l0.3,0.5L400.6,459.9z"/>
<path id="Lunglei" class="st0" d="M431.3,340.4l-1.4-1.2l-0.4-0.5l-0.6-0.4l0.2-0.7l0.4-0.5l0.3-0.6l-0.6,0.1l-0.7,0.2l-1.1,0.7
	l-0.8,0.4l0,1l-0.9,0.4l-1.3-0.3l-1.7-0.4l-0.1,0.7l-0.2,1.4l-0.5-0.1l-0.6,0l-0.2,0.7l-0.5,0.5l-0.4,0.5l0.2,0.9l-0.4,0.9l0,1
	l-0.4,0.5l-0.8-0.1l-1.1,0l-0.4-0.4l-1-0.3l-1.5-2l-1-1.8l-2.3-1.5l-1.1-0.1l-0.9,0.1l-0.2,0.2l0.1,1.3l0.6,0.1l0.1,0.6l-0.7,0.8
	l-0.6,1.2l-0.1,4.6l0.1,1.4l0.1,0.9l1.6,1.5l0.4,1.2l-0.5,3.7l0.1,1.1l0,2.4l1,3l1.3,2.1l0.4,0.9l-0.4,1.4l0.3,2.9l-0.6,1.2l0.2,1.1
	l-0.1,2.2l-0.6,1.9l-0.5,0.8l-0.8,0.8l-0.7,0.8l-1.4,0.8l-0.6,0.1l-0.5-1.1l-0.5-3l-0.1-0.9l-0.5-1.3v-0.2l-2,0.4l-0.7-0.9l-0.8-1.3
	l-0.8-0.6l-0.4-0.6l-0.7-0.7l-0.8-1l-0.1-0.6l-0.5-0.7l-1-0.6l-1.4-0.3l-0.4,0.1l-1.1-0.4l-0.6,0.1l-0.6,1l0,0.9l0.2,0.6l-0.2,0.8
	l-0.9,0.4l0.1,0.4l-0.1,0.8l0.5,2l0.1,0.8l0.3,1l0,1.2l-0.6,1.7l-0.1,0.8l-0.8,0.7l-1.1,1.5l-0.3,1.3l-0.2,0.2l-0.1,0.5v1.4l0.3,0.8
	l0.2,2.6l-0.3,0.1l-0.3-0.2l-0.1-0.4l-0.8,0.7l-0.6-0.1l-0.2-0.5l-0.8-3.2l0-2.2l-0.1-1.3l-1-0.9l-0.4-0.8l-2.5-2.1l-0.6-0.7
	l-0.6-1.2l-0.2-0.8l-0.3-0.4l-1.5-1.1l-0.3-0.9l-0.2-1.9l0.4-1.6l-0.1-0.6l-1.5-0.7l-1.1,0l-1.6,0.8l-0.4,0l-1.5,0.5l0-1.6l0.2-0.5
	l-0.1-1l-0.5-1.8l-0.3-0.7l-0.5-0.6l-0.8-0.4l0-0.5l0.3-0.5L373,360l-0.6,0l-0.7-0.6l-0.4-1.7l-0.5,0.5l-0.4-0.3l-0.2-1l-0.5-0.5
	l-0.4-1l-0.3-1.5l0.2-1.3l0-1.3l-0.4-0.4l-0.2-0.7l0.1-0.3l-0.5-0.1l-0.7-2.9l-0.5-0.3l-0.4,0.7l0,1.2l-0.4,0.6l-0.9,0.5l-1.2-2.2
	l-1.3-1.2l-0.5-0.8l-0.8-0.5L360,345l-0.3-0.2l-0.3-0.2l-0.8,0.8l-0.3,0.9l-0.5,0.4l-0.3,0.7l0.5,0.6l-0.3,0.7l-0.1,0l-0.4,0.1
	l0-0.1l-0.1-0.1l-0.2-0.3l0,0l-0.1,0.1l-0.2,0.2l0,0l-0.3-0.1l-0.2-0.3l-0.3,0l-0.2,0l0,0l0-0.4l-0.4,0.2l-0.1-0.6l0-0.2l-0.2-0.1
	l-0.8-0.1l-0.2,0.1l-0.5,0.2l-0.2-0.1l-0.1-0.1l0-0.1l0.2-0.3l0.2-0.3l0.1-0.1l0.1-0.4l-0.1,0l-0.2,0l-0.1-0.4l0,0l0.1-0.1l-0.1-0.3
	l0,0l-0.1,0L353,345l0.1-0.2l0.2-0.6l-0.1-0.1l-0.1,0l-0.2,0l0-0.1l0-0.2l0.1-0.2l0-0.1l0.2-0.5l0-0.4l-0.1-0.2l-0.1-0.2l-0.1-0.1
	l0-0.9l-0.1-0.2l-0.1-0.2l-0.2,0.2l-0.1,0.1v-0.8l0.2-0.4l0.1-0.8l0.1-0.2l-0.1-0.4l-0.1-0.1l-0.3-0.2l0,0l-0.3-0.6l0-0.1l0.1-0.1
	l0.2-0.4l0-0.2l-0.2-0.3l-0.2-0.2l-0.1,0.1l0,0.6l-0.1,0l-0.1,0l-0.1-0.9l-0.2-0.8l0.1-0.2l0-0.1v0l0,0l-0.5,0l0-0.2l0.1-0.2
	l0.2-0.1l0.1-0.1v0l0.1,0l0-0.1l-0.2-0.1l-0.1-0.1l0.1-0.1l0.2-0.2l0.3-0.3l0.1-0.1l0.2-0.2l0,0l-0.2-0.4L351,332l-0.6-0.7l0-0.1
	l0.1-0.1l0.1,0l0.1,0.1l0.3,0.3h0.1l-0.1-0.1l0.5-0.3l0.2,0.1l0-0.1l-0.6-0.4l0.1-0.1l0-0.3l0.1-0.5l-0.4,0l0.2-0.4l0.1,0l0.1,0
	l0.2,0.1l0.2-0.1l0,0l0.1-0.3l-0.1-0.2l0,0l-0.4-0.2l-0.1-0.1l0.1-0.2l0.2-0.2l0,0l0,0l-0.1-0.1l-0.1,0l-0.5,0.1l-0.1,0l-0.3-0.1
	l-0.1-0.3l0-0.4l0.2-0.4l0-0.1l0.1-0.3l0.1,0l0.1,0l0,0l0.1-0.2l-0.2-0.2l-0.1,0l-0.6-0.3l-0.3-0.2l-0.1-0.1v-0.1v0l0-0.1l0-0.7
	l0.1-0.6l-0.1-0.1l-0.1-0.6l0-0.5l-0.2-0.2l0,0l0,0l-0.2,0.3l-0.2,0.2l0,0.1l-0.1,0.1l0,0.1l-0.1,0.2l-0.1,0.3l-0.1,0l-0.1,0h0l0,0
	l-0.1,0.1l0,0.1l0,0l-0.2,0l0,0l-0.1-0.1v0l0,0l-0.3-0.5l0-0.7l-0.4-0.4l-0.1-0.1l-0.4-0.9l0,0l-0.3-0.8l0-0.1l0-0.1l-0.2-0.7
	l0.2-0.7l0,0l-0.1-0.2l-0.1-0.1l-0.1,0.1l-0.3,0.5l-0.1,0.2l-0.4,0.1l-0.1,0l-0.2-0.2l-0.1-0.1l-0.2,0l-0.2,0l-0.1-0.1l0-0.1l0,0
	l0-0.1l0,0.1l0,0.4l0,0.1l-0.1,0.3l-0.2,0l-0.1-0.1l-0.2-0.3l-0.1-0.5l0-0.1l0.2-0.3l0-0.1l0.2-0.5l-0.1-0.1l0,0l-0.1-0.1l-0.3-0.6
	l-0.2-0.2l-0.1,0l-0.2,0l-0.1,0l-0.2,0l-0.1,0.1l-0.1,0l-0.4,0.1l-0.1,0l-0.2,0l-0.3,0l-0.1,0l-0.1,0l-0.1,0l-0.4,0.1l0-0.1l0,0
	v-0.1l0.1-0.2l-0.2-0.3l0-0.2v-0.1l-0.1,0l-0.2,0l-0.1-0.2l0-0.1l0,0l0.4-0.1l0,0l0,0v-0.1v0l-0.3-0.5l0.1-0.1l0-0.1l0-0.4l0.1-0.4
	l0-0.2h0.1l0,0.1l0.1,0l0-0.1l0-0.1l-0.1-0.2l-0.1-0.1l0.1-0.1l0.2-0.2l0-0.6l-0.1-0.1l-0.1,0.1l-0.1,0.2l-0.1,0.1l0-0.6l-0.2-0.3
	l0.2-0.1l0.3-0.1l-0.1-0.1l-0.2-0.1l-0.1-0.1l0-0.1l0.1-0.1l0.1-0.1l-0.1-0.3l0-0.2l-0.1-0.6l0.2-0.4l0.2-0.3l0-0.2l0.1-0.3l0.1,0
	l0,0.2l0-0.2l0.1-0.4l0,0l-0.1,0l0,0l0-0.2l0.1-0.1l0.1-0.1l0.3-0.5l0.2-0.2l0-0.1l-0.1,0l-0.1,0l-0.1-0.1l0,0l-0.1,0l0-0.1v0V307
	l0-0.1l0-0.1l0-0.1l0-0.1l0,0l0.1-0.1l0,0l0.1-0.1l0-0.1l-0.1-0.2l0-0.1l-0.1-0.3l-0.1-0.2l0,0l-0.1-0.1v-0.3l0-0.2l0-0.1l0,0l0.1,0
	l0.1-0.2l0-0.2l0-0.2l0-0.1V304l-0.1-0.2l0-0.1l0.1,0l0.1-0.1l-0.1-0.1l-0.1,0l-0.1,0l0,0l-0.1,0l-0.1-0.1l0-0.2l0,0v0l0,0l0.1-0.2
	l0-0.2v0v-0.3l0-0.2l0.1-0.3l0-0.2l0-0.1l0.1-0.1l0.1-0.1l0-0.1l0,0l0-0.1l0-0.1l0,0l0.1-0.1l0-0.1l0-0.1l0.1-0.1l0.1-0.1l-0.1-0.3
	l-0.1-0.2l0-0.1v-0.2v-0.1l0-0.1l0-0.1l0-0.1l0.1-0.2l0-0.2l0-0.1l0-0.2l0.3-0.2l0.2-0.1l-0.1-0.2l0,0l0-0.1l0.1-0.5l0.1-0.2l0-0.3
	l0-0.1l-0.1-0.1l0-0.1l0.1,0l0.2,0l0-0.1l0,0l-0.2-0.3l0-0.1l0.1,0l0-0.1l0-0.1l0-0.1l-0.2-0.1l0,0l0-0.1l0,0l0.2-0.2l-0.1-0.3
	l-0.1-0.4l-0.2,0l-0.1,0l-0.1-0.1l0-0.1l0.1-0.2l0,0l0.1-0.1l-0.1-0.1l-0.1-0.1l0-0.1l0-0.1l0,0l-0.2-0.2l-0.1-0.2l0-0.1l-0.2-0.4
	l0-0.1l0.2-0.2l0,0l0-0.3l0-0.2l-0.1-0.2l-0.2-0.2l-0.1-0.1l0,0l-0.1,0l-0.1-0.1l0-0.1l0-0.1l-0.2-0.2l0-0.1l0.1-0.1l0.1-0.1l0-0.1
	l-0.1-0.1l-0.1,0h0l-0.1,0l0,0.1l0,0.2l-0.1,0.1l-0.1,0l-0.1-0.1l-0.1-0.2l0,0l0,0h0l-0.1,0v-0.1l0-0.2l0,0l-0.1,0l-0.1-0.1l0-0.1
	l-0.1-0.2l0-0.2v0l0,0l-0.1-0.1l0-0.1l0-0.2l0-0.1l0.1-0.2l0-0.1l-0.1,0l-0.2,0.1l-0.1-0.2l-0.1-0.1l-0.1,0l-0.1,0l-0.1,0.1
	l-0.1-0.1l-0.1,0l0.1-0.3l0-0.1l0,0l-0.2-0.1l0.1,0l-0.1-0.2h-0.2l0-0.1l0.1-0.1l0,0l0.1-0.1v-0.2l-0.2,0.1l0,0l0,0l0.1-0.4l0.2-0.4
	l0.1-0.3l-0.1-0.1v-0.1l0,0l0.3-0.4l0-0.1l0-0.1l-0.1-0.1l0,0l0,0l0,0l0.2-0.3l-0.1-0.1l0.1-0.1l0.2-0.3l0-0.1l-0.1-0.1l0-0.1l0-0.1
	l0.1,0l0,0l0.1-0.3l0-0.1l-0.3,0.1l0,0l-0.1-0.2l-0.3-0.3l-0.1-0.1l0,0.1l-0.1-0.1l-0.1-0.1l-0.2-0.2V283l-0.1-0.1l-0.1,0l0.1-0.2
	l0-0.1l0-0.1l0-0.1h0h0.1l0.1-0.3l0-0.3l0-0.1l0.1,0l0,0l0-0.2l0,0l0,0l0-0.2l0.1-0.1l0.1-0.1l0-0.1l-0.1-0.1l-0.1,0.1l-0.1,0l0-0.1
	l0.1-0.2l0,0l0.1-0.1l0-0.1l-0.1-0.1l0,0l0.1-0.1l0.1-0.1l-0.1-0.2l0-0.1l0-0.1l0.1,0l0.1,0l-0.1-0.1l0-0.1l0-0.3l0.1,0v-0.1h0.2
	h0.1l-0.2-0.3l0-0.3l-0.1-0.2l-0.1-0.1l0.2-0.5l-0.1-0.3l0-0.1l-0.3-0.2l-0.1-0.3l0-0.1l0-0.1l0-0.4l-0.1-0.3v-0.2l0-0.1l0.1-0.1
	l-0.1,0l-0.2-0.1l0.1-0.1l0,0v-0.1v0l0.2,0.1l0.1,0l0.2-0.1l0,0l0.1,0l0-0.1l0.1-0.3l-0.1,0l0-0.2l-0.2-0.1l-0.1,0l0-0.1l-0.1,0
	l-0.2-0.1l0,0.1l-0.3,0l0-0.2l-0.1,0l0.1-0.2V274l-0.1-0.1l0.1-0.2l-0.1-0.1l0-0.1l-0.1-0.1l0.1-0.2l0-0.2h0h0l0-0.1l0,0l0.1,0
	l0-0.1l0,0l0-0.1l0.1-0.1l0-0.2l0.1-0.2l-0.2-0.1l0.2-0.1l-0.1-0.2l0-0.1l-0.1-0.1l0-0.1l0,0l0.1,0v-0.1l-0.1,0l0-0.1l0,0l0,0l0,0
	l0,0l0,0l0,0l0-0.1l-0.1,0l0.1-0.1l0-0.1h0.1h0l0,0.1l0.1-0.1l-0.1-0.4l0-0.1l0-0.1l0-1l-0.1-0.9v-0.4l0-0.1l0-0.1l-0.2-0.6l0-0.2
	l-0.1-0.3v-0.1l0-0.4l0-0.1h0l-0.2,0l-0.2-0.1l-0.1-0.2l0.4,0l1.4,0l0-0.2l0.2-0.2l0.2,0l0.4,0l0.2-0.1l0.4-0.1l0.1,0l0.4,0l0.2,0
	l0.6,0h0.2l0.2,0l0.1,0h0.3l0.1-0.1l0.2,0l0.1,0l0.6,0l0.1,0l0.1,0l0.1,0l0.4-0.1l0.4-0.1l0.2,0v-0.6l-0.1-0.3l-0.1-0.3l0-0.3l0-0.2
	l0-0.5l-0.2-0.4l-0.2-0.1l-0.2-0.2l-0.1-0.2l0-0.1l-0.1-0.2l-0.1-0.2l-0.1-0.2l-0.1-0.1l0.4,0l0.2,0.2l0-0.2l0.3,0l0.3,0.3l0.6-0.4
	l0.1,0.2l0,0.2l0.1,0.2l0.4,0.2l0.5,0.7l0.5,0.1l0-0.4l-0.4-0.4l0-0.1l1-0.4l0.9-1.5l0.8-0.5l0.1-0.2l0-0.4l-0.5-0.4l0-0.4l0.7-0.1
	l0.5-0.1l0.6,0.1l0.3-0.3l0.4-1.8l0.4-1v-0.3l0.4-0.5l0.3-1.7l0.1-0.1l0.7,0.2l0.3-0.2l0.1-0.5l-0.3-0.9l-0.2-2.5l-1-1.2l0.2-0.3
	l0-0.9l0.7,0.5l-0.2-1l-0.3-0.5l-0.6-0.2l-0.1-0.2l0.2-0.4l0.2-0.8l0-0.3l-0.2,0l-0.1-0.9l0.6-0.8l0.2-0.7l0.2-0.1l1.2-0.1l0.5,0.4
	l0.4,0.7l0.7,0.3l0.6-0.4l0.1-0.4l0-0.6l0.2,0.3l0.3,0l0.1,0.2l0.7,0.6l0.5,0.8l1,0l1.1-0.2l0.6,0.3l0.6-0.2l0.8-0.1l0.6,0.2
	l0.1,0.1v0.3l0.2-0.1l0.8,1.1l0.7,0l0.2-0.4l0.2-0.8l0.2-0.2l1.3,0.2l1-0.8l0.2-0.5l0.2-1l-0.3-1.8l0.5-0.6l1.2,0.6l0.2,0.7l1.3,0.4
	l0.5,0.8l0.2,0.7l0.3-0.2l0.6,0.1l0.5-0.7l0.8-0.2l0.5,0.5l0.1,0.7l0.5,0.3l1.6,0.2l0.7-0.1l0.4,0.1l0.5-0.4l0.7,0.6l-0.1,0.6
	l0.2,0.4l0,0.2l-0.5,0.4l-0.1,0.3l0.4,0.1l1-0.2l0.4,0.7l0.1,0.8l0.3,0.6l-0.1,0.3l-0.1,0.1l0,0.4l0,1l0.1,0.4l-0.1,0.5l-0.4,0.4
	l0.3,1.2l-0.1,0.2l-0.2,0.1l-0.1-0.1l-0.3,0.2l0,0.4l0.4,1.1l-0.1,1l0.3,0.3l0.3,0.4l-0.1,0.5l-0.2,0.1l0.1,1.1l-0.2,0.5l0,0.6
	l0.2,0.9l-0.2,0.8l0.1,0.1l0.4,0l-0.2,0.9l0.3,0.7l0.2,1.4l-0.1,2.1l-0.1,0.6l0,0.3l0.2,0.5l-0.1,0.5l0.2,2.5l0.3,0.9l1.3,1.5l0,0.6
	l-0.5,1.1l0.4,0.1l-0.1,0.4l0.4,0.4l0.9,0.2l0.7-0.1l0.1-0.2l0.1-0.4l0.1-1.8l0.3-0.8l-0.2-1.1l0.2-0.8l-0.2-1l0-0.5l-0.2-1.2
	l0.1-0.3l1.4,0.2l0.2,0.3l0.3,0.8l0.5-0.3l0.5,0.2l0.5-0.1l0.2,0.1l0.2,0.2l0.2,0.8l1-0.7l0.2-0.3l0.6-0.1l0.8,0.8l0.4,0.3l0.9-0.6
	l1.5,0.7l1.8,0.1l0.2-0.1l0.2-0.3l-0.1-0.9l0.1-0.9l0.2-0.3l0.4,0l0.2-0.2h0.3l0.9-0.5l0.4,0.2l0.2,0.5l0.2,0.3l0.7,0.2l0.3,0.2v0.2
	l0,0.2l0.1,0l-0.1,0.4l0.1,0.4l-0.1,0.3l0.2,0.6l0.4,0.3l0.1,0.2l0.3,0.2l0.4,0.6l0.2,0.7l-0.4,2.5l0.1,0.5l0.4,1l0.1,0.4l0.6,1.2
	l0,0.4l0.1,0.2l0.6-0.3l0.3,0.5l0.4,0.4l0.8,0.1l0.4-0.1l1.3-1.5l0.5,0.1l0.9-0.1l0.6-0.5l0.6-0.3l0.5-1.4l0.3,0.3l0.1,0.3l0.3,0.1
	l0.5,0.1l0.5-0.2l0.3,0l0,0.7l-0.1,0.3l-0.1,0.8l0.2,0.8l0.3,0.3l1.1,0l0.2,0.4l0.5,0.1l0.2,0.2l0.4,1.3l-0.3,1l0.4,0.6l-0.2,1.1
	l0.2,0.2l-0.1,0.9l0.3,0l0.1,0.3l-0.2,0.4l-0.1,2.3l0.3,0.2l0.6,0l0.1,0.6l2.1,1.1l0.4,0.7l0.2,0l0.3,0.5l0.3,0l0.1,0.5l0.6,0.3
	l0.9,0.9l1.9,1.4h0.7l0.8-0.3h0.8l0.5,0.6l0.1,0.5l-0.3,0.7l-0.1,3.4l0.5,0.6l1.9,0.3l2.4,1.4l0.4,0.3l-0.2,0.4l0.2,0.5l1.5,0.5
	l2.9,2.6l1.1,1.1l-0.1,0.9l0.5,0.8l0.5,0.3l0.6,0.1l0.3,1l0.3,1.2l0.1,0.8l-0.2,0.8l-0.5,0.4l0,0.7l0.5,0.5l0.3,0.8l0.4,1.1l0.1,1.4
	l0.1,1.8l0.5,0.6l0.6,0.4l0.5,0.3l0.3,0.6l-0.2,0.5l-0.4,0.3l-0.1,0.1l-0.5,0l-0.8,0.1h-0.8l-0.9,0l-0.4,1l0.4,1.2l-0.1,1.1
	l-0.1,0.6l-0.2,1.2l-0.3,1.2l-0.4,0.9l-0.8,0.6l-0.3,0.5l-0.1,1.3l0.1,1.9l-0.1,1l-0.5,0.8l-0.1,0.2l-0.5,0.5l0.2,1l0.4,0.1l0.1,0.1
	l0,0.8l-0.2,0.2l-0.6,0.4l-0.6,0.2l-0.6,0.2l0.4,3l0.1,0.6L431.3,340.4z"/>
<path id="Mamit" class="st0" d="M377.9,241.4l-0.5,0.4l-0.4-0.1l-0.7,0.1l-1.6-0.2l-0.5-0.3l-0.1-0.7l-0.5-0.5l-0.8,0.2l-0.5,0.7
	l-0.6-0.1l-0.3,0.2l-0.2-0.7l-0.5-0.8l-1.3-0.4l-0.2-0.7l-1.2-0.6l-0.5,0.6l0.3,1.8l-0.2,1l-0.2,0.5l-1,0.8l-1.3-0.2l-0.2,0.2
	l-0.2,0.8l-0.2,0.4l-0.7,0l-0.8-1.1l-0.2,0.1v-0.3l-0.1-0.1l-0.6-0.2l-0.8,0.1l-0.6,0.2L360,242l-1.1,0.2l-1,0l-0.5-0.8l-0.7-0.6
	l-0.1-0.2l-0.3,0l-0.2-0.3l0,0.6l-0.1,0.4l-0.6,0.4l-0.7-0.3l-0.4-0.7l-0.5-0.4l-1.2,0.1l-0.2,0.1l-0.2,0.7l-0.6,0.8l0.1,0.9l0.2,0
	l0,0.3l-0.2,0.8l-0.2,0.4l0.1,0.2l0.6,0.2l0.3,0.5l0.2,1l-0.7-0.5l0,0.9l-0.2,0.3l1,1.2l0.2,2.5l0.3,0.9l-0.1,0.5l-0.3,0.2l-0.7-0.2
	l-0.1,0.1l-0.3,1.7l-0.4,0.5v0.3l-0.4,1l-0.4,1.8l-0.3,0.3l-0.6-0.1l-0.5,0.1l-0.7,0.1l0,0.4l0.5,0.4l0,0.4l-0.1,0.2l-0.8,0.5
	l-0.9,1.5l-1,0.4l0,0.1l0.4,0.4l0,0.4l-0.5-0.1l-0.5-0.7l-0.4-0.2l-0.1-0.2l0-0.2l-0.1-0.2l-0.6,0.4l-0.3-0.3l-0.3,0l0,0.2l-0.2-0.2
	l-0.4,0l0.1,0.1l0.1,0.2l0.1,0.2l0.1,0.2l0,0.1l0.1,0.2l0.2,0.2l0.2,0.1l0.2,0.4l0,0.5l0,0.2l0,0.3l0.1,0.3l0.1,0.3v0.6l-0.2,0
	l-0.4,0.1l-0.1-0.2l-0.4,0.1l-0.3-1.4l-0.2,0l0.2-0.4l0.1-0.5l-0.5-0.4l-0.6-0.2l0-0.4l0-0.1l-0.1-0.5l0-0.1l0,0l0.1,0l0.1,0.2
	l0,0.1l0.2,0.1l0.2,0l0.1-0.1l0-0.3l-0.1-0.1l-0.2-0.6l-0.2-0.7l-0.1-0.4l0-0.3l-0.1-0.2l-0.1-0.2l-0.2-0.2l-0.1-0.1l-0.2-0.1
	l-0.1,0l-0.4-0.2l0.1-0.5l0.1-0.4l0.1-0.1l0.1,0l0.1-0.1l0,0v0v0l-0.3-0.6l0.1-0.1l0.1-0.2l-0.2-0.5l0-0.1l0.2-0.1l0.1-0.2l0-0.4
	l-0.1-0.2l-0.2-0.1l-0.1-0.1l-0.3-0.2l-0.6-0.5l0.1-0.9l0-0.1l-0.1-0.1v0l-0.1,0.1l0,0.1l-0.1-0.2l-0.1,0.1l-0.1,0l-0.1,0.1
	l-0.1,0.1h-0.1l-0.1-0.1l-0.2-0.5l0-0.1l-0.1-0.2l-0.1,0l-0.1,0.1l0.2,0.5l0,0.2v0l0,0.2l-0.1,0l-0.2-0.5l-0.2-0.4l0-0.1l0-0.1
	l0.1-0.1l0.3-0.2l0-0.1v0l0.3-0.7l0.2-0.2l0.1-0.3l0.1-0.2l0.1-0.3l0-0.2l0-0.4l0-0.4l0.1-0.7l0.2-0.3l0.3-0.3l0.2-0.3l0-0.3l0-0.3
	l-0.1-0.1l-0.1,0l-0.2-0.1l-0.1,0l-0.1,0V246l0.1-0.1l0.1-0.1l0.1-0.2l0.1-0.2l0-0.1l-0.2-0.2l0,0l0-0.1l-0.1-0.1l-0.1-0.1l0,0v0
	l-0.1,0l-0.2,0l-0.3,0l-0.2-0.2l-0.2,0l-0.2-0.1l-0.1,0l-0.1,0.1l-0.2,0.1l-0.3-0.1l-0.2-0.2l-0.1-0.1l-0.1-0.2h0l0,0l-0.2-0.5
	l0-0.1l0.1-0.2l0.3-0.2l0.1-0.2l0.1-0.1l0.1-0.1l0.1-0.1l0.1-0.1l0.1-0.1l0,0l0-0.1l0-0.1l-0.1,0l0,0l-0.2,0l-0.1,0l-0.1,0l-0.2,0
	l-0.2,0.1l-0.1,0.1l0,0l-0.3-0.1l-0.1-0.1l0-0.1l0-0.3l0.2-0.2l0.2-0.1h0.1l0.1-0.1v-0.1l-0.1-0.3v-0.1l0-0.1l0.1-0.1l0,0l0.1,0
	l0.1-0.2l0-0.1l0-0.1l-0.1-0.1h-0.1l-0.1,0.2l-0.1,0.3l-0.1,0l0,0l0-0.1l0-0.2l0-0.1l0-0.1l0-0.2l0-0.2l0-0.2l0-0.1l0-0.1l0-0.1
	l0-0.3l0-0.2v-0.2l0-0.2l0-0.2V238l0.1-0.1l0.1,0.1l0,0.1l0.1,0.2v0.1l0,0.1v0.3l0,0.1l0.1-0.1l0.1-0.3l0.1-0.2l0.1-0.1l0-0.1l0-0.1
	l0-0.2l-0.1-0.5v-0.1l0,0l-0.2-0.2l-0.1-0.1l-0.1-0.1l-0.2-0.1l-0.1,0l-0.1,0l-0.3,0.1l-0.1,0l0-0.1l0-0.3l0-0.6l0-0.2l-0.1-0.3
	v-0.2l0.1-0.1l0-0.1l0-0.2l0-0.2l0-0.1l-0.1-0.2l0-0.1l0-0.1l0-0.1l0.1-0.1l0-0.2l-0.1-0.1l0-0.1l-0.1,0l0,0H337l0,0l-0.1-0.1
	l-0.1-0.2l0-0.1l0,0h-0.1l-0.2,0.2l0,0l-0.1,0.1l-0.1,0.3l-0.1,0l-0.1,0l0,0l-0.2-0.2l0,0l0,0.1l0,0.4l0,0.1l0,0.1l0,0.1l0,0.1
	l-0.1,0l-0.1-0.1l-0.1-0.1v0l0-0.2l0-0.4l-0.1-0.5l0-0.1l-0.1-0.2l-0.1-0.3l0.1-0.3l0-0.3l0-0.1l0-0.2l0-0.2v-0.1l-0.1-0.3l-0.1-0.1
	l-0.1,0l0,0l-0.1,0l0,0l0-0.1v-0.1l0.1,0h0v0l0.1-0.4l0.2,0l0.1-0.1l0.1-0.1l0.1-0.2l0-0.2l-0.1-0.1l-0.1,0l0,0l0,0.3v0l-0.1,0.2
	l-0.2-0.1l0,0l0,0l-0.1-0.1l0-0.1l-0.1-0.2l-0.1-0.1l-0.2-0.2l0-0.1v0l0.1-0.1l0.2,0l0.1,0.1l0.1,0l0.1,0l0-0.1l0,0l0.1-0.7
	l-0.1-0.3l-0.1-0.1l-0.1,0l-0.1,0.1l-0.1,0.1l-0.1-0.1l0,0l0-0.1l-0.1,0l-0.6-0.3l-0.2,0l-0.1-0.1l0,0l-0.1-0.1l-0.1-0.1l0.1-0.1
	l0-0.1l0.1,0l0-0.2l0.2-0.2l0,0.1l0,0.1l0,0l0.2,0l0.1,0h0.1l0,0l0,0l0-0.1l0-0.1l0-0.1l0-0.2l0-0.1l-0.1-0.2l0.1-0.1l0.1,0.1
	l0.1,0.1l0.1,0l0-0.1l0.1-0.1l-0.1-0.1l0,0l-0.1-0.1l-0.1,0h-0.1h0l0,0l-0.1-0.1l0,0l0.1-0.2l0,0l0-0.1L334,225l-0.1-0.1l-0.2-0.1
	l-0.2-0.1l-0.1-0.1l0-0.1l0-0.1l0.1-0.1l0.1-0.1l0.1-0.1l0.1-0.1l0.2-0.1l0.1,0l0-0.2l0-0.1l-0.1,0l-0.1,0l-0.2,0l-0.1-0.1l-0.1-0.2
	v0l0.1,0l0.1,0l0.2,0v-0.2l0-0.2v-0.1l-0.1-0.3l-0.1-0.2l0-0.1l0,0l0,0l0.1,0l0.3,0l0-0.1l-0.3,0l-0.2-0.3l0.1-0.3l0-0.3l0-0.2
	l0.1-0.2l0-0.3v-0.3l-0.1,0h0h0l-0.1,0.1l-0.2,0.1l-0.1-0.3l0.1-0.1l0,0l0.3-0.1l0-0.1l0-0.1l-0.1-0.2l-0.1,0l-0.1,0.1l-0.1,0.3
	l-0.2,0l0,0l0-0.1l0.1-0.1l0-0.1l0-0.1l-0.1-0.2l0-0.1l0-0.1l0.1-0.1l0,0l0.4-0.4l0.1-0.1l0-0.2l-0.1-0.2l-0.1-0.4l-0.2,0l-0.1,0
	l0-0.1l0-0.2l0-0.2l0-0.1l0-0.1l0,0l0,0l-0.1,0h0l-0.3,0.2l-0.1,0l-0.2-0.1l-0.2-0.2l-0.1-0.2l0.1-0.1l0.1-0.4l0.1-0.5l0.1-0.1
	l0.2-0.1l0-0.1l0-0.1V215l0.1-0.2l0-0.1v-0.1l0-0.1l-0.1-0.2l-0.1-0.1l-0.1-0.1l0-0.2l0.2-0.7l0,0.1l0,0.1l0.1,0.2l0.1-0.1l0-0.2
	l0-0.3l-0.1-0.4l0-0.2l-0.2-0.3l-0.2-0.1l0-0.1l-0.1-0.1l0-0.2v0l0-0.2l0-0.1l0.1,0.2l0.1,0l0.1-0.2l0-0.7v0l0-0.2l0-0.1l-0.1,0
	l-0.1,0l0,0l-0.1,0l0,0.1l0.1,0.1l0,0l0,0.1l-0.1,0.1l-0.1-0.2l0-0.2l-0.1-0.4l0-0.1l0.2-0.3l0-0.1l0-0.1l0.1-0.1l-0.1-0.2l-0.1-0.1
	l0-0.1l0-0.2l0-0.1l0-0.1l-0.1-0.1l-0.1,0l0,0l-0.1,0l0,0.1l0,0l0-0.1l0-0.3l0,0l0-0.2l-0.1-0.1l-0.1-0.1l-0.1-0.1v0l0,0l-0.2-0.3
	l0-0.1l-0.1-0.2l0,0.1l0,0.2l-0.1,0.3l0,0l-0.2-0.3l-0.1-0.4l-0.1-0.1l0,0v-0.1l0,0l0-0.1l-0.1,0l-0.1,0l-0.1,0l-0.1-0.1l-0.1-0.2
	l-0.1-0.1l-0.1-0.1l0,0.1l0,0.4l-0.1,0.1l-0.1-0.1v0l0.1-0.8l0-0.2l0.1-0.2l-0.1-0.3l0.1-0.3l-0.1-0.5l0.1-0.2l-0.1-0.2l0-0.2l0-0.2
	l0-0.2l0-0.1l0-0.1l0.1-0.2l0.1-0.1l0.1-0.1l0.1,0l0.2-0.1l0.1-0.1l0.3,0l0.1,0l0-0.1l-0.1-0.1l-0.1-0.3l-0.4-0.6l-0.1-0.1l-0.1,0.2
	l-0.2-0.1l-0.1,0l-0.1,0l-0.1-0.1l0-0.2l-0.3-0.2h0l-0.1-0.1l0,0l-0.1,0.1l-0.1,0.1v0.2l0.1,0.3v0.1l0,0.1l0,0.1l-0.1,0l-0.1-0.1
	l0-0.3l0-0.1l-0.1-0.3l0-0.2l0-0.2l0-0.1l0.1-0.1l0,0l0.1-0.2l0.1-0.1l0-0.1l0-0.1l0-0.1h0.1l0.1,0.1l0.1-0.1l0-0.2l0-0.2l0,0
	l-0.2-0.1l-0.2-0.2l-0.1-0.1l-0.3-0.2l-0.2,0.1l0,0l0-0.2l0-0.2l0-0.1l0.1-0.4l-0.1-0.1l0.1-0.4l0.2-0.3l0.1-0.2l0-0.1l0-0.1l0-0.1
	l0-0.2l0-0.2l0.2-0.3l0.1-0.3l0-0.2l0-0.1l0.1-0.1h0.1h0.1l0,0l0-0.4l0.1-0.1l0-0.2v-0.1l0-0.2l0.1-0.3l0-0.1l0.1-0.2l0-0.2l0.1-0.1
	l0.2-0.4l0-0.1l0-0.1l0-0.1v-0.3l0.1-0.2l0.1,0l0.1,0l0,0l0-0.1l-0.1-0.1l0-0.1l0-0.2l0-0.2l-0.1-0.2v-0.2l0.2-0.6l-0.2-0.3l0-0.4
	l-0.1-0.1l0-0.4v-0.1v0l0-0.1l0-0.1l0.1-0.1h-0.1l-0.1,0l0-0.1l0-0.1l0-0.1l0-0.1l0,0l0,0l-0.1,0h-0.1l0-0.1l0-0.1h0l-0.1,0
	l-0.1-0.1v-0.1l-0.1-0.1l0-0.1l0-0.2l0-0.2l0-0.1l-0.1,0.1l0,0l0,0l0-0.1l-0.1,0l-0.2-0.2l0,0l0.1-0.1l-0.1,0l-0.1-0.1l-0.1,0l0,0
	l0-0.1l0-0.1l0,0l0-0.1l0,0v-0.1l0,0l-0.1-0.1l0-0.1l0-0.1l0-0.1l0.1,0l0-0.1l-0.4-0.9l0-0.1l-0.9-1l-0.1-0.1l0,0l-0.2-1.7l0.2-2.9
	v0l-0.1-0.9l0-0.1l0.1-0.6l0-0.6l-0.5-3.6l0-1.3l-0.1-0.9l-0.2-0.4l-0.1-1.3h0l1.2-0.5l0.9,0.4l0.3-0.2l0.2,0.2l0.4-0.2l0.3,0.1
	l0.1-0.2l-0.1-1l-0.3-0.2l0-0.1l-0.3-0.3v0l0.1-0.8l-0.6-1l0,0l-0.1-0.5l-0.2-0.3l0-0.3l0.1-0.9l0.2-0.6l1.1-0.8l0.1-0.2l0.2-0.7
	v-0.6l0.5-0.8l0.2,0l0.1,0l0.2,0.2l0,0.8l0.7-0.2l0.4,0.4h0l0.4,0l0.3,0.2l0.7-0.1h0l0.5-0.3l0,0l0.1-0.1l0,0l-0.3-0.2l0-0.1
	l0.4-0.3l0,0v-0.6v0l0,0l-0.2-0.6l-0.2,0.1l-0.2-0.2l0,0l0-0.3v0l-0.1,0l0-0.3l0,0l0.1-0.1l0.3,0.1l0-0.4l-0.1-0.3l0.1-0.2l-0.1-0.2
	l0,0l0.1,0h0l0.1,0.1l0.1-0.2l0.1,0l0,0l0.2-2.1l0,0l0,0h0l0.2,0h0l0.2-0.3l0.3,0.1l0.1-0.4l0,0v0l0.1-0.7l-0.2-1.2l0.2-0.4
	l-0.1-0.3l-0.2-0.2l-0.8-0.3h0l-0.4-0.7l-0.6-0.7l-0.1-1.1l0.1-0.3l-0.3-0.4l0.2-2l-0.1-0.5h0l0.2-0.1l0,0l-0.1-1.5l0.1,0l0.2-0.1
	l0-0.2l0.3,0l0.2-0.5l0.3,0l0.1-0.8l0,0l0.2,0.1l0.2-0.6l0.1-0.1l0.2-0.2l0-0.2l0-0.1l-0.2-0.2l0,0l0.4-0.4l-0.2-2l0-0.4l-0.3-0.4
	l-0.9-1.8l0-0.2l0.2-0.1l0.2,0.2l0.1-0.2l0,0l-0.4-0.6l0.1-0.5l-0.3-0.4l0,0l0.3-0.4v-0.2l-0.6-0.6l0.1-0.1l0.3-0.3l0-0.3l-0.3-0.9
	l0-0.6l0.2-0.4l0.3,0.2l0.2-0.2l0-0.2l-0.2-0.8l0.4-0.2l-0.3-0.4l0-0.1l-0.2-0.8l0.2-0.3l0,0l0.1-0.1l0.2,0.2l0.2-0.2l0-0.4v0
	l0.1-0.2l0.5-0.2l0-0.3l-0.5-0.1v-0.1l0,0l0.6-0.5l0,0l0.1-0.3l-0.1-0.5v0l0.1-0.7l-0.1-0.8l0.3-0.4l0,0l0-0.1l0.1-0.3l-0.4,0
	l0.2-0.4l0,0l0-0.3l0.4-0.4v-0.2v0l-0.4-0.6l0.3-0.2v0l0-0.2l-0.4-0.4l0-1.5l0.3-0.6l0,0l-0.3-0.2l0,0l0.1-0.3l-0.1-0.6l0-0.6
	l0.1-0.2l0.4-0.1v-0.6l0.1,0l0.1,0l0,0l0.2,0.1l0.1-0.1l0.1-0.4v0l-0.3-0.7l-0.3-2.1l-0.3-0.1l-0.1-0.3l0.2-1.4l0-0.9v0l0.1-0.3
	l-0.1-0.5l-0.4-0.2l0.3-0.3l0,0l-0.1-0.1l0.1-0.3l-0.6-0.6v-0.3l0.1-0.2l-0.1-0.2l0,0L334,106v-0.3l0.6-0.1h0l0-0.2l-0.7-0.5
	l-0.4-0.7l-0.4,0.4l-0.4-0.6l0-0.2l0.5-0.8l0-0.3l-0.4,0l-0.9,0.2h0l-0.3-0.1l0-0.4l0.1-0.1l-0.1-0.1l-0.4-0.3l0.2-0.3l0,0l0-0.4
	l-0.4-0.4v-0.4l0.1-0.3l-0.2-0.4l-0.1-0.6l0.1-0.6l0.2-0.2l-0.1-0.4l0.8-0.2l0.9,0.2l0.4-0.2l7.8,0.2l2.4-0.2l1.4,0.1l1.2-0.2
	l0.7,0.1l0,0.8l-0.3,2.2l-0.2,2.2l0.2,0.6l-0.2,1.2l0.2,1.4l-0.1,1.3l0.4,1l1.4,0.9l0.1,0.3l0,1.2l0.4,0.6l0,0.2l-0.4,1.1l0.2,1.7
	l0.1,0.2l0.2,0l0.4-0.3l0.2,0l0.8,1.6l0.8,0l0.7,1.2l0.2-0.1l0.1,0.3l0.1,0l0.2-0.5l0.6-0.3V116l0.2-0.2l0.6,0.3l0.2-0.1l0.1-0.3
	l-0.3-1l0.2-0.2v-0.4l0.3-0.1l0.1-0.2l-0.3-0.5l0.2,0l0.2-0.2l0.1-0.2v-0.3l0.1-0.1h0.3l0.8,0.4l0.7-0.1l0.3-0.3l0.1-0.8l0.2-0.1
	l0.2,0.1l0.4,0.7l0.4,0.1l-0.1-0.4l-0.4-0.7l0.6,0l0.1-0.2l-0.1-0.6l0.2-0.3l0.3-0.1l0.5,0.5h0.5l0.5-0.3l0-0.3l0.2-0.2l0.2-0.5
	l0.5,0.4v0.9l-0.5,0.8L360,112l0,0.5l1.4,1.4l0.1,0.4l0.3,0.6l0.2,1l-0.1,0.5l-0.3,0.7l-0.4,0.5l0,0.5l-0.2,0.4l0,0.2l0.7,0.1l0,0.2
	l-0.2,0.2l-0.6,1.8l0.3,1.7l0,0.7l-0.2,0.6l0.3,2.1l0,0.4l-0.1,0.7l-0.4,1.6l0.2,0.9v0.7l-0.1,0.4l-0.1,0.7l0.3,1.6l0,0.7l0.3-0.1
	l1-1l-0.1-0.7l0.1-1.7l0.1-0.5l0.3-0.5l0.2,0l0.3,0.2l0.1,0.4l0,0.7l0.7,0.1l-0.6,2l0.2,0.1l0.5,0l0.3,0.2l0.4-1.2l0.3-0.6l-0.1-1.6
	l0-0.5l0.5-0.8l0-0.3l-0.4-0.9l0-0.2l1.2,0l0.3,0.2l0,1.6l0.1,0.2l0.2,0.2l0.5,0.1l1.1,1.8l1.2,0l0.4,0.1l0.2,0.5l0.1,1.1l0.4,1.1
	l0.2,0.3l0.5,0.1l-0.2-0.6V133l0.1-0.2l0.2-0.1l0.3,0.1l0.4,0.6l0.6,0.3l-0.1,0.2l-0.1,0.1l-0.6,0.2l-0.3,0.5l0,0.4l-0.3,0.5
	l-0.1,0.6l0,0.8l-0.3,0.7l0.2,0.4l1,0.9l0,0.6l-0.2,0.3l-0.1,0.4l0,0.4l0.2,0.8l-0.8,1.2l-0.7,2.8l0,0.6l0.9,0.6l0.3,1.5l0,0.2
	l-0.4,0.2l-0.1,0.2l-0.2,0.5l-0.1,0.5l0.5,0.4l1.2,0.1l1,0.4l0.2,1.2l0.3,0.2l1.1,0.2l0.3,0.6l0.3,1.3l-0.5,1.2l-0.3,0.4l-1.4,0.5
	l-0.5,0.7l0,1l0.2,0.9l0,1.4l0.2,0.7l0.4,0.8l0.5,1.7l0.3,0.8l0.4,0.4l0.7,1.3l0.3,0.3l0,0.4l-0.4,0.2l-1.2,0.2l-0.3,0.1l-0.4,0.4
	l-0.2,0.7l0.1,0.6l0.2,0.3l1,0l-0.2,0.6l-0.5,0.6l-0.4,0.1l-0.7-0.2l-0.6-0.6l-0.4,0.1l-0.2,1.2l-0.2,0.6l-0.8,1.3l0.3,0.5l0.3,0.1
	l1.2,0l0.2,0.1l0.2,0.2l-0.1,1.3l-0.2,1.9l-0.1,0.2l-0.6,0.5l-0.6,0.9l0.1,0.2l0.7,0.4l0.3,0.5l0,1.4l0.2,1.4l0.4,0.9l0.2,0.8
	l0.7,1.7l0.3,0.6l0.3,0.3l0.3,0.1l0.8,0.1l0.3,0.2l0.2,0.4l0,0.6l-1.4,3.7l-0.5,0.8l-0.7,1.9l-1.2,1.2l0,1.8l0.4,0.8l0.6,0.5
	l0.2,0.3l0.6,0.4v0.8l0.3,0.3h0.4l1.9,0.5l0.2,0.4l0,0.7l-0.1,0.8l0.1,0.9l-0.1,0.7l-0.3,0.8l-1,0.9l-1,0.3l-0.4,0.2l-0.2,0.4
	l0.1,0.9l0.2,1.2l0.4,0.2l0.4,0.8l-0.2,1.8l-0.3,0.9l-0.4,0.2l-0.7,0l-0.2,0.3l-0.2,0.7l0.1,0.7l-0.3,0.3l-0.7,0.3l-0.4,1l0.7,2
	l0.4,0.3l0.5,0.1l0.9,0.2l0.3,0.2l0,1.4l0.3,0.8l0.2,1.1l-0.1,0.7l-0.4,0.9l-0.1,0.5l0.4,1.7l-0.1,3.8l0.1,2.7l-0.1,0.8l0.3,0.4
	l-0.1,1.2l0.9,1.6l-0.1,0.7l0.5,1l0,0.4l-0.3,1.5L377.9,241.4z"/>
<path id="Saiha" class="st0" d="M439.1,438.6l0,0.1l-0.1,0.6l-0.3,1.3l-1.1,0.7l-0.8,0.2l-0.7,0h-0.5l-1-0.4l-0.4-0.5l-0.6-1.1
	l-0.4-1.6l-0.3-0.5l-0.6,0.1l-0.1,0l-1.2,0.3l-0.6-0.1l-1-0.5l-0.1-0.2l-0.2-0.3l-0.5-0.5l-0.6-0.3l-0.6,0.3l-0.1,0l-0.5,0.3l-1,0.4
	l-0.7,0.1l-0.6,0.6l-0.1,0.1l-0.2,0.2l-0.1,0.2l-0.1,0.1l-0.1,0.3l0.2,0.6l0.9,2.4l0.2,1.7l-0.4,1.5l-0.1,1.1l-0.4,0.7l-0.1,1.1v0.1
	l0.9,1.2l0.6,0.7l0.4,1.1l0.5,1.3l-0.1,1.9l-0.7,0.4l-0.9,0.1l-0.7-0.3l-0.9-0.6h-0.3h-0.5l-1.1-0.1l-0.9,0l-0.3,0.5l0,0.7l0.3,0.8
	l-0.1,1.3l-0.3,1l-0.5,1.5l-0.5,1.5l-0.4,0.9l-0.1,0.9v1.8l0.1,0.5l0.1,0.7l0.6,1.5l0.2,0.5l0.2,1.5l-0.1,1.4l0.1,1.1l0,0.7
	l-0.1,1.3l-0.3,0.7l-1,0.3l-0.8-0.5l-0.5-0.4l-0.1-0.3l-0.2-0.9l-0.5-2l-0.3-0.8l-0.8-0.6l-0.5-0.7l-0.3-1l0-1.1l-0.7-0.5l-0.6,0
	l-0.4,0.4l-0.2,0.2L412,467l-0.8,0.8l-0.2-0.1l-0.7-0.2l-0.4,0.4l0.3,0.5l0.2,0.3l0.4,0.7l-0.9,1.1l-0.6,1l-0.4,1.4l-0.3,1l-0.4,1.2
	l-0.5,1.4l-0.2,1.4l0.2,1.2l-0.6,0.5L407,479l-0.3-0.5l-0.1-4.5l-0.4-1.6l-0.6-2.2l-0.3-1.3l-0.6-1l-0.5-0.5l-0.8-0.7l-0.6-0.7
	l-0.3-1.1l-0.1-1.7l-0.1-1.3v-1.1L402,460l-0.6-0.4l-0.8,0.3l-0.3-1.2l-0.3-0.5l-0.2-1.2l0.1-1.2l-0.2-1.2l0-1.6l-0.3-1.6l0-1.5
	l0.3-1.8l-0.2-1.3l0-1l-0.3-2l-0.2-3.6l-0.2-1.2l0.1-1l-0.1-1.9l0.1-1.6l-0.2-2.7l-0.1-1.3l-0.4-1.4l-0.1-1.1l0.3-1.5l-0.1-0.9
	l-0.3-0.8l0.4-0.8l0.3-1.3l-0.4-1.1l-0.9-1l-0.3-1.5l0.2-0.8l-0.1-0.9l-0.5-1l0.1-0.8l0.5-0.5l1.4,0.3l0.6,0.2l1.1,1.6l1.3-0.6
	l0.4-0.6l0.8-2.7l1-2.2l0.3-0.4l1.7-1.3l1.5-2l0.9-0.8l0.5-0.8l1.2-1l0.5,0l0.9,1l-0.6,0.8l0.2,0.8l0.3,0.6l1.7,0.5l0.7-0.8l0.5-2.5
	l-0.3-0.7l-0.6,0l-0.9-0.6l-0.2-1.1l-0.4-1.1l-0.4-2.8l-0.3-1.3l-0.1-3.2l0.5-0.7l0-0.8l-0.8-1.3l-0.5-1.2l0-2.7l0.6-5.2l-0.1-1.6
	l-0.3-0.9l-0.5-0.9l0.1-0.7l0.8-0.8l0.5-0.8l0.6-1.9l0.1-2.2l-0.2-1.1l0.6-1.2l-0.3-2.9l0.4-1.4l-0.4-0.9l-1.3-2.1l-1-3l0-2.4
	l-0.1-1.1l0.5-3.7l-0.4-1.2l-1.6-1.5l-0.1-0.9l-0.1-1.4l0.1-4.6l0.6-1.2l0.7-0.8l-0.1-0.6l-0.6-0.1l-0.1-1.3l0.2-0.2l0.9-0.1
	l1.1,0.1l2.3,1.5l1,1.8l1.5,2l1,0.3l0.4,0.4l1.1,0l0.8,0.1l0.4-0.5l0-1l0.4-0.9l-0.2-0.9l0.4-0.5l0.5-0.5l0.2-0.7l0.6,0l0.5,0.1
	l0.2-1.4l0.1-0.7l1.7,0.4l1.3,0.3l0.9-0.4l0-1l0.8-0.4l1.1-0.7l0.7-0.2l0.6-0.1l-0.3,0.6l-0.4,0.5l-0.2,0.7l0.6,0.4l0.4,0.5l1.4,1.2
	l0.5,2.8l0.4,2.9l0.2,1.5l-0.4,1.1l-0.6,1l-0.3,0.7l-0.1,1.3l-0.2,0.9l-0.4,0.5l-0.5,0.3l0.8,1.3l0.8,0.9l0.3,1.6l0,0.8l-0.4,0.5
	l0,0.8l0.2,0.6l0.3,1l0.4,0.8l0.5,0.7l0.5,0.6l-0.5,2l0.3,0.7l0.9,0.8l0.7,0.1l0.8,1.1l0.3,0.8l0.5,1.8l0.2,1.4l0.1,2.1l-1.1,0.7
	l-0.1,0.1l-0.3,0.7l0,0l-0.5,0.4l-0.6,1.2l-0.3,1.2l-0.5,0.2l-0.3,0.7l0,0.1l0.1,1.3l-0.1,0.9l-0.2,0.6l-0.3,0.8l0,0.1l0,0l1,0.5
	l0.7,0l0.6,0.4l0.4,1l-0.4,1l-0.2,0.7l0.2,0.6l0.3,0.7l0.3,0.5l0.3,0.6l0.1,1.4l-0.3,1.1l-0.2,0.8l0.1,0.2l0.4,0.8l0.5,1l0.5,0.8
	l0.5,0.4l0.9,0.6l0.8-0.3l1.6,0.4l0.3,0.8l0.5,1.3l0.7,0.8l0.4,1.1l-0.2,0.7l-0.1,0.7l0.1,0.9l0.7,0.8l0.1,0.9l-0.3,0.7l-0.2,0.5
	l0.1,0.8l0.5,1.1l0.1,0.7l-0.6,1.5l0.2,1.2l0.3,0.8l0.4,2.5l-0.1,1.1l0.4,0.6l0.5,0.7l-0.5,0.4l-0.8,0.4l0.3,0.8l0.1,0.4l0.1,0.8
	l0.1,1.2l0,1l-0.1,1.3l0.1,0.9l0,0.9l0.2,0.9l0.4,1l0.2,0.6l-0.1,0.9l-1.5,0.9l-0.8,1l-0.8,0.1l-1.6-0.1l-0.6,0.1l-0.7,0.3l-0.4,0
	l-0.3-0.1l-0.4-0.1l-0.6,0.2l-0.1,0.9l0.7,1.1l0.6,1l0.1,0.9l-0.2,1l0.3,1l0.1,0.2l0.8,0.8l0.5,0.9L439.1,438.6z"/>
<path id="Serchhip" class="st0" d="M441.6,295.7l-0.5-0.1l-0.8,0.8l0,0l-0.6,0.4l-0.5,0.3l-0.7-0.5l-0.8-1l-1-0.6l-0.7,0.2l-0.2,0.7
	l-0.2,0.3l-0.1,0.1l-0.1,0.1l-0.5,1l0,0.2l0.2,0.8l0.1,1.1l-0.2,0.7l-0.3,0.9l0.3,1l0.2,1.1l-0.7,1.1l-1.1-1.1l-2.9-2.6L429,300
	l-0.2-0.5l0.2-0.4l-0.4-0.3l-2.4-1.4l-1.9-0.3l-0.5-0.6l0.1-3.4l0.3-0.7l-0.1-0.5l-0.5-0.6h-0.8l-0.8,0.3h-0.7l-1.9-1.4l-0.9-0.9
	l-0.6-0.3l-0.1-0.5l-0.3,0l-0.3-0.5l-0.2,0l-0.4-0.7l-2.1-1.1l-0.1-0.6l-0.6,0l-0.3-0.2l0.1-2.3l0.2-0.4l-0.1-0.3l-0.3,0l0.1-0.9
	l-0.2-0.2l0.2-1.1l-0.4-0.6l0.3-1l-0.4-1.3l-0.2-0.2l-0.5-0.1l-0.2-0.4l-1.1,0l-0.3-0.3l-0.2-0.8l0.1-0.8l0.1-0.3l0-0.7l-0.3,0
	l-0.5,0.2l-0.5-0.1l-0.3-0.1l-0.1-0.3l-0.3-0.3l-0.5,1.4l-0.6,0.3l-0.6,0.5l-0.9,0.1l-0.5-0.1l-1.3,1.5l-0.4,0.1l-0.8-0.1l-0.4-0.4
	l-0.3-0.5l-0.6,0.3l-0.1-0.2l0-0.4l-0.6-1.2l-0.1-0.4l-0.4-1l-0.1-0.5l0.4-2.5l-0.2-0.7l-0.4-0.6l-0.3-0.2l-0.1-0.2l-0.4-0.3
	l-0.2-0.6l0.1-0.3l-0.1-0.4l0.1-0.4l-0.1,0l0-0.2v-0.2l-0.3-0.2l-0.7-0.2l-0.2-0.3l-0.2-0.5l-0.4-0.2l-0.9,0.5h-0.3l-0.2,0.2l-0.4,0
	l-0.2,0.3l-0.1,0.9l0.1,0.9l-0.2,0.3l-0.2,0.1l-1.8-0.1l-1.5-0.7l-0.9,0.6l-0.4-0.3l-0.8-0.8l-0.6,0.1l-0.2,0.3l-1,0.7l-0.2-0.8
	l-0.2-0.2l-0.2-0.1l-0.5,0.1l-0.5-0.2l-0.5,0.3l-0.3-0.8l-0.2-0.3l-1.4-0.2l-0.1,0.3l0.2,1.2l0,0.5l0.2,1l-0.2,0.8l0.2,1.1l-0.3,0.8
	l-0.1,1.8l-0.1,0.4l-0.1,0.2l-0.7,0.1l-0.9-0.2l-0.4-0.4l0.1-0.4l-0.4-0.1l0.5-1.1l0-0.6l-1.3-1.5l-0.3-0.9l-0.2-2.5l0.1-0.5
	l-0.2-0.5l0-0.3l0.1-0.6l0.1-2.1l-0.2-1.4l-0.3-0.7l0.2-0.9l-0.4,0l-0.1-0.1l0.2-0.8l-0.2-0.9l0-0.6l0.2-0.5l-0.1-1.1l0.2-0.1
	l0.1-0.5l-0.3-0.4h2.1v-2.1l0.1-1.9l0.2-1.8l0.9-0.8h1.6l1.2,1.5l1.5,0.5h1l0.9,0.6l1.7,1.8l1.2,0.8h2.1l1.9-0.8l1.1-1.6l0.7-1.6
	v-1.3l-1-2.1l-0.6-2.3l-0.4-1.8v-1.1v-1.6l0.6-2.3v-1.1l-0.6-1.5l-3.6-1.8l-1.5-1.1l-0.5-3.2v-2.1v-2.4v-1.8l0.7-2.1l0.6-1.3
	l0.2-1.3l-0.4-1.5l-1-1.5l-0.8-1.8l-0.2-2.1v-1.8l1-0.8l0.7-1.6l0.1-1.6l0.7-0.3l0.9,0.6l1.1,1.3l0.4,1.6l0.5,3.4l0.6,2.9l0.5,2.4
	l2.7,2.1l2.4,2.3l1.1,2.9l0.4,3.1l0.4,2.3l1.5,1l1.2-1.5l0.1-1.8l2.8-2.9l2.4-1.9l1.9-1.9l2.1,0.5l0.5,1.5l1.6,2.6l2.8-0.3l-0.1,0.2
	l-0.5,0.9l-0.2,0.6l1.3,1.5l2,0.9l-0.2,0.3l-0.2,1.5l0.1,0.9l0.5,0.9l0.6,0.5l-0.3,1l-0.5,0.9l-0.2,0.8l1.1,2.4l-0.2,3.4l1.4,2.9
	l0.6,0.5l-0.2,0.7l-0.5,0.8l-0.4,1.1l0,1.1l-0.3,0.4l-0.2,0.6l0,0.6l-0.3,0.6l-0.3,1.7l-0.3,0.5l-2.1,2.1l-0.4,0.7l-0.4,0.4
	l-0.1,0.5l0.1,0.5l-0.2,0.8l0.1,0.8l0.2,0.6l0,0.8l0.9,1.5l1,0.6l0.5,0.2l0.5,0l0.1,0.5l-0.2,0.6l0.4,0.4l0,0.5l0.9,0.4l0.6,0.5
	l-0.4,0.6l-0.5,0.3l0,0l1.8,1.1h2.1l2.2-0.5l2-0.2l1.5-0.9l2.5-0.1l1.2,1l0.8,1.4l0.5,2.5l0.6,2.5l0.1,2.9v1.5l0.5,2l0.8,1.8
	l0.1,3.7v2.9l1.2,7V295.7z"/>
<path id="Layer" class="st1" d="M790,261.5h10v10h-10V261.5z"/>
<path id="Layer_1_" class="st1" d="M0,0"/>
<path id="Aizawl_1_" d="M396.3,158.5l-1.7-4.7l-1.7,4.7H396.3z M390.2,162l3.6-9.5h1.5l3.6,9.5h-1.3l-0.9-2.4h-4.3l-0.9,2.4H390.2z
	 M400.2,162v-7.1h1.2v7.1H400.2z M400.2,153.6v-1.5h1.2v1.5H400.2z M403.4,155.8v-0.9h5.5v1.1l-4.4,5.1h4.4v0.9h-5.7v-1.1l4.4-5.1
	H403.4z M415.1,158.4h-1.2c-0.9,0-1.6,0.1-2,0.3c-0.4,0.2-0.5,0.6-0.5,1.1c0,0.4,0.1,0.7,0.4,1c0.3,0.2,0.6,0.4,1.1,0.4
	c0.6,0,1.2-0.2,1.6-0.7c0.4-0.5,0.6-1.1,0.6-1.8V158.4z M416.2,157.9v4.1h-1.2v-1.1c-0.3,0.4-0.6,0.8-1,1c-0.4,0.2-0.9,0.3-1.5,0.3
	c-0.7,0-1.3-0.2-1.7-0.6c-0.4-0.4-0.6-1-0.6-1.6c0-0.8,0.3-1.4,0.8-1.8c0.5-0.4,1.3-0.6,2.4-0.6h1.6v-0.1c0-0.5-0.2-1-0.5-1.2
	c-0.3-0.3-0.8-0.4-1.5-0.4c-0.4,0-0.8,0.1-1.2,0.1c-0.4,0.1-0.8,0.2-1.1,0.4v-1.1c0.4-0.2,0.8-0.3,1.2-0.4c0.4-0.1,0.8-0.1,1.2-0.1
	c1,0,1.8,0.3,2.3,0.8C416,156.1,416.2,156.9,416.2,157.9z M419.8,162l-1.9-7.1h1.2l1.5,5.6l1.4-5.6h1.4l1.5,5.6l1.5-5.6h1.2
	l-1.9,7.1h-1.4l-1.5-5.8l-1.5,5.8H419.8z M429.3,162v-9.9h1.2v9.9H429.3z"/>
<path id="Champhai_1_" d="M434.5,229.5l1.2,0.5c-0.5,0.2-1,0.6-1.4,0.9c-0.4,0.4-0.7,0.8-0.9,1.3c-0.4,1-0.4,1.9,0,2.7
	c0.4,0.8,1.2,1.4,2.3,1.9c1.1,0.5,2.1,0.6,3,0.3c0.8-0.3,1.5-0.9,1.9-1.9c0.2-0.5,0.3-1,0.3-1.5c0-0.5-0.1-1.1-0.3-1.6l1.2,0.5
	c0.1,0.5,0.1,1.1,0.1,1.6c-0.1,0.5-0.2,1-0.4,1.6c-0.6,1.3-1.4,2.2-2.5,2.6c-1.1,0.4-2.4,0.3-3.8-0.3c-1.4-0.6-2.4-1.4-2.8-2.5
	c-0.5-1.1-0.5-2.3,0.1-3.6c0.2-0.5,0.5-1,0.8-1.4C433.7,230.1,434.1,229.8,434.5,229.5z M441.7,224l3.9,1.7l-0.5,1.1l-3.9-1.7
	c-0.6-0.3-1.1-0.3-1.5-0.2c-0.4,0.1-0.7,0.4-0.9,0.9c-0.2,0.6-0.3,1.1,0,1.6c0.2,0.5,0.7,0.9,1.3,1.1l3.7,1.6l-0.5,1.1l-9.1-3.8
	l0.5-1.1l3.6,1.5c-0.3-0.4-0.5-0.9-0.5-1.3c0-0.4,0-0.9,0.2-1.3c0.3-0.8,0.8-1.2,1.4-1.4C440,223.5,440.8,223.6,441.7,224z
	 M444.9,218.1l-0.5,1.1c-0.4,0.9-0.5,1.5-0.5,1.9c0.1,0.4,0.3,0.7,0.8,0.9c0.4,0.2,0.7,0.2,1.1,0c0.3-0.2,0.6-0.5,0.8-0.9
	c0.3-0.6,0.2-1.2,0-1.7c-0.3-0.5-0.8-1-1.5-1.2L444.9,218.1z M445,216.8l3.7,1.6l-0.4,1.1l-1-0.4c0.3,0.4,0.5,0.8,0.5,1.3
	c0,0.4-0.1,0.9-0.3,1.5c-0.3,0.7-0.7,1.1-1.2,1.4c-0.5,0.2-1.1,0.2-1.8,0c-0.7-0.3-1.2-0.8-1.4-1.5c-0.2-0.7,0-1.5,0.4-2.4l0.6-1.5
	l-0.1-0.1c-0.5-0.2-0.9-0.2-1.3,0c-0.4,0.2-0.7,0.6-1,1.2c-0.2,0.4-0.3,0.8-0.3,1.1c-0.1,0.4-0.1,0.8,0,1.2l-1-0.4
	c0-0.5,0.1-0.9,0.1-1.3c0.1-0.4,0.2-0.8,0.3-1.1c0.4-0.9,1-1.5,1.6-1.8C443.1,216.3,444,216.4,445,216.8z M446.5,208.9
	c-0.4-0.5-0.6-0.9-0.7-1.4c-0.1-0.5,0-1,0.2-1.5c0.3-0.7,0.8-1.1,1.4-1.3s1.4-0.1,2.3,0.3l3.9,1.7l-0.5,1.1l-3.9-1.7
	c-0.6-0.3-1.1-0.3-1.5-0.2c-0.4,0.1-0.7,0.4-0.9,0.8c-0.2,0.6-0.2,1.1,0,1.6c0.2,0.5,0.7,0.9,1.3,1.1l3.7,1.6l-0.5,1.1l-3.9-1.7
	c-0.6-0.3-1.1-0.4-1.5-0.3c-0.4,0.1-0.7,0.4-0.9,0.8c-0.2,0.5-0.2,1.1,0,1.6c0.2,0.5,0.7,0.9,1.3,1.1l3.7,1.6l-0.5,1.1l-6.5-2.8
	l0.5-1.1l1,0.4c-0.3-0.4-0.5-0.8-0.5-1.3c0-0.4,0-0.9,0.2-1.4c0.2-0.5,0.5-0.8,0.9-1.1C445.5,208.9,446,208.8,446.5,208.9z
	 M454,203.1l3.5,1.5l-0.5,1.1l-9-3.8l0.5-1.1l1,0.4c-0.3-0.4-0.5-0.8-0.5-1.2c0-0.4,0-0.9,0.2-1.4c0.3-0.8,0.9-1.3,1.8-1.5
	c0.8-0.2,1.8-0.1,2.8,0.3c1,0.4,1.8,1,2.2,1.8c0.4,0.8,0.5,1.5,0.1,2.3c-0.2,0.5-0.5,0.9-0.8,1.1C454.9,202.8,454.5,203,454,203.1z
	 M453.3,198.4c-0.8-0.3-1.5-0.4-2.1-0.3c-0.6,0.1-1,0.5-1.2,1.1c-0.2,0.6-0.2,1.1,0.1,1.6c0.3,0.5,0.9,0.9,1.7,1.3
	c0.8,0.3,1.5,0.4,2.1,0.3c0.6-0.1,1-0.5,1.2-1.1c0.2-0.6,0.2-1.1-0.1-1.6C454.6,199.2,454.1,198.8,453.3,198.4z M456.1,189.8
	l3.9,1.7l-0.5,1.1l-3.9-1.7c-0.6-0.3-1.1-0.3-1.5-0.2c-0.4,0.1-0.7,0.4-0.9,0.9c-0.2,0.6-0.3,1.1,0,1.6c0.2,0.5,0.7,0.9,1.3,1.1
	l3.7,1.6l-0.5,1.1l-9.1-3.9l0.5-1.1l3.6,1.5c-0.3-0.4-0.5-0.8-0.5-1.3c0-0.4,0-0.9,0.2-1.3c0.3-0.8,0.8-1.2,1.4-1.4
	C454.5,189.3,455.2,189.4,456.1,189.8z M459.4,183.9L459,185c-0.4,0.9-0.5,1.5-0.5,1.9c0.1,0.4,0.3,0.7,0.8,0.9
	c0.4,0.2,0.7,0.2,1.1,0c0.3-0.2,0.6-0.5,0.8-0.9c0.3-0.6,0.2-1.2,0-1.7c-0.3-0.5-0.8-1-1.5-1.3L459.4,183.9z M459.4,182.6l3.7,1.6
	l-0.4,1.1l-1-0.4c0.3,0.4,0.5,0.8,0.5,1.3c0,0.4-0.1,0.9-0.3,1.5c-0.3,0.7-0.7,1.1-1.2,1.4c-0.5,0.2-1.1,0.2-1.8-0.1
	c-0.7-0.3-1.2-0.8-1.4-1.4c-0.2-0.7,0-1.5,0.4-2.4l0.6-1.5l-0.1,0c-0.5-0.2-0.9-0.2-1.4,0c-0.4,0.2-0.7,0.6-1,1.2
	c-0.2,0.4-0.3,0.8-0.3,1.2c-0.1,0.4-0.1,0.8,0,1.2l-1-0.4c0-0.5,0.1-0.9,0.1-1.3c0.1-0.4,0.2-0.8,0.3-1.1c0.4-0.9,1-1.5,1.6-1.8
	C457.6,182.1,458.4,182.2,459.4,182.6z M464.1,182l-6.5-2.8l0.5-1.1l6.5,2.8L464.1,182z M456.4,178.7l-1.4-0.6l0.5-1.1l1.4,0.6
	L456.4,178.7z"/>
<path id="Kolasib_1_" d="M378.8,124.1l-8.4-4.4l0.6-1.1l3.6,1.8l-1.6-5.6l0.8-1.5l1.8,6.2l6.8-2.1l-0.8,1.5l-6.1,1.9l4,2.1
	L378.8,124.1z M378.1,111.8c-0.3,0.6-0.3,1.1,0,1.7c0.3,0.5,0.8,1,1.5,1.4c0.8,0.4,1.4,0.5,2,0.4c0.6-0.1,1-0.4,1.3-1
	c0.3-0.6,0.3-1.1,0-1.7c-0.3-0.6-0.8-1-1.5-1.4c-0.7-0.4-1.4-0.5-2-0.4C378.8,110.9,378.4,111.2,378.1,111.8z M377.2,111.3
	c0.5-0.9,1.1-1.5,2-1.7c0.9-0.2,1.8,0,2.8,0.5c1,0.5,1.7,1.2,2,2c0.3,0.8,0.2,1.7-0.2,2.6c-0.5,0.9-1.1,1.5-2,1.7
	c-0.9,0.2-1.8,0-2.8-0.5c-1-0.5-1.7-1.2-2-2C376.7,113.1,376.8,112.2,377.2,111.3z M386.1,110.1l-8.8-4.6l0.5-1l8.8,4.6L386.1,110.1
	z M386.6,101.3l-0.5,1c-0.4,0.8-0.6,1.5-0.6,1.9c0,0.4,0.3,0.8,0.7,1c0.4,0.2,0.7,0.2,1.1,0.1c0.3-0.1,0.6-0.4,0.8-0.8
	c0.3-0.6,0.3-1.1,0.1-1.7c-0.2-0.6-0.7-1-1.4-1.4L386.6,101.3z M386.7,100.1l3.6,1.9l-0.5,1l-0.9-0.5c0.3,0.4,0.4,0.9,0.4,1.3
	c0,0.4-0.1,0.9-0.4,1.4c-0.3,0.6-0.8,1.1-1.4,1.3c-0.6,0.2-1.1,0.1-1.8-0.2c-0.7-0.4-1.1-0.9-1.2-1.5c-0.1-0.7,0.1-1.5,0.6-2.4
	l0.8-1.5l-0.1-0.1c-0.5-0.2-0.9-0.3-1.4-0.1c-0.4,0.2-0.8,0.5-1.1,1.1c-0.2,0.4-0.3,0.7-0.4,1.1c-0.1,0.4-0.1,0.8-0.1,1.2l-1-0.5
	c0.1-0.5,0.1-0.9,0.2-1.3c0.1-0.4,0.3-0.8,0.4-1.1c0.5-0.9,1.1-1.5,1.8-1.7C384.9,99.4,385.8,99.6,386.7,100.1z M387.4,92.6l1,0.5
	c-0.3,0.2-0.6,0.5-0.8,0.7c-0.2,0.3-0.4,0.6-0.6,0.9c-0.3,0.5-0.4,0.9-0.4,1.3c0,0.3,0.2,0.6,0.5,0.8c0.2,0.1,0.5,0.1,0.7,0
	c0.2-0.1,0.6-0.4,1-0.9l0.3-0.3c0.5-0.7,1-1.1,1.5-1.2c0.5-0.2,0.9-0.1,1.5,0.2c0.6,0.3,0.9,0.8,1,1.4c0.1,0.6-0.1,1.4-0.5,2.2
	c-0.2,0.3-0.4,0.7-0.6,1c-0.3,0.3-0.6,0.7-0.9,1l-1.1-0.6c0.4-0.3,0.7-0.6,1-0.9c0.3-0.3,0.5-0.7,0.7-1c0.3-0.5,0.4-0.9,0.3-1.2
	c0-0.4-0.2-0.6-0.5-0.8c-0.3-0.1-0.5-0.2-0.8,0c-0.3,0.1-0.6,0.4-1.1,1l-0.3,0.3c-0.5,0.6-0.9,0.9-1.3,1.1c-0.4,0.1-0.9,0.1-1.4-0.2
	c-0.6-0.3-0.9-0.8-1-1.3c-0.1-0.6,0-1.3,0.4-2c0.2-0.4,0.4-0.7,0.6-1C386.9,93.1,387.1,92.8,387.4,92.6z M394.5,93.8l-6.3-3.3l0.5-1
	l6.3,3.3L394.5,93.8z M387.1,89.9l-1.3-0.7l0.5-1l1.3,0.7L387.1,89.9z M395.4,84.4c-0.8-0.4-1.4-0.5-2-0.4c-0.6,0.1-1,0.4-1.3,0.9
	c-0.3,0.5-0.3,1.1,0,1.6c0.3,0.5,0.8,1,1.5,1.4c0.8,0.4,1.4,0.6,2,0.5c0.6-0.1,1-0.4,1.3-1c0.3-0.6,0.3-1.1,0-1.6
	C396.7,85.3,396.2,84.8,395.4,84.4z M388,85l3.4,1.8c-0.3-0.4-0.4-0.8-0.4-1.2c0-0.4,0.1-0.9,0.4-1.3c0.4-0.8,1-1.2,1.9-1.4
	c0.9-0.2,1.8,0,2.8,0.5c1,0.5,1.7,1.2,2,2s0.3,1.6-0.1,2.3c-0.2,0.5-0.5,0.8-0.9,1.1c-0.4,0.2-0.8,0.4-1.3,0.4l0.9,0.5l-0.5,1
	l-8.8-4.6L388,85z"/>
<path id="Lawangtlai_1_" d="M383,438l-8-3.5l0.5-1.1l7.1,3.1l1.7-3.9l0.9,0.4L383,438z M384.2,426.9l-0.4,1
	c-0.3,0.8-0.5,1.4-0.5,1.8c0.1,0.4,0.3,0.7,0.7,0.9c0.4,0.2,0.7,0.2,1,0c0.3-0.1,0.5-0.4,0.7-0.8c0.2-0.5,0.2-1.1,0-1.6
	c-0.2-0.5-0.7-0.9-1.3-1.2L384.2,426.9z M384.3,425.8l3.4,1.5l-0.4,1l-0.9-0.4c0.3,0.4,0.4,0.8,0.4,1.2c0,0.4-0.1,0.9-0.3,1.4
	c-0.3,0.6-0.7,1-1.2,1.2c-0.5,0.2-1,0.2-1.6-0.1c-0.7-0.3-1.1-0.7-1.2-1.3c-0.2-0.6,0-1.4,0.4-2.3l0.6-1.4l-0.1,0
	c-0.5-0.2-0.9-0.2-1.2,0c-0.4,0.2-0.7,0.6-0.9,1.1c-0.1,0.3-0.2,0.7-0.3,1.1c-0.1,0.4-0.1,0.7,0,1.1l-0.9-0.4c0-0.4,0.1-0.8,0.1-1.2
	c0.1-0.4,0.2-0.7,0.3-1c0.4-0.9,0.9-1.4,1.5-1.7C382.6,425.3,383.3,425.4,384.3,425.8z M389,424.2l-6.7-1l0.4-1l5.2,0.8l-4.2-3.3
	l0.5-1.2l5.2,0.8l-4.2-3.3l0.4-1l5.4,4.2l-0.5,1.2l-5.5-0.8l4.4,3.4L389,424.2z M391,411.2l-0.4,1c-0.3,0.8-0.5,1.4-0.4,1.8
	c0.1,0.4,0.3,0.7,0.7,0.9c0.4,0.2,0.7,0.2,1,0c0.3-0.1,0.5-0.4,0.7-0.8c0.2-0.6,0.2-1.1,0-1.6c-0.2-0.5-0.7-0.9-1.3-1.2L391,411.2z
	 M391.1,410l3.4,1.5l-0.4,1l-0.9-0.4c0.3,0.4,0.4,0.8,0.5,1.2c0,0.4-0.1,0.9-0.3,1.4c-0.3,0.6-0.7,1-1.2,1.2c-0.5,0.2-1,0.2-1.6-0.1
	c-0.7-0.3-1.1-0.7-1.2-1.3c-0.2-0.6,0-1.4,0.4-2.2l0.6-1.4l-0.1,0c-0.5-0.2-0.9-0.2-1.2,0c-0.4,0.2-0.7,0.6-0.9,1.1
	c-0.1,0.3-0.2,0.7-0.3,1.1s-0.1,0.7,0,1.1l-0.9-0.4c0-0.4,0.1-0.8,0.1-1.2c0.1-0.4,0.2-0.7,0.3-1c0.4-0.9,0.9-1.4,1.5-1.7
	C389.4,409.5,390.1,409.6,391.1,410z M393.9,402.9l3.6,1.6l-0.4,1l-3.6-1.6c-0.6-0.2-1.1-0.3-1.4-0.2c-0.4,0.1-0.7,0.4-0.9,0.8
	c-0.2,0.5-0.2,1,0,1.5c0.2,0.5,0.6,0.8,1.2,1.1l3.4,1.5l-0.4,1l-6-2.6l0.4-1l0.9,0.4c-0.3-0.4-0.4-0.8-0.5-1.2c0-0.4,0-0.8,0.2-1.2
	c0.3-0.7,0.7-1.1,1.3-1.3C392.4,402.4,393.1,402.5,393.9,402.9z M397,397.2c-0.7-0.3-1.3-0.4-1.9-0.3c-0.5,0.1-0.9,0.4-1.1,1
	c-0.2,0.5-0.2,1,0,1.5c0.3,0.5,0.8,0.9,1.5,1.2c0.7,0.3,1.3,0.4,1.9,0.3c0.5-0.1,0.9-0.5,1.1-1c0.2-0.5,0.2-1-0.1-1.5
	C398.2,397.9,397.7,397.5,397,397.2z M394.5,394.9l5.3,2.3c1,0.4,1.7,1,2,1.7c0.3,0.7,0.2,1.5-0.2,2.4c-0.1,0.3-0.3,0.7-0.5,1
	c-0.2,0.3-0.4,0.6-0.6,0.8l-1-0.4c0.3-0.2,0.5-0.5,0.7-0.7c0.2-0.3,0.4-0.5,0.5-0.8c0.3-0.6,0.3-1.2,0.1-1.7
	c-0.2-0.5-0.6-0.8-1.3-1.1L399,398c0.3,0.4,0.4,0.7,0.5,1.1c0,0.4,0,0.8-0.2,1.3c-0.3,0.7-0.9,1.2-1.6,1.4c-0.8,0.2-1.6,0.1-2.5-0.3
	c-0.9-0.4-1.6-1-1.9-1.6c-0.4-0.7-0.4-1.4-0.1-2.1c0.2-0.4,0.4-0.8,0.8-1c0.3-0.2,0.7-0.4,1.1-0.4l-0.9-0.4L394.5,394.9z
	 M393.7,392.1l0.4-1l1.7,0.7l0.9-2l0.8,0.3l-0.9,2l3.3,1.4c0.5,0.2,0.8,0.3,1,0.2c0.2-0.1,0.4-0.3,0.6-0.7l0.4-1l0.8,0.4l-0.4,1
	c-0.3,0.8-0.7,1.2-1.1,1.4c-0.4,0.2-1,0.1-1.8-0.2l-3.3-1.4l-0.3,0.7l-0.8-0.3l0.3-0.7L393.7,392.1z M403.3,391.1l-8.4-3.6l0.4-1
	l8.4,3.6L403.3,391.1z M403.2,383l-0.4,1c-0.3,0.8-0.5,1.4-0.4,1.8c0,0.4,0.3,0.7,0.7,0.9c0.3,0.2,0.7,0.2,1,0
	c0.3-0.1,0.5-0.4,0.7-0.8c0.2-0.6,0.2-1.1,0-1.6c-0.2-0.5-0.7-0.9-1.3-1.2L403.2,383z M403.2,381.9l3.4,1.5l-0.4,1l-0.9-0.4
	c0.3,0.4,0.4,0.8,0.5,1.2c0,0.4-0.1,0.9-0.3,1.4c-0.3,0.6-0.7,1-1.2,1.2c-0.5,0.2-1,0.2-1.6-0.1c-0.7-0.3-1.1-0.7-1.2-1.3
	c-0.1-0.6,0-1.3,0.4-2.2l0.6-1.4l-0.1,0c-0.5-0.2-0.9-0.2-1.2,0c-0.4,0.2-0.7,0.6-0.9,1.1c-0.2,0.3-0.3,0.7-0.3,1.1
	c-0.1,0.4-0.1,0.7,0,1.1l-0.9-0.4c0-0.4,0.1-0.8,0.1-1.2c0.1-0.4,0.2-0.7,0.3-1.1c0.4-0.9,0.9-1.4,1.5-1.7
	C401.5,381.4,402.3,381.5,403.2,381.9z M407.5,381.3l-6-2.6l0.4-1l6,2.6L407.5,381.3z M400.4,378.3l-1.2-0.5l0.4-1l1.2,0.5
	L400.4,378.3z"/>
<path id="Lunglei_1_" d="M369.1,313v-9.5h1.3v8.4h4.6v1.1H369.1z M375.9,310.2v-4.3h1.2v4.3c0,0.7,0.1,1.2,0.4,1.5
	c0.3,0.3,0.7,0.5,1.2,0.5c0.6,0,1.1-0.2,1.5-0.6c0.4-0.4,0.6-1,0.6-1.6v-4h1.2v7.1h-1.2v-1.1c-0.3,0.4-0.6,0.8-1,1
	c-0.4,0.2-0.8,0.3-1.3,0.3c-0.8,0-1.4-0.3-1.9-0.8C376.1,311.9,375.9,311.2,375.9,310.2z M378.9,305.7L378.9,305.7z M390.2,308.7
	v4.3H389v-4.2c0-0.7-0.1-1.2-0.4-1.5c-0.3-0.3-0.7-0.5-1.2-0.5c-0.6,0-1.1,0.2-1.5,0.6c-0.4,0.4-0.6,0.9-0.6,1.6v4h-1.2v-7.1h1.2
	v1.1c0.3-0.4,0.6-0.8,1-1c0.4-0.2,0.8-0.3,1.3-0.3c0.8,0,1.4,0.3,1.8,0.8S390.2,307.7,390.2,308.7z M397.2,309.4
	c0-0.8-0.2-1.5-0.5-2c-0.3-0.5-0.8-0.7-1.5-0.7c-0.6,0-1.1,0.2-1.5,0.7c-0.3,0.5-0.5,1.1-0.5,2c0,0.8,0.2,1.5,0.5,2
	c0.4,0.5,0.8,0.7,1.5,0.7c0.6,0,1.1-0.2,1.5-0.7C397,310.9,397.2,310.2,397.2,309.4z M398.4,305.9v6.2c0,1.2-0.3,2.1-0.8,2.7
	c-0.5,0.6-1.4,0.9-2.5,0.9c-0.4,0-0.8,0-1.2-0.1c-0.4-0.1-0.7-0.2-1.1-0.3v-1.1c0.3,0.2,0.7,0.3,1,0.4c0.3,0.1,0.7,0.1,1,0.1
	c0.8,0,1.3-0.2,1.7-0.6s0.6-1,0.6-1.8v-0.6c-0.2,0.4-0.6,0.7-0.9,0.9c-0.4,0.2-0.8,0.3-1.4,0.3c-0.9,0-1.6-0.3-2.1-1
	c-0.5-0.7-0.8-1.5-0.8-2.6s0.3-2,0.8-2.6c0.5-0.7,1.2-1,2.1-1c0.5,0,1,0.1,1.4,0.3c0.4,0.2,0.7,0.5,0.9,0.9v-1.1H398.4z M400.8,313
	v-9.9h1.2v9.9H400.8z M410.5,309.1v0.6h-5.4c0.1,0.8,0.3,1.4,0.7,1.9c0.4,0.4,1,0.6,1.8,0.6c0.5,0,0.9-0.1,1.3-0.2
	c0.4-0.1,0.8-0.3,1.3-0.5v1.1c-0.4,0.2-0.9,0.3-1.3,0.4c-0.4,0.1-0.9,0.1-1.3,0.1c-1.1,0-2-0.3-2.7-1c-0.7-0.7-1-1.5-1-2.7
	c0-1.2,0.3-2.1,0.9-2.8c0.6-0.7,1.5-1,2.6-1c1,0,1.7,0.3,2.3,0.9C410.2,307.3,410.5,308.1,410.5,309.1z M405.1,308.8l4.2,0
	c0-0.6-0.2-1.1-0.5-1.5s-0.8-0.6-1.4-0.6c-0.6,0-1.2,0.2-1.6,0.6C405.4,307.6,405.2,308.1,405.1,308.8z M412.4,313v-7.1h1.2v7.1
	H412.4z M412.4,304.6v-1.5h1.2v1.5H412.4z"/>
<path id="Mamit_1_" d="M336,181v-9.5h1.9l2.4,6.4l2.4-6.4h1.9v9.5h-1.2v-8.3l-2.4,6.5h-1.3l-2.5-6.5v8.3H336z M351.6,177.4h-1.2
	c-0.9,0-1.6,0.1-2,0.3c-0.4,0.2-0.5,0.6-0.5,1.1c0,0.4,0.1,0.7,0.4,1c0.3,0.2,0.6,0.4,1.1,0.4c0.6,0,1.2-0.2,1.6-0.7
	c0.4-0.5,0.6-1.1,0.6-1.8V177.4z M352.8,176.9v4.1h-1.2v-1.1c-0.3,0.4-0.6,0.8-1,1c-0.4,0.2-0.9,0.3-1.5,0.3c-0.7,0-1.3-0.2-1.7-0.6
	c-0.4-0.4-0.6-1-0.6-1.6c0-0.8,0.3-1.4,0.8-1.8c0.5-0.4,1.3-0.6,2.4-0.6h1.6v-0.1c0-0.5-0.2-1-0.5-1.2c-0.3-0.3-0.8-0.4-1.5-0.4
	c-0.4,0-0.8,0.1-1.2,0.1c-0.4,0.1-0.8,0.2-1.1,0.4v-1.1c0.4-0.2,0.8-0.3,1.2-0.4c0.4-0.1,0.8-0.1,1.2-0.1c1,0,1.8,0.3,2.3,0.8
	C352.5,175.1,352.8,175.9,352.8,176.9z M360.7,175.3c0.3-0.5,0.6-0.9,1-1.2c0.4-0.2,0.9-0.4,1.4-0.4c0.7,0,1.3,0.3,1.7,0.8
	c0.4,0.5,0.6,1.2,0.6,2.2v4.3h-1.2v-4.2c0-0.7-0.1-1.2-0.4-1.5c-0.2-0.3-0.6-0.5-1.1-0.5c-0.6,0-1.1,0.2-1.4,0.6
	c-0.4,0.4-0.5,0.9-0.5,1.6v4h-1.2v-4.2c0-0.7-0.1-1.2-0.4-1.5c-0.2-0.3-0.6-0.5-1.1-0.5c-0.6,0-1.1,0.2-1.4,0.6s-0.5,1-0.5,1.6v4
	h-1.2v-7.1h1.2v1.1c0.3-0.4,0.6-0.8,1-1c0.4-0.2,0.8-0.3,1.3-0.3c0.5,0,1,0.1,1.3,0.4C360.3,174.4,360.5,174.8,360.7,175.3z
	 M367.8,181v-7.1h1.2v7.1H367.8z M367.8,172.6v-1.5h1.2v1.5H367.8z M371.4,171.9h1.2v2h2.4v0.9h-2.4v3.9c0,0.6,0.1,0.9,0.2,1.1
	c0.2,0.2,0.5,0.2,1,0.2h1.2v1h-1.2c-0.9,0-1.5-0.2-1.9-0.5c-0.3-0.3-0.5-1-0.5-1.8v-3.9h-0.9v-0.9h0.9V171.9z"/>
<path id="Saiha_1_" d="M410.8,419.8v1.2c-0.5-0.2-0.9-0.4-1.4-0.5c-0.4-0.1-0.9-0.2-1.2-0.2c-0.7,0-1.2,0.1-1.6,0.4
	c-0.4,0.3-0.6,0.7-0.6,1.2c0,0.4,0.1,0.7,0.4,1c0.3,0.2,0.7,0.4,1.4,0.5l0.8,0.2c1,0.2,1.7,0.5,2.1,1c0.5,0.5,0.7,1.1,0.7,1.8
	c0,0.9-0.3,1.6-0.9,2.1c-0.6,0.5-1.5,0.7-2.7,0.7c-0.5,0-0.9,0-1.4-0.1c-0.5-0.1-1-0.2-1.6-0.5v-1.3c0.5,0.3,1,0.5,1.5,0.7
	c0.5,0.1,1,0.2,1.5,0.2c0.7,0,1.3-0.1,1.7-0.4c0.4-0.3,0.6-0.7,0.6-1.2c0-0.5-0.1-0.8-0.4-1.1c-0.3-0.3-0.8-0.5-1.4-0.6l-0.8-0.1
	c-1-0.2-1.6-0.5-2.1-0.9c-0.4-0.4-0.6-1-0.6-1.7c0-0.8,0.3-1.5,0.9-2c0.6-0.5,1.4-0.7,2.4-0.7c0.4,0,0.9,0,1.4,0.1
	C409.9,419.6,410.3,419.7,410.8,419.8z M417.7,425.4h-1.2c-0.9,0-1.6,0.1-2,0.3c-0.4,0.2-0.6,0.6-0.5,1.1c0,0.4,0.1,0.8,0.4,1
	c0.3,0.2,0.6,0.4,1.1,0.4c0.7,0,1.2-0.2,1.6-0.7c0.4-0.5,0.6-1.1,0.6-1.8V425.4z M418.9,424.9v4.1h-1.2v-1.1c-0.3,0.4-0.6,0.8-1,1
	c-0.4,0.2-0.9,0.3-1.5,0.3c-0.7,0-1.3-0.2-1.7-0.6c-0.4-0.4-0.6-1-0.6-1.6c0-0.8,0.3-1.4,0.8-1.8c0.5-0.4,1.3-0.6,2.4-0.6h1.6v-0.1
	c0-0.5-0.2-1-0.5-1.2s-0.9-0.4-1.5-0.4c-0.4,0-0.8,0.1-1.2,0.1c-0.4,0.1-0.8,0.2-1.1,0.4v-1.1c0.4-0.2,0.8-0.3,1.2-0.4
	c0.4-0.1,0.8-0.1,1.2-0.1c1,0,1.8,0.3,2.3,0.8C418.7,423.1,418.9,423.9,418.9,424.9z M421.3,429v-7.1h1.2v7.1H421.3z M421.3,420.6
	v-1.5h1.2v1.5H421.3z M430.8,424.7v4.3h-1.2v-4.2c0-0.7-0.1-1.2-0.4-1.5c-0.3-0.3-0.7-0.5-1.2-0.5c-0.6,0-1.1,0.2-1.5,0.6
	c-0.4,0.4-0.6,0.9-0.6,1.6v4h-1.2v-9.9h1.2v3.9c0.3-0.4,0.6-0.8,1-1c0.4-0.2,0.8-0.3,1.3-0.3c0.8,0,1.4,0.3,1.9,0.8
	C430.6,423,430.8,423.7,430.8,424.7z M437.6,425.4h-1.2c-0.9,0-1.6,0.1-2,0.3c-0.4,0.2-0.5,0.6-0.5,1.1c0,0.4,0.1,0.8,0.4,1
	c0.3,0.2,0.7,0.4,1.1,0.4c0.6,0,1.2-0.2,1.6-0.7c0.4-0.5,0.6-1.1,0.6-1.8V425.4z M438.7,424.9v4.1h-1.2v-1.1c-0.3,0.4-0.6,0.8-1,1
	c-0.4,0.2-0.9,0.3-1.5,0.3c-0.7,0-1.3-0.2-1.7-0.6c-0.4-0.4-0.6-1-0.6-1.6c0-0.8,0.3-1.4,0.8-1.8c0.5-0.4,1.3-0.6,2.4-0.6h1.6v-0.1
	c0-0.5-0.2-1-0.5-1.2c-0.3-0.3-0.8-0.4-1.5-0.4c-0.4,0-0.8,0.1-1.2,0.1c-0.4,0.1-0.8,0.2-1.1,0.4v-1.1c0.4-0.2,0.8-0.3,1.2-0.4
	c0.4-0.1,0.8-0.1,1.2-0.1c1,0,1.8,0.3,2.3,0.8C438.5,423.1,438.7,423.9,438.7,424.9z"/>
<path id="Serchhip_1_" d="M407.4,255.3l-0.8,0.8c-0.2-0.5-0.4-0.9-0.6-1.2c-0.2-0.3-0.5-0.6-0.7-0.9c-0.5-0.4-0.9-0.7-1.4-0.7
	c-0.4-0.1-0.8,0.1-1.1,0.4c-0.3,0.3-0.4,0.6-0.3,0.9c0,0.3,0.2,0.7,0.6,1.2l0.4,0.6c0.5,0.7,0.8,1.4,0.8,2c0,0.6-0.2,1.1-0.7,1.7
	c-0.6,0.6-1.2,0.9-1.9,0.8c-0.7-0.1-1.5-0.5-2.3-1.2c-0.3-0.3-0.6-0.6-0.9-1c-0.3-0.4-0.5-0.8-0.8-1.3l0.8-0.9
	c0.2,0.5,0.4,1,0.6,1.4c0.2,0.4,0.5,0.8,0.9,1.1c0.5,0.5,1,0.7,1.4,0.8c0.5,0.1,0.8-0.1,1.2-0.5c0.3-0.3,0.4-0.7,0.4-1
	c0-0.4-0.2-0.8-0.6-1.3l-0.4-0.6c-0.5-0.7-0.8-1.4-0.9-1.9c0-0.5,0.2-1.1,0.6-1.6c0.5-0.6,1.1-0.8,1.8-0.8c0.7,0,1.4,0.4,2.1,1
	c0.3,0.3,0.6,0.6,0.9,0.9C406.9,254.5,407.1,254.9,407.4,255.3z M409.8,264.3l-0.4,0.4l-3.6-3.4c-0.5,0.6-0.7,1.1-0.7,1.7
	c0,0.6,0.3,1.1,0.8,1.6c0.3,0.3,0.6,0.5,1,0.7c0.4,0.2,0.7,0.3,1.2,0.5l-0.7,0.8c-0.4-0.1-0.8-0.3-1.1-0.5c-0.4-0.2-0.7-0.5-1-0.8
	c-0.8-0.7-1.2-1.5-1.2-2.4c0-0.9,0.3-1.7,1-2.4c0.7-0.8,1.5-1.2,2.4-1.3c0.9-0.1,1.6,0.2,2.4,0.9c0.6,0.6,1,1.3,0.9,2.1
	C410.8,262.8,410.5,263.6,409.8,264.3z M406.4,260.7l2.8,2.6c0.4-0.4,0.6-0.9,0.6-1.4c0-0.5-0.2-0.9-0.6-1.3
	c-0.4-0.4-0.9-0.6-1.4-0.6C407.4,260.1,406.9,260.3,406.4,260.7z M416,265.8l-0.8,0.8c0-0.1-0.1-0.3-0.2-0.4
	c-0.1-0.1-0.2-0.2-0.3-0.4c-0.4-0.4-0.9-0.6-1.4-0.5c-0.5,0.1-1,0.4-1.5,0.9l-2.4,2.5l-0.8-0.7l4.5-4.8l0.8,0.7l-0.7,0.8
	c0.4-0.1,0.9-0.2,1.2,0c0.4,0.1,0.8,0.3,1.2,0.7c0.1,0.1,0.1,0.1,0.2,0.2C415.9,265.6,416,265.7,416,265.8z M419.9,269.8l-0.7,0.7
	c-0.1-0.3-0.2-0.6-0.4-0.9c-0.2-0.3-0.4-0.5-0.6-0.7c-0.5-0.5-1.1-0.7-1.6-0.6c-0.6,0.1-1.1,0.4-1.7,1c-0.5,0.6-0.8,1.2-0.9,1.8
	c0,0.6,0.2,1.1,0.8,1.6c0.2,0.2,0.5,0.4,0.8,0.5s0.6,0.3,0.9,0.3l-0.7,0.7c-0.3-0.1-0.6-0.2-0.9-0.4c-0.3-0.2-0.6-0.4-0.8-0.6
	c-0.7-0.7-1.1-1.4-1.1-2.3c0-0.9,0.4-1.7,1.1-2.4c0.7-0.8,1.5-1.2,2.4-1.2c0.9,0,1.7,0.3,2.4,1c0.2,0.2,0.5,0.5,0.6,0.7
	C419.6,269.3,419.8,269.5,419.9,269.8z M423.6,276.5l-2.7,2.9l-0.8-0.7l2.7-2.9c0.4-0.5,0.7-0.9,0.7-1.3c0-0.4-0.1-0.8-0.5-1.1
	c-0.4-0.4-0.9-0.6-1.4-0.5c-0.5,0-1,0.3-1.4,0.8l-2.5,2.7l-0.8-0.7l6.2-6.7l0.8,0.7l-2.4,2.6c0.5-0.1,0.9-0.1,1.3,0
	c0.4,0.1,0.8,0.3,1.1,0.6c0.6,0.5,0.8,1.1,0.8,1.7C424.6,275.3,424.3,275.9,423.6,276.5z M429.2,281.7l-2.7,2.9l-0.8-0.7l2.7-2.9
	c0.4-0.5,0.6-0.9,0.7-1.3c0-0.4-0.1-0.7-0.5-1.1c-0.4-0.4-0.9-0.6-1.4-0.5c-0.5,0-1,0.3-1.4,0.8l-2.5,2.7l-0.8-0.7l6.2-6.7l0.8,0.7
	l-2.4,2.6c0.5-0.1,0.9-0.1,1.3,0c0.4,0.1,0.8,0.3,1.1,0.6c0.6,0.5,0.8,1.1,0.8,1.7C430.2,280.4,429.8,281.1,429.2,281.7z
	 M428.1,286.1l4.5-4.8l0.8,0.7l-4.5,4.8L428.1,286.1z M433.4,280.4l0.9-1l0.8,0.7l-0.9,1L433.4,280.4z M432,288.4l-2.4,2.5l-0.8-0.7
	l6.2-6.6l0.8,0.7l-0.7,0.7c0.4-0.1,0.8-0.2,1.2-0.1c0.4,0.1,0.8,0.3,1.1,0.6c0.6,0.5,0.8,1.2,0.8,2c-0.1,0.8-0.5,1.6-1.1,2.3
	c-0.7,0.8-1.5,1.2-2.2,1.3c-0.8,0.1-1.5-0.1-2.1-0.6c-0.4-0.3-0.6-0.7-0.7-1.1C431.9,289.2,431.9,288.8,432,288.4z M436.2,289.2
	c0.5-0.6,0.8-1.1,0.9-1.7c0.1-0.6-0.1-1-0.5-1.4c-0.4-0.4-0.9-0.5-1.4-0.4c-0.5,0.1-1.1,0.4-1.6,1c-0.5,0.6-0.8,1.2-0.9,1.7
	c-0.1,0.5,0.1,1,0.5,1.4c0.4,0.4,0.9,0.5,1.4,0.4C435.1,290.1,435.7,289.8,436.2,289.2z"/>
</svg>
