<svg version="1.2" baseProfile="tiny-ps" xmlns="http://www.w3.org/2000/svg" viewBox="0 0 1500 534" width="800" height="300">
	<title>Nagaland Map Chart-svg-svg</title>
	<style>
		tspan { white-space:pre }
		.shp0 { stroke: #000000;stroke-width: 0.4;stroke-dasharray: NaN } 
		.shp1 { stroke: #cccccc;stroke-width: 0;stroke-dasharray: NaN } 
	</style>
	<path id="Dimapur" class="shp0" d="M342.99 317.27L345.85 320.52L347.4 322.4L346.41 324.66L344.16 326.91L344.86 328.22L345.99 328.79L347.26 328.79L348.81 328.79L349.65 330.1L352.04 332.17L352.04 333.67L351.76 335.54L350.92 337.99L350.92 339.49L350.92 341.74L350.07 343.99L349.09 345.5L346.83 348.31L344.86 351.69L343.45 354.13L342.47 356.95L337.26 361.83L332.89 368.59L330.22 372.34L329.53 373.1L327.12 375.72L326.84 377.79L325.85 377.98L323.32 376.66L320.5 375.35L316.7 375.35L313.32 376.1L311.35 376.29L309.52 376.29L308.11 375.72L306.14 374.41L304.87 372.72L303.46 370.28L303.32 367.65L303.89 366.15L303.74 363.33L303.18 362.39L301.63 363.71L298.82 364.46L294.59 365.96L292.62 365.96L290.51 367.65L288.82 370.84L287.97 373.66L286.14 374.6L284.45 374.6L282.48 373.28L280.51 371.97L278.68 370.28L276.57 369.72L274.31 369.72L272.2 369.72L269.39 368.59L268.28 366.44L269.4 364.3L270.38 364.65L270.53 363.68L270.79 362.68L271.29 361.63L271.46 360.64L270.83 360.05L270.6 358.79L270.92 357.05L271.48 357.52L272.7 356.29L272.59 355.32L273.58 355.54L274.19 355.45L274.99 353.04L274.85 352.28L275.57 351.91L275.64 351.2L275.54 350.94L277.37 351.64L277.97 351.25L277.96 349.83L278.15 349.23L278.92 349.67L279.1 350.13L279.91 349.18L280.68 348.61L281.17 349.39L281.19 348.19L281.6 347.21L282.19 347.3L284.09 346.52L284.3 345.57L283.88 345.27L284.34 344.06L284.89 343.79L284.99 342.16L285.39 341.84L285.25 340.82L286 340.62L286.13 339.53L286.49 338.66L287.21 338.72L287.33 337.68L287.92 337.3L288.64 336.28L289.31 336.54L290.07 335.72L290.79 336.18L292.14 336.12L292.3 335.16L292.83 335.31L293.79 335.14L294.62 333.54L294.56 332.39L296.21 331.6L295.96 330.8L296.52 330.87L297.23 329.93L298.23 329.42L298.24 330.31L298.02 330.94L298.56 330.55L298.72 329.47L296.02 321.12L295.14 317.49L295.46 316.44L297.2 314.67L298.48 313.7L299.78 313.37L300.48 313.59L302.64 312.04L303.95 311.55L306.32 309.98L306.63 310.19L306.66 309.44L306.2 308.88L307.85 307.33L308.53 305.89L309.51 305.86L309.83 306.22L309.71 305.18L310.31 303.31L311.32 303.96L311.58 304.57L312.43 305.1L312.68 306.05L313.17 306.43L313.13 307.26L312.68 307.62L313.16 307.95L313.39 308.38L313.51 309.34L313.84 310.11L313.03 310.98L313.83 311.44L313.9 312.59L313.66 313.41L314.36 314.41L314.72 316.38L314.68 317.17L314.27 318.35L314.16 319.09L313.59 319.81L313.52 320.94L312.82 323.52L312.97 324.27L313.38 324.72L313.58 325.67L312.53 326.31L312.45 327.16L311.78 328.09L312.15 329.32L312.04 329.91L312.19 330.25L311.5 331.09L311.72 331.48L311.98 332.97L312.31 333.54L312.81 335.35L313.05 335.8L313.39 337.01L313.5 338.12L314.27 338.51L316.33 338.05L317.02 336.9L318.29 335.75L318.73 334.32L319.24 330.91L320.71 328.79L322.38 327.31L324.01 327.23L326.97 328.98L327.82 330.02L329.41 331.19L330.42 329.67L330.95 328.23L331.27 326.8L332.17 327.05L332.73 325.36L334.82 322.86L335.18 321.5L336.56 321L338.44 320.62L339.41 318.41L340.83 318.35L342.83 317.42L342.99 317.27Z" />
	<path id="Kiphire" class="shp0" d="M529.89 335.12L529.91 335.47L529.95 335.71L530.14 336.33L530.39 337.15L530.88 337.89L531.49 338.82L532.46 339.5L532.88 340.64L532.82 342.04L532.15 344.69L531.78 345.83L531.81 346.8L533.01 350.5L531.59 352.68L531.24 353.4L530.94 354L529.73 355.43L528.6 355.62L527.15 356.12L525.5 356.11L524.28 357.47L523.74 358.87L523.65 359.92L523.64 360.01L522.68 361.74L521.95 362.94L521.02 364.05L520.37 364.61L519.74 365.16L519.31 365.66L519.19 365.8L515.82 368.89L513.92 370.78L513 372.23L512.57 373.27L512.4 374.08L512.14 375.72L512 376.18L511.65 377.42L511.09 378.84L510.9 380.74L510.34 382.57L510.1 384.81L509.88 385.67L509.46 386.48L508.45 387.49L507.27 387.93L507.06 388.01L505.71 388.72L504.54 389.85L504.51 389.84L503.54 389.39L502.34 386.98L501.76 385.19L500.1 384.49L499.01 384.51L498.87 384.21L498.69 382.32L497.99 378.88L498.08 375.08L498.48 372.24L499.57 366.85L499.96 359.63L499.36 357.88L495.77 352.86L495.15 351.33L490.45 347.78L487.27 345.8L484.32 345.13L481.85 344.94L481.39 345.03L481.08 345.3L480.82 346.45L479.4 347.25L479.16 347.98L479.1 349.15L478.33 349.95L478 351.02L477.03 351.24L477.18 352.24L476.39 352.55L476.64 353.98L475.87 354.29L475.83 355.71L476.39 356.24L476.58 356.9L476.34 357.29L476.82 357.6L476.95 358.39L476.2 358.7L475.29 357.73L475.57 357.28L475.33 354.99L475.26 353.82L475.38 351.88L474.55 350.19L473.62 347.41L472.02 343.65L471.64 343.05L468.9 340.29L465.91 338.61L464.62 337.6L462.8 336.74L460.05 337.14L458.5 336.13L456.95 336.69L456.62 336.36L455.39 333.87L456.64 332.14L456.82 331.45L456.65 329.5L455.84 327.82L455.15 325.44L453.61 322.36L452.67 321.29L450.77 320.31L450.18 319.09L450.25 318.31L451.23 316.61L453.69 313.59L454.68 311.66L456.04 309.89L456.51 308.27L458.67 305.23L463.92 294.58L464.47 293.87L464.71 292.86L465.24 292.36L466.14 290.89L467.68 292.56L469.41 293.02L470.37 292.65L471.92 292.78L472.56 292.61L474.2 291L475.87 290.34L477.15 290.56L478.67 291.63L480.27 290.52L481.67 290.51L483.09 290.88L484.15 291.73L485.76 293.03L486.46 293.93L487.06 294.19L488.21 293.46L489.36 292.86L490.31 292.67L491.37 291.86L491.85 290.49L492.25 290.1L492.59 289.74L493.23 289.73L495.18 288.85L495.9 288.94L496.72 288.61L497.27 287.2L497.98 287.38L498.86 288.88L500.26 290.97L500.26 291.76L501.44 292.34L502.67 292.24L503.05 292.5L504.85 294.46L505.47 295.66L505.28 296.01L504.57 295.86L503.85 295.77L503.34 296.2L503.23 297.44L502.64 298.3L502.58 298.92L501.72 300.5L501.4 301.71L500.88 302.96L500.5 304.29L500.25 305.38L499.23 306.94L498.94 308.47L498.6 308.86L498.48 309.6L498.12 310.18L497.45 310.65L497.08 311.36L496.83 312.45L497.47 312.85L498.2 312.19L499.01 311.23L500.19 310.75L501.02 310.23L501.9 309.6L502.8 309.4L503.12 309.38L504.58 309.88L506.46 309.74L507.33 309.85L508.82 310.04L510.14 309.15L510.81 308.61L511.44 308.63L512.23 310.17L512.72 310.54L513.32 311.37L513.34 312.37L512.84 313.25L512.72 314.61L513.87 317.45L515.07 318.54L515.82 319.45L517.06 319.55L518.37 319.46L519.23 320.83L519.27 322.15L519.8 323.72L520.69 324.89L521.57 324.88L522.57 324.76L523.59 323.77L524.61 323.4L526.13 323.16L526.57 323.15L526.54 325.13L527.04 326.1L527.59 327.49L528.1 328.27L528.66 329.89L529.09 330.39L529.65 331.04L529.73 332.46L529.82 333.97L529.89 335.12Z" />
	<path id="Kohima" class="shp0" d="M340.27 396.92L340.79 395.34L340.77 394.51L340.1 393.27L339.8 391.97L339.84 390.93L338.75 390.3L338.11 390.28L337.05 389.99L335.72 388.9L335.49 388.43L335.3 387.96L335.21 386.8L335.19 386.58L335.26 385.65L335.3 385.21L335.47 384.85L336.09 384.43L336.67 384.06L337.64 383.9L338.23 383.31L338.38 382.61L338.43 382.01L338.82 381.73L339.13 381.22L339.14 380.56L338.81 380.13L338.51 379.93L338.22 379.57L338.22 379.01L338.42 378.76L338.82 378.32L338.85 378.04L338.83 377.66L338.41 377.67L336.97 376.67L335.8 376.43L334.75 375.69L333.83 375.58L331.71 374.5L331.11 374.53L329.53 373.1L330.22 372.34L332.89 368.59L337.26 361.83L342.47 356.95L343.45 354.13L344.86 351.69L346.83 348.31L349.09 345.5L350.07 343.99L350.92 341.74L350.92 339.49L350.92 337.99L351.76 335.54L352.04 333.67L352.04 332.17L349.65 330.1L348.81 328.79L347.26 328.79L345.99 328.79L344.86 328.22L344.16 326.91L346.41 324.66L347.4 322.4L345.85 320.52L342.99 317.27L344.45 315.98L344.94 314.56L346.23 314.07L346.8 312.54L347.81 312.74L349.09 312.72L349.61 311.55L348.39 311.07L348.36 310.67L348.97 310.75L349.25 310.99L349.84 310.62L350.73 310.99L351.33 310.14L352.71 309.26L356.25 308.74L357.99 308.31L358.98 307.21L360.36 306.12L361.2 305.01L361.87 305.2L363.6 303.16L364.56 302.96L365.26 302.52L366.89 298.91L367.54 298.26L368.48 297.72L370.07 297.62L371.73 296.95L373.59 296.76L377.34 299.68L378.57 300.38L379.27 300.39L379.95 299.81L380.4 298.95L382.36 297.23L382.98 297.11L383.64 297.31L384.48 295.81L385.24 294.15L386.27 293.29L387.04 291.58L386.87 290.57L387.43 289.82L388.01 288.61L388.52 289.18L389.11 290.44L390.28 291.96L391.46 293.15L392.11 293.4L394.88 292.58L396.08 292.66L397.51 291.94L397.51 296.1L397.87 299.91L398.94 303.41L399.77 306.11L400.13 308.33L399.53 310.56L396.91 313.42L392.98 314.37L390.6 316.91L387.85 320.89L387.5 323.59L388.57 326.93L391.91 331.22L393.93 334.87L396.44 337.73L398.86 340.6L398.43 341.44L396.76 345.39L395.83 348.73L395.02 350.73L393.53 353.51L391.36 358.43L390.41 361.33L390.16 364.15L389.54 365.53L388.21 367.34L387.95 367.93L387.48 369.71L387.8 371.08L387.95 373.43L388.34 373.9L388.42 374.96L387.73 379.22L387.28 379.58L386.86 379.64L386.63 383.13L386.96 383.79L387.23 383.9L387.37 384.83L386.59 387.6L386.01 388.45L385.09 390.27L383.92 393.56L383.75 395.16L384.59 397.97L383.88 399.15L383.73 399.29L383.21 399.63L381.63 399.1L381.07 399.81L379.04 400.55L378.28 399.87L377.68 398.64L376.43 400.36L376.24 401.75L375.61 404.1L375.09 405.04L373.96 405.96L372.18 405.45L368.28 404.75L365.85 403.86L365.92 402.65L366.56 401.78L366.35 400.68L364.78 397.6L363.75 397.16L361.9 397.77L361.08 396.06L359.24 393.64L357.82 392.67L357.41 393.48L356.61 392.93L356.63 392.19L356.42 392.45L355.89 392.55L355.63 391.8L354.56 391.04L354.26 389.79L352.38 389.15L351.63 389.32L351.15 390.35L351.18 391.15L351.86 393.1L351.96 393.98L351.84 394.58L351.63 394.91L351.11 395.25L349.92 394.31L346.42 394.92L345.96 396.1L345.06 397.26L343.76 398.33L342.4 398.29L340.27 396.92Z" />
	<path id="Longleng" class="shp0" d="M487.45 109.44L488.83 109.92L489.8 109.72L490.61 109.77L491.5 110.57L491.34 111.67L491.95 112.43L492.21 113.32L490.52 114.18L489.37 114.45L488.52 115.13L488.7 116.1L489.93 115.76L490.28 116.21L490.05 117.1L489.58 117.55L490.9 121.39L491.34 121.83L492.02 121.77L492.64 122.31L493.69 124.41L493.86 125.22L495.17 127.15L495.3 127.68L493.97 129.19L491.83 132.47L490.61 132.77L490.42 133.64L489.99 133.76L488.7 133.21L487.24 132.15L486.44 132.14L486.41 133.15L487.44 134.72L487.59 135.57L487.09 136.71L486.57 137.39L486.42 138.53L486.7 139.34L486.69 139.97L486.09 141.95L486.76 142.15L487.41 143.21L487.31 145.1L487.53 146.86L488.23 147.99L489.34 147.88L490.19 148.23L491.26 149.21L494.76 149.9L495.89 150.4L497.25 151.58L499.27 152.46L500.57 152.1L502.24 152.67L502.99 152.66L503.72 152.08L504.78 152.36L504.86 153.65L505.54 154.16L504.96 156.18L504.57 156.82L505.79 156.65L503.86 159.37L503.73 160.61L504.08 161.88L504.56 162.9L504.17 163.42L505.06 164.18L504.4 165.48L504.6 166.44L505.18 167.46L505.48 170.38L506.04 172.03L505.7 172.86L505.65 174.1L505.67 175.05L506.04 176.22L506.35 177.04L505.58 178.69L505.53 179.8L506.08 181.73L505.43 182.91L506.28 184.87L506.87 185.84L507.41 187.79L506.89 190.69L507.05 192.04L508.54 193.31L508.56 193.31L508.79 194.63L510.6 197.28L512.4 200.17L512.58 201.62L511.5 204.75L511.5 207.24L510.9 207.4L510.22 207.77L509.35 208.35L509.4 209.16L508.52 209.05L508.29 208.85L507.4 209.35L506.56 209.24L505.13 208.25L503.3 207.91L501.96 207.74L499.71 208.37L497.2 207.14L495.49 205.5L493.98 204.4L493.17 202.98L492.61 201.69L491.9 201.09L491.31 200.1L490.5 199.69L489.47 198.96L487.65 196.59L487.06 196.52L485.38 194.48L484.61 194.59L484.14 193.21L483.79 192.35L483.48 191.1L482.83 189.8L482.17 189.71L481.18 189.38L480.18 189.26L478.87 189.7L478.2 189.62L477.49 190.04L477.1 190.6L475.44 191.2L474.68 191.2L473.64 192.12L473.02 190.1L473.17 189.03L472.05 185.5L470.57 183.76L470.38 182.93L471.03 179.8L471.12 178.25L470.66 176.67L470.16 172.61L472.13 169.25L474.09 166.65L476.64 162.49L477.01 160.98L477.07 158.94L477.83 157.61L478.08 156.04L477.64 153.94L475.97 152.61L475.74 151.51L475.93 150.21L475.26 148.85L473.66 146.5L469.8 145.29L468.04 144.13L467.2 144.11L466.46 143.83L466.94 142.99L470.92 140.26L471.67 139.33L473.31 137.77L474.9 136.48L475.12 135.44L476.2 133.14L476.34 132.53L478.17 132.09L479.93 132.28L480.75 131.38L480.68 128.04L480.52 126.66L479.72 124.8L480.19 124.09L481.36 125.15L482.05 125.19L481.79 123.97L481.09 122.8L478.62 120.55L478.56 118.81L478.22 117.01L478.9 115.91L479.02 114.74L479.62 113.92L480.48 114.5L481.06 115.74L481.46 116.21L481.98 115.78L482.1 115.2L482.5 114.44L483.54 113.63L483.67 111.84L484.37 110.95L486.55 110.11L487.45 109.44Z" />
	<path id="Mokokchung" class="shp0" d="M473.64 192.12L473.65 192.15L472.77 195.5L472.65 196.81L472.74 198.42L471.82 198.85L471.31 198.91L470.58 199.65L470.37 200.16L469.94 200.58L469.71 201.92L467.92 204.95L467.07 205.33L466.53 206.35L465.83 206.28L465.12 206.86L465.7 207.93L465.62 208.5L464.19 210.28L463.86 211.5L463.83 212.29L464.07 213.32L463.76 213.46L463.5 215.02L462.99 215.28L461.57 216.63L460.32 216.57L459.77 216.71L459.32 217.58L458.4 218.14L456.22 220.09L454.26 222.57L453.84 223.8L453.21 224.92L452.36 224.58L451.5 226.84L449.5 227.09L448.66 228.36L448.22 229.4L448.43 231.47L448.38 232.85L448.18 233.52L448.27 234.8L450.26 237.78L450.71 238.8L452.23 239.45L452.38 241.21L452.31 242.91L452.1 243.43L450.81 244.56L450.18 245.48L448.99 246L447.71 246.9L445.68 247.17L444.31 246.05L443.01 243.78L442.27 244.93L441.09 245.26L439.2 244.9L437.91 244.89L437.13 244.39L436.98 243.23L437.5 242.29L437.41 241.45L437.57 240.97L439.08 240.15L439.42 239.74L439.25 238.97L438.76 238.36L438.48 237.24L437.68 235.64L437.24 232.98L436.84 231.82L436.83 231.78L435.65 230.72L435.14 229.32L435.08 227.97L434.83 226.92L432.97 227.52L432.64 228.41L432.5 230.24L431.8 230.9L430.49 233.75L429.14 237.7L429.61 239.27L428.92 241.67L428.25 242.74L427.69 244.49L427.77 246.02L427.02 246.81L425.94 246.93L422.12 245.21L421.29 245.11L418.72 247.49L417.46 248.45L416.17 249.11L414.28 249.61L414.92 248.94L416.33 246.42L417.55 243.09L417.33 241.72L416.78 241.39L415.73 241.32L414.84 240.44L413.07 239.18L412.55 238.25L411.76 237.97L410.54 238.26L409.55 238.8L409.14 238.85L408.66 238.14L409.04 237.4L409.63 237.08L410.41 236.36L410.93 235.61L412.47 232L412.64 231.14L412.63 230.26L412.23 227.06L412.16 224.8L411.72 222.57L411.69 221.19L413.84 216.94L413.65 215.96L413.3 215.96L412.31 216.23L411.96 217.14L411.24 217.49L410.77 217.08L410.78 216.54L411.7 214.32L412.36 211.28L411.82 209.57L411.58 208.2L410.47 206.66L409.84 206.25L409.54 205.84L408.06 204L407.49 202.35L407.32 201.23L406.87 200.96L406.61 201.44L404.89 203.22L403.75 205.33L403.03 206.18L402.8 205.78L403.09 203.27L402.74 201.95L402 200.59L401.37 199.89L400.92 198.92L400.72 197.25L402.23 193.03L403.91 190.58L404.96 188.72L404.9 188L406.26 186.2L406.34 185.85L406.19 184.18L407.13 183.15L407.7 182.87L408.46 182.92L409.59 181.71L410.67 181.06L411.09 180.38L411.05 179.58L411.35 178.9L411.7 178.6L411.38 178.28L410.93 177.4L411.53 177.01L412.26 177.28L413.25 177L414.08 177.08L415.54 176.35L415.62 175.41L415.42 174.02L415.65 173.54L417.94 171.78L418.41 171.82L418.84 172.5L419.34 171.9L419.25 171.38L419.87 170.39L419.67 169.17L419.9 168.52L420.61 168.2L420.82 167.86L420.76 167.24L420.27 166.58L420.5 166.08L421 166.14L421.52 165.83L421.28 165.33L420.79 165.14L421.06 163.39L421.5 162.36L422.02 160.07L420.48 155.74L420.93 153.92L420.8 152.87L421.16 152.38L425.44 150.3L428.92 147.14L429.32 147.69L430.31 147.96L430.72 147.21L430.65 146.82L430.17 146.02L430.13 145.03L429.63 143.35L430.2 141.53L430.67 140.52L431.26 139.99L434.36 139.09L435.59 139.42L436.54 139.09L436.84 138.75L437.36 138.16L438.08 136.93L438.57 136.83L439.54 135.93L440.26 134.24L440.34 132.65L440.8 131.97L441.67 132.69L443.95 130.75L444.68 130.46L445.61 130.62L446.36 131.03L447.48 131.1L447.88 131.27L448.11 131.59L447.69 134.42L447.8 135.16L448.34 135.32L449.17 135.29L449.84 135.07L449.28 133.86L451.25 131.69L451.7 132.22L452.33 132.42L452.92 132.35L453.36 131.47L453.38 130.12L453.58 128.77L453.95 128.36L454.89 129.23L455.06 128.99L455.05 128.38L454.8 127.46L454.33 127.12L453.08 126.92L453.41 126.05L454.23 124.23L454.97 123.87L456 123.68L456.06 124.66L456.32 125.41L457.27 125.9L457.75 126.78L457.91 128.07L458.2 128.45L459.17 128.66L459.81 128.43L461.26 127.42L462.29 127.3L463.54 127.5L464.43 127.23L465.58 126.54L469.32 125.42L470.17 124.69L471.11 123.77L473.63 120.73L475.08 119.52L477.2 118.13L478 117.34L478.22 117.01L478.56 118.81L478.62 120.55L481.09 122.8L481.79 123.97L482.05 125.19L481.36 125.15L480.19 124.09L479.72 124.8L480.52 126.66L480.68 128.04L480.75 131.38L479.93 132.28L478.17 132.09L476.34 132.53L476.2 133.14L475.12 135.44L474.9 136.48L473.31 137.77L471.67 139.33L470.92 140.26L466.94 142.99L466.46 143.83L467.2 144.11L468.04 144.13L469.8 145.29L473.66 146.5L475.26 148.85L475.93 150.21L475.74 151.51L475.97 152.61L477.64 153.94L478.08 156.04L477.83 157.61L477.07 158.94L477.01 160.98L476.64 162.49L474.09 166.65L472.13 169.25L470.16 172.61L470.66 176.67L471.12 178.25L471.03 179.8L470.38 182.93L470.57 183.76L472.05 185.5L473.17 189.03L473.02 190.1L473.64 192.12Z" />
	<path id="Mon" class="shp0" d="M565.22 136.17L564.68 136.91L564.18 138.18L563.56 139.23L563.45 139.48L562.98 140.52L562.06 142.12L561.26 143.27L560.38 144.24L560.03 144.54L559.75 144.79L558.15 145.2L557.15 145.12L555.54 146.15L554.2 148.26L553.7 149.21L552.54 150.02L551.95 150.43L551.42 150.8L550.79 151.67L550.62 153.97L550.4 155.76L550.35 156.75L550.5 157.67L551.05 159.25L550.75 160.65L550.11 161.57L549.75 162.09L549.01 163.64L549 164.63L549 164.77L548.71 164.94L547.98 165.36L547.16 164.93L545.93 164.93L545.56 166.26L544.98 167.11L543.84 168.26L544.13 169L544.58 170.2L544.88 171.4L544.88 172.48L543.56 175.06L543.44 175.13L542.46 175.81L541.88 176.41L542.07 177.29L541.69 178.66L540.57 179.75L539.7 180.65L539.16 181.56L538.49 182.66L538.14 183.21L537.86 183.63L537.65 183.9L537.09 184.58L537.05 185L536.99 185.58L536.45 186.4L536.39 186.49L535.83 187.13L535.56 188.32L535.4 189.43L535.42 190.91L536.34 190.91L536.93 190.44L537.14 190.4L538.07 190.25L539.01 190.54L539.62 191.64L540.71 193.46L541.26 194.24L541.53 195.02L542.34 195.64L542.78 197.1L542.61 198.24L542.28 199.12L542.22 200.04L542.13 201.1L542.1 202.31L545.04 203.06L545.63 203.65L546.64 204.78L547.49 205.43L547.52 206.49L547.29 208.25L546.82 210.33L546.44 211.41L546.19 213.12L546.78 215.02L547.09 215.92L546.06 217.48L546.15 218.69L546.18 219.02L544.75 219.44L540.23 219.2L534.81 221.85L531.2 223.78L529.03 227.39L527.4 228.36L525.23 228.36L522.52 225.71L519.27 225.23L516.92 225.23L514.21 222.82L512.95 220.17L513.13 217.03L514.57 214.87L515.11 212.46L515.11 210.53L513.85 208.6L511.68 208.36L511.5 207.64L511.5 207.24L511.5 204.75L512.58 201.62L512.4 200.17L510.6 197.28L508.79 194.63L508.56 193.31L508.54 193.31L507.05 192.04L506.89 190.69L507.41 187.79L506.87 185.84L506.28 184.87L505.43 182.91L506.08 181.73L505.53 179.8L505.58 178.69L506.35 177.04L506.04 176.22L505.67 175.05L505.65 174.1L505.7 172.86L506.04 172.03L505.48 170.38L505.18 167.46L504.6 166.44L504.4 165.48L505.06 164.18L504.17 163.42L504.56 162.9L504.08 161.88L503.73 160.61L503.86 159.37L505.79 156.65L504.57 156.82L504.96 156.18L505.54 154.16L504.86 153.65L504.78 152.36L503.72 152.08L502.99 152.66L502.24 152.67L500.57 152.1L499.27 152.46L497.25 151.58L495.89 150.4L494.76 149.9L491.26 149.21L490.19 148.23L489.34 147.88L488.23 147.99L487.53 146.86L487.31 145.1L487.41 143.21L486.76 142.15L486.09 141.95L486.69 139.97L486.7 139.34L486.42 138.53L486.57 137.39L487.09 136.71L487.59 135.57L487.44 134.72L486.41 133.15L486.44 132.14L487.24 132.15L488.7 133.21L489.99 133.76L490.42 133.64L490.61 132.77L491.83 132.47L493.97 129.19L495.3 127.68L495.17 127.15L493.86 125.22L493.69 124.41L492.64 122.31L492.02 121.77L491.34 121.83L490.9 121.39L489.58 117.55L490.05 117.1L490.28 116.21L489.93 115.76L488.7 116.1L488.52 115.13L489.37 114.45L490.52 114.18L492.21 113.32L491.95 112.43L491.34 111.67L491.5 110.57L490.61 109.77L489.8 109.72L488.83 109.92L487.45 109.44L488.18 108.91L489.44 108.37L489.99 106.95L489.33 106.57L488.47 105.48L490.22 104.85L490.65 104.38L491.33 104.03L491.68 102.81L491.74 101.24L491.96 100.16L492.72 99.37L492.84 98.34L492.72 97.14L493.63 96.02L494.67 95.23L495.4 93.89L495.8 92.61L497.03 91.96L498.02 90.9L498.34 89.98L499.32 88.13L500.42 84.97L501 84.28L501.17 83.09L503.25 80.37L504.06 79.04L505.5 77.91L506.68 77.21L507.99 76.76L508.87 76.69L509.59 76.1L510.59 74.89L511.36 74.48L512.31 77.63L513.17 77.76L513.63 77.46L514.65 77.24L516.43 76.47L517.63 77.14L518.08 78.18L518.28 79.27L518.76 79.99L519.38 80.17L520.32 80.86L521.37 82.34L522.03 82.44L522.48 82.31L522.33 81.25L522.65 80.5L523.77 80.94L524.87 80.8L526.75 80.92L527.58 80.68L528.83 79.03L530.48 77.64L533.37 77.09L535.23 75.39L538.98 74.33L543.02 71.05L543.57 69.79L543.62 68.57L544.22 67.15L545.86 66.4L547.7 64.86L548.71 63.76L549.88 63.4L550.75 61.97L557.89 53.4L557.94 55.82L558.3 58.76L558.26 59.73L558.69 61.92L558.64 63.52L558.02 63.88L557.84 65.69L558.75 66.72L560.02 66.92L560.41 67.4L559.58 67.5L559.81 68.28L560.2 69.15L561.29 70.24L561.05 70.76L560.21 71.41L559.85 72.05L560.15 72.48L561.01 72.93L560.28 73.42L560.79 76.51L561.19 78L561.64 78.64L563.12 78.58L563.77 79.46L564.22 80.51L564.58 81.79L564.58 82.22L564.23 82.42L564.26 83.13L564.61 84.33L564.55 85.2L564.12 86.96L564.56 88.7L563.88 89.9L561.77 89.62L560.91 89.91L560.65 90.81L559.79 91.71L555.97 94.73L556.19 95.94L557.46 97.9L557.91 98.26L558.21 98.32L558.27 97.82L559.41 98.42L560.17 98.01L559.79 99.04L558.76 99.83L558.51 100.51L558.77 102.15L559.12 103.11L559.29 104.83L559.86 107.07L561.3 110.16L562.43 111.28L563.45 111.56L564.77 112.26L565.68 112.29L565.93 112.81L566.49 112.72L566.08 113.37L564.71 114.34L564.18 114.96L564.47 115.88L564.45 116.29L563.75 117.1L562.86 118.66L562.17 119.1L562.02 120.09L562.39 121.03L562.32 121.98L561.6 123.4L561.48 124.79L563.58 127.45L563.83 129.07L564.96 130.15L564.54 133.66L564.93 134.95L564.93 135.72L565.22 136.17Z" />
	<path id="Peren" class="shp0" d="M233.51 400.6L233.8 400.08L235.17 398.73L235.9 397.27L236.39 396.79L237.45 396.33L238.55 397.43L239.16 397.38L239.47 396.78L239.33 395.27L240.07 395.15L240.76 395.41L241.21 394.97L241.36 394.35L241.3 393.52L242.38 393.78L242.73 393.38L242.79 392.61L242.45 392.24L242.33 391.79L243.76 390.78L243.66 389.48L245.42 389.11L246.58 389.07L247 388.16L247.07 387.3L246.65 386.75L246.72 386.07L246.97 385.54L247.53 385.08L248.31 384.8L247.98 384.39L248.57 383.36L249.3 383.09L250.18 380.95L250.79 381.48L251.34 381.32L252.19 380.75L252.21 380.27L252.62 380.18L253.12 379.42L253.53 379.25L254.08 380.15L254.44 379.55L255.72 380.56L256.17 380.5L256.05 379.77L255.59 379.34L255.33 378.83L255.95 378.61L256.8 378L257.32 378.1L258.4 377.97L258.61 377.12L259.9 377.63L259.94 376.24L260.57 376.54L261.18 375.85L261.09 375.26L261.74 375.43L262.78 375.14L263.16 373.86L264.24 372.75L264.57 371.77L266.33 368.84L266.17 368.3L265.73 367.81L266.75 366.62L267.31 365.12L267.76 366.49L268.12 366.74L268.28 366.44L269.39 368.59L272.2 369.72L274.31 369.72L276.57 369.72L278.68 370.28L280.51 371.97L282.48 373.28L284.45 374.6L286.14 374.6L287.97 373.66L288.82 370.84L290.51 367.65L292.62 365.96L294.59 365.96L298.82 364.46L301.63 363.71L303.18 362.39L303.74 363.33L303.89 366.15L303.32 367.65L303.46 370.28L304.87 372.72L306.14 374.41L308.11 375.72L309.52 376.29L311.35 376.29L313.32 376.1L316.7 375.35L320.5 375.35L323.32 376.66L325.85 377.98L326.84 377.79L327.12 375.72L329.53 373.1L331.11 374.53L331.71 374.5L333.83 375.58L334.75 375.69L335.8 376.43L336.97 376.67L338.41 377.67L338.83 377.66L338.85 378.04L338.82 378.32L338.42 378.76L338.22 379.01L338.22 379.57L338.51 379.93L338.81 380.13L339.14 380.56L339.13 381.22L338.82 381.73L338.43 382.01L338.38 382.61L338.23 383.31L337.64 383.9L336.67 384.06L336.09 384.43L335.47 384.85L335.3 385.21L335.26 385.65L335.19 386.58L335.21 386.8L335.3 387.96L335.49 388.43L335.72 388.9L337.05 389.99L338.11 390.28L338.75 390.3L339.84 390.93L339.8 391.97L340.1 393.27L340.77 394.51L340.79 395.34L340.27 396.92L339.99 396.74L337.66 396.28L335.78 396.6L335.39 395.97L334.31 395.79L333.26 395.81L332.45 395.51L331.01 395.58L328.65 397.07L325.84 398.11L324.11 397.85L322.7 397.14L321.36 396.82L320.83 397.22L320.8 398.36L319.37 398.46L319.07 400.28L318.44 401.16L317.78 400.91L316.37 401.13L311.44 402.63L310.1 401.99L309.9 402.11L309.96 403.1L309.6 404.33L309.47 405.59L309.67 407.35L308.79 407.87L309.05 411.48L309.67 412.21L310.38 411.96L313 409.95L314.53 410.44L315.71 411.68L316.33 412.49L317.43 415L316.57 419.44L315.92 419.95L315.43 420.65L314.72 422.15L313.92 423.37L313.3 424.6L312.94 426.34L312.31 427.25L311.62 427.82L311.71 428.93L308.82 430.46L308.11 431.39L305.73 433.34L304.91 434.68L304.58 435.78L304.79 437.11L304.53 438.28L303 439.22L301.63 440.33L300.91 441.54L300.74 443.57L299.62 444.39L297.6 444.08L296.35 443.58L296.12 446.87L295.36 450.63L294.81 450.99L292.74 451.21L293.07 453.86L292.89 455.2L291.7 455.95L291.47 456.89L291.62 458.23L289.18 462.74L289.14 463.98L288.89 465.04L287.78 465.79L287.7 467.15L286.83 469.38L285.75 471.12L285.23 472.78L283.88 475.29L282.39 479.64L281.59 480.6L280.95 480.07L280.38 480.52L279.69 480.08L278.99 480.17L278.96 479.53L279.3 478.49L278.8 477.85L278.51 476.45L278.12 475.93L277.74 475.9L277.01 475.04L276.41 475.11L275.82 474.68L275.11 473.55L275 472.81L273.78 470.26L272.32 469.35L271 469.82L269.97 470.55L267.9 469.85L266.38 469.76L265.65 470.69L264.26 470.93L263.69 470.83L263.52 468.69L264.67 463.53L263.56 463.49L261.91 462.81L260.63 463.46L259.9 463.29L258.75 462.73L258.02 461.25L258.38 459.63L258.47 457.94L258.27 455.72L257.22 454.67L256.38 453.26L255.26 452.01L255.48 450.9L256.17 449.38L255.47 448.37L254.42 447.62L254.74 446.7L256.24 444.21L256.92 443.54L259 439.33L258.84 437.91L258.26 436.26L257.08 433.95L256.4 432.12L256.77 430.98L256.73 429.23L256.16 426.61L255.29 424.93L252.98 422.92L251.47 421.95L250.18 421.84L249.22 421.95L248.37 422.41L245.9 420.93L244.68 419.78L243.72 418.61L243.98 417.44L243.83 416.55L243.88 415.77L243.74 414.79L243.14 413.71L243.02 413L242.44 412.02L240.49 411.2L240.37 410.26L239.63 409.63L239.3 409.1L239.62 408.47L239.25 407.71L238.44 406.74L238 405.04L237.42 404.22L236.72 403.64L237.1 402.74L236.55 402.56L235.74 403.09L235.02 402.8L234.21 400.92L233.51 400.6Z" />
	<path id="Phek" class="shp0" d="M383.73 399.29L383.88 399.15L384.59 397.97L383.75 395.16L383.92 393.56L385.09 390.27L386.01 388.45L386.59 387.6L387.37 384.83L387.23 383.9L386.96 383.79L386.63 383.13L386.86 379.64L387.28 379.58L387.73 379.22L388.42 374.96L388.34 373.9L387.95 373.43L387.8 371.08L387.48 369.71L387.95 367.93L388.21 367.34L389.54 365.53L390.16 364.15L390.41 361.33L391.36 358.43L393.53 353.51L395.02 350.73L395.83 348.73L396.76 345.39L398.43 341.44L398.86 340.6L401.32 341.55L403.11 344.25L405.73 342.66L413.24 337.73L424.8 331.69L429.57 330.9L430.95 330.9L431.53 333.41L431.93 333.64L433.39 333.36L435.69 333.33L436.47 333.64L436.84 334.09L437.83 335.28L439.42 336.2L439.98 336.95L440.38 336.66L440.72 335.74L441.21 335.41L442.29 335.63L445.08 338.38L445.01 340.18L444.26 341.83L443.4 344.32L444.38 345.1L444.89 344.99L447.25 345.77L448.78 345.81L453.01 345.19L453.2 345.35L454.01 345.28L454.91 345.77L455.09 346.23L456.2 345.83L456.77 345.24L457.71 346.03L458.64 347.44L459.92 347.99L461.39 348.04L462.23 347.37L462.82 346.46L463.95 345.96L465.41 346.14L469.87 349L472.17 350.06L473.98 350.33L474.55 350.19L475.38 351.88L475.26 353.82L475.33 354.99L475.57 357.28L475.29 357.73L476.2 358.7L476.95 358.39L476.82 357.6L476.34 357.29L476.58 356.9L476.39 356.24L475.83 355.71L475.87 354.29L476.64 353.98L476.39 352.55L477.18 352.24L477.03 351.24L478 351.02L478.33 349.95L479.1 349.15L479.16 347.98L479.4 347.25L480.82 346.45L481.08 345.3L481.39 345.03L481.85 344.94L484.32 345.13L487.27 345.8L490.45 347.78L495.15 351.33L495.77 352.86L499.36 357.88L499.96 359.63L499.57 366.85L498.48 372.24L498.08 375.08L497.99 378.88L498.69 382.32L498.87 384.21L499.01 384.51L500.1 384.49L501.76 385.19L502.34 386.98L503.54 389.39L504.51 389.84L504.54 389.85L504.53 389.91L504.57 390.07L504.49 390.11L504.32 391.12L505.05 392.42L505.95 393.5L507.18 394.94L507.33 395.88L504.34 396.28L499.24 396.74L498.94 396.74L498.88 396.76L498.28 396.77L497.75 397.33L497.66 397.37L497.41 397.69L496.61 398.52L495.47 399.74L494.96 400.61L494.24 402.55L494.22 403.37L494.21 403.8L494.07 404.93L493.46 406.6L492.9 407.47L492.58 408.28L492.3 409.87L491.76 411.47L491.23 412.53L490.08 413L488.55 412.91L487.28 413.5L486.36 413.74L485.39 415.11L484.31 415.8L483.32 415.54L482.88 414.84L482.5 413.43L481.51 413.31L481.35 414.01L481.29 414.27L480.62 415.52L479.74 416.3L478.47 416.85L477.03 417.33L475.44 417.85L474.2 418.19L472.07 418.74L471.81 418.77L470.9 418.85L469.67 419.46L468.59 420.8L466.39 421.82L465.73 421.81L464.47 421.42L464.07 421.06L462.64 420.36L459.98 419.43L458.66 418.63L455.55 415.53L453.79 414.65L453.35 414.21L452.65 413.84L452.02 413.21L451.64 412.18L449.82 410.24L448.71 409.93L446.83 408.49L447.11 405.81L447.5 404.34L446.98 403.36L447.89 402.25L447.26 400.85L447.79 399.97L447.52 397.42L448.09 395.69L447.35 395.68L447.55 393.28L446.54 391.54L447.21 389.62L448.18 387.65L448.49 387.3L448.78 386.44L449.51 385.63L450.23 383.52L450.5 382.16L451.42 380.25L452.59 378.91L453.3 378.35L453.41 378.08L451.97 377.44L450.08 377.88L450.28 377.04L450.2 375.99L451 374.93L451.12 374.19L451.67 373.92L451.36 373.12L451.74 372.01L452.05 371.59L451.69 370.88L452.18 370.32L452.5 369.4L453.71 368.08L453.48 367.07L451.99 366.93L451.28 366.62L450.52 365.97L449.55 365.59L448.67 366.85L448.17 369.5L445.93 372.61L445.85 373.76L444.63 374.9L443.72 376.4L442.33 376.62L442.18 378.37L441.75 377.97L441.05 378.17L439.37 381.18L438.74 381.31L438.35 382.01L438.2 383.85L437.77 384.31L437.16 383.61L436.84 383.88L436.83 383.88L436.72 384.42L435.69 384.93L435.29 383.92L435.31 383.66L432.32 383.23L428.01 388L427.76 388.71L427.14 389.18L426 389.21L424.66 389.94L423.9 392.55L423.33 393.82L423.8 394.52L424.03 397.2L423.89 399.18L422.96 401.56L422.36 401.73L421.33 401.36L420.22 401.97L417.44 402.97L413.29 406.47L407.08 409.52L405.63 411.62L404.39 412.74L403.59 412.9L402.49 412.7L401.86 411.29L400.42 409.25L399.72 408.74L398.53 410.19L397.53 410.76L396.28 410.89L394.59 410.66L393.69 411.67L390.15 411.85L389.7 412.38L388.63 412.21L388.08 411.54L387.21 411.4L386.86 410.8L386.88 409.56L385.83 408.76L385.82 408.22L384.5 406.17L383.01 404.31L382.91 403.42L383.57 401.67L383.73 399.29Z" />
	<path id="Tuensang" class="shp0" d="M466.14 290.89L466.82 290.06L468.02 287.59L469.33 285.78L470.83 284.51L471.62 283.59L472.73 282L471.93 278.34L471.13 277.22L470.62 273.5L470.04 271.36L470.11 270.1L469.79 266.78L469.91 264.1L470.32 262.08L472.04 259.43L472.37 257.89L472.53 254.13L471.8 254.34L471.38 252.01L470.54 249.31L468.64 247.83L467.33 245.93L466.29 245.64L465.05 247.11L464.07 246.78L462.62 244.6L461.72 243.53L460.36 245.96L459.54 247.01L458.24 247.98L456.74 248.37L455.95 248.25L455.35 248.04L453.79 246.56L452.32 244.53L452.1 243.43L452.31 242.91L452.38 241.21L452.23 239.45L450.71 238.8L450.26 237.78L448.27 234.8L448.18 233.52L448.38 232.85L448.43 231.47L448.22 229.4L448.66 228.36L449.5 227.09L451.5 226.84L452.36 224.58L453.21 224.92L453.84 223.8L454.26 222.57L456.22 220.09L458.4 218.14L459.32 217.58L459.77 216.71L460.32 216.57L461.57 216.63L462.99 215.28L463.5 215.02L463.76 213.46L464.07 213.32L463.83 212.29L463.86 211.5L464.19 210.28L465.62 208.5L465.7 207.93L465.12 206.86L465.83 206.28L466.53 206.35L467.07 205.33L467.92 204.95L469.71 201.92L469.94 200.58L470.37 200.16L470.58 199.65L471.31 198.91L471.82 198.85L472.74 198.42L472.65 196.81L472.77 195.5L473.65 192.15L473.64 192.12L474.68 191.2L475.44 191.2L477.1 190.6L477.49 190.04L478.2 189.62L478.87 189.7L480.18 189.26L481.18 189.38L482.17 189.71L482.83 189.8L483.48 191.1L483.79 192.35L484.14 193.21L484.61 194.59L485.38 194.48L487.06 196.52L487.65 196.59L489.47 198.96L490.5 199.69L491.31 200.1L491.9 201.09L492.61 201.69L493.17 202.98L493.98 204.4L495.49 205.5L497.2 207.14L499.71 208.37L501.96 207.74L503.3 207.91L505.13 208.25L506.56 209.24L507.4 209.35L508.29 208.85L508.52 209.05L509.4 209.16L509.35 208.35L510.22 207.77L510.9 207.4L511.5 207.24L511.5 207.64L511.68 208.36L513.85 208.6L515.11 210.53L515.11 212.46L514.57 214.87L513.13 217.03L512.95 220.17L514.21 222.82L516.92 225.23L519.27 225.23L522.52 225.71L525.23 228.36L527.4 228.36L529.03 227.39L531.2 223.78L534.81 221.85L540.23 219.2L544.75 219.44L546.18 219.02L546.27 219.93L546.38 220.79L546.47 221.81L546.7 224.1L546.76 225.21L546.63 226.61L546.69 227.55L546.45 228.43L545.98 229.29L544.97 230.6L544.87 231.64L545.22 233.07L545.6 234.11L546.27 235.04L546.43 235.98L546.2 236.81L545.75 238.38L545.25 239.14L544.96 240.03L545.29 241.36L546.21 242.17L547.05 243.07L548.33 244.81L548.67 245.71L547.92 246.87L547.22 247.24L546.19 248.28L545.56 249.8L546.09 250.42L545.76 253.03L545.27 254.51L544.79 255.45L544.41 256.22L544.2 257.6L544.84 259.43L545.41 260.82L546.12 263.64L545.68 264.95L545.3 265.8L544.9 267.12L544.85 269.96L545.31 271.24L545.92 271.99L546.75 272.15L547.89 271.63L548.96 272L549.62 272.7L550.25 273.41L551.27 273.11L552.74 272.45L553.62 272.97L554.67 274.01L555.22 274.59L556.12 275.78L556.18 276.78L555.81 278.14L555.47 278.58L555.25 278.88L554.76 279.75L553.98 281.1L553.11 282.02L552.68 283.04L552.61 285.09L552.58 286.41L552.56 286.78L552.53 287.31L552.17 288.14L551.96 288.4L549.78 291.06L548.69 292.91L548.34 293.93L547.64 294.46L546.76 295.4L546.14 296.52L544.32 298.27L543.03 301.07L542.96 301.26L542.39 302.82L541.3 303.56L540.11 304.37L539.26 305.27L537.6 306.84L536.64 307.26L535.26 307.57L533.85 307.73L533.1 308.31L532.56 309.53L531.68 310.56L530.25 310.5L530.1 311.33L530.16 311.99L530.19 312.36L529.63 312.98L528.74 314.03L527.67 316.31L527.6 316.54L527.36 317.31L527.23 318.4L527.31 319.1L527.4 319.91L527.72 321.52L527.17 322.16L526.9 322.59L526.57 323.12L526.57 323.15L526.13 323.16L524.61 323.4L523.59 323.77L522.57 324.76L521.57 324.88L520.69 324.89L519.8 323.72L519.27 322.15L519.23 320.83L518.37 319.46L517.06 319.55L515.82 319.45L515.07 318.54L513.87 317.45L512.72 314.61L512.84 313.25L513.34 312.37L513.32 311.37L512.72 310.54L512.23 310.17L511.44 308.63L510.81 308.61L510.14 309.15L508.82 310.04L507.33 309.85L506.46 309.74L504.58 309.88L503.12 309.38L502.8 309.4L501.9 309.6L501.02 310.23L500.19 310.75L499.01 311.23L498.2 312.19L497.47 312.85L496.83 312.45L497.08 311.36L497.45 310.65L498.12 310.18L498.48 309.6L498.6 308.86L498.94 308.47L499.23 306.94L500.25 305.38L500.5 304.29L500.88 302.96L501.4 301.71L501.72 300.5L502.58 298.92L502.64 298.3L503.23 297.44L503.34 296.2L503.85 295.77L504.57 295.86L505.28 296.01L505.47 295.66L504.85 294.46L503.05 292.5L502.67 292.24L501.44 292.34L500.26 291.76L500.26 290.97L498.86 288.88L497.98 287.38L497.27 287.2L496.72 288.61L495.9 288.94L495.18 288.85L493.23 289.73L492.59 289.74L492.25 290.1L491.85 290.49L491.37 291.86L490.31 292.67L489.36 292.86L488.21 293.46L487.06 294.19L486.46 293.93L485.76 293.03L484.15 291.73L483.09 290.88L481.67 290.51L480.27 290.52L478.67 291.63L477.15 290.56L475.87 290.34L474.2 291L472.56 292.61L471.92 292.78L470.37 292.65L469.41 293.02L467.68 292.56L466.14 290.89Z" />
	<path id="Wokha" class="shp0" d="M379 213.44L378.44 211.86L380.03 210.13L380.38 209.16L380.36 208.53L380.11 207.75L380.99 205.22L380.61 202.71L380.6 199.49L380.1 197.76L380.54 196.09L380.41 195.22L382.28 188.56L384.82 186.38L386.26 183.17L386.63 181.75L388.74 179.26L389.66 178.64L391.57 176.74L392.43 175.47L393.69 172.96L393.91 171.85L395.52 169.2L397.98 165.74L398.95 164.65L400.25 164.52L400.1 165.5L399.47 165.88L399.39 166.55L399.53 168.59L399.41 170.05L399.53 171.49L400.13 173.56L400.08 175.15L399.78 175.93L399.81 177.42L400.33 180.33L400.71 181.71L400.97 183.87L402.61 186.99L403.94 187.27L404.38 187.52L404.9 188L404.96 188.72L403.91 190.58L402.23 193.03L400.72 197.25L400.92 198.92L401.37 199.89L402 200.59L402.74 201.95L403.09 203.27L402.8 205.78L403.03 206.18L403.75 205.33L404.89 203.22L406.61 201.44L406.87 200.96L407.32 201.23L407.49 202.35L408.06 204L409.54 205.84L409.84 206.25L410.47 206.66L411.58 208.2L411.82 209.57L412.36 211.28L411.7 214.32L410.78 216.54L410.77 217.08L411.24 217.49L411.96 217.14L412.31 216.23L413.3 215.96L413.65 215.96L413.84 216.94L411.69 221.19L411.72 222.57L412.16 224.8L412.23 227.06L412.63 230.26L412.64 231.14L412.47 232L410.93 235.61L410.41 236.36L409.63 237.08L409.04 237.4L408.66 238.14L409.14 238.85L409.55 238.8L410.54 238.26L411.76 237.97L412.55 238.25L413.07 239.18L414.84 240.44L415.73 241.32L416.78 241.39L417.33 241.72L417.55 243.09L416.33 246.42L414.92 248.94L414.28 249.61L413.01 250.45L411.83 250.81L410.67 252.14L410.01 252.54L408.61 252.72L408.72 253.72L409.26 254.63L411.04 254.58L410.95 255.72L410.67 256.36L411.43 258.4L412.95 260.27L413.64 262.26L415.75 263.81L417.15 265.82L417.7 267.61L417.57 268.26L416.99 269.19L416.51 271.13L417.07 273.36L417.46 274.26L417.9 274.69L417.9 275.36L417.59 276.07L417.44 277.09L416.96 277.52L416.18 278.97L415.85 280.52L415.54 281.36L415.06 281.84L414.6 284.14L413.85 286.14L412.89 287.99L413.14 288.13L412.73 289.58L412.67 290.86L412.42 291.99L411.65 292.6L410.24 293.49L409.83 294.03L409.27 294.82L409.01 295.01L408.4 294.86L407.8 294.04L407.19 293.24L406.1 290.48L405.05 290.08L404.61 291.19L403.86 291.2L403.17 292.28L402.18 292.52L401.2 292.4L399.87 292.2L398.12 291.64L397.51 291.94L396.08 292.66L394.88 292.58L392.11 293.4L391.46 293.15L390.28 291.96L389.11 290.44L388.52 289.18L388.01 288.61L387.43 289.82L386.87 290.57L387.04 291.58L386.27 293.29L385.24 294.15L384.48 295.81L383.64 297.31L382.98 297.11L382.36 297.23L380.4 298.95L379.95 299.81L379.27 300.39L378.57 300.38L377.34 299.68L373.59 296.76L371.73 296.95L370.07 297.62L368.48 297.72L367.54 298.26L366.89 298.91L365.26 302.52L364.56 302.96L363.6 303.16L361.87 305.2L361.2 305.01L360.36 306.12L358.98 307.21L357.99 308.31L356.25 308.74L352.71 309.26L351.33 310.14L350.73 310.99L349.84 310.62L349.25 310.99L348.97 310.75L348.36 310.67L348.39 311.07L349.61 311.55L349.09 312.72L347.81 312.74L346.8 312.54L344.79 308.23L344.74 306.27L344.46 304.51L342.16 301.42L342.52 299.7L342.96 296.12L342.68 294.86L342.16 294.37L341.97 293.73L342.57 292.67L343.32 290.29L343.4 287.69L343.88 285.59L345.05 284.99L345.38 283.32L346.48 281.82L348.27 278.57L347.97 278.23L347.38 276.03L347.46 274.94L348.25 274.66L348.51 273.9L348.45 272.73L348.8 270.81L349.74 270.26L350.19 269.58L350.19 268.77L349.79 268.53L348.94 268.58L348.29 268.02L348.57 267.52L349.21 267.03L349.23 265.69L349.53 265.41L349.52 265.03L348.64 264.61L348.21 264.36L348.63 263.54L349.17 263.54L349.76 263.75L350.36 263.17L350.73 262.51L350.92 261.26L350.32 260.31L349.76 258.71L350.57 257.35L350.5 256.12L350.65 255.22L351.34 253.53L352.08 252.2L353.64 251L354.45 249.68L355.23 249.16L356.04 248.28L356.23 246.76L356.18 244.91L356.86 243.56L356.46 242.17L357.09 241.15L357.51 239.74L358.37 237.36L359.02 236.07L361.07 234.68L362.08 235.08L363.05 232.95L363.36 231.53L363.19 229.24L363.75 228.41L364.51 228.45L365 228.03L365.53 226.48L366.89 225.13L367.69 223.79L368 220.69L368.62 219.68L369.19 219.76L370.43 220.54L372.22 220.41L370.59 218.73L370.59 217.99L371.39 217.48L373.43 216.94L373.97 216.17L374.64 216.03L374.85 216.48L374.57 217.45L375.35 217.59L375.81 216.74L376.71 216.53L378.45 216.68L379.78 215.5L380.36 215.55L381.02 214.01L381.14 213.25L380.33 213.02L379.3 213.26L379 213.44Z" />
	<path id="Mokokchung" class="shp0" d="M397.51 291.94L398.12 291.64L399.87 292.2L401.2 292.4L402.18 292.52L403.17 292.28L403.86 291.2L404.61 291.19L405.05 290.08L406.1 290.48L407.19 293.24L407.8 294.04L408.4 294.86L409.01 295.01L409.27 294.82L409.83 294.03L410.24 293.49L411.65 292.6L412.42 291.99L412.67 290.86L412.73 289.58L413.14 288.13L412.89 287.99L413.85 286.14L414.6 284.14L415.06 281.84L415.54 281.36L415.85 280.52L416.18 278.97L416.96 277.52L417.44 277.09L417.59 276.07L417.9 275.36L417.9 274.69L417.46 274.26L417.07 273.36L416.51 271.13L416.99 269.19L417.57 268.26L417.7 267.61L417.15 265.82L415.75 263.81L413.64 262.26L412.95 260.27L411.43 258.4L410.67 256.36L410.95 255.72L411.04 254.58L409.26 254.63L408.72 253.72L408.61 252.72L410.01 252.54L410.67 252.14L411.83 250.81L413.01 250.45L414.28 249.61L416.17 249.11L417.46 248.45L418.72 247.49L421.29 245.11L422.12 245.21L425.94 246.93L427.02 246.81L427.77 246.02L427.69 244.49L428.25 242.74L428.92 241.67L429.61 239.27L429.14 237.7L430.49 233.75L431.8 230.9L432.5 230.24L432.64 228.41L432.97 227.52L434.83 226.92L435.08 227.97L435.14 229.32L435.65 230.72L436.83 231.78L436.84 231.82L437.24 232.98L437.68 235.64L438.48 237.24L438.76 238.36L439.25 238.97L439.42 239.74L439.08 240.15L437.57 240.97L437.41 241.45L437.5 242.29L436.98 243.23L437.13 244.39L437.91 244.89L439.2 244.9L441.09 245.26L442.27 244.93L443.01 243.78L444.31 246.05L445.68 247.17L447.71 246.9L448.99 246L450.18 245.48L450.81 244.56L452.1 243.43L452.32 244.53L453.79 246.56L455.35 248.04L455.95 248.25L456.74 248.37L458.24 247.98L459.54 247.01L460.36 245.96L461.72 243.53L462.62 244.6L464.07 246.78L465.05 247.11L466.29 245.64L467.33 245.93L468.64 247.83L470.54 249.31L471.38 252.01L471.8 254.34L472.53 254.13L472.37 257.89L472.04 259.43L470.32 262.08L469.91 264.1L469.79 266.78L470.11 270.1L470.04 271.36L470.62 273.5L471.13 277.22L471.93 278.34L472.73 282L471.62 283.59L470.83 284.51L469.33 285.78L468.02 287.59L466.82 290.06L466.14 290.89L465.24 292.36L464.71 292.86L464.47 293.87L463.92 294.58L458.67 305.23L456.51 308.27L456.04 309.89L454.68 311.66L453.69 313.59L451.23 316.61L450.25 318.31L450.18 319.09L450.77 320.31L452.67 321.29L453.61 322.36L455.15 325.44L455.84 327.82L456.65 329.5L456.82 331.45L456.64 332.14L455.39 333.87L456.62 336.36L456.95 336.69L458.5 336.13L460.05 337.14L462.8 336.74L464.62 337.6L465.91 338.61L468.9 340.29L471.64 343.05L472.02 343.65L473.62 347.41L474.55 350.19L473.98 350.33L472.17 350.06L469.87 349L465.41 346.14L463.95 345.96L462.82 346.46L462.23 347.37L461.39 348.04L459.92 347.99L458.64 347.44L457.71 346.03L456.77 345.24L456.2 345.83L455.09 346.23L454.91 345.77L454.01 345.28L453.2 345.35L453.01 345.19L448.78 345.81L447.25 345.77L444.89 344.99L444.38 345.1L443.4 344.32L444.26 341.83L445.01 340.18L445.08 338.38L442.29 335.63L441.21 335.41L440.72 335.74L440.38 336.66L439.98 336.95L439.42 336.2L437.83 335.28L436.84 334.09L436.47 333.64L435.69 333.33L433.39 333.36L431.93 333.64L431.53 333.41L430.95 330.9L429.57 330.9L424.8 331.69L413.24 337.73L405.73 342.66L403.11 344.25L401.32 341.55L398.86 340.6L396.44 337.73L393.93 334.87L391.91 331.22L388.57 326.93L387.5 323.59L387.85 320.89L390.6 316.91L392.98 314.37L396.91 313.42L399.53 310.56L400.13 308.33L399.77 306.11L398.94 303.41L397.87 299.91L397.51 296.1L397.51 291.94Z" />
	<path id="Layer" class="shp1" d="M790 262L800 262L800 272L790 272L790 262Z" />
	<path id="Layer" class="shp1" d="" />
	<path id="Dimapur" fill="#000000" aria-label="Dimapur"  d="M291.47 348.58L289.92 348.58L289.92 355.95L291.47 355.95Q293.43 355.95 294.34 355.06Q295.25 354.17 295.25 352.25Q295.25 350.35 294.34 349.47Q293.43 348.58 291.47 348.58ZM288.64 357L288.64 347.52L291.27 347.52Q294.03 347.52 295.32 348.67Q296.61 349.81 296.61 352.25Q296.61 354.7 295.31 355.85Q294.02 357 291.27 357L288.64 357ZM298.6 357L298.6 349.89L299.77 349.89L299.77 357L298.6 357ZM298.6 348.6L298.6 347.12L299.77 347.12L299.77 348.6L298.6 348.6ZM307.75 351.26Q308.18 350.47 308.79 350.09Q309.4 349.72 310.23 349.72Q311.34 349.72 311.94 350.5Q312.55 351.27 312.55 352.71L312.55 357L311.37 357L311.37 352.75Q311.37 351.73 311.01 351.23Q310.65 350.73 309.9 350.73Q309 350.73 308.47 351.34Q307.94 351.94 307.94 352.98L307.94 357L306.77 357L306.77 352.75Q306.77 351.72 306.41 351.23Q306.05 350.73 305.29 350.73Q304.39 350.73 303.87 351.34Q303.34 351.95 303.34 352.98L303.34 357L302.17 357L302.17 349.89L303.34 349.89L303.34 351Q303.74 350.34 304.3 350.03Q304.86 349.72 305.63 349.72Q306.4 349.72 306.94 350.11Q307.49 350.51 307.75 351.26ZM319.27 353.43L318.11 353.43Q316.69 353.43 316.14 353.75Q315.6 354.07 315.6 354.85Q315.6 355.48 316 355.84Q316.42 356.21 317.12 356.21Q318.09 356.21 318.68 355.52Q319.27 354.83 319.27 353.69L319.27 353.43ZM320.44 352.94L320.44 357L319.27 357L319.27 355.92Q318.87 356.57 318.27 356.88Q317.67 357.18 316.81 357.18Q315.72 357.18 315.07 356.57Q314.43 355.96 314.43 354.93Q314.43 353.73 315.23 353.12Q316.04 352.51 317.63 352.51L319.27 352.51L319.27 352.4Q319.27 351.59 318.73 351.15Q318.21 350.71 317.25 350.71Q316.64 350.71 316.06 350.86Q315.48 351 314.95 351.29L314.95 350.21Q315.59 349.97 316.2 349.85Q316.8 349.72 317.37 349.72Q318.91 349.72 319.67 350.52Q320.44 351.32 320.44 352.94ZM323.97 355.93L323.97 359.7L322.8 359.7L322.8 349.89L323.97 349.89L323.97 350.97Q324.34 350.33 324.9 350.03Q325.46 349.72 326.24 349.72Q327.54 349.72 328.34 350.75Q329.16 351.78 329.16 353.45Q329.16 355.13 328.34 356.16Q327.54 357.18 326.24 357.18Q325.46 357.18 324.9 356.88Q324.34 356.57 323.97 355.93ZM327.94 353.45Q327.94 352.16 327.41 351.43Q326.88 350.7 325.96 350.7Q325.03 350.7 324.5 351.43Q323.97 352.16 323.97 353.45Q323.97 354.74 324.5 355.48Q325.03 356.21 325.96 356.21Q326.88 356.21 327.41 355.48Q327.94 354.74 327.94 353.45ZM330.97 354.19L330.97 349.89L332.14 349.89L332.14 354.15Q332.14 355.16 332.53 355.67Q332.93 356.17 333.71 356.17Q334.66 356.17 335.21 355.57Q335.76 354.96 335.76 353.92L335.76 349.89L336.93 349.89L336.93 357L335.76 357L335.76 355.91Q335.33 356.56 334.77 356.87Q334.21 357.18 333.47 357.18Q332.24 357.18 331.61 356.42Q330.97 355.66 330.97 354.19ZM333.91 349.72L333.91 349.72ZM343.45 349.78L343.45 350.98Q343.26 350.87 343.02 350.82Q342.79 350.76 342.51 350.76Q341.52 350.76 340.99 351.41Q340.46 352.05 340.46 353.25L340.46 357L339.29 357L339.29 349.89L340.46 349.89L340.46 351Q340.83 350.35 341.42 350.04Q342.01 349.72 342.86 349.72Q342.98 349.72 343.12 349.74Q343.27 349.75 343.45 349.78Z" />
	<path id="Kiphire" fill="#000000" aria-label="Kiphire"  d="M472.92 330L472.92 320.52L474.21 320.52L474.21 324.53L478.46 320.52L480.11 320.52L475.41 324.94L480.45 330L478.76 330L474.21 325.44L474.21 330L472.92 330ZM481.4 330L481.4 322.89L482.57 322.89L482.57 330L481.4 330ZM481.4 321.6L481.4 320.12L482.57 320.12L482.57 321.6L481.4 321.6ZM486.14 328.93L486.14 332.7L484.97 332.7L484.97 322.89L486.14 322.89L486.14 323.97Q486.51 323.33 487.07 323.03Q487.63 322.72 488.41 322.72Q489.71 322.72 490.51 323.75Q491.33 324.78 491.33 326.45Q491.33 328.13 490.51 329.16Q489.71 330.18 488.41 330.18Q487.63 330.18 487.07 329.88Q486.51 329.57 486.14 328.93ZM490.11 326.45Q490.11 325.16 489.58 324.43Q489.05 323.7 488.13 323.7Q487.2 323.7 486.67 324.43Q486.14 325.16 486.14 326.45Q486.14 327.74 486.67 328.48Q487.2 329.21 488.13 329.21Q489.05 329.21 489.58 328.48Q490.11 327.74 490.11 326.45ZM499.17 325.71L499.17 330L498 330L498 325.75Q498 324.74 497.61 324.24Q497.22 323.73 496.43 323.73Q495.48 323.73 494.94 324.34Q494.39 324.94 494.39 325.98L494.39 330L493.22 330L493.22 320.12L494.39 320.12L494.39 324Q494.81 323.35 495.38 323.04Q495.95 322.72 496.69 322.72Q497.91 322.72 498.54 323.48Q499.17 324.24 499.17 325.71ZM501.5 330L501.5 322.89L502.67 322.89L502.67 330L501.5 330ZM501.5 321.6L501.5 320.12L502.67 320.12L502.67 321.6L501.5 321.6ZM509.23 322.78L509.23 323.98Q509.04 323.87 508.8 323.82Q508.57 323.76 508.29 323.76Q507.3 323.76 506.77 324.41Q506.24 325.05 506.24 326.25L506.24 330L505.07 330L505.07 322.89L506.24 322.89L506.24 324Q506.61 323.35 507.2 323.04Q507.79 322.72 508.64 322.72Q508.76 322.72 508.9 322.74Q509.05 322.75 509.23 322.78ZM516.25 326.15L516.25 326.72L510.88 326.72Q510.96 327.93 511.61 328.57Q512.26 329.19 513.42 329.19Q514.09 329.19 514.72 329.03Q515.36 328.86 515.98 328.53L515.98 329.64Q515.35 329.9 514.69 330.04Q514.03 330.18 513.35 330.18Q511.65 330.18 510.65 329.19Q509.66 328.2 509.66 326.52Q509.66 324.77 510.6 323.75Q511.55 322.72 513.15 322.72Q514.58 322.72 515.42 323.65Q516.25 324.57 516.25 326.15ZM510.92 325.82L515.09 325.81Q515.07 324.85 514.55 324.28Q514.02 323.71 513.16 323.71Q512.18 323.71 511.59 324.26Q511.01 324.81 510.92 325.82Z" />
	<path id="Kohima" fill="#000000" aria-label="Kohima"  d="M342.18 370L342.18 360.52L343.46 360.52L343.46 364.53L347.72 360.52L349.37 360.52L344.66 364.94L349.7 370L348.02 370L343.46 365.44L343.46 370L342.18 370ZM352.76 363.71Q351.82 363.71 351.28 364.45Q350.73 365.18 350.73 366.45Q350.73 367.73 351.27 368.46Q351.82 369.19 352.76 369.19Q353.7 369.19 354.24 368.46Q354.79 367.72 354.79 366.45Q354.79 365.19 354.24 364.45Q353.7 363.71 352.76 363.71ZM352.76 362.72Q354.29 362.72 355.16 363.71Q356.03 364.7 356.03 366.45Q356.03 368.2 355.16 369.19Q354.29 370.18 352.76 370.18Q351.23 370.18 350.36 369.19Q349.5 368.2 349.5 366.45Q349.5 364.7 350.36 363.71Q351.23 362.72 352.76 362.72ZM363.87 365.71L363.87 370L362.7 370L362.7 365.75Q362.7 364.74 362.31 364.24Q361.92 363.73 361.13 363.73Q360.18 363.73 359.64 364.34Q359.09 364.94 359.09 365.98L359.09 370L357.92 370L357.92 360.12L359.09 360.12L359.09 364Q359.51 363.35 360.08 363.04Q360.65 362.72 361.39 362.72Q362.61 362.72 363.24 363.48Q363.87 364.24 363.87 365.71ZM366.2 370L366.2 362.89L367.37 362.89L367.37 370L366.2 370ZM366.2 361.6L366.2 360.12L367.37 360.12L367.37 361.6L366.2 361.6ZM375.35 364.26Q375.79 363.47 376.4 363.09Q377.01 362.72 377.83 362.72Q378.94 362.72 379.54 363.5Q380.15 364.27 380.15 365.71L380.15 370L378.97 370L378.97 365.75Q378.97 364.73 378.61 364.23Q378.25 363.73 377.51 363.73Q376.6 363.73 376.07 364.34Q375.55 364.94 375.55 365.98L375.55 370L374.37 370L374.37 365.75Q374.37 364.72 374.01 364.23Q373.65 363.73 372.89 363.73Q372 363.73 371.47 364.34Q370.94 364.95 370.94 365.98L370.94 370L369.77 370L369.77 362.89L370.94 362.89L370.94 364Q371.34 363.34 371.9 363.03Q372.46 362.72 373.23 362.72Q374 362.72 374.54 363.11Q375.09 363.51 375.35 364.26ZM386.87 366.43L385.71 366.43Q384.29 366.43 383.75 366.75Q383.2 367.07 383.2 367.85Q383.2 368.48 383.61 368.84Q384.02 369.21 384.72 369.21Q385.7 369.21 386.28 368.52Q386.87 367.83 386.87 366.69L386.87 366.43ZM388.04 365.94L388.04 370L386.87 370L386.87 368.92Q386.47 369.57 385.87 369.88Q385.28 370.18 384.41 370.18Q383.32 370.18 382.67 369.57Q382.03 368.96 382.03 367.93Q382.03 366.73 382.83 366.12Q383.64 365.51 385.23 365.51L386.87 365.51L386.87 365.4Q386.87 364.59 386.34 364.15Q385.81 363.71 384.85 363.71Q384.24 363.71 383.66 363.86Q383.09 364 382.55 364.29L382.55 363.21Q383.19 362.97 383.8 362.85Q384.4 362.72 384.97 362.72Q386.51 362.72 387.28 363.52Q388.04 364.32 388.04 365.94Z" />
	<path id="Longleng" fill="#000000" aria-label="Longleng"  d="M497.07 195.84L489.05 195.62L489.08 194.53L496.19 194.73L496.3 190.83L497.21 190.85L497.07 195.84ZM491.98 187.47Q491.96 188.27 492.57 188.74Q493.17 189.22 494.25 189.25Q495.33 189.28 495.97 188.85Q496.6 188.4 496.62 187.6Q496.64 186.81 496.03 186.33Q495.42 185.85 494.35 185.82Q493.28 185.79 492.64 186.24Q492 186.68 491.98 187.47ZM491.14 187.45Q491.18 186.16 492.04 185.45Q492.9 184.73 494.38 184.77Q495.86 184.82 496.68 185.58Q497.5 186.33 497.46 187.62Q497.42 188.92 496.56 189.63Q495.7 190.34 494.22 190.3Q492.74 190.25 491.92 189.5Q491.11 188.74 491.14 187.45ZM493.94 178.12L497.57 178.22L497.54 179.21L493.94 179.11Q493.09 179.08 492.65 179.4Q492.22 179.73 492.2 180.39Q492.18 181.19 492.68 181.67Q493.17 182.14 494.05 182.17L497.45 182.26L497.43 183.26L491.41 183.09L491.44 182.1L492.37 182.12Q491.84 181.75 491.58 181.27Q491.33 180.78 491.35 180.15Q491.38 179.11 492.04 178.6Q492.69 178.08 493.94 178.12ZM494.66 172.2Q493.58 172.17 492.98 172.6Q492.37 173.03 492.35 173.83Q492.33 174.62 492.91 175.08Q493.49 175.54 494.56 175.57Q495.63 175.6 496.23 175.18Q496.84 174.75 496.86 173.95Q496.88 173.15 496.3 172.7Q495.72 172.23 494.66 172.2ZM491.74 171.13L497.01 171.28Q498.55 171.32 499.28 172.03Q500.01 172.73 499.97 174.14Q499.96 174.66 499.87 175.12Q499.77 175.58 499.6 176.01L498.64 175.98Q498.89 175.55 499.01 175.13Q499.14 174.71 499.15 174.27Q499.18 173.3 498.69 172.8Q498.19 172.3 497.16 172.27L496.67 172.26Q497.2 172.58 497.45 173.07Q497.7 173.55 497.68 174.22Q497.65 175.32 496.79 175.98Q495.92 176.63 494.53 176.59Q493.14 176.55 492.31 175.85Q491.49 175.15 491.52 174.05Q491.54 173.38 491.81 172.91Q492.09 172.44 492.63 172.15L491.72 172.12L491.74 171.13ZM497.82 169.27L489.46 169.03L489.49 168.04L497.85 168.28L497.82 169.27ZM494.79 160.97L495.28 160.99L495.15 165.53Q496.17 165.5 496.72 164.96Q497.27 164.42 497.3 163.44Q497.31 162.87 497.19 162.34Q497.06 161.79 496.8 161.26L497.73 161.29Q497.95 161.83 498.05 162.39Q498.15 162.95 498.13 163.52Q498.09 164.96 497.23 165.78Q496.37 166.6 494.94 166.56Q493.47 166.52 492.62 165.7Q491.77 164.87 491.81 163.52Q491.85 162.3 492.65 161.62Q493.45 160.94 494.79 160.97ZM494.38 165.48L494.47 161.95Q493.66 161.94 493.17 162.37Q492.67 162.8 492.65 163.53Q492.63 164.36 493.08 164.87Q493.53 165.38 494.38 165.48ZM494.6 154.34L498.23 154.44L498.2 155.43L494.61 155.33Q493.75 155.31 493.32 155.63Q492.88 155.95 492.87 156.61Q492.84 157.41 493.34 157.89Q493.84 158.37 494.72 158.39L498.12 158.49L498.09 159.48L492.08 159.31L492.1 158.32L493.04 158.34Q492.51 157.97 492.25 157.49Q492 157 492.01 156.37Q492.04 155.33 492.7 154.82Q493.36 154.31 494.6 154.34ZM495.32 148.43Q494.25 148.4 493.64 148.83Q493.04 149.25 493.02 150.05Q493 150.84 493.57 151.31Q494.15 151.76 495.23 151.79Q496.3 151.82 496.9 151.4Q497.5 150.97 497.52 150.18Q497.55 149.38 496.97 148.92Q496.39 148.46 495.32 148.43ZM492.41 147.36L497.68 147.5Q499.22 147.55 499.95 148.25Q500.68 148.95 500.64 150.36Q500.62 150.88 500.53 151.34Q500.44 151.8 500.27 152.23L499.31 152.2Q499.55 151.78 499.68 151.35Q499.8 150.93 499.82 150.49Q499.84 149.52 499.35 149.02Q498.86 148.53 497.83 148.5L497.34 148.48Q497.86 148.8 498.11 149.29Q498.36 149.77 498.34 150.44Q498.31 151.55 497.45 152.2Q496.59 152.85 495.2 152.81Q493.8 152.78 492.98 152.07Q492.15 151.37 492.18 150.27Q492.2 149.6 492.48 149.13Q492.76 148.66 493.3 148.37L492.38 148.34L492.41 147.36Z" />
	<path id="Mokokchung" fill="#000000" aria-label="Mokokchung"  d="M434.22 216.93L425.21 213.98L425.81 212.17L432.69 211.88L427.32 207.56L427.91 205.75L436.91 208.69L436.52 209.88L428.62 207.29L434.03 211.64L433.63 212.86L426.7 213.16L434.6 215.75L434.22 216.93ZM432.57 201.75Q432.28 202.64 432.81 203.39Q433.33 204.14 434.54 204.53Q435.75 204.93 436.62 204.65Q437.49 204.36 437.78 203.46Q438.07 202.57 437.54 201.82Q437.01 201.08 435.8 200.68Q434.6 200.29 433.73 200.58Q432.86 200.86 432.57 201.75ZM431.63 201.44Q432.1 200 433.31 199.48Q434.52 198.96 436.19 199.5Q437.85 200.05 438.52 201.18Q439.19 202.32 438.72 203.76Q438.24 205.22 437.03 205.74Q435.82 206.25 434.16 205.7Q432.5 205.16 431.82 204.03Q431.15 202.9 431.63 201.44ZM440.15 198.81L430.76 195.74L431.13 194.62L436.67 196.44L434.84 192.17L435.31 190.76L437.29 195.37L442.11 192.82L441.64 194.26L437.21 196.62L440.51 197.7L440.15 198.81ZM437.24 187.48Q436.95 188.38 437.48 189.12Q438 189.87 439.21 190.27Q440.43 190.66 441.29 190.38Q442.16 190.09 442.45 189.19Q442.74 188.3 442.21 187.56Q441.68 186.81 440.47 186.41Q439.27 186.02 438.41 186.31Q437.53 186.6 437.24 187.48ZM436.3 187.18Q436.77 185.73 437.98 185.21Q439.2 184.69 440.86 185.24Q442.52 185.78 443.19 186.92Q443.86 188.05 443.39 189.5Q442.91 190.95 441.7 191.47Q440.49 191.98 438.83 191.44Q437.17 190.89 436.49 189.76Q435.82 188.63 436.3 187.18ZM444.82 184.54L435.44 181.47L435.8 180.36L441.34 182.17L439.51 177.91L439.98 176.49L441.97 181.11L446.78 178.55L446.31 180L441.89 182.35L445.18 183.43L444.82 184.54ZM442.27 170.36L443.31 170.7Q442.89 171.09 442.61 171.52Q442.33 171.95 442.17 172.43Q441.81 173.51 442.31 174.33Q442.79 175.15 444.03 175.56Q445.26 175.96 446.15 175.59Q447.02 175.22 447.38 174.14Q447.54 173.66 447.56 173.14Q447.59 172.62 447.48 172.07L448.51 172.4Q448.57 172.94 448.52 173.48Q448.46 174.01 448.28 174.57Q447.78 176.09 446.53 176.68Q445.27 177.26 443.65 176.73Q441.99 176.19 441.34 174.97Q440.69 173.75 441.21 172.17Q441.38 171.66 441.65 171.21Q441.91 170.75 442.27 170.36ZM447.16 163.61L451.23 164.94L450.87 166.05L446.83 164.73Q445.87 164.42 445.27 164.64Q444.67 164.85 444.43 165.6Q444.14 166.5 444.54 167.21Q444.94 167.91 445.93 168.24L449.75 169.49L449.38 170.6L440 167.53L440.37 166.41L444.04 167.62Q443.56 167.02 443.44 166.39Q443.32 165.74 443.55 165.04Q443.93 163.87 444.85 163.51Q445.76 163.15 447.16 163.61ZM449.26 161.97L445.17 160.64L445.53 159.53L449.58 160.85Q450.54 161.16 451.14 160.95Q451.74 160.73 451.98 159.98Q452.28 159.08 451.88 158.38Q451.47 157.67 450.49 157.34L446.66 156.09L447.02 154.98L453.77 157.19L453.41 158.3L452.37 157.96Q452.86 158.57 452.98 159.2Q453.1 159.83 452.87 160.53Q452.49 161.7 451.57 162.06Q450.65 162.43 449.26 161.97ZM445.92 157.79L445.92 157.79ZM452.28 147.96L456.36 149.29L456 150.4L451.96 149.08Q451 148.76 450.4 148.98Q449.8 149.2 449.55 149.95Q449.26 150.85 449.66 151.55Q450.07 152.26 451.06 152.58L454.87 153.83L454.51 154.95L447.75 152.74L448.12 151.62L449.17 151.96Q448.69 151.37 448.56 150.73Q448.44 150.09 448.67 149.38Q449.05 148.22 449.97 147.86Q450.88 147.5 452.28 147.96ZM455.08 141.5Q453.88 141.11 453.05 141.39Q452.23 141.67 451.93 142.57Q451.64 143.46 452.14 144.18Q452.64 144.89 453.85 145.28Q455.05 145.68 455.87 145.4Q456.7 145.11 456.99 144.22Q457.28 143.32 456.78 142.61Q456.28 141.89 455.08 141.5ZM452.15 139.31L458.06 141.25Q459.79 141.81 460.38 142.86Q460.97 143.9 460.45 145.48Q460.26 146.06 460.01 146.55Q459.75 147.04 459.41 147.47L458.33 147.12Q458.75 146.72 459.03 146.28Q459.32 145.85 459.48 145.35Q459.84 144.26 459.45 143.53Q459.05 142.8 457.9 142.42L457.35 142.24Q457.84 142.78 457.96 143.42Q458.08 144.05 457.83 144.8Q457.42 146.04 456.23 146.49Q455.03 146.94 453.47 146.43Q451.9 145.92 451.2 144.85Q450.51 143.78 450.91 142.53Q451.16 141.79 451.63 141.35Q452.1 140.91 452.81 140.76L451.79 140.42L452.15 139.31Z" />
	<path id="Mon" fill="#000000" aria-label="Mon"  d="M515.17 129L515.17 119.52L517.08 119.52L519.5 125.97L521.93 119.52L523.84 119.52L523.84 129L522.59 129L522.59 120.68L520.14 127.18L518.86 127.18L516.41 120.68L516.41 129L515.17 129ZM529.09 122.71Q528.15 122.71 527.6 123.45Q527.06 124.18 527.06 125.45Q527.06 126.73 527.6 127.46Q528.14 128.19 529.09 128.19Q530.02 128.19 530.57 127.46Q531.11 126.72 531.11 125.45Q531.11 124.19 530.57 123.45Q530.02 122.71 529.09 122.71ZM529.09 121.72Q530.61 121.72 531.48 122.71Q532.35 123.7 532.35 125.45Q532.35 127.2 531.48 128.19Q530.61 129.18 529.09 129.18Q527.56 129.18 526.69 128.19Q525.83 127.2 525.83 125.45Q525.83 123.7 526.69 122.71Q527.56 121.72 529.09 121.72ZM540.2 124.71L540.2 129L539.03 129L539.03 124.75Q539.03 123.74 538.64 123.24Q538.24 122.73 537.45 122.73Q536.51 122.73 535.96 123.34Q535.42 123.94 535.42 124.98L535.42 129L534.24 129L534.24 121.89L535.42 121.89L535.42 123Q535.84 122.35 536.4 122.04Q536.97 121.72 537.71 121.72Q538.94 121.72 539.57 122.48Q540.2 123.24 540.2 124.71Z" />
	<path id="Peren" fill="#000000" aria-label="Peren"  d="M266.78 403.58L265.17 403.58L265.17 407.14L266.78 407.14Q267.68 407.14 268.17 406.67Q268.66 406.21 268.66 405.35Q268.66 404.5 268.17 404.04Q267.68 403.58 266.78 403.58ZM263.89 412L263.89 402.52L266.78 402.52Q268.38 402.52 269.19 403.25Q270.01 403.96 270.01 405.35Q270.01 406.76 269.19 407.47Q268.38 408.19 266.78 408.19L265.17 408.19L265.17 412L263.89 412ZM277.3 408.15L277.3 408.72L271.93 408.72Q272 409.93 272.65 410.57Q273.3 411.19 274.47 411.19Q275.14 411.19 275.77 411.03Q276.4 410.86 277.02 410.53L277.02 411.64Q276.39 411.9 275.73 412.04Q275.07 412.18 274.4 412.18Q272.69 412.18 271.7 411.19Q270.71 410.2 270.71 408.52Q270.71 406.77 271.65 405.75Q272.59 404.72 274.19 404.72Q275.63 404.72 276.46 405.65Q277.3 406.57 277.3 408.15ZM271.96 407.82L276.13 407.81Q276.12 406.85 275.59 406.28Q275.07 405.71 274.2 405.71Q273.23 405.71 272.64 406.26Q272.05 406.81 271.96 407.82ZM283.33 404.78L283.33 405.98Q283.14 405.87 282.9 405.82Q282.67 405.76 282.39 405.76Q281.4 405.76 280.87 406.41Q280.34 407.05 280.34 408.25L280.34 412L279.17 412L279.17 404.89L280.34 404.89L280.34 406Q280.71 405.35 281.3 405.04Q281.89 404.72 282.74 404.72Q282.86 404.72 283 404.74Q283.15 404.75 283.33 404.78ZM290.35 408.15L290.35 408.72L284.98 408.72Q285.06 409.93 285.71 410.57Q286.36 411.19 287.52 411.19Q288.2 411.19 288.82 411.03Q289.46 410.86 290.08 410.53L290.08 411.64Q289.45 411.9 288.79 412.04Q288.13 412.18 287.45 412.18Q285.75 412.18 284.75 411.19Q283.76 410.2 283.76 408.52Q283.76 406.77 284.7 405.75Q285.65 404.72 287.25 404.72Q288.68 404.72 289.52 405.65Q290.35 406.57 290.35 408.15ZM285.02 407.82L289.19 407.81Q289.17 406.85 288.65 406.28Q288.13 405.71 287.26 405.71Q286.28 405.71 285.69 406.26Q285.11 406.81 285.02 407.82ZM298.18 407.71L298.18 412L297.01 412L297.01 407.75Q297.01 406.74 296.62 406.24Q296.22 405.73 295.44 405.73Q294.49 405.73 293.95 406.34Q293.4 406.94 293.4 407.98L293.4 412L292.23 412L292.23 404.89L293.4 404.89L293.4 406Q293.82 405.35 294.38 405.04Q294.96 404.72 295.7 404.72Q296.92 404.72 297.55 405.48Q298.18 406.24 298.18 407.71Z" />
	<path id="Phek" fill="#000000" aria-label="Phek"  d="M416.86 358.58L415.25 358.58L415.25 362.14L416.86 362.14Q417.75 362.14 418.24 361.67Q418.73 361.21 418.73 360.35Q418.73 359.5 418.24 359.04Q417.75 358.58 416.86 358.58ZM413.96 367L413.96 357.52L416.86 357.52Q418.45 357.52 419.26 358.25Q420.08 358.96 420.08 360.35Q420.08 361.76 419.26 362.47Q418.45 363.19 416.86 363.19L415.25 363.19L415.25 367L413.96 367ZM427.66 362.71L427.66 367L426.49 367L426.49 362.75Q426.49 361.74 426.1 361.24Q425.71 360.73 424.92 360.73Q423.97 360.73 423.43 361.34Q422.88 361.94 422.88 362.98L422.88 367L421.71 367L421.71 357.12L422.88 357.12L422.88 361Q423.3 360.35 423.87 360.04Q424.44 359.72 425.18 359.72Q426.4 359.72 427.03 360.48Q427.66 361.24 427.66 362.71ZM436.07 363.15L436.07 363.72L430.7 363.72Q430.78 364.93 431.43 365.57Q432.08 366.19 433.24 366.19Q433.91 366.19 434.54 366.03Q435.18 365.86 435.8 365.53L435.8 366.64Q435.17 366.9 434.51 367.04Q433.85 367.18 433.17 367.18Q431.47 367.18 430.47 366.19Q429.48 365.2 429.48 363.52Q429.48 361.77 430.42 360.75Q431.37 359.72 432.97 359.72Q434.4 359.72 435.23 360.65Q436.07 361.57 436.07 363.15ZM430.74 362.82L434.9 362.81Q434.89 361.85 434.36 361.28Q433.84 360.71 432.98 360.71Q432 360.71 431.41 361.26Q430.83 361.81 430.74 362.82ZM437.94 367L437.94 357.12L439.12 357.12L439.12 362.96L442.6 359.89L444.1 359.89L440.32 363.22L444.25 367L442.73 367L439.12 363.53L439.12 367L437.94 367Z" />
	<path id="Tuensang" fill="#000000" aria-label="Tuensang"  d="M477.81 248.6L477.81 247.52L485.83 247.52L485.83 248.6L482.47 248.6L482.47 257L481.18 257L481.18 248.6L477.81 248.6ZM484.92 254.19L484.92 249.89L486.09 249.89L486.09 254.15Q486.09 255.16 486.49 255.67Q486.88 256.17 487.67 256.17Q488.61 256.17 489.16 255.57Q489.71 254.96 489.71 253.92L489.71 249.89L490.88 249.89L490.88 257L489.71 257L489.71 255.91Q489.29 256.56 488.72 256.87Q488.16 257.18 487.42 257.18Q486.19 257.18 485.56 256.42Q484.92 255.66 484.92 254.19ZM487.86 249.72L487.86 249.72ZM499.37 253.15L499.37 253.72L494 253.72Q494.07 254.93 494.72 255.57Q495.37 256.19 496.53 256.19Q497.21 256.19 497.84 256.03Q498.47 255.86 499.09 255.53L499.09 256.64Q498.46 256.9 497.8 257.04Q497.14 257.18 496.46 257.18Q494.76 257.18 493.77 256.19Q492.78 255.2 492.78 253.52Q492.78 251.77 493.72 250.75Q494.66 249.72 496.26 249.72Q497.7 249.72 498.53 250.65Q499.37 251.57 499.37 253.15ZM494.03 252.82L498.2 252.81Q498.18 251.85 497.66 251.28Q497.14 250.71 496.27 250.71Q495.3 250.71 494.71 251.26Q494.12 251.81 494.03 252.82ZM507.19 252.71L507.19 257L506.02 257L506.02 252.75Q506.02 251.74 505.63 251.24Q505.24 250.73 504.45 250.73Q503.5 250.73 502.96 251.34Q502.41 251.94 502.41 252.98L502.41 257L501.24 257L501.24 249.89L502.41 249.89L502.41 251Q502.83 250.35 503.4 250.04Q503.97 249.72 504.71 249.72Q505.94 249.72 506.56 250.48Q507.19 251.24 507.19 252.71ZM514.05 250.1L514.05 251.2Q513.56 250.95 513.03 250.82Q512.49 250.7 511.92 250.7Q511.05 250.7 510.61 250.96Q510.18 251.23 510.18 251.76Q510.18 252.17 510.49 252.4Q510.8 252.63 511.74 252.84L512.14 252.93Q513.39 253.2 513.91 253.69Q514.43 254.17 514.43 255.04Q514.43 256.03 513.65 256.61Q512.87 257.18 511.5 257.18Q510.92 257.18 510.3 257.08Q509.69 256.96 509 256.74L509 255.53Q509.65 255.87 510.28 256.04Q510.91 256.21 511.52 256.21Q512.35 256.21 512.79 255.93Q513.23 255.64 513.23 255.13Q513.23 254.65 512.91 254.4Q512.59 254.14 511.51 253.91L511.1 253.81Q510.02 253.58 509.53 253.12Q509.05 252.64 509.05 251.81Q509.05 250.81 509.76 250.27Q510.47 249.72 511.78 249.72Q512.43 249.72 513 249.81Q513.57 249.91 514.05 250.1ZM520.69 253.43L519.53 253.43Q518.11 253.43 517.56 253.75Q517.02 254.07 517.02 254.85Q517.02 255.48 517.42 255.84Q517.84 256.21 518.54 256.21Q519.51 256.21 520.1 255.52Q520.69 254.83 520.69 253.69L520.69 253.43ZM521.85 252.94L521.85 257L520.69 257L520.69 255.92Q520.29 256.57 519.69 256.88Q519.09 257.18 518.23 257.18Q517.14 257.18 516.49 256.57Q515.85 255.96 515.85 254.93Q515.85 253.73 516.65 253.12Q517.46 252.51 519.05 252.51L520.69 252.51L520.69 252.4Q520.69 251.59 520.15 251.15Q519.63 250.71 518.67 250.71Q518.06 250.71 517.48 250.86Q516.9 251 516.37 251.29L516.37 250.21Q517.01 249.97 517.61 249.85Q518.22 249.72 518.79 249.72Q520.33 249.72 521.09 250.52Q521.85 251.32 521.85 252.94ZM530.17 252.71L530.17 257L529 257L529 252.75Q529 251.74 528.61 251.24Q528.22 250.73 527.43 250.73Q526.48 250.73 525.94 251.34Q525.39 251.94 525.39 252.98L525.39 257L524.22 257L524.22 249.89L525.39 249.89L525.39 251Q525.81 250.35 526.37 250.04Q526.95 249.72 527.69 249.72Q528.91 249.72 529.54 250.48Q530.17 251.24 530.17 252.71ZM537.18 253.36Q537.18 252.09 536.65 251.4Q536.13 250.7 535.19 250.7Q534.25 250.7 533.72 251.4Q533.2 252.09 533.2 253.36Q533.2 254.63 533.72 255.32Q534.25 256.02 535.19 256.02Q536.13 256.02 536.65 255.32Q537.18 254.63 537.18 253.36ZM538.35 249.89L538.35 256.12Q538.35 257.93 537.54 258.82Q536.73 259.7 535.07 259.7Q534.46 259.7 533.91 259.62Q533.36 259.52 532.85 259.33L532.85 258.19Q533.36 258.47 533.86 258.61Q534.37 258.74 534.89 258.74Q536.04 258.74 536.61 258.14Q537.18 257.54 537.18 256.33L537.18 255.75Q536.82 256.38 536.25 256.69Q535.69 257 534.9 257Q533.59 257 532.79 256Q531.99 255.01 531.99 253.36Q531.99 251.71 532.79 250.72Q533.59 249.72 534.9 249.72Q535.69 249.72 536.25 250.03Q536.82 250.34 537.18 250.97L537.18 249.89L538.35 249.89Z" />
	<path id="Wokha" fill="#000000" aria-label="Wokha"  d="M367.7 267L365.33 257.52L366.62 257.52L368.62 265.53L370.6 257.52L372.04 257.52L374.04 265.53L376.02 257.52L377.32 257.52L374.94 267L373.33 267L371.33 258.77L369.31 267L367.7 267ZM380.97 260.71Q380.03 260.71 379.48 261.45Q378.94 262.18 378.94 263.45Q378.94 264.73 379.48 265.46Q380.02 266.19 380.97 266.19Q381.9 266.19 382.45 265.46Q382.99 264.72 382.99 263.45Q382.99 262.19 382.45 261.45Q381.9 260.71 380.97 260.71ZM380.97 259.72Q382.49 259.72 383.36 260.71Q384.23 261.7 384.23 263.45Q384.23 265.2 383.36 266.19Q382.49 267.18 380.97 267.18Q379.44 267.18 378.57 266.19Q377.71 265.2 377.71 263.45Q377.71 261.7 378.57 260.71Q379.44 259.72 380.97 259.72ZM386.12 267L386.12 257.12L387.3 257.12L387.3 262.96L390.78 259.89L392.27 259.89L388.5 263.22L392.43 267L390.91 267L387.3 263.53L387.3 267L386.12 267ZM399.6 262.71L399.6 267L398.44 267L398.44 262.75Q398.44 261.74 398.04 261.24Q397.65 260.73 396.86 260.73Q395.92 260.73 395.37 261.34Q394.83 261.94 394.83 262.98L394.83 267L393.65 267L393.65 257.12L394.83 257.12L394.83 261Q395.24 260.35 395.81 260.04Q396.38 259.72 397.12 259.72Q398.35 259.72 398.98 260.48Q399.6 261.24 399.6 262.71ZM406.33 263.43L405.17 263.43Q403.75 263.43 403.2 263.75Q402.66 264.07 402.66 264.85Q402.66 265.48 403.06 265.84Q403.48 266.21 404.18 266.21Q405.15 266.21 405.74 265.52Q406.33 264.83 406.33 263.69L406.33 263.43ZM407.5 262.94L407.5 267L406.33 267L406.33 265.92Q405.93 266.57 405.33 266.88Q404.73 267.18 403.87 267.18Q402.78 267.18 402.13 266.57Q401.49 265.96 401.49 264.93Q401.49 263.73 402.29 263.12Q403.1 262.51 404.69 262.51L406.33 262.51L406.33 262.4Q406.33 261.59 405.79 261.15Q405.27 260.71 404.31 260.71Q403.7 260.71 403.12 260.86Q402.54 261 402.01 261.29L402.01 260.21Q402.65 259.97 403.25 259.85Q403.86 259.72 404.43 259.72Q405.97 259.72 406.73 260.52Q407.5 261.32 407.5 262.94Z" />
	<path id="Zunheboto" fill="#000000" aria-label="Zunheboto"  d="M414.2 319.44L413.2 319.04L416 312.14L416.91 312.51L421.52 320.86L423.84 315.17L424.84 315.58L421.92 322.74L421.01 322.38L416.4 314.03L414.2 319.44ZM422.87 312.96L418.89 311.34L419.33 310.25L423.27 311.86Q424.21 312.24 424.83 312.07Q425.44 311.89 425.74 311.16Q426.09 310.29 425.74 309.55Q425.39 308.82 424.43 308.42L420.69 306.9L421.13 305.82L427.72 308.5L427.28 309.58L426.27 309.17Q426.7 309.81 426.79 310.45Q426.86 311.09 426.58 311.77Q426.12 312.91 425.18 313.21Q424.23 313.51 422.87 312.96ZM419.84 308.55L419.84 308.55ZM426.88 299.18L430.85 300.8L430.41 301.88L426.47 300.28Q425.54 299.9 424.93 300.07Q424.31 300.25 424.02 300.98Q423.66 301.86 424.01 302.59Q424.36 303.32 425.33 303.71L429.05 305.23L428.61 306.32L422.02 303.64L422.47 302.55L423.49 302.96Q423.05 302.33 422.97 301.69Q422.89 301.04 423.17 300.36Q423.64 299.22 424.58 298.93Q425.51 298.63 426.88 299.18ZM429.98 291.55L433.96 293.17L433.52 294.25L429.58 292.65Q428.64 292.27 428.03 292.45Q427.42 292.62 427.12 293.35Q426.77 294.23 427.12 294.96Q427.47 295.69 428.43 296.08L432.16 297.6L431.71 298.69L422.57 294.96L423.01 293.87L426.6 295.33Q426.16 294.7 426.08 294.06Q426 293.41 426.28 292.73Q426.74 291.59 427.68 291.3Q428.62 291 429.98 291.55ZM433.57 283.93L434.1 284.15L432.07 289.12Q433.22 289.51 434.05 289.15Q434.88 288.78 435.31 287.7Q435.57 287.08 435.65 286.43Q435.74 285.78 435.67 285.08L436.69 285.5Q436.7 286.18 436.58 286.85Q436.46 287.51 436.21 288.14Q435.56 289.72 434.27 290.26Q432.98 290.81 431.42 290.17Q429.8 289.51 429.21 288.26Q428.61 286.99 429.22 285.51Q429.76 284.19 430.93 283.76Q432.1 283.34 433.57 283.93ZM431.24 288.74L432.81 284.89Q431.92 284.54 431.19 284.81Q430.46 285.08 430.14 285.88Q429.77 286.78 430.06 287.54Q430.35 288.28 431.24 288.74ZM436.49 277.55Q435.3 277.06 434.42 277.28Q433.54 277.49 433.19 278.35Q432.84 279.2 433.32 279.98Q433.8 280.74 434.99 281.22Q436.18 281.71 437.07 281.5Q437.94 281.28 438.29 280.42Q438.64 279.57 438.16 278.8Q437.68 278.03 436.49 277.55ZM429.13 278.84L432.69 280.29Q432.24 279.71 432.17 279.08Q432.1 278.44 432.39 277.71Q432.88 276.51 434.14 276.16Q435.39 275.79 436.95 276.42Q438.5 277.05 439.14 278.19Q439.79 279.33 439.3 280.53Q439.01 281.25 438.51 281.66Q438.02 282.06 437.29 282.16L438.28 282.56L437.83 283.65L428.69 279.93L429.13 278.84ZM436.18 271.05Q435.82 271.92 436.3 272.7Q436.77 273.48 437.95 273.96Q439.13 274.44 440.02 274.22Q440.9 273.99 441.25 273.11Q441.61 272.25 441.13 271.47Q440.65 270.68 439.48 270.2Q438.31 269.73 437.42 269.96Q436.53 270.18 436.18 271.05ZM435.26 270.67Q435.83 269.26 437.08 268.83Q438.32 268.4 439.95 269.06Q441.56 269.72 442.16 270.9Q442.75 272.08 442.17 273.49Q441.59 274.9 440.35 275.33Q439.1 275.76 437.48 275.1Q435.86 274.44 435.27 273.27Q434.68 272.09 435.26 270.67ZM435.5 265.18L435.94 264.09L437.81 264.85L438.72 262.62L439.56 262.97L438.65 265.19L442.23 266.65Q443.03 266.98 443.35 266.85Q443.67 266.72 443.95 266.05L444.4 264.94L445.3 265.31L444.85 266.42Q444.34 267.67 443.68 267.96Q443.02 268.24 441.78 267.74L438.21 266.28L437.89 267.08L437.05 266.73L437.37 265.94L435.5 265.18ZM441.1 258.96Q440.74 259.83 441.22 260.61Q441.69 261.39 442.87 261.87Q444.05 262.36 444.94 262.13Q445.82 261.9 446.17 261.03Q446.53 260.16 446.05 259.38Q445.57 258.6 444.4 258.12Q443.23 257.64 442.34 257.87Q441.45 258.1 441.1 258.96ZM440.18 258.59Q440.75 257.18 442 256.74Q443.24 256.31 444.87 256.97Q446.48 257.63 447.08 258.81Q447.67 259.99 447.09 261.4Q446.51 262.82 445.27 263.25Q444.02 263.67 442.41 263.02Q440.78 262.35 440.19 261.18Q439.6 260 440.18 258.59Z" />
</svg>