<svg version="1.2" baseProfile="tiny-ps" xmlns="http://www.w3.org/2000/svg" viewBox="0 0 800 533" width="800" height="533">
	<title>Puducherry Map Chart-svg</title>
	<style>
		tspan { white-space:pre }
		.shp0 { fill: none;stroke: #000000;stroke-width: 0.4;stroke-dasharray: NaN } 
		.shp1 { fill: none;stroke: #cccccc;stroke-width: 0;stroke-dasharray: NaN } 
	</style>
	<path id="Karaikal" fill-rule="evenodd" class="shp0" d="M455.71 468.86L455.3 468.96L454.91 469L454.72 469.02L454.1 469.04L453.77 468.84L453.68 468.72L453.79 468.54L453.76 467.84L453.7 467.56L453.5 467.66L453.39 467.89L453.24 467.5L452.92 467.35L452.73 467.1L452.63 466.68L452.69 466.47L452.86 466.81L453.06 466.75L453.26 466.57L453.5 466.46L453.47 466.2L453.26 465.88L452.95 465.84L452.55 465.59L452.67 465.44L453.37 465.46L453.67 465.4L453.55 465.2L453.23 464.95L452.7 465.02L452.49 464.82L452.31 464.78L452.08 464.93L451.84 464.63L451.68 464.8L451.4 464.84L451.42 464.65L451.55 464.48L451.8 464.42L451.88 464.23L451.71 463.69L451.1 463.56L451.06 464.13L450.88 464.34L450.62 464.28L450.74 463.89L450.49 463.7L450.42 463.3L450.29 463.45L450.31 463.85L450.17 464.21L450.09 464.12L450.13 463.62L450.11 463.36L450.27 463.2L450.17 463.02L449.35 463.15L449.42 462.82L449.28 462.73L449.3 462.51L449.19 462.43L449.06 462.62L448.97 462.58L449.04 462.25L448.44 462.08L448.41 462.01L448.38 461.95L448.5 461.79L448.5 461.67L448.19 461.69L448.2 461.54L448.41 461.54L448.36 461.38L448.4 461.16L448.64 461.07L448.78 460.9L449.01 460.78L449.06 460.57L448.95 460.21L448.77 460.37L448.73 460.65L448.45 460.55L448.19 460.58L448.14 460.37L448.12 459.87L448.17 459.73L448.16 459.44L448.56 459.41L448.76 459.34L449.04 459.53L449.34 459.41L449.59 459.69L449.64 460.17L450.02 460L450.3 460.02L450.31 459.62L450.25 459.26L450.01 459.17L449.92 458.98L449.97 458.79L450.08 458.66L450.21 458.41L449.99 458.47L449.92 458.25L449.51 458.14L449.59 457.84L449.5 457.43L449.51 457.17L449.6 457.04L449.87 456.9L450.17 457.18L450.44 457.42L450.66 457.53L451.07 457.48L451.31 457.58L451.67 457.55L451.77 457.71L451.75 458.14L451.92 458.35L452.24 458.39L452.42 458.22L452.56 457.97L452.59 457.62L452.67 457.46L452.9 457.31L452.95 457.19L453.16 457.1L453.22 457.19L453.32 457.33L453.59 457.38L453.7 457.32L453.75 457.19L453.8 457.04L454.35 457.07L454.36 457.2L454.33 457.56L454.85 457.74L454.85 457.75L454.89 457.75L455.01 457.77L455.36 457.8L455.67 457.81L455.88 457.79L455.88 457.91L455.86 457.91L455.86 458.02L455.85 458.02L455.85 458.14L455.83 458.14L455.83 458.25L455.82 458.25L455.82 458.61L455.81 458.61L455.81 458.74L455.79 458.74L455.79 458.78L455.81 458.78L455.81 458.82L455.82 458.82L455.82 458.9L455.81 458.9L455.81 458.92L455.79 458.92L455.79 458.93L455.81 458.93L455.81 459.22L455.79 459.22L455.79 459.33L455.81 459.33L455.81 459.37L455.82 459.37L455.82 459.46L455.81 459.46L455.81 459.52L455.79 459.52L455.79 459.67L455.81 459.67L455.81 459.86L455.79 459.86L455.79 459.9L455.81 459.9L455.81 460.01L455.79 460.01L455.79 460.13L455.81 460.13L455.81 460.15L455.82 460.15L455.82 460.3L455.83 460.3L455.83 460.77L455.85 460.77L455.85 461.4L455.86 461.4L455.86 461.76L455.85 461.76L455.85 461.85L455.83 461.85L455.83 461.95L455.82 461.95L455.82 462.04L455.81 462.04L455.81 462.06L455.69 462.06L455.69 462.08L455.66 462.08L455.66 462.1L455.52 462.1L455.52 462.14L455.55 462.14L455.55 462.15L455.58 462.15L455.58 462.17L455.61 462.17L455.61 462.21L455.69 462.21L455.69 462.19L455.71 462.19L455.71 462.15L455.72 462.15L455.72 462.14L455.78 462.14L455.78 462.15L455.79 462.15L455.79 462.25L455.78 462.25L455.78 462.36L455.76 462.36L455.76 462.42L455.75 462.42L455.75 462.48L455.76 462.48L455.76 462.65L455.78 462.65L455.78 462.82L455.76 462.82L455.76 463.31L455.75 463.31L455.75 463.48L455.76 463.48L455.76 463.5L455.78 463.5L455.78 463.65L455.79 463.65L455.79 463.67L455.76 463.67L455.76 463.69L455.75 463.69L455.75 463.71L455.74 463.71L455.74 463.73L455.72 463.73L455.72 463.75L455.71 463.75L455.71 463.8L455.69 463.8L455.69 463.9L455.68 463.9L455.68 463.95L455.64 463.95L455.64 463.97L455.58 463.97L455.58 464.01L455.56 464.01L455.56 464.05L455.55 464.05L455.55 464.07L455.58 464.07L455.58 464.09L455.66 464.09L455.66 464.07L455.69 464.07L455.69 464.05L455.72 464.05L455.72 464.09L455.71 464.09L455.71 464.16L455.69 464.16L455.69 464.24L455.71 464.24L455.71 464.29L455.72 464.29L455.72 464.33L455.74 464.33L455.74 464.37L455.75 464.37L455.75 464.39L455.76 464.39L455.76 464.43L455.78 464.43L455.78 464.45L455.79 464.45L455.79 464.71L455.78 464.71L455.78 465.03L455.76 465.03L455.76 465.13L455.75 465.13L455.75 465.22L455.74 465.22L455.74 465.34L455.72 465.34L455.72 465.37L455.74 465.37L455.74 465.43L455.75 465.43L455.75 465.77L455.76 465.77L455.76 466.11L455.78 466.11L455.78 467.1L455.76 467.1L455.76 467.15L455.78 467.15L455.78 467.23L455.79 467.23L455.79 467.27L455.78 467.27L455.78 467.29L455.76 467.29L455.76 467.31L455.78 467.31L455.78 467.69L455.76 467.69L455.76 467.8L455.75 467.8L455.75 467.91L455.74 467.91L455.74 467.97L455.51 467.97L455.51 467.99L455.45 467.99L455.45 467.97L455.41 467.97L455.41 467.95L455.38 467.95L455.38 467.93L455.34 467.93L455.34 467.95L455.31 467.95L455.31 467.97L455.28 467.97L455.28 467.99L455.25 467.99L455.25 468.01L455.22 468.01L455.22 468.03L455.2 468.03L455.2 468.04L455.18 468.04L455.18 468.06L455.15 468.06L455.15 468.08L455.12 468.08L455.12 468.06L455.11 468.06L455.11 468.08L455.1 468.08L455.1 468.12L455.08 468.12L455.08 468.18L455.1 468.18L455.1 468.2L455.04 468.2L455.04 468.22L455 468.22L455 468.23L454.97 468.23L454.97 468.25L454.94 468.25L454.94 468.27L454.93 468.27L454.93 468.29L454.9 468.29L454.9 468.31L454.88 468.31L454.88 468.33L454.86 468.33L454.86 468.35L454.83 468.35L454.83 468.37L454.81 468.37L454.81 468.39L454.78 468.39L454.78 468.4L454.75 468.4L454.75 468.42L454.73 468.42L454.73 468.44L454.67 468.44L454.67 468.46L454.63 468.46L454.63 468.48L454.57 468.48L454.57 468.5L454.53 468.5L454.53 468.52L454.47 468.52L454.47 468.54L454.39 468.54L454.39 468.56L454.31 468.56L454.31 468.58L454.3 468.58L454.3 468.59L454.31 468.59L454.31 468.61L454.39 468.61L454.39 468.59L454.47 468.59L454.47 468.58L454.53 468.58L454.53 468.56L454.57 468.56L454.57 468.54L454.63 468.54L454.63 468.52L454.67 468.52L454.67 468.5L454.73 468.5L454.73 468.48L454.75 468.48L454.75 468.46L454.78 468.46L454.78 468.44L454.81 468.44L454.81 468.42L454.83 468.42L454.83 468.4L454.85 468.4L454.85 468.39L454.88 468.39L454.88 468.37L454.9 468.37L454.9 468.35L454.93 468.35L454.93 468.33L454.94 468.33L454.94 468.31L454.97 468.31L454.97 468.29L455 468.29L455 468.27L455.04 468.27L455.04 468.25L455.1 468.25L455.1 468.23L455.15 468.23L455.15 468.22L455.21 468.22L455.21 468.2L455.24 468.2L455.24 468.18L455.28 468.18L455.28 468.16L455.31 468.16L455.31 468.14L455.34 468.14L455.34 468.12L455.38 468.12L455.38 468.1L455.41 468.1L455.41 468.08L455.45 468.08L455.45 468.06L455.48 468.06L455.48 468.05L455.48 468.04L455.51 468.04L455.51 468.03L455.72 468.03L455.72 468.18L455.71 468.18L455.71 468.27L455.69 468.27L455.69 468.44L455.71 468.44L455.71 468.48L455.69 468.48L455.69 468.5L455.68 468.5L455.68 468.58L455.69 468.58L455.69 468.59L455.71 468.59L455.71 468.61L455.69 468.61L455.69 468.63L455.71 468.63L455.71 468.78L455.69 468.78L455.69 468.84L455.71 468.84L455.71 468.86ZM455.38 467.99L455.38 468.01L455.41 468.01L455.41 468.05L455.38 468.04L455.38 468.06L455.34 468.06L455.34 468.08L455.31 468.08L455.31 468.1L455.28 468.1L455.28 468.12L455.24 468.12L455.24 468.14L455.21 468.14L455.21 468.16L455.15 468.16L455.15 468.18L455.14 468.18L455.14 468.14L455.15 468.14L455.15 468.12L455.18 468.12L455.18 468.1L455.2 468.1L455.2 468.08L455.22 468.08L455.22 468.06L455.25 468.06L455.25 468.04L455.28 468.04L455.28 468.03L455.31 468.03L455.31 468.01L455.34 468.01L455.34 467.99L455.38 467.99Z" />
	<path id="Mahe" class="shp0" d="M221.93 388.74L221.95 388.74L221.95 388.78L221.96 388.78L221.96 388.79L221.98 388.79L221.98 388.81L221.99 388.81L221.99 388.83L222 388.83L222 388.85L222.02 388.85L222.02 388.87L222.03 388.87L222.03 388.91L222.05 388.91L222.05 388.95L222.06 388.95L222.06 388.97L222.08 388.96L222.08 388.98L222.09 388.98L222.09 389.06L222.1 389.06L222.1 389.1L222.12 389.1L222.12 389.12L222.13 389.12L222.13 389.15L222.15 389.15L222.15 389.19L222.16 389.19L222.16 389.21L222.15 389.21L222.15 389.23L222.16 389.23L222.16 389.27L222.17 389.27L222.17 389.31L222.19 389.31L222.19 389.36L222.2 389.36L222.2 389.42L222.22 389.42L222.22 389.48L222.23 389.48L222.23 389.53L222.24 389.53L222.26 389.53L222.26 389.59L222.27 389.59L222.27 389.61L222.29 389.61L222.29 389.63L222.3 389.63L222.3 389.67L222.32 389.67L222.32 389.69L222.33 389.69L222.33 389.74L222.36 389.74L222.36 389.78L222.37 389.78L222.37 389.8L222.36 389.8L222.36 389.84L222.37 389.84L222.37 389.86L222.39 389.86L222.39 389.93L222.4 389.93L222.4 389.95L222.42 389.95L222.42 389.99L222.43 389.99L222.43 390.03L222.44 390.03L222.44 390.06L222.46 390.06L222.46 390.08L222.47 390.08L222.47 390.14L222.49 390.14L222.49 390.16L222.5 390.16L222.5 390.22L222.53 390.22L222.53 390.25L222.54 390.25L222.54 390.27L222.56 390.27L222.56 390.31L222.57 390.31L222.57 390.33L222.59 390.33L222.59 390.35L222.6 390.35L222.6 390.37L222.63 390.37L222.63 390.4L222.64 390.4L222.64 390.44L222.66 390.44L222.66 390.46L222.69 390.46L222.69 390.48L222.7 390.48L222.7 390.5L222.71 390.5L222.71 390.52L222.73 390.52L222.73 390.54L222.74 390.54L222.74 390.56L222.76 390.56L222.76 390.59L222.77 390.59L222.77 390.63L222.8 390.63L222.8 390.65L222.81 390.65L222.81 390.67L222.83 390.67L222.83 390.69L222.84 390.69L222.84 390.71L222.87 390.71L222.87 390.73L222.89 390.73L222.89 390.75L222.9 390.75L222.9 390.76L222.93 390.76L222.93 390.8L222.94 390.8L222.94 390.82L222.96 390.82L222.96 390.84L222.97 390.84L222.97 390.86L222.98 390.86L222.98 390.88L223 390.88L223 390.9L223.01 390.9L223.01 390.92L223.03 390.92L223.03 390.93L223.04 390.93L223.04 390.95L223.06 390.95L223.06 390.99L223.07 390.99L223.07 391.01L223.08 391.01L223.08 391.05L223.1 391.05L223.1 391.09L223.11 391.09L223.11 391.11L223.13 391.11L223.13 391.14L223.14 391.14L223.14 391.16L223.16 391.16L223.16 391.2L223.17 391.2L223.17 391.22L223.18 391.22L223.18 391.26L223.2 391.26L223.2 391.29L223.18 391.29L223.18 391.33L223.17 391.33L223.17 391.35L223.16 391.35L223.16 391.39L223.14 391.39L223.14 391.41L223.11 391.41L223.11 391.43L223.1 391.43L223.1 391.45L223.07 391.45L223.07 391.47L223.06 391.47L223.06 391.48L223 391.48L223 391.5L222.94 391.5L222.94 391.52L222.89 391.52L222.89 391.52L222.89 391.5L222.87 391.5L222.87 391.48L222.86 391.48L222.86 391.45L222.81 391.45L222.81 391.47L222.8 391.47L222.8 391.48L222.79 391.48L222.79 391.5L222.76 391.5L222.76 391.52L222.74 391.52L222.74 391.5L222.73 391.5L222.73 391.48L222.71 391.48L222.71 391.47L222.7 391.47L222.7 391.43L222.69 391.43L222.69 391.41L222.67 391.41L222.67 391.39L222.66 391.39L222.66 391.33L222.63 391.33L222.63 391.31L222.62 391.31L222.62 391.29L222.59 391.29L222.59 391.28L222.57 391.28L222.57 391.26L222.56 391.26L222.56 391.24L222.54 391.24L222.54 391.22L222.53 391.22L222.53 391.18L222.5 391.18L222.5 391.16L222.49 391.16L222.49 391.14L222.47 391.14L222.47 391.12L222.44 391.12L222.44 391.11L222.42 391.11L222.42 391.09L222.4 391.09L222.4 391.05L222.39 391.05L222.39 391.03L222.37 391.03L222.37 391.01L222.36 391.01L222.36 390.99L222.35 390.99L222.35 390.97L222.33 390.97L222.33 390.95L222.32 390.95L222.32 390.92L222.3 390.92L222.3 390.88L222.29 390.88L222.29 390.86L222.27 390.86L222.27 390.82L222.26 390.82L222.26 390.8L222.25 390.8L222.25 390.76L222.23 390.76L222.23 390.73L222.22 390.73L222.22 390.71L222.2 390.71L222.2 390.69L222.19 390.69L222.19 390.65L222.16 390.65L222.16 390.61L222.15 390.61L222.15 390.57L222.13 390.57L222.13 390.54L222.12 390.54L222.12 390.52L222.1 390.52L222.1 390.5L222.09 390.5L222.09 390.46L222.08 390.46L222.08 390.44L222.06 390.44L222.06 390.42L222.05 390.42L222.05 390.39L222.03 390.39L222.03 390.35L222 390.35L222 390.29L221.98 390.29L221.98 390.25L221.96 390.25L221.96 390.23L221.95 390.23L221.95 390.2L221.93 390.2L221.93 390.16L221.92 390.16L221.92 390.08L221.91 390.08L221.91 390.04L221.88 390.05L221.88 390.03L221.86 390.03L221.86 390.01L221.83 390.01L221.83 389.97L221.82 389.97L221.82 389.95L221.81 389.95L221.81 389.91L221.79 389.91L221.79 389.87L221.78 389.87L221.78 389.86L221.76 389.86L221.76 389.82L221.73 389.82L221.73 389.8L221.72 389.8L221.72 389.76L221.71 389.76L221.71 389.72L221.69 389.72L221.69 389.69L221.68 389.69L221.68 389.67L221.66 389.67L221.66 389.65L221.65 389.65L221.65 389.63L221.64 389.63L221.64 389.59L221.62 389.59L221.62 389.57L221.61 389.57L221.61 389.53L221.59 389.53L221.59 389.5L221.58 389.5L221.58 389.48L221.55 389.48L221.55 389.44L221.54 389.44L221.54 389.4L221.51 389.4L221.51 389.36L221.49 389.36L221.49 389.34L221.48 389.34L221.48 389.31L221.46 389.31L221.46 389.27L221.45 389.27L221.45 389.25L221.44 389.25L221.44 389.21L221.42 389.21L221.42 389.19L221.41 389.19L221.41 389.17L221.38 389.17L221.38 389.15L221.37 389.15L221.37 389.12L221.35 389.12L221.35 389.08L221.34 389.08L221.34 389.04L221.32 389.04L221.32 389.02L221.29 389.02L221.29 388.98L221.28 388.98L221.28 388.96L221.27 388.97L221.27 388.93L221.25 388.93L221.25 388.91L221.24 388.91L221.24 388.89L221.22 388.89L221.22 388.87L221.21 388.87L221.21 388.85L221.19 388.85L221.19 388.83L221.17 388.83L221.17 388.79L221.15 388.79L221.15 388.76L221.12 388.76L221.12 388.74L221.11 388.74L221.11 388.7L221.1 388.7L221.1 388.66L221.08 388.66L221.08 388.64L221.05 388.64L221.05 388.61L221.02 388.61L221.02 388.57L221.01 388.57L221.01 388.53L221 388.53L221 388.51L220.98 388.51L220.98 388.47L220.97 388.47L220.97 388.45L220.95 388.45L220.95 388.43L220.94 388.43L220.94 388.42L220.92 388.42L220.92 388.4L220.91 388.4L220.91 388.36L220.88 388.36L220.88 388.3L220.87 388.3L220.87 388.28L220.85 388.28L220.85 388.26L220.84 388.26L220.84 388.23L220.83 388.23L220.83 388.21L220.81 388.21L220.81 388.17L220.78 388.17L220.78 388.13L220.77 388.13L220.77 388.11L220.75 388.11L220.75 388.07L220.74 388.07L220.74 388.06L220.73 388.06L220.73 388.02L220.71 388.02L220.71 388L220.7 388L220.7 387.96L220.67 387.96L220.67 387.94L220.66 387.94L220.66 387.92L220.64 387.92L220.64 387.89L220.61 387.89L220.61 387.85L220.6 387.85L220.6 387.83L220.58 387.83L220.58 387.79L220.56 387.79L220.56 387.77L220.54 387.77L220.54 387.73L220.53 387.73L220.53 387.7L220.5 387.7L220.5 387.66L220.48 387.66L220.48 387.64L220.47 387.64L220.47 387.62L220.46 387.62L220.46 387.58L220.44 387.58L220.44 387.54L220.41 387.54L220.41 387.53L220.39 387.53L220.39 387.49L220.37 387.49L220.37 387.47L220.36 387.47L220.36 387.47L220.36 387.43L220.33 387.43L220.33 387.41L220.31 387.41L220.31 387.37L220.3 387.37L220.3 387.36L220.27 387.36L220.27 387.34L220.26 387.34L220.26 387.3L220.24 387.3L220.24 387.26L220.23 387.26L220.23 387.24L220.2 387.24L220.2 387.22L220.17 387.22L220.17 387.18L220.16 387.18L220.16 387.17L220.13 387.17L220.13 387.13L220.1 387.13L220.1 387.11L220.09 387.11L220.09 387.09L220.07 387.09L220.07 387.07L220.06 387.07L220.06 387.05L220.04 387.05L220.04 387.03L220.03 387.03L220.03 386.99L220 387L220 386.98L219.97 386.98L219.97 386.96L219.94 386.96L219.94 386.92L219.92 386.92L219.92 386.9L219.9 386.9L219.9 386.88L219.87 386.88L219.87 386.86L219.86 386.86L219.86 386.84L219.84 386.84L219.84 386.82L219.82 386.82L219.82 386.81L219.8 386.81L219.79 386.81L219.79 386.8L219.79 386.79L219.77 386.79L219.77 386.77L219.75 386.77L219.75 386.75L219.72 386.75L219.72 386.73L219.7 386.73L219.7 386.71L219.67 386.71L219.67 386.69L219.66 386.69L219.66 386.67L219.63 386.67L219.63 386.65L219.59 386.65L219.59 386.64L219.56 386.64L219.56 386.62L219.55 386.62L219.55 386.6L219.53 386.6L219.53 386.58L219.52 386.58L219.52 386.56L219.5 386.56L219.5 386.54L219.49 386.54L219.49 386.43L219.48 386.43L219.48 386.41L219.49 386.41L219.49 386.37L219.48 386.37L219.48 386.35L219.46 386.35L219.46 386.33L219.41 386.33L219.41 386.32L219.42 386.3L219.11 385.79L219.23 384.95L219.05 384.26L219.02 383.58L219.08 382.9L218.97 382.64L218.98 382.14L218.92 381.09L219.01 380.82L219.71 380.45L219.91 380.52L220.06 380.83L220.26 380.9L220.69 380.57L220.9 380.54L221.21 380.9L221.65 381.13L221.81 381.03L222.03 380.53L222.13 380.13L222.58 380.05L223.5 379.47L223.45 378.97L223.52 378.67L223.68 378.42L224 378.18L224.24 378.09L224.54 378.07L224.75 378.15L225.09 378.62L225.31 378.52L225.4 378.74L226.2 378.77L226.36 378.74L226.44 378.42L226.61 378.25L226.63 377.98L226.76 377.81L226.96 378.01L227.48 378L227.75 378.05L228.05 378.39L228.19 378.64L228.17 378.82L227.97 379.12L227.66 379.36L227.2 379.52L227.16 379.17L227.04 379.35L227 379.64L226.81 379.56L226.45 379.7L226.32 380L226.15 380.05L225.91 380.27L225.78 380.51L225.61 380.55L224.99 381.27L224.79 381.24L224.48 380.98L224.39 380.66L223.95 380.7L223.61 380.79L223.41 380.97L223.44 381.79L223.7 382L223.42 382.62L222.91 383.42L222.81 383.63L222.75 383.93L222.98 384.01L223.2 384.36L223.4 384.3L223.55 384.61L223.47 384.61L223.47 384.63L223.45 384.63L223.45 384.61L223.38 384.61L223.38 384.63L223.37 384.63L223.37 384.65L223.35 384.65L223.35 384.67L223.34 384.67L223.34 384.68L223.33 384.68L223.33 384.76L223.34 384.76L223.34 384.78L223.33 384.78L223.33 384.84L223.31 384.84L223.31 384.89L223.3 384.89L223.3 384.91L223.28 384.91L223.28 384.93L223.27 384.93L223.27 384.97L223.25 384.97L223.25 385.03L223.24 385.03L223.24 385.06L223.23 385.06L223.23 385.1L223.21 385.1L223.21 385.14L223.2 385.14L223.2 385.16L223.18 385.16L223.18 385.23L223.17 385.23L223.17 385.31L223.18 385.31L223.18 385.38L223.2 385.38L223.2 385.42L223.21 385.42L223.21 385.44L223.2 385.44L223.2 385.46L223.18 385.46L223.18 385.44L223.16 385.44L223.16 385.42L223.13 385.42L223.13 385.44L223.11 385.44L223.11 385.46L223.1 385.46L223.1 385.48L223.08 385.48L223.08 385.5L223.1 385.5L223.1 385.54L223.11 385.54L223.11 385.56L223.13 385.56L223.13 385.57L223.14 385.57L223.14 385.65L223.13 385.65L223.13 385.67L223.11 385.67L223.11 385.69L223.1 385.69L223.1 385.71L223.04 385.71L223.04 385.69L223.03 385.69L223.03 385.67L223 385.67L223 385.69L222.98 385.69L222.98 385.71L222.97 385.71L222.97 385.75L222.96 385.75L222.96 385.82L222.94 385.82L222.94 385.9L222.93 385.9L222.93 385.97L222.91 385.97L222.91 386.05L222.93 386.05L222.93 386.07L222.94 386.07L222.94 386.11L222.96 386.11L222.96 386.12L222.97 386.12L222.97 386.14L222.98 386.14L222.98 386.16L223 386.16L223 386.2L223.01 386.2L223.01 386.24L223.03 386.24L223.03 386.29L223 386.29L223 386.28L222.94 386.28L222.94 386.26L222.9 386.26L222.9 386.22L222.91 386.22L222.91 386.18L222.9 386.18L222.9 386.14L222.89 386.14L222.89 386.12L222.87 386.12L222.87 386.09L222.86 386.09L222.86 386.05L222.84 386.05L222.84 386.03L222.81 386.03L222.81 386.01L222.8 386.01L222.8 385.99L222.77 385.99L222.77 385.97L222.76 385.97L222.76 385.93L222.74 385.93L222.74 385.9L222.73 385.9L222.73 385.88L222.7 385.88L222.7 385.86L222.69 385.86L222.69 385.82L222.67 385.82L222.67 385.8L222.6 385.8L222.6 385.82L222.59 385.82L222.59 385.8L222.54 385.8L222.54 385.82L222.53 385.82L222.53 385.88L222.52 385.88L222.52 385.9L222.53 385.9L222.53 385.93L222.54 385.93L222.54 385.95L222.56 385.95L222.56 385.97L222.57 385.97L222.57 385.99L222.59 385.99L222.59 386.03L222.6 386.03L222.6 386.07L222.62 386.07L222.62 386.09L222.64 386.09L222.64 386.07L222.71 386.07L222.71 386.09L222.73 386.09L222.73 386.11L222.76 386.11L222.76 386.12L222.79 386.12L222.79 386.14L222.81 386.14L222.81 386.16L222.83 386.16L222.83 386.2L222.81 386.2L222.81 386.22L222.77 386.22L222.77 386.24L222.71 386.24L222.71 386.26L222.69 386.26L222.69 386.28L222.67 386.28L222.67 386.29L222.66 386.29L222.66 386.35L222.64 386.35L222.64 386.41L222.63 386.41L222.63 386.48L222.64 386.48L222.64 386.52L222.67 386.52L222.67 386.54L222.69 386.54L222.69 386.56L222.7 386.56L222.7 386.58L222.71 386.58L222.71 386.6L222.73 386.6L222.73 386.64L222.74 386.64L222.74 386.67L222.76 386.67L222.76 386.75L222.74 386.75L222.74 386.77L222.67 386.77L222.67 386.75L222.64 386.75L222.64 386.77L222.6 386.77L222.6 386.75L222.59 386.75L222.59 386.71L222.57 386.71L222.57 386.67L222.56 386.67L222.56 386.65L222.53 386.65L222.53 386.64L222.5 386.64L222.5 386.6L222.49 386.6L222.49 386.56L222.5 386.56L222.5 386.52L222.52 386.52L222.52 386.46L222.49 386.46L222.49 386.45L222.47 386.45L222.47 386.43L222.46 386.43L222.46 386.39L222.47 386.39L222.47 386.35L222.49 386.35L222.49 386.33L222.5 386.33L222.5 386.31L222.53 386.31L222.53 386.24L222.52 386.24L222.52 386.2L222.5 386.2L222.5 386.14L222.52 386.14L222.52 386.11L222.5 386.11L222.5 386.09L222.49 386.09L222.49 386.07L222.43 386.07L222.43 386.05L222.4 386.05L222.4 386.03L222.39 386.03L222.39 386.01L222.36 386.01L222.36 385.99L222.29 385.99L222.29 385.97L222.27 385.97L222.27 385.95L222.26 385.95L222.26 385.93L222.23 385.93L222.23 385.95L222.22 385.95L222.22 385.97L222.2 385.97L222.2 386.01L222.19 386.01L222.19 386.05L222.17 386.05L222.17 386.07L222.15 386.07L222.15 386.09L222.12 386.09L222.12 386.14L222.13 386.14L222.13 386.16L222.17 386.16L222.17 386.18L222.2 386.18L222.2 386.2L222.22 386.2L222.22 386.22L222.23 386.22L222.23 386.24L222.25 386.24L222.25 386.28L222.26 386.28L222.26 386.31L222.25 386.31L222.25 386.35L222.23 386.35L222.23 386.33L222.2 386.33L222.2 386.31L222.19 386.31L222.19 386.29L222.17 386.29L222.17 386.28L222.15 386.28L222.15 386.26L222.13 386.26L222.13 386.24L222.1 386.24L222.1 386.22L221.95 386.22L221.95 386.24L221.92 386.24L221.92 386.26L221.89 386.26L221.89 386.28L221.82 386.28L221.82 386.26L221.78 386.26L221.78 386.24L221.73 386.24L221.73 386.22L221.66 386.22L221.66 386.2L221.62 386.2L221.62 386.16L221.59 386.16L221.59 386.14L221.58 386.14L221.58 386.11L221.56 386.11L221.56 386.09L221.55 386.09L221.55 386.05L221.56 386.05L221.56 386.01L221.55 386.01L221.55 385.97L221.54 385.97L221.54 385.95L221.46 385.95L221.46 385.97L221.45 385.97L221.45 385.99L221.44 385.99L221.44 386.01L221.42 386.01L221.42 386.03L221.44 386.03L221.44 386.05L221.45 386.05L221.45 386.07L221.46 386.07L221.46 386.14L221.42 386.14L221.42 386.16L221.41 386.16L221.41 386.18L221.38 386.18L221.38 386.22L221.34 386.22L221.34 386.24L221.29 386.24L221.29 386.28L221.28 386.28L221.28 386.33L221.27 386.33L221.27 386.39L221.24 386.39L221.24 386.43L221.22 386.43L221.22 386.47L221.21 386.46L221.21 386.5L221.19 386.5L221.19 386.54L221.18 386.54L221.18 386.58L221.17 386.58L221.17 386.62L221.15 386.62L221.15 386.65L221.14 386.65L221.14 386.71L221.12 386.71L221.12 386.77L221.11 386.77L221.11 386.81L221.1 386.81L221.1 386.88L221.08 386.88L221.08 386.98L221.07 386.98L221.07 387.05L221.05 387.05L221.05 387.15L221.04 387.15L221.04 387.36L221.02 387.36L221.02 387.54L221.04 387.54L221.04 387.6L221.05 387.6L221.05 387.68L221.07 387.68L221.07 387.73L221.08 387.73L221.08 387.77L221.1 387.77L221.1 387.79L221.11 387.79L221.11 387.81L221.12 387.81L221.12 387.83L221.14 387.83L221.14 387.85L221.15 387.85L221.15 387.87L221.17 387.87L221.17 387.89L221.19 387.89L221.19 387.9L221.21 387.9L221.21 387.92L221.24 387.92L221.24 387.94L221.32 387.94L221.32 387.96L221.35 387.96L221.35 387.98L221.38 387.98L221.38 388L221.42 388L221.42 388.02L221.45 388.02L221.45 388.06L221.46 388.06L221.46 388.07L221.49 388.07L221.49 388.09L221.52 388.09L221.52 388.11L221.54 388.11L221.54 388.15L221.56 388.15L221.56 388.19L221.58 388.19L221.58 388.23L221.61 388.23L221.61 388.25L221.64 388.25L221.64 388.26L221.65 388.26L221.65 388.3L221.66 388.3L221.66 388.32L221.68 388.32L221.68 388.34L221.71 388.34L221.71 388.4L221.72 388.4L221.72 388.42L221.73 388.42L221.73 388.43L221.75 388.43L221.75 388.45L221.76 388.45L221.76 388.49L221.79 388.49L221.79 388.53L221.81 388.53L221.81 388.55L221.82 388.55L221.82 388.57L221.83 388.57L221.83 388.61L221.85 388.61L221.85 388.62L221.86 388.62L221.86 388.64L221.88 388.64L221.88 388.66L221.89 388.66L221.89 388.7L221.91 388.7L221.91 388.72L221.93 388.72L221.93 388.74Z" />
	<path id="Puducherry" class="shp0" d="M453.6 396.5L453.6 396.48L453.56 396.48L453.56 396.47L453.53 396.47L453.53 396.45L453.48 396.45L453.48 396.47L453.43 396.47L453.43 396.48L453.41 396.48L453.41 396.5L453.38 396.5L453.36 396.5L453.36 396.52L453.32 396.52L453.32 396.54L453.35 396.54L453.35 396.56L453.36 396.56L453.36 396.54L453.38 396.54L453.42 396.54L453.42 396.52L453.46 396.52L453.46 396.5L453.49 396.5L453.49 396.52L453.58 396.52L453.58 396.54L453.6 396.54L453.6 396.56L453.62 396.56L453.62 396.6L453.63 396.6L453.63 396.62L453.65 396.62L453.65 396.64L453.68 396.64L453.68 396.66L453.7 396.66L453.7 396.67L453.75 396.67L453.75 396.69L453.82 396.69L453.82 396.71L453.83 396.71L453.83 396.69L453.85 396.69L453.85 396.71L453.9 396.71L453.9 396.73L453.92 396.73L453.92 396.75L453.93 396.75L453.93 396.77L453.99 396.77L453.99 396.75L454.03 396.75L454.03 396.77L454.04 396.77L454.04 396.79L454.06 396.79L454.06 396.83L454.07 396.83L454.07 396.84L454.09 396.84L454.09 396.86L454.1 396.86L454.1 396.88L454.09 396.88L454.09 396.96L454.07 396.96L454.07 397.02L454.06 397.02L454.06 397.05L454.04 397.05L454.04 397.09L454.03 397.09L454.03 397.13L454.02 397.13L454.02 397.24L453.99 397.24L453.99 397.28L453.97 397.28L453.97 397.3L453.96 397.3L453.96 397.34L453.94 397.34L453.94 397.39L453.93 397.39L453.93 397.43L453.92 397.43L453.92 397.49L453.9 397.49L453.9 397.55L453.92 397.55L453.92 397.56L453.9 397.56L453.9 397.6L453.89 397.6L453.89 397.64L453.87 397.64L453.87 397.7L453.86 397.7L453.86 397.75L453.85 397.75L453.85 397.81L453.83 397.81L453.83 397.83L453.82 397.83L453.82 397.85L453.8 397.85L453.8 397.89L453.79 397.89L453.79 397.91L453.77 397.91L453.77 397.96L453.75 397.96L453.75 397.98L453.73 397.98L453.73 398.02L453.72 398.02L453.72 398.08L453.7 398.08L453.7 398.13L453.69 398.13L453.69 398.17L453.68 398.17L453.68 398.23L453.66 398.23L453.66 398.28L453.65 398.28L453.65 398.32L453.63 398.32L453.63 398.38L453.62 398.38L453.62 398.44L453.6 398.44L453.6 398.53L453.62 398.53L453.62 398.59L453.6 398.59L453.6 398.61L453.59 398.61L453.59 398.63L453.58 398.63L453.58 398.64L453.55 398.64L453.55 398.66L453.56 398.66L453.56 398.74L453.55 398.74L453.55 398.76L453.53 398.76L453.53 398.89L453.52 398.89L453.52 398.93L453.5 398.93L453.5 398.95L453.49 398.95L453.49 398.97L453.48 398.97L453.48 399L453.46 399L453.46 399.04L453.48 399.04L453.48 399.12L453.45 399.12L453.45 399.1L453.41 399.1L453.41 399.04L453.42 399.04L453.42 399.02L453.43 399.02L453.43 398.99L453.42 398.99L453.42 398.95L453.41 398.95L453.41 398.91L453.38 398.91L453.38 398.93L453.18 398.93L453.18 398.76L453.15 398.76L453.15 398.78L453.14 398.78L453.14 398.81L453.12 398.81L453.12 398.83L453.11 398.83L453.11 398.85L453.08 398.85L453.08 398.87L453.06 398.87L453.06 398.93L453.11 398.93L453.11 398.95L453.14 398.95L453.14 398.97L453.15 398.97L453.15 399L453.16 399L453.16 399.06L453.18 399.06L453.18 399.14L453.19 399.14L453.19 399.21L453.21 399.21L453.21 399.25L453.23 399.25L453.23 399.27L453.25 399.27L453.25 399.29L453.29 399.29L453.29 399.31L453.35 399.31L453.35 399.33L453.36 399.33L453.36 399.36L453.38 399.36L453.38 399.4L453.39 399.4L453.39 399.69L453.38 399.69L453.38 399.7L453.36 399.7L453.36 399.72L453.38 399.72L453.38 399.74L453.36 399.74L453.36 399.78L453.35 399.78L453.35 399.93L453.32 399.93L453.32 399.97L453.31 399.97L453.31 400.01L453.29 400.01L453.29 400.1L453.28 400.1L453.28 400.12L453.29 400.12L453.29 400.18L453.26 400.18L453.26 400.22L453.25 400.22L453.25 400.25L453.23 400.25L453.23 400.31L453.22 400.31L453.22 400.46L453.21 400.46L453.21 400.48L453.19 400.48L453.19 400.52L453.21 400.52L453.21 400.6L453.19 400.59L453.19 400.65L453.18 400.65L453.18 400.77L453.16 400.77L453.16 400.78L453.15 400.78L453.15 400.84L453.14 400.84L453.14 400.9L453.12 400.9L453.12 400.92L453.11 400.92L453.11 401.04L452.92 400.82L452.78 400.54L452.73 400.4L452.72 400.28L452.66 399.77L452.78 399.55L452.62 399.44L452.47 399.22L452.38 398.99L452.15 398.86L451.99 398.96L451.4 398.85L451.32 399.34L451.22 399.39L451.06 400.04L450.94 400.1L450.64 399.94L450.39 399.38L450.46 399.16L450.54 399.15L450.61 398.77L450.73 398.73L450.82 398.17L450.78 397.66L450.58 397.59L450.52 397.48L450.2 397.54L450.19 397.95L449.99 398.21L449.94 399.22L449.39 399.4L449.52 398.41L448.9 398.31L448.89 398.36L448.31 398.4L448.17 399L447.85 398.03L447.64 397.93L447.75 396.6L447.49 396.56L447.05 396.61L446.97 396.79L446.87 396.86L446.6 396.84L446.48 396.85L446.5 397.07L445.88 397.13L445.88 396.69L445.94 396.34L446.35 396.41L446.37 396.52L446.74 396.2L446.94 396.2L446.98 396.02L446.95 395.73L447.14 395.64L447.07 395.35L446.94 395.24L447.09 394.47L448.1 394.62L448.1 394.9L447.55 394.94L447.54 396.26L448.06 396.39L448.2 396.52L448.4 396.57L448.76 396.5L448.84 396.37L448.79 395.7L448.87 395.52L449.24 395.37L448.18 393.9L448.28 392.83L447.79 392.58L447.7 392.65L447.69 393.02L447.77 393.42L447.86 393.65L447.6 393.34L447.56 393.12L447.47 393L447.16 392.93L446.86 392.3L446.83 392.11L447.02 391.83L447.11 391.62L447.23 391.71L447.29 391.57L447.62 391.33L448.05 391.23L448.07 390.94L447.73 390.63L447.93 390.01L447.92 389.88L447.71 389.67L447.46 389.63L447.3 389.75L447.16 389.69L447.01 389.82L446.82 389.74L446.61 389.85L446.5 389.69L446.2 390.19L446 389.82L445.91 389.54L445.48 389.88L445.12 389.8L445.02 389.62L445.12 388.91L445.13 388.91L445.12 388.47L445.26 388.43L445.28 388.16L445.54 388.09L445.89 388.18L446.09 387.54L446.38 387.47L446.51 387.18L446.77 387.09L446.9 386.66L447.54 386.78L447.58 387.22L447.48 387.89L447.5 388.22L447.74 388.47L448.06 388.92L448.16 389.33L448.27 389.51L448.48 389.59L448.62 389.63L448.84 389.65L448.99 389.58L449.25 389.48L449.36 389.34L449.45 388.92L449.45 388.92L449.75 388.36L450.51 388.92L450.66 389.37L450.65 389.6L450.48 389.85L450.28 389.96L450.14 390.22L449.92 390.22L449.78 390.45L449.35 390.53L449.1 390.19L448.89 390.09L448.77 390.19L448.71 391.02L449.69 391.57L449.69 392.25L449.86 392.92L449.84 394.09L449.86 394.3L450.04 394.3L450.06 394.15L450.4 393.76L450.39 393.57L450.42 392.82L450.94 392.72L451.26 392.43L451.32 392.12L451.52 391.96L451.64 391.63L451.69 391.6L451.85 391.65L452 391.63L452.23 391.81L452.45 392.17L452.59 391.89L452.66 391.53L452.7 390.9L452.84 390.57L452.98 390.46L453.07 390.41L453.32 390.48L453.39 390.75L453.41 391.02L453.5 391.62L453.65 391.89L453.81 392.02L454.01 392.04L454.38 392.06L454.38 392.05L454.66 392.05L455.01 392.02L455.01 392.07L455 392.07L455 392.15L454.98 392.15L454.98 392.32L454.97 392.32L454.97 392.37L454.95 392.37L454.95 392.51L454.94 392.51L454.94 392.53L454.95 392.53L454.95 392.55L454.94 392.54L454.94 392.66L454.93 392.66L454.93 392.77L454.94 392.77L454.94 392.79L454.93 392.79L454.93 392.81L454.91 392.81L454.91 392.87L454.9 392.87L454.9 392.89L454.88 392.89L454.88 392.9L454.9 392.9L454.9 392.92L454.88 392.92L454.88 393L454.87 393L454.87 393.11L454.85 393.11L454.85 393.17L454.84 393.17L454.84 393.23L454.83 393.23L454.83 393.25L454.81 393.25L454.81 393.3L454.8 393.3L454.8 393.44L454.78 393.44L454.78 393.45L454.77 393.45L454.77 393.51L454.75 393.51L454.75 393.59L454.74 393.59L454.74 393.64L454.73 393.64L454.73 393.68L454.71 393.68L454.71 393.7L454.7 393.7L454.7 393.72L454.68 393.72L454.68 393.74L454.67 393.74L454.67 393.87L454.66 393.87L454.66 393.89L454.64 393.89L454.64 393.93L454.63 393.93L454.63 393.98L454.61 393.98L454.61 394.06L454.6 394.06L454.6 394.08L454.61 394.08L454.61 394.14L454.63 394.14L454.63 394.25L454.66 394.25L454.66 394.27L454.67 394.27L454.67 394.31L454.66 394.31L454.66 394.33L454.61 394.33L454.61 394.34L454.56 394.34L454.56 394.33L454.53 394.33L454.53 394.31L454.51 394.31L454.51 394.29L454.5 394.29L454.5 394.25L454.48 394.25L454.48 394.21L454.47 394.21L454.47 394.17L454.48 394.17L454.48 394.08L454.5 394.08L454.5 393.81L454.48 393.81L454.48 393.78L454.47 393.78L454.47 393.76L454.46 393.76L454.46 393.74L454.44 393.74L454.44 393.72L454.43 393.72L454.43 393.7L454.4 393.7L454.4 393.68L454.39 393.68L454.39 393.66L454.33 393.66L454.33 393.7L454.34 393.7L454.34 393.74L454.36 393.74L454.36 393.78L454.37 393.78L454.37 393.8L454.4 393.8L454.4 393.81L454.41 393.81L454.41 393.83L454.43 393.83L454.43 393.87L454.44 393.87L454.44 393.93L454.43 393.93L454.43 393.97L454.44 393.97L454.44 394.14L454.43 394.14L454.43 394.17L454.41 394.17L454.41 394.25L454.4 394.25L454.4 394.27L454.37 394.27L454.37 394.17L454.36 394.17L454.36 394.15L454.34 394.15L454.34 394.19L454.26 394.19L454.26 394.17L454.24 394.17L454.24 394.15L454.23 394.15L454.23 394.17L454.2 394.17L454.2 394.19L454.19 394.19L454.19 394.21L454.17 394.21L454.17 394.23L454.12 394.23L454.12 394.25L454.1 394.25L454.1 394.27L454.09 394.27L454.09 394.29L454.07 394.29L454.07 394.31L454.06 394.31L454.06 394.33L454.04 394.33L454.04 394.36L454.03 394.36L454.03 394.5L454.02 394.5L454.02 394.65L454 394.65L454 394.69L454.02 394.69L454.02 394.67L454.04 394.67L454.04 394.63L454.06 394.63L454.06 394.61L454.07 394.61L454.07 394.53L454.09 394.53L454.09 394.44L454.1 394.44L454.1 394.4L454.12 394.4L454.12 394.36L454.13 394.36L454.13 394.34L454.14 394.34L454.14 394.33L454.17 394.33L454.17 394.31L454.19 394.31L454.19 394.29L454.3 394.29L454.3 394.31L454.31 394.31L454.31 394.33L454.34 394.33L454.34 394.36L454.44 394.36L454.44 394.38L454.48 394.38L454.48 394.4L454.58 394.4L454.58 394.42L454.6 394.42L454.6 394.46L454.61 394.46L454.61 394.48L454.64 394.48L454.64 394.52L454.67 394.52L454.67 394.46L454.68 394.46L454.68 394.44L454.7 394.44L454.7 394.42L454.73 394.42L454.73 394.51L454.71 394.51L454.71 394.53L454.68 394.53L454.68 394.55L454.54 394.55L454.54 394.59L454.53 394.59L454.53 394.65L454.51 394.65L454.51 394.72L454.5 394.72L454.5 394.76L454.48 394.76L454.48 394.89L454.51 394.89L454.51 395.01L454.5 395.01L454.5 395.05L454.48 395.05L454.48 395.06L454.47 395.06L454.47 395.14L454.48 395.14L454.48 395.16L454.47 395.16L454.47 395.18L454.46 395.18L454.46 395.2L454.44 395.2L454.44 395.22L454.43 395.22L454.43 395.41L454.44 395.41L454.44 395.42L454.43 395.42L454.43 395.5L454.41 395.5L454.41 395.52L454.4 395.52L454.4 395.56L454.39 395.56L454.39 395.6L454.37 395.59L454.37 395.69L454.36 395.69L454.36 395.73L454.34 395.73L454.34 395.77L454.33 395.77L454.33 395.82L454.34 395.82L454.34 395.9L454.33 395.9L454.33 395.94L454.31 395.94L454.31 395.95L454.3 395.95L454.3 396.03L454.26 396.03L454.26 396.05L454.21 396.05L454.21 396.07L454.2 396.07L454.2 396.09L454.17 396.09L454.17 396.11L454.12 396.11L454.12 396.12L454.09 396.12L454.09 396.14L454.07 396.14L454.07 396.16L454.06 396.16L454.06 396.18L454.03 396.18L454.03 396.16L454 396.16L454 396.14L453.92 396.14L453.92 396.12L453.86 396.12L453.86 396.11L453.85 396.11L453.85 396.12L453.82 396.12L453.82 396.11L453.8 396.11L453.8 396.09L453.77 396.09L453.77 396.07L453.76 396.07L453.76 396.05L453.7 396.05L453.7 396.03L453.65 396.03L453.65 396.01L453.62 396.01L453.62 395.99L453.49 395.99L453.49 395.97L453.48 395.97L453.46 395.97L453.46 395.95L453.42 395.95L453.42 395.97L453.41 395.97L453.41 395.95L453.33 395.95L453.33 395.94L453.26 395.94L453.26 395.92L453.19 395.92L453.19 395.9L453.14 395.9L453.14 395.92L453.11 395.92L453.11 395.94L453.09 395.94L453.09 395.95L453.06 395.95L453.06 395.97L452.98 395.97L452.98 395.99L452.95 395.99L452.95 396.01L452.92 396.01L452.92 396.03L452.89 396.03L452.89 396.05L452.87 396.05L452.87 396.07L452.85 396.07L452.85 396.09L452.77 396.09L452.77 396.11L452.75 396.11L452.75 396.14L452.74 396.14L452.74 396.16L452.75 396.16L452.75 396.18L452.74 396.18L452.74 396.22L452.68 396.22L452.68 396.24L452.61 396.24L452.61 396.26L452.65 396.26L452.65 396.28L452.67 396.28L452.67 396.3L452.77 396.3L452.77 396.31L452.81 396.31L452.81 396.3L452.82 396.3L452.82 396.28L452.85 396.28L452.85 396.26L452.87 396.26L452.87 396.22L452.89 396.22L452.89 396.2L452.91 396.2L452.91 396.16L452.92 396.16L452.92 396.14L452.95 396.14L452.95 396.12L452.96 396.12L452.96 396.11L453.01 396.11L453.01 396.09L453.02 396.09L453.02 396.07L453.04 396.07L453.04 396.05L453.05 396.05L453.05 396.03L453.06 396.03L453.06 396.05L453.12 396.05L453.12 396.09L453.11 396.09L453.11 396.11L453.14 396.11L453.14 396.12L453.18 396.12L453.18 396.11L453.22 396.11L453.22 396.12L453.26 396.12L453.26 396.11L453.28 396.11L453.28 396.05L453.29 396.05L453.29 396.03L453.32 396.03L453.32 396.01L453.33 396.01L453.33 396.03L453.35 396.03L453.35 396.01L453.38 396.01L453.38 396.03L453.42 396.03L453.42 396.05L453.43 396.05L453.43 396.07L453.45 396.07L453.45 396.09L453.46 396.09L453.46 396.09L453.46 396.11L453.52 396.11L453.52 396.12L453.58 396.12L453.58 396.14L453.59 396.14L453.59 396.16L453.62 396.16L453.62 396.18L453.65 396.18L453.65 396.2L453.68 396.2L453.68 396.22L453.7 396.22L453.7 396.26L453.72 396.26L453.72 396.28L453.75 396.28L453.75 396.3L453.76 396.3L453.76 396.31L453.85 396.31L453.85 396.33L453.86 396.33L453.86 396.35L453.87 396.35L453.87 396.37L453.9 396.37L453.9 396.39L453.93 396.39L453.93 396.41L453.94 396.41L453.94 396.43L453.97 396.43L453.97 396.47L453.99 396.47L453.99 396.48L454.02 396.48L454.02 396.52L454.06 396.52L454.06 396.54L454.09 396.54L454.09 396.6L454.07 396.6L454.07 396.62L454.03 396.62L454.03 396.6L454 396.6L454 396.58L453.94 396.58L453.94 396.6L453.85 396.6L453.85 396.58L453.79 396.58L453.79 396.56L453.73 396.56L453.73 396.54L453.72 396.54L453.72 396.52L453.65 396.52L453.65 396.5L453.6 396.5Z" />
	<path id="Yanam" fill-rule="evenodd" class="shp0" d="M580.91 66.53L580.9 66.54L580.9 66.55L580.89 66.55L580.89 66.57L580.86 66.57L580.86 66.6L580.85 66.6L580.85 66.64L580.82 66.64L580.82 66.68L580.8 66.68L580.8 66.7L580.79 66.7L580.79 66.72L580.78 66.72L580.78 66.74L580.76 66.74L580.76 66.77L580.75 66.77L580.75 66.79L580.73 66.79L580.73 66.81L580.7 66.81L580.7 66.83L580.69 66.83L580.69 66.85L580.68 66.85L580.68 66.87L580.66 66.87L580.66 66.89L580.65 66.89L580.65 66.91L580.63 66.91L580.63 66.93L580.61 66.93L580.61 66.94L580.53 66.94L580.53 66.96L580.49 66.96L580.49 66.98L580.35 66.98L580.35 67L580.32 67L580.32 66.98L580.28 66.98L580.28 67L580.24 67L580.24 66.98L580.21 66.98L580.21 66.96L579.95 66.96L579.95 66.94L579.88 66.94L579.88 66.93L579.5 66.93L579.5 66.91L579.44 66.91L579.44 66.87L579.41 66.87L579.41 66.85L579.38 66.85L579.38 66.83L579.37 66.83L579.37 66.81L579.36 66.81L579.36 66.79L579.34 66.79L579.34 66.77L579.33 66.77L579.33 66.75L579.3 66.75L579.3 66.72L579.27 66.72L579.27 66.7L579.23 66.7L579.23 66.68L579.21 66.68L579.21 66.66L579.17 66.66L579.17 66.64L579.16 66.64L579.16 66.62L579.14 66.62L579.14 66.6L579.13 66.6L579.13 66.58L579.11 66.58L579.11 66.57L579.09 66.57L579.09 66.55L579.06 66.55L579.06 66.53L579.03 66.53L579.03 66.51L579 66.51L579 66.49L578.97 66.49L578.97 66.47L578.96 66.47L578.96 66.45L578.91 66.45L578.91 66.43L578.87 66.43L578.87 66.41L578.83 66.41L578.83 66.4L578.8 66.4L578.8 66.38L578.77 66.38L578.77 66.36L578.74 66.36L578.74 66.34L578.69 66.34L578.69 66.32L578.62 66.32L578.62 66.3L578.56 66.3L578.56 66.28L578.45 66.28L578.45 66.26L578.42 66.26L578.42 66.28L578.33 66.28L578.33 66.3L578.3 66.3L578.3 66.32L578.19 66.32L578.19 66.34L578.16 66.34L578.16 66.4L578.15 66.4L578.15 66.45L578.13 66.45L578.13 66.53L578.12 66.53L578.12 66.59L578.11 66.58L578.11 66.64L578.09 66.64L578.09 66.72L578.08 66.72L578.08 66.77L578.06 66.77L578.06 66.85L578.05 66.85L578.05 66.89L578.03 66.89L578.03 66.91L578.02 66.91L578.02 66.93L578.01 66.93L578.01 66.96L578.02 66.96L578.02 66.94L578.05 66.94L578.05 66.96L578.08 66.96L578.08 66.98L578.09 66.98L578.09 67L578.11 67L578.11 67.02L578.12 67.02L578.12 67.04L578.18 67.04L578.18 67.06L578.19 67.06L578.19 67.08L578.2 67.08L578.2 67.1L578.25 67.1L578.25 67.12L578.26 67.12L578.26 67.13L578.28 67.13L578.28 67.15L578.29 67.15L578.29 67.19L578.3 67.19L578.3 67.21L578.32 67.21L578.32 67.23L578.33 67.23L578.33 67.25L578.35 67.25L578.35 67.29L578.36 67.29L578.36 67.31L578.38 67.3L578.38 67.34L578.39 67.34L578.39 67.36L578.4 67.36L578.4 67.38L578.42 67.38L578.42 67.4L578.43 67.4L578.43 67.42L578.45 67.42L578.45 67.44L578.46 67.44L578.46 67.46L578.47 67.46L578.47 67.48L578.49 67.48L578.49 67.49L578.5 67.49L578.5 67.51L578.52 67.51L578.52 67.55L578.55 67.55L578.55 67.57L578.57 67.57L578.57 67.59L578.59 67.59L578.59 67.63L578.6 67.63L578.6 67.66L578.62 67.66L578.62 67.68L578.63 67.68L578.63 67.72L578.65 67.72L578.65 67.76L578.66 67.76L578.66 67.78L578.67 67.78L578.67 67.8L578.69 67.8L578.69 67.82L578.7 67.82L578.7 67.84L578.72 67.84L578.72 67.85L578.73 67.85L578.73 67.87L578.72 67.87L578.72 67.93L578.74 67.93L578.74 68.01L578.76 68.01L578.76 68.06L578.77 68.06L578.77 68.16L578.56 68.19L578.2 68.07L577.23 67.17L576.61 66.82L575.95 66.96L575.5 66.91L574.75 66.37L574.53 65.77L574.82 65.57L575.25 65.63L575.66 65L576.19 64.5L576.39 64.2L576.73 63.96L576.94 64.05L576.84 64.43L576.34 65.35L576.39 65.58L576.58 65.77L576.87 66.24L577.21 66.31L578.12 66.19L579.08 66.16L579.95 65.93L580.18 65.13L580.38 64.69L580.62 64.55L580.82 64.73L580.99 65.21L581.08 65.93L580.91 66.51L580.91 66.52L580.91 66.53ZM578.83 68.16L578.83 68.12L578.82 68.12L578.82 68.04L578.8 68.04L578.8 68.02L578.79 68.02L578.79 67.97L578.77 67.97L578.77 67.66L578.76 67.66L578.76 67.63L578.77 67.63L578.77 67.61L578.79 67.61L578.79 67.36L578.86 67.36L578.86 67.34L578.93 67.34L578.93 67.32L579.01 67.32L579.01 67.3L579.04 67.31L579.04 67.29L579.18 67.29L579.18 67.31L579.3 67.3L579.3 67.32L579.41 67.32L579.41 67.34L579.44 67.34L579.44 67.36L579.5 67.36L579.5 67.38L579.57 67.38L579.57 67.4L579.61 67.4L579.61 67.42L579.67 67.42L579.67 67.44L579.71 67.44L579.71 67.46L579.77 67.46L579.77 67.48L579.81 67.48L579.81 67.49L579.85 67.49L579.85 67.51L579.88 67.51L579.88 67.53L579.94 67.53L579.94 67.55L579.98 67.55L579.98 67.57L580.04 67.57L580.04 67.59L580.08 67.59L580.08 67.61L580.15 67.61L580.15 67.63L580.18 67.63L580.18 67.65L580.19 67.65L580.18 67.66L579.73 67.95L579.13 68.13L578.83 68.16Z" />
	<path id="Layer" class="shp1" d="M790 261.5L800 261.5L800 271.5L790 271.5L790 261.5Z" />
	<path id="Layer" class="shp1" d="" />
	<path id="Karaikal" fill="#000000" aria-label="Karaikal"  d="M430.67 441L430.67 431.52L431.95 431.52L431.95 435.53L436.2 431.52L437.85 431.52L433.15 435.94L438.19 441L436.5 441L431.95 436.44L431.95 441L430.67 441ZM443.3 437.43L442.14 437.43Q440.73 437.43 440.18 437.75Q439.64 438.07 439.64 438.85Q439.64 439.48 440.04 439.84Q440.45 440.21 441.16 440.21Q442.13 440.21 442.71 439.52Q443.3 438.83 443.3 437.69L443.3 437.43ZM444.47 436.94L444.47 441L443.3 441L443.3 439.92Q442.9 440.57 442.31 440.88Q441.71 441.18 440.85 441.18Q439.76 441.18 439.11 440.57Q438.47 439.96 438.47 438.93Q438.47 437.73 439.27 437.12Q440.07 436.51 441.67 436.51L443.3 436.51L443.3 436.4Q443.3 435.59 442.77 435.15Q442.24 434.71 441.29 434.71Q440.68 434.71 440.1 434.86Q439.52 435 438.99 435.29L438.99 434.21Q439.63 433.97 440.23 433.85Q440.83 433.72 441.41 433.72Q442.95 433.72 443.71 434.52Q444.47 435.32 444.47 436.94ZM450.99 433.78L451 434.98Q450.8 434.87 450.57 434.82Q450.34 434.76 450.06 434.76Q449.07 434.76 448.53 435.41Q448.01 436.05 448.01 437.25L448.01 441L446.83 441L446.83 433.89L448.01 433.89L448.01 435Q448.38 434.35 448.97 434.04Q449.56 433.72 450.4 433.72Q450.52 433.72 450.67 433.74Q450.81 433.75 450.99 433.78ZM456.62 437.43L455.45 437.43Q454.04 437.43 453.49 437.75Q452.95 438.07 452.95 438.85Q452.95 439.48 453.35 439.84Q453.77 440.21 454.47 440.21Q455.44 440.21 456.02 439.52Q456.62 438.83 456.62 437.69L456.62 437.43ZM457.78 436.94L457.78 441L456.62 441L456.62 439.92Q456.22 440.57 455.62 440.88Q455.02 441.18 454.16 441.18Q453.07 441.18 452.42 440.57Q451.78 439.96 451.78 438.93Q451.78 437.73 452.58 437.12Q453.38 436.51 454.98 436.51L456.62 436.51L456.62 436.4Q456.62 435.59 456.08 435.15Q455.56 434.71 454.6 434.71Q453.99 434.71 453.41 434.86Q452.83 435 452.3 435.29L452.3 434.21Q452.94 433.97 453.54 433.85Q454.15 433.72 454.72 433.72Q456.26 433.72 457.02 434.52Q457.78 435.32 457.78 436.94ZM460.19 441L460.19 433.89L461.36 433.89L461.36 441L460.19 441ZM460.19 432.6L460.19 431.12L461.36 431.12L461.36 432.6L460.19 432.6ZM463.76 441L463.76 431.12L464.93 431.12L464.93 436.96L468.42 433.89L469.91 433.89L466.14 437.22L470.07 441L468.54 441L464.93 437.53L464.93 441L463.76 441ZM475.49 437.43L474.33 437.43Q472.92 437.43 472.37 437.75Q471.82 438.07 471.82 438.85Q471.82 439.48 472.23 439.84Q472.64 440.21 473.35 440.21Q474.32 440.21 474.9 439.52Q475.49 438.83 475.49 437.69L475.49 437.43ZM476.66 436.94L476.66 441L475.49 441L475.49 439.92Q475.09 440.57 474.5 440.88Q473.9 441.18 473.04 441.18Q471.94 441.18 471.3 440.57Q470.66 439.96 470.66 438.93Q470.66 437.73 471.46 437.12Q472.26 436.51 473.86 436.51L475.49 436.51L475.49 436.4Q475.49 435.59 474.96 435.15Q474.43 434.71 473.47 434.71Q472.87 434.71 472.29 434.86Q471.71 435 471.18 435.29L471.18 434.21Q471.82 433.97 472.42 433.85Q473.02 433.72 473.6 433.72Q475.14 433.72 475.9 434.52Q476.66 435.32 476.66 436.94ZM479.07 441L479.07 431.12L480.23 431.12L480.23 441L479.07 441Z" />
	<path id="Mahe" fill="#000000" aria-label="Mahe"  d="M209.36 362L209.36 352.52L211.27 352.52L213.69 358.97L216.12 352.52L218.03 352.52L218.03 362L216.78 362L216.78 353.68L214.34 360.18L213.05 360.18L210.61 353.68L210.61 362L209.36 362ZM224.92 358.43L223.76 358.43Q222.34 358.43 221.8 358.75Q221.25 359.07 221.25 359.85Q221.25 360.48 221.66 360.84Q222.07 361.21 222.78 361.21Q223.75 361.21 224.33 360.52Q224.92 359.83 224.92 358.69L224.92 358.43ZM226.09 357.94L226.09 362L224.92 362L224.92 360.92Q224.52 361.57 223.93 361.88Q223.33 362.18 222.47 362.18Q221.37 362.18 220.73 361.57Q220.09 360.96 220.09 359.93Q220.09 358.73 220.88 358.12Q221.69 357.51 223.28 357.51L224.92 357.51L224.92 357.4Q224.92 356.59 224.39 356.15Q223.86 355.71 222.9 355.71Q222.29 355.71 221.72 355.86Q221.14 356 220.61 356.29L220.61 355.21Q221.25 354.97 221.85 354.85Q222.45 354.72 223.02 354.72Q224.57 354.72 225.33 355.52Q226.09 356.32 226.09 357.94ZM234.41 357.71L234.41 362L233.24 362L233.24 357.75Q233.24 356.74 232.84 356.24Q232.45 355.73 231.66 355.73Q230.72 355.73 230.17 356.34Q229.63 356.94 229.63 357.98L229.63 362L228.45 362L228.45 352.12L229.63 352.12L229.63 356Q230.04 355.35 230.61 355.04Q231.18 354.72 231.92 354.72Q233.15 354.72 233.78 355.48Q234.41 356.24 234.41 357.71ZM242.82 358.15L242.82 358.72L237.45 358.72Q237.52 359.93 238.17 360.57Q238.82 361.19 239.99 361.19Q240.66 361.19 241.29 361.03Q241.92 360.86 242.54 360.53L242.54 361.64Q241.91 361.9 241.25 362.04Q240.59 362.18 239.92 362.18Q238.21 362.18 237.22 361.19Q236.23 360.2 236.23 358.52Q236.23 356.77 237.17 355.75Q238.11 354.72 239.71 354.72Q241.15 354.72 241.98 355.65Q242.82 356.57 242.82 358.15ZM237.48 357.82L241.65 357.81Q241.64 356.85 241.11 356.28Q240.59 355.71 239.72 355.71Q238.75 355.71 238.16 356.26Q237.57 356.81 237.48 357.82Z" />
	<path id="Puducherry" fill="#000000" aria-label="Puducherry"  d="M421.79 360.58L420.18 360.58L420.18 364.14L421.79 364.14Q422.69 364.14 423.18 363.67Q423.67 363.21 423.67 362.35Q423.67 361.5 423.18 361.04Q422.69 360.58 421.79 360.58ZM418.9 369L418.9 359.52L421.79 359.52Q423.39 359.52 424.2 360.25Q425.02 360.96 425.02 362.35Q425.02 363.76 424.2 364.47Q423.39 365.19 421.79 365.19L420.18 365.19L420.18 369L418.9 369ZM426.34 366.19L426.34 361.89L427.51 361.89L427.51 366.15Q427.51 367.16 427.9 367.67Q428.29 368.17 429.08 368.17Q430.03 368.17 430.57 367.57Q431.13 366.96 431.13 365.92L431.13 361.89L432.29 361.89L432.29 369L431.13 369L431.13 367.91Q430.7 368.56 430.14 368.87Q429.58 369.18 428.83 369.18Q427.61 369.18 426.97 368.42Q426.34 367.66 426.34 366.19ZM429.28 361.72L429.28 361.72ZM439.38 362.97L439.38 359.12L440.55 359.12L440.55 369L439.38 369L439.38 367.93Q439.01 368.57 438.44 368.88Q437.89 369.18 437.1 369.18Q435.81 369.18 435 368.16Q434.19 367.13 434.19 365.45Q434.19 363.78 435 362.75Q435.81 361.72 437.1 361.72Q437.89 361.72 438.44 362.03Q439.01 362.33 439.38 362.97ZM435.4 365.45Q435.4 366.74 435.92 367.48Q436.46 368.21 437.38 368.21Q438.31 368.21 438.84 367.48Q439.38 366.74 439.38 365.45Q439.38 364.16 438.84 363.43Q438.31 362.7 437.38 362.7Q436.46 362.7 435.92 363.43Q435.4 364.16 435.4 365.45ZM442.83 366.19L442.83 361.89L444 361.89L444 366.15Q444 367.16 444.39 367.67Q444.79 368.17 445.57 368.17Q446.52 368.17 447.06 367.57Q447.62 366.96 447.62 365.92L447.62 361.89L448.78 361.89L448.78 369L447.62 369L447.62 367.91Q447.19 368.56 446.63 368.87Q446.07 369.18 445.33 369.18Q444.1 369.18 443.47 368.42Q442.83 367.66 442.83 366.19ZM445.77 361.72L445.77 361.72ZM456.31 362.16L456.31 363.26Q455.81 362.98 455.31 362.85Q454.81 362.71 454.31 362.71Q453.17 362.71 452.54 363.43Q451.91 364.15 451.91 365.45Q451.91 366.75 452.54 367.48Q453.17 368.19 454.31 368.19Q454.81 368.19 455.31 368.06Q455.81 367.92 456.31 367.65L456.31 368.73Q455.82 368.96 455.29 369.07Q454.77 369.18 454.18 369.18Q452.57 369.18 451.63 368.17Q450.68 367.17 450.68 365.45Q450.68 363.71 451.63 362.72Q452.59 361.72 454.26 361.72Q454.8 361.72 455.31 361.83Q455.82 361.94 456.31 362.16ZM464.25 364.71L464.25 369L463.08 369L463.08 364.75Q463.08 363.74 462.69 363.24Q462.29 362.73 461.51 362.73Q460.56 362.73 460.01 363.34Q459.47 363.94 459.47 364.98L459.47 369L458.29 369L458.29 359.12L459.47 359.12L459.47 363Q459.89 362.35 460.45 362.04Q461.02 361.72 461.77 361.72Q462.99 361.72 463.62 362.48Q464.25 363.24 464.25 364.71ZM472.66 365.15L472.66 365.72L467.29 365.72Q467.36 366.93 468.01 367.57Q468.67 368.19 469.83 368.19Q470.5 368.19 471.13 368.03Q471.76 367.86 472.39 367.53L472.39 368.64Q471.76 368.9 471.1 369.04Q470.44 369.18 469.76 369.18Q468.06 369.18 467.06 368.19Q466.07 367.2 466.07 365.52Q466.07 363.77 467.01 362.75Q467.95 361.72 469.55 361.72Q470.99 361.72 471.82 362.65Q472.66 363.57 472.66 365.15ZM467.33 364.82L471.49 364.81Q471.48 363.85 470.95 363.28Q470.43 362.71 469.57 362.71Q468.59 362.71 468 363.26Q467.42 363.81 467.33 364.82ZM478.69 361.78L478.69 362.98Q478.5 362.87 478.26 362.82Q478.03 362.76 477.76 362.76Q476.77 362.76 476.23 363.41Q475.71 364.05 475.71 365.25L475.71 369L474.53 369L474.53 361.89L475.71 361.89L475.71 363Q476.07 362.35 476.66 362.04Q477.25 361.72 478.1 361.72Q478.22 361.72 478.36 361.74Q478.51 361.75 478.69 361.78ZM483.8 361.78L483.81 362.98Q483.61 362.87 483.38 362.82Q483.15 362.76 482.87 362.76Q481.88 362.76 481.35 363.41Q480.82 364.05 480.82 365.25L480.82 369L479.65 369L479.65 361.89L480.82 361.89L480.82 363Q481.19 362.35 481.78 362.04Q482.37 361.72 483.21 361.72Q483.33 361.72 483.48 361.74Q483.63 361.75 483.8 361.78ZM491.12 361.89L487.99 369.66Q487.5 370.93 487.03 371.32Q486.56 371.7 485.77 371.7L484.84 371.7L484.84 370.73L485.52 370.73Q486.01 370.73 486.27 370.5Q486.54 370.27 486.86 369.42L487.07 368.89L484.2 361.89L485.44 361.89L487.66 367.45L489.88 361.89L491.12 361.89Z" />
	<path id="Yanam" fill="#000000" aria-label="Yanam"  d="M561.48 90.49L558.13 85.52L559.51 85.52L562.13 89.42L564.74 85.52L566.12 85.52L562.77 90.49L562.77 95L561.48 95L561.48 90.49ZM569.92 91.43L568.76 91.43Q567.35 91.43 566.8 91.75Q566.25 92.07 566.25 92.85Q566.25 93.48 566.66 93.84Q567.07 94.21 567.78 94.21Q568.75 94.21 569.33 93.52Q569.92 92.83 569.92 91.69L569.92 91.43ZM571.09 90.94L571.09 95L569.92 95L569.92 93.92Q569.52 94.57 568.93 94.88Q568.33 95.18 567.47 95.18Q566.37 95.18 565.73 94.57Q565.09 93.96 565.09 92.93Q565.09 91.73 565.89 91.12Q566.69 90.51 568.28 90.51L569.92 90.51L569.92 90.4Q569.92 89.59 569.39 89.15Q568.86 88.71 567.9 88.71Q567.29 88.71 566.72 88.86Q566.14 89 565.61 89.29L565.61 88.21Q566.25 87.97 566.85 87.85Q567.45 87.72 568.02 87.72Q569.57 87.72 570.33 88.52Q571.09 89.32 571.09 90.94ZM579.41 90.71L579.41 95L578.24 95L578.24 90.75Q578.24 89.74 577.84 89.24Q577.45 88.73 576.66 88.73Q575.72 88.73 575.17 89.34Q574.63 89.94 574.63 90.98L574.63 95L573.45 95L573.45 87.89L574.63 87.89L574.63 89Q575.04 88.35 575.61 88.04Q576.18 87.72 576.92 87.72Q578.15 87.72 578.78 88.48Q579.41 89.24 579.41 90.71ZM586.13 91.43L584.97 91.43Q583.55 91.43 583 91.75Q582.46 92.07 582.46 92.85Q582.46 93.48 582.87 93.84Q583.28 94.21 583.98 94.21Q584.95 94.21 585.54 93.52Q586.13 92.83 586.13 91.69L586.13 91.43ZM587.3 90.94L587.3 95L586.13 95L586.13 93.92Q585.73 94.57 585.13 94.88Q584.53 95.18 583.67 95.18Q582.58 95.18 581.93 94.57Q581.29 93.96 581.29 92.93Q581.29 91.73 582.09 91.12Q582.9 90.51 584.49 90.51L586.13 90.51L586.13 90.4Q586.13 89.59 585.59 89.15Q585.07 88.71 584.11 88.71Q583.5 88.71 582.92 88.86Q582.34 89 581.81 89.29L581.81 88.21Q582.45 87.97 583.06 87.85Q583.66 87.72 584.23 87.72Q585.77 87.72 586.53 88.52Q587.3 89.32 587.3 90.94ZM595.24 89.26Q595.67 88.47 596.28 88.09Q596.89 87.72 597.72 87.72Q598.83 87.72 599.43 88.5Q600.04 89.27 600.04 90.71L600.04 95L598.86 95L598.86 90.75Q598.86 89.73 598.5 89.23Q598.14 88.73 597.4 88.73Q596.49 88.73 595.96 89.34Q595.43 89.94 595.43 90.98L595.43 95L594.26 95L594.26 90.75Q594.26 89.72 593.9 89.23Q593.54 88.73 592.78 88.73Q591.89 88.73 591.36 89.34Q590.83 89.95 590.83 90.98L590.83 95L589.66 95L589.66 87.89L590.83 87.89L590.83 89Q591.23 88.34 591.79 88.03Q592.35 87.72 593.12 87.72Q593.89 87.72 594.43 88.11Q594.98 88.51 595.24 89.26Z" />
	<path id="Created with paintmaps.com" fill="#000000" aria-label="Created with paintmaps.com"  d="M647.25 512.16Q646 512.16 645.3 512.97Q644.6 513.77 644.6 515.18Q644.6 516.57 645.33 517.42Q646.06 518.26 647.3 518.26Q648.89 518.26 649.69 516.69L650.52 517.11Q650.06 518.09 649.21 518.6Q648.37 519.11 647.25 519.11Q646.1 519.11 645.27 518.63Q644.43 518.16 643.99 517.28Q643.56 516.39 643.56 515.18Q643.56 513.37 644.54 512.35Q645.51 511.32 647.24 511.32Q648.45 511.32 649.26 511.79Q650.07 512.26 650.46 513.19L649.48 513.52Q649.22 512.86 648.63 512.51Q648.05 512.16 647.25 512.16ZM652.67 519L651.71 519L651.71 514.54Q651.71 513.93 651.67 513.19L652.59 513.19Q652.63 514.18 652.63 514.38L652.65 514.38Q652.88 513.63 653.18 513.35Q653.48 513.08 654.03 513.08Q654.23 513.08 654.42 513.13L654.42 514.02Q654.23 513.97 653.91 513.97Q653.31 513.97 652.99 514.49Q652.67 515 652.67 515.97L652.67 519ZM660.24 516.3L656.09 516.3Q656.09 517.3 656.5 517.84Q656.92 518.38 657.71 518.38Q658.34 518.38 658.72 518.13Q659.1 517.88 659.23 517.49L660.08 517.73Q659.56 519.11 657.71 519.11Q656.42 519.11 655.75 518.34Q655.07 517.57 655.07 516.06Q655.07 514.62 655.75 513.85Q656.42 513.08 657.67 513.08Q660.24 513.08 660.24 516.17L660.24 516.3ZM656.1 515.56L659.24 515.56Q659.16 514.64 658.77 514.22Q658.38 513.8 657.66 513.8Q656.95 513.8 656.54 514.27Q656.13 514.74 656.1 515.56ZM662.95 519.11Q662.07 519.11 661.63 518.65Q661.19 518.18 661.19 517.38Q661.19 516.48 661.78 515.99Q662.38 515.51 663.7 515.48L665.01 515.46L665.01 515.14Q665.01 514.43 664.7 514.12Q664.4 513.82 663.76 513.82Q663.11 513.82 662.81 514.04Q662.52 514.26 662.46 514.74L661.45 514.65Q661.7 513.08 663.78 513.08Q664.88 513.08 665.43 513.59Q665.98 514.09 665.98 515.04L665.98 517.54Q665.98 517.97 666.1 518.19Q666.21 518.4 666.53 518.4Q666.67 518.4 666.84 518.37L666.84 518.97Q666.48 519.05 666.1 519.05Q665.56 519.05 665.31 518.77Q665.07 518.49 665.04 517.89L665.01 517.89Q664.63 518.55 664.14 518.83Q663.65 519.11 662.95 519.11ZM663.17 518.38Q663.7 518.38 664.11 518.14Q664.53 517.9 664.76 517.48Q665.01 517.06 665.01 516.61L665.01 516.13L663.95 516.15Q663.27 516.16 662.91 516.29Q662.56 516.42 662.37 516.69Q662.19 516.96 662.19 517.39Q662.19 517.87 662.44 518.12Q662.7 518.38 663.17 518.38ZM669.82 518.24L669.82 518.96Q669.34 519.09 668.84 519.09Q667.68 519.09 667.68 517.77L667.68 513.89L667.01 513.89L667.01 513.19L667.72 513.19L668 511.89L668.65 511.89L668.65 513.19L669.72 513.19L669.72 513.89L668.65 513.89L668.65 517.56Q668.65 517.98 668.78 518.15Q668.92 518.32 669.26 518.32Q669.45 518.32 669.82 518.24ZM675.53 516.3L671.38 516.3Q671.38 517.3 671.79 517.84Q672.21 518.38 673 518.38Q673.63 518.38 674.01 518.13Q674.39 517.88 674.52 517.49L675.37 517.73Q674.85 519.11 673 519.11Q671.71 519.11 671.04 518.34Q670.37 517.57 670.37 516.06Q670.37 514.62 671.04 513.85Q671.71 513.08 672.97 513.08Q675.53 513.08 675.53 516.17L675.53 516.3ZM671.39 515.56L674.53 515.56Q674.45 514.64 674.06 514.22Q673.67 513.8 672.95 513.8Q672.25 513.8 671.83 514.27Q671.42 514.74 671.39 515.56ZM680.45 518.07L680.43 518.07Q680.16 518.62 679.71 518.87Q679.27 519.11 678.62 519.11Q677.51 519.11 676.99 518.37Q676.48 517.63 676.48 516.12Q676.48 513.08 678.62 513.08Q679.28 513.08 679.72 513.32Q680.16 513.56 680.43 514.09L680.44 514.09L680.43 513.44L680.43 511.03L681.39 511.03L681.39 517.8Q681.39 518.71 681.42 519L680.5 519Q680.48 518.91 680.46 518.6Q680.45 518.29 680.45 518.07ZM677.49 516.09Q677.49 517.31 677.82 517.83Q678.14 518.36 678.86 518.36Q679.68 518.36 680.06 517.79Q680.43 517.22 680.43 516.02Q680.43 514.87 680.06 514.33Q679.68 513.8 678.87 513.8Q678.14 513.8 677.82 514.34Q677.49 514.88 677.49 516.09ZM693.16 513.19L691.5 519L690.37 519L689.36 514.89L689.16 513.98Q689.12 514.23 689.01 514.68Q688.91 515.13 687.92 519L686.8 519L685.17 513.19L686.13 513.19L687.11 517.14Q687.15 517.27 687.34 518.2L687.44 517.8L688.65 513.19L689.69 513.19L690.7 517.18L690.95 518.2L691.11 517.45L692.22 513.19L693.16 513.19ZM694.84 511.95L693.87 511.95L693.87 511.03L694.84 511.03L694.84 511.95ZM694.84 519L693.87 519L693.87 513.19L694.84 513.19L694.84 519ZM698.55 518.24L698.55 518.96Q698.08 519.09 697.58 519.09Q696.42 519.09 696.42 517.77L696.42 513.89L695.74 513.89L695.74 513.19L696.45 513.19L696.74 511.89L697.38 511.89L697.38 513.19L698.46 513.19L698.46 513.89L697.38 513.89L697.38 517.56Q697.38 517.98 697.52 518.15Q697.66 518.32 697.99 518.32Q698.19 518.32 698.55 518.24ZM700.32 514.18L700.34 514.18Q700.65 513.61 701.08 513.35Q701.52 513.08 702.19 513.08Q703.14 513.08 703.59 513.55Q704.04 514.02 704.04 515.13L704.04 519L703.06 519L703.06 515.32Q703.06 514.7 702.95 514.41Q702.84 514.11 702.58 513.97Q702.32 513.83 701.87 513.83Q701.19 513.83 700.77 514.3Q700.36 514.77 700.36 515.57L700.36 519L699.4 519L699.4 511.03L700.36 511.03L700.36 513.1Q700.36 513.43 700.34 513.78Q700.33 514.13 700.32 514.18ZM713.46 516.07Q713.46 519.11 711.33 519.11Q709.98 519.11 709.52 518.1L709.49 518.1Q709.52 518.14 709.52 519.01L709.52 521.28L708.55 521.28L708.55 514.38Q708.55 513.48 708.52 513.19L709.45 513.19Q709.46 513.21 709.47 513.34Q709.48 513.47 709.49 513.75Q709.5 514.02 709.5 514.12L709.53 514.12Q709.78 513.59 710.21 513.34Q710.63 513.09 711.33 513.09Q712.4 513.09 712.93 513.81Q713.46 514.53 713.46 516.07ZM712.45 516.09Q712.45 514.88 712.12 514.35Q711.79 513.83 711.08 513.83Q710.5 513.83 710.18 514.07Q709.85 514.32 709.68 514.83Q709.52 515.34 709.52 516.16Q709.52 517.31 709.88 517.85Q710.25 518.39 711.07 518.39Q711.79 518.39 712.12 517.87Q712.45 517.33 712.45 516.09ZM716.15 519.11Q715.27 519.11 714.83 518.65Q714.39 518.18 714.39 517.38Q714.39 516.48 714.98 515.99Q715.58 515.51 716.9 515.48L718.21 515.46L718.21 515.14Q718.21 514.43 717.91 514.12Q717.6 513.82 716.96 513.82Q716.31 513.82 716.01 514.04Q715.72 514.26 715.66 514.74L714.65 514.65Q714.9 513.08 716.98 513.08Q718.08 513.08 718.63 513.59Q719.18 514.09 719.18 515.04L719.18 517.54Q719.18 517.97 719.3 518.19Q719.41 518.4 719.73 518.4Q719.87 518.4 720.04 518.37L720.04 518.97Q719.68 519.05 719.3 519.05Q718.76 519.05 718.51 518.77Q718.27 518.49 718.24 517.89L718.21 517.89Q717.84 518.55 717.34 518.83Q716.85 519.11 716.15 519.11ZM716.37 518.38Q716.9 518.38 717.31 518.14Q717.73 517.9 717.96 517.48Q718.21 517.06 718.21 516.61L718.21 516.13L717.15 516.15Q716.47 516.16 716.11 516.29Q715.76 516.42 715.57 516.69Q715.39 516.96 715.39 517.39Q715.39 517.87 715.64 518.12Q715.9 518.38 716.37 518.38ZM721.75 511.95L720.78 511.95L720.78 511.03L721.75 511.03L721.75 511.95ZM721.75 519L720.78 519L720.78 513.19L721.75 513.19L721.75 519ZM727.89 519L726.92 519L726.92 515.32Q726.92 514.74 726.81 514.42Q726.69 514.11 726.45 513.97Q726.2 513.83 725.72 513.83Q725.02 513.83 724.62 514.31Q724.22 514.78 724.22 515.63L724.22 519L723.25 519L723.25 514.43Q723.25 513.41 723.22 513.19L724.13 513.19Q724.14 513.22 724.14 513.33Q724.15 513.45 724.15 513.61Q724.16 513.76 724.17 514.18L724.19 514.18Q724.52 513.58 724.96 513.33Q725.4 513.08 726.05 513.08Q727 513.08 727.44 513.56Q727.89 514.03 727.89 515.13L727.89 519ZM731.58 518.24L731.58 518.96Q731.1 519.09 730.6 519.09Q729.44 519.09 729.44 517.77L729.44 513.89L728.77 513.89L728.77 513.19L729.48 513.19L729.76 511.89L730.41 511.89L730.41 513.19L731.48 513.19L731.48 513.89L730.41 513.89L730.41 517.56Q730.41 517.98 730.54 518.15Q730.68 518.32 731.02 518.32Q731.21 518.32 731.58 518.24ZM736.74 519L735.79 519L735.79 515.32Q735.79 514.47 735.55 514.15Q735.32 513.83 734.72 513.83Q734.1 513.83 733.74 514.3Q733.38 514.77 733.38 515.63L733.38 519L732.42 519L732.42 514.43Q732.42 513.41 732.39 513.19L733.3 513.19Q733.31 513.22 733.31 513.33Q733.32 513.45 733.33 513.61Q733.34 513.76 733.35 514.18L733.36 514.18Q733.67 513.56 734.08 513.32Q734.48 513.08 735.06 513.08Q735.72 513.08 736.1 513.34Q736.49 513.61 736.64 514.18L736.66 514.18Q736.96 513.6 737.38 513.34Q737.81 513.08 738.42 513.08Q739.3 513.08 739.7 513.56Q740.1 514.04 740.1 515.13L740.1 519L739.14 519L739.14 515.32Q739.14 514.47 738.91 514.15Q738.68 513.83 738.08 513.83Q737.45 513.83 737.09 514.3Q736.74 514.77 736.74 515.63L736.74 519ZM743.05 519.11Q742.17 519.11 741.73 518.65Q741.29 518.18 741.29 517.38Q741.29 516.48 741.88 515.99Q742.48 515.51 743.8 515.48L745.1 515.46L745.1 515.14Q745.1 514.43 744.8 514.12Q744.5 513.82 743.86 513.82Q743.21 513.82 742.91 514.04Q742.62 514.26 742.56 514.74L741.55 514.65Q741.8 513.08 743.88 513.08Q744.98 513.08 745.53 513.59Q746.08 514.09 746.08 515.04L746.08 517.54Q746.08 517.97 746.19 518.19Q746.31 518.4 746.62 518.4Q746.76 518.4 746.94 518.37L746.94 518.97Q746.58 519.05 746.19 519.05Q745.66 519.05 745.41 518.77Q745.17 518.49 745.14 517.89L745.1 517.89Q744.73 518.55 744.24 518.83Q743.75 519.11 743.05 519.11ZM743.27 518.38Q743.8 518.38 744.21 518.14Q744.63 517.9 744.86 517.48Q745.1 517.06 745.1 516.61L745.1 516.13L744.05 516.15Q743.36 516.16 743.01 516.29Q742.66 516.42 742.47 516.69Q742.28 516.96 742.28 517.39Q742.28 517.87 742.54 518.12Q742.79 518.38 743.27 518.38ZM752.6 516.07Q752.6 519.11 750.46 519.11Q749.12 519.11 748.65 518.1L748.63 518.1Q748.65 518.14 748.65 519.01L748.65 521.28L747.68 521.28L747.68 514.38Q747.68 513.48 747.65 513.19L748.58 513.19Q748.59 513.21 748.6 513.34Q748.61 513.47 748.62 513.75Q748.64 514.02 748.64 514.12L748.66 514.12Q748.92 513.59 749.34 513.34Q749.77 513.09 750.46 513.09Q751.53 513.09 752.07 513.81Q752.6 514.53 752.6 516.07ZM751.58 516.09Q751.58 514.88 751.25 514.35Q750.93 513.83 750.21 513.83Q749.64 513.83 749.31 514.07Q748.99 514.32 748.82 514.83Q748.65 515.34 748.65 516.16Q748.65 517.31 749.01 517.85Q749.38 518.39 750.2 518.39Q750.92 518.39 751.25 517.87Q751.58 517.33 751.58 516.09ZM758.16 517.39Q758.16 518.22 757.54 518.66Q756.92 519.11 755.8 519.11Q754.72 519.11 754.13 518.75Q753.54 518.39 753.37 517.64L754.22 517.47Q754.34 517.94 754.73 518.16Q755.12 518.37 755.8 518.37Q756.54 518.37 756.88 518.15Q757.22 517.92 757.22 517.47Q757.22 517.13 756.99 516.91Q756.75 516.7 756.22 516.56L755.53 516.37Q754.7 516.16 754.34 515.95Q753.99 515.75 753.79 515.45Q753.6 515.15 753.6 514.72Q753.6 513.93 754.16 513.52Q754.73 513.1 755.81 513.1Q756.78 513.1 757.34 513.44Q757.91 513.77 758.06 514.52L757.19 514.63Q757.11 514.24 756.75 514.04Q756.41 513.83 755.81 513.83Q755.16 513.83 754.85 514.03Q754.54 514.23 754.54 514.63Q754.54 514.88 754.67 515.04Q754.79 515.2 755.05 515.31Q755.3 515.42 756.11 515.62Q756.88 515.81 757.22 515.98Q757.55 516.14 757.75 516.34Q757.95 516.54 758.05 516.8Q758.16 517.06 758.16 517.39ZM760.61 519L759.56 519L759.56 517.82L760.61 517.82L760.61 519ZM763.09 516.07Q763.09 517.23 763.46 517.79Q763.82 518.34 764.56 518.34Q765.07 518.34 765.42 518.07Q765.77 517.79 765.85 517.21L766.83 517.27Q766.71 518.11 766.11 518.61Q765.51 519.11 764.59 519.11Q763.37 519.11 762.72 518.34Q762.08 517.57 762.08 516.09Q762.08 514.62 762.73 513.85Q763.37 513.08 764.57 513.08Q765.47 513.08 766.05 513.54Q766.64 514 766.79 514.82L765.8 514.89Q765.72 514.41 765.42 514.12Q765.11 513.84 764.55 513.84Q763.78 513.84 763.44 514.35Q763.09 514.86 763.09 516.07ZM772.77 516.09Q772.77 517.61 772.1 518.36Q771.43 519.11 770.15 519.11Q768.88 519.11 768.23 518.33Q767.58 517.56 767.58 516.09Q767.58 513.08 770.18 513.08Q771.51 513.08 772.14 513.82Q772.77 514.55 772.77 516.09ZM771.76 516.09Q771.76 514.89 771.4 514.34Q771.04 513.8 770.2 513.8Q769.35 513.8 768.97 514.35Q768.59 514.91 768.59 516.09Q768.59 517.24 768.96 517.82Q769.34 518.39 770.14 518.39Q771.01 518.39 771.38 517.83Q771.76 517.28 771.76 516.09ZM778.31 519L777.36 519L777.36 515.32Q777.36 514.47 777.13 514.15Q776.9 513.83 776.29 513.83Q775.68 513.83 775.32 514.3Q774.96 514.77 774.96 515.63L774.96 519L774 519L774 514.43Q774 513.41 773.96 513.19L774.88 513.19Q774.88 513.22 774.89 513.33Q774.89 513.45 774.9 513.61Q774.91 513.76 774.92 514.18L774.94 514.18Q775.25 513.56 775.65 513.32Q776.05 513.08 776.63 513.08Q777.29 513.08 777.67 513.34Q778.06 513.61 778.21 514.18L778.23 514.18Q778.53 513.6 778.95 513.34Q779.38 513.08 779.99 513.08Q780.87 513.08 781.27 513.56Q781.67 514.04 781.67 515.13L781.67 519L780.71 519L780.71 515.32Q780.71 514.47 780.48 514.15Q780.25 513.83 779.65 513.83Q779.02 513.83 778.66 514.3Q778.31 514.77 778.31 515.63L778.31 519Z" />
</svg>