<?xml version="1.0" encoding="utf-8"?>
<!-- Generator: Adobe Illustrator 25.1.0, SVG Export Plug-In . SVG Version: 6.00 Build 0)  -->
<svg version="1.1" id="Layer_1" xmlns="http://www.w3.org/2000/svg" xmlns:xlink="http://www.w3.org/1999/xlink" x="0px" y="0px"
	 viewBox="0 0 800 534" style="enable-background:new 0 0 800 534;" xml:space="preserve">
<style type="text/css">
	.st0{stroke:#000000;stroke-width:0.4;}
	.st1{fill:none;}
</style>
<path id="East_Sikkim" class="st0" d="M416,441.3l-6.6-2.8l-2.1-3.3l-1.8-3.7l0.4-6.6l0.7-4.9l-1.2-3.7l-3-2.9l-1.7-0.3l-3.2-1.3
	l-1.8-2.2l-3.6-2.2l-1.1-2.1l-0.6-3l0.3-3l1.7-6l-0.4-2l1.5-2.1l0.8-3.8l2.2-0.9l1.6-1.7l2.1-0.8l2.7-2l1.1-2l0.6-3.6l-2-4.1
	l-0.5-3.2l0.2-2.4l1.5-4.9l1.6-0.1l3.1-1.6l3.8-2.9l1.6-2l1.2-1l1.8,0.4l1.5-0.2l3.1,1.1l3.4,0.7l8.3-0.8l2.7-0.8l0.9,1.6l1.8,0.7
	l4.9,1.2l3.4,0.2l3.3-0.5l1-1l2.5-0.4l3,0.3l1.4-0.8l3.6-2.9l1.2,0l2.3,0.8l2.5-0.1l1.7-1.4l3.6-4.2l2-1.9l3.9-1.1l6.8,1.9l4.1,0.4
	l1.8-1.1l2.8-2.6l1.5,0.4l3.1,2.2l4.1,0.9l0.3,1.2l0.3,1l0.4,1.4l0.2,0.2v0.2l0.4,0.5l0.1,0.1v0.2l1.7,0.8l0.5,0.6l0,0l0,0l0.5,0.7
	l0.3,0.7l0.2,0.7l0.9,1.1v0.2v0.2l1.8,0.7l0.5,0.9h0.1h0.1v0.2l0.2,0.1l0.1,0.5l0.1,0.7l0.2,0.2l0.9,1.5l0.5,0.3l0.5,0.2l0.3-0.1
	l0.5-0.5l0.1-0.3l0.8-0.5l0.3-0.7l0,0l0.2-0.3l1.1-1.1l1.2-0.2l0.7,0.4l0.9,0.9l0.1,0.5l0.3,0.8l0.5,0.4l0.8,4.7l0.5,0.4l0.2,0.1
	l0.3,0.1l2.6,1l0,0l0.5,0.5l0.7,2.2l0.6,4.4l0.2,0.5l0.9,2.9l0.1,0.1l0.2,0.7l1.2,1l0,0.2l0.6,0.2l0.3-0.1l1-0.4l1.9,1.5l0.3,0.2
	l0.4-0.1l0.8-0.2l0.7,0.3l0.4,0.2l1.3,0.8l0,0.3l-0.1,0.9l0.1,0.5l0,0.2l0,0.2l0,0.6l-0.5,1L537,385l-0.5,0.8l-0.4,0.8l-0.2,0.6
	l-0.3,0.8l-0.2,0.4l-0.6,0.7l-0.2,0.5l0,0.1l-0.1,0.5v0.7v0.2l0,0.5l0,0.1l0,0.5l0.4,0.7l0.1,0.2l0.1,0.5l0.3,0.9l0.4,0.7l0.3,0.7
	l-0.2,0.5l-0.8,1l-0.2,0.9l-0.6,1.1l-0.1,1l0,1l-0.6,0.6l-0.5,0.5l-1.1,0l-0.3,0.5l-1.2,1l-0.8,0.5l-0.9,0.4l-0.9,0.2l-0.4,0
	l-0.6,0.2l-1.5,2.4l-0.4-0.1l-0.2-0.1l-0.2-0.1l-0.3-0.1l-0.3-0.1l-0.4-0.1l-0.5-0.2l-0.4-0.2l-0.8-0.3l-0.2-0.1l-1,0l-0.9,0l-0.8,0
	l-1.2,0.2l-1.3,0.1l-1.4,0.2l-0.8,0.1l-1.8,0.2l-0.7,0.1l-0.3,0l-0.2,0l-0.3,0.1l-1,2l-1.6,0.9l-1.2,0.6L506,411l-1.5,0.7l-2.2,1.2
	l-0.1,0.6l0.2,0.7l0.2,0.6l0.1,0.8l0,0.5l-0.1,0.6l-0.3,1.1l-0.1,1.2l0,0.6v0.6v0.3l0,0.4l0,0.4l0,0.5l0,1l0.1,0.3l0.1,0.6l-0.1,0.5
	l-0.1,0.8l-0.3,0.4l-0.1,0.4l-0.2,0.6l-0.2,0.5l-0.1,0.7l-0.1,1.5l-0.2,0.8l-0.4,0.4l-0.2,0.5l-0.4,0.6l-0.2,0.6l-1,1.9l-0.5,0.2
	l-0.2,0.3l-0.1,0.1l0,0.3l0,0.3l0,0.5l0.1,0.6l0,0.1l0,0.2l0,0.5l0,0.1l-0.1,0.2l0,0.4l-0.1,0.5l-0.1,0.8l-0.4,1.1l-0.7,0h-0.3
	l-0.3-0.1l-0.3-0.1l-0.3-0.2l-0.3-0.1l-0.3-0.1l-0.5,0l-0.7,0.4l-0.5,0.1l-0.4,0.1l-0.6,0.4l-0.4,0.4l-0.5,0.5l-0.2,0.2l-0.2,0.2
	l-0.4,0.3l-0.4,1.1l-0.2,0.6l-0.2,0.4l-0.2,0.4l-0.2,0.2l-0.3,0.7l-0.1,0.3l-0.3,0.6l-0.2,0.4l0,0.5l0.2,0.6l0.1,0.7l-0.3,1l0.2,0.3
	l0.3,0.4l0.3,0.3l0.1,0.5l0,0.1l0.2,0.7l-0.5,0.6l-0.5,1.3l-1.6,0l0,0l0,0l-0.7,0.2l-0.6,0.9l0,0.1l-3,2.4l-1.4,0.9l-2.4-0.5
	l-2.1-2.2l-0.9-2.5l-1-6.1l-3-3.6l-3.2-1.9l-2.2-0.6l-1.2,0.3l-2.1,1.2l-1.7,1.9l-2.6,4l-1-0.1l-4.3-1.9l-1.1-0.2l-1.7-2.8l-4.4-5.4
	l-3.7-0.7l-1-0.6l-1.6-0.1l-0.2-0.5l-1.1,0.6l-0.8-1.3l-1.4,1.6l-0.6-0.9l-5.7,2l-2.2-0.4l-5.5,2l-3.6,2.4L416,441.3z"/>
<path id="North_Sikkim" class="st0" d="M503.1,345.2l-4.1-0.9l-3.1-2.2l-1.5-0.4l-2.8,2.6l-1.8,1.1l-4.1-0.4l-6.8-1.9l-3.9,1.1
	l-2,1.9l-3.6,4.2l-1.7,1.4l-2.5,0.1l-2.3-0.8l-1.2,0l-3.6,2.9l-1.4,0.8l-3-0.3l-2.5,0.4l-1,1l-3.3,0.5l-3.4-0.2l-4.9-1.2l-1.8-0.7
	l-0.9-1.6l-2.7,0.8l-8.3,0.8l-3.4-0.7l-3.1-1.1l-1.5,0.2l-1.8-0.4l-1.2,1l-1.6,2l-3.8,2.9l-3.1,1.6l-1.6,0.1l-2.3-1.1l-2.5-1.8
	l-2-0.8l-3.1-0.4l-3.1-2l-2.1-2.6l-1.2-1.9l-1.8-3.6l-2.2-2.2l-0.9-2l-0.7-2.6l-0.1-3.9l0.6-3l-2.2-4.8l-0.5-2l0.1-2.8l-0.5-2.2
	l-2.1-1.4l-7.1-7.6l-3.3-5.2l-1.1-2.8l-1.7-1.7l-4-2l-2.3-0.5l-1.9-0.2l-2.9,0.4l-8.6,3.4l-2.9,2.4l-5.6-5.2l-4.7-2.3l-2-1.4
	l-1.2-2.3l-1.7-6.8l-4.3-6.7l-2.5-3.1l-14.1-7.6l-11.2-4.6l-1.4-1l0.3-2.8l1.3-2.5l-0.7-1l1-3.9l-0.2-2.5l3.4-4l1.8-0.8l0.1-0.2
	l2.1-3.1l0.3-2.5l0.4-3l0.3-1l0.3-1l1.9-2.7l-2-4.6l0,0L303,228l0.4-2.4l1.9-3.8L305,217l1.1-4.7l3.4-0.3l2.7-2.2l-0.6-4.6l1.3-1.4
	l0.8-1.9l-0.2-0.5l-0.3-0.6v-0.2l0.1-2.2l1.1-1l0.9-1.7l2.2-2.1l0.6-1.7l-1.1-2.2l-1.2-0.8l-0.9-1.4l-0.5-3.7l-1.9-2.1l-0.5-0.2
	l-1.2-0.5l-0.1-1.2l4.4-2l2.2-4.2l0.7-0.2l1.4-0.5l0-2.1l-1-1.3l-0.2-1l-0.4-2.3l-1-0.4l-1.4,0.3l-1-1.2l-1.4,0l-0.8,0l-1.2-1.8
	l-0.6-0.9l-0.2-0.1l-1.5-0.8l-0.4-0.5l-0.5-0.7l-3.1-0.9l-0.1-0.1l-1.5-2.4l-1.7-0.7l-1.1,0.3L299,155l-2.3,0l0.1-0.2l-0.1-1.6
	l-0.8-2.2l-0.3-1.5l-0.2-0.1l-0.2-0.4l-0.7-0.5l-0.1-0.5l-0.2-0.6l-0.6-0.7l-0.2-0.2l-0.4-1.3l-0.2-0.2l0-0.5l-0.8-2l-0.1-1.5l0-0.7
	l1-3.3l2.8-3.5l0.9-1.6l0-0.6l0-2.3l-1.6-1l0-0.9l0.1-0.3l1.9-2l0.9-2.3l0.5-0.6l1.3-0.2l0.2,0.1l0.1,0l2.1,1.1l0.1,0.1l2,1.1
	l4.1,3.9l2,1.4l0.6,0.2l2.2,0.3l1.8,0l1.3-0.7l0.6-0.3l0.2-0.3l0.1-0.1l0.4-1.4l0.6-3l0.1-1l0.2-0.4l0.7-1.6l0.3-0.3v-0.2l1.9-0.5
	l0.5,0.3l0.9,0.5l0.4,0.2l0.2,0.1l0.2,0.2l0.4,0.2l1.1,0.2l0.2-0.1l0.2-0.1l0.9-1.1l1.1-0.3l0.1,0.1l0.1,0l0.1,0.2l0.6,0.6l0.1,0.4
	l0.7,4.4l0.7,0.6l0.1,0.5v0.4l0.2,0.1l0,0.2l1.7,0.5l1.2-0.6l0.1,0l0,0l0.1-0.2l3.2-2.2l0.6-0.1l0.2,0.1l1.1-0.1l1.6-0.7l0.1,0.1
	l0.1,0l0.1-0.1l0.1-0.1l0.9-0.8l0.2-0.3l0.3-1.3l0-0.5l0.8-0.8l0.2-0.1l0.1-0.1l1.7-0.3l1.2-0.2l1.1,0.4l3.3-0.8l1.2-1.1l0.4-0.5
	l1.2-1.8l0.7-0.6l2-0.7l0.3,0.1l1.1-0.3l0.5-0.2l0.8-0.9l0.2-0.5l0.8-0.5l0.8-0.4l2.3-0.6l1.5-0.1l0.2-0.1l1,0.2l2.9,0.5l3.4,1.8
	l2.1,1.5v0.2l2.2,0.6l0.3-0.1l1.3-0.7l0.6-0.6l1.4-0.9l0.4-0.1l0.7-1.3l0.7-0.5l0.7-1.8l0.4-0.5l0.5-0.8l0.2-0.6l3.4-3.5l0-0.2
	l0.4-0.2l0.5-0.6l0.2-0.1l1.7-0.8l5.6-1.9l1.5-0.9l1.8-1.1l0.9-1.4l1.4-3.9l0.8-1.6l1.9-2.4l1.2-1l0.4-0.2l2-1l3.5-0.3l0.2,0.1v0.2
	l0,0.2l0.4,0.3l1.2,0.3l3,1L416,90l0.1,0.4l0,0.2l0.4,0.3V91l1.7,0.7l1.2,0.2l0.5-0.1l1.4-0.8l0.1,0l0.2-0.1l0.6-0.7l0.5-1.5l0-2.3
	l0-0.3l0.2-0.8l0.4-0.5l1.1-2.1l0.5-0.9l0.4-1.1l0.1-0.7l0.1-5l0.6-2.9l1.2-1.1l2.6-0.6l0.3,0.2l0.9,0.8l1.2,0.4l0.5-0.3l2.7-1.6
	l0.6-0.5l0.5-0.1l0.4,0.1l1.5-1.8l0.3-0.5l2.1-0.6l0.8-0.5l2.4-1.2l0.9-0.4l-0.9-2l-0.4-0.5l-0.2-2.4l-0.2-1.2l-0.1-0.4l-1.1-1.3
	l0-1.4l0.2-0.6l1.3-0.8l2.9-0.5l1.2,1.1l0.5,0.5v0.2l0,0.2L449,56l0.2,0.1l0,0.2l0.2,0.1l0.4,1.1l0.2,0.1l0.2,0.1l0.7,3.1l0.4,1.8
	l0.4,1.8l0.5,0.5l0.6,0.6l1.2,1.1l2.7,3.8l2.1,4.2l1.7,2.3l1.9,0.5l0.1-0.1l0.1-0.1l0.5-0.4l0.6-1.3l2.7-0.7l2.9,0.8l0.8-0.2
	l1.9-0.3l3.2,1l1.6-0.3l3,0.4l3.4-0.3l2.4,0.8l0.9,0.3l0.8,0.6l0,0.2l0.8,0.7l3.6,3.5l0.1,0.2h0.2l0.1,0.1l0.5,0.5v0.1v0.1l0,0.2
	l0.8,0.6l2.7,2.5l0.1,0.5L496,87l0.2,0.2l0.2,0.2l0.4,1.4l0.3,0.3v0.2l2.5,2.5v0.2l0.1,0.1l0.3,0.2l0.4,1.3l0,0.1l0.5,0.6v0.2
	L502,95l0.9,0.8V96l0.1,0.1l0.7,0.3l2.7,1.8l0.8,0.5l0.4,0.3l1.4,0.8l1.1,0.8l1.2,1.5l0.5,4.5l0.3,0.4l0,0.2l0.2,0.1v0.3l0.2,0.6
	l0.7,0.7l0.5,1.6l-0.2,5.8l-0.1,4.7l0,0.5l0.9,1l0.3,2.1l-1.3,1.5l-1,2.2l0,1l0,5.3l1,0.6l0.7,0.2l3.6,1.3l0.3,0.1l1.4,0.5l0.7,0.7
	l1.1,4.2l0.6,1.6l1,2.7h0.1l0,0.2l0.2,0.1l1.8,1.8l0.7,0.7l0,0.2l0.2,0l0.1,0.6l0,0.2h0.2l0.1,0.3l0,1.4L526,153l-0.3,2.5l0.2,4.1
	l0,0.1l0.3,0.8l0.9,1l0.4,1.6l0,0.9l-0.1,0l-0.7,0.6l0,0.2l-0.2,0.7v0l-0.3,6.7l-0.2,0.6l-0.4,0.2l-0.3,0.4l-0.2,0.9l-0.1,0.2
	l-0.1,0.3l-0.3,0.6l-0.7,1.5l-1.4,1.2l-0.2,0l-0.6,0.4l-1,0.8l-2,1.5l-0.1,0.1l-0.3,0.6l0,0.6l0.2,0.1l0,0.5l0.2,0.5l0.6,0.4l0,1.3
	l-0.2,3.8l-1.4,8.4l0.1,4.1l0.5,3.2l0.1,0.4l0.4,1l0.3,0.4l0.2,0.6l0.3,0.4l0.3,0.3l0.6,1.7l0.3,4l-0.4,1.3l-2.1,2.3l-0.2,0.4
	l-0.7,2.1l-0.3,2.4l-0.2,0.3l-2.7,2.2l-0.7,0.4l-0.1,0.3l0,0.9l0.2,1l0.2,0.1l0.2,0.1l0.2,1l1.3,1v2.4l-0.4,2.2l0.1,1.2l0.2,1.8
	l0.1,0.4l0.1,0.2l0.4,1.8l0,2.7v0.1l-0.3,0.7l-0.8,1.7l-1.4,1.8l-0.5,0.5l-0.8,1.7l-0.6,1.2l-1.9,2l-1.1,1.1l-0.5,0.2l-0.3,0.2
	l-1.3-0.3l-0.5-0.3l-0.2-0.1l-0.8,0.3l-0.2,0.4l-0.9,2.3l-0.2,1.7l0.6,5.3l0.1,2l-0.2,0.3l-0.8,4.2l-1.1,1.4l-0.3,0.1l0,0.2l-0.2,0
	v0.2l-0.8,0.9h-0.1v0.2l-0.9,0.8h-0.1l-0.4,0.8l-0.3,0.6l-1,1l-0.4,1l-0.5,3.8l-0.2,0.4l-0.3,0.4l-0.4,0.5l-4.2,2.2l-0.1,0v0.2
	l-0.3,0.3l-0.1,0.7l0.2,2l0.2,0.1l0.2,0.1l1.3,6.1l0.6,2.8l0.1,0.1l0.2,0.2l0.9,1.1l0.2,0.6l0,0.2l1.3,1.1l0.5,0.2l0.3-0.1l0.3,0.1
	l0.1,0.2l0.1,1l0,0.5l-0.4,0.2l-0.2,1.5l-0.1,0.7l-0.1,1.6l0,0.6l0,0.9l-0.3,2.1l-0.6,4.1l0,0.8l0.3,0.3l0.2,0.3l0.2,0.2l0,1.9
	l0,0.2l-0.2,0.4l-0.2,0.8l-0.2,0.7l-0.2,1.3l-0.1,0.6l-0.3,2v0.3v1.9l0.2,1.8l0.4,3.1l0.3,0.6l0.9,0.6l0,0.5l0.1,0.5l1.5,0.9
	l0.7,0.4l0,0.8l-0.2,3.4l0.3,1.6l0,0l0.5,0.8l1.2,0.8l0.9,0.6l0.3,0.7l0,0.1L503.1,345.2z"/>
<path id="South_Sikkim" class="st0" d="M416,441.3l-0.1,1.3l2.8,3.8l-0.9,2.2l1.6,2.4l-0.6,1.7l-1,0.1l-1.5-0.2l-0.9,1l-0.8,1.7
	l-1.1,1.1l-1.4,2l-1.4,0.8l-1.2,1.1l-0.8,1.2l-0.2,1.1l-1.1,0.2l-1.6-0.8l-1.6,1.6l-2.3,0.9l-1.4,1.4l-0.7,1.4l-0.6,3.7l-1.4,3.6
	l-1.7,2.5l-2.5,1.7l-2,0.5l-2.4,1l-0.9-0.8l-5.5-2.9l-4.1-1.5l-3.1-1.6l-5.1-0.4l-2.1,0.4l-3.5-1.1l-1.3-0.9l-0.8-1.5l-1.3-1.5
	l-2.8,1l-2.4,1.3l-1.1-1l0.1-3.8l-0.5-1.1l-2.3-2.4l-2.1-1.3l-1.4,0.2L347,463l-5.1-2.5l-0.9-4.8l0.4-0.8l0.2-1.8l0.7-0.8l0.7-0.1
	l1-1.3l1.1-3.7l0.7-0.4l1.1-1.9l0.2-1.9l1.1-1.1l1.6-0.7l0.8-1.5l2.3-1.6l2.7-0.8l0.6-0.5l-0.5-1.2l1.7-1.1l-0.8-1.7l0-1l-0.8-1.3
	l-1.9-6.5l-1-1.1l-2.9-0.6l-0.8-0.5l-1.4-4.4l0.7-3.7l0-4.2l-0.5-1.8l-2.3-2.2l-2.2-2.8l-1.7-1l-0.9-1.1l-0.8-1.4l0.2-1.9l0.4-0.8
	l3.2-2.7l1.6-0.9l3.2-1l0.9-1.3l0.5-1.2l-0.1-4.1l-0.6-1.2l-1.1-1.1l-1.5-0.8l-1-1.4l0.4-1.7l0.7-1.3l1.4-1.4l4.5-3.4l0.9-1.4
	l1.6-6.3l0.8-1.6l2.6-1.4l3.1-0.8l2.7-1.7l-0.3-2.5l0.3-2.3l-0.2-3.8l-0.8-1.5l-1.3-3.7l-0.8-0.9l-1.5,1.2l-1.2,2l-1.6-1.7l-0.7-2.7
	l-1.8-0.2l-2.8,0.9l-3.3-0.6l-1.6,0.9l-1.5,1.7l-3.5,2.1l-1.5-0.3l-1.3-2.5l-0.1-3.1l-2.5-17.2l-0.1-11.4l0.7-3.4l1-2.2l1.5-2.3
	l1.6-1.5l2.9-2.4l8.6-3.4l2.9-0.4l1.9,0.2l2.3,0.5l4,2l1.7,1.7l1.1,2.8l3.3,5.2l7.1,7.6l2.1,1.4l0.5,2.2l-0.1,2.8l0.5,2l2.2,4.8
	l-0.6,3l0.1,3.9l0.7,2.6l0.9,2l2.2,2.2l1.8,3.6l1.2,1.9l2.1,2.6l3.1,2l3.1,0.4l2,0.8l2.5,1.8l2.3,1.1l-1.5,4.9l-0.2,2.4l0.5,3.2
	l2,4.1L404,378l-1.1,2l-2.7,2l-2.1,0.8l-1.6,1.7l-2.2,0.9l-0.8,3.8l-1.5,2.1l0.4,2l-1.7,6l-0.3,3l0.6,3l1.1,2.1l3.6,2.2l1.8,2.2
	l3.2,1.3l1.7,0.3l3,2.9l1.2,3.7l-0.7,4.9l-0.4,6.6l1.8,3.7l2.1,3.3L416,441.3z"/>
<path id="West_Sikkim" class="st0" d="M262.2,424.7l1.4-2.4l0-1.7l0.1-2.7l0.8-0.8l1,0.2l-0.2-2l1.1-3l0.9-0.2l0-0.8l0-4.6l0.4-1.1
	l-0.5-2.5l0.8-3.9l-0.4-1.9l2-2.2l1.8-0.4l-0.9-3.5l0.1-1.2l1.1-2.4l1-1l0.3-2.5l1-2.4l2.3-1.6l1-2.4l0.9-0.6l-0.1-0.4l-0.5-1.8
	l-0.5-0.7l-0.4-0.5l-0.6-2.2l-0.7-2.5l-2.3-1.2l-2.6-5.1l1-3.7l-0.3-1.9l0.2-2.2l0.3-2.4l0.8-2.1l-0.5-1.9l0.8-0.7l0.3-2.3l1.9-2.2
	l0.4-0.1l2.6-2.6l0.2-0.2l3.9-0.6l0.1-1.3l-0.2-0.4l0,0l0,0l-0.2-0.4l-1.8-0.8l0-0.1l-1.3-1.8l-0.1-0.2l1.1-2.2l0.3-0.6l-1.6-1.7
	l-0.3-1.1l-0.3-0.2l0.5-2l-2-1.3l-0.1-0.2l-1.1-2.4l-0.2-0.2l-1.5-1.6l-0.4-0.1l-1.8-2.6l0.4-1.2l-0.4-1.4l0.2-3.2l-0.3-1.3l0.9-2.2
	l1.3-1.2l1.2-0.1l0.8-2l1.2-1.1l-1.3-2l1.2-3.4l1.8-0.4l-0.6-1.3l-0.5-0.2l-1.1-0.5L276,297l-0.1-0.8l0-0.1l0.6-2l1.3-1.9l1.1-0.6
	l0.2-3.8l2.1-1.2l1.5-2.5l-0.5-1.4l-1.3-1.5l2.8-7l2.5-3.4l3.9-2l2.5-3.3l0.2-1.5l1.4,1l11.2,4.6l14.1,7.6l2.5,3.1l4.3,6.7l1.7,6.8
	l1.2,2.3l2,1.4l4.7,2.3l5.6,5.2l-1.6,1.5l-1.5,2.3l-1,2.2l-0.7,3.4l0.1,11.4l2.5,17.2l0.1,3.1l1.3,2.5l1.5,0.3l3.5-2.1l1.5-1.7
	l1.6-0.9l3.3,0.6l2.8-0.9l1.8,0.2l0.7,2.7l1.6,1.7l1.2-2l1.5-1.2l0.8,0.9l1.3,3.7l0.8,1.5l0.2,3.8l-0.3,2.3l0.3,2.5l-2.7,1.7
	l-3.1,0.8l-2.6,1.4l-0.8,1.6l-1.6,6.3l-0.9,1.4l-4.5,3.4l-1.4,1.4l-0.7,1.3l-0.4,1.7l1,1.4l1.5,0.8l1.1,1.1l0.6,1.2l0.1,4.1
	l-0.5,1.2l-0.9,1.3l-3.2,1l-1.6,0.9l-3.2,2.7l-0.4,0.8l-0.2,1.9l0.8,1.4l0.9,1.1l1.7,1l2.2,2.8l2.3,2.2l0.5,1.8l0,4.2l-0.7,3.7
	l1.4,4.4l0.8,0.5l2.9,0.6l1,1.1l1.9,6.5l0.8,1.3l0,1l0.8,1.7l-1.7,1.1l0.5,1.2l-0.6,0.5l-2.7,0.8l-2.3,1.6l-0.8,1.5l-1.6,0.7
	l-1.1,1.1l-0.2,1.9l-1.1,1.9l-0.7,0.4l-1.1,3.7l-1,1.3l-0.7,0.1l-0.7,0.8l-0.2,1.8l-0.4,0.8l0.9,4.8l-0.2-0.1l-2,0.4l-2.3,1.1
	l-3.6,0.8l-3.5,2l-2.3,0.2l-1.7-0.7l-1.6-1.6l-2.3-4l-1.2,0.7l-4.3-1.2l-2.2,0.7l-1.5-0.3l-1.4,0.2l-1.9,1.8l-4.3,6.5l-0.9,0.9
	l-1,0.2l-2.6-2.2l-2.2,0.1l-3-2.5l-1.1-0.3l-8.4-4.8l-1-0.3l-1.2-1l-0.9-1.1l-0.6-1.4l-0.2-1.6l0.3-4.9l-0.2-1.6l-1.4-1.2l-1.7-2.6
	l-0.2-2l-0.9-2.3l-0.6-2.2l0.4-1.7l2-1.8l-0.1-0.8l-2.1-1.6l-1.2-1.3l-0.8-1.4l-1.1-1l-3.5-0.9l-4.2-2l-2.7,0.1L262.2,424.7z"/>
<path id="Layer" d="M790,262h10v10h-10V262z"/>
<path id="Layer_1_" class="st1" d="M0,0"/>
<path id="East_Sikkim_1_" d="M427.5,395v-9.5h6v1.1h-4.7v2.8h4.5v1.1h-4.5v3.4h4.8v1.1H427.5z M440.1,391.4h-1.2
	c-0.9,0-1.6,0.1-2,0.3c-0.4,0.2-0.5,0.6-0.5,1.1c0,0.4,0.1,0.8,0.4,1c0.3,0.2,0.6,0.4,1.1,0.4c0.6,0,1.2-0.2,1.5-0.7
	c0.4-0.5,0.6-1.1,0.6-1.8V391.4z M441.3,390.9v4.1h-1.2v-1.1c-0.3,0.4-0.6,0.8-1,1c-0.4,0.2-0.9,0.3-1.5,0.3c-0.7,0-1.3-0.2-1.7-0.6
	c-0.4-0.4-0.6-1-0.6-1.6c0-0.8,0.3-1.4,0.8-1.8c0.5-0.4,1.3-0.6,2.4-0.6h1.6v-0.1c0-0.5-0.2-1-0.5-1.2s-0.9-0.4-1.5-0.4
	c-0.4,0-0.8,0.1-1.2,0.1c-0.4,0.1-0.8,0.2-1.1,0.4v-1.1c0.4-0.2,0.8-0.3,1.2-0.4c0.4-0.1,0.8-0.1,1.2-0.1c1,0,1.8,0.3,2.3,0.8
	C441,389.1,441.3,389.9,441.3,390.9z M448.2,388.1v1.1c-0.3-0.2-0.7-0.3-1-0.4c-0.4-0.1-0.7-0.1-1.1-0.1c-0.6,0-1,0.1-1.3,0.3
	c-0.3,0.2-0.4,0.4-0.4,0.8c0,0.3,0.1,0.5,0.3,0.6c0.2,0.2,0.6,0.3,1.2,0.4l0.4,0.1c0.8,0.2,1.4,0.4,1.8,0.8c0.4,0.3,0.5,0.8,0.5,1.4
	c0,0.7-0.3,1.2-0.8,1.6c-0.5,0.4-1.2,0.6-2.1,0.6c-0.4,0-0.8,0-1.2-0.1c-0.4-0.1-0.8-0.2-1.3-0.3v-1.2c0.4,0.2,0.9,0.4,1.3,0.5
	c0.4,0.1,0.8,0.2,1.2,0.2c0.5,0,1-0.1,1.3-0.3c0.3-0.2,0.4-0.5,0.4-0.8c0-0.3-0.1-0.6-0.3-0.7c-0.2-0.2-0.7-0.3-1.4-0.5l-0.4-0.1
	c-0.7-0.2-1.2-0.4-1.6-0.7c-0.3-0.3-0.5-0.8-0.5-1.3c0-0.7,0.2-1.2,0.7-1.5c0.5-0.4,1.1-0.5,2-0.5c0.4,0,0.8,0,1.2,0.1
	C447.5,387.9,447.9,388,448.2,388.1z M450.4,385.9h1.2v2h2.4v0.9h-2.4v3.9c0,0.6,0.1,0.9,0.2,1.1c0.2,0.2,0.5,0.2,1,0.2h1.2v1h-1.2
	c-0.9,0-1.5-0.2-1.9-0.5c-0.3-0.3-0.5-1-0.5-1.8v-3.9h-0.9v-0.9h0.9V385.9z M465.4,385.8v1.2c-0.5-0.2-0.9-0.4-1.4-0.5
	c-0.4-0.1-0.8-0.2-1.2-0.2c-0.7,0-1.2,0.1-1.6,0.4c-0.4,0.3-0.6,0.7-0.6,1.2c0,0.4,0.1,0.7,0.4,1c0.3,0.2,0.7,0.4,1.4,0.5l0.8,0.2
	c1,0.2,1.7,0.5,2.1,1c0.5,0.5,0.7,1.1,0.7,1.8c0,0.9-0.3,1.6-0.9,2.1c-0.6,0.5-1.5,0.7-2.7,0.7c-0.4,0-0.9,0-1.4-0.1
	c-0.5-0.1-1-0.2-1.6-0.5v-1.3c0.5,0.3,1,0.5,1.5,0.7s1,0.2,1.5,0.2c0.7,0,1.3-0.1,1.7-0.4c0.4-0.3,0.6-0.7,0.6-1.2
	c0-0.5-0.1-0.8-0.4-1.1c-0.3-0.3-0.7-0.5-1.4-0.6l-0.8-0.1c-1-0.2-1.7-0.5-2.1-0.9s-0.6-1-0.6-1.7c0-0.8,0.3-1.5,0.9-2
	c0.6-0.5,1.4-0.7,2.5-0.7c0.4,0,0.9,0,1.4,0.1C464.4,385.6,464.9,385.7,465.4,385.8z M467.9,395v-7.1h1.2v7.1H467.9z M467.9,386.6
	v-1.5h1.2v1.5H467.9z M471.5,395v-9.9h1.2v5.8l3.5-3.1h1.5l-3.8,3.3l3.9,3.8h-1.5l-3.6-3.5v3.5H471.5z M479,395v-9.9h1.2v5.8
	l3.5-3.1h1.5l-3.8,3.3l3.9,3.8h-1.5l-3.6-3.5v3.5H479z M486.6,395v-7.1h1.2v7.1H486.6z M486.6,386.6v-1.5h1.2v1.5H486.6z
	 M495.7,389.3c0.3-0.5,0.6-0.9,1-1.2c0.4-0.2,0.9-0.4,1.4-0.4c0.7,0,1.3,0.3,1.7,0.8c0.4,0.5,0.6,1.2,0.6,2.2v4.3h-1.2v-4.2
	c0-0.7-0.1-1.2-0.4-1.5c-0.2-0.3-0.6-0.5-1.1-0.5c-0.6,0-1.1,0.2-1.4,0.6c-0.4,0.4-0.5,0.9-0.5,1.6v4h-1.2v-4.2
	c0-0.7-0.1-1.2-0.4-1.5c-0.2-0.3-0.6-0.5-1.1-0.5c-0.6,0-1.1,0.2-1.4,0.6c-0.4,0.4-0.5,1-0.5,1.6v4h-1.2v-7.1h1.2v1.1
	c0.3-0.4,0.6-0.8,1-1c0.4-0.2,0.8-0.3,1.3-0.3c0.5,0,0.9,0.1,1.3,0.4C495.3,388.4,495.6,388.8,495.7,389.3z"/>
<path id="North_Sikkim_1_" d="M366.2,234v-9.5h1.7l4.2,7.9v-7.9h1.2v9.5h-1.7l-4.2-7.9v7.9H366.2z M378.6,227.7
	c-0.6,0-1.1,0.2-1.5,0.7c-0.4,0.5-0.6,1.2-0.6,2c0,0.9,0.2,1.5,0.5,2c0.4,0.5,0.9,0.7,1.5,0.7c0.6,0,1.1-0.2,1.5-0.7
	c0.4-0.5,0.5-1.2,0.5-2c0-0.8-0.2-1.5-0.5-2C379.7,228,379.2,227.7,378.6,227.7z M378.6,226.7c1,0,1.8,0.3,2.4,1
	c0.6,0.7,0.9,1.6,0.9,2.7c0,1.2-0.3,2.1-0.9,2.7c-0.6,0.7-1.4,1-2.4,1c-1,0-1.8-0.3-2.4-1c-0.6-0.7-0.9-1.6-0.9-2.7
	c0-1.2,0.3-2.1,0.9-2.7C376.8,227.1,377.6,226.7,378.6,226.7z M387.9,226.8l0,1.2c-0.1-0.1-0.3-0.1-0.4-0.2c-0.2,0-0.3-0.1-0.5-0.1
	c-0.7,0-1.2,0.2-1.5,0.7c-0.4,0.4-0.5,1-0.5,1.8v3.8h-1.2v-7.1h1.2v1.1c0.2-0.4,0.6-0.8,1-1c0.4-0.2,0.9-0.3,1.4-0.3
	c0.1,0,0.2,0,0.3,0C387.7,226.7,387.8,226.8,387.9,226.8z M389.1,224.9h1.2v2h2.4v0.9h-2.4v3.9c0,0.6,0.1,0.9,0.2,1.1
	c0.2,0.2,0.5,0.2,1,0.2h1.2v1h-1.2c-0.9,0-1.5-0.2-1.9-0.5c-0.3-0.3-0.5-1-0.5-1.8v-3.9h-0.9v-0.9h0.9V224.9z M400.2,229.7v4.3H399
	v-4.2c0-0.7-0.1-1.2-0.4-1.5c-0.3-0.3-0.7-0.5-1.2-0.5c-0.6,0-1.1,0.2-1.5,0.6c-0.4,0.4-0.5,0.9-0.5,1.6v4h-1.2v-9.9h1.2v3.9
	c0.3-0.4,0.6-0.8,1-1c0.4-0.2,0.8-0.3,1.3-0.3c0.8,0,1.4,0.3,1.9,0.8C400,228,400.2,228.7,400.2,229.7z M412.4,224.8v1.2
	c-0.5-0.2-0.9-0.4-1.4-0.5c-0.4-0.1-0.9-0.2-1.2-0.2c-0.7,0-1.2,0.1-1.6,0.4c-0.4,0.3-0.6,0.7-0.6,1.1c0,0.4,0.1,0.7,0.4,1
	c0.3,0.2,0.7,0.4,1.4,0.5l0.8,0.2c1,0.2,1.7,0.5,2.1,1c0.5,0.5,0.7,1.1,0.7,1.8c0,0.9-0.3,1.6-0.9,2.1c-0.6,0.5-1.5,0.7-2.7,0.7
	c-0.5,0-0.9,0-1.4-0.1c-0.5-0.1-1-0.2-1.6-0.4v-1.3c0.5,0.3,1,0.5,1.5,0.7s1,0.2,1.5,0.2c0.7,0,1.3-0.1,1.7-0.4
	c0.4-0.3,0.6-0.7,0.6-1.2c0-0.5-0.1-0.8-0.4-1.1c-0.3-0.3-0.8-0.5-1.4-0.6l-0.8-0.2c-1-0.2-1.6-0.5-2.1-0.9c-0.4-0.4-0.6-1-0.6-1.7
	c0-0.8,0.3-1.5,0.9-2c0.6-0.5,1.4-0.7,2.4-0.7c0.4,0,0.9,0,1.4,0.1C411.4,224.6,411.9,224.7,412.4,224.8z M414.9,234v-7.1h1.2v7.1
	H414.9z M414.9,225.6v-1.5h1.2v1.5H414.9z M418.5,234v-9.9h1.2v5.8l3.5-3.1h1.5l-3.8,3.3l3.9,3.8h-1.5l-3.6-3.5v3.5H418.5z M426,234
	v-9.9h1.2v5.8l3.5-3.1h1.5l-3.8,3.3l3.9,3.8h-1.5l-3.6-3.5v3.5H426z M433.5,234v-7.1h1.2v7.1H433.5z M433.5,225.6v-1.5h1.2v1.5
	H433.5z M442.7,228.3c0.3-0.5,0.6-0.9,1-1.2c0.4-0.2,0.9-0.4,1.4-0.4c0.7,0,1.3,0.3,1.7,0.8c0.4,0.5,0.6,1.2,0.6,2.2v4.3h-1.2v-4.2
	c0-0.7-0.1-1.2-0.4-1.5c-0.2-0.3-0.6-0.5-1.1-0.5c-0.6,0-1.1,0.2-1.4,0.6c-0.3,0.4-0.5,0.9-0.5,1.6v4h-1.2v-4.2
	c0-0.7-0.1-1.2-0.4-1.5c-0.2-0.3-0.6-0.5-1.1-0.5c-0.6,0-1.1,0.2-1.4,0.6c-0.3,0.4-0.5,1-0.5,1.6v4h-1.2v-7.1h1.2v1.1
	c0.3-0.4,0.6-0.8,1-1c0.4-0.2,0.8-0.3,1.3-0.3c0.5,0,1,0.1,1.3,0.4C442.3,227.4,442.5,227.8,442.7,228.3z"/>
<path id="South_Sikkim_1_" d="M364.5,449.2l1.2,0.1c-0.3,0.5-0.5,0.9-0.6,1.3c-0.2,0.4-0.3,0.8-0.3,1.2c-0.1,0.7,0,1.2,0.2,1.6
	c0.2,0.4,0.6,0.6,1.1,0.7c0.4,0,0.8-0.1,1-0.3c0.2-0.2,0.5-0.7,0.6-1.4l0.2-0.8c0.3-0.9,0.7-1.6,1.2-2c0.5-0.4,1.1-0.6,1.9-0.5
	c0.9,0.1,1.6,0.5,2,1.1c0.4,0.7,0.6,1.6,0.4,2.8c0,0.4-0.1,0.9-0.3,1.4c-0.2,0.5-0.4,1-0.6,1.5l-1.3-0.1c0.3-0.5,0.6-1,0.8-1.5
	c0.2-0.5,0.3-1,0.4-1.4c0.1-0.7,0-1.3-0.3-1.7c-0.2-0.4-0.6-0.7-1.2-0.7c-0.5,0-0.8,0.1-1.1,0.3c-0.3,0.3-0.5,0.7-0.7,1.3l-0.2,0.8
	c-0.3,0.9-0.6,1.6-1.1,2c-0.4,0.4-1,0.5-1.8,0.5c-0.8-0.1-1.5-0.4-1.9-1.1c-0.4-0.6-0.6-1.5-0.5-2.5c0-0.4,0.1-0.9,0.3-1.3
	C364.2,450.2,364.3,449.7,364.5,449.2z M367.9,444.3c-0.1,0.6,0.1,1.1,0.6,1.5c0.4,0.4,1.1,0.7,1.9,0.7c0.8,0.1,1.5,0,2.1-0.3
	c0.5-0.3,0.8-0.8,0.9-1.4c0.1-0.6-0.1-1.1-0.6-1.5c-0.5-0.4-1.1-0.7-1.9-0.7c-0.8-0.1-1.5,0-2,0.3
	C368.3,443.2,368,443.6,367.9,444.3z M366.9,444.2c0.1-1,0.5-1.8,1.2-2.3c0.7-0.5,1.7-0.7,2.8-0.6c1.2,0.1,2,0.5,2.6,1.1
	c0.6,0.6,0.9,1.5,0.8,2.5c-0.1,1-0.5,1.8-1.2,2.3c-0.7,0.5-1.7,0.7-2.8,0.6c-1.2-0.1-2-0.5-2.6-1.1
	C367.1,446,366.8,445.2,366.9,444.2z M371.9,439.5l-4.3-0.4l0.1-1.2l4.2,0.4c0.7,0.1,1.2,0,1.5-0.2c0.4-0.2,0.6-0.6,0.6-1.1
	c0.1-0.6-0.1-1.1-0.4-1.5c-0.4-0.4-0.9-0.6-1.6-0.7l-4-0.4l0.1-1.2l7.1,0.7l-0.1,1.2L374,435c0.4,0.3,0.7,0.7,0.9,1.1
	c0.2,0.4,0.2,0.8,0.2,1.3c-0.1,0.8-0.4,1.4-0.9,1.8C373.6,439.5,372.9,439.6,371.9,439.5z M367.7,436.2L367.7,436.2z M366.4,430.6
	l0.1-1.2l2,0.2l0.2-2.4l0.9,0.1l-0.2,2.4l3.8,0.4c0.6,0.1,1,0,1.1-0.1s0.3-0.5,0.3-0.9l0.1-1.2l1,0.1l-0.1,1.2
	c-0.1,0.9-0.3,1.5-0.7,1.8c-0.4,0.3-1,0.4-1.9,0.3l-3.8-0.4l-0.1,0.8l-0.9-0.1l0.1-0.9L366.4,430.6z M372.3,420.1l4.3,0.4l-0.1,1.2
	l-4.2-0.4c-0.7-0.1-1.2,0-1.5,0.2c-0.4,0.2-0.6,0.6-0.6,1.1c-0.1,0.6,0.1,1.1,0.5,1.5c0.4,0.4,0.9,0.6,1.6,0.7l4,0.4l-0.1,1.2
	l-9.8-1l0.1-1.2l3.9,0.4c-0.4-0.3-0.7-0.7-0.9-1.1c-0.2-0.4-0.2-0.8-0.2-1.3c0.1-0.8,0.4-1.4,0.9-1.8
	C370.6,420.2,371.3,420,372.3,420.1z M368.6,407.5l1.2,0.1c-0.3,0.5-0.5,0.9-0.6,1.3c-0.2,0.4-0.3,0.8-0.3,1.2
	c-0.1,0.7,0,1.2,0.2,1.6c0.2,0.4,0.6,0.6,1.1,0.7c0.4,0,0.7,0,1-0.3c0.2-0.2,0.5-0.7,0.6-1.4l0.2-0.8c0.3-0.9,0.7-1.6,1.2-2
	c0.5-0.4,1.1-0.6,1.9-0.5c0.9,0.1,1.6,0.5,2,1.1c0.4,0.7,0.6,1.6,0.4,2.8c0,0.4-0.1,0.9-0.3,1.4c-0.1,0.5-0.3,1-0.6,1.5l-1.3-0.1
	c0.3-0.5,0.6-1,0.8-1.5c0.2-0.5,0.3-1,0.4-1.4c0.1-0.7,0-1.3-0.3-1.7c-0.3-0.4-0.6-0.7-1.2-0.7c-0.5,0-0.8,0.1-1.1,0.3
	c-0.3,0.3-0.5,0.7-0.7,1.3l-0.2,0.8c-0.3,0.9-0.7,1.6-1.1,2c-0.4,0.4-1,0.5-1.8,0.5c-0.8-0.1-1.5-0.4-1.9-1.1
	c-0.4-0.6-0.6-1.5-0.5-2.5c0-0.4,0.1-0.9,0.2-1.3S368.4,408,368.6,407.5z M378,405.9l-7.1-0.7l0.1-1.2l7.1,0.7L378,405.9z
	 M369.6,405.1l-1.5-0.1l0.1-1.2l1.5,0.1L369.6,405.1z M378.4,402.4l-9.8-1l0.1-1.2l5.8,0.6l-2.7-3.8l0.1-1.5l2.9,4.1l4.2-3.5
	l-0.2,1.5l-3.8,3.3l3.5,0.3L378.4,402.4z M379.1,394.9l-9.8-1l0.1-1.2l5.8,0.6l-2.7-3.8l0.1-1.5l2.9,4.1l4.1-3.5l-0.1,1.5l-3.8,3.3
	l3.5,0.3L379.1,394.9z M379.8,387.3l-7.1-0.7l0.1-1.2l7.1,0.7L379.8,387.3z M371.5,386.5l-1.5-0.2l0.1-1.2l1.5,0.1L371.5,386.5z
	 M375,377.7c-0.5-0.3-0.8-0.7-1.1-1.1c-0.2-0.4-0.3-0.9-0.2-1.5c0.1-0.7,0.4-1.3,0.9-1.6c0.6-0.3,1.3-0.5,2.3-0.4l4.3,0.4l-0.1,1.2
	l-4.2-0.4c-0.7-0.1-1.2,0-1.5,0.2c-0.4,0.2-0.6,0.6-0.6,1c-0.1,0.6,0.1,1.1,0.5,1.5c0.4,0.4,0.9,0.6,1.6,0.7l4,0.4l-0.1,1.2
	l-4.2-0.4c-0.7-0.1-1.2,0-1.5,0.2c-0.4,0.2-0.6,0.6-0.6,1.1c-0.1,0.6,0.1,1.1,0.5,1.5c0.4,0.4,0.9,0.6,1.6,0.7l4,0.4l-0.1,1.2
	l-7.1-0.7l0.1-1.2l1.1,0.1c-0.4-0.3-0.7-0.7-0.9-1c-0.2-0.4-0.2-0.8-0.2-1.4c0-0.5,0.2-0.9,0.5-1.3C374.1,378,374.5,377.8,375,377.7
	z"/>
<path id="West_Sikkim_1_" d="M281.6,365l-2.4-9.5h1.3l2,8l2-8h1.4l2,8l2-8h1.3l-2.4,9.5h-1.6l-2-8.2l-2,8.2H281.6z M298.2,361.1v0.6
	h-5.4c0.1,0.8,0.3,1.4,0.7,1.9c0.4,0.4,1,0.6,1.8,0.6c0.4,0,0.9-0.1,1.3-0.2c0.4-0.1,0.8-0.3,1.3-0.5v1.1c-0.4,0.2-0.9,0.3-1.3,0.4
	c-0.4,0.1-0.9,0.1-1.3,0.1c-1.1,0-2-0.3-2.7-1c-0.7-0.7-1-1.5-1-2.7c0-1.2,0.3-2.1,0.9-2.8c0.6-0.7,1.5-1,2.5-1c1,0,1.7,0.3,2.3,0.9
	C297.9,359.3,298.2,360.1,298.2,361.1z M292.8,360.8l4.2,0c0-0.6-0.2-1.1-0.5-1.5c-0.3-0.4-0.8-0.6-1.4-0.6c-0.7,0-1.2,0.2-1.6,0.6
	C293.1,359.6,292.9,360.1,292.8,360.8z M304.6,358.1v1.1c-0.3-0.2-0.7-0.3-1-0.4c-0.4-0.1-0.7-0.1-1.1-0.1c-0.6,0-1,0.1-1.3,0.3
	c-0.3,0.2-0.4,0.4-0.4,0.8c0,0.3,0.1,0.5,0.3,0.6c0.2,0.2,0.6,0.3,1.2,0.4l0.4,0.1c0.8,0.2,1.4,0.4,1.8,0.8c0.4,0.3,0.5,0.8,0.5,1.4
	c0,0.7-0.3,1.2-0.8,1.6c-0.5,0.4-1.2,0.6-2.2,0.6c-0.4,0-0.8,0-1.2-0.1c-0.4-0.1-0.8-0.2-1.3-0.3v-1.2c0.4,0.2,0.9,0.4,1.3,0.5
	c0.4,0.1,0.8,0.2,1.2,0.2c0.5,0,1-0.1,1.3-0.3c0.3-0.2,0.4-0.5,0.4-0.8c0-0.3-0.1-0.6-0.3-0.7c-0.2-0.2-0.7-0.3-1.4-0.5l-0.4-0.1
	c-0.7-0.2-1.2-0.4-1.6-0.7c-0.3-0.3-0.5-0.8-0.5-1.3c0-0.7,0.2-1.2,0.7-1.5c0.5-0.4,1.1-0.5,2-0.5c0.4,0,0.8,0,1.2,0.1
	C303.9,357.9,304.3,358,304.6,358.1z M306.8,355.9h1.2v2h2.4v0.9H308v3.9c0,0.6,0.1,0.9,0.2,1.1c0.2,0.2,0.5,0.2,1,0.2h1.2v1h-1.2
	c-0.9,0-1.5-0.2-1.9-0.5c-0.3-0.3-0.5-1-0.5-1.8v-3.9H306v-0.9h0.9V355.9z M321.8,355.8v1.2c-0.5-0.2-0.9-0.4-1.4-0.5
	c-0.4-0.1-0.8-0.2-1.2-0.2c-0.7,0-1.2,0.1-1.6,0.4c-0.4,0.3-0.6,0.7-0.6,1.2c0,0.4,0.1,0.7,0.4,1c0.3,0.2,0.7,0.4,1.4,0.5l0.8,0.2
	c1,0.2,1.7,0.5,2.1,1c0.5,0.5,0.7,1.1,0.7,1.8c0,0.9-0.3,1.6-0.9,2.1c-0.6,0.5-1.5,0.7-2.7,0.7c-0.4,0-0.9,0-1.4-0.1
	c-0.5-0.1-1-0.2-1.6-0.5v-1.3c0.5,0.3,1,0.5,1.5,0.7s1,0.2,1.5,0.2c0.7,0,1.3-0.1,1.7-0.4c0.4-0.3,0.6-0.7,0.6-1.2
	c0-0.5-0.1-0.8-0.4-1.1c-0.3-0.3-0.7-0.5-1.4-0.6l-0.8-0.1c-1-0.2-1.7-0.5-2.1-0.9c-0.4-0.4-0.6-1-0.6-1.7c0-0.8,0.3-1.5,0.9-2
	c0.6-0.5,1.4-0.7,2.5-0.7c0.4,0,0.9,0,1.4,0.1C320.9,355.6,321.3,355.7,321.8,355.8z M324.3,365v-7.1h1.2v7.1H324.3z M324.3,356.6
	v-1.5h1.2v1.5H324.3z M327.9,365v-9.9h1.2v5.8l3.5-3.1h1.5l-3.8,3.3l3.9,3.8h-1.5l-3.6-3.5v3.5H327.9z M335.4,365v-9.9h1.2v5.8
	l3.5-3.1h1.5l-3.8,3.3l3.9,3.8h-1.5l-3.6-3.5v3.5H335.4z M343,365v-7.1h1.2v7.1H343z M343,356.6v-1.5h1.2v1.5H343z M352.1,359.3
	c0.3-0.5,0.6-0.9,1-1.2c0.4-0.2,0.9-0.4,1.4-0.4c0.7,0,1.3,0.3,1.7,0.8c0.4,0.5,0.6,1.2,0.6,2.2v4.3h-1.2v-4.2
	c0-0.7-0.1-1.2-0.4-1.5c-0.2-0.3-0.6-0.5-1.1-0.5c-0.6,0-1.1,0.2-1.4,0.6c-0.4,0.4-0.5,0.9-0.5,1.6v4h-1.2v-4.2
	c0-0.7-0.1-1.2-0.4-1.5c-0.2-0.3-0.6-0.5-1.1-0.5c-0.6,0-1.1,0.2-1.4,0.6c-0.4,0.4-0.5,1-0.5,1.6v4h-1.2v-7.1h1.2v1.1
	c0.3-0.4,0.6-0.8,1-1c0.4-0.2,0.8-0.3,1.3-0.3c0.5,0,0.9,0.1,1.3,0.4C351.7,358.4,352,358.8,352.1,359.3z"/>
<path id="Created_with_paintmaps.com" d="M647.2,512.2c-0.8,0-1.5,0.3-2,0.8c-0.5,0.5-0.7,1.3-0.7,2.2c0,0.9,0.2,1.7,0.7,2.2
	c0.5,0.6,1.1,0.8,2,0.8c1.1,0,1.9-0.5,2.4-1.6l0.8,0.4c-0.3,0.7-0.7,1.2-1.3,1.5c-0.6,0.3-1.2,0.5-2,0.5c-0.8,0-1.4-0.2-2-0.5
	c-0.6-0.3-1-0.8-1.3-1.3c-0.3-0.6-0.4-1.3-0.4-2.1c0-1.2,0.3-2.2,1-2.8c0.6-0.7,1.5-1,2.7-1c0.8,0,1.5,0.2,2,0.5s0.9,0.8,1.2,1.4
	l-1,0.3c-0.2-0.4-0.5-0.8-0.8-1C648.2,512.3,647.8,512.2,647.2,512.2z M652.7,519h-1v-4.5c0-0.4,0-0.9,0-1.3h0.9c0,0.7,0,1.1,0,1.2
	h0c0.2-0.5,0.3-0.8,0.5-1c0.2-0.2,0.5-0.3,0.9-0.3c0.1,0,0.3,0,0.4,0v0.9c-0.1,0-0.3-0.1-0.5-0.1c-0.4,0-0.7,0.2-0.9,0.5
	c-0.2,0.3-0.3,0.8-0.3,1.5V519z M660.2,516.3h-4.1c0,0.7,0.1,1.2,0.4,1.5c0.3,0.4,0.7,0.5,1.2,0.5c0.4,0,0.8-0.1,1-0.2
	c0.3-0.2,0.4-0.4,0.5-0.6l0.9,0.2c-0.3,0.9-1.1,1.4-2.4,1.4c-0.9,0-1.5-0.3-2-0.8c-0.5-0.5-0.7-1.3-0.7-2.3c0-1,0.2-1.7,0.7-2.2
	c0.4-0.5,1.1-0.8,1.9-0.8c1.7,0,2.6,1,2.6,3.1V516.3z M656.1,515.6h3.1c-0.1-0.6-0.2-1.1-0.5-1.3c-0.3-0.3-0.6-0.4-1.1-0.4
	c-0.5,0-0.8,0.2-1.1,0.5C656.3,514.6,656.1,515,656.1,515.6z M663,519.1c-0.6,0-1-0.2-1.3-0.5c-0.3-0.3-0.4-0.7-0.4-1.3
	c0-0.6,0.2-1.1,0.6-1.4c0.4-0.3,1-0.5,1.9-0.5l1.3,0v-0.3c0-0.5-0.1-0.8-0.3-1c-0.2-0.2-0.5-0.3-0.9-0.3c-0.4,0-0.8,0.1-1,0.2
	c-0.2,0.1-0.3,0.4-0.3,0.7l-1-0.1c0.2-1,0.9-1.6,2.3-1.6c0.7,0,1.3,0.2,1.6,0.5c0.4,0.3,0.5,0.8,0.5,1.4v2.5c0,0.3,0,0.5,0.1,0.7
	c0.1,0.1,0.2,0.2,0.4,0.2c0.1,0,0.2,0,0.3,0v0.6c-0.2,0.1-0.5,0.1-0.7,0.1c-0.4,0-0.6-0.1-0.8-0.3c-0.2-0.2-0.2-0.5-0.3-0.9h0
	c-0.3,0.4-0.5,0.8-0.9,0.9C663.8,519,663.4,519.1,663,519.1z M663.2,518.4c0.4,0,0.7-0.1,0.9-0.2c0.3-0.2,0.5-0.4,0.7-0.7
	c0.2-0.3,0.2-0.6,0.2-0.9v-0.5l-1.1,0c-0.5,0-0.8,0.1-1,0.1c-0.2,0.1-0.4,0.2-0.5,0.4c-0.1,0.2-0.2,0.4-0.2,0.7
	c0,0.3,0.1,0.6,0.2,0.7C662.6,518.3,662.9,518.4,663.2,518.4z M669.8,518.2v0.7c-0.3,0.1-0.6,0.1-1,0.1c-0.8,0-1.2-0.4-1.2-1.3v-3.9
	H667v-0.7h0.7l0.3-1.3h0.7v1.3h1.1v0.7h-1.1v3.7c0,0.3,0,0.5,0.1,0.6c0.1,0.1,0.3,0.2,0.5,0.2C669.4,518.3,669.6,518.3,669.8,518.2z
	 M675.5,516.3h-4.2c0,0.7,0.1,1.2,0.4,1.5c0.3,0.4,0.7,0.5,1.2,0.5c0.4,0,0.8-0.1,1-0.2s0.4-0.4,0.5-0.6l0.8,0.2
	c-0.3,0.9-1.1,1.4-2.4,1.4c-0.9,0-1.5-0.3-2-0.8c-0.4-0.5-0.7-1.3-0.7-2.3c0-1,0.2-1.7,0.7-2.2c0.4-0.5,1.1-0.8,1.9-0.8
	c1.7,0,2.6,1,2.6,3.1V516.3z M671.4,515.6h3.1c-0.1-0.6-0.2-1.1-0.5-1.3c-0.3-0.3-0.6-0.4-1.1-0.4c-0.5,0-0.8,0.2-1.1,0.5
	C671.6,514.6,671.4,515,671.4,515.6z M680.5,518.1L680.5,518.1c-0.2,0.4-0.4,0.6-0.7,0.8c-0.3,0.2-0.7,0.2-1.1,0.2
	c-0.7,0-1.3-0.2-1.6-0.7c-0.3-0.5-0.5-1.2-0.5-2.2c0-2,0.7-3,2.1-3c0.4,0,0.8,0.1,1.1,0.2c0.3,0.2,0.5,0.4,0.7,0.8h0l0-0.7V511h1
	v6.8c0,0.6,0,1,0,1.2h-0.9c0-0.1,0-0.2,0-0.4C680.5,518.4,680.5,518.2,680.5,518.1z M677.5,516.1c0,0.8,0.1,1.4,0.3,1.7
	c0.2,0.4,0.6,0.5,1,0.5c0.5,0,0.9-0.2,1.2-0.6c0.2-0.4,0.4-1,0.4-1.8c0-0.8-0.1-1.3-0.4-1.7c-0.3-0.4-0.7-0.5-1.2-0.5
	c-0.5,0-0.8,0.2-1,0.5C677.6,514.7,677.5,515.3,677.5,516.1z M693.2,513.2l-1.7,5.8h-1.1l-1-4.1l-0.2-0.9c0,0.2-0.1,0.4-0.1,0.7
	c-0.1,0.3-0.4,1.7-1.1,4.3h-1.1l-1.6-5.8h1l1,4c0,0.1,0.1,0.4,0.2,1.1l0.1-0.4l1.2-4.6h1l1,4l0.2,1l0.2-0.8l1.1-4.3H693.2z
	 M694.8,512h-1V511h1V512z M694.8,519h-1v-5.8h1V519z M698.5,518.2v0.7c-0.3,0.1-0.6,0.1-1,0.1c-0.8,0-1.2-0.4-1.2-1.3v-3.9h-0.7
	v-0.7h0.7l0.3-1.3h0.6v1.3h1.1v0.7h-1.1v3.7c0,0.3,0,0.5,0.1,0.6c0.1,0.1,0.2,0.2,0.5,0.2C698.1,518.3,698.3,518.3,698.5,518.2z
	 M700.3,514.2L700.3,514.2c0.2-0.4,0.5-0.7,0.8-0.8c0.3-0.2,0.7-0.3,1.1-0.3c0.6,0,1.1,0.2,1.4,0.5c0.3,0.3,0.4,0.8,0.4,1.6v3.9h-1
	v-3.7c0-0.4,0-0.7-0.1-0.9c-0.1-0.2-0.2-0.3-0.4-0.4s-0.4-0.1-0.7-0.1c-0.5,0-0.8,0.2-1.1,0.5c-0.3,0.3-0.4,0.7-0.4,1.3v3.4h-1v-8h1
	v2.1c0,0.2,0,0.4,0,0.7C700.3,514,700.3,514.1,700.3,514.2z M713.5,516.1c0,2-0.7,3-2.1,3c-0.9,0-1.5-0.3-1.8-1h0c0,0,0,0.3,0,0.9
	v2.3h-1v-6.9c0-0.6,0-1,0-1.2h0.9c0,0,0,0.1,0,0.2c0,0.1,0,0.2,0,0.4c0,0.2,0,0.3,0,0.4h0c0.2-0.4,0.4-0.6,0.7-0.8
	c0.3-0.2,0.7-0.2,1.1-0.2c0.7,0,1.2,0.2,1.6,0.7C713.3,514.3,713.5,515,713.5,516.1z M712.5,516.1c0-0.8-0.1-1.4-0.3-1.7
	c-0.2-0.3-0.6-0.5-1-0.5c-0.4,0-0.7,0.1-0.9,0.2c-0.2,0.2-0.4,0.4-0.5,0.8c-0.1,0.3-0.2,0.8-0.2,1.3c0,0.8,0.1,1.3,0.4,1.7
	c0.2,0.4,0.6,0.5,1.2,0.5c0.5,0,0.8-0.2,1-0.5C712.3,517.5,712.5,516.9,712.5,516.1z M716.2,519.1c-0.6,0-1-0.2-1.3-0.5
	c-0.3-0.3-0.4-0.7-0.4-1.3c0-0.6,0.2-1.1,0.6-1.4c0.4-0.3,1-0.5,1.9-0.5l1.3,0v-0.3c0-0.5-0.1-0.8-0.3-1c-0.2-0.2-0.5-0.3-0.9-0.3
	c-0.4,0-0.8,0.1-1,0.2c-0.2,0.1-0.3,0.4-0.4,0.7l-1-0.1c0.2-1,0.9-1.6,2.3-1.6c0.7,0,1.3,0.2,1.7,0.5c0.4,0.3,0.5,0.8,0.5,1.4v2.5
	c0,0.3,0,0.5,0.1,0.7c0.1,0.1,0.2,0.2,0.4,0.2c0.1,0,0.2,0,0.3,0v0.6c-0.2,0.1-0.5,0.1-0.7,0.1c-0.4,0-0.6-0.1-0.8-0.3
	c-0.2-0.2-0.2-0.5-0.3-0.9h0c-0.2,0.4-0.5,0.8-0.9,0.9C717,519,716.6,519.1,716.2,519.1z M716.4,518.4c0.4,0,0.7-0.1,0.9-0.2
	c0.3-0.2,0.5-0.4,0.7-0.7c0.2-0.3,0.2-0.6,0.2-0.9v-0.5l-1.1,0c-0.5,0-0.8,0.1-1,0.1c-0.2,0.1-0.4,0.2-0.5,0.4
	c-0.1,0.2-0.2,0.4-0.2,0.7c0,0.3,0.1,0.6,0.2,0.7C715.8,518.3,716.1,518.4,716.4,518.4z M721.8,512h-1V511h1V512z M721.8,519h-1
	v-5.8h1V519z M727.9,519h-1v-3.7c0-0.4,0-0.7-0.1-0.9c-0.1-0.2-0.2-0.4-0.4-0.5c-0.2-0.1-0.4-0.1-0.7-0.1c-0.5,0-0.8,0.2-1.1,0.5
	c-0.3,0.3-0.4,0.8-0.4,1.3v3.4h-1v-4.6c0-0.7,0-1.1,0-1.2h0.9c0,0,0,0.1,0,0.1c0,0.1,0,0.2,0,0.3c0,0.1,0,0.3,0,0.6h0
	c0.2-0.4,0.5-0.7,0.8-0.8c0.3-0.2,0.7-0.2,1.1-0.2c0.6,0,1.1,0.2,1.4,0.5c0.3,0.3,0.4,0.8,0.5,1.6V519z M731.6,518.2v0.7
	c-0.3,0.1-0.6,0.1-1,0.1c-0.8,0-1.2-0.4-1.2-1.3v-3.9h-0.7v-0.7h0.7l0.3-1.3h0.6v1.3h1.1v0.7h-1.1v3.7c0,0.3,0,0.5,0.1,0.6
	c0.1,0.1,0.3,0.2,0.5,0.2C731.1,518.3,731.3,518.3,731.6,518.2z M736.7,519h-1v-3.7c0-0.6-0.1-1-0.2-1.2c-0.2-0.2-0.4-0.3-0.8-0.3
	c-0.4,0-0.7,0.2-1,0.5s-0.4,0.8-0.4,1.3v3.4h-1v-4.6c0-0.7,0-1.1,0-1.2h0.9c0,0,0,0.1,0,0.1c0,0.1,0,0.2,0,0.3c0,0.1,0,0.3,0,0.6h0
	c0.2-0.4,0.4-0.7,0.7-0.9c0.3-0.2,0.6-0.2,1-0.2c0.4,0,0.8,0.1,1,0.3c0.3,0.2,0.4,0.5,0.5,0.8h0c0.2-0.4,0.4-0.7,0.7-0.8
	c0.3-0.2,0.6-0.3,1-0.3c0.6,0,1,0.2,1.3,0.5c0.3,0.3,0.4,0.8,0.4,1.6v3.9h-1v-3.7c0-0.6-0.1-1-0.2-1.2s-0.4-0.3-0.8-0.3
	c-0.4,0-0.8,0.2-1,0.5c-0.2,0.3-0.4,0.8-0.4,1.3V519z M743,519.1c-0.6,0-1-0.2-1.3-0.5c-0.3-0.3-0.4-0.7-0.4-1.3
	c0-0.6,0.2-1.1,0.6-1.4c0.4-0.3,1-0.5,1.9-0.5l1.3,0v-0.3c0-0.5-0.1-0.8-0.3-1c-0.2-0.2-0.5-0.3-0.9-0.3c-0.4,0-0.7,0.1-1,0.2
	c-0.2,0.1-0.3,0.4-0.3,0.7l-1-0.1c0.2-1,0.9-1.6,2.3-1.6c0.7,0,1.3,0.2,1.7,0.5c0.4,0.3,0.5,0.8,0.5,1.4v2.5c0,0.3,0,0.5,0.1,0.7
	c0.1,0.1,0.2,0.2,0.4,0.2c0.1,0,0.2,0,0.3,0v0.6c-0.2,0.1-0.5,0.1-0.8,0.1c-0.4,0-0.6-0.1-0.8-0.3c-0.2-0.2-0.2-0.5-0.3-0.9h0
	c-0.2,0.4-0.5,0.8-0.9,0.9C743.9,519,743.5,519.1,743,519.1z M743.3,518.4c0.4,0,0.7-0.1,0.9-0.2c0.3-0.2,0.5-0.4,0.6-0.7
	c0.2-0.3,0.2-0.6,0.2-0.9v-0.5l-1,0c-0.5,0-0.8,0.1-1,0.1s-0.4,0.2-0.5,0.4c-0.1,0.2-0.2,0.4-0.2,0.7c0,0.3,0.1,0.6,0.3,0.7
	C742.7,518.3,743,518.4,743.3,518.4z M752.6,516.1c0,2-0.7,3-2.1,3c-0.9,0-1.5-0.3-1.8-1h0c0,0,0,0.3,0,0.9v2.3h-1v-6.9
	c0-0.6,0-1,0-1.2h0.9c0,0,0,0.1,0,0.2s0,0.2,0,0.4c0,0.2,0,0.3,0,0.4h0c0.2-0.4,0.4-0.6,0.7-0.8c0.3-0.2,0.7-0.2,1.1-0.2
	c0.7,0,1.2,0.2,1.6,0.7C752.4,514.3,752.6,515,752.6,516.1z M751.6,516.1c0-0.8-0.1-1.4-0.3-1.7c-0.2-0.3-0.6-0.5-1-0.5
	c-0.4,0-0.7,0.1-0.9,0.2c-0.2,0.2-0.4,0.4-0.5,0.8c-0.1,0.3-0.2,0.8-0.2,1.3c0,0.8,0.1,1.3,0.4,1.7c0.2,0.4,0.6,0.5,1.2,0.5
	c0.5,0,0.8-0.2,1-0.5C751.5,517.5,751.6,516.9,751.6,516.1z M758.2,517.4c0,0.6-0.2,1-0.6,1.3c-0.4,0.3-1,0.5-1.7,0.5
	c-0.7,0-1.3-0.1-1.7-0.4c-0.4-0.2-0.6-0.6-0.8-1.1l0.8-0.2c0.1,0.3,0.3,0.5,0.5,0.7c0.3,0.1,0.6,0.2,1.1,0.2c0.5,0,0.9-0.1,1.1-0.2
	c0.2-0.2,0.3-0.4,0.3-0.7c0-0.2-0.1-0.4-0.2-0.6c-0.2-0.1-0.4-0.3-0.8-0.3l-0.7-0.2c-0.6-0.1-1-0.3-1.2-0.4
	c-0.2-0.1-0.4-0.3-0.6-0.5c-0.1-0.2-0.2-0.4-0.2-0.7c0-0.5,0.2-0.9,0.6-1.2c0.4-0.3,0.9-0.4,1.7-0.4c0.6,0,1.2,0.1,1.5,0.3
	c0.4,0.2,0.6,0.6,0.7,1.1l-0.9,0.1c-0.1-0.3-0.2-0.5-0.4-0.6c-0.2-0.1-0.5-0.2-0.9-0.2c-0.4,0-0.8,0.1-1,0.2
	c-0.2,0.1-0.3,0.3-0.3,0.6c0,0.2,0,0.3,0.1,0.4c0.1,0.1,0.2,0.2,0.4,0.3c0.2,0.1,0.5,0.2,1.1,0.3c0.5,0.1,0.9,0.2,1.1,0.4
	c0.2,0.1,0.4,0.2,0.5,0.4s0.2,0.3,0.3,0.5C758.1,517,758.2,517.2,758.2,517.4z M760.6,519h-1v-1.2h1V519z M763.1,516.1
	c0,0.8,0.1,1.3,0.4,1.7c0.2,0.4,0.6,0.6,1.1,0.6c0.3,0,0.6-0.1,0.9-0.3c0.2-0.2,0.4-0.5,0.4-0.9l1,0.1c-0.1,0.6-0.3,1-0.7,1.3
	s-0.9,0.5-1.5,0.5c-0.8,0-1.4-0.3-1.9-0.8c-0.4-0.5-0.6-1.3-0.6-2.2c0-1,0.2-1.7,0.6-2.2c0.4-0.5,1-0.8,1.8-0.8
	c0.6,0,1.1,0.2,1.5,0.5c0.4,0.3,0.6,0.7,0.7,1.3l-1,0.1c-0.1-0.3-0.2-0.6-0.4-0.8c-0.2-0.2-0.5-0.3-0.9-0.3c-0.5,0-0.9,0.2-1.1,0.5
	C763.2,514.7,763.1,515.3,763.1,516.1z M772.8,516.1c0,1-0.2,1.8-0.7,2.3c-0.4,0.5-1.1,0.8-1.9,0.8c-0.8,0-1.5-0.3-1.9-0.8
	c-0.4-0.5-0.6-1.3-0.6-2.2c0-2,0.9-3,2.6-3c0.9,0,1.5,0.2,2,0.7C772.6,514.3,772.8,515.1,772.8,516.1z M771.8,516.1
	c0-0.8-0.1-1.4-0.4-1.8c-0.2-0.4-0.6-0.5-1.2-0.5c-0.6,0-1,0.2-1.2,0.5c-0.3,0.4-0.4,1-0.4,1.7c0,0.8,0.1,1.3,0.4,1.7
	c0.3,0.4,0.6,0.6,1.2,0.6c0.6,0,1-0.2,1.2-0.6C771.6,517.5,771.8,516.9,771.8,516.1z M778.3,519h-1v-3.7c0-0.6-0.1-1-0.2-1.2
	c-0.2-0.2-0.4-0.3-0.8-0.3c-0.4,0-0.7,0.2-1,0.5s-0.4,0.8-0.4,1.3v3.4h-1v-4.6c0-0.7,0-1.1,0-1.2h0.9c0,0,0,0.1,0,0.1
	c0,0.1,0,0.2,0,0.3c0,0.1,0,0.3,0,0.6h0c0.2-0.4,0.4-0.7,0.7-0.9c0.3-0.2,0.6-0.2,1-0.2c0.4,0,0.8,0.1,1,0.3
	c0.3,0.2,0.4,0.5,0.5,0.8h0c0.2-0.4,0.4-0.7,0.7-0.8c0.3-0.2,0.6-0.3,1-0.3c0.6,0,1,0.2,1.3,0.5c0.3,0.3,0.4,0.8,0.4,1.6v3.9h-1
	v-3.7c0-0.6-0.1-1-0.2-1.2s-0.4-0.3-0.8-0.3c-0.4,0-0.8,0.2-1,0.5c-0.2,0.3-0.3,0.8-0.3,1.3V519z"/>
</svg>
