<?xml version="1.0" encoding="utf-8"?>
<!-- Generator: Adobe Illustrator 25.1.0, SVG Export Plug-In . SVG Version: 6.00 Build 0)  -->
<svg version="1.1" id="Layer_1" xmlns="http://www.w3.org/2000/svg" xmlns:xlink="http://www.w3.org/1999/xlink" x="0px" y="0px"
	 viewBox="0 0 800 534" style="enable-background:new 0 0 800 534;" xml:space="preserve">
<style type="text/css">
	.st0{stroke:#000000;stroke-width:0.4;}
	.st1{fill:none;}
</style>
<path id="Adilabad" class="st0" d="M431.9,132.7l-1.3,1.6l-2.7,2l-0.6,0.7l-0.4,1.2l0.2,1.4l0.1,3.2l-0.3,1.8l0.2,0.8l0.9-0.1
	l0.8-0.6l0.8-0.4l0.9-0.3l1,0.1l0.8,0.5l0.6,1.3l0.1,0.8l-0.1,2.7l-0.1,2.2l0.1,0.3l0.3,1.5l0.4,2.1l0,2.3l-0.1,2l0.1,2l-0.2,1.9
	l-0.4,1.4l-0.6,0.8l-0.4,0.1l-1.3,0.1l-0.8,0.4l-0.2,0.1l-0.5,0.1l-0.9-0.1l-0.8-0.4l-0.3-1.3l-0.1-0.9l-0.2-1.6l-1.1-1.1l-0.4,0.4
	l-0.5,1l-0.3,1.4l-0.1,1.6l0.1,1l0.8,1.4l0.6,0.8l0.2,0.9l-0.2,1.2l-0.6,0.5l-0.5,0.6l-0.8,1.5l-0.9,2.3l-0.3,1.8l-0.7,0.9l-1.8,1.5
	l-1.2,0.8l-1,0.3l-1.1,0l-0.8-0.2l-0.9,0.1l-0.3,0.4l-0.8,0.5l-0.8,0.1l-0.6-0.4l-0.7-1.5l-0.4-0.5l-0.6-1.9l-0.4-0.6l-0.9-0.7
	l-0.6-0.6l-0.8,0l-0.2-0.4l-0.6-0.4l-1.1-1.1l-0.6-0.4l-1.9-1.7l-0.8-0.5l-1-0.4l-0.9-0.6l-0.8,0.1l-0.5,0.2l-0.6-0.4l-0.5-1
	l-0.1-0.2l-0.7-1l-0.6-0.7l-0.7-0.6l-1.3-0.9l-0.5-0.8l-0.6-0.7l-0.6-0.4l-0.7-0.4l-1.6-1l-0.8-0.3l-0.6,0l-0.4,0.2l-0.4,1.3
	l-0.3,0.8l-0.6,1l-0.8,0.8l-0.5,0.3l-0.7,0.2l-0.8,0.2l-1.4,0.3l-0.8-0.3l-0.6-0.1l-0.6-0.2l-0.5-0.3l-0.5-0.5l-1.1-1.7l-0.7-0.9
	l-1-1.1l-0.9-0.2l-2.2,0.2l-1.1-0.3l-2-3.2l-0.8-1.1l-1.7-1.6l-1-1.1l-0.7-1.2l-0.2-1.2l-0.2-1.3l-0.8-1.3l-0.4-0.3l-0.3-0.8
	l-0.1-0.2l-0.8-2.4l-0.6-1l-1-1l-0.9-0.8l-0.8-0.5l-1.2-0.6l-1.2-0.5l-0.2-0.1l-0.3-0.1l-0.6-0.2l-1.1-0.2l-1.6,0.2l-0.8,0.5
	l-0.9,0.8l-0.5,0.8l-0.5,0.9l-0.8,1l-0.7,0.3l-1-0.3l-1-0.5l-2.1-1.6l-1.1-0.5l-0.8,0.3l-2.2,2l-3,2.3l-1.4,0.4l-2.8-1.6l-1.5-0.2
	l-1.3,0.6l-0.7,0.8l-0.6,1.4l-0.3,0.6l-1.1,1.5l-0.5,0.2l-0.6,0.1l-0.8-0.2l-1.7-0.8l-0.7,0.1l-0.9,0.7L325,152l-1.5,2.3l-0.8,0.9
	l-0.2-0.1l-0.5-0.3l-1.1-1.3l-0.9-0.5l-2.6,0.7l-1.1,0l-0.7-0.1l-0.7-0.5l-1.4-1.7l-0.9-0.8l-0.9-0.2l-0.8,0.2l-1,0.4l-0.8,0.6
	l-2.2,2.2l-1,0.7l-1.1,0.7l-1.1,0.4L303,155l-0.3-1.4l0-1.2l-0.4-1.4l-0.6-0.9l-1-0.8l-0.2-0.1l-1-0.4l-1.2,0.1l-1.2,0.3l-1,0.6
	l-1.2,0.5l-1.3,0.8l-2.2,2.3l-0.9,0.6l-1.6,0.8l-0.6,0.2l-0.6,0.4l-1,0.3l-0.2,0.2l-0.4,0.4l-1,1.1l-0.1,0.1l-0.6,1.4l-0.4,1.1
	l-0.4,1.5l-0.4,0.4l-0.5,0.1l-1.8-0.7l-2.1,0.7l-0.7,0.7l-0.6,1.6l-0.7,1.2l-1.1-0.4l0.2-0.5l-0.6-0.3l0.1-0.5l-1.5-0.9l-0.5-0.1
	l0-1.7l-0.9-0.1l-0.4-1.2l-0.1-1.3l-1-0.2l-1,0.4l-1.3-0.5l0-1.1l0.2-0.9l0.4-0.1l0.4-2.2l-1.8,0.2l-0.2,0.5l-1.1-0.4l0.2-1
	l-0.2-0.1l0.3-2.3l-2.4-0.2l-0.4,0.8l-1.1-0.5l0.1-1.9l-0.2-0.8l0-0.8l-0.1-0.4l-0.2-0.1l-0.2-0.2l-0.2-0.6l0.3-2.4l-0.1-0.8
	l0.2-0.3l0.7,0.6l0.5,0.2l0.4,0l0.6,0.4l0.3,0l0.2-0.1l-0.1-1l0.1-0.4l-0.3-0.7l0.1-0.2l0.2-0.1l0.3-1l-0.1-1.1l0-0.4l0.2-0.3
	l0.2-0.2l0.7,0l0.6,0.8l0.2,0.5l0.2,0.7l0.4-0.2l0.7,0l0.3-0.2l0.1-0.2l0-0.3l-0.3-0.4l0.1-1.9l-0.5-0.5l-0.4-1.4l-0.2-0.3l0.5-0.3
	l0.9-1.8l0-0.4l0.1-0.3l0-0.6l0.3-0.2l0-0.3l-0.1-0.5l0.4-0.4l-1.1-0.8l0.2-0.9l0.5-0.8l0-0.5l0.5-0.9l0.2-0.8l0.1-0.8l0.2-0.4
	l0.2-0.8l-0.1-1l1.4-0.5l0.6,0.3l0.7,0.1l0.4-1.2l-0.4-1l-0.6-0.1l-1.4-0.1l-1.1-0.4l-0.1-0.4l0.1-0.8l-0.1-0.7l0.8-0.4l0.3-0.3
	l1-0.4l0.4-0.9l0.5,0.4l0.5,0.2l0.5-0.2l0.8-0.8l0.3-0.6l0.9-0.4l0.3-0.7l0.6,0.1l1.1,1l0.3,0.5l0.8,0.7l0.7,1.3l0.8,0.3l1.2,0.5
	l0.5,0.5l0.7,1.8l0.4,0.5l1,0.3l0.3,0.9l-0.1,0.7l0,0.8l0.2,0.6l0.5,0.2l1.4-0.7l0.6-0.9l1,0.5l0.3,0.4l2.1-0.1l1,0.7l0.8,1l1.6-0.7
	l1-0.5l0.2-0.8l-0.2-1.2l0-1.8l0.8-2.5l0.2-1.2l0-1.1l0.2-0.7l-0.8-0.7l-0.4-0.7l-0.2-0.8l0.1-0.8l0.2-0.8l0-0.8l0.2-0.9l0-1.2
	l-0.4-1.7l1.2,0.5l0.6-0.7l0.8-1.3l0.7-0.7l0.7,0.1l1,0.4l0.5-0.1l0.8-1.1l0.4-0.8l0.5-0.6l0.7,0.1l0.7,0.4h0.5l0.9-0.8l0.2-1l0-1.4
	l-0.2-0.8l-0.5-0.8l-0.3-1.1l-0.1-1l-0.2-1.8l0-0.7l-0.3-0.6l-0.5-0.8l-0.4-0.8l0.5-0.2l0.9,0.2l0.2-0.3l0-0.6l0.5-0.1l0.4-0.5
	l0.1-0.7l-0.1-0.9l0.1-1.8l-0.2-0.8l-0.8-1.2l-0.3-0.9l-0.2-1.3l-0.4-1.1l-1.2-0.6l-0.2-0.3l0.3-0.7l1-2l1.5,0.1l0.9-0.2l0.3-0.6
	l0.2-0.7l0.8-0.5l1-0.5l-0.1-1.1l0.1-1.1L309,72l0.6-1.7l0.3-1.4l0.2-1.4l-0.1-1.4l-0.5-1.2l-0.7-0.5l-1-0.3l-0.2-0.5l0.4-1.5
	l-0.2-0.7l-2.8-0.7l-0.7-0.4l0-0.6l0.3-1.9l0.8-3.7l0.2-0.4l0.7-0.3l0.7-0.1l0.5,0.6l0,0.6l-0.6,0.5l-0.3,0.5l0.2,0.5l0.9,0.8
	l0.8,0.2l1.5-0.2l0.7,0.4h0.8l0.1,0.6l-0.1,1.1l0.1,0.8l0,0.3l0.3,0.7l0.7,1l0.9,0.7l1.5,0.7l1.2,0.4l1.6,0.3l0.9,0l0.6,1l0.4,0.9
	l0.4,0.6l0.8,0.1l0.5-0.9l0.2-1.4l0.5-0.6l0.6-0.2l2.5,0.6l1.2,0.2l0.9,0.2l0.5-0.4l0.3-0.2l0.6,0l0.8,0.4l0.4,0.5l1.2,0.5l1,0.2
	l3,1.2l0.7,0l0.5,0.4l0.6,1.3l0.6,0.6l0.6-0.2l0.6-0.4l0.5-0.7l0.4,0l0.7,0.2l0.9,0.2l0.8-0.4l0.9,0.1l1,1.1l0.5,0.9l0.4,0.2
	l0.7-0.3l0.6,0l1-0.2l0.5,0.3l0.1,0.1l0.6,2.1l0.3,0.7l0,1.2l0.3,1.4l0.1,0.9l0,1.1l-0.1,0.8l-0.3,1.1l0,1.3l1.5-0.1l1,0.2l1-1
	l1-0.3l1.5,0.6l0.7-0.3l0.8,0.2l0.6,0.5l0.6,1l-0.1,1l-0.3,1l-0.1,1.3l0.2,1.3l0.5,0.8l0.5,0.7l0.2,0.6l-0.2,0.5l-0.7,0.7l-0.3,0.3
	l-0.8,0.8l-0.4,0.6l0.4,0.6l0.8,0.2l0.7,0.1l0.4-0.1l0.6-0.6l0.5-0.5l0.2,0.1l0.4,0.2l0.9,1.6l0.5,0.4l1.6-0.5l1,0l0.7,0.7l0.3,0.8
	l0.8,0.3l1.8-0.2l0.5,0.3l0,0.9l0.2,0.7l0.6,0.3l1.1,0.3l1.1,0.6l1.3,1.6l1,1.9l0.7,0.7l0.9,0.2l2.3-0.6l0.3-0.3l-0.2-0.8l-0.9-1
	l-0.1-0.7L376,97l0.6-1.2l0.6-0.7l0.7-0.4l0.4-0.6l0.1-0.6l0.1-1l-0.1-0.9l0.1-0.9l0.8-1.9l-0.1-1l-0.4-0.7l-0.5-0.7l-0.1-1l0.5-0.3
	l0.9,0.1l1,0.5l2,1l0.9,0.7l0.4,0.9l0.4,1.7l0.6-0.7l0.6-0.2l0.9,0l2.2,0.3l0.2,1l0.7,0.6l0.7,0.7l1,0.9l0.9,0.7l0.8,0.1l0.6-0.2
	l0.9,0.2l1.3,1.5l0.5,1l0.4,1.2l0.8-0.7l1-0.1l1.6-1.3l0.2-0.4l0-1.5l-0.1-0.4l0-0.1l0.9-0.4l0.7-0.2l0.6,0l0.2,0.6l0,0.9l0.2,0.8
	l0.4,0.6l1,1l0.6,0.4l0.7,0.4l0.7,0.1l0.5-0.2l0.2-0.4l0.1-0.7l0-0.7l0.3-1.9l0.3-1l0.4-1l0.4-0.7l1.4-1l1-0.2l1-0.1l1,0.1l0.5-0.3
	l0.9-0.2l0.7,0l0.6-0.2l1.3-1.4l0.8-0.7l1.1,0.1l0.9,0.2l0.9,0.3l0.6,0.4l0.1,0.4l0.6,1l0.9,0.3l0.5,0.3l0.4,0.5l0.2,0.8l0.1,1
	l0.2,0.8l0.4,0.8l2.2,2.1l0.6,0.4l0.5,0.9l0.6,0.5l1.9,0.4l0.7,0.4l0.5,0.7l0.5,0.8l0.7,0.9l0.3,0.2l0.2,0.3l0.4,0.6l0.1,0.8l0,1.1
	l1.1,1.6l0.8,1.7l0.2,0.9l0,1l-0.1,1l-0.3,0.8l-0.1,1.4l-0.2,1.1l-0.6,1.7l0,1l0.5,1.9L435,118l-1,0.9l-0.3,0.5l-1,2.6l-0.9,3.4
	l-0.1,1.2l0.2,1.2l1,2l0.6,0.8l0.1,0.5l-0.2,0.6l-1.1,0.4L431.9,132.7z"/>
<path id="Hyderabad" class="st0" d="M320.9,311l0.3,0.2l0.7-0.5l0.7-0.6l0.5,0.1l0,0.8l-0.3,1.6l-0.8,2l-0.4,2.3l0,0.9l0.6,2l-0.3,1
	l-0.8,1.1l-0.1,1l0.1,1.2l-1.2,1l-1.4,1.7l-0.5,0.2l-0.4-0.2l-0.3-0.4l-0.9-1l-0.5-0.8l-0.2-1.1l0.2-1.2l-0.8,0.1l-1.4-0.2l-0.9-0.3
	l-0.8-0.8l-0.8-3.3l-0.1-1.1l0.2-1.4l0.6-1.2l0.9-1l0.7-0.1l0.5,0.5l0.7,1.3l0.7,1.1l0.4,0.4l-0.1-2.8l0.4-0.8l0.8-1.1l1.2-2.8
	l1-0.3l0.6,0.6L320.9,311z"/>
<path id="Karimnagar" class="st0" d="M406.9,238.9l-0.5,0l-0.6-0.2l-0.5,0.1l-0.2,0.2l0.1,1.1l0.1,0.5l0.4,0.6l-0.5,0l-0.8-0.2
	l-0.4,0.5l-0.2,0.4l-0.5,1.2h-1.4l-0.5,0.2l-0.5,0.1l-0.6-0.5l-0.8,0.7l-0.7-0.1l-0.6-0.2l-0.7-0.8l-0.6-0.3l-0.4,1.4l-0.5,1.2
	l-0.1,0.6l-0.3,0.5l-0.6,0.6l-0.9,0.6l-0.4,0.4l-1.3,1.4l-2.5,1.9l-0.5,0.5l-0.4,0.5l-0.3,0.1l-0.6-0.2l-0.7-0.4l-0.8,0l-2.9,0.4
	l-0.8,0.2l-0.7,0.3l-0.6,0.5l-2.1,1.3l0.1,2.1l-0.3,0.1l-0.8-0.1l-0.8,0l-0.7-0.2l-0.5-0.6l-1.1-0.5l-0.9-0.2l-1.5,0.6l-1.2,0.3
	l-0.7,0.1l-0.1-0.6l-0.1-0.9l0-0.4l-0.5-0.2l-1.1-0.3l-2-1l-0.5-0.6l0.4-0.2l0.3-0.1l0.8,0.2l0.4-0.8l0-0.6l-0.6-1.4l0.1-0.4l0.5-1
	l0.3-0.4l0.5-0.4l0.4-0.6l-0.7-0.2l-0.5,0l-1.2,0.2l-1.8-0.3l-0.8,0l-0.6-0.2l-1.5-0.8l-0.7-0.5l0.3-1.3l0.1-1.8l-0.9-0.8l-0.7-0.3
	l-0.5-0.6l0.3-1.5l0.1-0.9l0-0.9l-0.2-0.7l0.2-0.6l-0.4-1.1l-0.5-0.7l-0.7-0.3l-0.7-0.3l-0.9-0.3l-1.2-0.4l-0.3-0.7l0-0.9l0.3-2.2
	l-0.3-0.2l-1.4-0.3l-0.9,0.1l-1.1,0.3l-0.6,0.3l-0.4,0.4l-0.4,0.8l-1.6-0.6l-2.2-0.4l-1-0.5l-0.2-0.2l-0.6-0.3l-1.6,0l-0.9-0.2
	l-1-0.5l-0.5,0.5l-0.3,1l-0.9,2.3l-1,1.1l-1.1,0l-0.3-1.5l-0.7-0.1l-0.7,0l-0.9,0.3l-0.4-0.3l-0.5-0.6l-0.8-0.5l-1-0.5l-1-0.2
	l-1.5-0.1l-2.2,0.1l-0.7,0.3l-0.8,1.6l-0.5,0.7l-0.7-0.5l-0.4-1.2l-0.3-1.3l-0.3-0.7l-0.6-0.8l-2.1-1.7l0.4-0.7l0.8-0.7l0.4-0.5
	l0.1-1.5l0.6-2.2l-0.1-0.7l-0.3-0.7l-0.6-1.7l-0.2-1.9l0.3-0.5l0.9,0l0.8,0.1l0.5-0.1l-0.2-0.7l-0.9-1l-0.3-0.5l-0.2-0.8l0.2-0.6
	l0.4-0.6l0.1-0.7l-0.2-0.9l-0.7-1.3l-0.7-0.5l-0.7-0.8l0.2-0.7l0.8-2.1l1-2.1l0.8-2.1l0.4-0.6l0.7-0.5l0.6,0.1l0.6,0.2l0.5-0.3
	l0.5-2.6l0.3-0.7l0.6-0.6l0.7-0.3l2-0.6l1-0.7l1.3-2l0.3-0.7l-0.3-0.4l-0.6-0.5l-0.2-0.2l-0.5-0.8l-0.6-1.7l-0.4-2.1l-0.3-1.2l0-0.5
	l0.2-1.6l-0.2-0.9l-0.1-0.8l-0.4-0.5l-0.9-0.4l-0.9,0l-0.7,0.2l-0.8-0.1l-0.7-0.3l-0.8-0.8l-1.1-1.9l0-0.9l0.5-1.4l-0.7-1.2
	l-0.3-1.9l-0.2-0.5l-0.2-0.4l-0.1-0.9l0-1.4l-0.2-1.2l-0.1-1.9l-0.4-1.6l-0.4-0.6l-0.9-1.2l-0.1-0.6l0.4-1.5l0.5-1.4l0.8-0.9
	l1.5-2.3l0.6-0.6l0.9-0.7l0.7-0.1l1.7,0.8l0.8,0.2l0.6-0.1l0.5-0.2l1.1-1.5l0.3-0.6l0.6-1.4l0.7-0.8l1.3-0.6l1.5,0.2l2.8,1.6
	l1.4-0.4l3-2.3l2.2-2l0.8-0.3l1.1,0.5l2.1,1.6l1,0.5l1,0.3l0.7-0.3l0.8-1l0.5-0.9l0.5-0.8l0.9-0.8l0.8-0.5l1.6-0.2l1.1,0.2l0.6,0.2
	l0.3,0.1l0.2,0.1l1.2,0.5l1.2,0.6l0.8,0.5l0.9,0.8l1,1l0.6,1l0.8,2.4l0.1,0.2l0.3,0.8l0.4,0.3l0.8,1.3l0.2,1.3l0.2,1.2l0.7,1.2
	l1,1.1l1.7,1.6l0.8,1.1l2,3.2l1.1,0.3l2.2-0.2l0.9,0.2l1,1.1l0.7,0.9l1.1,1.7l0.5,0.5l0.5,0.3l0.6,0.2l0.6,0.1l0.8,0.3l1.4-0.3
	l0.8-0.2l0.7-0.2l0.5-0.3l0.8-0.8l0.6-1l0.3-0.8l0.4-1.3l0.4-0.2l0.6,0l0.8,0.3l1.6,1l0.7,0.4l0.6,0.4l0.6,0.7l0.5,0.8l1.3,0.9
	l0.7,0.6l0.6,0.7l0.7,1l0.1,0.2l0.5,1l0.6,0.4l0.5-0.2l0.8-0.1l0.9,0.6l1,0.4l0.8,0.5l1.9,1.7l0.6,0.4l1.1,1.1l0.6,0.4l0.2,0.4
	l0.8,0l0.6,0.6l0.9,0.7l0.4,0.6l0.6,1.9l0.4,0.5l0.7,1.5l0.6,0.4l0.8-0.1l0.8-0.5l0.3-0.4l0.9-0.1l0.8,0.2l1.1,0l1-0.3l1.2-0.8
	l1.8-1.5l0.7-0.9l0.3-1.8l0.9-2.3l0.8-1.5l0.5-0.6l0.6-0.5l0.2-1.2l-0.2-0.9l-0.6-0.8l-0.8-1.4l-0.1-1l0.1-1.6l0.3-1.4l0.5-1
	l0.4-0.4l1.1,1.1l0.2,1.6l0.1,0.9l0.3,1.3l0.8,0.4l0.9,0.1l0.5-0.1l0.2-0.1l1.2,2.5l0.6,1l1.2,1.4l0.6,0.3l0.8,0.2l2.5,0.6l0.9,0.1
	l1.3,0.5l0.3,0.2l0.2,0.7l0.2,0.3l0.2,0.6l0.9,0.2l0.3,0.2l1,2.7l0.5,0.3l0.7,0.1l0.3,0.3l0.2,0.5l0.5,0.7l0.3,0.1l0.3-0.1l0.2,0.2
	l0.2,0.3l1.1,1.3l0.5,0.8l0.3,0.1l0.4,0l0.2-0.3l0.2-0.2l0.8-0.4l0.5-0.1l0.5,0.1l0.5-0.7l0.3-0.2l0.5-0.1l0.3,0.2l0.2,0.4l0.2,1.1
	l0.3,0.3l0.4,0.1l1,0l0.2-0.4l0.1-0.5l0.2-0.5l0.6-0.9l0.5-0.3l0.5-0.1l0.4,0.2l0.4,0.3l0.4-0.1l0.4-0.3l0.5,0l0.4-0.1l1.1-1.3
	l0.6-0.4l0.3,0.5l0.5,0.3l0.9,1.7l0.6,1l0.2,0.7l0.7,2.8l0.6,1.7l0.3,1.5l0.9,2.6l0.4,0.6l-0.7,0l-1,0.4l-1.2,0.3l-0.7-0.1l-2.1,0.1
	l-0.2,0.1l-1.9,2.1l-0.3,0.4l-0.4,0.4l-0.5,0.7l0,2.9l-0.1,4.4l0.1,2l-0.1,2.7l0,0.9l-0.1,0.8l-0.2,0.6l-0.2,0.8l-0.1,1.7l-1.1,1.3
	l-0.4,0.7l-1.6,1.9l-0.3,0.5l0,0.8l-1.6-2.2l-0.6-1.1l0.1-1.1l0.3-1.5l0-1.6l-0.7-0.5l-0.5-0.2l-0.6-0.3l-1.2-0.5l-0.6-0.4l-0.5-0.1
	l-1.2,1l-0.2,1.1l-0.1,1.5l0.2,0.6l-0.5,0.5l-1.3-1.4l-1.2-0.3l-1.1,0.3l-0.2-0.7l-0.3-1l0.5-2.7l0.4,0.7l0.3,0.5l0.8,0.3l0.9,0.2
	l1.4-0.2l0.5-0.6l1-1.5l0.5-1l0.9,0.1l0.2-1l-0.8-0.1l-1.4,0l-0.1-0.2l-0.3-0.7l-0.6,0.1l-0.8-0.4l-1.1-0.3l1.1-1.7l0.6-0.4l0.9-0.9
	l0.1-0.7l-3.6,0.2l-0.1,0.8l-0.2,0.8l-0.1,0.7l-0.3,0.5l0,0.4l0,0.5l-0.5,1.2l-0.7-0.5l-0.5-0.1l-0.7-1.1l-0.2-0.1l-0.3-0.4
	l-0.4,0.2l-0.7,0.6l-0.2,0.7l-0.4-0.1l-0.4-0.9l-0.2-1.3l-0.3-0.9l-0.3-0.2l-0.3,0.1l-0.4-0.1l-0.4-0.4l-2-0.2l-1.6,0.1l-0.7,0.3
	l0.2,1.2l0.9,2.1l0.6,0.9l0.6,0.6l0.8,0.5l-0.1,2.5l0,0.7l-0.1,0.5l-2-1l-1.3-1.2l-1.1-2l-0.6-1.8l-0.2-0.4L425,202l-0.6-0.2
	l-0.7,0.1l-0.6,0.4l-0.4,0.7l0,1.3l0.2,1.1l0.5,1.5l0.4,1.6l0.1,1.6l-0.5,0.3l-0.7-0.1l-0.8-0.6l-0.8-0.7l-0.6-0.8l-0.7-1.3
	l-0.6-1.5l-0.4-0.7l-0.3-0.5l-0.5-0.5l-0.7-0.6l-1.8-0.9l-1.4-0.3l-0.8,0l-0.6,0.1l-0.3,0.3l-0.5,0.8l-0.7,0.9l-0.5,0.4l-0.1,0
	l-1.6-0.5l-0.8,0.1l-1.4,0.5l-1,0.1l0,0.8l0,0.8l-0.1,0.8l-0.7,1.5l-0.5,0.8l0.5,1.7l-0.2,0.7l-0.1,0.9l-0.1,0.9l0,1l0.4,2l0.1,0.6
	l-0.1,1.2l-0.1,0.4l-0.4,0.6l0.4,0.9l-0.1,0.9l-0.7,0.3l-0.1,1.2l0.1,1.2l0.2,0.9l0.5,1.8l0.8,1.4l0.2,0.5l0.5,1.5l0.1,0.7l0.6,1.1
	l0.2,0.8l0.2,0.7l0.3,0.4l0.2,0.7l0.1,0.4l-0.5,0.6l-0.3,0.8l0,0.8l0.2,0.7L406.9,238.9z"/>
<path id="Khammam" class="st0" d="M483.8,365.7l0.4,1l0.1,0.5l-0.1,0.5l-0.3,0.3l-0.3,0.1l-0.1,0.7l0.2,0.6l0.2,0.4l0.1,1.4
	l-0.8,0.1l-0.9,0.4l0,2l-0.1,0.8l-0.1,0.7l-0.6,1.2l0.1,0.7l0.4,0.1l0.5,0l0.4,0.5l1.1,0.6l0.6,0.9l0.3,0.6l0.5,0.4l-0.5,0.3
	l-2.2,1.5l-0.5,0.8l-1.3-0.5l-1.3-0.2l-0.9,0.1l-0.6-0.1l-1.7-0.6l-0.4-0.6l-0.4-0.4l-0.6-0.4l-1.1-0.2l-0.1-1.7l-0.2-0.9l-0.6-0.4
	l-1-0.5l0-0.4l-0.7-0.2l-0.1-0.8l-0.2-0.5l-1.5-0.8l0,1.3l-0.1,0.6l-0.4,0.7l-1.2,0.6l-0.1,0.7l-0.2,0.2l-0.2-0.1l-0.4-1.6l-0.2-1.3
	l-0.3-1.2l-0.2-0.5l-0.6,0.2l-1.2-0.2l0.2-1.2l-0.8-0.4l-0.6,0l-0.1-0.7l-0.2-0.7l0-1.1l-0.2-1.8l0.2,0l-0.6-1.2l-0.3-1.6l-0.2-1.7
	l-1-2.2l-1-1.7l-1.1-1.8l-0.9,0.3l-0.7,0.5l-0.4,0.1l-0.3-0.3l-1.1-1.5l-0.4,0l-0.9,0.6l-0.5-0.5l0.1-0.8l-0.2-1.8l-0.9-0.2
	l-0.9,1.5l-0.3,0.7l-1.4,1.6l-0.5,0.7l-0.1,0.9l-0.5,0.8H448l-0.5-0.2l-0.4,0.1l-0.2,0.4l-0.5,0.1l-0.5-0.2l-0.9-0.5l-0.3,1l0,1.5
	l-3-0.2l-0.1-1.6l-0.1-1.3l0.3-0.8l0.5-1l-0.4-1l-0.7-0.4l-0.9-1.3l-1.2-1.5l-0.9-0.6l-0.8-0.7l-0.9-2l-0.7-1.3l-0.8-0.8l-1.3-1.8
	l-0.5-0.5l-0.5-0.3l-1.1,0.1l-0.5-0.1l-0.5-0.3l0-0.6l0.1-0.7l-0.1-0.6l-0.4-0.5l-1.4-0.9l-0.6-0.7l-0.4-0.6l-0.2-0.8l0.2-1.5
	l0.2-0.8l0.4-0.4l1.2-0.5l-0.2-1.8l0.1-1.2l-0.1-0.6l-0.5-1l-0.9-0.5l-2.2-0.4l-1-0.3l-1-0.1l-0.5-0.5l-0.4-0.6l-1.4-2.7l-0.3-0.8
	l0.8-0.9l0.7-0.6l0.6-0.3l1,0.3l0.7,0.5l0.9-0.7l1,0.2l0.6,0l0.5-0.9l0.1-0.8v-1l0.3,0l0.6,0.5l0.4-1.8l0.8-0.5l1.3,0.2l0.7,0
	l0.5-0.4l-0.2-1.2l0.4-0.4l0.7-0.1l0.5-0.2l1.1-0.8l1.3,0.4l0.3,1v1.8l0.8,1.1l3.1,1l0.7,0.1l0.5,0.6l0.8-0.5l0.4-0.5l0.6-0.4
	l0.4-0.8l0.6,0.3l0.5,0.4l0.6,0.1l0.6-0.5l0.2-0.8l0.3-0.4l0.2-0.7l0.5-0.4l0.3-0.6l0.4-0.2l0.5-0.1l0.9,0.7l0.3,0.8l0.2,0.1v-0.9
	l-0.1-0.8l0.1-1.4l0.5-2.7l0.1-1l0-1.3l-3.2,0.9l0-1.7l0.1-0.9l-0.2-1.1l-0.8-0.5l-0.9-0.4l-0.5-0.6l-0.8-1.8l-0.5-1.5l0-1l0.2-1.2
	l-0.5-0.8l0.4-1.1l0.2-1l-0.8-0.9l-0.6-0.5l-0.5,0l-0.2-0.4l-0.4-0.4l0.2-1.2l0.6-1.8l0.7-1.8l0-0.5l0.2-0.5l1-0.5l0.1-0.3l-0.4-1.4
	l-0.7-0.9l-2.4-1.6l0.1-1l0.4-0.9l0.6,0.3l0.4,0.3l0.9-0.2l1.2-0.7l2.7-1.2l0.8-0.5l0.6-1.2l0.8-0.3l0.8-0.5l0.1,0.8l0.2,0.6
	l0.2,1.2l0.3,0.2l0.3,0.1l-0.4,0.8l0.1,0.5l3.2-2.9l0.9-0.7l1-0.6l0.3,1.1l0.2,0.6l0.5-0.3v-0.3l0.3-0.1l0.3-0.6l0.2-2l-0.3-1.5
	l-0.3-4.7l1.5-3.4l0.4-1.1l0.2-1.2l0-1.5l0.3-1.3l-0.7-1.2l-0.2-1.4l0.3-1.6l0.1-1.2l-0.1-0.8l1.3,0.1l0.4-0.1l0.7-0.5l0.1-0.1
	l0.3-0.4l1.1-2.5l0.3-0.5l1.1-1.2l0.1-1.2l0.2-0.8l0.3-0.4l0.4-0.3l1.5-2.1l1.5-1.8l0.8,0.4l0.6,0.5l0.6,0.7l1.2,0.9l0.3-0.1
	l0.7-0.5l0.2,0.1l0.7,0.4l-0.3-0.7l0-1.2l0.4-0.4l0.1-0.2l0.1-0.1l0.3-1.1l0.5-1.6l0.3-0.7l0.2-0.4l0-0.4l-0.9-0.9l1.7-0.8l0.8,0.3
	l0.5,1l0.9,0.9l0.1,0.5l0.3,0.2l0.6,1l0.5,0.5l0.5,0.3l0.2-0.1l0.5-0.7l0.2,0l0.7,0.1l0.4,0.3l1.4,1.4l0.4,0.3l0.3,0.2l0.3-0.1
	l0.6-0.8l0.2-0.7l0.1-0.2l0.3-0.5l0.1-0.9l0.2-0.1l0,0l0.8,0.4l0.5,0.1l0.2-0.2l0.4-1.1l0-0.4l-1.4-0.2l0-0.3l0.1-0.5l0.1-0.2
	l0.2-0.3l1.3,0.6l0.6,0.1l0.1-0.9l-0.1-0.3l-0.1-0.1l-0.5-0.8l0.1-0.1l0,0l0.3,0.1l0.2,0.2l0.2-0.2l0.1-0.8l0.3-0.8l-0.3-0.4
	l-0.3-0.1l-0.9-1.1l-1.1-0.6l0-0.2l-0.1-0.3l-0.1-0.4l-0.2-0.4l-0.5,0l-0.4-0.1l-0.4-0.8l-0.8-0.9l-1-0.7l-0.4-0.5l-0.8-0.7
	l-0.9-0.6l-0.4-0.2l-1.2-1.1l-0.4-0.5l-0.8-0.4l-0.6-0.1l-0.8,0.2l-0.5-0.2l-0.4-0.7l-0.2-0.7l-0.3-0.5l-0.8-1l-0.4-0.6l-0.3-0.6
	l-0.4-1.8l0.2-1.2l0-0.6L474,217l0.2-0.9l0.4-1.3l0-0.9l-0.2-0.4l-0.9-0.8l-0.3-0.4l-0.1-0.4l0.2-1.7l0.1-0.7l0.2-0.6l0.1-0.6
	l-0.1-1l-0.2-0.4l-0.7-0.6l-1-0.3l-0.4,0l-0.5,0.2l-0.5-0.2l-0.5,0l-0.3,0.2l-0.6,0l-0.7-0.3l-0.6-0.4l-0.4-0.4l-0.2-0.5l-0.2-1.1
	l0.1-1.3l-0.1-0.5l0.4-0.5l-0.1-0.8l0-0.9l-0.2-0.2l-0.2-0.4l0-0.6l0.1-0.4l0.2-0.6l1.2-1.4l0.3-0.6l0.1-0.5l0-0.5l-0.3-1.2
	l-0.7-1.6l0.3-0.3l0.3-0.3l0.3-0.4l0.7-0.4l0.4-0.1l0.7-0.1l0.1-0.2l2.6-1.6l0.4,0.2l0.6,0.2l0.4,0l0.3-0.1l0.6-0.4l0.1,0l0.1,0
	l0.4,0.1l0.8,0.9l1,0.2l0.2,0.3l0.1,0.6l0.2,0.4l0.3,0.3l0.5,0.7l0,0.1l0,0.3l0,0.1l0.2,0.3l0.7,0.3l1.4,1.1l0.3,0.3l0.5,0.8
	l1.1,0.4l1.1,0.9l0.4,0.4l0.2,0.5l0.5,0.8l0.2,0.8l0.6,0.3l0.4,0.5l0.5-0.1l0.1,0.1l0.1,0.2l0,0.4l0.1,0.4l-0.1,0.2l-0.1,0.3l0,0.2
	l0,0.3l0.2,0.5l0.6,1.1l0.3,0.5l0.2,0.7l0.9,0.7l0.3,0.3l0.3,0.1l0.1,0.2l0.1,0.2l0.1,0.2l0.5,0.3l0.2,0.4l0,0.3l0,0.3l0.7,0.4
	l0.2,0l0.3,0.5l-0.3,0.2l-0.2,0.6l-0.1,1l1.7,1.4l0.3-0.3l0.1-0.1l0.3-0.1l0.3,0.1l0.2,0.5l-0.1,0.4l-0.2,0.5l-0.6,0.8l0,0.2l0,0.3
	l0.2,0.4l0.3,0.4l0.1,0.4l-0.1,0.4l0,0.4l0,0.3l0.1,0.4l0.2,0.8l0.7,1.2l0.6,1.7l0.1,0.6l0.1,1.2l-0.1,0.3l0.5,0.5l0.1,0.7l0.3,0.7
	l0.2,0.2l0.2,0l0.1,0l0.2,0.4l0.5,1.4l0.3,0.5l0.3,0l0.2,0.1l0.1,0.2l0.1,0.2l0,0.4l-0.1,0.3l-0.2,0.3l-1.2,0.7l-1,0.7l-1.8,1.1
	l-0.1,1.4l0,1.2l0.2,2.3l0.8,0.7l0.7,0.1l0.7,0.1l1.9-0.1l0.5-0.1l0.3-0.1l1-1.3l0-0.5l0.6-0.4l0.1-0.5l-0.1-2.2l0-0.7l-0.1-0.6
	l0.1-0.6l0.4-0.3l0.4,0l0.4,0.1l0.4,0.5l1.5,0.2l0.2,0.4l0.1,0.5l0.3,1l0,0.4l-0.1,0.2l-0.3,0.2l-0.4,0l-0.6-0.2l0,0.1l0,0.2l0,0.2
	l0,0.3l0.3,1l0,0.5l-0.1,1.1l0.3,1.7l0,0.3l0,0.2l0,0.2l0,0.2l0.2,0.4l0.2,0.2l0.1,0.1l0,0.4l1.5,0l0.9-0.2l0.6,0l0.9-0.4l1.6-1.1
	l0.3-0.3l0.1-0.2l0.6-0.2l0.4-0.8l0.3-0.3l0.9-0.1l0.6,0l0,1l0.1,0.7l-0.2,0.9l-0.4,0.6l-1.4,1.6l-0.1,0.7l0.2,1.4l0,0.6l-0.1,0.7
	l-0.2,0.7l-0.2,0.3l0.7,1l0.9,2.3l0.2,0.7l-0.3,1.2l0,0l0,0.3l0,0.4l0.2,0.6l0.2,0.7l0.1,0.9l0.1,0.6l0.1,0.4l0,0.7l0.1,1l0.2,1.4
	l0.2,1.4l0.1,0.4l0,0.3l0,0.4l0.2,0.5l0.1,1.3l0.6,0.4l0.2,0.5l0.2,2l0.4,3.2l0.1,1.6l0.1,1.1l0.6,2.3l1.6,2.8l0.4,0.4l0.6,0.2
	l0.8,0.1l0.4-0.1l0.4-0.1l0.2-0.1l0.4-0.1l0.2-0.4l0.2-0.5l0.6-0.9l0.2-0.8l0.7-0.6l0.9-0.6l1-0.6l3-2.5l1.3,0.4l0.6,0l0.3,0.1
	l0.4,0.1l1.7,1.5l0.5,0.4l0.6,0.3l2,1.5l0.7,0.2l2.7,0.1l1.3-0.3h0.8l0.7,0.1l0.7,0l1,0.1l0.3,0.1l0.5,0.2l0.5,0.3l0.8,0.2l0.1-0.3
	l0.7-0.2l0.7,0.3l0.5,0.1l0.4-0.6v-0.7l0.4-0.4l0.5-0.1l0.6,0.6l0.3,0.1l1.7-1l0.6,0l0.3,0.2l0.2,0.5l0.2,0.8l0.3,0.5l0.2,0.2l0.4,0
	l0.8-0.4l1.2,0l1.1-0.4l2.2-0.6l0.8-1l0.3-0.2l0.5,0.1l1.5,0.9l0.5,0.4l0.9,0l0.3-0.7l0.7-0.2l0.6-0.6l0.4-0.6l0.5-0.3l0.3-0.8l0-1
	l0.2-0.6l0.3-0.6l0.3-0.5l0.5-0.4l0.4-0.2l0.8,0.1l0.4-0.2l0.4-0.6l0.8,1l0.1,0.6l0.3,0.9l1.8-1.4l2.5-2l0.4,0.8l0.4,0.7l1,0.8
	l0.5,0.9l0.4,1l0.1,0.9l-0.5,0.5l-0.4,0.8l-1.4,0.2l-0.9,1.2l-1.1-0.3l-0.7,0.2l-0.5,0.4L572,274l-0.4,0.6l-0.4,1.6l-0.5,0.9
	l-0.5,0.5l-0.8,0.4l-1.7,0.2l-0.9,0l-1.5,0.3l-0.4,0.4l-0.4,1.2l-0.3,0.3l-2.1,1.4l-0.4,0.5l-0.3,0.8l-0.1,0.7l-0.1,0.9v1.6
	l-0.2,0.5l-0.6,0.6l-0.5,1.1l-0.6,1.6l-0.1,0.6l-0.8,1.6l-1.2,1.2l-0.5,0.9l-0.2,0.7v0.5l-0.1,0.3l-0.4,0.6l0.8,0.7l0.7,0.8l0.2,0.3
	l0,0.3l-0.3,0.5l-0.5,0.8l-0.4,0.8l-0.6,1l-0.1,0.8l-0.1,2.2l0.1,0.9l-0.1,1.2l-0.3,1.4l0,1.1l0.2,0.6l0,0.7l-0.2,0.5l-0.9,1.7
	l-0.8,1.3l-1.2,1.5l-0.5,0.7l-0.4,0.8l-0.4,0.9l-0.6,0.7l-1.1,0.3l-0.1,0.6l-0.2,0.5l-0.7,0l-1.7,0.6l-0.5-0.1l-0.5-0.1l-0.6-0.3
	l-1.1-0.9l-0.5-0.8l0-1l-0.4-0.5l-0.5-0.2l-0.4,0.1l-0.2,0.2l-0.9,1.5l-0.8,1.6l-0.2,0.8l-0.8,1.5l-0.6,0.8l-1.2,1l-0.4-0.2
	l-0.4-0.1l-1.8,0l-1.2,0.1l-2.2-0.6l-0.7,0.5l-0.3,0.8l-0.5,0.9l-0.1,0.9l0,3.1l0.3,0.6l0.5,0.6l-1,1.3l-0.4,1l-1.3,0.1l-2.1,0.7
	l-2.6,1.1l-1.8,1l-0.7-0.6l-0.6-0.4l-0.2,1l-0.3,0.5l-0.4,0.3l-0.3,0.5l-0.4,0.6l-1.6,0.2l-0.6,0.2l-0.5,0.2l-0.5,0l-1.5-0.5
	l-0.8-0.4l-0.6-0.5l-0.7-0.7l-0.7-0.5l-0.8-0.1l-0.5,0.1L509,337l0.2,0.9l-0.1,0.9l0.1,0.6l0.4,0.4l0.1,0.4l-0.1,0.9l-0.1,0.8
	l0.1,0.8l-0.3,0.4l-0.4,0.1l-0.6,0l-0.6,0l-1-0.4l-0.5-0.1l-0.3,2.3l-0.3,0.7l-0.7,0.7l0.7,1.6l-0.1,1.1l0,0.4l-0.5,1.4l0.2,1.8
	l-0.3,0.7l-0.3,0.4l-0.5,0.8l-1,0.7l-0.2-0.7l-0.5-0.6l-1.6-0.5l-0.8,0l-0.6-0.5l-0.4-0.1l-1.1-0.2l-1.5-0.5l-1.6-1l-1-0.1l-1.4-0.3
	l-0.9,0l-0.2,0.5l-0.5,0.3l-0.6,0.1l-0.6,0.3l-0.9,0.2l-0.8,0l-0.5-0.4l0.3-0.7v-0.7l0.5-0.5l0.9-0.7l0.1-0.4l-0.8-0.7l-0.8-0.3
	l-0.9-0.5l0.4-0.9l-0.5-0.2l-0.6-0.4l-0.3-0.1l-0.7,0.1l-0.7-0.4l-1.2-1.2l-0.5-0.5l-1-0.3l-0.9,1.5l-0.6,0.3l-0.5,0.1l-0.5,0.6
	l-0.8,0.6l-0.6,0.2l-1.2-0.2l0,0.7l-0.3,0.9l-0.3,0.5l-0.2,0.5L476,351l0,1.2l-0.2,0.6l-0.5,0.8l-0.3,0.5l-0.6,0.1l-0.9,0l-0.5,2.1
	l-1.1-0.5l-1-0.3l-0.2-0.4l-0.3-1.4l-1.1-1.3l-0.1-0.6l0.1-0.6l-0.2-0.9L469,350l-0.2,0l-0.2,0.2l-0.9,1l-0.4,0.3l-0.6,0.7l0.1,0.4
	l0.3,0.5l0.5,1.4l-0.1,0.6l0.1,0.5l0.5,0.4l0.4,0.6l-0.1,0.7l-0.1,0.5l-0.4,0.3l-0.8,0.4v0.3l0,0.6l-0.2,0.4l-0.7,0.9l-0.2,0.4
	l0.2,0l1.6,0.8l1.3,0.6l1.1,0.3l2.4,1l0.8,0.7l0.8,0.8l0.5,0.4l0.6,0.6l0.8,0.4l-0.2-1l0.1-1l0.3-1.2l1.4,0.6l0.9,0.6l0.9-1.4l3,2.4
	L483.8,365.7z"/>
<path id="Mahabubnagar" class="st0" d="M328.9,408.5l0.3,0.4l1.1-0.7l0.4,0.1l0.9-1l0.9,0.7l0.4,0.1l0.7-0.2l0.4-0.6l0.3-0.5l0.9,0.3
	l1.9-0.3l2.5,0.2l0.7,0l0.6,0.2l0.5,0.3l0.5,0.6l1.2,1l0.8-0.1l1.6-1.6l0.8-1l0.7-0.6l0.9-0.3l0.5,0.1l0.7,0.6l0.2,0.1l1.1-0.5
	l1.5-0.3h0.5l0.9,1.5l0.3,1.3l0.3,0.7l2.4,1.8l1.4,0.7l1.5-0.1l1.3,0.6l4.1,3.1l2.3,2.2l1.5,1.7l2.8,1.9l2.9,2.5l2.2,1.3l0.9,1.3
	l0.4,1.4l0.2,3.8l-0.4,5.2l-0.5,1.1l-0.9,0.9l-1.2,0.8l-1.2,0.6l-1.1-0.3l-0.9-0.5l-0.7-0.5l-0.7-0.7l-0.8-0.2l-4.3,0l-1.1-0.5
	L363,437l-0.9-0.1l-0.9,0.1l-0.8,0.4l-1.4,1.3l-1.1,0.5l-1.5,0.6l-1.4,0.8l-1.2,0.8l-1.4,1.2l-0.2,1l0,1.8l1.2,3.3l0.1,1.2l-0.4,0.9
	l-0.3,0.5l-0.2,0.4l-0.7,0.8l-1-0.1l-1.3-1.2l-0.2-1.2l-0.1-1.4l-0.1-0.9l-0.3-1l-0.5-0.6l-0.8-0.1l-0.7,0.3l-0.4,0.5l-0.1,1l0.1,1
	l0.2,1.3l0.3,1l0.2,0.8l-0.1,0.9l-0.2,0.7l-1.2,2.6l-0.6,1l-0.5,0.6l-1.4,1.4l-1.2,0.9l-1.6,0.3l-1.2,0l-1-0.2l-1-0.4l-2.1-1.4
	l-0.9-0.9l-0.5-0.7l-0.8-1.6l-0.9-1.2l-0.8-0.9l-1.5-0.8l-1.1,0.3l-0.9,1l-1.3,1.8l-0.7,0.9l-0.6,0.6l-1,0l-1.1-0.6l-0.9-0.3l-2-0.8
	l-3.5-0.8l-2.4-0.2l-1.2,0.2l-1.7,1l-1.1,1.2l-1.3,0.6l-1,0.2l-0.7,0.6l-0.6,1l-0.6,0.9l-1.9,0.1l-0.9-0.4l-1-0.3l-0.9,0.4l-0.4,0.6
	l0.6,2.2l0.1,1.1l-0.5,1.7l-0.1,0.8l-0.2,0.3l-0.1,0.9l-0.3,1.4l-0.1,1L300,470l-0.8,0.6l-1.8,0.7l-0.7,0.5l-1.3,1.2l-0.1,0.6
	l0.2,0.8l-0.2,0.8l-0.4,0.8l-0.2,0.6l-0.2,1.4l-0.3,0.4h-1.1l-0.2-0.1l-0.8,0l-0.9,0.1l0.1,1.5l-0.6,0.5l-0.8,0.3l-0.7-0.1l-2.9-1.7
	l-0.4-0.6l-0.8-2.1l-0.6-0.1l-0.1-2.7l-0.3-0.4l-0.6-0.1l-0.4,0.4l-0.6,0.4l-0.2,0.7l-0.6,1.8l-0.4,1.3l-0.7-0.2l-1.6-1.4l-0.8-0.2
	l-1.5,0.1l-1.2-0.2l-1.6-0.9l-1.6-1.1l-0.9,0l-0.7,0.4l-0.9,1.7l-0.4,0.2l-0.8,0l-0.5-0.2l-0.7,0.2l-0.6,0.4l-0.7,0.3l-0.8,0.2
	l-0.7-0.1l-0.8-0.3l-0.7-0.4l-0.8-0.4l-0.8,0.1l-0.9-0.3l-0.5-0.4l-0.6-0.3l-0.7-0.2l-0.7,0.3l-0.6,0.4l-0.5,0.5l-0.7,0.1l-1.9-0.3
	l-0.8-0.2l-0.7-0.4l-0.6-0.9l-0.5-0.8l-0.5-0.5l-0.4-0.4l-0.6-0.4l-0.6,0.3l-0.8,0.2l-0.7-0.3l-0.7-0.2l-1.8-0.1l-1.3-0.2l-1.7-0.5
	l0.4-2.4l0.1-1.5l-0.1-0.6l-0.5-0.4l-0.3-0.6l0-0.6l0.2-1.8l0.1-0.7l-0.7-0.3l-0.1-0.6l-0.1-0.3l0-0.3l-0.5-0.9l-0.1-0.5l0.4-1.8
	l-0.1-0.2l0.1-0.5l0.3,0.1l0.3-2l-0.8-0.7l0-0.4l0.4-1.4l0.4-0.5l0.5-0.2l-0.5-0.6l-0.6-0.5l-0.4-0.2l-0.3,0l0.1-1.1l0-2.2l-0.1-0.6
	l-0.2-0.6l0.4-2.1l0.5-0.9v-0.9l-0.1-1.1l0.1-0.7l0.6-0.3l0.5,0.1l0.2-0.2l0-0.6l-0.7-0.1l-0.7,0.2l-0.4-0.1l0-1.8l-0.1-0.8l0.9-0.8
	l0.1-0.3l0.1-0.8l0.9-0.3l0.5,0l0.4,0.1l0.1,0.3l0.6,0.5l0.5-2.1l0.3-0.5l0.5-0.4l1.2-0.7l0.3,0.3l0.4,0.6l0.5,0.3l0.8-0.1l0.2-0.3
	l-0.3-0.6l0.2-0.9l0-0.8l-0.3-0.9l-0.2-0.8l0.6-1l-0.4,0l-1.1,0.2l-1.4-0.6l-0.4-0.3l-0.4-0.5l-0.7-0.3l-0.5-0.6l-0.8-1.2l-0.7,0
	l-1.2-0.6l-1-0.2l-1.6,0.2l-1,0l-0.9,0.1l-0.2,0.2l-0.6,0.8l-0.4,0.2l-0.8,0l-0.8-0.4l-1-0.6l-1.2-0.9l-1.6,0.4l-0.8-0.3L229,422
	l-2-0.6l-1-0.6l-0.8-0.4l-0.5-0.8l-0.3-0.7l-0.4-0.6l-0.4-0.7l-0.5-1.8l-0.4-0.6l-1.4-1.5l0.3-0.5l0.4,0.1l0.5,0.5l2.7-0.4l0.5-0.2
	l0.3-0.8l0.1-0.5l0-0.6l1,0.2l0.4,0.2l0.8,0.7l0.4,0l1.1-0.1v-0.3l0.3-0.1l0.3,0.2l0.5,0l0.6-0.1l0.1-0.3l0-0.7l0.1-0.9l0.3-0.4
	l0.5-0.5l0.2-0.1l0.6-0.1l0.4-0.3l0.6-0.1l0.9,0.2l0.3-0.4l0-2.7l-1.1-0.3l-0.1-0.4l-0.3-0.3l0-0.3l-0.1-0.3l-0.2-0.1l-0.2,0
	l0.1-0.6l0.5,0.2l0.4-0.3l1.2,0.2l0.3-0.1l1.2-1.7l0.5-0.1l1,0.1l0.3-0.3l0.3-0.1v-0.3l-0.2-0.4l-0.2-0.1l0.1-0.4l0.3,0l0-0.2
	l-0.1-0.8l-0.8-0.3v-0.7l0.1-0.7l0.4-0.5l0.1-0.5l0.3-0.7l0.4-0.8l-0.2-0.4l-0.6-0.2l-0.5,0.4l-0.5,0.6l-0.3,0.3l-0.5,0l-0.4-0.1
	l0.3-0.5l-0.3-0.1l-0.2-0.2l-0.2-0.5l-0.5-0.2l-0.3-0.3l0-0.8l1.6-0.4l0.7-0.8l1.2,0.2l0.3-0.6l0.2-1.9l0-0.6l0.1-0.7l-0.2-0.3
	l-0.4-0.1l-0.4,0.3l-0.6-0.3l-0.2,0l-0.6,0.6l-0.3-0.2l-0.2-0.3l-0.4,0l-0.2-0.3l0.1-0.3l0.2-0.1l0.1-0.3l-0.1-0.2l-0.1-0.5l0.2-0.2
	l0.3-0.7l0.3-1.4l0.1-1.4l-0.1-1.5l0.2-0.6l0.6,0.3l1.8,0.4l0.3-0.3l0-0.6l0-1.2l-0.5-0.5l-0.2-0.4l-0.3-1.4l-0.2-0.6l0.3-2.1l0-1.1
	l-0.2-2.6l-0.4-0.2l0.2-0.5l0.1-1.9l-0.2-0.2l0-0.3l0.5-0.4l0.4-0.1l0.2-0.3l0-0.7l-0.3-0.1l-0.1-0.4l0.2-0.6l-0.1-0.5l0-0.7l0-0.7
	l0.4-0.1l0.4-0.6l0.4-0.9l0.1-0.8l-0.1-1.6l0.3-0.7l0.1-0.2l0.8-0.7l0.5-0.2l-0.1-0.8l-0.5-0.7l0.1-1.2l-0.1-0.6l-0.4-0.6l-0.3-0.9
	l-0.4-0.8l-0.2-0.9l0.2-0.2l-0.1-0.4l-0.7-0.5l-0.4-0.6l-0.3-0.6l0.2-1.2l0.2-0.5l0.4-0.5l0.6-0.3l0.3-1.5l-0.4-0.4l-0.3-0.5
	l0.3-0.7l-0.1-2.6l0.7-0.2l0.8,0.2l0.6,0.4l0.5-0.2l1.3,0.6l0.7,0.2l0.5,0.9l0.2,1.4l0.4,0.5l0.6,0.3l0.7,0.5l0.9,0.3l0.4-0.9
	l0.3-1.2l0.6,0l0.1-0.1l0.4,0.2l0.3,0l0.4-0.1l0.1-0.3l0.3-0.1l0.4,0.1l-0.2-0.4l-0.3-1l2.1-0.7l0.4-0.8l1.3-0.1l0.3,0.2l0.1-0.1
	l0.6,0.2l0.4,0.5l1-0.1l0.5,0.2l0.1-0.3l-0.5-0.4l-0.1-0.4l0.2-0.7l-0.3-0.7l0.6-0.6l0.5,0.3l0.4-0.2l0.4,0l-0.1-0.6l0.7,0.2
	l0.2,0.3l-0.2,1l0,0.6l0.5,0.5l0.5,0.2l-0.3-2.3l-0.2-0.7l0-1.3l0.3-0.9l0.8,0.3l0.5-0.1l0.1,0.7l0.4,0l0.1-0.4l0.8-0.2l0-0.4
	l0.3-0.1l-0.1-0.4l0.4,0.2l1,0.4l-0.2,0.6l-0.1,0.7l-0.9,0.6l-0.2,0.3l-0.3,0.1l-0.4,0.6l0.1,0.6l0.4,0.2l0.3,0.8l0.2,1l0.3,0.1
	l0.4,0.3l0.1,0.8l-0.1,0.8l0,0.5L263,345l0.3,0.3l0.2,0.6l-0.1,0.4l0.2,0.3l0,0.3l-0.8,0.4l-0.6,1.8l0.2,0.8l-0.2,0.8l-0.5,1.3
	l0.3,0.3l0.7-0.2l0.6,0.2l0.3,1.1l0.7,0.6l-0.4,1.5l-0.4,1.1l-0.8-0.1l-0.4,0.9l0.1,0.8l-0.1,0.3l-0.1,0.7l-0.3,0.6l0.3,0.6l0.1,0.5
	l-0.3,0.8l-0.7,1.5l-0.5,0.7l-0.9,0.6l0,0.3l0.7,0.2l0.1,1.5l0.3,1.1l-0.2,1.3l0,0.8l-0.1,0.5l-0.1,0.8l1.6,0.9l0.4,0l0.5-0.4
	l0.3-0.2l0.7,0.1l1,0.4l0.7-1l0.4-0.5l0.4,0l0.6,0.6l0,0.6l0,1.4l0.5,0.4l1.1,0.5l0.1-0.2l0.2-0.1l0.4,0.3l0.7,0.3l0.4-0.6l0.3-0.2
	l0.1,0.3l-0.2,0.4l0,0.3l0.5-0.1l0.3-0.2l2.6-0.6l0.4,0.2l-0.1,0.6l0.3,0.3l0.5,0.3l0.4-0.1l0.6-1.4l0.3-0.3l1.1-0.3l0.6,1.2
	l0.3,0.5l0.3,0.2l0.4,0l0.5-0.5l0.3-0.6l0.2-1.4l-0.5-0.5l-0.2,0.6l-0.3,0.3l-0.8,0.1l-0.1-0.3l0.3-0.8l-0.1-0.9l0.5-0.1l0.6-0.6
	l1.2-0.2l0.9-0.3l0.3-0.5l0-0.6l0.2-0.3l-0.1-0.6l-0.2-0.7l-0.3-0.8l0.4-0.9l0-0.7l-1.1-0.2l-0.6-0.4l-0.3-0.4l0.8-1.4l0.1-0.3
	l0.2-0.2l-0.2-0.1l-0.1-0.1l-0.2-0.3l0-0.7l-0.9-1.1l-0.1-0.1l-0.4-0.2l0.1-0.6l-0.4-0.1l-0.4-0.3l-0.5,0.1l-0.9-0.5l0-0.4l-0.4,0
	l-0.5-0.4l-0.3-0.5l-0.3-1l0-0.9l-0.6-0.6l-0.2-1.2l0.5-0.5l0.8-0.5l0.3-0.4l0.6,0.1l-0.2-0.6l-0.7,0l-0.3-0.3l0.1-0.3l0.5,0
	l0.3-0.3l0.7-0.2l0.2-0.8h0.7l0.6-0.2l0.4,0.1l0.6-0.5l0.4,0l0.1-0.8l0.2-0.6l0-0.5l-0.1-0.2l0-0.4l0.6-0.4l0.7-0.9l0.5-0.9l0.7-2
	l0.3-0.6l1.2-0.5l0.6-1l0.4-1l1-0.3l0.8,0.1l0.6,0.2l0.2,0.8l-0.1,1.2l0.6,0.5l0.3,2.1l-0.9,1.7l-0.1,1l0.4,1l0.9,1.5l1.2-0.8
	l1.1-0.3l0.9,0.3l1.6,0.8l1.5,0.2l0.1-0.4l0.1-1l-0.4-2l0.9-0.7l0.1-0.6l-0.5-0.3l-0.7-0.2l-0.5-0.5l-0.1-0.7l0.2-0.9l1.3-0.7
	l0.6-0.2l1.2-0.6l0.5-0.8l0.2-1l0.3-0.4l1.3,0l0.8,0.2l0.7-0.2l0.3-1l0.4-1l0.9-0.3l0.9,0.4l0.4,1.2l0.2,1.7l0.5,1.3l0.2,1.1l0,1.1
	l-0.1,1.3l0.2,0.4l0.8,0.7l0.7,0.8l0.9,1.2l0.4,1.3l0.5,0.8l0.1,0.9l0.6,0.2l0.4,0.5l-0.6,0.5l-0.7-0.3l0,0.9l1.2,0.6l0.4,0.8
	l0.7,1.8l0.6,1l1,0.7l0.9,0.5l1,0.6l1.3,1.1l0.8,0.8l0,0.7l0.4,0.3l0.2,0.9l0.4,0l0.6-0.3l0.4-0.3l0.4-0.4l0.2-0.8l0.3-0.5l0.4-0.4
	l0.6-0.4l0.5,0l0.4,0.2l0.1,0.3l0,0.5l-0.1,0.4l0.4,0.8l0.7,0.5l1.4,0.3l1,0.4l0.5,1.4l0.5,0.7l0.9,0.9l1.4-0.3l0.9-0.4l0.6,0
	l2.1,0.4l0.5,0.4l0.5,0.6l1.1,0.8l0.9,0.8l1.1-0.2l1.3,0.7l1.2,0.7l1.3,1.1l-0.7,1l-0.8,1.9l-0.2,1.1l0.6,1.2l1.2,0.6l0.8-1.2
	l0.7-0.9l0.6-0.6l0.5,1.3l0,1l-0.5,1.5l0.5,0.6l0.7,1.2l0.8,0.3l-0.1,0.9l-0.6,0.9l0.1,1.4l0,1.3l-0.3,2l-0.3,0.8l-0.5,0.6l-0.4,0.2
	l-1.1,0l-0.3,0.7l0.4,1.1l-0.5,2.1l-0.7,0.3l-0.6,0.4l-1,1.3l-0.7,0.7l-0.5,1.2l0.4,2.2l-1.2,0l-0.9,0.1l-0.8-0.1l-0.5,0.1l0.3,1
	l0.6,1.6l0.8,0.4l1.2,2.4l0.6,1.6l-0.7,1.2l-0.6,0.7l-0.6,0.2l-0.8,0.8l-0.4-0.2l-0.1-0.8l-0.4-0.6l-0.2,0.6l-0.2,1l-0.2,1.3
	l-0.8-0.5l-1.4-0.3l-0.2,1.3l-0.1,0.3l-0.6,0.2l-0.4,0.3l-0.4,0.2L328.9,408.5z"/>
<path id="Medak" class="st0" d="M285.2,310.4l-0.7-0.1l-0.7-0.4l-0.6-0.7l-0.6-0.4l-0.5-0.6l-0.5-0.7l-0.5-0.8l-0.3-0.4l-0.3-0.7
	l-0.7,2.2l-0.6,0.2l-0.8,0l0.2-1.1l-0.1-1.1l0.7-1.5l-0.9-1.7l-0.7-0.2l-0.5,0l-0.7-0.2l0.1-1.4l-0.3-0.6l-0.2-0.8l-0.9-0.9
	l-0.7-0.1l-1-0.4l-2.1-0.2l-0.2-0.6l-0.1-0.7l0.2-0.4l0.1-0.4l-0.1-0.4l-0.5-0.7l-0.1-1l-0.4-0.2l-0.2-0.7l-0.2-1.6l-2.2-0.3
	l-0.2,1.1l-0.7,1l-1.1-0.1l-0.3,0.2l-0.8-1.3l-0.3-0.2l-0.3,1.1l-0.2,0.2l-0.7,0l-1.3,0.3l-0.4-0.2l-0.1,0.7l0.3,0l0,0.6l0.7-0.3
	l0.3,0.2l0.4,0l0.5,1.1l-0.2,1.6l-0.4,0.2l-0.3,0.4l-0.2,0.8l0.1,1.5l-1.4,1l-2.8,2.3l-0.5-0.1l-0.8,0.2l-0.3,0.8l0.2,1.2l-0.2,0.2
	l-0.1-0.3l-0.2,0.2l-1-0.5l-0.4-0.5l-0.4-0.7l-0.5,0l-0.4,0.2l-0.9-0.4l-0.9,0.1l-0.4-0.7l-0.7-0.2l-0.4,0l-0.3-0.3l-0.6,0.1
	l0.1-1.7l0-0.6l-0.2-0.8l-0.3,0.1v0.4l-1.9,0.5l-0.4,0.1l-0.3,0.2l-0.3,0.1l-0.3-0.5l-0.6-1.7l-0.4-0.2l-0.4,0l-1.1,1.7l-0.3,0.8
	l-0.6,0.9l-0.4-0.3l-0.1-0.3v-0.4l-0.4-1.7l-1.2,0.1l-0.1-0.4l-0.2,0.1l-0.3-0.7l-0.3-0.2l-1.7-0.5l0.2-1.5l-0.1-0.9l0.1-0.3
	l0.4-0.1l0-0.5l0.2-1.1l0.4-0.8l-0.2-0.2l-0.3-1.5l-0.2-0.1l0-0.9l0.3-0.9l0.1-1.5l0-0.7l-0.1-0.4l0.3-0.3l0.2-0.5l1.1-0.5l0.2,0.3
	l0.3-0.2l0.2-0.4l0.3,0.3l0.4-0.3l0.2-0.6l0.2-0.3l0.9,0.1l0.3-0.6l1-0.4l0.4-0.3l0.5,0.2l0.4,0l0.4-0.8l0.6-0.1l0.2-0.7l0.6-0.6
	l0.3-1.8l-0.9,0.3l-1.4-1l-0.2-0.4l-0.5-0.2l-0.4-0.3l-1.1,0l-0.4-0.3l0.2-1.1l0.3-0.9l0.6-0.6l0.6-0.4l0-1.6l1.4,0.1l0.1,1l0.4-0.1
	l0.4-1.3l0.4-0.8l0.3-0.4l-0.1-0.8l0.3,0l0.1-1.7l0.4-0.7l0.4,0.2l0.3-0.5l0.9,0.6l0.3-0.1l0.1-0.7l-0.4-0.2l-0.6-1.4l-0.2-0.6
	l0.2-1l1.1,0.5l0.4-0.2l0.9,0.3l0.2-1.1l0-0.9l0.1-0.9l-0.2-0.8l0.2-0.7l0.3,0.1l0.4-0.5l0-0.6l-0.4-0.4l0.5-0.5l0.2,1l0.3,0.3
	l0.4,0.1l0.3,0.3l0.3-0.7l-0.4-0.4l0.1-0.6l0.6-0.2l0.1-0.5l-0.5-0.1l-0.3-0.3l0.4-0.5l0.1-0.8l-0.2-0.2l-0.1-0.6l-0.3-0.3l-0.3-0.1
	l-0.4,0.2l-0.3,0.3l-0.6-0.6l0.2-0.3l-0.1-0.4l-0.5-0.2l-0.4-0.5l-0.3-0.8l-0.6,0.2l-0.6,0.6l-0.4-0.3l-0.2-1.2l-0.8-0.6l-1.3-0.5
	l-0.4,0.1l-0.1-1.3l-0.3-0.1l-0.2-0.6l0.1-1l0.7,0.1l0.3-0.9l0.5-0.5l0.8-0.1l1-0.4l0.6-0.4l0.2-1.6l-0.3-2.3l-0.2-0.7l0.3-2.5
	l-0.7-0.2l-0.8-0.9l-0.1-0.6l-0.4-1.1l-0.2-1.1l-0.4-0.1v-1.1l0.8,0.1l0.8-1.8l-0.3-0.6l-0.3-1.1l-0.3-0.8l0.7-1.7l0.8-0.6l0.6-1.2
	l1.4-0.1l0.7-1l1.4-0.1l1.6,0.3l1.7,1.7l0,0.5l1.4,0.1l0.3,0.2l0.9-0.2l0.4,0.6l0.2,1.2l-0.1,0.8l0.6,0l0.1,1l0.3,0l0.1,1.6
	l-0.1,0.5l0.3-0.1l0.9,0l0.1,0.4l0.9,1.3l0.4-0.2l0-0.3l0.3-0.5l0.4,0.2l0.7-0.6l0.8,0.1l0.5,0.6l1.4,0.3l0.2-0.5l0.8-0.3l0.6,0.2
	l0.5-0.5l0.9,0.4l-0.2,0.5l0,0.6l0.5,0.2l0.9,0.2l1.8-0.5l-0.2,1.1l0,1.1l0.2,0.4l-0.7,0.9l0.3,0.4l0.4,0.2l-0.1,0.7l0.2,0.2
	l0.4-0.3l0.3,0.4l0.2-0.1l0-0.3l0.3,0.1l0.4-0.2l-0.3-0.4l0.6-0.5l0.6,0.5l-0.4,0.5l0.1,0.5l-0.1,0.1l-0.5-0.1l-0.2,0.6l0.3,0.3
	l0.1,0.3l-0.6,0.6l-0.4-0.1l-0.2,0.2l0.6,0.8l0.9-0.2l-0.2,1.2l-0.4,0.1l-0.3-0.2l-0.2,0.4l-0.4,0.1l-0.4-0.4l0.1,0.7l-0.4,0.1
	l-0.3,0.3l-0.1,0.3v0.2l1.2-0.8l1.2-0.1l0.6-0.8l0.4-0.6l0.9-0.2l1.1,0.2l0.9,0l1.7,0l0.3-0.1l0.5,0.2l0.5,1.2l0.5,0.3l1.5,0l1,0.6
	l0.7,0.3l1,0.6l0.2,0.3l1,0l0.1,0.2l0.1,0l0,0l0.2-0.3l0.3-1.3l0.6-0.6l0.4,0l0.3,1.9l0.5,0.3l1.4,0l0.4-0.3l0.4-0.4l0.2-0.4
	l0.3-0.2l0-0.1l0.2-0.4l0.3-0.3l0.4-0.5l0.3-0.5l0.3-0.8v-1.4l-0.3-2.6l-0.1-1.8l0.1-1l0.3-1.1l0.6-1.5l0.8-1.1l0.7-0.5l0.8,0.1
	l0.3,1.6l0.5,1.6l-0.4,1l0.6,0.3l0.5,0.4l0.7,0.8l0.7,0.5l1,1.3l0.9,0.3l0.8-0.5l1.1-1.7l1-1.1l0.4-0.8l0.2-0.9l0.4-0.8l0.3,0.1
	l1.1,1.2l1.5,1.8l0.7,1.3l0,0.9l0.5,0.3l0.8,1.9l0.4,0.6l0.5-0.7l0.7,0.1l0.9-0.3l0.8-1l0.2-0.8l0.1-0.9l1.1-0.9l0.3,1.1l0.2,1.2
	l0.3,0.7l0.4,0.6l0.5,0.3l0.7,0.1l1.1-0.2l0.4-0.2l0.6-0.7l-0.7-1l0.1-0.9l0.5-0.8l0.7-0.7l0.6-0.3l0.5-0.1l0.5-0.6l0.9-0.3l0.8,0.2
	l0.6,0l0.6-0.2l0.6-0.4l-0.1-1.4l0.1-2l-0.1-0.9l0.7,0.5l0.5-0.7l0.8-1.6l0.7-0.3l2.2-0.1l1.5,0.1l1,0.2l1,0.5l0.8,0.5l0.5,0.6
	l0.4,0.3l0.9-0.3l0.7,0l0.7,0.1l0.3,1.5l1.1,0l1-1.1l0.9-2.3l0.3-1l0.5-0.5l1,0.5l0.9,0.2l1.6,0l0.6,0.3l0.2,0.2l1,0.5l2.2,0.4
	l1.6,0.6l0.4-0.8l0.4-0.4l0.6-0.3l1.1-0.3l0.9-0.1l1.4,0.3l0.3,0.2l-0.3,2.2l0,0.9l0.3,0.7l1.2,0.4l0.9,0.3l0.7,0.3l0.7,0.3l0.5,0.7
	l0.4,1.1l-0.2,0.6l0.2,0.7l0,0.9l-0.1,0.9l-0.3,1.5l0.5,0.6l0.7,0.3l0.9,0.8l-0.1,1.8l-0.3,1.3l0.7,0.5l1.5,0.8l0.6,0.2l0.8,0
	l1.8,0.3l1.2-0.2l0.5,0l0.7,0.2l-0.4,0.6l-0.5,0.4l-0.3,0.4l-0.5,1l-0.1,0.4l0.6,1.4l0,0.6l-0.4,0.8l-0.8-0.2l-0.3,0.1l-0.4,0.2l0,0
	l-0.8,0.1l-0.7,0.5l-0.7-0.2l-0.6-0.7l-0.7-0.5l-0.5,0.3l-0.8,0.6l-2.5,2.5l-0.2,0.1l-0.7-1.1l-0.6-0.5l0.2-0.5l-0.4-0.4l-0.8-0.9
	l-0.3-0.3l-0.1,0.4l-0.5,0.6l-0.5,0.8v0.7l0.2,0.4l-0.2,0.4l-0.2,0.4l-0.1,0.4l-0.7,0.2l-1-0.1l-0.8,1.1l-0.1,0.7l-0.8,1.7l-1.1-0.3
	l-1-0.1l-0.6,1.8l-0.7,1.2l-0.7,1.4l-0.3,1.6l-0.5,0.3l-0.2,0.8l-0.8,0.1l-0.3,1.5l0.2,0.5l0.9,0.3l2.4,0.5l0,1.5l0.3,2.5l-0.5,0.4
	l-0.1,0.7l0.1,0.9l-0.2,0.4l0,0.6l0,1.9l-0.3,1l-0.1,1.3l-0.2,0.8l-0.5,0.3l-0.6,0.2l-0.7,0.1l-0.7,0.3l-0.4,0.9l-0.2,0.7l-0.3,0.4
	l-0.2,0.8l0,0.9l-0.7-0.1l-0.5-0.5l-0.3,0.3l-0.4,0l-0.1,0.2l0.3,0.7l0.4,0.6l-1,1.2l-0.1,0.8l-0.3,0.1l-0.8-0.8l-0.8,0.1l-0.9,0.3
	l-0.5,0.9l-0.5,0.6l-0.8,0L336,287l-1.4-0.1l-0.2-0.8l-0.6-0.2l-0.9-0.1l-0.5,1.3l-0.3,0.6l-0.7,0.6l-0.7,0.4l-0.7,0l-0.8-0.2
	l-0.1-1.2l-0.4-0.6l-0.7-1.5l-1.3,0l-0.5,0.9l-0.4,0.5l-0.9,0l-0.7-0.2l-1.2-0.8l-0.7-0.3l-0.6,0.3l-0.4,1.2l-0.9,0.2l-0.5-0.5
	l-1-0.2l-0.8-0.5l-0.6-0.7l-0.7-0.6l-0.4-0.6l-0.9,1.3l-0.8-0.1l-0.1,1.4l-0.6,1.9l-1.4-0.3l-0.5,0l-0.7,0.8l-0.2,2.5l-0.2,0.9
	l-0.5,0.5l-1.2,0.5l0.1,0.6l0.7,0.8l0.4,0.7l-0.3,1.3l0,0.9l-0.6,0.9l0,0.8l-0.2,0.9l-0.3,0.3l-0.7,1.2l0.3,0.9l0.1,0.6l0,0.6
	l-0.8,1l-0.7,1l-0.7,0.4l-0.8,0.3l-0.5,0.6l-1.1,0.1l0.7,2.7l-0.2,1l-0.6,1l-0.5,1.3l-1.2-0.2l0,0.6l-0.2,0.7l-0.6,0.4l-0.6-0.4
	l-0.7-0.4l-0.8-0.1l-0.5-1.3H298l0-1.1l0.1-1.3l-0.4-2.5l-1-0.3l-1-0.1l0.4,1.1l-1.1,1l-1,0.8l-0.7-0.1l-1-0.9l0.2-0.9l-0.4-0.6
	l-0.7-0.1l-1.2,0.6l-0.6,0l-0.6-1l-1.4-0.5l-0.2-1.2l0-1.7l-0.9,0.3l-0.3,1.3l-0.6-0.1l0,0.7l0.5,0.6l0,0.8l-0.1,0.6l-0.7-0.1
	l-0.3,0.9l0.7,0.5L285.2,310.4z"/>
<path id="Nalgonda" class="st0" d="M335.8,365.6l-0.2-0.7l0.3-0.6l0.4-1.8l0.9-0.6l1-0.1l0.9,0.1l1,0.3l0-0.4l0.3-0.8l1.4,0l1,0.4
	l0.4-0.7l0.2-1.1l0.8-0.9l0.9-0.8l0.9-1.1l-0.1-0.7l-0.7-0.8l-1.3-0.5l-1.1-0.1l0.4-0.5l0.5-0.5l2.2,0.9l0.9-0.3l0.6-1l0-1.2
	l0.1-0.6l0.7-1.1l-0.4-0.8l-0.7-0.8l-1.3-1.2l0.1-0.8l1.2,0.3l0.1-0.8l-0.3-0.8l-0.5-0.2l-1.1-0.3l-0.8-0.4l-1-0.8l-0.7-1.1l-0.2-1
	l0.9-1.2l-0.3-1l0.1-1.1l-0.8-0.3l-0.2-1l-0.3-0.7l-0.5-0.7l1.2,0.4l2.3,0.6l1-2.9l-0.7-0.8l-0.9-0.5l-2.8-1l-0.6-0.6l-0.6-0.8
	l0.4-0.8l-0.4-0.8l-0.7-1l0.5-0.6l1.1-0.8l0.1-0.2l-0.2-0.4l-0.8-0.4l-0.8-0.8l0.5-0.6l0.9-0.6l0.4-0.4l0-0.8l-1.4-1.1l-0.9-0.1
	l0.2-1.1l0-0.8l0.3-0.8l0-0.7l-0.1-0.6l0.6-0.9l0.4-1l0.3-1.3l-0.1-1.7l-0.4-0.4l-0.6,0.6l-0.8,0.2l-1-0.3l-0.9,0.4l0.1-2.5l0.4-0.5
	l0.6-0.4l0-0.6l-0.5-0.4l-0.8-0.8l0.2-3.2l0-0.6l-0.5-1l-0.2-1.1l-0.4-1.6l-0.9-1.9l0.3-0.6l0.4-0.5l-0.4-0.5l-0.1-0.3l0.4-0.6
	l0.4-0.2l-0.2-1l0.3-1.3l0.6-1l0.3-1.7l0.5-1.6l0.8,0l0.5-0.6l0.5-0.9l0.9-0.3l0.8-0.1l0.8,0.8l0.3-0.1l0.1-0.8l1-1.2l-0.4-0.6
	l-0.3-0.7l0.1-0.2l0.4,0l0.3-0.3l0.5,0.5l0.7,0.1l0-0.9l0.2-0.8l0.3-0.4l0.2-0.7l0.4-0.9l0.7-0.3l0.7-0.1l0.6-0.2l0.5-0.3l0.2-0.8
	l0.1-1.3l0.3-1l0-1.9l0-0.6l0.2-0.4l1.5,0.5l0.9,0.2l0.7-0.1l0.3,0.2l1.5,0.4l0.2,0.7l1,0.2l2.3,0.2l0.9-0.1l0.4,0.7l0.5,2.3
	l0.9,2.8l0.3,1.4l0.7,1.1l1.2-0.9l1-0.5l0.7,0.5l1.1,0.6l0.4,1.1l0.4,1.3l0.9,1.1l0.7,0.5l0.7,0.4l0.7,0.3l0.2,1.7l0.9,2.4l0.8,0.5
	l0.2,0.5l-0.3,1.3l0,1.6l0.4,0.8l0.7,0.6l0.2-0.1l0.7-0.4l0.2-1l0.2-0.7l0.5-0.2l0.6-1.4l1.1-0.9l0.7,1.8l-0.5,0.6l0.1,1.1l0.5,0.7
	l0.4,0.8l0.3,1.4l0.7-0.1l1.2,0.5l0.4-0.1l0.2-0.9l0.4-0.8l0.3-0.3l0.5,0.2l0.4,0.7l0.3,1.1l0.3,0.4l0.4,0.2l0.6,0.1l0.6-0.1
	l0.4,0.6l0.2,0.7l0.2,1.4l0.6,0.4l2.6,0.8l1.1,0.8l0.9,0.6l1,0.4l0.5,0l1.4-1.6l0.6-0.1l1,0.3l1-0.2l0.9,0l0.9,0.3l0.5,0.4l0.5,0.9
	l1.1,0.5l1,0.1l0.4-1.8l0.5-0.7l0.6-0.5l1.4,1.8l0.3,0.5l0.8-0.1l1.3,0.6l0.6-0.5l1.4,0.6l1.4,0.4l0.8-0.4l0.8-0.7l0.4-0.2l0.1,0.5
	l0,1l-0.1,1.9l1.1,0.9l1.2,0.7l1,0.1l0.6,0.3l0.5,0.8l0.4,0.8l0.5,0.5l0.5,0.2l1.9-0.1l0.4,0.1l0.1,1.6l0.3,0.7l1.2,1.3l0.7,0.9
	l-1.1,0.6l-0.4,0.3l-0.1,0.4l0.2,0.8l1,1.6l0.3,0.9l0.4,2.3l0.1,0.2l0.3,0.8l1.4,2.7l0.4,0.6l0.5,0.5l1,0.1l1,0.3l2.2,0.4l0.9,0.5
	l0.5,1l0.1,0.6l-0.1,1.2l0.2,1.8l-1.2,0.5l-0.4,0.4l-0.2,0.8l-0.2,1.5l0.2,0.8l0.4,0.6l0.6,0.7l1.4,0.9l0.4,0.5l0.1,0.6l-0.1,0.7
	l0,0.6l0.5,0.3l0.5,0.1l1.1-0.1l0.5,0.3l0.5,0.5l1.3,1.8l0.8,0.8l0.7,1.3l0.9,2l0.8,0.7l0.9,0.6l1.2,1.5l0.9,1.3l0.7,0.4l0.4,1
	l-0.5,1l-0.3,0.8l0.1,1.3l0.1,1.6l-0.7,3l-0.7,0.9l-0.8,0.9l-0.7,1.2l-0.5,1.6l-0.6,1.5l-0.3,1.5l0.2,0.1l1.5,1l1.5,0.1l0.1,0.5
	l0,0.9l0.2,0.7l0.4,0.7l2.2,1.3l-0.4,1.2l-0.6,2.2l-0.5,1.1l-0.3,2.7l-0.3,0.6l-0.8,0.8l-0.7,1.4l-0.5,0.7l-1.1,0.9l-0.7,0.9
	l-0.2,0.2l-1.4,3.5l-1.2,1.8l-1.2,1l-1.5,0.2l-0.8-0.2l-0.9-0.5l-0.9-1.2l-0.8-2.8l-0.6-1.3l-0.9-1l-1.4,0.2l-1.5,0.5l-1.2,0.1
	l-2.1-3.6l-0.7-0.5l-0.9,0.2l-1,0.7l-1.3,2.3l-0.9,0.6l-3.1,0.2l-1.1,0.7l-1,1l-0.6,1.3l-1.1,0.1l-1.3-0.4l-1.3,0.1l-1.1,1.2
	l-0.9,0.8l-0.8,0.6l-0.8,0.4l-1.4,0.3l-1.9-0.2l-1.2,0.3l-2.1,1.2l-1.5,1l-0.6,1.6l-0.7,0.8l-0.6,0.3l-1.9,0.2l-4.5,0.1l-1,0.1
	l-1.1,0.3l-1.9,0.9l-1,0.2l-1.3,0.4l-0.4,1.6l-2.4,2.8l-0.4,1.2l-0.1,1.7l0.5,1.1l0.3,1.1l0.1,1.3l-0.8,0.6l-0.6,1.5l-0.3,2.3
	l-0.2,2.3l0.1,2l-0.1,1.2l-2.2-1.3l-2.9-2.5l-2.8-1.9l-1.5-1.7l-2.3-2.2l-4.1-3.1l-1.3-0.6l-1.5,0.1l-1.4-0.7l-2.4-1.8l-0.3-0.7
	l-0.3-1.3l-0.9-1.5h-0.5l-1.5,0.3l-1.1,0.5l-0.2-0.1l-0.7-0.6l-0.5-0.1l-0.9,0.3l-0.7,0.6l-0.8,1l-1.6,1.6l-0.8,0.1l-1.2-1l-0.5-0.6
	l-0.5-0.3l-0.6-0.2l-0.7,0L337,407l-1.9,0.3l-0.9-0.3l-0.3,0.5l-0.4,0.6l-0.7,0.2l-0.4-0.1l-0.9-0.7l-0.9,1l-0.4-0.1l-1.1,0.7
	l-0.3-0.4l0.3-0.6l0.4-0.2l0.4-0.3l0.6-0.2l0.1-0.3l0.2-1.3l1.4,0.3l0.8,0.5l0.2-1.3l0.2-1l0.2-0.6l0.4,0.6l0.1,0.8l0.4,0.2l0.8-0.8
	l0.6-0.2l0.6-0.7l0.7-1.2l-0.6-1.6l-1.2-2.4l-0.8-0.4l-0.6-1.6l-0.3-1l0.5-0.1l0.8,0.1l0.9-0.1l1.2,0l-0.4-2.2l0.5-1.2l0.7-0.7
	l1-1.3l0.6-0.4l0.7-0.3l0.5-2.1l-0.4-1.1l0.3-0.7l1.1,0l0.4-0.2l0.5-0.6l0.3-0.8l0.3-2l0-1.3l-0.1-1.4l0.6-0.9l0.1-0.9l-0.8-0.3
	l-0.7-1.2l-0.5-0.6l0.5-1.5l0-1l-0.5-1.3l-0.6,0.6l-0.7,0.9l-0.8,1.2l-1.2-0.6l-0.6-1.2l0.2-1.1l0.8-1.9l0.7-1l-1.3-1.1l-1.2-0.7
	L335.8,365.6z"/>
<path id="Nizamabad" class="st0" d="M322.7,205.5l0.7,0.5l0.7,1.3l0.2,0.9l-0.1,0.7l-0.4,0.6l-0.2,0.6l0.2,0.8l0.3,0.5l0.9,1
	l0.2,0.7l-0.5,0.1L324,213l-0.9,0l-0.3,0.5l0.2,1.9l0.6,1.7l0.3,0.7l0.1,0.7l-0.6,2.2l-0.1,1.5l-0.4,0.5l-0.8,0.7l-0.4,0.7l2.1,1.7
	l0.6,0.8l0.3,0.7l0.3,1.3l0.4,1.2l0.1,0.9l-0.1,2l0.1,1.4l-0.6,0.4l-0.6,0.2l-0.6,0l-0.8-0.2l-0.9,0.3l-0.5,0.6l-0.5,0.1l-0.6,0.3
	l-0.7,0.7l-0.5,0.8l-0.1,0.9l0.7,1l-0.6,0.7l-0.4,0.2l-1.1,0.2l-0.7-0.1l-0.5-0.3l-0.4-0.6l-0.3-0.7l-0.2-1.2l-0.3-1.1l-1.1,0.9
	l-0.1,0.9l-0.2,0.8l-0.8,1l-0.9,0.3l-0.7-0.1l-0.5,0.7l-0.4-0.6l-0.8-1.9l-0.5-0.3l0-0.9l-0.7-1.3l-1.5-1.8l-1.1-1.2l-0.3-0.1
	l-0.4,0.8l-0.2,0.9l-0.4,0.8l-1,1.1l-1.1,1.7l-0.8,0.5l-0.9-0.3l-1-1.3l-0.7-0.5l-0.7-0.8l-0.5-0.4l-0.6-0.3l0.4-1l-0.5-1.6
	l-0.3-1.6l-0.8-0.1l-0.7,0.5l-0.8,1.1l-0.6,1.5l-0.3,1.1l-0.1,1l0.1,1.8l0.3,2.6v1.4l-0.3,0.8l-0.3,0.5l-0.4,0.5l-0.3,0.3l-0.2,0.4
	l0,0.1l-0.3,0.2l-0.2,0.4l-0.4,0.4l-0.4,0.3l-1.4,0l-0.5-0.3l-0.3-1.9l-0.4,0l-0.6,0.6l-0.3,1.3l-0.2,0.3l0,0l-0.1,0l-0.1-0.2l-1,0
	l-0.2-0.3l-1-0.6l-0.7-0.3l-1-0.6l-1.5,0l-0.5-0.3l-0.5-1.2l-0.5-0.2L281,242l-1.7,0l-0.9,0l-1.1-0.2l-0.9,0.2l-0.4,0.6l-0.6,0.8
	l-1.2,0.1l-1.2,0.8v-0.2l0.1-0.3l0.3-0.3l0.4-0.1l-0.1-0.7l0.4,0.4l0.4-0.1l0.2-0.4l0.3,0.2l0.4-0.1l0.2-1.2l-0.9,0.2l-0.6-0.8
	l0.2-0.2l0.4,0.1l0.6-0.6l-0.1-0.3l-0.3-0.3l0.2-0.6l0.5,0.1l0.1-0.1l-0.1-0.5l0.4-0.5l-0.6-0.5l-0.6,0.5l0.3,0.4l-0.4,0.2l-0.3-0.1
	l0,0.3l-0.2,0.1l-0.3-0.4l-0.4,0.3l-0.2-0.2l0.1-0.7l-0.4-0.2l-0.3-0.4l0.7-0.9l-0.2-0.4l0-1.1l0.2-1.1l-1.8,0.5l-0.9-0.2l-0.5-0.2
	l0-0.6l0.2-0.5l-0.9-0.4l-0.5,0.5l-0.6-0.2l-0.8,0.3l-0.2,0.5l-1.4-0.3l-0.5-0.6l-0.8-0.1l-0.7,0.6l-0.4-0.2l-0.3,0.5l0,0.3
	l-0.4,0.2l-0.9-1.3l-0.1-0.4l-0.9,0l-0.3,0.1l0.1-0.5l-0.1-1.6l-0.3,0l-0.1-1l-0.6,0l0.1-0.8l-0.2-1.2l-0.4-0.6l-0.9,0.2l-0.3-0.2
	l-1.4-0.1l0-0.5l-1.7-1.7l-1.6-0.3l-1.4,0.1l-0.7,1l-1.4,0.1l0.3-0.5l-0.4-0.3l-1.1-0.2l-0.7-0.4l0-0.3l-0.3-0.1l-0.8,0.8l-0.9-0.9
	l0.4-0.7l1.2-1l-0.3-1l-1.1-1.4l-0.9-0.3l-1.2-0.6l-0.6-1l0.2-1.6l0.7-1.2l0.9-1l0.6-0.3l0.5-3.2l-0.9-0.3l-0.7-0.1l0.1-0.2
	l-0.8-0.4l0.2-1.4l0.5-0.2l0.9,0.2l1.1,0.6l0.5-0.4l0.6-0.1l0.7-0.4l0.2-0.2l-0.2-0.2l0-0.7l-1.9-0.5H246l-0.1-0.3l-0.2-0.3l0-0.2
	l0.9,0.1l0.2-0.2l0.8,0.1l0.5-1.8l1.1,0.3l0.2,0.8l0.6-0.1l0.2-1.1l-0.1-0.6l-0.7-0.3l-0.6-1l0.1-0.7l0.7-0.5l0.4-0.7l-0.1-0.3
	l-0.6,0.2v-0.5l0.4-0.7l-0.1-1.3l1.1,0l0.2,0.6l0.2-0.1l0-0.6l1-0.2l0.4,0.6l0.5-0.9l0.6,0.1l0.1,0.3h0.2l-0.2,0.9l-0.3,0.5l1,0.9
	l0.4-0.6l1.1-0.9l0.5,0.1l2.3-1.4l1.2,0.3l0.7-0.3l-0.1-0.9l0.9-2.7l0.1-1.7l-0.4-1.7l-0.5-1l-0.5-1.2l0-0.3l0-0.3l0.1-0.8l0.2,0
	v-0.7l-0.4-0.2l0.4-1.2l0.9-0.8l0.4-0.6l0-0.8l0.6-1l0.5-0.1l0.4,0.7l0,1.2l1.3,0.7v-1.1l1.2-2.3l0-1.4l0.6-1.1l1-2.9l0.3-1.8
	l0.8-2.2l1.7-0.7l3.8-1.6l1.7,0.8l1.1-0.1l0.2-1l-0.1-1.1l0.7-1.2l0.6-1.6l0.7-0.7l2.1-0.7l1.8,0.7l0.5-0.1l0.4-0.4l0.4-1.5l0.4-1.1
	l0.6-1.4l0.1-0.1l1-1.1l0.4-0.4l0.2-0.2l1-0.3l0.6-0.4l0.6-0.2l1.6-0.8l0.9-0.6l2.2-2.3l1.3-0.8l1.2-0.5l1-0.6l1.2-0.3l1.2-0.1
	l1,0.4l0.2,0.1l1,0.8l0.6,0.9l0.4,1.4l0,1.2l0.3,1.4l0.6,0.3l1.1-0.4l1.1-0.7l1-0.7l2.2-2.2l0.8-0.6l1-0.4l0.8-0.2l0.9,0.2l0.9,0.8
	l1.4,1.7l0.7,0.5l0.7,0.1l1.1,0l2.6-0.7l0.9,0.5l1.1,1.3l0.5,0.3l0.2,0.1l-0.5,1.4l-0.4,1.5l0.1,0.6l0.9,1.2l0.4,0.6l0.4,1.6
	l0.1,1.9l0.2,1.2l0,1.4l0.1,0.9l0.2,0.4l0.2,0.5l0.3,1.9l0.7,1.2l-0.5,1.4l0,0.9l1.1,1.9l0.8,0.8l0.7,0.3l0.8,0.1l0.7-0.2l0.9,0
	l0.9,0.4l0.4,0.5l0.1,0.8l0.2,0.9l-0.2,1.6l0,0.5l0.3,1.2l0.4,2.1l0.6,1.7l0.5,0.8l0.2,0.2l0.6,0.5l0.3,0.4l-0.3,0.7l-1.3,2l-1,0.7
	l-2,0.6l-0.7,0.3l-0.6,0.6l-0.3,0.7l-0.5,2.6L327,197l-0.6-0.2l-0.6-0.1l-0.7,0.5l-0.4,0.6l-0.8,2.1l-1,2.1l-0.8,2.1l-0.2,0.7
	L322.7,205.5z"/>
<path id="Ranga Reddy" class="st0" d="M285.2,310.4l0.5-1.2l-0.7-0.5l0.3-0.9l0.7,0.1l0.1-0.6l0-0.8l-0.5-0.6l0-0.7l0.6,0.1l0.3-1.3
	l0.9-0.3l0,1.7l0.2,1.2l1.4,0.5l0.6,1l0.6,0l1.2-0.6l0.7,0.1l0.4,0.6l-0.2,0.9l1,0.9l0.7,0.1l1-0.8l1.1-1l-0.4-1.1l1,0.1l1,0.3
	l0.4,2.5l-0.1,1.3l0,1.1h0.9l0.5,1.3l0.8,0.1l0.7,0.4l0.6,0.4l0.6-0.4l0.2-0.7l0-0.6l1.2,0.2l0.5-1.3l0.6-1l0.2-1l-0.7-2.7l1.1-0.1
	l0.5-0.6l0.8-0.3l0.7-0.4l0.7-1l0.8-1l0-0.6l-0.1-0.6l-0.3-0.9l0.7-1.2l0.3-0.3l0.2-0.9l0-0.8l0.6-0.9l0-0.9l0.3-1.3l-0.4-0.7
	l-0.7-0.8l-0.1-0.6l1.2-0.5l0.5-0.5l0.2-0.9l0.2-2.5l0.7-0.8l0.5,0l1.4,0.3l0.6-1.9l0.1-1.4l0.8,0.1l0.9-1.3l0.4,0.6l0.7,0.6
	l0.6,0.7l0.8,0.5l1,0.2l0.5,0.5l0.9-0.2l0.4-1.2l0.6-0.3l0.7,0.3l1.2,0.8l0.7,0.2l0.9,0l0.4-0.5l0.5-0.9l1.3,0l0.7,1.5l0.4,0.6
	l0.1,1.2l0.8,0.2l0.7,0l0.7-0.4l0.7-0.6l0.3-0.6l0.5-1.3l0.9,0.1l0.6,0.2l0.2,0.8l1.4,0.1l1.3,1.8l-0.5,1.6l-0.3,1.7l-0.6,1
	l-0.3,1.3l0.2,1l-0.4,0.2l-0.4,0.6l0.1,0.3l0.4,0.5l-0.4,0.5l-0.3,0.6l0.9,1.9l0.4,1.6l0.2,1.1l0.5,1l0,0.6l-0.2,3.2l0.8,0.8
	l0.5,0.4l0,0.6l-0.6,0.4l-0.4,0.5l-0.1,2.5l0.9-0.4l1,0.3l0.8-0.2l0.6-0.6l0.4,0.4l0.1,1.7l-0.3,1.3l-0.4,1l-0.6,0.9l0.1,0.6l0,0.7
	l-0.3,0.8l0,0.8l-0.2,1.1l0.9,0.1l1.4,1.1l0,0.8l-0.4,0.4l-0.9,0.6l-0.5,0.6l0.8,0.8l0.8,0.4l0.2,0.4l-0.1,0.2l-1.1,0.8l-0.5,0.6
	l0.7,1l0.4,0.8l-0.4,0.8l0.6,0.8l0.6,0.6l2.8,1l0.9,0.5l0.7,0.8l-1,2.9l-2.3-0.6l-1.2-0.4l0.5,0.7l0.3,0.7l0.2,1l0.8,0.3l-0.1,1.1
	l0.3,1l-0.9,1.2l0.2,1l0.7,1.1l1,0.8l0.8,0.4l1.1,0.3l0.5,0.2l0.3,0.8l-0.1,0.8l-1.2-0.3l-0.1,0.8l1.3,1.2l0.7,0.8l0.4,0.8l-0.7,1.1
	L347,352l0,1.2l-0.6,1l-0.9,0.3l-2.2-0.9l-0.5,0.5l-0.4,0.5l1.1,0.1l1.3,0.5l0.7,0.8l0.1,0.7l-0.9,1.1l-0.9,0.8l-0.8,0.9l-0.2,1.1
	l-0.4,0.7l-1-0.4l-1.4,0l-0.3,0.8l0,0.4l-1-0.3l-0.9-0.1l-1,0.1l-0.9,0.6l-0.4,1.8l-0.3,0.6l0.2,0.7l-1.1,0.2l-0.9-0.8l-1.1-0.8
	l-0.5-0.6l-0.5-0.4l-2.1-0.4l-0.6,0l-0.9,0.4l-1.4,0.3l-0.9-0.9l-0.5-0.7l-0.5-1.4l-1-0.4l-1.4-0.3l-0.7-0.5l-0.4-0.8l0.1-0.4l0-0.5
	l-0.1-0.3l-0.4-0.2l-0.5,0l-0.6,0.4l-0.4,0.4l-0.3,0.5l-0.2,0.8l-0.4,0.4l-0.4,0.3l-0.6,0.3l-0.4,0l-0.2-0.9l-0.4-0.3l0-0.7
	l-0.8-0.8l-1.3-1.1l-1-0.6l-0.9-0.5l-1-0.7l-0.6-1l-0.7-1.8l-0.4-0.8l-1.2-0.6l0-0.9l0.7,0.3l0.6-0.5l-0.4-0.5l-0.6-0.2l-0.1-0.9
	l-0.5-0.8l-0.4-1.3l-0.9-1.2l-0.7-0.8l-0.8-0.7l-0.2-0.4l0.1-1.3l0-1.1l-0.2-1.1l-0.5-1.3l-0.2-1.7l-0.4-1.2l-0.9-0.4l-0.9,0.3
	l-0.4,1l-0.3,1l-0.7,0.2l-0.8-0.2l-1.3,0l-0.3,0.4l-0.2,1l-0.5,0.8l-1.2,0.6l-0.6,0.2l-1.3,0.7l-0.2,0.9l0.1,0.7l0.5,0.5l0.7,0.2
	l0.5,0.3l-0.1,0.6l-0.9,0.7l0.4,2l-0.1,1l-0.1,0.4l-1.5-0.2l-1.6-0.8l-0.9-0.3l-1.1,0.3l-1.2,0.8l-0.9-1.5l-0.4-1l0.1-1l0.9-1.7
	l-0.3-2.1l-0.6-0.5l0.1-1.2l-0.2-0.8l-0.6-0.2l-0.8-0.1l-1,0.3l-0.4,1l-0.6,1l-1.2,0.5l-0.3,0.6l-0.7,2l-0.5,0.9l-0.7,0.9l-0.6,0.4
	l0,0.4l0.1,0.2l0,0.5l-0.2,0.6l-0.1,0.8l-0.4,0l-0.6,0.5l-0.4-0.1l-0.6,0.2h-0.7l-0.2,0.8l-0.7,0.2l-0.3,0.3l-0.5,0l-0.1,0.3
	l0.3,0.3l0.7,0l0.2,0.6l-0.6-0.1l-0.3,0.4l-0.8,0.5l-0.5,0.5l0.2,1.2l0.6,0.6l0,0.9l0.3,1l0.3,0.5l0.5,0.4l0.4,0l0,0.4l0.9,0.5
	l0.5-0.1l0.4,0.3l0.4,0.1l-0.1,0.6l0.4,0.2l0.1,0.1l0.9,1.1l0,0.7l0.2,0.3l0.1,0.1l0.2,0.1l-0.2,0.2l-0.1,0.3l-0.8,1.4l0.3,0.4
	l0.6,0.4l1.1,0.2l0,0.7l-0.4,0.9l0.3,0.8l0.2,0.7l0.1,0.6l-0.2,0.3l0,0.6l-0.3,0.5l-0.9,0.3l-1.2,0.2l-0.6,0.6l-0.5,0.1l0.1,0.9
	l-0.3,0.8l0.1,0.3l0.8-0.1l0.3-0.3l0.2-0.6l0.5,0.5l-0.2,1.4l-0.3,0.6l-0.5,0.5l-0.4,0l-0.3-0.2l-0.3-0.5l-0.6-1.2l-1.1,0.3L276,373
	l-0.6,1.4l-0.4,0.1l-0.5-0.3l-0.3-0.3l0.1-0.6l-0.4-0.2l-2.6,0.6l-0.3,0.2l-0.5,0.1l0-0.3l0.2-0.4l-0.1-0.3l-0.3,0.2l-0.4,0.6
	l-0.7-0.3l-0.4-0.3l-0.2,0.1l-0.1,0.2l-1.1-0.5l-0.5-0.4l0-1.4l0-0.6l-0.6-0.6l-0.4,0l-0.4,0.5l-0.7,1l-1-0.4l-0.7-0.1l-0.3,0.2
	l-0.5,0.4l-0.4,0l-1.6-0.9l0.1-0.8l0.1-0.5l0-0.8l0.2-1.3l-0.3-1.1l-0.1-1.5l-0.7-0.2l0-0.3l0.9-0.6l0.5-0.7l0.7-1.5l0.3-0.8
	l-0.1-0.5l-0.3-0.6l0.3-0.6l0.1-0.7l0.1-0.3l-0.1-0.8l0.4-0.9l0.8,0.1l0.4-1.1l0.4-1.5l-0.7-0.6l-0.3-1.1l-0.6-0.2l-0.7,0.2
	l-0.3-0.3l0.5-1.3l0.2-0.8l-0.2-0.8l0.6-1.8l0.8-0.4l0-0.3l-0.2-0.3l0.1-0.4l-0.2-0.6L263,345l1.3-2.6l0-0.5l0.1-0.8l-0.1-0.8
	l-0.4-0.3l-0.3-0.1l-0.2-1l-0.3-0.8l-0.4-0.2l-0.1-0.6l0.4-0.6l0.3-0.1l0.2-0.3l0.9-0.6l0.1-0.7l0.2-0.6l-1-0.4l-0.4-0.2l0.1,0.4
	l-0.3,0.1l0,0.4l-0.8,0.2l-0.1,0.4l-0.4,0l-0.1-0.7l-0.5,0.1l-0.8-0.3l-0.3,0.9l0,1.3l0.2,0.7l0.3,2.3l-0.5-0.2l-0.5-0.5l0-0.6
	l0.2-1l-0.2-0.3l-0.7-0.2l0.1,0.6l-0.4,0l-0.4,0.2l-0.5-0.3l-0.6,0.6l0.3,0.7l-0.2,0.7l0.1,0.4l0.5,0.4l-0.1,0.3l-0.5-0.2l-1,0.1
	l-0.4-0.5l-0.6-0.2l-0.1,0.1l-0.3-0.2l-1.3,0.1l-0.4,0.8L251,341l0.3,1l0.2,0.4l-0.4-0.1l-0.3,0.1l-0.1,0.3l-0.4,0.1l-0.3,0
	l-0.4-0.2l-0.1,0.1l-0.6,0l-0.3,1.2l-0.4,0.9l-0.9-0.3l-0.7-0.5l-0.6-0.3l-0.4-0.5l-0.2-1.4l-0.5-0.9l-0.7-0.2l-1.3-0.6l-0.5,0.2
	l-0.6-0.4l-0.8-0.2l-0.7,0.2l0.1,2.6l-0.3,0.7l0.3,0.5l0.4,0.4l-0.3,1.5l-0.6,0.3l-0.4,0.5l-0.2,0.5l-0.8-0.4l-0.3-0.4l-0.8-0.3
	l-0.4,0.4l-0.8-0.3l-0.9-0.7l-0.6-0.3l-0.4-0.9l-1.8-0.6l-0.1-1.1l-0.7-0.3l-0.5-1.1l0.4-0.4l-0.1-0.5l0.4-0.7l-0.1-0.7l0.3-0.7
	l0.5-0.3l0.4-0.1l0.8,0.1l0.2-1.5l0.4-0.2l0-0.3h-0.5l-0.7-0.1l-0.3-0.4l-0.1-0.4l0.3-0.4l0.6-0.5l0.3-0.5l0.2,0.1l0.5-0.6l0.7,0.8
	l0.2-0.3l0.2-0.9l0-0.8l0.2-0.4l1.2-0.8l0.4-0.8l0.6-0.1l0.4-0.6l-0.1-1.1l-0.5-0.2l-1,0.1l0.3-0.9l0.2-0.1l0.6-1.6l0.1-0.1l0.1-1.3
	l0.1-0.1l0.2-1l0.1-0.7l-0.3-0.4l-0.2-0.1l0-1.4l0.1-0.8l2.2,0.1l-0.3,0.1l-0.2,0.5l0.2,0.4l0.6,0.5l0.8-0.1l0.5,0.1l0.8-0.5
	l0.9-0.3l0.6-1l0.2-0.6l-0.3-0.1l-0.4-0.8l1-1.3l0.2-0.5l-0.2-0.2l-0.5,0L243,315l0-1.5l1-1l0.8-0.4l1.2,0.6l0.7,0l1.2,0.6l-0.1-0.9
	l0.1-1.6l1.4,0.6l0.4,0.6l0.7-0.1l0.5-0.1l0.1-0.9l-0.1-1.2l0.1-0.5l0.4-0.1l0.8,0l0.6-0.1l0.5-0.4l0.2-0.8l0.1-1.2l0.3-0.5l0.4-0.4
	l-0.3,1.2l-0.1,1.1l1.3,0.5l1.5,0.4l0.1-1.3l0.2-0.7l0.1-0.7l-0.2-0.7l-0.2-1.2l0.3-0.8l0.8-0.2l0.5,0.1l2.8-2.3l1.4-1l-0.1-1.5
	l0.2-0.8l0.3-0.4l0.4-0.2l0.2-1.6l-0.5-1.1l-0.4,0l-0.3-0.2l-0.7,0.3l0-0.6l-0.3,0l0.1-0.7l0.4,0.2l1.3-0.3l0.7,0l0.2-0.2l0.3-1.1
	l0.3,0.2l0.8,1.3l0.3-0.2l1.1,0.1l0.7-1l0.2-1.1l2.2,0.3l0.2,1.6l0.2,0.7l0.4,0.2l0.1,1l0.5,0.7l0.1,0.4l-0.1,0.4l-0.2,0.4l0.1,0.7
	l0.2,0.6l2.1,0.2l1,0.4l0.7,0.1l0.9,0.9l0.2,0.8l0.3,0.6l-0.1,1.4l0.7,0.2l0.5,0l0.7,0.2l0.9,1.7l-0.7,1.5l0.1,1.1l-0.2,1.1l0.8,0
	l0.6-0.2l0.7-2.2l0.3,0.7l0.3,0.4l0.5,0.8l0.5,0.7l0.5,0.6l0.6,0.4l0.6,0.7l0.7,0.4L285.2,310.4z M320.9,311l-1-1.7l-0.6-0.6l-1,0.3
	l-1.2,2.8l-0.8,1.1l-0.4,0.8l0.1,2.8l-0.4-0.4L315,315l-0.7-1.3l-0.5-0.5l-0.7,0.1l-0.9,1l-0.6,1.2l-0.2,1.4l0.1,1.1l0.8,3.3
	l0.8,0.8l0.9,0.3l1.4,0.2l0.8-0.1l-0.2,1.2l0.2,1.1l0.5,0.8l0.9,1l0.3,0.4l0.4,0.2l0.5-0.2l1.4-1.7l1.2-1l-0.1-1.2l0.1-1l0.8-1.1
	l0.3-1l-0.6-2l0-0.9l0.4-2.3l0.8-2l0.3-1.6l0-0.8l-0.5-0.1l-0.7,0.6l-0.7,0.5L320.9,311z"/>
<path id="Warangal Rural" class="st0" d="M450,317.6l0.1,0.8v0.9l-0.2-0.1l-0.3-0.8l-0.9-0.7l-0.5,0.1l-0.4,0.2l-0.3,0.6l-0.5,0.4
	l-0.2,0.7l-0.3,0.4l-0.2,0.8l-0.6,0.5l-0.6-0.1l-0.5-0.4l-0.6-0.3l-0.4,0.8l-0.6,0.4l-0.4,0.5l-0.8,0.5l-0.5-0.6l-0.7-0.1l-3.1-1
	l-0.8-1.1v-1.8l-0.3-1l-1.3-0.4l-1.1,0.8l-0.5,0.2l-0.7,0.1l-0.4,0.4l0.2,1.2l-0.5,0.4l-0.7,0l-1.3-0.2l-0.8,0.5l-0.4,1.8l-0.6-0.5
	l-0.3,0v1l-0.1,0.8l-0.5,0.9l-0.6,0l-1-0.2l-0.9,0.7l-0.7-0.5l-1-0.3l-0.6,0.3l-0.7,0.6l-0.8,0.9l-0.1-0.2l-0.4-2.3l-0.3-0.9l-1-1.6
	l-0.2-0.8l0.1-0.4l0.4-0.3l1.1-0.6l-0.7-0.9l-1.2-1.3l-0.3-0.7l-0.1-1.6l-0.4-0.1l-1.9,0.1l-0.5-0.2l-0.5-0.5l-0.4-0.8l-0.5-0.8
	l-0.6-0.3l-1-0.1l-1.2-0.7l-1.1-0.9l0.1-1.9l0-1l-0.1-0.5l-0.4,0.2l-0.8,0.7l-0.8,0.4l-1.4-0.4l-1.4-0.6l-0.6,0.5l-1.3-0.6l-0.8,0.1
	l-0.3-0.5l-1.4-1.8l-0.6,0.5l-0.5,0.7l-0.4,1.8l-1-0.1l-1.1-0.5l-0.5-0.9l-0.5-0.4l-0.9-0.3l-0.9,0l-1,0.2l-1-0.3l-0.6,0.1l-1.4,1.6
	l-0.5,0l-1-0.4l-0.9-0.6l-1.1-0.8l-2.6-0.8l-0.6-0.4l-0.2-1.4l-0.2-0.7l-0.4-0.6l-0.6,0.1l-0.6-0.1l-0.4-0.2l-0.3-0.4l-0.3-1.1
	l-0.4-0.7l-0.5-0.2l-0.3,0.3l-0.4,0.8l-0.2,0.9l-0.4,0.1l-1.2-0.5l-0.7,0.1l-0.3-1.4l-0.4-0.8l-0.5-0.7l-0.1-1.1l0.5-0.6l-0.7-1.8
	l-1.1,0.9l-0.6,1.4l-0.5,0.2l-0.2,0.7l-0.2,1L372,298l-0.2,0.1l-0.7-0.6l-0.4-0.8l0-1.6l0.3-1.3l-0.2-0.5l-0.8-0.5l-0.9-2.4
	l-0.2-1.7l-0.7-0.3l-0.7-0.4l-0.7-0.5l-0.9-1.1l-0.4-1.3l-0.4-1.1l-1.1-0.6l-0.7-0.5l-1,0.5l-1.2,0.9l-0.7-1.1L360,282l-0.9-2.8
	l-0.5-2.3l-0.4-0.7l-0.9,0.1l-2.3-0.2l-1-0.2l-0.2-0.7l-1.5-0.4l-0.3-0.2l-0.7,0.1l-0.9-0.2L349,274l-0.1-0.9l0.1-0.7l0.5-0.4
	l-0.3-2.5l0-1.5l-2.4-0.5l-0.9-0.3l-0.2-0.5l0.3-1.5l0.8-0.1l0.2-0.8l0.5-0.3l0.3-1.6l0.7-1.4l0.7-1.2l0.6-1.8l1,0.1l1.1,0.3
	l0.8-1.7l0.1-0.7l0.8-1.1l1,0.1l0.7-0.2l0.1-0.4l0.2-0.4l0.2-0.4l-0.2-0.4v-0.7l0.5-0.8l0.5-0.6l0.1-0.4l0.3,0.3l0.8,0.9l0.4,0.4
	l-0.2,0.5l0.6,0.5l0.7,1.1l0.2-0.1l2.5-2.5l0.8-0.6l0.5-0.3l0.7,0.5l0.6,0.7l0.7,0.2l0.7-0.5l0.8-0.1l0,0l0.5,0.6l2,1l1.1,0.3
	l0.5,0.2l0,0.4l0.1,0.9l0.1,0.6l0.7-0.1l1.2-0.3l1.5-0.6l0.9,0.2l1.1,0.5l0.5,0.6l0.7,0.2l0.8,0l0.8,0.1l0.3-0.1l-0.1-2.1l2.1-1.3
	l0.6-0.5l0.7-0.3l0.8-0.2l2.9-0.4l0.8,0l0.7,0.4l0.6,0.2l0.3-0.1l0.4-0.5l0.5-0.5l2.5-1.9l1.3-1.4l0.4-0.4l0.9-0.6l0.6-0.6l0.3-0.5
	l0.1-0.6l0.5-1.2l0.4-1.4l0.6,0.3l0.7,0.8l0.6,0.2l0.7,0.1l0.8-0.7l0.6,0.5l0.5-0.1l0.5-0.2h1.4l0.5-1.2l0.2-0.4l0.4-0.5l0.8,0.2
	l0.5,0l-0.4-0.6l-0.1-0.5l-0.1-1.1l0.2-0.2l0.5-0.1l0.6,0.2l0.5,0l0.5-1.1l-0.2-0.7l0-0.8l0.3-0.8l0.5-0.6l-0.1-0.4l-0.2-0.7
	l-0.3-0.4l-0.2-0.7l-0.2-0.8l-0.6-1.1l-0.1-0.7l-0.5-1.5l-0.2-0.5l-0.8-1.4l-0.5-1.8l-0.2-0.9l-0.1-1.2l0.1-1.2l0.7-0.3l0.1-0.9
	l-0.4-0.9l0.4-0.6l0.1-0.4l0.1-1.2l-0.1-0.6l-0.4-2l0-1l0.1-0.9l0.1-0.9l0.2-0.7l-0.5-1.7l0.5-0.8l0.7-1.5l0.1-0.8l0-0.8l0-0.8
	l1-0.1l1.4-0.5l0.8-0.1l1.6,0.5l0.1,0l0.5-0.4l0.7-0.9l0.5-0.8l0.3-0.3l0.6-0.1l0.8,0l1.4,0.3l1.8,0.9l0.7,0.6l0.5,0.5l0.3,0.5
	l0.4,0.7l0.6,1.5l0.7,1.3l0.6,0.8l0.8,0.7l0.8,0.6l0.7,0.1l0.5-0.3l-0.1-1.6l-0.4-1.6l-0.5-1.5l-0.2-1.1l0-1.3l0.4-0.7l0.6-0.4
	l0.7-0.1l0.6,0.2l1.3,1.4l0.2,0.4l0.6,1.8l1.1,2l1.3,1.2l2,1l0.1-0.5l0-0.7l0.1-2.5l-0.8-0.5l-0.6-0.6l-0.6-0.9l-0.9-2.1l-0.2-1.2
	l0.7-0.3l1.6-0.1l2,0.2l0.4,0.4l0.4,0.1l0.3-0.1l0.3,0.2l0.3,0.9l0.2,1.3l0.4,0.9l0.4,0.1l0.2-0.7l0.7-0.6l0.4-0.2l0.3,0.4l0.2,0.1
	l0.7,1.1l0.5,0.1l0.7,0.5l0.5-1.2l0-0.5l0-0.4l0.3-0.5l0.1-0.7l0.2-0.8l0.1-0.8l3.6-0.2l-0.1,0.7l-0.9,0.9l-0.6,0.4l-1.1,1.7
	l1.1,0.3l0.8,0.4l0.6-0.1l0.3,0.7l0.1,0.2l1.4,0l0.8,0.1l-0.2,1l-0.9-0.1l-0.5,1l-1,1.5l-0.5,0.6l-1.4,0.2l-0.9-0.2l-0.8-0.3
	l-0.3-0.5l-0.4-0.7l-0.5,2.7l0.3,1l0.2,0.7l1.1-0.3l1.2,0.3l1.3,1.4l0.5-0.5l-0.2-0.6l0.1-1.5l0.2-1.1l1.2-1l0.5,0.1l0.6,0.4
	l1.2,0.5l0.6,0.3l0.5,0.2l0.7,0.5l0,1.6l-0.3,1.5l-0.1,1.1l0.6,1.1l1.6,2.2l0-0.8l0.3-0.5l1.6-1.9l0.4-0.7l1.1-1.3l0.1-1.7l0.2-0.8
	l0.2-0.6l0.1-0.8l0-0.9l0.1-2.7l-0.1-2l0.1-4.4l0-2.9l0.5-0.7l0.4-0.4l0.3-0.4l1.9-2.1l0.2-0.1l2.1-0.1l0.7,0.1l1.2-0.3l1-0.4l0.7,0
	l0.2,0.2l0.2,0.2l0.5-0.2l0.3-0.2l0.2-0.3l0.1-0.5l0.2-0.4l0.2-0.2l0.3-0.1l0.3,0.2l0.9,1l0.7,1.6l0.3,1.2l0,0.5l-0.1,0.5l-0.3,0.6
	l-1.2,1.4l-0.2,0.6l-0.1,0.4l0,0.6l0.2,0.4l0.2,0.2l0,0.9l0.1,0.8l-0.4,0.5l0.1,0.5l-0.1,1.3l0.2,1.1l0.2,0.5l0.4,0.4l0.6,0.4
	l0.7,0.3l0.6,0l0.3-0.2l0.5,0l0.5,0.2l0.5-0.2l0.4,0l1,0.3l0.7,0.6l0.2,0.4l0.1,1l-0.1,0.6l-0.2,0.6l-0.1,0.7l-0.2,1.7l0.1,0.4
	l0.3,0.4l0.9,0.8l0.2,0.4l0,0.9l-0.4,1.3L474,217l0.4,1.5l0,0.6l-0.2,1.2l0.4,1.8l0.3,0.6l0.4,0.6l0.8,1l0.3,0.5l0.2,0.7l0.4,0.7
	l0.5,0.2l0.8-0.2l0.6,0.1l0.8,0.4l0.4,0.5l1.2,1.1l0.4,0.2l0.9,0.6l0.8,0.7l0.4,0.5l1,0.7l0.8,0.9l0.4,0.8l0.4,0.1l0.5,0l0.2,0.4
	l0.1,0.4l0.1,0.3l0,0.2l1.1,0.6l0.9,1.1l0.3,0.1l0.3,0.4l-0.3,0.8l-0.1,0.8l-0.2,0.2l-0.2-0.2l-0.3-0.1l0,0l-0.1,0.1l0.5,0.8
	l0.1,0.1l0.1,0.3l-0.1,0.9l-0.6-0.1l-1.3-0.6l-0.2,0.3l-0.1,0.2l-0.1,0.5l0,0.3l1.4,0.2l0,0.4l-0.4,1.1l-0.2,0.2l-0.5-0.1l-0.8-0.4
	l0,0l-0.2,0.1l-0.1,0.9l-0.3,0.5l-0.1,0.2l-0.2,0.7l-0.6,0.8l-0.3,0.1l-0.3-0.2l-0.4-0.3l-1.4-1.4l-0.4-0.3l-0.7-0.1l-0.2,0
	l-0.5,0.7l-0.2,0.1l-0.5-0.3l-0.5-0.5l-0.6-1l-0.3-0.2l-0.1-0.5l-0.9-0.9l-0.5-1l-0.8-0.3l-1.7,0.8l0.9,0.9l0,0.4l-0.2,0.4l-0.3,0.7
	l-0.5,1.6l-0.3,1.1l-0.1,0.1l-0.1,0.2l-0.4,0.4l0,1.2l0.3,0.7l-0.7-0.4l-0.2-0.1l-0.7,0.5l-0.3,0.1l-1.2-0.9l-0.6-0.7l-0.6-0.5
	l-0.8-0.4l-1.5,1.8l-1.5,2.1l-0.4,0.3l-0.3,0.4l-0.2,0.8l-0.1,1.2l-1.1,1.2l-0.3,0.5l-1.1,2.5l-0.3,0.4l-0.1,0.1l-0.7,0.5l-0.4,0.1
	l-1.3-0.1l0.1,0.8l-0.1,1.2l-0.3,1.6l0.2,1.4l0.7,1.2l-0.3,1.3l0,1.5l-0.2,1.2l-0.4,1.1l-1.5,3.4l0.3,4.7l0.3,1.5l-0.2,2l-0.3,0.6
	l-0.3,0.1v0.3l-0.5,0.3l-0.2-0.6l-0.3-1.1l-1,0.6l-0.9,0.7l-3.2,2.9l-0.1-0.5l0.4-0.8l-0.3-0.1l-0.3-0.2l-0.2-1.2l-0.2-0.6l-0.1-0.8
	l-0.8,0.5l-0.8,0.3l-0.6,1.2l-0.8,0.5l-2.7,1.2l-1.2,0.7l-0.9,0.2l-0.4-0.3l-0.6-0.3l-0.4,0.9l-0.1,1l2.4,1.6l0.7,0.9l0.4,1.4
	l-0.1,0.3l-1,0.5l-0.2,0.5l0,0.5l-0.7,1.8l-0.6,1.8l-0.2,1.2l0.4,0.4l0.2,0.4l0.5,0l0.6,0.5l0.8,0.9l-0.2,1l-0.4,1.1l0.5,0.8
	l-0.2,1.2l0,1l0.5,1.5l0.8,1.8l0.5,0.6l0.9,0.4l0.8,0.5l0.2,1.1l-0.1,0.9l0,1.7l3.2-0.9l0,1.3l-0.1,1l-0.5,2.7L450,317.6z"/>
<path id="Layer" d="M790,262h10v10h-10V262z"/>
<path id="Layer_1_" class="st1" d="M0,0"/>
<path id="Adilabad_1_" d="M335.2,119.5l-1.8-4.7l-1.7,4.7H335.2z M329.1,123l3.6-9.5h1.5l3.6,9.5h-1.3l-0.9-2.4h-4.3l-0.9,2.4H329.1
	z M343.6,117v-3.8h1.2v9.9h-1.2v-1.1c-0.2,0.4-0.6,0.7-0.9,0.9c-0.4,0.2-0.8,0.3-1.4,0.3c-0.9,0-1.6-0.3-2.1-1
	c-0.5-0.7-0.8-1.6-0.8-2.7c0-1.1,0.3-2,0.8-2.7c0.5-0.7,1.2-1,2.1-1c0.5,0,1,0.1,1.4,0.3C343,116.2,343.4,116.5,343.6,117z
	 M339.6,119.4c0,0.9,0.2,1.5,0.5,2c0.4,0.5,0.8,0.7,1.5,0.7c0.6,0,1.1-0.2,1.5-0.7c0.4-0.5,0.5-1.2,0.5-2c0-0.9-0.2-1.5-0.5-2
	c-0.4-0.5-0.8-0.7-1.5-0.7c-0.6,0-1.1,0.2-1.5,0.7C339.8,117.9,339.6,118.6,339.6,119.4z M347.2,123v-7.1h1.2v7.1H347.2z
	 M347.2,114.6v-1.5h1.2v1.5H347.2z M350.8,123v-9.9h1.2v9.9H350.8z M358.8,119.4h-1.2c-0.9,0-1.6,0.1-2,0.3
	c-0.4,0.2-0.6,0.6-0.6,1.1c0,0.4,0.1,0.8,0.4,1c0.3,0.2,0.6,0.4,1.1,0.4c0.6,0,1.2-0.2,1.6-0.7c0.4-0.5,0.6-1.1,0.6-1.8V119.4z
	 M360,118.9v4.1h-1.2v-1.1c-0.3,0.4-0.6,0.8-1,1c-0.4,0.2-0.9,0.3-1.5,0.3c-0.7,0-1.3-0.2-1.7-0.6c-0.4-0.4-0.6-1-0.6-1.6
	c0-0.8,0.3-1.4,0.8-1.8c0.5-0.4,1.3-0.6,2.4-0.6h1.6v-0.1c0-0.5-0.2-1-0.5-1.2c-0.4-0.3-0.9-0.4-1.5-0.4c-0.4,0-0.8,0.1-1.2,0.2
	c-0.4,0.1-0.8,0.2-1.1,0.4v-1.1c0.4-0.2,0.8-0.3,1.2-0.4c0.4-0.1,0.8-0.1,1.2-0.1c1,0,1.8,0.3,2.3,0.8
	C359.7,117.1,360,117.9,360,118.9z M367.5,119.4c0-0.9-0.2-1.5-0.5-2c-0.3-0.5-0.8-0.7-1.4-0.7c-0.6,0-1.1,0.2-1.5,0.7
	c-0.4,0.5-0.5,1.2-0.5,2c0,0.9,0.2,1.5,0.5,2c0.4,0.5,0.8,0.7,1.5,0.7c0.6,0,1.1-0.2,1.4-0.7C367.3,121,367.5,120.3,367.5,119.4z
	 M363.5,113.1v3.8c0.2-0.4,0.6-0.7,0.9-0.9c0.4-0.2,0.8-0.3,1.3-0.3c0.9,0,1.6,0.3,2.1,1s0.8,1.6,0.8,2.7c0,1.1-0.3,2-0.8,2.7
	c-0.5,0.7-1.2,1-2.1,1c-0.5,0-1-0.1-1.3-0.3c-0.4-0.2-0.7-0.5-0.9-0.9v1.1h-1.2v-9.9H363.5z M375,119.4h-1.2c-0.9,0-1.6,0.1-2,0.3
	c-0.4,0.2-0.5,0.6-0.5,1.1c0,0.4,0.1,0.8,0.4,1c0.3,0.2,0.7,0.4,1.1,0.4c0.6,0,1.2-0.2,1.6-0.7c0.4-0.5,0.6-1.1,0.6-1.8V119.4z
	 M376.2,118.9v4.1H375v-1.1c-0.3,0.4-0.6,0.8-1,1c-0.4,0.2-0.9,0.3-1.5,0.3c-0.7,0-1.3-0.2-1.7-0.6c-0.4-0.4-0.6-1-0.6-1.6
	c0-0.8,0.3-1.4,0.8-1.8c0.5-0.4,1.3-0.6,2.4-0.6h1.6v-0.1c0-0.5-0.2-1-0.5-1.2c-0.3-0.3-0.8-0.4-1.5-0.4c-0.4,0-0.8,0.1-1.2,0.2
	c-0.4,0.1-0.8,0.2-1.1,0.4v-1.1c0.4-0.2,0.8-0.3,1.2-0.4c0.4-0.1,0.8-0.1,1.2-0.1c1,0,1.8,0.3,2.3,0.8
	C375.9,117.1,376.2,117.9,376.2,118.9z M383.3,117v-3.8h1.2v9.9h-1.2v-1.1c-0.2,0.4-0.6,0.7-0.9,0.9c-0.4,0.2-0.8,0.3-1.3,0.3
	c-0.9,0-1.6-0.3-2.1-1c-0.5-0.7-0.8-1.6-0.8-2.7c0-1.1,0.3-2,0.8-2.7s1.2-1,2.1-1c0.5,0,1,0.1,1.3,0.3
	C382.7,116.2,383,116.5,383.3,117z M379.3,119.4c0,0.9,0.2,1.5,0.5,2c0.4,0.5,0.8,0.7,1.5,0.7c0.6,0,1.1-0.2,1.5-0.7
	c0.4-0.5,0.5-1.2,0.5-2c0-0.9-0.2-1.5-0.5-2c-0.4-0.5-0.8-0.7-1.5-0.7c-0.6,0-1.1,0.2-1.5,0.7C379.5,117.9,379.3,118.6,379.3,119.4z
	"/>
<path id="Hyderabad_1_" d="M332.2,339.6l-7.3,0.1l0-1l3,0l0-3.6l-3,0l0-1l7.3-0.1l0,1l-3.5,0l0,3.6l3.5,0L332.2,339.6z M326.6,327.5
	l6,2.4c0.7,0.2,1.1,0.5,1.3,0.7c0.2,0.2,0.3,0.6,0.3,1l0,0.7l-0.8,0l0-0.5c0-0.2-0.1-0.4-0.2-0.6c-0.1-0.1-0.4-0.3-0.8-0.5l-0.4-0.2
	l-5.4,2.3l0-1l4.3-1.7l-4.3-1.7L326.6,327.5z M327.4,322.7l-2.9,0l0-0.9l7.6-0.1v0.9l-0.8,0c0.3,0.2,0.6,0.4,0.7,0.7
	c0.2,0.3,0.2,0.6,0.2,1c0,0.7-0.3,1.2-0.8,1.6c-0.5,0.4-1.2,0.6-2.1,0.6c-0.9,0-1.6-0.2-2.1-0.6c-0.5-0.4-0.8-1-0.8-1.6
	c0-0.4,0.1-0.8,0.2-1C326.9,323.1,327.1,322.9,327.4,322.7z M329.4,325.7c0.7,0,1.2-0.1,1.6-0.4c0.4-0.3,0.6-0.7,0.5-1.1
	c0-0.5-0.2-0.8-0.6-1.1c-0.4-0.3-0.9-0.4-1.6-0.4c-0.7,0-1.2,0.2-1.5,0.4c-0.4,0.3-0.6,0.6-0.6,1.1c0,0.5,0.2,0.9,0.6,1.1
	S328.7,325.7,329.4,325.7z M329,315.2l0.4,0l0,4.1c0.6,0,1.1-0.2,1.4-0.6c0.3-0.3,0.5-0.8,0.5-1.4c0-0.3,0-0.7-0.1-1
	c-0.1-0.3-0.2-0.7-0.4-1h0.8c0.1,0.3,0.2,0.6,0.3,1c0.1,0.3,0.1,0.7,0.1,1c0,0.9-0.2,1.6-0.7,2.1c-0.5,0.5-1.2,0.8-2.1,0.8
	c-0.9,0-1.6-0.2-2.1-0.7c-0.5-0.5-0.8-1.1-0.8-1.9c0-0.7,0.2-1.3,0.7-1.8C327.6,315.5,328.2,315.2,329,315.2z M328.8,319.3l0-3.2
	c-0.5,0-0.9,0.1-1.2,0.4c-0.3,0.3-0.4,0.6-0.4,1.1c0,0.5,0.2,0.9,0.4,1.2C327.9,319.1,328.3,319.3,328.8,319.3z M326.4,310.6l0.9,0
	c-0.1,0.1-0.1,0.2-0.1,0.3s0,0.2,0,0.4c0,0.5,0.2,0.9,0.5,1.2c0.3,0.3,0.8,0.4,1.4,0.4l2.9,0l0,0.9l-5.5,0v-0.9h0.9
	c-0.3-0.2-0.6-0.4-0.8-0.7c-0.2-0.3-0.2-0.7-0.2-1.1c0-0.1,0-0.1,0-0.2C326.4,310.8,326.4,310.7,326.4,310.6z M329.2,306.3l0,0.9
	c0,0.7,0.1,1.2,0.3,1.5c0.2,0.3,0.5,0.4,0.9,0.4c0.3,0,0.6-0.1,0.8-0.3c0.2-0.2,0.3-0.5,0.3-0.9c0-0.5-0.2-0.9-0.5-1.2
	c-0.4-0.3-0.8-0.4-1.4-0.4H329.2z M328.8,305.4l3.1,0l0,0.9l-0.8,0c0.3,0.2,0.6,0.5,0.7,0.8c0.2,0.3,0.2,0.7,0.2,1.1
	c0,0.6-0.1,1-0.5,1.3c-0.3,0.3-0.7,0.5-1.3,0.5c-0.6,0-1.1-0.2-1.4-0.6c-0.3-0.4-0.5-1-0.5-1.8l0-1.3h-0.1c-0.4,0-0.7,0.1-0.9,0.4
	c-0.2,0.3-0.3,0.6-0.3,1.1c0,0.3,0,0.6,0.1,0.9c0.1,0.3,0.2,0.6,0.3,0.9l-0.8,0c-0.1-0.3-0.2-0.6-0.3-1c-0.1-0.3-0.1-0.6-0.1-0.9
	c0-0.8,0.2-1.4,0.6-1.8C327.4,305.6,328,305.4,328.8,305.4z M329.2,299.6c-0.7,0-1.2,0.1-1.6,0.4c-0.4,0.3-0.6,0.6-0.6,1.1
	c0,0.5,0.2,0.8,0.6,1.1c0.4,0.3,0.9,0.4,1.5,0.4c0.7,0,1.2-0.1,1.6-0.4c0.4-0.3,0.6-0.7,0.6-1.1c0-0.5-0.2-0.9-0.6-1.1
	C330.3,299.7,329.8,299.6,329.2,299.6z M324.3,302.7l3,0c-0.3-0.2-0.6-0.4-0.7-0.7c-0.2-0.3-0.2-0.6-0.2-1c0-0.7,0.3-1.2,0.8-1.6
	c0.5-0.4,1.2-0.6,2.1-0.6c0.9,0,1.6,0.2,2.1,0.6c0.5,0.4,0.8,0.9,0.8,1.6c0,0.4-0.1,0.7-0.2,1c-0.2,0.3-0.4,0.5-0.7,0.7l0.8,0l0,0.9
	l-7.6,0.1L324.3,302.7z M329.1,293.8l0,0.9c0,0.7,0.1,1.2,0.3,1.5c0.2,0.3,0.4,0.4,0.9,0.4c0.3,0,0.6-0.1,0.8-0.3
	c0.2-0.2,0.3-0.5,0.3-0.9c0-0.5-0.2-0.9-0.5-1.2c-0.4-0.3-0.8-0.5-1.4-0.5L329.1,293.8z M328.7,292.9l3.1,0l0,0.9l-0.8,0
	c0.3,0.2,0.6,0.5,0.7,0.8c0.2,0.3,0.2,0.7,0.2,1.1c0,0.6-0.1,1-0.5,1.3c-0.3,0.3-0.7,0.5-1.3,0.5c-0.6,0-1.1-0.2-1.4-0.6
	c-0.3-0.4-0.5-1-0.5-1.8l0-1.3h-0.1c-0.4,0-0.7,0.1-0.9,0.4c-0.2,0.3-0.3,0.7-0.3,1.1c0,0.3,0,0.6,0.1,0.9c0.1,0.3,0.2,0.6,0.4,0.9
	l-0.8,0c-0.1-0.3-0.2-0.7-0.3-1c-0.1-0.3-0.1-0.6-0.1-0.9c0-0.8,0.2-1.4,0.6-1.8S327.9,292.9,328.7,292.9z M327.1,287.5l-3,0v-0.9
	l7.6-0.1l0,0.9H331c0.3,0.2,0.6,0.4,0.7,0.7s0.2,0.6,0.2,1c0,0.7-0.3,1.2-0.8,1.6c-0.5,0.4-1.2,0.6-2.1,0.6c-0.9,0-1.6-0.2-2.1-0.6
	c-0.5-0.4-0.8-0.9-0.8-1.6c0-0.4,0.1-0.7,0.2-1C326.6,287.9,326.8,287.6,327.1,287.5z M329.1,290.5c0.7,0,1.2-0.1,1.6-0.4
	c0.4-0.3,0.6-0.6,0.5-1.1c0-0.5-0.2-0.8-0.6-1.1c-0.4-0.3-0.9-0.4-1.6-0.4s-1.2,0.1-1.5,0.4c-0.4,0.3-0.6,0.7-0.6,1.1
	c0,0.5,0.2,0.8,0.6,1.1C327.9,290.4,328.4,290.5,329.1,290.5z"/>
<path id="Karimnagar_1_" d="M347.1,197v-9.5h1.3v4l4.2-4h1.6l-4.7,4.4l5,5.1H353l-4.6-4.6v4.6H347.1z M359.8,193.4h-1.2
	c-0.9,0-1.6,0.1-2,0.3c-0.4,0.2-0.5,0.6-0.5,1.1c0,0.4,0.1,0.7,0.4,1c0.3,0.2,0.7,0.4,1.1,0.4c0.6,0,1.2-0.2,1.6-0.7
	c0.4-0.5,0.6-1.1,0.6-1.8V193.4z M360.9,192.9v4.1h-1.2v-1.1c-0.3,0.4-0.6,0.8-1,1c-0.4,0.2-0.9,0.3-1.5,0.3c-0.7,0-1.3-0.2-1.7-0.6
	c-0.4-0.4-0.6-1-0.6-1.6c0-0.8,0.3-1.4,0.8-1.8c0.5-0.4,1.3-0.6,2.4-0.6h1.6v-0.1c0-0.5-0.2-1-0.5-1.2c-0.3-0.3-0.8-0.4-1.5-0.4
	c-0.4,0-0.8,0.1-1.2,0.1c-0.4,0.1-0.8,0.2-1.1,0.4v-1.1c0.4-0.2,0.8-0.3,1.2-0.4c0.4-0.1,0.8-0.1,1.2-0.1c1,0,1.8,0.3,2.3,0.8
	C360.7,191.1,360.9,191.9,360.9,192.9z M367.4,189.8l0,1.2c-0.1-0.1-0.3-0.1-0.4-0.2c-0.2,0-0.3-0.1-0.5-0.1c-0.7,0-1.2,0.2-1.5,0.7
	c-0.4,0.4-0.5,1-0.5,1.8v3.8h-1.2v-7.1h1.2v1.1c0.2-0.4,0.6-0.8,1-1c0.4-0.2,0.9-0.3,1.4-0.3c0.1,0,0.2,0,0.3,0
	C367.2,189.7,367.3,189.8,367.4,189.8z M368.7,197v-7.1h1.2v7.1H368.7z M368.7,188.6v-1.5h1.2v1.5H368.7z M377.8,191.3
	c0.3-0.5,0.6-0.9,1-1.2c0.4-0.2,0.9-0.4,1.4-0.4c0.7,0,1.3,0.3,1.7,0.8c0.4,0.5,0.6,1.2,0.6,2.2v4.3h-1.2v-4.2
	c0-0.7-0.1-1.2-0.4-1.5c-0.2-0.3-0.6-0.5-1.1-0.5c-0.6,0-1.1,0.2-1.4,0.6c-0.4,0.4-0.5,0.9-0.5,1.6v4h-1.2v-4.2
	c0-0.7-0.1-1.2-0.4-1.5c-0.2-0.3-0.6-0.5-1.1-0.5c-0.6,0-1.1,0.2-1.4,0.6c-0.3,0.4-0.5,1-0.5,1.6v4h-1.2v-7.1h1.2v1.1
	c0.3-0.4,0.6-0.8,0.9-1c0.4-0.2,0.8-0.3,1.3-0.3c0.5,0,1,0.1,1.3,0.4C377.4,190.4,377.6,190.8,377.8,191.3z M390.9,192.7v4.3h-1.2
	v-4.2c0-0.7-0.1-1.2-0.4-1.5c-0.3-0.3-0.7-0.5-1.2-0.5c-0.6,0-1.1,0.2-1.5,0.6c-0.4,0.4-0.6,0.9-0.6,1.6v4h-1.2v-7.1h1.2v1.1
	c0.3-0.4,0.6-0.8,1-1c0.4-0.2,0.8-0.3,1.3-0.3c0.8,0,1.4,0.3,1.9,0.8C390.6,191,390.9,191.7,390.9,192.7z M397.6,193.4h-1.2
	c-0.9,0-1.6,0.1-2,0.3c-0.4,0.2-0.5,0.6-0.5,1.1c0,0.4,0.1,0.7,0.4,1c0.3,0.2,0.6,0.4,1.1,0.4c0.6,0,1.2-0.2,1.5-0.7
	c0.4-0.5,0.6-1.1,0.6-1.8V193.4z M398.8,192.9v4.1h-1.2v-1.1c-0.3,0.4-0.6,0.8-1,1c-0.4,0.2-0.9,0.3-1.5,0.3c-0.7,0-1.3-0.2-1.7-0.6
	c-0.4-0.4-0.6-1-0.6-1.6c0-0.8,0.3-1.4,0.8-1.8c0.5-0.4,1.3-0.6,2.4-0.6h1.6v-0.1c0-0.5-0.2-1-0.5-1.2s-0.9-0.4-1.5-0.4
	c-0.4,0-0.8,0.1-1.2,0.1c-0.4,0.1-0.8,0.2-1.1,0.4v-1.1c0.4-0.2,0.8-0.3,1.2-0.4c0.4-0.1,0.8-0.1,1.2-0.1c1,0,1.8,0.3,2.3,0.8
	C398.5,191.1,398.8,191.9,398.8,192.9z M405.8,193.4c0-0.8-0.2-1.5-0.5-2c-0.3-0.5-0.8-0.7-1.5-0.7c-0.6,0-1.1,0.2-1.5,0.7
	c-0.3,0.5-0.5,1.1-0.5,2c0,0.8,0.2,1.5,0.5,2c0.4,0.5,0.8,0.7,1.5,0.7c0.6,0,1.1-0.2,1.5-0.7C405.7,194.9,405.8,194.2,405.8,193.4z
	 M407,189.9v6.2c0,1.2-0.3,2.1-0.8,2.7c-0.5,0.6-1.4,0.9-2.5,0.9c-0.4,0-0.8,0-1.2-0.1c-0.4-0.1-0.7-0.2-1.1-0.3v-1.1
	c0.3,0.2,0.7,0.3,1,0.4c0.3,0.1,0.7,0.1,1,0.1c0.8,0,1.3-0.2,1.7-0.6c0.4-0.4,0.6-1,0.6-1.8v-0.6c-0.2,0.4-0.5,0.7-0.9,0.9
	c-0.4,0.2-0.8,0.3-1.4,0.3c-0.9,0-1.6-0.3-2.1-1c-0.5-0.7-0.8-1.5-0.8-2.6c0-1.1,0.3-2,0.8-2.6c0.5-0.7,1.2-1,2.1-1
	c0.5,0,1,0.1,1.4,0.3c0.4,0.2,0.7,0.5,0.9,0.9v-1.1H407z M413.8,193.4h-1.2c-0.9,0-1.6,0.1-2,0.3c-0.4,0.2-0.5,0.6-0.5,1.1
	c0,0.4,0.1,0.7,0.4,1c0.3,0.2,0.6,0.4,1.1,0.4c0.7,0,1.2-0.2,1.6-0.7c0.4-0.5,0.6-1.1,0.6-1.8V193.4z M415,192.9v4.1h-1.2v-1.1
	c-0.3,0.4-0.6,0.8-1,1c-0.4,0.2-0.9,0.3-1.5,0.3c-0.7,0-1.3-0.2-1.7-0.6c-0.4-0.4-0.6-1-0.6-1.6c0-0.8,0.3-1.4,0.8-1.8
	c0.5-0.4,1.3-0.6,2.4-0.6h1.6v-0.1c0-0.5-0.2-1-0.5-1.2s-0.8-0.4-1.5-0.4c-0.4,0-0.8,0.1-1.2,0.1c-0.4,0.1-0.8,0.2-1.1,0.4v-1.1
	c0.4-0.2,0.8-0.3,1.2-0.4c0.4-0.1,0.8-0.1,1.2-0.1c1,0,1.8,0.3,2.3,0.8C414.7,191.1,415,191.9,415,192.9z M421.5,189.8v1.2
	c-0.1-0.1-0.3-0.1-0.4-0.2c-0.2,0-0.3-0.1-0.5-0.1c-0.7,0-1.2,0.2-1.5,0.7c-0.4,0.4-0.5,1-0.5,1.8v3.8h-1.2v-7.1h1.2v1.1
	c0.2-0.4,0.6-0.8,1-1c0.4-0.2,0.9-0.3,1.4-0.3c0.1,0,0.2,0,0.3,0C421.3,189.7,421.4,189.8,421.5,189.8z"/>
<path id="Khammam_1_" d="M470.4,304v-9.5h1.3v4l4.2-4h1.6l-4.7,4.4l5,5.1h-1.7l-4.5-4.6v4.6H470.4z M484.7,299.7v4.3h-1.2v-4.2
	c0-0.7-0.1-1.2-0.4-1.5c-0.3-0.3-0.7-0.5-1.2-0.5c-0.6,0-1.1,0.2-1.5,0.6c-0.4,0.4-0.5,0.9-0.5,1.6v4h-1.2v-9.9h1.2v3.9
	c0.3-0.4,0.6-0.8,1-1c0.4-0.2,0.8-0.3,1.3-0.3c0.8,0,1.4,0.3,1.9,0.8C484.5,298,484.7,298.7,484.7,299.7z M491.5,300.4h-1.2
	c-0.9,0-1.6,0.1-2,0.3c-0.4,0.2-0.5,0.6-0.5,1.1c0,0.4,0.1,0.8,0.4,1c0.3,0.2,0.6,0.4,1.1,0.4c0.6,0,1.2-0.2,1.5-0.7
	c0.4-0.5,0.6-1.1,0.6-1.8V300.4z M492.6,299.9v4.1h-1.2v-1.1c-0.3,0.4-0.6,0.8-1,1c-0.4,0.2-0.9,0.3-1.5,0.3c-0.7,0-1.3-0.2-1.7-0.6
	c-0.4-0.4-0.6-1-0.6-1.6c0-0.8,0.3-1.4,0.8-1.8c0.5-0.4,1.3-0.6,2.4-0.6h1.6v-0.1c0-0.5-0.2-1-0.5-1.2s-0.9-0.4-1.5-0.4
	c-0.4,0-0.8,0-1.2,0.1c-0.4,0.1-0.8,0.2-1.1,0.4v-1.1c0.4-0.2,0.8-0.3,1.2-0.4c0.4-0.1,0.8-0.1,1.2-0.1c1,0,1.8,0.3,2.3,0.8
	C492.4,298.1,492.6,298.9,492.6,299.9z M500.6,298.3c0.3-0.5,0.6-0.9,1-1.2c0.4-0.2,0.9-0.4,1.4-0.4c0.7,0,1.3,0.3,1.7,0.8
	c0.4,0.5,0.6,1.2,0.6,2.2v4.3h-1.2v-4.2c0-0.7-0.1-1.2-0.4-1.5c-0.2-0.3-0.6-0.5-1.1-0.5c-0.6,0-1.1,0.2-1.4,0.6
	c-0.4,0.4-0.5,0.9-0.5,1.6v4h-1.2v-4.2c0-0.7-0.1-1.2-0.4-1.5c-0.2-0.3-0.6-0.5-1.1-0.5c-0.6,0-1.1,0.2-1.4,0.6
	c-0.3,0.4-0.5,1-0.5,1.6v4H495v-7.1h1.2v1.1c0.3-0.4,0.6-0.8,1-1c0.4-0.2,0.8-0.3,1.3-0.3c0.5,0,1,0.1,1.3,0.4
	C500.1,297.4,500.4,297.8,500.6,298.3z M513.2,298.3c0.3-0.5,0.6-0.9,1-1.2c0.4-0.2,0.9-0.4,1.4-0.4c0.7,0,1.3,0.3,1.7,0.8
	c0.4,0.5,0.6,1.2,0.6,2.2v4.3h-1.2v-4.2c0-0.7-0.1-1.2-0.4-1.5c-0.2-0.3-0.6-0.5-1.1-0.5c-0.6,0-1.1,0.2-1.4,0.6
	c-0.4,0.4-0.5,0.9-0.5,1.6v4h-1.2v-4.2c0-0.7-0.1-1.2-0.4-1.5c-0.2-0.3-0.6-0.5-1.1-0.5c-0.6,0-1.1,0.2-1.4,0.6
	c-0.4,0.4-0.5,1-0.5,1.6v4h-1.2v-7.1h1.2v1.1c0.3-0.4,0.6-0.8,1-1c0.4-0.2,0.8-0.3,1.3-0.3c0.5,0,1,0.1,1.3,0.4
	C512.8,297.4,513.1,297.8,513.2,298.3z M524.8,300.4h-1.2c-0.9,0-1.6,0.1-2,0.3c-0.4,0.2-0.5,0.6-0.5,1.1c0,0.4,0.1,0.8,0.4,1
	c0.3,0.2,0.7,0.4,1.1,0.4c0.6,0,1.2-0.2,1.6-0.7c0.4-0.5,0.6-1.1,0.6-1.8V300.4z M525.9,299.9v4.1h-1.2v-1.1c-0.3,0.4-0.6,0.8-1,1
	c-0.4,0.2-0.9,0.3-1.5,0.3c-0.7,0-1.3-0.2-1.7-0.6c-0.4-0.4-0.6-1-0.6-1.6c0-0.8,0.3-1.4,0.8-1.8c0.5-0.4,1.3-0.6,2.4-0.6h1.6v-0.1
	c0-0.5-0.2-1-0.5-1.2c-0.3-0.3-0.8-0.4-1.5-0.4c-0.4,0-0.8,0-1.2,0.1c-0.4,0.1-0.8,0.2-1.1,0.4v-1.1c0.4-0.2,0.8-0.3,1.2-0.4
	c0.4-0.1,0.8-0.1,1.2-0.1c1,0,1.8,0.3,2.3,0.8C525.7,298.1,525.9,298.9,525.9,299.9z M533.9,298.3c0.3-0.5,0.6-0.9,1-1.2
	c0.4-0.2,0.9-0.4,1.4-0.4c0.7,0,1.3,0.3,1.7,0.8c0.4,0.5,0.6,1.2,0.6,2.2v4.3h-1.2v-4.2c0-0.7-0.1-1.2-0.4-1.5
	c-0.2-0.3-0.6-0.5-1.1-0.5c-0.6,0-1.1,0.2-1.4,0.6c-0.4,0.4-0.5,0.9-0.5,1.6v4h-1.2v-4.2c0-0.7-0.1-1.2-0.4-1.5
	c-0.2-0.3-0.6-0.5-1.1-0.5c-0.6,0-1.1,0.2-1.4,0.6c-0.4,0.4-0.5,1-0.5,1.6v4h-1.2v-7.1h1.2v1.1c0.3-0.4,0.6-0.8,1-1
	c0.4-0.2,0.8-0.3,1.3-0.3s1,0.1,1.3,0.4C533.4,297.4,533.7,297.8,533.9,298.3z"/>
<path id="Mahbubnagar_1_" d="M265.8,429v-9.5h1.9l2.4,6.5l2.4-6.5h1.9v9.5h-1.2v-8.3l-2.5,6.5h-1.3l-2.5-6.5v8.3H265.8z
	 M281.3,425.4h-1.2c-0.9,0-1.6,0.1-2,0.3c-0.4,0.2-0.5,0.6-0.5,1.1c0,0.4,0.1,0.8,0.4,1c0.3,0.2,0.7,0.4,1.1,0.4
	c0.6,0,1.2-0.2,1.6-0.7c0.4-0.5,0.6-1.1,0.6-1.8V425.4z M282.5,424.9v4.1h-1.2v-1.1c-0.3,0.4-0.6,0.8-1,1c-0.4,0.2-0.9,0.3-1.5,0.3
	c-0.7,0-1.3-0.2-1.7-0.6c-0.4-0.4-0.6-1-0.6-1.6c0-0.8,0.3-1.4,0.8-1.8c0.5-0.4,1.3-0.6,2.4-0.6h1.6v-0.1c0-0.5-0.2-1-0.5-1.2
	c-0.3-0.3-0.8-0.4-1.5-0.4c-0.4,0-0.8,0.1-1.2,0.1c-0.4,0.1-0.8,0.2-1.1,0.4v-1.1c0.4-0.2,0.8-0.3,1.2-0.4c0.4-0.1,0.8-0.1,1.2-0.1
	c1,0,1.8,0.3,2.3,0.8C282.2,423.1,282.5,423.9,282.5,424.9z M290.8,424.7v4.3h-1.2v-4.2c0-0.7-0.1-1.2-0.4-1.5
	c-0.3-0.3-0.7-0.5-1.2-0.5c-0.6,0-1.1,0.2-1.5,0.6c-0.4,0.4-0.5,0.9-0.5,1.6v4h-1.2v-9.9h1.2v3.9c0.3-0.4,0.6-0.8,1-1
	c0.4-0.2,0.8-0.3,1.3-0.3c0.8,0,1.4,0.3,1.9,0.8C290.6,423,290.8,423.7,290.8,424.7z M298.2,425.5c0-0.9-0.2-1.5-0.5-2
	c-0.4-0.5-0.8-0.7-1.5-0.7c-0.6,0-1.1,0.2-1.5,0.7c-0.4,0.5-0.5,1.2-0.5,2c0,0.9,0.2,1.5,0.5,2c0.4,0.5,0.8,0.7,1.5,0.7
	c0.6,0,1.1-0.2,1.5-0.7C298,427,298.2,426.3,298.2,425.5z M294.2,419.1v3.9c0.2-0.4,0.6-0.7,0.9-0.9c0.4-0.2,0.8-0.3,1.3-0.3
	c0.9,0,1.6,0.3,2.1,1c0.5,0.7,0.8,1.6,0.8,2.7c0,1.1-0.3,2-0.8,2.7c-0.5,0.7-1.2,1-2.1,1c-0.5,0-1-0.1-1.3-0.3
	c-0.4-0.2-0.7-0.5-0.9-1v1.1h-1.2v-9.9H294.2z M301.2,426.2v-4.3h1.2v4.3c0,0.7,0.1,1.2,0.4,1.5c0.3,0.3,0.7,0.5,1.2,0.5
	c0.6,0,1.1-0.2,1.5-0.6c0.4-0.4,0.6-1,0.6-1.6v-4h1.2v7.1H306v-1.1c-0.3,0.4-0.6,0.8-1,1s-0.8,0.3-1.3,0.3c-0.8,0-1.4-0.3-1.9-0.8
	C301.5,427.9,301.2,427.2,301.2,426.2z M304.2,421.7L304.2,421.7z M314.7,425.5c0-0.9-0.2-1.5-0.5-2c-0.4-0.5-0.8-0.7-1.4-0.7
	c-0.6,0-1.1,0.2-1.5,0.7c-0.4,0.5-0.5,1.2-0.5,2c0,0.9,0.2,1.5,0.5,2c0.4,0.5,0.8,0.7,1.5,0.7c0.6,0,1.1-0.2,1.4-0.7
	C314.5,427,314.7,426.3,314.7,425.5z M310.7,419.1v3.9c0.2-0.4,0.6-0.7,0.9-0.9c0.4-0.2,0.8-0.3,1.3-0.3c0.9,0,1.6,0.3,2.1,1
	c0.5,0.7,0.8,1.6,0.8,2.7c0,1.1-0.3,2-0.8,2.7c-0.5,0.7-1.2,1-2.1,1c-0.5,0-1-0.1-1.3-0.3c-0.4-0.2-0.7-0.5-0.9-1v1.1h-1.2v-9.9
	H310.7z M323.8,424.7v4.3h-1.2v-4.2c0-0.7-0.1-1.2-0.4-1.5c-0.3-0.3-0.7-0.5-1.2-0.5c-0.6,0-1.1,0.2-1.5,0.6
	c-0.4,0.4-0.6,0.9-0.6,1.6v4h-1.2v-7.1h1.2v1.1c0.3-0.4,0.6-0.8,1-1c0.4-0.2,0.8-0.3,1.3-0.3c0.8,0,1.4,0.3,1.9,0.8
	C323.6,423,323.8,423.7,323.8,424.7z M330.5,425.4h-1.2c-0.9,0-1.6,0.1-2,0.3c-0.4,0.2-0.5,0.6-0.5,1.1c0,0.4,0.1,0.8,0.4,1
	c0.3,0.2,0.6,0.4,1.1,0.4c0.6,0,1.2-0.2,1.5-0.7c0.4-0.5,0.6-1.1,0.6-1.8V425.4z M331.7,424.9v4.1h-1.2v-1.1c-0.3,0.4-0.6,0.8-1,1
	c-0.4,0.2-0.9,0.3-1.5,0.3c-0.7,0-1.3-0.2-1.7-0.6c-0.4-0.4-0.6-1-0.6-1.6c0-0.8,0.3-1.4,0.8-1.8c0.5-0.4,1.3-0.6,2.4-0.6h1.6v-0.1
	c0-0.5-0.2-1-0.5-1.2s-0.8-0.4-1.5-0.4c-0.4,0-0.8,0.1-1.2,0.1c-0.4,0.1-0.8,0.2-1.1,0.4v-1.1c0.4-0.2,0.8-0.3,1.2-0.4
	c0.4-0.1,0.8-0.1,1.2-0.1c1,0,1.8,0.3,2.3,0.8C331.4,423.1,331.7,423.9,331.7,424.9z M338.8,425.4c0-0.8-0.2-1.5-0.5-2
	c-0.3-0.5-0.8-0.7-1.5-0.7c-0.6,0-1.1,0.2-1.5,0.7c-0.3,0.5-0.5,1.1-0.5,2c0,0.8,0.2,1.5,0.5,2c0.3,0.5,0.8,0.7,1.5,0.7
	c0.6,0,1.1-0.2,1.5-0.7C338.6,426.9,338.8,426.2,338.8,425.4z M339.9,421.9v6.2c0,1.2-0.3,2.1-0.8,2.7c-0.5,0.6-1.4,0.9-2.5,0.9
	c-0.4,0-0.8,0-1.2-0.1c-0.4-0.1-0.7-0.2-1.1-0.3v-1.1c0.3,0.2,0.7,0.3,1,0.4c0.3,0.1,0.7,0.1,1,0.1c0.8,0,1.3-0.2,1.7-0.6
	c0.4-0.4,0.6-1,0.6-1.8v-0.6c-0.2,0.4-0.6,0.7-0.9,0.9c-0.4,0.2-0.8,0.3-1.4,0.3c-0.9,0-1.6-0.3-2.1-1c-0.5-0.7-0.8-1.5-0.8-2.6
	c0-1.1,0.3-2,0.8-2.6c0.5-0.7,1.2-1,2.1-1c0.5,0,1,0.1,1.4,0.3c0.4,0.2,0.7,0.5,0.9,0.9v-1.1H339.9z M346.7,425.4h-1.2
	c-0.9,0-1.6,0.1-2,0.3c-0.4,0.2-0.5,0.6-0.5,1.1c0,0.4,0.1,0.8,0.4,1c0.3,0.2,0.6,0.4,1.1,0.4c0.6,0,1.2-0.2,1.5-0.7
	c0.4-0.5,0.6-1.1,0.6-1.8V425.4z M347.9,424.9v4.1h-1.2v-1.1c-0.3,0.4-0.6,0.8-1,1c-0.4,0.2-0.9,0.3-1.5,0.3c-0.7,0-1.3-0.2-1.7-0.6
	c-0.4-0.4-0.6-1-0.6-1.6c0-0.8,0.3-1.4,0.8-1.8c0.5-0.4,1.3-0.6,2.4-0.6h1.6v-0.1c0-0.5-0.2-1-0.5-1.2s-0.9-0.4-1.5-0.4
	c-0.4,0-0.8,0.1-1.2,0.1c-0.4,0.1-0.8,0.2-1.1,0.4v-1.1c0.4-0.2,0.8-0.3,1.2-0.4c0.4-0.1,0.8-0.1,1.2-0.1c1,0,1.8,0.3,2.3,0.8
	C347.6,423.1,347.9,423.9,347.9,424.9z M354.4,421.8l0,1.2c-0.1-0.1-0.3-0.1-0.4-0.2c-0.1,0-0.3-0.1-0.5-0.1c-0.7,0-1.2,0.2-1.5,0.6
	c-0.3,0.4-0.5,1-0.5,1.8v3.8h-1.2v-7.1h1.2v1.1c0.2-0.4,0.6-0.8,0.9-1c0.4-0.2,0.9-0.3,1.4-0.3c0.1,0,0.2,0,0.3,0
	C354.2,421.7,354.3,421.8,354.4,421.8z"/>
<path id="Medak_1_" d="M286.4,269v-9.5h1.9l2.4,6.5l2.4-6.5h1.9v9.5h-1.2v-8.3l-2.5,6.5h-1.3l-2.4-6.5v8.3H286.4z M303.6,265.1v0.6
	h-5.4c0.1,0.8,0.3,1.4,0.7,1.9c0.4,0.4,1,0.6,1.8,0.6c0.4,0,0.9-0.1,1.3-0.2c0.4-0.1,0.8-0.3,1.3-0.5v1.1c-0.4,0.2-0.8,0.3-1.3,0.4
	c-0.4,0.1-0.9,0.1-1.3,0.1c-1.1,0-2-0.3-2.7-1c-0.7-0.7-1-1.5-1-2.7c0-1.2,0.3-2.1,0.9-2.8c0.6-0.7,1.5-1,2.5-1c1,0,1.7,0.3,2.3,0.9
	C303.4,263.3,303.6,264.1,303.6,265.1z M298.3,264.8l4.2,0c0-0.6-0.2-1.1-0.5-1.5c-0.3-0.4-0.8-0.6-1.4-0.6c-0.7,0-1.2,0.2-1.6,0.6
	C298.6,263.6,298.4,264.1,298.3,264.8z M310.2,263v-3.9h1.2v9.9h-1.2v-1.1c-0.2,0.4-0.6,0.7-0.9,1c-0.4,0.2-0.8,0.3-1.3,0.3
	c-0.9,0-1.6-0.3-2.1-1c-0.5-0.7-0.8-1.6-0.8-2.7c0-1.1,0.3-2,0.8-2.7c0.5-0.7,1.2-1,2.1-1c0.5,0,1,0.1,1.3,0.3
	C309.7,262.2,310,262.5,310.2,263z M306.2,265.5c0,0.9,0.2,1.5,0.5,2c0.4,0.5,0.8,0.7,1.5,0.7c0.6,0,1.1-0.2,1.5-0.7
	c0.4-0.5,0.5-1.2,0.5-2c0-0.9-0.2-1.5-0.5-2c-0.4-0.5-0.8-0.7-1.5-0.7c-0.6,0-1.1,0.2-1.5,0.7C306.4,263.9,306.2,264.6,306.2,265.5z
	 M318.2,265.4H317c-0.9,0-1.6,0.1-2,0.3s-0.6,0.6-0.6,1.1c0,0.4,0.1,0.8,0.4,1c0.3,0.2,0.6,0.4,1.1,0.4c0.6,0,1.2-0.2,1.6-0.7
	c0.4-0.5,0.6-1.1,0.6-1.8V265.4z M319.4,264.9v4.1h-1.2v-1.1c-0.3,0.4-0.6,0.8-1,1c-0.4,0.2-0.9,0.3-1.5,0.3c-0.7,0-1.3-0.2-1.7-0.6
	c-0.4-0.4-0.6-1-0.6-1.6c0-0.8,0.3-1.4,0.8-1.8c0.5-0.4,1.3-0.6,2.4-0.6h1.6v-0.1c0-0.5-0.2-1-0.5-1.2s-0.8-0.4-1.5-0.4
	c-0.4,0-0.8,0-1.2,0.1c-0.4,0.1-0.8,0.2-1.1,0.4v-1.1c0.4-0.2,0.8-0.3,1.2-0.4c0.4-0.1,0.8-0.1,1.2-0.1c1,0,1.8,0.3,2.3,0.8
	C319.1,263.1,319.4,263.9,319.4,264.9z M321.7,269v-9.9h1.2v5.8l3.5-3.1h1.5l-3.8,3.3l3.9,3.8h-1.5l-3.6-3.5v3.5H321.7z"/>
<path id="Nalgonda_1_" d="M360.5,349v-9.5h1.7l4.2,7.9v-7.9h1.2v9.5H366l-4.2-7.9v7.9H360.5z M374.6,345.4h-1.2
	c-0.9,0-1.6,0.1-2,0.3c-0.4,0.2-0.6,0.6-0.6,1.1c0,0.4,0.1,0.8,0.4,1c0.3,0.2,0.6,0.4,1.1,0.4c0.7,0,1.2-0.2,1.6-0.7
	c0.4-0.5,0.6-1.1,0.6-1.8V345.4z M375.7,344.9v4.1h-1.2v-1.1c-0.3,0.4-0.6,0.8-1,1c-0.4,0.2-0.9,0.3-1.5,0.3c-0.7,0-1.3-0.2-1.7-0.6
	c-0.4-0.4-0.6-1-0.6-1.6c0-0.8,0.3-1.4,0.8-1.8c0.5-0.4,1.3-0.6,2.4-0.6h1.6v-0.1c0-0.5-0.2-1-0.5-1.2s-0.8-0.4-1.5-0.4
	c-0.4,0-0.8,0.1-1.2,0.1c-0.4,0.1-0.7,0.2-1.1,0.4v-1.1c0.4-0.2,0.8-0.3,1.2-0.4c0.4-0.1,0.8-0.1,1.2-0.1c1,0,1.8,0.3,2.3,0.8
	C375.5,343.1,375.7,343.9,375.7,344.9z M378.1,349v-9.9h1.2v9.9H378.1z M386.4,345.4c0-0.8-0.2-1.5-0.5-2c-0.3-0.5-0.8-0.7-1.5-0.7
	c-0.6,0-1.1,0.2-1.5,0.7c-0.3,0.5-0.5,1.1-0.5,2c0,0.8,0.2,1.5,0.5,2c0.4,0.5,0.8,0.7,1.5,0.7c0.6,0,1.1-0.2,1.5-0.7
	C386.3,346.9,386.4,346.2,386.4,345.4z M387.6,341.9v6.2c0,1.2-0.3,2.1-0.8,2.7c-0.5,0.6-1.4,0.9-2.5,0.9c-0.4,0-0.8,0-1.2-0.1
	c-0.4-0.1-0.7-0.2-1.1-0.3v-1.1c0.3,0.2,0.7,0.3,1,0.4c0.3,0.1,0.7,0.1,1,0.1c0.8,0,1.3-0.2,1.7-0.6c0.4-0.4,0.6-1,0.6-1.8v-0.6
	c-0.2,0.4-0.5,0.7-0.9,0.9c-0.4,0.2-0.8,0.3-1.4,0.3c-0.9,0-1.6-0.3-2.1-1c-0.5-0.7-0.8-1.5-0.8-2.6c0-1.1,0.3-2,0.8-2.6
	c0.5-0.7,1.2-1,2.1-1c0.5,0,1,0.1,1.4,0.3c0.4,0.2,0.7,0.5,0.9,0.9v-1.1H387.6z M392.8,342.7c-0.6,0-1.1,0.2-1.5,0.7
	c-0.4,0.5-0.5,1.2-0.5,2c0,0.9,0.2,1.5,0.5,2c0.4,0.5,0.9,0.7,1.5,0.7c0.6,0,1.1-0.2,1.5-0.7c0.4-0.5,0.6-1.2,0.6-2
	c0-0.8-0.2-1.5-0.6-2C393.9,343,393.4,342.7,392.8,342.7z M392.8,341.7c1,0,1.8,0.3,2.4,1c0.6,0.7,0.9,1.6,0.9,2.7
	c0,1.2-0.3,2.1-0.9,2.7c-0.6,0.7-1.4,1-2.4,1c-1,0-1.8-0.3-2.4-1c-0.6-0.7-0.9-1.6-0.9-2.7c0-1.2,0.3-2.1,0.9-2.7
	C390.9,342.1,391.7,341.7,392.8,341.7z M403.9,344.7v4.3h-1.2v-4.2c0-0.7-0.1-1.2-0.4-1.5c-0.3-0.3-0.7-0.5-1.2-0.5
	c-0.6,0-1.1,0.2-1.5,0.6c-0.4,0.4-0.6,0.9-0.6,1.6v4h-1.2v-7.1h1.2v1.1c0.3-0.4,0.6-0.8,1-1c0.4-0.2,0.8-0.3,1.3-0.3
	c0.8,0,1.4,0.3,1.8,0.8S403.9,343.7,403.9,344.7z M410.9,343v-3.9h1.2v9.9h-1.2v-1.1c-0.2,0.4-0.6,0.7-0.9,1
	c-0.4,0.2-0.8,0.3-1.4,0.3c-0.9,0-1.6-0.3-2.1-1c-0.5-0.7-0.8-1.6-0.8-2.7c0-1.1,0.3-2,0.8-2.7s1.2-1,2.1-1c0.5,0,1,0.1,1.4,0.3
	C410.3,342.2,410.6,342.5,410.9,343z M406.9,345.5c0,0.9,0.2,1.5,0.5,2c0.4,0.5,0.8,0.7,1.5,0.7c0.6,0,1.1-0.2,1.5-0.7
	c0.4-0.5,0.5-1.2,0.5-2c0-0.9-0.2-1.5-0.5-2c-0.4-0.5-0.8-0.7-1.5-0.7c-0.6,0-1.1,0.2-1.5,0.7C407.1,343.9,406.9,344.6,406.9,345.5z
	 M418.8,345.4h-1.2c-0.9,0-1.6,0.1-2,0.3c-0.4,0.2-0.5,0.6-0.5,1.1c0,0.4,0.1,0.8,0.4,1c0.3,0.2,0.6,0.4,1.1,0.4
	c0.6,0,1.2-0.2,1.5-0.7c0.4-0.5,0.6-1.1,0.6-1.8V345.4z M420,344.9v4.1h-1.2v-1.1c-0.3,0.4-0.6,0.8-1,1c-0.4,0.2-0.9,0.3-1.5,0.3
	c-0.7,0-1.3-0.2-1.7-0.6c-0.4-0.4-0.6-1-0.6-1.6c0-0.8,0.3-1.4,0.8-1.8c0.5-0.4,1.3-0.6,2.4-0.6h1.6v-0.1c0-0.5-0.2-1-0.5-1.2
	s-0.8-0.4-1.5-0.4c-0.4,0-0.8,0.1-1.2,0.1c-0.4,0.1-0.8,0.2-1.1,0.4v-1.1c0.4-0.2,0.8-0.3,1.2-0.4c0.4-0.1,0.8-0.1,1.2-0.1
	c1,0,1.8,0.3,2.3,0.8C419.8,343.1,420,343.9,420,344.9z"/>
<path id="Nizamabad_1_" d="M258.8,216v-9.5h1.7l4.2,7.9v-7.9h1.2v9.5h-1.7l-4.2-7.9v7.9H258.8z M268.4,216v-7.1h1.2v7.1H268.4z
	 M268.4,207.6v-1.5h1.2v1.5H268.4z M271.5,209.8v-0.9h5.5v1.1l-4.4,5.1h4.4v0.9h-5.7v-1.1l4.4-5.1H271.5z M283.3,212.4h-1.2
	c-0.9,0-1.6,0.1-2,0.3c-0.4,0.2-0.5,0.6-0.5,1.1c0,0.4,0.1,0.7,0.4,1c0.3,0.2,0.7,0.4,1.1,0.4c0.6,0,1.2-0.2,1.6-0.7
	c0.4-0.5,0.6-1.1,0.6-1.8V212.4z M284.4,211.9v4.1h-1.2v-1.1c-0.3,0.4-0.6,0.8-1,1c-0.4,0.2-0.9,0.3-1.5,0.3c-0.7,0-1.3-0.2-1.7-0.6
	c-0.4-0.4-0.6-1-0.6-1.6c0-0.8,0.3-1.4,0.8-1.8c0.5-0.4,1.3-0.6,2.4-0.6h1.6v-0.1c0-0.5-0.2-1-0.5-1.2c-0.3-0.3-0.8-0.4-1.5-0.4
	c-0.4,0-0.8,0.1-1.2,0.1c-0.4,0.1-0.8,0.2-1.1,0.4v-1.1c0.4-0.2,0.8-0.3,1.2-0.4c0.4-0.1,0.8-0.1,1.2-0.1c1,0,1.8,0.3,2.3,0.8
	C284.2,210.1,284.4,210.9,284.4,211.9z M292.4,210.3c0.3-0.5,0.6-0.9,1-1.2c0.4-0.2,0.9-0.4,1.4-0.4c0.7,0,1.3,0.3,1.7,0.8
	c0.4,0.5,0.6,1.2,0.6,2.2v4.3H296v-4.2c0-0.7-0.1-1.2-0.4-1.5c-0.2-0.3-0.6-0.5-1.1-0.5c-0.6,0-1.1,0.2-1.4,0.6
	c-0.4,0.4-0.5,0.9-0.5,1.6v4h-1.2v-4.2c0-0.7-0.1-1.2-0.4-1.5c-0.2-0.3-0.6-0.5-1.1-0.5c-0.6,0-1.1,0.2-1.4,0.6
	c-0.4,0.4-0.5,1-0.5,1.6v4h-1.2v-7.1h1.2v1.1c0.3-0.4,0.6-0.8,1-1c0.4-0.2,0.8-0.3,1.3-0.3c0.5,0,0.9,0.1,1.3,0.4
	C291.9,209.4,292.2,209.8,292.4,210.3z M303.9,212.4h-1.2c-0.9,0-1.6,0.1-2,0.3c-0.4,0.2-0.5,0.6-0.5,1.1c0,0.4,0.1,0.7,0.4,1
	c0.3,0.2,0.7,0.4,1.1,0.4c0.6,0,1.2-0.2,1.6-0.7c0.4-0.5,0.6-1.1,0.6-1.8V212.4z M305.1,211.9v4.1h-1.2v-1.1c-0.3,0.4-0.6,0.8-1,1
	c-0.4,0.2-0.9,0.3-1.5,0.3c-0.7,0-1.3-0.2-1.7-0.6c-0.4-0.4-0.6-1-0.6-1.6c0-0.8,0.3-1.4,0.8-1.8c0.5-0.4,1.3-0.6,2.4-0.6h1.6v-0.1
	c0-0.5-0.2-1-0.5-1.2c-0.3-0.3-0.8-0.4-1.5-0.4c-0.4,0-0.8,0.1-1.2,0.1c-0.4,0.1-0.8,0.2-1.1,0.4v-1.1c0.4-0.2,0.8-0.3,1.2-0.4
	c0.4-0.1,0.8-0.1,1.2-0.1c1,0,1.8,0.3,2.3,0.8C304.8,210.1,305.1,210.9,305.1,211.9z M312.6,212.4c0-0.9-0.2-1.5-0.5-2
	s-0.8-0.7-1.5-0.7c-0.6,0-1.1,0.2-1.5,0.7s-0.5,1.2-0.5,2c0,0.9,0.2,1.5,0.5,2c0.4,0.5,0.8,0.7,1.5,0.7c0.6,0,1.1-0.2,1.5-0.7
	C312.4,214,312.6,213.3,312.6,212.4z M308.6,206.1v3.9c0.2-0.4,0.6-0.7,0.9-0.9c0.4-0.2,0.8-0.3,1.3-0.3c0.9,0,1.6,0.3,2.1,1
	c0.5,0.7,0.8,1.6,0.8,2.7c0,1.1-0.3,2-0.8,2.7c-0.5,0.7-1.2,1-2.1,1c-0.5,0-1-0.1-1.3-0.3c-0.4-0.2-0.7-0.5-0.9-1v1.1h-1.2v-9.9
	H308.6z M320.1,212.4H319c-0.9,0-1.6,0.1-2,0.3c-0.4,0.2-0.5,0.6-0.5,1.1c0,0.4,0.1,0.7,0.4,1c0.3,0.2,0.6,0.4,1.1,0.4
	c0.6,0,1.2-0.2,1.5-0.7c0.4-0.5,0.6-1.1,0.6-1.8V212.4z M321.3,211.9v4.1h-1.2v-1.1c-0.3,0.4-0.6,0.8-1,1c-0.4,0.2-0.9,0.3-1.5,0.3
	c-0.7,0-1.3-0.2-1.7-0.6c-0.4-0.4-0.6-1-0.6-1.6c0-0.8,0.3-1.4,0.8-1.8s1.3-0.6,2.4-0.6h1.6v-0.1c0-0.5-0.2-1-0.5-1.2
	s-0.8-0.4-1.5-0.4c-0.4,0-0.8,0.1-1.2,0.1c-0.4,0.1-0.8,0.2-1.1,0.4v-1.1c0.4-0.2,0.8-0.3,1.2-0.4c0.4-0.1,0.8-0.1,1.2-0.1
	c1,0,1.8,0.3,2.3,0.8C321,210.1,321.3,210.9,321.3,211.9z M328.4,210v-3.9h1.2v9.9h-1.2v-1.1c-0.2,0.4-0.6,0.7-0.9,1
	c-0.4,0.2-0.8,0.3-1.3,0.3c-0.9,0-1.6-0.3-2.1-1c-0.5-0.7-0.8-1.6-0.8-2.7c0-1.1,0.3-2,0.8-2.7s1.2-1,2.1-1c0.5,0,1,0.1,1.3,0.3
	C327.8,209.2,328.1,209.5,328.4,210z M324.4,212.4c0,0.9,0.2,1.5,0.5,2c0.4,0.5,0.8,0.7,1.5,0.7c0.6,0,1.1-0.2,1.5-0.7
	c0.4-0.5,0.5-1.2,0.5-2c0-0.9-0.2-1.5-0.5-2c-0.4-0.5-0.8-0.7-1.5-0.7c-0.6,0-1.1,0.2-1.5,0.7C324.6,210.9,324.4,211.6,324.4,212.4z
	"/>
<path id="R.Reddy_1_" d="M255.3,321.6c0.3,0.1,0.5,0.3,0.8,0.6c0.3,0.3,0.5,0.7,0.8,1.3l1.3,2.6h-1.4l-1.2-2.4
	c-0.3-0.6-0.6-1.1-0.9-1.3c-0.3-0.2-0.7-0.3-1.2-0.3h-1.4v4h-1.3v-9.5h2.9c1.1,0,1.9,0.2,2.4,0.7c0.5,0.5,0.8,1.1,0.8,2
	c0,0.6-0.1,1.1-0.4,1.5C256.2,321.1,255.8,321.4,255.3,321.6z M253.7,317.6h-1.6v3.4h1.6c0.6,0,1.1-0.1,1.4-0.4
	c0.3-0.3,0.5-0.7,0.5-1.3s-0.2-1-0.5-1.2S254.3,317.6,253.7,317.6z M259.5,326v-1.6h1.3v1.6H259.5z M268,321.6
	c0.3,0.1,0.5,0.3,0.8,0.6c0.3,0.3,0.5,0.7,0.8,1.3l1.3,2.6h-1.4l-1.2-2.4c-0.3-0.6-0.6-1.1-0.9-1.3c-0.3-0.2-0.7-0.3-1.2-0.3h-1.4v4
	h-1.3v-9.5h2.9c1.1,0,1.9,0.2,2.4,0.7c0.5,0.5,0.8,1.1,0.8,2c0,0.6-0.1,1.1-0.4,1.5S268.5,321.4,268,321.6z M266.4,317.6h-1.6v3.4
	h1.6c0.6,0,1.1-0.1,1.4-0.4c0.3-0.3,0.5-0.7,0.5-1.3s-0.2-1-0.5-1.2C267.5,317.7,267,317.6,266.4,317.6z M278,322.1v0.6h-5.4
	c0,0.8,0.3,1.4,0.7,1.9c0.4,0.4,1,0.6,1.8,0.6c0.5,0,0.9-0.1,1.3-0.2c0.4-0.1,0.8-0.3,1.2-0.5v1.1c-0.4,0.2-0.9,0.3-1.3,0.4
	c-0.4,0.1-0.9,0.1-1.3,0.1c-1.1,0-2-0.3-2.7-1s-1-1.5-1-2.7c0-1.2,0.3-2.1,0.9-2.8c0.6-0.7,1.5-1,2.5-1c1,0,1.7,0.3,2.3,0.9
	C277.7,320.3,278,321.1,278,322.1z M272.6,321.8l4.2,0c0-0.6-0.2-1.1-0.5-1.5s-0.8-0.6-1.4-0.6c-0.6,0-1.2,0.2-1.6,0.6
	S272.7,321.1,272.6,321.8z M284.5,320v-3.9h1.2v9.9h-1.2v-1.1c-0.2,0.4-0.6,0.7-0.9,1c-0.4,0.2-0.8,0.3-1.4,0.3
	c-0.9,0-1.6-0.3-2.1-1c-0.5-0.7-0.8-1.6-0.8-2.7c0-1.1,0.3-2,0.8-2.7c0.5-0.7,1.2-1,2.1-1c0.5,0,1,0.1,1.4,0.3
	C284,319.2,284.3,319.5,284.5,320z M280.6,322.5c0,0.9,0.2,1.5,0.5,2c0.4,0.5,0.8,0.7,1.5,0.7c0.6,0,1.1-0.2,1.5-0.7
	c0.4-0.5,0.5-1.2,0.5-2c0-0.9-0.2-1.5-0.5-2c-0.4-0.5-0.8-0.7-1.5-0.7c-0.6,0-1.1,0.2-1.5,0.7S280.6,321.6,280.6,322.5z M292.8,320
	v-3.9h1.2v9.9h-1.2v-1.1c-0.2,0.4-0.6,0.7-0.9,1c-0.4,0.2-0.8,0.3-1.4,0.3c-0.9,0-1.6-0.3-2.1-1c-0.5-0.7-0.8-1.6-0.8-2.7
	c0-1.1,0.3-2,0.8-2.7c0.5-0.7,1.2-1,2.1-1c0.5,0,1,0.1,1.4,0.3C292.2,319.2,292.6,319.5,292.8,320z M288.8,322.5
	c0,0.9,0.2,1.5,0.5,2c0.4,0.5,0.8,0.7,1.5,0.7s1.1-0.2,1.5-0.7c0.4-0.5,0.5-1.2,0.5-2c0-0.9-0.2-1.5-0.5-2s-0.8-0.7-1.5-0.7
	s-1.1,0.2-1.5,0.7S288.8,321.6,288.8,322.5z M302.5,318.9l-3.1,7.8c-0.3,0.8-0.6,1.4-1,1.7c-0.3,0.3-0.7,0.4-1.3,0.4h-0.9v-1h0.7
	c0.3,0,0.6-0.1,0.7-0.2c0.2-0.2,0.4-0.5,0.6-1.1l0.2-0.5l-2.9-7h1.2l2.2,5.6l2.2-5.6H302.5z"/>
<path id="Warangal_1_" d="M380.5,277l-2.4-9.5h1.3l2,8l2-8h1.4l2,8l2-8h1.3l-2.4,9.5h-1.6l-2-8.2l-2,8.2H380.5z M395.4,273.4h-1.2
	c-0.9,0-1.6,0.1-2,0.3c-0.4,0.2-0.5,0.6-0.6,1.1c0,0.4,0.1,0.8,0.4,1c0.3,0.2,0.6,0.4,1.1,0.4c0.6,0,1.2-0.2,1.6-0.7
	c0.4-0.5,0.6-1.1,0.6-1.8V273.4z M396.5,272.9v4.1h-1.2v-1.1c-0.3,0.4-0.6,0.8-1,1c-0.4,0.2-0.9,0.3-1.5,0.3c-0.7,0-1.3-0.2-1.7-0.6
	c-0.4-0.4-0.6-1-0.6-1.6c0-0.8,0.3-1.4,0.8-1.8c0.5-0.4,1.3-0.6,2.4-0.6h1.6v-0.1c0-0.5-0.2-1-0.5-1.2s-0.9-0.4-1.5-0.4
	c-0.4,0-0.8,0-1.2,0.1c-0.4,0.1-0.8,0.2-1.1,0.4v-1.1c0.4-0.2,0.8-0.3,1.2-0.4c0.4-0.1,0.8-0.1,1.2-0.1c1,0,1.8,0.3,2.3,0.8
	C396.3,271.1,396.5,271.9,396.5,272.9z M403,269.8l0,1.2c-0.1-0.1-0.3-0.1-0.4-0.2c-0.1,0-0.3-0.1-0.5-0.1c-0.7,0-1.2,0.2-1.5,0.6
	c-0.3,0.4-0.5,1-0.5,1.8v3.8h-1.2v-7.1h1.2v1.1c0.2-0.4,0.6-0.8,1-1c0.4-0.2,0.9-0.3,1.4-0.3c0.1,0,0.2,0,0.3,0
	C402.8,269.7,402.9,269.8,403,269.8z M408.7,273.4h-1.2c-0.9,0-1.6,0.1-2,0.3c-0.4,0.2-0.5,0.6-0.5,1.1c0,0.4,0.1,0.8,0.4,1
	c0.3,0.2,0.6,0.4,1.1,0.4c0.6,0,1.2-0.2,1.6-0.7c0.4-0.5,0.6-1.1,0.6-1.8V273.4z M409.8,272.9v4.1h-1.2v-1.1c-0.3,0.4-0.6,0.8-1,1
	c-0.4,0.2-0.9,0.3-1.5,0.3c-0.7,0-1.3-0.2-1.7-0.6c-0.4-0.4-0.6-1-0.6-1.6c0-0.8,0.3-1.4,0.8-1.8c0.5-0.4,1.3-0.6,2.4-0.6h1.6v-0.1
	c0-0.5-0.2-1-0.5-1.2s-0.8-0.4-1.5-0.4c-0.4,0-0.8,0-1.2,0.1c-0.4,0.1-0.8,0.2-1.1,0.4v-1.1c0.4-0.2,0.8-0.3,1.2-0.4
	c0.4-0.1,0.8-0.1,1.2-0.1c1,0,1.8,0.3,2.3,0.8C409.6,271.1,409.8,271.9,409.8,272.9z M418.1,272.7v4.3H417v-4.2
	c0-0.7-0.1-1.2-0.4-1.5c-0.3-0.3-0.7-0.5-1.2-0.5c-0.6,0-1.1,0.2-1.5,0.6c-0.4,0.4-0.5,0.9-0.5,1.6v4h-1.2v-7.1h1.2v1.1
	c0.3-0.4,0.6-0.8,1-1c0.4-0.2,0.8-0.3,1.3-0.3c0.8,0,1.4,0.3,1.8,0.8S418.1,271.7,418.1,272.7z M425.2,273.4c0-0.8-0.2-1.5-0.5-2
	c-0.3-0.5-0.8-0.7-1.5-0.7c-0.6,0-1.1,0.2-1.5,0.7c-0.3,0.5-0.5,1.1-0.5,2c0,0.8,0.2,1.5,0.5,2c0.3,0.5,0.8,0.7,1.5,0.7
	c0.6,0,1.1-0.2,1.5-0.7C425,274.9,425.2,274.2,425.2,273.4z M426.3,269.9v6.2c0,1.2-0.3,2.1-0.8,2.7c-0.5,0.6-1.4,0.9-2.5,0.9
	c-0.4,0-0.8,0-1.2-0.1c-0.4-0.1-0.7-0.2-1.1-0.3v-1.1c0.3,0.2,0.7,0.3,1,0.4c0.3,0.1,0.7,0.1,1,0.1c0.8,0,1.3-0.2,1.7-0.6
	c0.4-0.4,0.6-1,0.6-1.8v-0.6c-0.2,0.4-0.6,0.7-0.9,0.9c-0.4,0.2-0.8,0.3-1.4,0.3c-0.9,0-1.6-0.3-2.1-1c-0.5-0.7-0.8-1.5-0.8-2.6
	s0.3-2,0.8-2.6c0.5-0.7,1.2-1,2.1-1c0.5,0,1,0.1,1.4,0.3c0.4,0.2,0.7,0.5,0.9,0.9v-1.1H426.3z M433.1,273.4H432
	c-0.9,0-1.6,0.1-2,0.3c-0.4,0.2-0.5,0.6-0.5,1.1c0,0.4,0.1,0.8,0.4,1c0.3,0.2,0.6,0.4,1.1,0.4c0.6,0,1.2-0.2,1.5-0.7
	c0.4-0.5,0.6-1.1,0.6-1.8V273.4z M434.3,272.9v4.1h-1.2v-1.1c-0.3,0.4-0.6,0.8-1,1c-0.4,0.2-0.9,0.3-1.5,0.3c-0.7,0-1.3-0.2-1.7-0.6
	c-0.4-0.4-0.6-1-0.6-1.6c0-0.8,0.3-1.4,0.8-1.8c0.5-0.4,1.3-0.6,2.4-0.6h1.6v-0.1c0-0.5-0.2-1-0.5-1.2s-0.9-0.4-1.5-0.4
	c-0.4,0-0.8,0-1.2,0.1c-0.4,0.1-0.8,0.2-1.1,0.4v-1.1c0.4-0.2,0.8-0.3,1.2-0.4c0.4-0.1,0.8-0.1,1.2-0.1c1,0,1.8,0.3,2.3,0.8
	C434,271.1,434.3,271.9,434.3,272.9z M436.7,277v-9.9h1.2v9.9H436.7z"/>
<path id="Created_with_paintmaps.com" d="M647.2,512.2c-0.8,0-1.5,0.3-2,0.8c-0.5,0.5-0.7,1.3-0.7,2.2c0,0.9,0.2,1.7,0.7,2.2
	c0.5,0.6,1.1,0.8,2,0.8c1.1,0,1.9-0.5,2.4-1.6l0.8,0.4c-0.3,0.7-0.7,1.2-1.3,1.5c-0.6,0.3-1.2,0.5-2,0.5c-0.8,0-1.4-0.2-2-0.5
	c-0.6-0.3-1-0.8-1.3-1.3c-0.3-0.6-0.4-1.3-0.4-2.1c0-1.2,0.3-2.2,1-2.8c0.6-0.7,1.5-1,2.7-1c0.8,0,1.5,0.2,2,0.5s0.9,0.8,1.2,1.4
	l-1,0.3c-0.2-0.4-0.5-0.8-0.8-1C648.2,512.3,647.8,512.2,647.2,512.2z M652.7,519h-1v-4.5c0-0.4,0-0.9,0-1.3h0.9c0,0.7,0,1.1,0,1.2
	h0c0.2-0.5,0.3-0.8,0.5-1c0.2-0.2,0.5-0.3,0.9-0.3c0.1,0,0.3,0,0.4,0v0.9c-0.1,0-0.3-0.1-0.5-0.1c-0.4,0-0.7,0.2-0.9,0.5
	c-0.2,0.3-0.3,0.8-0.3,1.5V519z M660.2,516.3h-4.1c0,0.7,0.1,1.2,0.4,1.5c0.3,0.4,0.7,0.5,1.2,0.5c0.4,0,0.8-0.1,1-0.2
	c0.3-0.2,0.4-0.4,0.5-0.6l0.9,0.2c-0.3,0.9-1.1,1.4-2.4,1.4c-0.9,0-1.5-0.3-2-0.8c-0.5-0.5-0.7-1.3-0.7-2.3c0-1,0.2-1.7,0.7-2.2
	c0.4-0.5,1.1-0.8,1.9-0.8c1.7,0,2.6,1,2.6,3.1V516.3z M656.1,515.6h3.1c-0.1-0.6-0.2-1.1-0.5-1.3c-0.3-0.3-0.6-0.4-1.1-0.4
	c-0.5,0-0.8,0.2-1.1,0.5C656.3,514.6,656.1,515,656.1,515.6z M663,519.1c-0.6,0-1-0.2-1.3-0.5c-0.3-0.3-0.4-0.7-0.4-1.3
	c0-0.6,0.2-1.1,0.6-1.4c0.4-0.3,1-0.5,1.9-0.5l1.3,0v-0.3c0-0.5-0.1-0.8-0.3-1c-0.2-0.2-0.5-0.3-0.9-0.3c-0.4,0-0.8,0.1-1,0.2
	c-0.2,0.1-0.3,0.4-0.3,0.7l-1-0.1c0.2-1,0.9-1.6,2.3-1.6c0.7,0,1.3,0.2,1.6,0.5c0.4,0.3,0.5,0.8,0.5,1.4v2.5c0,0.3,0,0.5,0.1,0.7
	c0.1,0.1,0.2,0.2,0.4,0.2c0.1,0,0.2,0,0.3,0v0.6c-0.2,0.1-0.5,0.1-0.7,0.1c-0.4,0-0.6-0.1-0.8-0.3c-0.2-0.2-0.2-0.5-0.3-0.9h0
	c-0.3,0.4-0.5,0.8-0.9,0.9C663.8,519,663.4,519.1,663,519.1z M663.2,518.4c0.4,0,0.7-0.1,0.9-0.2c0.3-0.2,0.5-0.4,0.7-0.7
	c0.2-0.3,0.2-0.6,0.2-0.9v-0.5l-1.1,0c-0.5,0-0.8,0.1-1,0.1c-0.2,0.1-0.4,0.2-0.5,0.4c-0.1,0.2-0.2,0.4-0.2,0.7
	c0,0.3,0.1,0.6,0.2,0.7C662.6,518.3,662.9,518.4,663.2,518.4z M669.8,518.2v0.7c-0.3,0.1-0.6,0.1-1,0.1c-0.8,0-1.2-0.4-1.2-1.3v-3.9
	H667v-0.7h0.7l0.3-1.3h0.7v1.3h1.1v0.7h-1.1v3.7c0,0.3,0,0.5,0.1,0.6c0.1,0.1,0.3,0.2,0.5,0.2C669.4,518.3,669.6,518.3,669.8,518.2z
	 M675.5,516.3h-4.2c0,0.7,0.1,1.2,0.4,1.5c0.3,0.4,0.7,0.5,1.2,0.5c0.4,0,0.8-0.1,1-0.2s0.4-0.4,0.5-0.6l0.8,0.2
	c-0.3,0.9-1.1,1.4-2.4,1.4c-0.9,0-1.5-0.3-2-0.8c-0.4-0.5-0.7-1.3-0.7-2.3c0-1,0.2-1.7,0.7-2.2c0.4-0.5,1.1-0.8,1.9-0.8
	c1.7,0,2.6,1,2.6,3.1V516.3z M671.4,515.6h3.1c-0.1-0.6-0.2-1.1-0.5-1.3c-0.3-0.3-0.6-0.4-1.1-0.4c-0.5,0-0.8,0.2-1.1,0.5
	C671.6,514.6,671.4,515,671.4,515.6z M680.5,518.1L680.5,518.1c-0.2,0.4-0.4,0.6-0.7,0.8c-0.3,0.2-0.7,0.2-1.1,0.2
	c-0.7,0-1.3-0.2-1.6-0.7c-0.3-0.5-0.5-1.2-0.5-2.2c0-2,0.7-3,2.1-3c0.4,0,0.8,0.1,1.1,0.2c0.3,0.2,0.5,0.4,0.7,0.8h0l0-0.7V511h1
	v6.8c0,0.6,0,1,0,1.2h-0.9c0-0.1,0-0.2,0-0.4C680.5,518.4,680.5,518.2,680.5,518.1z M677.5,516.1c0,0.8,0.1,1.4,0.3,1.7
	c0.2,0.4,0.6,0.5,1,0.5c0.5,0,0.9-0.2,1.2-0.6c0.2-0.4,0.4-1,0.4-1.8c0-0.8-0.1-1.3-0.4-1.7c-0.3-0.4-0.7-0.5-1.2-0.5
	c-0.5,0-0.8,0.2-1,0.5C677.6,514.7,677.5,515.3,677.5,516.1z M693.2,513.2l-1.7,5.8h-1.1l-1-4.1l-0.2-0.9c0,0.2-0.1,0.4-0.1,0.7
	c-0.1,0.3-0.4,1.7-1.1,4.3h-1.1l-1.6-5.8h1l1,4c0,0.1,0.1,0.4,0.2,1.1l0.1-0.4l1.2-4.6h1l1,4l0.2,1l0.2-0.8l1.1-4.3H693.2z
	 M694.8,512h-1V511h1V512z M694.8,519h-1v-5.8h1V519z M698.5,518.2v0.7c-0.3,0.1-0.6,0.1-1,0.1c-0.8,0-1.2-0.4-1.2-1.3v-3.9h-0.7
	v-0.7h0.7l0.3-1.3h0.6v1.3h1.1v0.7h-1.1v3.7c0,0.3,0,0.5,0.1,0.6c0.1,0.1,0.2,0.2,0.5,0.2C698.1,518.3,698.3,518.3,698.5,518.2z
	 M700.3,514.2L700.3,514.2c0.2-0.4,0.5-0.7,0.8-0.8c0.3-0.2,0.7-0.3,1.1-0.3c0.6,0,1.1,0.2,1.4,0.5c0.3,0.3,0.4,0.8,0.4,1.6v3.9h-1
	v-3.7c0-0.4,0-0.7-0.1-0.9c-0.1-0.2-0.2-0.3-0.4-0.4s-0.4-0.1-0.7-0.1c-0.5,0-0.8,0.2-1.1,0.5c-0.3,0.3-0.4,0.7-0.4,1.3v3.4h-1v-8h1
	v2.1c0,0.2,0,0.4,0,0.7C700.3,514,700.3,514.1,700.3,514.2z M713.5,516.1c0,2-0.7,3-2.1,3c-0.9,0-1.5-0.3-1.8-1h0c0,0,0,0.3,0,0.9
	v2.3h-1v-6.9c0-0.6,0-1,0-1.2h0.9c0,0,0,0.1,0,0.2c0,0.1,0,0.2,0,0.4c0,0.2,0,0.3,0,0.4h0c0.2-0.4,0.4-0.6,0.7-0.8
	c0.3-0.2,0.7-0.2,1.1-0.2c0.7,0,1.2,0.2,1.6,0.7C713.3,514.3,713.5,515,713.5,516.1z M712.5,516.1c0-0.8-0.1-1.4-0.3-1.7
	c-0.2-0.3-0.6-0.5-1-0.5c-0.4,0-0.7,0.1-0.9,0.2c-0.2,0.2-0.4,0.4-0.5,0.8c-0.1,0.3-0.2,0.8-0.2,1.3c0,0.8,0.1,1.3,0.4,1.7
	c0.2,0.4,0.6,0.5,1.2,0.5c0.5,0,0.8-0.2,1-0.5C712.3,517.5,712.5,516.9,712.5,516.1z M716.2,519.1c-0.6,0-1-0.2-1.3-0.5
	c-0.3-0.3-0.4-0.7-0.4-1.3c0-0.6,0.2-1.1,0.6-1.4c0.4-0.3,1-0.5,1.9-0.5l1.3,0v-0.3c0-0.5-0.1-0.8-0.3-1c-0.2-0.2-0.5-0.3-0.9-0.3
	c-0.4,0-0.8,0.1-1,0.2c-0.2,0.1-0.3,0.4-0.4,0.7l-1-0.1c0.2-1,0.9-1.6,2.3-1.6c0.7,0,1.3,0.2,1.7,0.5c0.4,0.3,0.5,0.8,0.5,1.4v2.5
	c0,0.3,0,0.5,0.1,0.7c0.1,0.1,0.2,0.2,0.4,0.2c0.1,0,0.2,0,0.3,0v0.6c-0.2,0.1-0.5,0.1-0.7,0.1c-0.4,0-0.6-0.1-0.8-0.3
	c-0.2-0.2-0.2-0.5-0.3-0.9h0c-0.2,0.4-0.5,0.8-0.9,0.9C717,519,716.6,519.1,716.2,519.1z M716.4,518.4c0.4,0,0.7-0.1,0.9-0.2
	c0.3-0.2,0.5-0.4,0.7-0.7c0.2-0.3,0.2-0.6,0.2-0.9v-0.5l-1.1,0c-0.5,0-0.8,0.1-1,0.1c-0.2,0.1-0.4,0.2-0.5,0.4
	c-0.1,0.2-0.2,0.4-0.2,0.7c0,0.3,0.1,0.6,0.2,0.7C715.8,518.3,716.1,518.4,716.4,518.4z M721.8,512h-1V511h1V512z M721.8,519h-1
	v-5.8h1V519z M727.9,519h-1v-3.7c0-0.4,0-0.7-0.1-0.9c-0.1-0.2-0.2-0.4-0.4-0.5c-0.2-0.1-0.4-0.1-0.7-0.1c-0.5,0-0.8,0.2-1.1,0.5
	c-0.3,0.3-0.4,0.8-0.4,1.3v3.4h-1v-4.6c0-0.7,0-1.1,0-1.2h0.9c0,0,0,0.1,0,0.1c0,0.1,0,0.2,0,0.3c0,0.1,0,0.3,0,0.6h0
	c0.2-0.4,0.5-0.7,0.8-0.8c0.3-0.2,0.7-0.2,1.1-0.2c0.6,0,1.1,0.2,1.4,0.5c0.3,0.3,0.4,0.8,0.5,1.6V519z M731.6,518.2v0.7
	c-0.3,0.1-0.6,0.1-1,0.1c-0.8,0-1.2-0.4-1.2-1.3v-3.9h-0.7v-0.7h0.7l0.3-1.3h0.6v1.3h1.1v0.7h-1.1v3.7c0,0.3,0,0.5,0.1,0.6
	c0.1,0.1,0.3,0.2,0.5,0.2C731.1,518.3,731.3,518.3,731.6,518.2z M736.7,519h-1v-3.7c0-0.6-0.1-1-0.2-1.2c-0.2-0.2-0.4-0.3-0.8-0.3
	c-0.4,0-0.7,0.2-1,0.5s-0.4,0.8-0.4,1.3v3.4h-1v-4.6c0-0.7,0-1.1,0-1.2h0.9c0,0,0,0.1,0,0.1c0,0.1,0,0.2,0,0.3c0,0.1,0,0.3,0,0.6h0
	c0.2-0.4,0.4-0.7,0.7-0.9c0.3-0.2,0.6-0.2,1-0.2c0.4,0,0.8,0.1,1,0.3c0.3,0.2,0.4,0.5,0.5,0.8h0c0.2-0.4,0.4-0.7,0.7-0.8
	c0.3-0.2,0.6-0.3,1-0.3c0.6,0,1,0.2,1.3,0.5c0.3,0.3,0.4,0.8,0.4,1.6v3.9h-1v-3.7c0-0.6-0.1-1-0.2-1.2s-0.4-0.3-0.8-0.3
	c-0.4,0-0.8,0.2-1,0.5c-0.2,0.3-0.4,0.8-0.4,1.3V519z M743,519.1c-0.6,0-1-0.2-1.3-0.5c-0.3-0.3-0.4-0.7-0.4-1.3
	c0-0.6,0.2-1.1,0.6-1.4c0.4-0.3,1-0.5,1.9-0.5l1.3,0v-0.3c0-0.5-0.1-0.8-0.3-1c-0.2-0.2-0.5-0.3-0.9-0.3c-0.4,0-0.7,0.1-1,0.2
	c-0.2,0.1-0.3,0.4-0.3,0.7l-1-0.1c0.2-1,0.9-1.6,2.3-1.6c0.7,0,1.3,0.2,1.7,0.5c0.4,0.3,0.5,0.8,0.5,1.4v2.5c0,0.3,0,0.5,0.1,0.7
	c0.1,0.1,0.2,0.2,0.4,0.2c0.1,0,0.2,0,0.3,0v0.6c-0.2,0.1-0.5,0.1-0.8,0.1c-0.4,0-0.6-0.1-0.8-0.3c-0.2-0.2-0.2-0.5-0.3-0.9h0
	c-0.2,0.4-0.5,0.8-0.9,0.9C743.9,519,743.5,519.1,743,519.1z M743.3,518.4c0.4,0,0.7-0.1,0.9-0.2c0.3-0.2,0.5-0.4,0.6-0.7
	c0.2-0.3,0.2-0.6,0.2-0.9v-0.5l-1,0c-0.5,0-0.8,0.1-1,0.1s-0.4,0.2-0.5,0.4c-0.1,0.2-0.2,0.4-0.2,0.7c0,0.3,0.1,0.6,0.3,0.7
	C742.7,518.3,743,518.4,743.3,518.4z M752.6,516.1c0,2-0.7,3-2.1,3c-0.9,0-1.5-0.3-1.8-1h0c0,0,0,0.3,0,0.9v2.3h-1v-6.9
	c0-0.6,0-1,0-1.2h0.9c0,0,0,0.1,0,0.2s0,0.2,0,0.4c0,0.2,0,0.3,0,0.4h0c0.2-0.4,0.4-0.6,0.7-0.8c0.3-0.2,0.7-0.2,1.1-0.2
	c0.7,0,1.2,0.2,1.6,0.7C752.4,514.3,752.6,515,752.6,516.1z M751.6,516.1c0-0.8-0.1-1.4-0.3-1.7c-0.2-0.3-0.6-0.5-1-0.5
	c-0.4,0-0.7,0.1-0.9,0.2c-0.2,0.2-0.4,0.4-0.5,0.8c-0.1,0.3-0.2,0.8-0.2,1.3c0,0.8,0.1,1.3,0.4,1.7c0.2,0.4,0.6,0.5,1.2,0.5
	c0.5,0,0.8-0.2,1-0.5C751.5,517.5,751.6,516.9,751.6,516.1z M758.2,517.4c0,0.6-0.2,1-0.6,1.3c-0.4,0.3-1,0.5-1.7,0.5
	c-0.7,0-1.3-0.1-1.7-0.4c-0.4-0.2-0.6-0.6-0.8-1.1l0.8-0.2c0.1,0.3,0.3,0.5,0.5,0.7c0.3,0.1,0.6,0.2,1.1,0.2c0.5,0,0.9-0.1,1.1-0.2
	c0.2-0.2,0.3-0.4,0.3-0.7c0-0.2-0.1-0.4-0.2-0.6c-0.2-0.1-0.4-0.3-0.8-0.3l-0.7-0.2c-0.6-0.1-1-0.3-1.2-0.4
	c-0.2-0.1-0.4-0.3-0.6-0.5c-0.1-0.2-0.2-0.4-0.2-0.7c0-0.5,0.2-0.9,0.6-1.2c0.4-0.3,0.9-0.4,1.7-0.4c0.6,0,1.2,0.1,1.5,0.3
	c0.4,0.2,0.6,0.6,0.7,1.1l-0.9,0.1c-0.1-0.3-0.2-0.5-0.4-0.6c-0.2-0.1-0.5-0.2-0.9-0.2c-0.4,0-0.8,0.1-1,0.2
	c-0.2,0.1-0.3,0.3-0.3,0.6c0,0.2,0,0.3,0.1,0.4c0.1,0.1,0.2,0.2,0.4,0.3c0.2,0.1,0.5,0.2,1.1,0.3c0.5,0.1,0.9,0.2,1.1,0.4
	c0.2,0.1,0.4,0.2,0.5,0.4s0.2,0.3,0.3,0.5C758.1,517,758.2,517.2,758.2,517.4z M760.6,519h-1v-1.2h1V519z M763.1,516.1
	c0,0.8,0.1,1.3,0.4,1.7c0.2,0.4,0.6,0.6,1.1,0.6c0.3,0,0.6-0.1,0.9-0.3c0.2-0.2,0.4-0.5,0.4-0.9l1,0.1c-0.1,0.6-0.3,1-0.7,1.3
	s-0.9,0.5-1.5,0.5c-0.8,0-1.4-0.3-1.9-0.8c-0.4-0.5-0.6-1.3-0.6-2.2c0-1,0.2-1.7,0.6-2.2c0.4-0.5,1-0.8,1.8-0.8
	c0.6,0,1.1,0.2,1.5,0.5c0.4,0.3,0.6,0.7,0.7,1.3l-1,0.1c-0.1-0.3-0.2-0.6-0.4-0.8c-0.2-0.2-0.5-0.3-0.9-0.3c-0.5,0-0.9,0.2-1.1,0.5
	C763.2,514.7,763.1,515.3,763.1,516.1z M772.8,516.1c0,1-0.2,1.8-0.7,2.3c-0.4,0.5-1.1,0.8-1.9,0.8c-0.8,0-1.5-0.3-1.9-0.8
	c-0.4-0.5-0.6-1.3-0.6-2.2c0-2,0.9-3,2.6-3c0.9,0,1.5,0.2,2,0.7C772.6,514.3,772.8,515.1,772.8,516.1z M771.8,516.1
	c0-0.8-0.1-1.4-0.4-1.8c-0.2-0.4-0.6-0.5-1.2-0.5c-0.6,0-1,0.2-1.2,0.5c-0.3,0.4-0.4,1-0.4,1.7c0,0.8,0.1,1.3,0.4,1.7
	c0.3,0.4,0.6,0.6,1.2,0.6c0.6,0,1-0.2,1.2-0.6C771.6,517.5,771.8,516.9,771.8,516.1z M778.3,519h-1v-3.7c0-0.6-0.1-1-0.2-1.2
	c-0.2-0.2-0.4-0.3-0.8-0.3c-0.4,0-0.7,0.2-1,0.5s-0.4,0.8-0.4,1.3v3.4h-1v-4.6c0-0.7,0-1.1,0-1.2h0.9c0,0,0,0.1,0,0.1
	c0,0.1,0,0.2,0,0.3c0,0.1,0,0.3,0,0.6h0c0.2-0.4,0.4-0.7,0.7-0.9c0.3-0.2,0.6-0.2,1-0.2c0.4,0,0.8,0.1,1,0.3
	c0.3,0.2,0.4,0.5,0.5,0.8h0c0.2-0.4,0.4-0.7,0.7-0.8c0.3-0.2,0.6-0.3,1-0.3c0.6,0,1,0.2,1.3,0.5c0.3,0.3,0.4,0.8,0.4,1.6v3.9h-1
	v-3.7c0-0.6-0.1-1-0.2-1.2s-0.4-0.3-0.8-0.3c-0.4,0-0.8,0.2-1,0.5c-0.2,0.3-0.3,0.8-0.3,1.3V519z"/>
</svg>
